<svg xmlns="http://www.w3.org/2000/svg" xmlns:xlink="http://www.w3.org/1999/xlink" width="500" zoomAndPan="magnify" viewBox="0 0 375 374.999991" height="500" preserveAspectRatio="xMidYMid meet" version="1.0"><defs><clipPath id="62522db3ba"><path d="M 112.441406 112.441406 L 375 112.441406 L 375 375 L 112.441406 375 Z M 112.441406 112.441406 " clip-rule="nonzero"/></clipPath><clipPath id="bddd13e2b5"><path d="M 375 112.441406 C 229.992188 112.441406 112.441406 229.992188 112.441406 375 C 112.441406 520.007812 229.992188 637.558594 375 637.558594 C 520.007812 637.558594 637.558594 520.007812 637.558594 375 C 637.558594 229.992188 520.007812 112.441406 375 112.441406 Z M 375 112.441406 " clip-rule="nonzero"/></clipPath></defs><rect x="-37.5" width="450" fill="#ffffff" y="-37.499999" height="449.999989" fill-opacity="1"/><rect x="-37.5" width="450" fill="#ffffff" y="-37.499999" height="449.999989" fill-opacity="1"/><g clip-path="url(#62522db3ba)"><g clip-path="url(#bddd13e2b5)"><path fill="#ebe0ff" d="M 112.441406 112.441406 L 637.558594 112.441406 L 637.558594 637.558594 L 112.441406 637.558594 Z M 112.441406 112.441406 " fill-opacity="1" fill-rule="nonzero"/></g></g><path fill="#f1eaff" d="M 179.476562 299.847656 C 183.789062 310.316406 193.886719 315.261719 200.34375 318.425781 C 206.777344 321.578125 214.0625 323.835938 221.804688 325.082031 C 229.183594 326.269531 237.246094 323.570312 245.117188 322.816406 C 254.882812 321.878906 264.5 322.339844 273.863281 318.0625 C 280.328125 315.105469 286.542969 311.308594 292.296875 306.597656 C 298.816406 301.265625 330.941406 273.328125 323.503906 235.542969 C 316.925781 202.140625 283.707031 182.789062 255.71875 180.234375 C 232.53125 178.121094 202.242188 186.578125 191.523438 206.96875 C 184.78125 219.789062 192.863281 223.855469 187.332031 252.898438 C 182.546875 278.035156 174.199219 287.042969 179.476562 299.847656 " fill-opacity="1" fill-rule="nonzero"/><path fill="#000000" d="M 274.277344 317.9375 C 272.972656 308.175781 271.988281 301.855469 271.988281 301.855469 L 230.761719 294.695312 L 226.644531 306.367188 C 225.414062 309.902344 223.726562 315.132812 222.152344 321.5625 C 221.921875 322.511719 221.625 323.753906 221.355469 325.011719 C 238.132812 327.753906 257.152344 325.898438 274.277344 317.9375 " fill-opacity="1" fill-rule="nonzero"/><path fill="#000000" d="M 222.257812 305.445312 C 221.347656 308.5625 219.917969 312.875 221.5 314.945312 C 224.375 318.710938 226.761719 318.105469 230.3125 316.8125 C 237.414062 314.222656 248.746094 310.132812 252.054688 312.40625 L 252.203125 305.445312 L 222.257812 305.445312 " fill-opacity="1" fill-rule="nonzero"/><path fill="#8c52ff" d="M 262.980469 238.664062 C 268.878906 238.636719 274.265625 241.972656 276.847656 247.242188 C 279.835938 253.34375 284.054688 269.316406 284.21875 276.292969 C 284.507812 288.488281 273.828125 289.175781 273.511719 289.191406 C 273.503906 289.191406 273.503906 289.195312 273.503906 289.199219 C 273.535156 289.554688 274.785156 302.800781 274.882812 305.152344 C 275.0625 309.457031 267.085938 316.167969 257.921875 312.859375 C 248.804688 309.570312 223.894531 303.015625 221.363281 308.597656 C 221.359375 308.605469 221.347656 308.601562 221.351562 308.59375 L 231.800781 269.828125 C 231.804688 269.820312 231.800781 269.816406 231.792969 269.816406 L 223.214844 270.230469 C 223.214844 270.230469 223.214844 270.230469 223.210938 270.230469 L 216.226562 266.191406 C 216.222656 266.1875 216.222656 266.1875 216.222656 266.183594 L 217.992188 258.347656 C 221.351562 244.960938 230.34375 238.816406 241.945312 238.761719 L 262.980469 238.664062 " fill-opacity="1" fill-rule="nonzero"/><path fill="#ffffff" d="M 235.472656 268.574219 C 233.867188 268.277344 234.308594 266.417969 228.675781 266.082031 C 212.417969 265.113281 220.296875 256.859375 229.609375 258.433594 C 232.695312 258.953125 233.910156 260.949219 235.070312 261.457031 C 244.8125 265.707031 238.667969 269.164062 235.472656 268.574219 " fill-opacity="1" fill-rule="nonzero"/><path fill="#000000" d="M 235.519531 268.3125 C 237.152344 268.613281 239.59375 267.78125 240.015625 266.414062 C 240.265625 265.585938 239.949219 263.875 234.964844 261.699219 C 234.554688 261.519531 234.160156 261.1875 233.699219 260.804688 C 232.757812 260.015625 231.585938 259.035156 229.566406 258.691406 C 225.292969 257.972656 221.347656 259.347656 220.007812 261.097656 C 219.679688 261.523438 219.359375 262.179688 219.683594 262.890625 C 220.019531 263.628906 221.574219 265.394531 228.691406 265.816406 C 232.558594 266.046875 233.644531 266.992188 234.4375 267.683594 C 234.800781 268 235.0625 268.226562 235.519531 268.3125 Z M 236.257812 268.90625 C 235.96875 268.90625 235.6875 268.882812 235.425781 268.832031 C 234.824219 268.722656 234.46875 268.410156 234.089844 268.082031 C 233.355469 267.441406 232.347656 266.566406 228.660156 266.347656 C 223.367188 266.03125 220.007812 264.882812 219.199219 263.113281 C 218.855469 262.359375 218.988281 261.550781 219.585938 260.773438 C 221.023438 258.902344 225.183594 257.417969 229.652344 258.171875 C 231.816406 258.535156 233.101562 259.613281 234.042969 260.398438 C 234.46875 260.757812 234.835938 261.066406 235.175781 261.214844 C 240.269531 263.433594 240.894531 265.351562 240.519531 266.566406 C 240.078125 268.015625 238.023438 268.90625 236.257812 268.90625 " fill-opacity="1" fill-rule="nonzero"/><path fill="#ffffff" d="M 255.9375 240.945312 C 256.480469 240.484375 256.191406 239.597656 255.484375 239.511719 L 254.378906 239.378906 C 253.195312 239.234375 252.207031 238.449219 251.824219 237.359375 L 250.007812 223.949219 L 246.285156 225.28125 L 241.355469 222.84375 L 241.796875 237.171875 C 241.761719 238.421875 240.945312 239.527344 239.742188 239.957031 L 238.300781 240.472656 C 237.542969 240.742188 237.507812 241.769531 238.242188 242.089844 C 241.175781 243.367188 253.097656 243.378906 255.9375 240.945312 " fill-opacity="1" fill-rule="nonzero"/><path fill="#000000" d="M 241.636719 223.277344 L 242.0625 237.164062 C 242.023438 238.546875 241.148438 239.734375 239.832031 240.207031 L 238.390625 240.722656 C 238.097656 240.828125 237.984375 241.078125 237.976562 241.273438 C 237.972656 241.46875 238.066406 241.722656 238.347656 241.847656 C 239.757812 242.460938 243.359375 242.789062 247.113281 242.644531 C 251.328125 242.484375 254.5625 241.773438 255.765625 240.746094 C 255.933594 240.601562 255.996094 240.390625 255.929688 240.175781 C 255.875 240.003906 255.722656 239.808594 255.449219 239.777344 L 254.347656 239.644531 C 253.0625 239.488281 251.996094 238.644531 251.574219 237.449219 C 251.566406 237.429688 251.5625 237.414062 251.558594 237.394531 L 249.789062 224.308594 L 246.375 225.53125 C 246.304688 225.554688 246.230469 225.550781 246.167969 225.519531 Z M 245.390625 243.207031 C 242.226562 243.207031 239.382812 242.878906 238.136719 242.335938 C 237.695312 242.140625 237.433594 241.726562 237.449219 241.257812 C 237.464844 240.78125 237.757812 240.386719 238.214844 240.222656 L 239.652344 239.707031 C 240.761719 239.3125 241.5 238.3125 241.53125 237.167969 L 241.089844 222.855469 C 241.085938 222.761719 241.132812 222.671875 241.210938 222.621094 C 241.292969 222.570312 241.390625 222.566406 241.472656 222.609375 L 246.300781 224.996094 L 249.917969 223.699219 C 249.992188 223.675781 250.078125 223.683594 250.144531 223.722656 C 250.214844 223.765625 250.257812 223.835938 250.269531 223.914062 L 252.082031 237.296875 C 252.445312 238.289062 253.335938 238.988281 254.414062 239.117188 L 255.515625 239.25 C 255.953125 239.300781 256.308594 239.597656 256.4375 240.023438 C 256.5625 240.4375 256.4375 240.867188 256.109375 241.148438 C 254.25 242.738281 249.214844 243.097656 247.132812 243.175781 C 246.546875 243.199219 245.964844 243.207031 245.390625 243.207031 " fill-opacity="1" fill-rule="nonzero"/><path fill="#ffffff" d="M 251.660156 213.289062 C 258.003906 215.625 256.914062 219.730469 256.914062 219.730469 C 256.835938 220.859375 256.789062 222.929688 257 223.679688 C 257.171875 224.296875 258.1875 225.460938 258.234375 225.804688 C 258.285156 226.148438 257.734375 226.851562 256.636719 227.101562 C 256.636719 227.101562 256.21875 232.589844 254.78125 233.492188 C 253.34375 234.390625 247.804688 232.664062 247.804688 232.664062 L 246.871094 232.289062 C 243.867188 231.085938 242.035156 228.582031 241.160156 225.484375 C 241.160156 225.484375 237.117188 207.933594 251.660156 213.289062 " fill-opacity="1" fill-rule="nonzero"/><path fill="#000000" d="M 247.890625 232.414062 C 249.410156 232.882812 253.546875 233.949219 254.640625 233.265625 C 255.726562 232.585938 256.257812 228.574219 256.371094 227.082031 C 256.378906 226.96875 256.464844 226.871094 256.578125 226.84375 C 257.601562 226.613281 257.996094 225.996094 257.972656 225.84375 C 257.953125 225.734375 257.695312 225.355469 257.507812 225.082031 C 257.183594 224.613281 256.847656 224.125 256.742188 223.75 C 256.496094 222.863281 256.59375 220.535156 256.648438 219.710938 C 256.648438 219.695312 256.652344 219.679688 256.65625 219.664062 C 256.699219 219.503906 257.589844 215.753906 251.566406 213.535156 C 247.75 212.132812 244.914062 212.210938 243.140625 213.773438 C 239.523438 216.960938 241.398438 225.339844 241.417969 225.425781 C 242.332031 228.660156 244.25 230.953125 246.96875 232.042969 Z M 253.421875 234.011719 C 251.320312 234.011719 248.167969 233.054688 247.722656 232.917969 C 247.714844 232.914062 247.710938 232.914062 247.703125 232.910156 L 246.769531 232.535156 C 243.894531 231.382812 241.867188 228.96875 240.90625 225.558594 C 240.820312 225.1875 238.933594 216.769531 242.789062 213.375 C 244.722656 211.675781 247.734375 211.5625 251.75 213.039062 C 257.964844 215.328125 257.261719 219.378906 257.175781 219.769531 C 257.09375 220.960938 257.0625 222.925781 257.253906 223.605469 C 257.335938 223.894531 257.671875 224.386719 257.945312 224.785156 C 258.277344 225.269531 258.46875 225.554688 258.496094 225.765625 C 258.570312 226.28125 257.933594 227.011719 256.886719 227.3125 C 256.789062 228.402344 256.320312 232.839844 254.921875 233.714844 C 254.578125 233.929688 254.046875 234.011719 253.421875 234.011719 " fill-opacity="1" fill-rule="nonzero"/><path fill="#000000" d="M 249.570312 210.316406 C 251.238281 210.722656 252.871094 211.765625 253.730469 211.855469 C 255.121094 212.007812 256.125 210.222656 257.878906 210.871094 C 259.425781 211.4375 260.292969 212.753906 260.511719 214.234375 C 260.546875 214.480469 260.558594 214.742188 260.535156 215.019531 C 260.207031 218.765625 257.863281 219.5625 256.914062 219.730469 C 256.914062 219.730469 251.402344 219.222656 250.328125 219.480469 C 249.324219 219.726562 247.769531 221.289062 247.300781 223.511719 C 247.242188 223.800781 246.992188 224.007812 246.695312 224.03125 C 246.351562 224.058594 246.039062 223.820312 245.984375 223.480469 C 245.796875 222.414062 245.296875 220.277344 244.210938 220.214844 C 242.945312 220.144531 241.335938 222.644531 242.988281 224.210938 C 243.5 224.691406 243.328125 225.570312 242.679688 225.832031 C 242.136719 226.050781 241.457031 226.0625 240.726562 225.46875 C 240.726562 225.46875 237.460938 219.75 239.019531 214.925781 C 240.574219 210.097656 247.351562 209.773438 249.570312 210.316406 " fill-opacity="1" fill-rule="nonzero"/><path fill="#000000" d="M 258.429688 225.660156 C 258.359375 225.660156 258.289062 225.628906 258.234375 225.574219 C 258.136719 225.464844 258.140625 225.300781 258.25 225.199219 C 258.636719 224.839844 258.921875 224.03125 258.964844 223.140625 C 259 222.5 258.910156 221.898438 258.71875 221.441406 C 258.554688 221.050781 258.335938 220.824219 258.117188 220.8125 C 258.109375 220.8125 258.101562 220.8125 258.097656 220.8125 C 257.703125 220.8125 257.28125 221.480469 257.105469 222.382812 C 257.078125 222.527344 256.941406 222.621094 256.796875 222.59375 C 256.652344 222.566406 256.558594 222.429688 256.585938 222.285156 C 256.820312 221.050781 257.445312 220.25 258.140625 220.28125 C 258.578125 220.304688 258.957031 220.644531 259.207031 221.234375 C 259.429688 221.761719 259.53125 222.449219 259.496094 223.167969 C 259.441406 224.203125 259.101562 225.132812 258.609375 225.589844 C 258.558594 225.636719 258.492188 225.660156 258.429688 225.660156 " fill-opacity="1" fill-rule="nonzero"/><path fill="#000000" d="M 254.269531 220.734375 C 253.539062 220.734375 252.875 221.777344 252.808594 223.042969 C 252.777344 223.699219 252.898438 224.324219 253.160156 224.796875 C 253.398438 225.226562 253.71875 225.472656 254.0625 225.492188 C 254.808594 225.527344 255.492188 224.472656 255.558594 223.183594 C 255.59375 222.527344 255.46875 221.90625 255.210938 221.433594 C 254.972656 221 254.652344 220.753906 254.308594 220.734375 C 254.292969 220.734375 254.28125 220.734375 254.269531 220.734375 Z M 254.101562 226.023438 C 254.078125 226.023438 254.058594 226.023438 254.035156 226.023438 C 253.5 225.996094 253.027344 225.648438 252.695312 225.050781 C 252.386719 224.492188 252.242188 223.769531 252.277344 223.015625 C 252.363281 221.386719 253.269531 220.148438 254.335938 220.207031 C 254.867188 220.234375 255.34375 220.578125 255.671875 221.175781 C 255.980469 221.734375 256.128906 222.457031 256.089844 223.210938 C 256.007812 224.808594 255.140625 226.023438 254.101562 226.023438 " fill-opacity="1" fill-rule="nonzero"/><path fill="#000000" d="M 252.742188 222.128906 C 252.734375 222.128906 252.722656 222.128906 252.714844 222.128906 L 246.660156 221.589844 C 246.515625 221.574219 246.40625 221.445312 246.421875 221.300781 C 246.433594 221.152344 246.5625 221.046875 246.710938 221.058594 L 252.765625 221.601562 C 252.910156 221.617188 253.019531 221.742188 253.003906 221.890625 C 252.992188 222.027344 252.875 222.128906 252.742188 222.128906 " fill-opacity="1" fill-rule="nonzero"/><path fill="#8c52ff" d="M 255.722656 201.976562 L 258.480469 209.015625 C 259.59375 211.90625 255.691406 216.078125 249.765625 218.332031 C 243.839844 220.585938 238.132812 220.070312 237.019531 217.179688 L 234.261719 210.140625 L 255.722656 201.976562 " fill-opacity="1" fill-rule="nonzero"/><path fill="#000000" d="M 234.605469 210.292969 L 237.265625 217.082031 C 238.324219 219.832031 243.890625 220.28125 249.671875 218.082031 C 253.679688 216.558594 256.964844 214.019531 258.039062 211.613281 C 258.449219 210.691406 258.515625 209.847656 258.234375 209.113281 L 255.570312 202.316406 Z M 242.757812 220 C 242.347656 220 241.949219 219.984375 241.5625 219.949219 C 239.050781 219.722656 237.347656 218.773438 236.769531 217.273438 L 234.015625 210.238281 C 233.988281 210.171875 233.988281 210.097656 234.019531 210.03125 C 234.046875 209.96875 234.101562 209.917969 234.167969 209.890625 L 255.628906 201.730469 C 255.765625 201.679688 255.917969 201.746094 255.96875 201.878906 L 258.726562 208.921875 C 259.0625 209.792969 258.996094 210.773438 258.523438 211.832031 C 257.378906 214.394531 254.058594 216.980469 249.859375 218.578125 C 247.414062 219.507812 244.9375 220 242.757812 220 " fill-opacity="1" fill-rule="nonzero"/><path fill="#d2c7ff" d="M 232.835938 208.222656 L 242.042969 199.363281 C 242.222656 199.210938 242.449219 199.125 242.6875 199.121094 L 255.496094 199.605469 L 259.878906 197.941406 L 260.695312 200.054688 C 260.746094 200.1875 260.71875 200.347656 260.59375 200.460938 L 247.515625 211.648438 C 247.335938 211.800781 247.109375 211.886719 246.871094 211.890625 L 229.617188 212.238281 C 229.449219 212.246094 229.320312 212.140625 229.269531 212.007812 L 228.453125 209.890625 L 232.835938 208.222656 " fill-opacity="1" fill-rule="nonzero"/><path fill="#000000" d="M 232.835938 208.226562 L 232.839844 208.226562 Z M 228.796875 210.042969 L 229.519531 211.914062 C 229.527344 211.9375 229.550781 211.976562 229.609375 211.976562 C 229.609375 211.976562 229.609375 211.976562 229.613281 211.976562 L 246.867188 211.628906 C 247.042969 211.625 247.210938 211.558594 247.34375 211.449219 L 260.417969 200.257812 C 260.464844 200.21875 260.453125 200.175781 260.445312 200.152344 L 259.726562 198.28125 L 255.589844 199.855469 C 255.558594 199.867188 255.519531 199.875 255.484375 199.871094 L 242.675781 199.386719 C 242.515625 199.390625 242.347656 199.453125 242.214844 199.566406 L 233.019531 208.414062 C 232.996094 208.441406 232.964844 208.460938 232.929688 208.472656 Z M 229.609375 212.503906 C 229.347656 212.503906 229.117188 212.347656 229.023438 212.101562 L 228.207031 209.988281 C 228.183594 209.921875 228.183594 209.847656 228.210938 209.785156 C 228.242188 209.71875 228.292969 209.667969 228.359375 209.644531 L 232.691406 207.996094 L 241.859375 199.175781 C 242.097656 198.972656 242.382812 198.863281 242.679688 198.855469 L 255.453125 199.339844 L 259.785156 197.691406 C 259.917969 197.640625 260.074219 197.707031 260.125 197.84375 L 260.941406 199.960938 C 261.039062 200.210938 260.96875 200.488281 260.765625 200.660156 L 247.6875 211.851562 C 247.460938 212.042969 247.175781 212.152344 246.878906 212.15625 L 229.621094 212.503906 C 229.617188 212.503906 229.613281 212.503906 229.609375 212.503906 " fill-opacity="1" fill-rule="nonzero"/><path fill="#8c52ff" d="M 228.554688 209.488281 L 241.632812 198.300781 C 241.8125 198.144531 242.039062 198.058594 242.273438 198.054688 L 259.53125 197.707031 C 259.871094 197.699219 260.035156 198.125 259.777344 198.34375 L 246.699219 209.53125 C 246.519531 209.6875 246.292969 209.773438 246.058594 209.777344 L 228.800781 210.125 C 228.460938 210.132812 228.296875 209.707031 228.554688 209.488281 " fill-opacity="1" fill-rule="nonzero"/><path fill="#000000" d="M 228.726562 209.6875 C 228.6875 209.726562 228.691406 209.765625 228.703125 209.796875 C 228.710938 209.820312 228.730469 209.863281 228.796875 209.859375 L 246.050781 209.511719 C 246.226562 209.507812 246.394531 209.445312 246.527344 209.332031 L 259.605469 198.140625 C 259.644531 198.105469 259.640625 198.066406 259.628906 198.035156 C 259.621094 198.011719 259.601562 197.96875 259.535156 197.972656 L 242.28125 198.320312 C 242.105469 198.324219 241.9375 198.386719 241.804688 198.5 Z M 228.792969 210.390625 C 228.53125 210.390625 228.300781 210.234375 228.207031 209.984375 C 228.109375 209.734375 228.179688 209.460938 228.382812 209.285156 L 241.460938 198.097656 C 241.683594 197.90625 241.972656 197.796875 242.269531 197.789062 L 259.523438 197.441406 C 259.796875 197.441406 260.03125 197.59375 260.125 197.847656 C 260.21875 198.097656 260.152344 198.371094 259.949219 198.546875 L 246.871094 209.734375 C 246.648438 209.925781 246.359375 210.035156 246.0625 210.042969 L 228.804688 210.390625 C 228.800781 210.390625 228.796875 210.390625 228.792969 210.390625 " fill-opacity="1" fill-rule="nonzero"/><path fill="#d2c7ff" d="M 236.621094 216.277344 C 236.945312 216.269531 237.21875 216.511719 237.246094 216.832031 L 238.109375 225.882812 L 235.640625 225.945312 L 236.027344 216.863281 C 236.039062 216.542969 236.300781 216.285156 236.621094 216.277344 " fill-opacity="1" fill-rule="nonzero"/><path fill="#000000" d="M 236.640625 216.542969 C 236.636719 216.542969 236.632812 216.542969 236.628906 216.542969 C 236.449219 216.546875 236.300781 216.691406 236.292969 216.875 L 235.917969 225.671875 L 237.816406 225.621094 L 236.984375 216.855469 C 236.96875 216.679688 236.816406 216.542969 236.640625 216.542969 Z M 235.640625 226.210938 C 235.570312 226.210938 235.5 226.179688 235.453125 226.128906 C 235.398438 226.078125 235.375 226.007812 235.375 225.933594 L 235.761719 216.851562 C 235.78125 216.394531 236.15625 216.023438 236.617188 216.011719 C 236.625 216.011719 236.632812 216.011719 236.640625 216.011719 C 237.085938 216.011719 237.46875 216.355469 237.511719 216.804688 L 238.371094 225.855469 C 238.378906 225.929688 238.355469 226 238.304688 226.058594 C 238.257812 226.113281 238.1875 226.144531 238.113281 226.144531 L 235.648438 226.210938 C 235.644531 226.210938 235.644531 226.210938 235.640625 226.210938 " fill-opacity="1" fill-rule="nonzero"/><path fill="#000000" d="M 236.734375 216.464844 C 236.589844 216.464844 236.472656 216.347656 236.46875 216.203125 L 236.378906 210.011719 C 236.375 209.933594 236.410156 209.859375 236.46875 209.808594 L 243.839844 203.324219 C 243.949219 203.230469 244.117188 203.238281 244.214844 203.351562 C 244.308594 203.460938 244.300781 203.628906 244.191406 203.722656 L 236.910156 210.128906 L 237 216.195312 C 237 216.339844 236.882812 216.460938 236.738281 216.464844 C 236.738281 216.464844 236.734375 216.464844 236.734375 216.464844 " fill-opacity="1" fill-rule="nonzero"/><path fill="#ffffff" d="M 243.089844 248.34375 C 243.089844 248.34375 245.445312 252.039062 247.570312 251.386719 C 248.683594 251.042969 249.773438 247.398438 250.21875 247.269531 C 251.644531 246.851562 254.355469 246.175781 256.019531 243.203125 C 257.574219 240.425781 257.234375 238.941406 256.835938 238.261719 C 256.648438 237.945312 256.652344 237.554688 256.855469 237.253906 C 257.152344 236.816406 257.441406 236.152344 257.140625 235.46875 C 257.035156 235.226562 257.046875 234.953125 257.148438 234.710938 C 257.546875 233.792969 258.277344 231.675781 256.855469 231.257812 C 256.46875 231.144531 256.054688 231.289062 255.816406 231.613281 C 255.367188 232.234375 254.425781 233.410156 253.257812 234.152344 C 251.613281 235.199219 250.625 235.914062 249.796875 236.386719 C 249.089844 236.792969 248.714844 233.253906 247.011719 231.921875 C 245.5 230.742188 244.984375 231.339844 244.832031 231.894531 C 244.679688 232.449219 245.617188 232.667969 246.152344 235.308594 C 246.777344 238.394531 246.121094 240.992188 245.933594 242.378906 C 245.710938 244.011719 243.089844 248.34375 243.089844 248.34375 " fill-opacity="1" fill-rule="nonzero"/><path fill="#000000" d="M 243.402344 248.335938 C 243.84375 248.976562 245.804688 251.652344 247.492188 251.132812 C 248.0625 250.960938 248.75 249.476562 249.207031 248.496094 C 249.667969 247.5 249.867188 247.09375 250.144531 247.011719 L 250.324219 246.960938 C 251.789062 246.539062 254.242188 245.832031 255.785156 243.074219 C 257.300781 240.367188 256.949219 238.980469 256.605469 238.394531 C 256.363281 237.984375 256.375 237.492188 256.636719 237.105469 C 256.894531 236.722656 257.152344 236.148438 256.898438 235.574219 C 256.769531 235.277344 256.769531 234.921875 256.90625 234.609375 C 257.410156 233.4375 257.554688 232.46875 257.3125 231.949219 C 257.210938 231.730469 257.035156 231.589844 256.78125 231.515625 C 256.503906 231.433594 256.203125 231.535156 256.03125 231.769531 C 255.566406 232.414062 254.601562 233.613281 253.402344 234.375 C 252.683594 234.832031 252.101562 235.21875 251.585938 235.5625 C 250.925781 236 250.402344 236.347656 249.929688 236.617188 C 249.800781 236.691406 249.664062 236.703125 249.53125 236.65625 C 249.167969 236.527344 248.949219 235.972656 248.621094 235.128906 C 248.234375 234.148438 247.707031 232.804688 246.847656 232.132812 C 246.003906 231.476562 245.589844 231.472656 245.417969 231.53125 C 245.226562 231.597656 245.132812 231.800781 245.085938 231.964844 C 245.0625 232.058594 245.117188 232.15625 245.292969 232.421875 C 245.585938 232.863281 246.078125 233.609375 246.410156 235.253906 C 246.945312 237.890625 246.566406 240.15625 246.316406 241.660156 C 246.269531 241.941406 246.226562 242.195312 246.195312 242.417969 C 245.988281 243.929688 243.871094 247.550781 243.402344 248.335938 Z M 247.050781 251.730469 C 244.960938 251.730469 242.957031 248.628906 242.863281 248.484375 C 242.808594 248.398438 242.808594 248.292969 242.863281 248.203125 C 242.886719 248.160156 245.457031 243.902344 245.667969 242.34375 C 245.699219 242.117188 245.746094 241.859375 245.792969 241.570312 C 246.035156 240.109375 246.40625 237.898438 245.890625 235.359375 C 245.578125 233.816406 245.121094 233.125 244.847656 232.710938 C 244.644531 232.402344 244.484375 232.160156 244.578125 231.824219 C 244.6875 231.417969 244.925781 231.136719 245.253906 231.027344 C 245.742188 230.863281 246.371094 231.089844 247.175781 231.714844 C 248.148438 232.476562 248.707031 233.898438 249.113281 234.9375 C 249.292969 235.398438 249.539062 236.023438 249.6875 236.144531 C 250.140625 235.882812 250.652344 235.546875 251.292969 235.121094 C 251.808594 234.777344 252.394531 234.386719 253.117188 233.925781 C 254.242188 233.210938 255.15625 232.074219 255.601562 231.457031 C 255.90625 231.042969 256.4375 230.859375 256.929688 231.003906 C 257.332031 231.125 257.621094 231.363281 257.792969 231.722656 C 258.214844 232.621094 257.722656 234.046875 257.394531 234.816406 C 257.316406 235 257.3125 235.195312 257.386719 235.359375 C 257.660156 235.992188 257.554688 236.695312 257.074219 237.402344 C 256.929688 237.617188 256.925781 237.894531 257.0625 238.125 C 257.554688 238.960938 257.8125 240.542969 256.25 243.332031 C 254.597656 246.28125 251.914062 247.054688 250.472656 247.46875 L 250.320312 247.515625 C 250.191406 247.632812 249.914062 248.234375 249.6875 248.71875 C 248.980469 250.238281 248.386719 251.414062 247.648438 251.640625 C 247.449219 251.703125 247.25 251.730469 247.050781 251.730469 " fill-opacity="1" fill-rule="nonzero"/><path fill="#8c52ff" d="M 250.859375 249.976562 L 243.71875 245.429688 C 243.71875 245.429688 234.066406 261.035156 226.753906 266.332031 C 223.195312 268.910156 216.292969 265.878906 216.292969 265.878906 C 216.292969 265.878906 209.664062 291.351562 222.457031 294.992188 C 243.769531 301.058594 250.859375 249.976562 250.859375 249.976562 " fill-opacity="1" fill-rule="nonzero"/><path fill="#f1eaff" d="M 272.332031 289.765625 C 268.773438 289.765625 264.351562 288.53125 259.15625 286.089844 C 252.9375 283.167969 247.597656 279.445312 244.96875 277.488281 C 244.851562 277.402344 244.828125 277.234375 244.914062 277.117188 C 245 277 245.167969 276.976562 245.285156 277.0625 C 253.496094 283.179688 265.882812 290.015625 273.773438 289.160156 C 273.917969 289.144531 274.050781 289.246094 274.066406 289.394531 C 274.082031 289.539062 273.976562 289.667969 273.832031 289.6875 C 273.347656 289.738281 272.851562 289.765625 272.332031 289.765625 " fill-opacity="1" fill-rule="nonzero"/><path fill="#f1eaff" d="M 261.519531 270.136719 C 257.070312 270.136719 248.855469 266.292969 248.472656 266.113281 C 248.339844 266.046875 248.285156 265.890625 248.347656 265.757812 C 248.410156 265.625 248.566406 265.570312 248.699219 265.632812 C 248.800781 265.679688 258.898438 270.410156 262.636719 269.492188 C 268.929688 267.949219 267.4375 259.894531 267.417969 259.8125 C 267.390625 259.667969 267.484375 259.53125 267.628906 259.5 C 267.773438 259.472656 267.914062 259.566406 267.941406 259.710938 C 267.957031 259.796875 269.542969 268.347656 262.761719 270.007812 C 262.394531 270.097656 261.976562 270.136719 261.519531 270.136719 " fill-opacity="1" fill-rule="nonzero"/><path fill="#f1eaff" d="M 226.128906 267.339844 C 226.050781 267.339844 225.96875 267.300781 225.917969 267.230469 C 225.828125 267.117188 225.855469 266.949219 225.972656 266.859375 C 233.667969 261.109375 243.203125 245.324219 243.300781 245.167969 C 243.375 245.042969 243.539062 245 243.664062 245.078125 C 243.789062 245.152344 243.832031 245.316406 243.753906 245.441406 C 243.660156 245.601562 234.066406 261.472656 226.289062 267.285156 C 226.242188 267.320312 226.183594 267.339844 226.128906 267.339844 " fill-opacity="1" fill-rule="nonzero"/><path fill="#f1eaff" d="M 225.511719 296.007812 C 225.238281 296.007812 224.960938 295.996094 224.6875 295.96875 C 224.542969 295.957031 224.433594 295.828125 224.445312 295.683594 C 224.457031 295.539062 224.585938 295.429688 224.734375 295.441406 C 228.597656 295.777344 232.351562 293.617188 235.902344 289.03125 C 238.777344 285.324219 241.511719 280.035156 244.039062 273.316406 C 248.0625 262.617188 250.269531 251.617188 250.5625 250.105469 L 247.601562 248.21875 C 247.480469 248.140625 247.441406 247.976562 247.519531 247.855469 C 247.597656 247.730469 247.761719 247.695312 247.886719 247.773438 L 251 249.753906 C 251.089844 249.8125 251.136719 249.921875 251.117188 250.027344 C 251.09375 250.144531 248.863281 261.988281 244.539062 273.496094 C 241.992188 280.269531 239.230469 285.605469 236.324219 289.355469 C 232.90625 293.773438 229.273438 296.007812 225.511719 296.007812 " fill-opacity="1" fill-rule="nonzero"/><path fill="#ffffff" d="M 196.816406 221.5625 C 196.863281 226.449219 192.929688 230.574219 188.03125 230.78125 C 183.128906 230.984375 179.121094 227.1875 179.070312 222.300781 C 179.023438 217.414062 182.957031 213.285156 187.855469 213.082031 C 192.757812 212.878906 196.769531 216.671875 196.816406 221.5625 " fill-opacity="1" fill-rule="nonzero"/><path fill="#000000" d="M 187.640625 231.332031 C 185.269531 231.332031 183.042969 230.457031 181.339844 228.835938 C 179.550781 227.136719 178.550781 224.820312 178.523438 222.316406 C 178.472656 217.140625 182.652344 212.753906 187.84375 212.539062 C 190.976562 212.40625 193.914062 213.835938 195.699219 216.359375 C 195.785156 216.476562 195.757812 216.640625 195.636719 216.726562 C 195.515625 216.8125 195.351562 216.78125 195.265625 216.664062 C 193.585938 214.289062 190.820312 212.945312 187.863281 213.066406 C 182.960938 213.273438 179.007812 217.417969 179.054688 222.3125 C 179.078125 224.671875 180.019531 226.851562 181.707031 228.453125 C 183.402344 230.0625 185.644531 230.894531 188.023438 230.792969 C 192.925781 230.589844 196.878906 226.445312 196.832031 221.550781 C 196.828125 221.40625 196.949219 221.285156 197.09375 221.285156 C 197.09375 221.285156 197.09375 221.285156 197.097656 221.285156 C 197.242188 221.285156 197.359375 221.402344 197.363281 221.546875 C 197.414062 226.722656 193.234375 231.109375 188.042969 231.324219 C 187.910156 231.332031 187.773438 231.332031 187.640625 231.332031 " fill-opacity="1" fill-rule="nonzero"/><path fill="#8c52ff" d="M 187.308594 227.234375 L 187.296875 226.003906 C 186.429688 226 185.582031 225.804688 185.089844 225.539062 L 185.460938 224.011719 C 186.007812 224.285156 186.777344 224.527344 187.617188 224.492188 C 188.355469 224.460938 188.859375 224.15625 188.855469 223.636719 C 188.851562 223.148438 188.433594 222.855469 187.46875 222.570312 C 186.078125 222.164062 185.128906 221.558594 185.113281 220.304688 C 185.105469 219.167969 185.898438 218.242188 187.28125 217.910156 L 187.269531 216.683594 L 188.539062 216.632812 L 188.550781 217.769531 C 189.417969 217.769531 190.003906 217.929688 190.433594 218.117188 L 190.074219 219.59375 C 189.734375 219.464844 189.136719 219.191406 188.203125 219.230469 C 187.359375 219.265625 187.089844 219.640625 187.09375 220 C 187.097656 220.429688 187.554688 220.679688 188.660156 221.046875 C 190.207031 221.527344 190.835938 222.210938 190.847656 223.375 C 190.859375 224.523438 190.054688 225.539062 188.566406 225.859375 L 188.578125 227.179688 L 187.308594 227.234375 " fill-opacity="1" fill-rule="nonzero"/><path fill="#d2c7ff" d="M 208.457031 253.835938 L 182.753906 253.835938 C 181.210938 253.835938 180.058594 252.429688 180.367188 250.929688 L 184.269531 232.101562 C 184.59375 230.519531 186 229.382812 187.625 229.382812 L 209.671875 229.382812 L 208.457031 253.835938 " fill-opacity="1" fill-rule="nonzero"/><path fill="#000000" d="M 187.625 229.648438 C 186.132812 229.648438 184.828125 230.703125 184.527344 232.15625 L 180.628906 250.984375 C 180.496094 251.617188 180.65625 252.269531 181.066406 252.769531 C 181.480469 253.28125 182.09375 253.570312 182.753906 253.570312 L 208.203125 253.570312 L 209.390625 229.648438 Z M 208.457031 254.101562 L 182.753906 254.101562 C 181.933594 254.101562 181.167969 253.738281 180.65625 253.105469 C 180.144531 252.476562 179.945312 251.664062 180.109375 250.875 L 184.007812 232.046875 C 184.359375 230.351562 185.882812 229.117188 187.625 229.117188 L 209.671875 229.117188 C 209.742188 229.117188 209.8125 229.148438 209.863281 229.199219 C 209.914062 229.253906 209.941406 229.324219 209.9375 229.394531 L 208.71875 253.851562 C 208.714844 253.992188 208.597656 254.101562 208.457031 254.101562 " fill-opacity="1" fill-rule="nonzero"/><path fill="#8c52ff" d="M 211.746094 253.835938 L 206.757812 253.835938 C 205.214844 253.835938 204.0625 252.429688 204.371094 250.929688 L 208.667969 230.191406 C 208.765625 229.722656 209.183594 229.382812 209.667969 229.382812 L 210.949219 229.382812 C 211.480469 229.382812 211.925781 229.789062 211.96875 230.3125 L 213.722656 251.707031 C 213.816406 252.855469 212.90625 253.835938 211.746094 253.835938 " fill-opacity="1" fill-rule="nonzero"/><path fill="#000000" d="M 209.667969 229.648438 C 209.308594 229.648438 209 229.898438 208.925781 230.246094 L 204.632812 250.984375 C 204.5 251.617188 204.660156 252.269531 205.070312 252.769531 C 205.484375 253.28125 206.097656 253.570312 206.757812 253.570312 L 211.746094 253.570312 C 212.234375 253.570312 212.683594 253.375 213.015625 253.015625 C 213.339844 252.664062 213.5 252.203125 213.460938 251.726562 L 211.703125 230.335938 C 211.671875 229.949219 211.339844 229.648438 210.949219 229.648438 Z M 211.746094 254.101562 L 206.757812 254.101562 C 205.9375 254.101562 205.175781 253.738281 204.660156 253.105469 C 204.148438 252.476562 203.949219 251.664062 204.113281 250.875 L 208.40625 230.140625 C 208.53125 229.546875 209.058594 229.117188 209.667969 229.117188 L 210.949219 229.117188 C 211.613281 229.117188 212.175781 229.632812 212.230469 230.292969 L 213.988281 251.683594 C 214.039062 252.300781 213.828125 252.917969 213.40625 253.375 C 212.980469 253.835938 212.375 254.101562 211.746094 254.101562 " fill-opacity="1" fill-rule="nonzero"/><path fill="#000000" d="M 203.761719 239.53125 L 184.832031 239.53125 C 184.683594 239.53125 184.566406 239.414062 184.566406 239.265625 C 184.566406 239.117188 184.683594 239 184.832031 239 L 203.761719 239 C 204.234375 239 204.644531 238.679688 204.753906 238.21875 L 206.527344 230.78125 C 206.5625 230.640625 206.707031 230.550781 206.847656 230.585938 C 206.992188 230.621094 207.078125 230.761719 207.042969 230.90625 L 205.269531 238.34375 C 205.105469 239.042969 204.484375 239.53125 203.761719 239.53125 " fill-opacity="1" fill-rule="nonzero"/><path fill="#ffffff" d="M 197.226562 239.265625 L 196.816406 241.523438 C 196.726562 241.90625 196.382812 242.175781 195.988281 242.175781 L 192.003906 242.175781 C 191.570312 242.175781 191.253906 241.765625 191.371094 241.347656 L 191.800781 239.265625 L 197.226562 239.265625 " fill-opacity="1" fill-rule="nonzero"/><path fill="#000000" d="M 192.015625 239.53125 L 191.628906 241.402344 C 191.628906 241.410156 191.628906 241.414062 191.625 241.421875 C 191.59375 241.539062 191.617188 241.660156 191.691406 241.757812 C 191.765625 241.855469 191.878906 241.910156 192.003906 241.910156 L 195.988281 241.910156 C 196.261719 241.910156 196.496094 241.726562 196.558594 241.460938 L 196.910156 239.53125 Z M 195.988281 242.441406 L 192.003906 242.441406 C 191.710938 242.441406 191.441406 242.308594 191.265625 242.078125 C 191.09375 241.851562 191.039062 241.5625 191.113281 241.289062 L 191.542969 239.210938 C 191.566406 239.089844 191.675781 239 191.800781 239 L 197.226562 239 C 197.308594 239 197.382812 239.035156 197.433594 239.09375 C 197.480469 239.15625 197.503906 239.234375 197.488281 239.3125 L 197.078125 241.570312 C 196.957031 242.089844 196.507812 242.441406 195.988281 242.441406 " fill-opacity="1" fill-rule="nonzero"/><path fill="#000000" d="M 202.421875 252.210938 L 182.546875 252.210938 C 182.402344 252.210938 182.28125 252.09375 182.28125 251.945312 C 182.28125 251.800781 182.402344 251.679688 182.546875 251.679688 L 202.421875 251.679688 C 202.566406 251.679688 202.6875 251.800781 202.6875 251.945312 C 202.6875 252.09375 202.566406 252.210938 202.421875 252.210938 " fill-opacity="1" fill-rule="nonzero"/><path fill="#8c52ff" d="M 192.875 228.164062 L 190.875 228.164062 C 190.179688 228.164062 190.058594 228.890625 190.058594 229.339844 L 193.691406 229.339844 C 193.691406 228.890625 193.570312 228.164062 192.875 228.164062 " fill-opacity="1" fill-rule="nonzero"/><path fill="#000000" d="M 190.339844 229.074219 L 193.410156 229.074219 C 193.371094 228.738281 193.234375 228.425781 192.875 228.425781 L 190.875 228.425781 C 190.515625 228.425781 190.382812 228.738281 190.339844 229.074219 Z M 193.691406 229.605469 L 190.058594 229.605469 C 189.914062 229.605469 189.796875 229.484375 189.796875 229.339844 C 189.796875 228.4375 190.199219 227.898438 190.875 227.898438 L 192.875 227.898438 C 193.550781 227.898438 193.957031 228.4375 193.957031 229.339844 C 193.957031 229.484375 193.835938 229.605469 193.691406 229.605469 " fill-opacity="1" fill-rule="nonzero"/><path fill="#8c52ff" d="M 206.078125 228.164062 L 204.085938 228.164062 C 203.304688 228.164062 203.269531 228.890625 203.269531 229.339844 L 206.894531 229.339844 C 206.894531 228.890625 206.808594 228.164062 206.078125 228.164062 " fill-opacity="1" fill-rule="nonzero"/><path fill="#000000" d="M 203.542969 229.074219 L 206.617188 229.074219 C 206.546875 228.425781 206.226562 228.425781 206.078125 228.425781 L 204.085938 228.425781 C 203.738281 228.425781 203.582031 228.601562 203.542969 229.074219 Z M 206.894531 229.605469 L 203.269531 229.605469 C 203.125 229.605469 203.003906 229.484375 203.003906 229.339844 C 203.003906 228.984375 203.003906 227.898438 204.085938 227.898438 L 206.078125 227.898438 C 206.480469 227.898438 207.160156 228.085938 207.160156 229.339844 C 207.160156 229.484375 207.039062 229.605469 206.894531 229.605469 " fill-opacity="1" fill-rule="nonzero"/><path fill="#ffffff" d="M 205.765625 228.121094 L 206.035156 226.53125 C 206.226562 225.40625 205.460938 224.375 204.328125 224.375 L 193.804688 224.375 C 192.671875 224.375 191.597656 225.40625 191.40625 226.53125 L 191.136719 228.121094 L 192.675781 228.121094 L 192.886719 226.882812 C 193.035156 226.007812 193.871094 225.421875 194.75 225.421875 L 203.238281 225.421875 C 204.238281 225.421875 204.714844 226.007812 204.566406 226.882812 L 204.355469 228.121094 L 205.765625 228.121094 " fill-opacity="1" fill-rule="nonzero"/><path fill="#000000" d="M 204.671875 227.855469 L 205.539062 227.855469 L 205.773438 226.488281 C 205.855469 225.992188 205.730469 225.503906 205.425781 225.144531 C 205.152344 224.816406 204.761719 224.636719 204.328125 224.636719 L 193.804688 224.636719 C 192.839844 224.636719 191.84375 225.542969 191.667969 226.578125 L 191.453125 227.855469 L 192.453125 227.855469 L 192.625 226.839844 C 192.789062 225.878906 193.699219 225.15625 194.75 225.15625 L 203.238281 225.15625 C 203.8125 225.15625 204.265625 225.332031 204.546875 225.667969 C 204.816406 225.984375 204.914062 226.421875 204.828125 226.929688 Z M 205.765625 228.382812 L 204.355469 228.382812 C 204.277344 228.382812 204.203125 228.351562 204.152344 228.289062 C 204.101562 228.230469 204.082031 228.152344 204.09375 228.074219 L 204.304688 226.839844 C 204.34375 226.597656 204.351562 226.253906 204.140625 226.007812 C 203.964844 225.796875 203.652344 225.6875 203.238281 225.6875 L 194.75 225.6875 C 193.957031 225.6875 193.265625 226.21875 193.148438 226.929688 L 192.9375 228.164062 C 192.917969 228.289062 192.804688 228.382812 192.675781 228.382812 L 191.136719 228.382812 C 191.058594 228.382812 190.984375 228.351562 190.9375 228.289062 C 190.886719 228.230469 190.863281 228.152344 190.875 228.074219 L 191.144531 226.488281 C 191.363281 225.199219 192.582031 224.109375 193.804688 224.109375 L 204.328125 224.109375 C 204.921875 224.109375 205.453125 224.355469 205.832031 224.800781 C 206.238281 225.277344 206.40625 225.925781 206.296875 226.578125 L 206.027344 228.164062 C 206.003906 228.289062 205.894531 228.382812 205.765625 228.382812 " fill-opacity="1" fill-rule="nonzero"/><path fill="#d2c7ff" d="M 203.707031 223.839844 L 194.917969 223.839844 C 194.566406 223.839844 194.230469 224.125 194.167969 224.476562 L 194.039062 225.238281 C 193.980469 225.589844 194.21875 225.875 194.574219 225.875 L 203.363281 225.875 C 203.71875 225.875 204.054688 225.589844 204.113281 225.238281 L 204.242188 224.476562 C 204.300781 224.125 204.0625 223.839844 203.707031 223.839844 " fill-opacity="1" fill-rule="nonzero"/><path fill="#000000" d="M 194.917969 224.105469 C 194.691406 224.105469 194.46875 224.292969 194.429688 224.519531 L 194.300781 225.28125 C 194.285156 225.375 194.304688 225.457031 194.355469 225.519531 C 194.40625 225.578125 194.484375 225.609375 194.574219 225.609375 L 203.363281 225.609375 C 203.589844 225.609375 203.8125 225.417969 203.851562 225.191406 L 203.980469 224.429688 C 203.996094 224.339844 203.976562 224.253906 203.925781 224.195312 C 203.875 224.136719 203.800781 224.105469 203.707031 224.105469 Z M 203.363281 226.140625 L 194.574219 226.140625 C 194.324219 226.140625 194.101562 226.039062 193.949219 225.859375 C 193.800781 225.683594 193.738281 225.4375 193.777344 225.191406 L 193.90625 224.429688 C 193.988281 223.949219 194.433594 223.574219 194.917969 223.574219 L 203.707031 223.574219 C 203.957031 223.574219 204.179688 223.671875 204.332031 223.851562 C 204.480469 224.03125 204.546875 224.273438 204.503906 224.519531 L 204.375 225.28125 C 204.292969 225.761719 203.847656 226.140625 203.363281 226.140625 " fill-opacity="1" fill-rule="nonzero"/><path fill="#d2c7ff" d="M 206.710938 252.210938 C 206.617188 252.210938 206.53125 252.164062 206.480469 252.074219 C 206.410156 251.949219 206.453125 251.785156 206.582031 251.714844 L 209.890625 249.839844 L 209.890625 230.84375 C 209.890625 230.699219 210.011719 230.578125 210.15625 230.578125 C 210.304688 230.578125 210.421875 230.699219 210.421875 230.84375 L 210.421875 249.996094 C 210.421875 250.089844 210.371094 250.179688 210.289062 250.226562 L 206.84375 252.175781 C 206.800781 252.199219 206.757812 252.210938 206.710938 252.210938 " fill-opacity="1" fill-rule="nonzero"/><path fill="#ffffff" d="M 321.226562 258.683594 L 293.707031 258.683594 C 293.367188 258.683594 293.089844 258.40625 293.089844 258.0625 L 293.089844 239.738281 C 293.089844 239.394531 293.367188 239.117188 293.707031 239.117188 L 321.226562 239.117188 C 321.566406 239.117188 321.847656 239.394531 321.847656 239.738281 L 321.847656 258.0625 C 321.847656 258.40625 321.566406 258.683594 321.226562 258.683594 " fill-opacity="1" fill-rule="nonzero"/><path fill="#000000" d="M 320.566406 258.921875 L 316.957031 258.921875 C 316.8125 258.921875 316.691406 258.804688 316.691406 258.65625 C 316.691406 258.511719 316.8125 258.390625 316.957031 258.390625 L 320.566406 258.390625 C 321.175781 258.390625 321.671875 257.898438 321.671875 257.296875 L 321.671875 240.433594 C 321.671875 239.828125 321.175781 239.335938 320.566406 239.335938 L 295.601562 239.335938 C 295.453125 239.335938 295.335938 239.21875 295.335938 239.070312 C 295.335938 238.925781 295.453125 238.804688 295.601562 238.804688 L 320.566406 238.804688 C 321.46875 238.804688 322.203125 239.535156 322.203125 240.433594 L 322.203125 257.296875 C 322.203125 258.191406 321.46875 258.921875 320.566406 258.921875 " fill-opacity="1" fill-rule="nonzero"/><path fill="#000000" d="M 303.617188 258.921875 L 294.554688 258.921875 C 293.652344 258.921875 292.917969 258.191406 292.917969 257.292969 L 292.917969 249.789062 C 292.917969 249.640625 293.035156 249.523438 293.183594 249.523438 C 293.328125 249.523438 293.449219 249.640625 293.449219 249.789062 L 293.449219 257.292969 C 293.449219 257.898438 293.941406 258.390625 294.554688 258.390625 L 303.617188 258.390625 C 303.765625 258.390625 303.882812 258.511719 303.882812 258.65625 C 303.882812 258.804688 303.765625 258.921875 303.617188 258.921875 " fill-opacity="1" fill-rule="nonzero"/><path fill="#000000" d="M 307.5625 256.394531 C 307.414062 256.394531 307.296875 256.273438 307.296875 256.128906 L 307.296875 241.863281 C 307.296875 241.71875 307.414062 241.597656 307.5625 241.597656 C 307.707031 241.597656 307.828125 241.71875 307.828125 241.863281 L 307.828125 256.128906 C 307.828125 256.273438 307.707031 256.394531 307.5625 256.394531 " fill-opacity="1" fill-rule="nonzero"/><path fill="#000000" d="M 306.660156 242.921875 L 307.558594 242.019531 L 308.460938 242.921875 L 308.460938 242.15625 L 307.558594 241.257812 L 306.660156 242.15625 L 306.660156 242.921875 " fill-opacity="1" fill-rule="nonzero"/><path fill="#000000" d="M 318.347656 250.640625 L 296.167969 250.640625 C 296.019531 250.640625 295.902344 250.523438 295.902344 250.375 C 295.902344 250.230469 296.019531 250.109375 296.167969 250.109375 L 318.347656 250.109375 C 318.492188 250.109375 318.613281 250.230469 318.613281 250.375 C 318.613281 250.523438 318.492188 250.640625 318.347656 250.640625 " fill-opacity="1" fill-rule="nonzero"/><path fill="#000000" d="M 317.289062 251.277344 L 318.191406 250.375 L 317.289062 249.476562 L 318.054688 249.476562 L 318.953125 250.375 L 318.054688 251.277344 L 317.289062 251.277344 " fill-opacity="1" fill-rule="nonzero"/><path fill="#8c52ff" d="M 307.609375 255.410156 C 304.949219 255.410156 302.78125 253.253906 302.78125 250.605469 L 302.78125 247.917969 C 302.78125 245.5625 300.851562 243.648438 298.480469 243.648438 L 296.167969 243.648438 C 296.019531 243.648438 295.902344 243.527344 295.902344 243.382812 C 295.902344 243.234375 296.019531 243.117188 296.167969 243.117188 L 298.480469 243.117188 C 301.140625 243.117188 303.308594 245.269531 303.308594 247.917969 L 303.308594 250.605469 C 303.308594 252.960938 305.238281 254.878906 307.609375 254.878906 C 309.984375 254.878906 311.914062 252.960938 311.914062 250.605469 L 311.914062 247.917969 C 311.914062 245.269531 314.078125 243.117188 316.742188 243.117188 L 318.097656 243.117188 C 318.246094 243.117188 318.363281 243.234375 318.363281 243.382812 C 318.363281 243.527344 318.246094 243.648438 318.097656 243.648438 L 316.742188 243.648438 C 314.371094 243.648438 312.445312 245.5625 312.445312 247.917969 L 312.445312 250.605469 C 312.445312 253.253906 310.273438 255.410156 307.609375 255.410156 " fill-opacity="1" fill-rule="nonzero"/><path fill="#8c52ff" d="M 285.390625 247.148438 L 297.34375 247.148438 L 285.390625 234.902344 Z M 297.972656 247.679688 L 285.125 247.679688 C 284.980469 247.679688 284.863281 247.558594 284.863281 247.414062 L 284.863281 234.25 C 284.863281 234.140625 284.925781 234.042969 285.027344 234.003906 C 285.125 233.960938 285.242188 233.988281 285.316406 234.0625 L 298.164062 247.226562 C 298.238281 247.304688 298.257812 247.417969 298.21875 247.515625 C 298.175781 247.613281 298.082031 247.679688 297.972656 247.679688 " fill-opacity="1" fill-rule="nonzero"/><path fill="#8c52ff" d="M 286.339844 247.414062 C 286.339844 248.078125 285.796875 248.617188 285.125 248.617188 C 284.457031 248.617188 283.914062 248.078125 283.914062 247.414062 C 283.914062 246.75 284.457031 246.210938 285.125 246.210938 C 285.796875 246.210938 286.339844 246.75 286.339844 247.414062 " fill-opacity="1" fill-rule="nonzero"/><path fill="#000000" d="M 285.125 246.472656 C 284.605469 246.472656 284.179688 246.894531 284.179688 247.414062 C 284.179688 247.929688 284.605469 248.351562 285.125 248.351562 C 285.648438 248.351562 286.074219 247.929688 286.074219 247.414062 C 286.074219 246.894531 285.648438 246.472656 285.125 246.472656 Z M 285.125 248.882812 C 284.3125 248.882812 283.648438 248.222656 283.648438 247.414062 C 283.648438 246.601562 284.3125 245.941406 285.125 245.941406 C 285.941406 245.941406 286.605469 246.601562 286.605469 247.414062 C 286.605469 248.222656 285.941406 248.882812 285.125 248.882812 " fill-opacity="1" fill-rule="nonzero"/><path fill="#8c52ff" d="M 299.1875 247.414062 C 299.1875 248.078125 298.644531 248.617188 297.972656 248.617188 C 297.304688 248.617188 296.761719 248.078125 296.761719 247.414062 C 296.761719 246.75 297.304688 246.210938 297.972656 246.210938 C 298.644531 246.210938 299.1875 246.75 299.1875 247.414062 " fill-opacity="1" fill-rule="nonzero"/><path fill="#000000" d="M 297.972656 246.472656 C 297.453125 246.472656 297.027344 246.894531 297.027344 247.414062 C 297.027344 247.929688 297.453125 248.351562 297.972656 248.351562 C 298.496094 248.351562 298.921875 247.929688 298.921875 247.414062 C 298.921875 246.894531 298.496094 246.472656 297.972656 246.472656 Z M 297.972656 248.882812 C 297.160156 248.882812 296.496094 248.222656 296.496094 247.414062 C 296.496094 246.601562 297.160156 245.945312 297.972656 245.945312 C 298.789062 245.945312 299.453125 246.601562 299.453125 247.414062 C 299.453125 248.222656 298.789062 248.882812 297.972656 248.882812 " fill-opacity="1" fill-rule="nonzero"/><path fill="#8c52ff" d="M 286.339844 234.25 C 286.339844 234.914062 285.796875 235.453125 285.125 235.453125 C 284.457031 235.453125 283.914062 234.914062 283.914062 234.25 C 283.914062 233.585938 284.457031 233.046875 285.125 233.046875 C 285.796875 233.046875 286.339844 233.585938 286.339844 234.25 " fill-opacity="1" fill-rule="nonzero"/><path fill="#000000" d="M 285.125 233.308594 C 284.605469 233.308594 284.179688 233.730469 284.179688 234.25 C 284.179688 234.765625 284.605469 235.1875 285.125 235.1875 C 285.648438 235.1875 286.074219 234.765625 286.074219 234.25 C 286.074219 233.730469 285.648438 233.308594 285.125 233.308594 Z M 285.125 235.71875 C 284.3125 235.71875 283.648438 235.058594 283.648438 234.25 C 283.648438 233.4375 284.3125 232.777344 285.125 232.777344 C 285.941406 232.777344 286.605469 233.4375 286.605469 234.25 C 286.605469 235.058594 285.941406 235.71875 285.125 235.71875 " fill-opacity="1" fill-rule="nonzero"/><path fill="#ffffff" d="M 307.308594 215.136719 L 285.28125 215.136719 C 284.855469 215.136719 284.503906 214.789062 284.503906 214.359375 L 284.503906 192.25 C 284.503906 191.820312 284.855469 191.46875 285.28125 191.46875 L 307.308594 191.46875 C 307.742188 191.46875 308.089844 191.820312 308.089844 192.25 L 308.089844 214.359375 C 308.089844 214.789062 307.742188 215.136719 307.308594 215.136719 " fill-opacity="1" fill-rule="nonzero"/><path fill="#000000" d="M 286.222656 191.734375 C 285.421875 191.734375 284.769531 192.386719 284.769531 193.1875 L 284.769531 213.417969 C 284.769531 214.21875 285.421875 214.871094 286.222656 214.871094 L 306.371094 214.871094 C 307.171875 214.871094 307.824219 214.21875 307.824219 213.417969 L 307.824219 193.1875 C 307.824219 192.386719 307.171875 191.734375 306.371094 191.734375 Z M 306.371094 215.402344 L 286.222656 215.402344 C 285.128906 215.402344 284.238281 214.511719 284.238281 213.417969 L 284.238281 193.1875 C 284.238281 192.09375 285.128906 191.207031 286.222656 191.207031 L 306.371094 191.207031 C 307.464844 191.207031 308.355469 192.09375 308.355469 193.1875 L 308.355469 213.417969 C 308.355469 214.511719 307.464844 215.402344 306.371094 215.402344 " fill-opacity="1" fill-rule="nonzero"/><path fill="#d2c7ff" d="M 287.589844 207.140625 C 287.488281 207.140625 287.394531 207.082031 287.347656 206.984375 C 287.289062 206.851562 287.347656 206.695312 287.484375 206.636719 C 295.59375 203.007812 301.8125 197.890625 304.929688 194.308594 C 305.027344 194.199219 305.195312 194.1875 305.304688 194.285156 C 305.414062 194.378906 305.425781 194.546875 305.328125 194.660156 C 302.175781 198.28125 295.886719 203.457031 287.699219 207.117188 C 287.664062 207.132812 287.625 207.140625 287.589844 207.140625 " fill-opacity="1" fill-rule="nonzero"/><path fill="#d2c7ff" d="M 305.292969 196.171875 C 305.144531 196.171875 305.027344 196.050781 305.027344 195.902344 L 305.046875 194.4375 L 303.492188 194.390625 C 303.347656 194.386719 303.230469 194.265625 303.234375 194.117188 C 303.242188 193.96875 303.363281 193.847656 303.511719 193.859375 L 305.320312 193.914062 C 305.464844 193.921875 305.582031 194.039062 305.578125 194.183594 L 305.558594 195.910156 C 305.558594 196.054688 305.4375 196.171875 305.292969 196.171875 " fill-opacity="1" fill-rule="nonzero"/><path fill="#f1eaff" d="M 289.4375 212.652344 L 287.855469 212.652344 C 287.609375 212.652344 287.40625 212.453125 287.40625 212.203125 L 287.40625 209.953125 C 287.40625 209.707031 287.609375 209.507812 287.855469 209.507812 L 289.4375 209.507812 C 289.6875 209.507812 289.886719 209.707031 289.886719 209.953125 L 289.886719 212.203125 C 289.886719 212.453125 289.6875 212.652344 289.4375 212.652344 " fill-opacity="1" fill-rule="nonzero"/><path fill="#f1eaff" d="M 294.601562 212.652344 L 293.019531 212.652344 C 292.773438 212.652344 292.570312 212.453125 292.570312 212.207031 L 292.570312 207.167969 C 292.570312 206.921875 292.773438 206.71875 293.019531 206.71875 L 294.601562 206.71875 C 294.847656 206.71875 295.050781 206.921875 295.050781 207.167969 L 295.050781 212.207031 C 295.050781 212.453125 294.847656 212.652344 294.601562 212.652344 " fill-opacity="1" fill-rule="nonzero"/><path fill="#f1eaff" d="M 299.765625 212.652344 L 298.183594 212.652344 C 297.933594 212.652344 297.734375 212.453125 297.734375 212.203125 L 297.734375 204.179688 C 297.734375 203.933594 297.933594 203.734375 298.183594 203.734375 L 299.765625 203.734375 C 300.015625 203.734375 300.214844 203.933594 300.214844 204.179688 L 300.214844 212.203125 C 300.214844 212.453125 300.015625 212.652344 299.765625 212.652344 " fill-opacity="1" fill-rule="nonzero"/><path fill="#d2c7ff" d="M 304.929688 212.652344 L 303.347656 212.652344 C 303.101562 212.652344 302.898438 212.453125 302.898438 212.203125 L 302.898438 200.324219 C 302.898438 200.078125 303.101562 199.878906 303.347656 199.878906 L 304.929688 199.878906 C 305.175781 199.878906 305.378906 200.078125 305.378906 200.324219 L 305.378906 212.203125 C 305.378906 212.453125 305.175781 212.652344 304.929688 212.652344 " fill-opacity="1" fill-rule="nonzero"/><path fill="#ffffff" d="M 284.742188 197.304688 C 281.828125 197.304688 279.46875 194.960938 279.46875 192.070312 C 279.46875 189.175781 281.828125 186.832031 284.742188 186.832031 C 287.652344 186.832031 290.011719 189.175781 290.011719 192.070312 C 290.011719 194.960938 287.652344 197.304688 284.742188 197.304688 Z M 294.878906 189.851562 C 294.863281 189.730469 294.761719 189.636719 294.636719 189.625 L 292.84375 189.480469 C 292.738281 189.472656 292.648438 189.402344 292.617188 189.304688 C 292.5 188.972656 292.359375 188.652344 292.207031 188.34375 C 292.160156 188.25 292.167969 188.136719 292.238281 188.058594 L 293.375 186.671875 C 293.453125 186.578125 293.453125 186.441406 293.378906 186.34375 L 292.40625 185.109375 C 292.328125 185.011719 292.195312 184.980469 292.082031 185.035156 L 290.453125 185.800781 C 290.359375 185.84375 290.25 185.828125 290.167969 185.761719 C 289.902344 185.535156 289.625 185.324219 289.332031 185.136719 C 289.242188 185.078125 289.199219 184.976562 289.214844 184.871094 L 289.503906 183.105469 C 289.523438 182.984375 289.457031 182.863281 289.339844 182.816406 L 287.878906 182.234375 C 287.761719 182.1875 287.628906 182.226562 287.558594 182.328125 L 286.539062 183.796875 C 286.476562 183.882812 286.375 183.925781 286.273438 183.90625 C 285.929688 183.84375 285.582031 183.800781 285.230469 183.78125 C 285.125 183.777344 285.03125 183.710938 284.996094 183.613281 L 284.355469 181.941406 C 284.3125 181.824219 284.195312 181.753906 284.070312 181.773438 L 282.511719 181.992188 C 282.386719 182.007812 282.292969 182.109375 282.285156 182.230469 L 282.136719 184.015625 C 282.128906 184.121094 282.058594 184.207031 281.957031 184.242188 C 281.625 184.359375 281.300781 184.492188 280.992188 184.648438 C 280.898438 184.695312 280.785156 184.683594 280.707031 184.617188 L 279.3125 183.488281 C 279.214844 183.410156 279.078125 183.410156 278.980469 183.484375 L 277.738281 184.449219 C 277.640625 184.527344 277.609375 184.660156 277.664062 184.773438 L 278.433594 186.390625 C 278.476562 186.484375 278.460938 186.59375 278.394531 186.671875 C 278.167969 186.9375 277.957031 187.214844 277.765625 187.507812 C 277.707031 187.59375 277.605469 187.640625 277.5 187.625 L 275.722656 187.335938 C 275.601562 187.316406 275.480469 187.382812 275.433594 187.496094 L 274.84375 188.949219 C 274.796875 189.066406 274.839844 189.195312 274.941406 189.265625 L 276.417969 190.28125 C 276.503906 190.34375 276.546875 190.445312 276.527344 190.546875 C 276.464844 190.886719 276.421875 191.234375 276.402344 191.585938 C 276.398438 191.6875 276.332031 191.78125 276.234375 191.816406 L 274.550781 192.449219 C 274.433594 192.496094 274.363281 192.613281 274.378906 192.734375 L 274.601562 194.285156 C 274.617188 194.410156 274.71875 194.503906 274.84375 194.511719 L 276.636719 194.65625 C 276.742188 194.667969 276.828125 194.734375 276.867188 194.835938 C 276.980469 195.164062 277.117188 195.488281 277.273438 195.796875 C 277.320312 195.890625 277.308594 196 277.242188 196.082031 L 276.105469 197.464844 C 276.027344 197.558594 276.027344 197.695312 276.101562 197.792969 L 277.074219 199.027344 C 277.152344 199.125 277.285156 199.15625 277.398438 199.105469 L 279.023438 198.335938 C 279.121094 198.292969 279.230469 198.308594 279.308594 198.378906 C 279.578125 198.601562 279.855469 198.8125 280.148438 199.003906 C 280.234375 199.058594 280.28125 199.164062 280.265625 199.265625 L 279.976562 201.03125 C 279.957031 201.152344 280.023438 201.273438 280.140625 201.320312 L 281.601562 201.90625 C 281.714844 201.949219 281.847656 201.910156 281.917969 201.808594 L 282.941406 200.339844 C 283 200.253906 283.105469 200.214844 283.207031 200.230469 C 283.550781 200.296875 283.898438 200.335938 284.25 200.355469 C 284.355469 200.363281 284.449219 200.425781 284.484375 200.523438 L 285.121094 202.199219 C 285.167969 202.3125 285.285156 202.382812 285.410156 202.367188 L 286.96875 202.148438 C 287.089844 202.128906 287.1875 202.027344 287.195312 201.90625 L 287.34375 200.121094 C 287.351562 200.019531 287.421875 199.929688 287.519531 199.898438 C 287.855469 199.78125 288.175781 199.644531 288.488281 199.488281 C 288.582031 199.441406 288.695312 199.453125 288.773438 199.519531 L 290.167969 200.648438 C 290.261719 200.726562 290.402344 200.730469 290.5 200.652344 L 291.738281 199.6875 C 291.835938 199.609375 291.867188 199.476562 291.816406 199.367188 L 291.046875 197.75 C 291 197.65625 291.015625 197.542969 291.085938 197.464844 C 291.3125 197.199219 291.523438 196.921875 291.714844 196.632812 C 291.773438 196.546875 291.875 196.5 291.980469 196.515625 L 293.757812 196.800781 C 293.878906 196.820312 294 196.753906 294.046875 196.640625 L 294.636719 195.1875 C 294.679688 195.074219 294.640625 194.941406 294.539062 194.871094 L 293.058594 193.855469 C 292.976562 193.796875 292.933594 193.691406 292.953125 193.589844 C 293.015625 193.25 293.058594 192.902344 293.078125 192.554688 C 293.082031 192.449219 293.148438 192.359375 293.246094 192.320312 L 294.929688 191.6875 C 295.046875 191.644531 295.117188 191.523438 295.101562 191.402344 L 294.878906 189.851562 " fill-opacity="1" fill-rule="nonzero"/><path fill="#000000" d="M 284.742188 187.097656 C 281.980469 187.097656 279.734375 189.328125 279.734375 192.070312 C 279.734375 194.808594 281.980469 197.039062 284.742188 197.039062 C 287.5 197.039062 289.746094 194.808594 289.746094 192.070312 C 289.746094 189.328125 287.5 187.097656 284.742188 187.097656 Z M 284.742188 197.570312 C 281.6875 197.570312 279.203125 195.101562 279.203125 192.070312 C 279.203125 189.035156 281.6875 186.566406 284.742188 186.566406 C 287.792969 186.566406 290.273438 189.035156 290.273438 192.070312 C 290.273438 195.101562 287.792969 197.570312 284.742188 197.570312 Z M 294.613281 189.890625 Z M 283.160156 199.960938 C 283.191406 199.960938 283.222656 199.964844 283.257812 199.972656 C 283.585938 200.03125 283.925781 200.074219 284.265625 200.089844 C 284.472656 200.101562 284.65625 200.234375 284.730469 200.429688 L 285.371094 202.105469 L 286.929688 201.882812 L 287.078125 200.101562 C 287.09375 199.894531 287.234375 199.714844 287.433594 199.644531 C 287.753906 199.535156 288.070312 199.402344 288.371094 199.253906 C 288.554688 199.160156 288.78125 199.183594 288.941406 199.3125 L 290.332031 200.445312 L 291.578125 199.480469 L 290.804688 197.863281 C 290.714844 197.675781 290.746094 197.449219 290.882812 197.292969 C 291.101562 197.035156 291.308594 196.765625 291.496094 196.484375 C 291.609375 196.3125 291.816406 196.222656 292.019531 196.253906 L 293.800781 196.539062 L 294.386719 195.089844 L 292.910156 194.074219 C 292.738281 193.957031 292.652344 193.746094 292.691406 193.542969 C 292.753906 193.214844 292.792969 192.878906 292.8125 192.539062 C 292.824219 192.328125 292.957031 192.144531 293.152344 192.074219 L 294.835938 191.4375 L 294.617188 189.890625 L 292.820312 189.746094 C 292.613281 189.726562 292.433594 189.589844 292.363281 189.394531 C 292.25 189.070312 292.117188 188.761719 291.96875 188.460938 C 291.875 188.273438 291.898438 188.050781 292.03125 187.890625 L 293.167969 186.503906 L 292.199219 185.273438 L 290.566406 186.039062 C 290.378906 186.128906 290.15625 186.097656 289.996094 185.960938 C 289.742188 185.746094 289.46875 185.539062 289.1875 185.355469 C 289.011719 185.242188 288.917969 185.035156 288.953125 184.832031 L 289.242188 183.0625 L 287.78125 182.480469 L 286.753906 183.949219 C 286.636719 184.121094 286.429688 184.203125 286.222656 184.167969 C 285.894531 184.105469 285.554688 184.066406 285.214844 184.046875 C 285.003906 184.035156 284.820312 183.902344 284.746094 183.707031 L 284.109375 182.035156 L 282.546875 182.253906 L 282.402344 184.035156 C 282.382812 184.246094 282.246094 184.421875 282.046875 184.492188 C 281.722656 184.605469 281.410156 184.738281 281.109375 184.886719 C 280.921875 184.980469 280.699219 184.953125 280.539062 184.824219 L 279.144531 183.695312 L 277.902344 184.660156 L 278.675781 186.277344 C 278.761719 186.464844 278.730469 186.6875 278.59375 186.847656 C 278.375 187.101562 278.171875 187.375 277.984375 187.652344 C 277.867188 187.828125 277.664062 187.917969 277.457031 187.882812 L 275.679688 187.597656 L 275.089844 189.050781 L 276.570312 190.066406 C 276.742188 190.183594 276.824219 190.390625 276.789062 190.597656 C 276.726562 190.921875 276.6875 191.261719 276.667969 191.601562 C 276.65625 191.808594 276.519531 191.992188 276.324219 192.066406 L 274.644531 192.699219 L 274.863281 194.25 L 276.65625 194.394531 C 276.867188 194.410156 277.042969 194.550781 277.113281 194.746094 C 277.226562 195.066406 277.359375 195.378906 277.511719 195.675781 C 277.605469 195.863281 277.582031 196.089844 277.449219 196.25 L 276.3125 197.632812 L 277.28125 198.863281 L 278.914062 198.097656 C 279.097656 198.007812 279.324219 198.039062 279.480469 198.175781 C 279.738281 198.394531 280.011719 198.597656 280.292969 198.78125 C 280.46875 198.898438 280.5625 199.101562 280.527344 199.308594 L 280.238281 201.074219 L 281.699219 201.660156 L 282.722656 200.1875 C 282.824219 200.046875 282.988281 199.960938 283.160156 199.960938 Z M 285.371094 202.632812 C 285.152344 202.632812 284.953125 202.5 284.875 202.292969 L 284.234375 200.617188 C 283.871094 200.601562 283.511719 200.558594 283.160156 200.492188 L 282.136719 201.960938 C 281.996094 202.167969 281.734375 202.242188 281.5 202.152344 L 280.039062 201.566406 C 279.808594 201.472656 279.675781 201.234375 279.714844 200.988281 L 280.003906 199.222656 C 279.703125 199.03125 279.410156 198.8125 279.140625 198.578125 L 277.511719 199.34375 C 277.285156 199.449219 277.019531 199.386719 276.867188 199.191406 L 275.894531 197.957031 C 275.738281 197.761719 275.742188 197.488281 275.902344 197.296875 L 277.039062 195.910156 C 276.875 195.597656 276.734375 195.265625 276.613281 194.921875 L 274.820312 194.777344 C 274.570312 194.757812 274.375 194.570312 274.339844 194.324219 L 274.117188 192.773438 C 274.082031 192.523438 274.222656 192.292969 274.457031 192.203125 L 276.140625 191.570312 C 276.160156 191.207031 276.203125 190.847656 276.265625 190.5 L 274.789062 189.484375 C 274.582031 189.34375 274.503906 189.082031 274.597656 188.851562 L 275.1875 187.398438 C 275.28125 187.167969 275.519531 187.035156 275.765625 187.074219 L 277.542969 187.359375 C 277.742188 187.0625 277.960938 186.773438 278.195312 186.5 L 277.425781 184.886719 C 277.316406 184.660156 277.378906 184.394531 277.578125 184.242188 L 278.816406 183.277344 C 279.015625 183.121094 279.285156 183.125 279.480469 183.28125 L 280.871094 184.414062 C 281.191406 184.253906 281.527344 184.113281 281.871094 183.992188 L 282.019531 182.210938 C 282.039062 181.960938 282.226562 181.765625 282.472656 181.730469 L 284.035156 181.511719 C 284.28125 181.476562 284.515625 181.613281 284.605469 181.847656 L 285.242188 183.519531 C 285.605469 183.539062 285.96875 183.582031 286.320312 183.644531 L 287.34375 182.175781 C 287.484375 181.972656 287.746094 181.894531 287.976562 181.988281 L 289.4375 182.570312 C 289.671875 182.667969 289.804688 182.902344 289.765625 183.148438 L 289.476562 184.917969 C 289.777344 185.109375 290.066406 185.328125 290.339844 185.558594 L 291.96875 184.792969 C 292.195312 184.6875 292.460938 184.75 292.613281 184.945312 L 293.585938 186.179688 C 293.738281 186.375 293.738281 186.648438 293.578125 186.839844 L 292.441406 188.226562 C 292.601562 188.542969 292.746094 188.875 292.867188 189.214844 L 294.660156 189.359375 C 294.90625 189.382812 295.105469 189.566406 295.140625 189.816406 L 295.359375 191.363281 C 295.398438 191.613281 295.257812 191.847656 295.023438 191.933594 L 293.339844 192.570312 C 293.320312 192.929688 293.277344 193.289062 293.210938 193.640625 L 294.6875 194.652344 C 294.894531 194.792969 294.972656 195.054688 294.878906 195.289062 L 294.292969 196.738281 C 294.199219 196.96875 293.960938 197.105469 293.714844 197.066406 L 291.9375 196.777344 C 291.738281 197.078125 291.519531 197.363281 291.285156 197.636719 L 292.054688 199.253906 C 292.164062 199.480469 292.101562 199.742188 291.902344 199.898438 L 290.660156 200.863281 C 290.464844 201.015625 290.191406 201.011719 290 200.855469 L 288.605469 199.726562 C 288.289062 199.886719 287.953125 200.027344 287.609375 200.148438 L 287.460938 201.929688 C 287.441406 202.175781 287.253906 202.375 287.003906 202.410156 L 285.445312 202.628906 C 285.417969 202.632812 285.394531 202.632812 285.371094 202.632812 " fill-opacity="1" fill-rule="nonzero"/><path fill="#ffffff" d="M 233.910156 181.382812 C 238.769531 184.730469 239.324219 192.488281 235.449219 199.355469 C 235.445312 199.359375 235.445312 199.363281 235.441406 199.367188 C 235.15625 199.984375 238.214844 204.058594 238.214844 204.058594 C 238.214844 204.058594 233.414062 202.382812 232.898438 202.976562 C 227.835938 208.808594 220.523438 210.917969 215.738281 207.625 C 210.46875 203.992188 210.265625 195.175781 215.28125 187.929688 C 220.300781 180.683594 228.640625 177.753906 233.910156 181.382812 " fill-opacity="1" fill-rule="nonzero"/><path fill="#000000" d="M 219.019531 210.027344 C 217.019531 210.027344 215.171875 209.488281 213.628906 208.425781 C 209.867188 205.832031 208.492188 200.648438 210.039062 194.894531 C 210.074219 194.753906 210.21875 194.667969 210.363281 194.707031 C 210.503906 194.746094 210.585938 194.890625 210.550781 195.03125 C 209.0625 200.5625 210.359375 205.527344 213.933594 207.988281 C 216.164062 209.527344 219.097656 209.902344 222.183594 209.050781 C 225.269531 208.199219 228.308594 206.1875 230.738281 203.382812 C 231.214844 202.832031 233.6875 203.507812 235.542969 204.121094 C 235.261719 203.726562 234.894531 203.207031 234.539062 202.675781 C 233 200.359375 233.160156 200.019531 233.242188 199.835938 L 233.257812 199.808594 C 237.105469 192.984375 236.480469 185.410156 231.800781 182.183594 C 229.457031 180.570312 226.382812 180.238281 223.136719 181.242188 C 219.882812 182.25 216.753906 184.507812 214.324219 187.597656 C 214.234375 187.714844 214.070312 187.734375 213.953125 187.644531 C 213.839844 187.554688 213.816406 187.386719 213.910156 187.273438 C 216.402344 184.097656 219.625 181.777344 222.980469 180.734375 C 226.382812 179.683594 229.625 180.042969 232.101562 181.75 C 237.003906 185.125 237.703125 192.992188 233.730469 200.050781 C 233.691406 200.484375 235.113281 202.679688 236.46875 204.480469 L 236.988281 205.179688 L 236.167969 204.890625 C 234.011719 204.136719 231.472656 203.492188 231.132812 203.738281 C 228.640625 206.613281 225.511719 208.683594 222.324219 209.5625 C 221.195312 209.875 220.085938 210.027344 219.019531 210.027344 " fill-opacity="1" fill-rule="nonzero"/><path fill="#8c52ff" d="M 219.410156 198.882812 L 218.050781 200.003906 C 217.859375 200.160156 217.578125 200.136719 217.410156 199.953125 L 209.316406 190.941406 C 209.140625 190.746094 209.164062 190.449219 209.363281 190.285156 L 211.429688 188.585938 C 211.632812 188.421875 211.929688 188.457031 212.089844 188.664062 L 219.480469 198.253906 C 219.632812 198.449219 219.601562 198.726562 219.410156 198.882812 " fill-opacity="1" fill-rule="nonzero"/><path fill="#8c52ff" d="M 219.472656 202.921875 C 219.195312 202.128906 219.585938 201.308594 220.335938 201.085938 C 221.09375 200.863281 221.925781 201.324219 222.203125 202.113281 C 222.480469 202.902344 222.09375 203.722656 221.339844 203.949219 C 220.582031 204.171875 219.75 203.710938 219.472656 202.921875 " fill-opacity="1" fill-rule="nonzero"/><path fill="#8c52ff" d="M 225.925781 199.5 C 225.582031 198.628906 225.933594 197.789062 226.757812 197.476562 C 227.585938 197.160156 228.394531 197.554688 228.738281 198.425781 C 229.0625 199.25 228.769531 200.097656 227.898438 200.429688 C 227.070312 200.746094 226.253906 200.324219 225.925781 199.5 Z M 225.144531 196.003906 L 224.855469 195.40625 C 224.214844 194.191406 224.089844 192.636719 224.714844 190.773438 C 225.285156 189.117188 225.511719 187.972656 225.09375 186.914062 C 224.621094 185.710938 223.546875 185.402344 222.050781 185.949219 C 221.199219 186.273438 220.46875 187.105469 220.054688 187.777344 L 218.800781 186.113281 C 219.359375 185.25 220.554688 184.359375 221.808594 183.882812 C 224.523438 182.847656 226.414062 184.050781 227.117188 185.839844 C 227.75 187.445312 227.308594 188.941406 226.703125 190.71875 C 226.148438 192.339844 226.179688 193.519531 226.722656 194.695312 L 226.988281 195.300781 L 225.144531 196.003906 " fill-opacity="1" fill-rule="nonzero"/><path fill="#ffffff" d="M 304.410156 299.226562 C 303.707031 300.585938 302.511719 301.367188 301.734375 300.976562 C 300.960938 300.582031 300.898438 299.160156 301.597656 297.800781 C 302.296875 296.4375 303.496094 295.65625 304.269531 296.050781 C 305.046875 296.445312 305.109375 297.867188 304.410156 299.226562 Z M 310.65625 293.519531 C 309.035156 293.582031 306.390625 294.148438 306.019531 293.722656 C 305.644531 293.292969 307.898438 290.734375 308.167969 288.839844 C 308.441406 286.941406 307.84375 283.421875 302.234375 284.046875 C 297.628906 284.558594 287.894531 289.652344 287.582031 300.269531 C 286.949219 322.035156 311.425781 313.445312 313.097656 300.691406 C 313.851562 294.941406 312.277344 293.457031 310.65625 293.519531 " fill-opacity="1" fill-rule="nonzero"/><path fill="#000000" d="M 304.410156 299.226562 Z M 303.824219 296.210938 C 303.191406 296.210938 302.359375 296.902344 301.832031 297.921875 C 301.410156 298.742188 301.269531 299.625 301.460938 300.21875 C 301.539062 300.472656 301.675781 300.644531 301.855469 300.738281 C 302.492188 301.058594 303.550781 300.3125 304.171875 299.105469 C 304.597656 298.28125 304.738281 297.402344 304.546875 296.804688 C 304.464844 296.554688 304.332031 296.378906 304.152344 296.289062 C 304.050781 296.238281 303.941406 296.210938 303.824219 296.210938 Z M 302.179688 301.34375 C 301.980469 301.34375 301.789062 301.300781 301.617188 301.210938 C 301.308594 301.054688 301.078125 300.769531 300.953125 300.382812 C 300.71875 299.648438 300.871094 298.636719 301.363281 297.679688 C 302.140625 296.164062 303.472656 295.347656 304.390625 295.816406 C 304.699219 295.972656 304.925781 296.257812 305.050781 296.644531 C 305.289062 297.378906 305.136719 298.390625 304.644531 299.347656 C 304.015625 300.574219 303.023438 301.34375 302.179688 301.34375 Z M 297.34375 313.863281 C 297 313.863281 296.660156 313.851562 296.324219 313.820312 C 290.367188 313.285156 287.082031 308.34375 287.320312 300.261719 C 287.625 289.75 297.164062 284.339844 302.207031 283.78125 C 304.5625 283.519531 306.300781 283.945312 307.367188 285.050781 C 308.636719 286.359375 308.535156 288.160156 308.433594 288.875 C 308.277344 289.949219 307.546875 291.183594 306.953125 292.175781 C 306.644531 292.699219 306.261719 293.34375 306.242188 293.5625 C 306.515625 293.703125 307.832031 293.542969 308.710938 293.441406 C 309.164062 293.382812 309.636719 293.328125 310.066406 293.292969 C 310.210938 293.277344 310.34375 293.386719 310.355469 293.53125 C 310.367188 293.679688 310.257812 293.808594 310.113281 293.820312 C 309.691406 293.855469 309.226562 293.910156 308.773438 293.964844 C 307.101562 294.167969 306.140625 294.261719 305.820312 293.894531 C 305.523438 293.554688 305.867188 292.96875 306.5 291.90625 C 307.066406 290.953125 307.765625 289.769531 307.90625 288.800781 C 308 288.164062 308.09375 286.558594 306.988281 285.417969 C 306.039062 284.4375 304.449219 284.066406 302.265625 284.308594 C 297.382812 284.851562 288.148438 290.089844 287.847656 300.277344 C 287.621094 308.042969 290.730469 312.785156 296.371094 313.292969 C 299.644531 313.585938 303.519531 312.359375 306.730469 310.007812 C 310.082031 307.558594 312.296875 304.222656 312.804688 300.859375 C 312.828125 300.714844 312.964844 300.617188 313.109375 300.640625 C 313.25 300.660156 313.351562 300.796875 313.328125 300.941406 C 312.800781 304.441406 310.511719 307.902344 307.042969 310.4375 C 304.058594 312.621094 300.503906 313.863281 297.34375 313.863281 " fill-opacity="1" fill-rule="nonzero"/><path fill="#8c52ff" d="M 305.871094 289.46875 C 305.871094 290.535156 305 291.402344 303.925781 291.402344 C 302.851562 291.402344 301.980469 290.535156 301.980469 289.46875 C 301.980469 288.402344 302.851562 287.539062 303.925781 287.539062 C 305 287.539062 305.871094 288.402344 305.871094 289.46875 " fill-opacity="1" fill-rule="nonzero"/><path fill="#d2c7ff" d="M 299.78125 290.09375 C 299.78125 291.160156 298.910156 292.023438 297.835938 292.023438 C 296.761719 292.023438 295.890625 291.160156 295.890625 290.09375 C 295.890625 289.027344 296.761719 288.160156 297.835938 288.160156 C 298.910156 288.160156 299.78125 289.027344 299.78125 290.09375 " fill-opacity="1" fill-rule="nonzero"/><path fill="#f1eaff" d="M 295.003906 294.464844 C 295.003906 295.53125 294.132812 296.394531 293.058594 296.394531 C 291.984375 296.394531 291.113281 295.53125 291.113281 294.464844 C 291.113281 293.394531 291.984375 292.53125 293.058594 292.53125 C 294.132812 292.53125 295.003906 293.394531 295.003906 294.464844 " fill-opacity="1" fill-rule="nonzero"/><path fill="#f1eaff" d="M 291.539062 298.679688 C 290.613281 298.679688 289.859375 299.425781 289.859375 300.34375 C 289.859375 301.265625 290.613281 302.011719 291.539062 302.011719 C 292.464844 302.011719 293.21875 301.265625 293.21875 300.34375 C 293.21875 299.425781 292.464844 298.679688 291.539062 298.679688 Z M 291.539062 302.542969 C 290.320312 302.542969 289.328125 301.554688 289.328125 300.34375 C 289.328125 299.132812 290.320312 298.148438 291.539062 298.148438 C 292.757812 298.148438 293.746094 299.132812 293.746094 300.34375 C 293.746094 301.554688 292.757812 302.542969 291.539062 302.542969 " fill-opacity="1" fill-rule="nonzero"/><path fill="#ffffff" d="M 311.371094 295.625 L 313.289062 298.027344 L 297.984375 308.949219 L 295.097656 310.039062 C 295.097656 310.039062 296.808594 307.609375 296.921875 307.511719 L 311.371094 295.625 " fill-opacity="1" fill-rule="nonzero"/><path fill="#000000" d="M 297.097656 307.707031 C 296.992188 307.832031 296.375 308.691406 295.8125 309.484375 L 297.859375 308.710938 L 312.902344 297.972656 L 311.332031 296 Z M 295.09375 310.304688 C 295.015625 310.304688 294.9375 310.269531 294.886719 310.203125 C 294.8125 310.109375 294.8125 309.980469 294.878906 309.886719 C 296.027344 308.253906 296.65625 307.390625 296.746094 307.3125 L 311.203125 295.421875 C 311.257812 295.375 311.328125 295.355469 311.398438 295.363281 C 311.46875 295.371094 311.535156 295.40625 311.578125 295.460938 L 313.492188 297.863281 C 313.539062 297.917969 313.558594 297.992188 313.550781 298.0625 C 313.539062 298.136719 313.5 298.199219 313.441406 298.242188 L 298.136719 309.164062 C 298.121094 309.175781 298.097656 309.1875 298.078125 309.195312 L 295.1875 310.289062 C 295.160156 310.300781 295.125 310.304688 295.09375 310.304688 " fill-opacity="1" fill-rule="nonzero"/><path fill="#d2c7ff" d="M 311.371094 295.625 L 313.289062 298.027344 L 309.898438 300.445312 L 308.144531 298.28125 L 311.371094 295.625 " fill-opacity="1" fill-rule="nonzero"/><path fill="#000000" d="M 308.515625 298.320312 L 309.945312 300.085938 L 312.902344 297.972656 L 311.332031 296 Z M 309.898438 300.710938 C 309.820312 300.710938 309.742188 300.675781 309.691406 300.613281 L 307.9375 298.449219 C 307.84375 298.335938 307.859375 298.167969 307.976562 298.078125 L 311.203125 295.421875 C 311.257812 295.375 311.328125 295.355469 311.398438 295.363281 C 311.46875 295.371094 311.535156 295.40625 311.578125 295.460938 L 313.492188 297.863281 C 313.539062 297.917969 313.558594 297.992188 313.550781 298.0625 C 313.539062 298.136719 313.5 298.199219 313.441406 298.242188 L 310.050781 300.660156 C 310.003906 300.695312 309.953125 300.710938 309.898438 300.710938 " fill-opacity="1" fill-rule="nonzero"/><path fill="#8c52ff" d="M 313.546875 291.878906 C 311.832031 293.265625 311.230469 294.542969 311.34375 295.632812 L 313.285156 298.046875 C 313.285156 298.046875 313.292969 298.046875 313.292969 298.046875 C 314.347656 298.398438 315.742188 298.085938 317.476562 296.6875 C 320.050781 294.609375 321.699219 289.292969 321.699219 289.292969 C 321.699219 289.292969 316.121094 289.804688 313.546875 291.878906 " fill-opacity="1" fill-rule="nonzero"/><path fill="#000000" d="M 313.546875 291.878906 L 313.550781 291.878906 Z M 313.441406 297.816406 C 314.507812 298.128906 315.839844 297.664062 317.308594 296.480469 C 319.394531 294.800781 320.882812 290.855469 321.316406 289.601562 C 319.996094 289.765625 315.800781 290.40625 313.714844 292.085938 C 312.253906 293.261719 311.527344 294.449219 311.601562 295.53125 Z M 314.136719 298.449219 C 313.816406 298.449219 313.507812 298.398438 313.210938 298.300781 C 313.160156 298.285156 313.113281 298.253906 313.082031 298.214844 L 311.136719 295.800781 C 311.105469 295.761719 311.085938 295.714844 311.082031 295.667969 C 310.945312 294.355469 311.71875 293.011719 313.378906 291.671875 C 315.988281 289.570312 321.445312 289.046875 321.675781 289.027344 C 321.765625 289.019531 321.851562 289.054688 321.90625 289.125 C 321.960938 289.195312 321.980469 289.285156 321.953125 289.371094 C 321.886719 289.589844 320.25 294.789062 317.644531 296.894531 C 316.359375 297.925781 315.1875 298.449219 314.136719 298.449219 " fill-opacity="1" fill-rule="nonzero"/><path fill="#8c52ff" d="M 182.535156 319.230469 L 211.519531 319.230469 L 211.519531 317.605469 L 210.398438 317.605469 L 210.402344 310.84375 L 211.519531 310.835938 L 211.589844 309.035156 L 182.605469 309.035156 C 181.34375 309.035156 179.425781 311.058594 179.425781 312.433594 L 179.425781 316.140625 C 179.425781 317.511719 181.273438 319.230469 182.535156 319.230469 " fill-opacity="1" fill-rule="nonzero"/><path fill="#ffffff" d="M 182.023438 317.605469 L 210.503906 317.605469 L 210.503906 310.839844 L 182.023438 310.839844 C 181.507812 310.839844 181.09375 311.257812 181.09375 311.769531 L 181.09375 316.675781 C 181.09375 317.1875 181.507812 317.605469 182.023438 317.605469 " fill-opacity="1" fill-rule="nonzero"/><path fill="#000000" d="M 183.144531 311.105469 C 182.160156 311.105469 181.359375 311.90625 181.359375 312.890625 L 181.359375 315.554688 C 181.359375 316.539062 182.160156 317.339844 183.144531 317.339844 L 210.238281 317.339844 L 210.238281 311.105469 Z M 210.503906 317.871094 L 183.144531 317.871094 C 181.867188 317.871094 180.828125 316.832031 180.828125 315.554688 L 180.828125 312.890625 C 180.828125 311.613281 181.867188 310.574219 183.144531 310.574219 L 210.503906 310.574219 C 210.652344 310.574219 210.769531 310.695312 210.769531 310.839844 L 210.769531 317.605469 C 210.769531 317.75 210.652344 317.871094 210.503906 317.871094 " fill-opacity="1" fill-rule="nonzero"/><path fill="#d2c7ff" d="M 209.074219 313.214844 L 184.125 313.214844 C 183.980469 313.214844 183.859375 313.09375 183.859375 312.949219 C 183.859375 312.800781 183.980469 312.683594 184.125 312.683594 L 209.074219 312.683594 C 209.21875 312.683594 209.339844 312.800781 209.339844 312.949219 C 209.339844 313.09375 209.21875 313.214844 209.074219 313.214844 " fill-opacity="1" fill-rule="nonzero"/><path fill="#d2c7ff" d="M 201.457031 315.320312 L 184.125 315.320312 C 183.980469 315.320312 183.859375 315.203125 183.859375 315.054688 C 183.859375 314.910156 183.980469 314.789062 184.125 314.789062 L 201.457031 314.789062 C 201.605469 314.789062 201.722656 314.910156 201.722656 315.054688 C 201.722656 315.203125 201.605469 315.320312 201.457031 315.320312 " fill-opacity="1" fill-rule="nonzero"/><path fill="#ffffff" d="M 192.3125 295.761719 L 188.667969 296.738281 L 183.753906 278.621094 L 187.398438 277.648438 L 192.3125 295.761719 " fill-opacity="1" fill-rule="nonzero"/><path fill="#000000" d="M 184.082031 278.808594 L 188.851562 296.414062 L 191.984375 295.574219 L 187.214844 277.972656 Z M 188.480469 297.0625 L 183.429688 278.4375 L 187.585938 277.324219 L 192.636719 295.949219 L 188.480469 297.0625 " fill-opacity="1" fill-rule="nonzero"/><path fill="#d2c7ff" d="M 185.371094 280.648438 C 185.253906 280.648438 185.144531 280.566406 185.113281 280.449219 C 185.078125 280.304688 185.164062 280.160156 185.304688 280.125 L 186.914062 279.703125 C 187.054688 279.667969 187.199219 279.753906 187.238281 279.894531 C 187.273438 280.035156 187.191406 280.179688 187.046875 280.21875 L 185.4375 280.636719 C 185.414062 280.644531 185.394531 280.648438 185.371094 280.648438 " fill-opacity="1" fill-rule="nonzero"/><path fill="#ffffff" d="M 186.648438 299.332031 C 184.351562 299.300781 182.238281 297.328125 182.238281 294.898438 C 182.238281 292.464844 184.351562 290.492188 186.648438 290.460938 L 186.648438 288.117188 C 183.289062 288.144531 179.875 291.171875 179.875 294.898438 C 179.875 298.625 183.289062 301.648438 186.648438 301.675781 L 186.648438 299.332031 " fill-opacity="1" fill-rule="nonzero"/><path fill="#000000" d="M 186.40625 301.941406 C 186.402344 301.941406 186.398438 301.941406 186.394531 301.941406 C 183.144531 301.820312 179.523438 298.898438 179.523438 294.898438 C 179.523438 290.898438 183.238281 287.878906 186.558594 287.851562 C 186.625 287.851562 186.699219 287.878906 186.746094 287.925781 C 186.796875 287.976562 186.828125 288.046875 186.828125 288.117188 L 186.828125 290.460938 C 186.828125 290.605469 186.710938 290.726562 186.5625 290.726562 C 184.355469 290.753906 182.414062 292.703125 182.414062 294.898438 C 182.414062 297.078125 184.273438 298.984375 186.476562 299.0625 C 186.621094 299.070312 186.738281 299.191406 186.730469 299.339844 C 186.726562 299.484375 186.605469 299.601562 186.457031 299.59375 C 183.980469 299.503906 181.882812 297.355469 181.882812 294.898438 C 181.882812 292.46875 183.878906 290.378906 186.296875 290.207031 L 186.296875 288.390625 C 183.292969 288.570312 180.054688 291.308594 180.054688 294.898438 C 180.054688 298.597656 183.40625 301.300781 186.414062 301.410156 C 186.5625 301.414062 186.675781 301.535156 186.671875 301.683594 C 186.664062 301.828125 186.546875 301.941406 186.40625 301.941406 " fill-opacity="1" fill-rule="nonzero"/><path fill="#ffffff" d="M 192.203125 291.660156 L 186.636719 293.148438 L 184.390625 284.863281 L 189.957031 283.375 L 192.203125 291.660156 " fill-opacity="1" fill-rule="nonzero"/><path fill="#000000" d="M 184.71875 285.050781 L 186.824219 292.824219 L 191.878906 291.472656 L 189.769531 283.699219 Z M 186.453125 293.472656 L 184.066406 284.679688 L 190.144531 283.050781 L 192.527344 291.84375 L 186.453125 293.472656 " fill-opacity="1" fill-rule="nonzero"/><path fill="#ffffff" d="M 190.699219 306.53125 L 186.402344 306.53125 L 186.402344 301.707031 L 190.699219 301.707031 L 190.699219 306.53125 " fill-opacity="1" fill-rule="nonzero"/><path fill="#000000" d="M 190.699219 306.796875 L 189.230469 306.796875 C 189.085938 306.796875 188.964844 306.675781 188.964844 306.53125 C 188.964844 306.382812 189.085938 306.265625 189.230469 306.265625 L 190.433594 306.265625 L 190.433594 301.972656 L 186.667969 301.972656 L 186.667969 306.265625 L 186.851562 306.265625 C 187 306.265625 187.117188 306.382812 187.117188 306.53125 C 187.117188 306.675781 187 306.796875 186.851562 306.796875 L 186.402344 306.796875 C 186.257812 306.796875 186.140625 306.675781 186.140625 306.53125 L 186.140625 301.707031 C 186.140625 301.5625 186.257812 301.441406 186.402344 301.441406 L 190.699219 301.441406 C 190.84375 301.441406 190.964844 301.5625 190.964844 301.707031 L 190.964844 306.53125 C 190.964844 306.675781 190.84375 306.796875 190.699219 306.796875 " fill-opacity="1" fill-rule="nonzero"/><path fill="#ffffff" d="M 196.140625 301.621094 L 186.402344 301.621094 L 186.402344 299.328125 L 196.140625 299.328125 L 196.140625 301.621094 " fill-opacity="1" fill-rule="nonzero"/><path fill="#000000" d="M 196.140625 301.941406 L 186.402344 301.941406 C 186.257812 301.941406 186.140625 301.820312 186.140625 301.675781 C 186.140625 301.527344 186.257812 301.410156 186.402344 301.410156 L 195.875 301.410156 L 195.875 299.59375 L 186.667969 299.59375 L 186.667969 300.386719 C 186.667969 300.53125 186.550781 300.648438 186.402344 300.648438 C 186.257812 300.648438 186.140625 300.53125 186.140625 300.386719 L 186.140625 299.328125 C 186.140625 299.183594 186.257812 299.0625 186.402344 299.0625 L 196.140625 299.0625 C 196.285156 299.0625 196.40625 299.183594 196.40625 299.328125 L 196.40625 301.675781 C 196.40625 301.820312 196.285156 301.941406 196.140625 301.941406 " fill-opacity="1" fill-rule="nonzero"/><path fill="#ffffff" d="M 194.410156 308.824219 L 183.015625 308.824219 L 183.015625 306.53125 L 194.410156 306.53125 L 194.410156 308.824219 " fill-opacity="1" fill-rule="nonzero"/><path fill="#000000" d="M 194.410156 309.089844 L 183.015625 309.089844 C 182.871094 309.089844 182.75 308.96875 182.75 308.824219 L 182.75 306.53125 C 182.75 306.386719 182.871094 306.265625 183.015625 306.265625 L 187.273438 306.265625 C 187.417969 306.265625 187.539062 306.386719 187.539062 306.53125 C 187.539062 306.679688 187.417969 306.796875 187.273438 306.796875 L 183.28125 306.796875 L 183.28125 308.558594 L 194.144531 308.558594 L 194.144531 306.796875 L 188.957031 306.796875 C 188.8125 306.796875 188.695312 306.679688 188.695312 306.53125 C 188.695312 306.386719 188.8125 306.265625 188.957031 306.265625 L 194.410156 306.265625 C 194.554688 306.265625 194.675781 306.386719 194.675781 306.53125 L 194.675781 308.824219 C 194.675781 308.96875 194.554688 309.089844 194.410156 309.089844 " fill-opacity="1" fill-rule="nonzero"/><path fill="#ffffff" d="M 206.480469 306.488281 L 203.359375 301.972656 L 203.359375 295.519531 L 199.292969 295.519531 L 199.292969 301.972656 L 196.179688 306.488281 C 195.5 307.492188 196.222656 308.867188 197.441406 308.867188 L 205.21875 308.867188 C 206.4375 308.867188 207.160156 307.492188 206.480469 306.488281 " fill-opacity="1" fill-rule="nonzero"/><path fill="#000000" d="M 199.558594 295.785156 L 199.558594 302.058594 L 196.398438 306.640625 C 196.136719 307.027344 196.109375 307.511719 196.332031 307.933594 C 196.554688 308.351562 196.96875 308.601562 197.441406 308.601562 L 205.21875 308.601562 C 205.6875 308.601562 206.105469 308.351562 206.328125 307.933594 C 206.550781 307.511719 206.523438 307.027344 206.261719 306.640625 L 203.09375 302.058594 L 203.09375 295.785156 Z M 205.21875 309.132812 L 197.441406 309.132812 C 196.769531 309.132812 196.179688 308.777344 195.863281 308.179688 C 195.546875 307.582031 195.585938 306.894531 195.960938 306.339844 L 199.027344 301.890625 L 199.027344 295.253906 L 203.625 295.253906 L 203.625 301.890625 L 206.699219 306.339844 C 207.074219 306.894531 207.113281 307.582031 206.796875 308.179688 C 206.480469 308.777344 205.890625 309.132812 205.21875 309.132812 " fill-opacity="1" fill-rule="nonzero"/><path fill="#d2c7ff" d="M 201.589844 301.144531 C 201.445312 301.144531 201.324219 301.023438 201.324219 300.878906 L 201.324219 297.714844 C 201.324219 297.570312 201.445312 297.449219 201.589844 297.449219 C 201.738281 297.449219 201.855469 297.570312 201.855469 297.714844 L 201.855469 300.878906 C 201.855469 301.023438 201.738281 301.144531 201.589844 301.144531 " fill-opacity="1" fill-rule="nonzero"/><path fill="#000000" d="M 189.285156 196.171875 C 189.285156 196.171875 189.28125 196.171875 189.277344 196.171875 C 189.132812 196.167969 189.015625 196.046875 189.019531 195.898438 L 189.058594 194.703125 C 189.0625 194.554688 189.1875 194.433594 189.332031 194.445312 C 189.480469 194.449219 189.59375 194.570312 189.589844 194.71875 L 189.550781 195.917969 C 189.546875 196.058594 189.429688 196.171875 189.285156 196.171875 " fill-opacity="1" fill-rule="nonzero"/><path fill="#000000" d="M 189.417969 191.980469 C 189.414062 191.980469 189.414062 191.980469 189.410156 191.980469 C 189.261719 191.972656 189.148438 191.851562 189.152344 191.707031 L 189.191406 190.507812 C 189.195312 190.359375 189.320312 190.238281 189.464844 190.25 C 189.609375 190.253906 189.726562 190.375 189.722656 190.523438 L 189.683594 191.722656 C 189.679688 191.867188 189.5625 191.980469 189.417969 191.980469 " fill-opacity="1" fill-rule="nonzero"/><path fill="#000000" d="M 192.046875 193.597656 C 192.042969 193.597656 192.035156 193.597656 192.03125 193.597656 L 190.84375 193.542969 C 190.699219 193.539062 190.585938 193.414062 190.59375 193.265625 C 190.597656 193.121094 190.722656 193.003906 190.867188 193.015625 L 192.058594 193.070312 C 192.203125 193.074219 192.316406 193.199219 192.308594 193.34375 C 192.304688 193.488281 192.1875 193.597656 192.046875 193.597656 " fill-opacity="1" fill-rule="nonzero"/><path fill="#000000" d="M 187.886719 193.410156 C 187.882812 193.410156 187.878906 193.410156 187.875 193.410156 L 186.683594 193.355469 C 186.539062 193.347656 186.425781 193.222656 186.433594 193.078125 C 186.4375 192.929688 186.5625 192.8125 186.710938 192.824219 L 187.898438 192.878906 C 188.042969 192.886719 188.15625 193.007812 188.152344 193.15625 C 188.144531 193.296875 188.027344 193.410156 187.886719 193.410156 " fill-opacity="1" fill-rule="nonzero"/><path fill="#000000" d="M 199.097656 281.429688 C 199.027344 281.429688 198.957031 281.402344 198.90625 281.347656 L 198.078125 280.472656 C 197.976562 280.367188 197.984375 280.199219 198.089844 280.097656 C 198.195312 279.996094 198.363281 280.003906 198.464844 280.109375 L 199.289062 280.984375 C 199.390625 281.089844 199.386719 281.257812 199.28125 281.359375 C 199.230469 281.40625 199.164062 281.429688 199.097656 281.429688 " fill-opacity="1" fill-rule="nonzero"/><path fill="#000000" d="M 201.992188 284.492188 C 201.921875 284.492188 201.851562 284.460938 201.796875 284.40625 L 200.972656 283.53125 C 200.871094 283.425781 200.875 283.257812 200.980469 283.160156 C 201.089844 283.058594 201.257812 283.0625 201.355469 283.167969 L 202.183594 284.042969 C 202.285156 284.148438 202.28125 284.316406 202.171875 284.417969 C 202.121094 284.46875 202.058594 284.492188 201.992188 284.492188 " fill-opacity="1" fill-rule="nonzero"/><path fill="#000000" d="M 198.152344 284.316406 C 198.082031 284.316406 198.007812 284.285156 197.957031 284.226562 C 197.859375 284.117188 197.867188 283.953125 197.976562 283.855469 L 198.855469 283.058594 C 198.964844 282.957031 199.132812 282.964844 199.230469 283.074219 C 199.328125 283.183594 199.320312 283.351562 199.210938 283.449219 L 198.332031 284.246094 C 198.28125 284.292969 198.21875 284.316406 198.152344 284.316406 " fill-opacity="1" fill-rule="nonzero"/><path fill="#000000" d="M 201.230469 281.527344 C 201.15625 281.527344 201.085938 281.5 201.035156 281.441406 C 200.933594 281.332031 200.945312 281.164062 201.050781 281.066406 L 201.929688 280.269531 C 202.039062 280.171875 202.207031 280.179688 202.304688 280.289062 C 202.402344 280.398438 202.394531 280.566406 202.289062 280.664062 L 201.410156 281.460938 C 201.359375 281.507812 201.292969 281.527344 201.230469 281.527344 " fill-opacity="1" fill-rule="nonzero"/><path fill="#000000" d="M 305.550781 228.109375 C 306.167969 228.140625 306.691406 227.671875 306.726562 227.0625 C 306.742188 226.765625 306.640625 226.484375 306.441406 226.261719 C 306.242188 226.042969 305.96875 225.914062 305.671875 225.894531 C 305.054688 225.867188 304.527344 226.332031 304.492188 226.945312 C 304.480469 227.238281 304.578125 227.523438 304.777344 227.742188 C 304.976562 227.964844 305.25 228.09375 305.550781 228.109375 Z M 305.613281 228.640625 C 305.582031 228.640625 305.550781 228.640625 305.523438 228.640625 C 305.082031 228.617188 304.679688 228.425781 304.386719 228.097656 C 304.089844 227.773438 303.941406 227.351562 303.964844 226.914062 C 304.011719 226.011719 304.789062 225.316406 305.699219 225.367188 C 306.136719 225.390625 306.539062 225.582031 306.835938 225.90625 C 307.128906 226.234375 307.277344 226.652344 307.253906 227.089844 C 307.207031 227.964844 306.480469 228.640625 305.613281 228.640625 " fill-opacity="1" fill-rule="nonzero"/><path fill="#000000" d="M 206.597656 269.84375 C 206.011719 269.84375 205.515625 270.300781 205.484375 270.890625 C 205.46875 271.1875 205.570312 271.46875 205.769531 271.691406 C 205.96875 271.910156 206.242188 272.039062 206.539062 272.058594 C 207.15625 272.085938 207.683594 271.621094 207.714844 271.007812 C 207.730469 270.714844 207.628906 270.429688 207.429688 270.210938 C 207.230469 269.988281 206.957031 269.859375 206.660156 269.84375 C 206.640625 269.84375 206.617188 269.84375 206.597656 269.84375 Z M 206.601562 272.589844 C 206.570312 272.589844 206.542969 272.589844 206.511719 272.585938 C 206.074219 272.5625 205.667969 272.371094 205.375 272.046875 C 205.082031 271.71875 204.929688 271.300781 204.953125 270.863281 C 205.003906 269.960938 205.777344 269.265625 206.6875 269.3125 C 207.128906 269.335938 207.53125 269.53125 207.824219 269.855469 C 208.121094 270.179688 208.269531 270.601562 208.246094 271.039062 C 208.199219 271.910156 207.46875 272.589844 206.601562 272.589844 " fill-opacity="1" fill-rule="nonzero"/><path fill="#d2c7ff" d="M 308.847656 318.34375 C 308.203125 318.308594 307.707031 317.761719 307.742188 317.121094 C 307.777344 316.480469 308.328125 315.988281 308.972656 316.023438 C 309.617188 316.058594 310.113281 316.605469 310.078125 317.246094 C 310.042969 317.886719 309.492188 318.378906 308.847656 318.34375 " fill-opacity="1" fill-rule="nonzero"/></svg>