<svg xmlns="http://www.w3.org/2000/svg" xmlns:xlink="http://www.w3.org/1999/xlink" width="500" zoomAndPan="magnify" viewBox="0 0 375 374.999991" height="500" preserveAspectRatio="xMidYMid meet" version="1.0"><defs><clipPath id="90c76230fd"><path d="M 0 0 L 262.558594 0 L 262.558594 262.558594 L 0 262.558594 Z M 0 0 " clip-rule="nonzero"/></clipPath><clipPath id="59fb51df5d"><path d="M 0 -262.558594 C -145.007812 -262.558594 -262.558594 -145.007812 -262.558594 0 C -262.558594 145.007812 -145.007812 262.558594 0 262.558594 C 145.007812 262.558594 262.558594 145.007812 262.558594 0 C 262.558594 -145.007812 145.007812 -262.558594 0 -262.558594 Z M 0 -262.558594 " clip-rule="nonzero"/></clipPath></defs><rect x="-37.5" width="450" fill="#ffffff" y="-37.499999" height="449.999989" fill-opacity="1"/><rect x="-37.5" width="450" fill="#ffffff" y="-37.499999" height="449.999989" fill-opacity="1"/><g clip-path="url(#90c76230fd)"><g clip-path="url(#59fb51df5d)"><path fill="#ebe0ff" d="M -262.558594 -262.558594 L 262.558594 -262.558594 L 262.558594 262.558594 L -262.558594 262.558594 Z M -262.558594 -262.558594 " fill-opacity="1" fill-rule="nonzero"/></g></g><path fill="#f1eaff" d="M 131.785156 175.429688 C 139.203125 172.5625 170.847656 160.339844 178.625 130.863281 C 187.492188 97.25 160.972656 57.679688 124.316406 50.390625 C 86.292969 42.828125 43.34375 60.605469 46.714844 88.148438 C 48.253906 100.71875 65.371094 104.519531 64.578125 119.320312 C 63.808594 133.765625 45.613281 140.847656 47.515625 158.035156 C 47.636719 159.113281 48.019531 162.347656 49.644531 165.582031 C 58.867188 183.945312 100.625 187.464844 131.785156 175.429688 " fill-opacity="1" fill-rule="nonzero"/><path fill="#000000" d="M 57.304688 156.328125 L 164.59375 156.5625 L 166.457031 156.566406 L 169.921875 156.574219 C 170.90625 156.574219 171.714844 155.808594 171.839844 154.832031 L 180.808594 85.027344 C 181.027344 83.332031 179.785156 81.726562 178.070312 81.726562 L 66.910156 81.828125 L 57.304688 156.328125 " fill-opacity="1" fill-rule="nonzero"/><path fill="#d2c7ff" d="M 173.898438 81.386719 C 175.832031 81.386719 177.40625 83.335938 177.160156 85.261719 L 168.125 154.828125 C 167.996094 155.808594 167.167969 156.539062 166.183594 156.539062 L 165.335938 156.570312 L 55.816406 156.539062 C 54.636719 156.539062 53.726562 155.5 53.875 154.328125 L 63.09375 83.34375 C 63.21875 82.363281 63.972656 81.386719 64.957031 81.386719 L 173.898438 81.386719 " fill-opacity="1" fill-rule="nonzero"/><path fill="#000000" d="M 58.929688 115.265625 C 58.921875 115.265625 58.910156 115.265625 58.898438 115.261719 C 58.765625 115.246094 58.671875 115.125 58.691406 114.992188 L 60.550781 100.832031 C 60.566406 100.699219 60.691406 100.605469 60.824219 100.625 C 60.957031 100.640625 61.050781 100.761719 61.03125 100.894531 L 59.171875 115.054688 C 59.15625 115.175781 59.050781 115.265625 58.929688 115.265625 " fill-opacity="1" fill-rule="nonzero"/><path fill="#000000" d="M 55.816406 156.78125 C 55.1875 156.78125 54.585938 156.511719 54.167969 156.035156 C 53.75 155.558594 53.554688 154.925781 53.636719 154.296875 L 53.839844 151.957031 C 53.851562 151.824219 53.972656 151.722656 54.105469 151.738281 C 54.238281 151.75 54.335938 151.867188 54.324219 152 L 54.117188 154.347656 C 54.054688 154.847656 54.203125 155.34375 54.53125 155.714844 C 54.855469 156.085938 55.324219 156.296875 55.816406 156.296875 L 92.222656 156.261719 C 92.359375 156.261719 92.464844 156.371094 92.46875 156.503906 C 92.46875 156.636719 92.359375 156.746094 92.222656 156.746094 L 55.816406 156.78125 " fill-opacity="1" fill-rule="nonzero"/><path fill="#000000" d="M 166.21875 156.582031 L 164.492188 156.582031 C 164.355469 156.582031 164.25 156.472656 164.25 156.339844 C 164.25 156.207031 164.355469 156.097656 164.492188 156.097656 L 166.21875 156.097656 C 167.074219 156.097656 167.894531 155.363281 168.003906 154.492188 L 176.917969 85.230469 C 177.027344 84.378906 176.765625 83.523438 176.203125 82.882812 C 175.640625 82.242188 174.828125 81.875 173.976562 81.875 L 161.519531 81.875 C 161.386719 81.875 161.277344 81.765625 161.277344 81.632812 C 161.277344 81.496094 161.386719 81.390625 161.519531 81.390625 L 173.976562 81.390625 C 174.96875 81.390625 175.910156 81.816406 176.566406 82.5625 C 177.222656 83.308594 177.527344 84.304688 177.398438 85.289062 L 168.484375 154.554688 C 168.339844 155.671875 167.324219 156.582031 166.21875 156.582031 " fill-opacity="1" fill-rule="nonzero"/><path fill="#ffffff" d="M 77.671875 98.839844 L 49.453125 98.839844 C 47.855469 98.839844 46.617188 97.4375 46.8125 95.851562 L 51.851562 54.84375 C 52.015625 53.511719 53.148438 52.511719 54.492188 52.511719 L 82.707031 52.511719 C 84.308594 52.511719 85.546875 53.910156 85.347656 55.5 L 80.3125 96.507812 C 80.144531 97.839844 79.011719 98.839844 77.671875 98.839844 " fill-opacity="1" fill-rule="nonzero"/><path fill="#000000" d="M 54.492188 52.753906 C 53.273438 52.753906 52.242188 53.664062 52.09375 54.875 L 47.054688 95.878906 C 46.96875 96.566406 47.183594 97.257812 47.640625 97.777344 C 48.101562 98.296875 48.761719 98.597656 49.453125 98.597656 L 77.671875 98.597656 C 78.886719 98.597656 79.917969 97.683594 80.070312 96.476562 L 85.109375 55.46875 C 85.191406 54.78125 84.980469 54.089844 84.519531 53.570312 C 84.0625 53.050781 83.402344 52.753906 82.707031 52.753906 Z M 77.671875 99.082031 L 49.453125 99.082031 C 48.621094 99.082031 47.828125 98.722656 47.277344 98.101562 C 46.726562 97.476562 46.46875 96.644531 46.574219 95.820312 L 51.609375 54.8125 C 51.792969 53.363281 53.03125 52.269531 54.492188 52.269531 L 82.707031 52.269531 C 83.539062 52.269531 84.332031 52.625 84.882812 53.25 C 85.433594 53.871094 85.691406 54.703125 85.589844 55.53125 L 80.550781 96.535156 C 80.371094 97.988281 79.132812 99.082031 77.671875 99.082031 " fill-opacity="1" fill-rule="nonzero"/><path fill="#f1eaff" d="M 75.003906 80.296875 C 75.070312 79.765625 74.65625 79.289062 74.117188 79.289062 L 55.527344 79.289062 C 55.078125 79.289062 54.695312 79.625 54.640625 80.070312 C 54.570312 80.605469 54.988281 81.082031 55.527344 81.082031 L 74.117188 81.082031 C 74.566406 81.082031 74.945312 80.746094 75.003906 80.296875 " fill-opacity="1" fill-rule="nonzero"/><path fill="#f1eaff" d="M 66.402344 84.808594 C 66.46875 84.273438 66.054688 83.800781 65.515625 83.800781 L 54.949219 83.800781 C 54.5 83.800781 54.121094 84.136719 54.0625 84.582031 C 53.996094 85.117188 54.414062 85.589844 54.949219 85.589844 L 65.515625 85.589844 C 65.964844 85.589844 66.34375 85.257812 66.402344 84.808594 " fill-opacity="1" fill-rule="nonzero"/><path fill="#f1eaff" d="M 68.488281 89.320312 C 68.554688 88.785156 68.140625 88.3125 67.601562 88.3125 L 54.375 88.3125 C 53.925781 88.3125 53.542969 88.648438 53.488281 89.09375 C 53.417969 89.628906 53.835938 90.101562 54.375 90.101562 L 67.601562 90.101562 C 68.050781 90.101562 68.429688 89.769531 68.488281 89.320312 " fill-opacity="1" fill-rule="nonzero"/><path fill="#ffffff" d="M 74.054688 73.882812 L 58.328125 73.882812 C 57.03125 73.882812 56.03125 72.742188 56.195312 71.457031 L 57.59375 60.589844 C 57.730469 59.519531 58.644531 58.714844 59.726562 58.714844 L 75.453125 58.714844 C 76.75 58.714844 77.75 59.851562 77.585938 61.140625 L 76.1875 72.007812 C 76.046875 73.078125 75.132812 73.882812 74.054688 73.882812 " fill-opacity="1" fill-rule="nonzero"/><path fill="#8c52ff" d="M 56.289062 71.832031 L 56.539062 69.6875 C 56.566406 69.441406 56.675781 69.214844 56.851562 69.039062 L 62.636719 63.292969 C 63.058594 62.871094 63.742188 62.871094 64.167969 63.292969 L 66.96875 66.09375 C 67.375 66.5 68.027344 66.515625 68.457031 66.132812 L 68.664062 65.949219 C 69.105469 65.554688 69.785156 65.589844 70.1875 66.027344 L 75.773438 72.144531 C 75.976562 72.367188 76.078125 72.660156 76.054688 72.957031 C 76.011719 73.527344 74.394531 73.96875 73.824219 73.964844 L 58.03125 73.808594 C 56.980469 73.796875 56.167969 72.878906 56.289062 71.832031 " fill-opacity="1" fill-rule="nonzero"/><path fill="#d2c7ff" d="M 75.011719 62.996094 C 75.011719 63.90625 74.277344 64.640625 73.367188 64.640625 C 72.460938 64.640625 71.726562 63.90625 71.726562 62.996094 C 71.726562 62.089844 72.460938 61.351562 73.367188 61.351562 C 74.277344 61.351562 75.011719 62.089844 75.011719 62.996094 " fill-opacity="1" fill-rule="nonzero"/><path fill="#000000" d="M 59.613281 58.957031 C 58.722656 58.957031 57.960938 59.625 57.847656 60.507812 L 56.417969 71.632812 C 56.351562 72.140625 56.507812 72.652344 56.84375 73.035156 C 57.183594 73.417969 57.667969 73.640625 58.179688 73.640625 L 74.167969 73.640625 C 75.058594 73.640625 75.816406 72.972656 75.929688 72.089844 L 77.363281 60.964844 C 77.429688 60.457031 77.273438 59.945312 76.933594 59.5625 C 76.597656 59.175781 76.109375 58.957031 75.597656 58.957031 Z M 74.167969 74.125 L 58.179688 74.125 C 57.53125 74.125 56.910156 73.84375 56.480469 73.355469 C 56.050781 72.867188 55.851562 72.21875 55.9375 71.574219 L 57.367188 60.445312 C 57.511719 59.320312 58.476562 58.472656 59.613281 58.472656 L 75.597656 58.472656 C 76.25 58.472656 76.867188 58.753906 77.296875 59.242188 C 77.726562 59.730469 77.925781 60.378906 77.84375 61.023438 L 76.410156 72.152344 C 76.265625 73.277344 75.300781 74.125 74.167969 74.125 " fill-opacity="1" fill-rule="nonzero"/><path fill="#ffffff" d="M 50.582031 118.378906 C 50.617188 118.078125 50.875 117.851562 51.175781 117.851562 L 103.9375 117.851562 C 104.535156 117.851562 104.992188 118.375 104.917969 118.96875 L 100.730469 150.34375 C 100.691406 150.644531 100.4375 150.867188 100.132812 150.867188 L 46.863281 150.867188 C 46.535156 150.867188 46.28125 150.578125 46.324219 150.253906 L 50.582031 118.378906 " fill-opacity="1" fill-rule="nonzero"/><path fill="#f1eaff" d="M 96.148438 128.570312 L 56.984375 128.570312 C 56.417969 128.570312 55.980469 128.070312 56.054688 127.507812 L 57.289062 117.953125 L 98.347656 117.953125 L 97.078125 127.757812 C 97.015625 128.222656 96.617188 128.570312 96.148438 128.570312 " fill-opacity="1" fill-rule="nonzero"/><path fill="#8c52ff" d="M 103.9375 117.851562 C 104.535156 117.851562 104.992188 118.375 104.917969 118.96875 L 104.464844 121.601562 L 50.070312 121.59375 L 50.582031 118.378906 C 50.617188 118.078125 50.875 117.851562 51.175781 117.851562 L 103.9375 117.851562 " fill-opacity="1" fill-rule="nonzero"/><path fill="#d2c7ff" d="M 64.023438 131.714844 L 59.265625 131.714844 C 58.800781 131.714844 58.441406 131.308594 58.503906 130.847656 L 59.136719 126.074219 C 59.1875 125.691406 59.511719 125.40625 59.898438 125.40625 L 64.65625 125.40625 C 65.121094 125.40625 65.480469 125.8125 65.421875 126.277344 L 64.789062 131.046875 C 64.738281 131.429688 64.410156 131.714844 64.023438 131.714844 " fill-opacity="1" fill-rule="nonzero"/><path fill="#f1eaff" d="M 74.644531 138.84375 C 74.691406 138.46875 74.398438 138.136719 74.023438 138.136719 L 54.515625 138.136719 C 54.203125 138.136719 53.933594 138.371094 53.894531 138.683594 C 53.847656 139.058594 54.140625 139.390625 54.515625 139.390625 L 74.023438 139.390625 C 74.339844 139.390625 74.605469 139.15625 74.644531 138.84375 " fill-opacity="1" fill-rule="nonzero"/><path fill="#f1eaff" d="M 77.351562 119.894531 C 77.398438 119.519531 77.105469 119.1875 76.730469 119.1875 L 57.222656 119.1875 C 56.910156 119.1875 56.640625 119.421875 56.601562 119.734375 C 56.554688 120.109375 56.847656 120.441406 57.222656 120.441406 L 76.730469 120.441406 C 77.042969 120.441406 77.3125 120.207031 77.351562 119.894531 " fill-opacity="1" fill-rule="nonzero"/><path fill="#f1eaff" d="M 97.28125 119.894531 C 97.328125 119.519531 97.035156 119.1875 96.65625 119.1875 L 94.875 119.1875 C 94.5625 119.1875 94.292969 119.421875 94.253906 119.734375 C 94.207031 120.109375 94.5 120.441406 94.875 120.441406 L 96.65625 120.441406 C 96.972656 120.441406 97.238281 120.207031 97.28125 119.894531 " fill-opacity="1" fill-rule="nonzero"/><path fill="#f1eaff" d="M 73.75 146.011719 C 73.796875 145.636719 73.503906 145.304688 73.125 145.304688 L 53.621094 145.304688 C 53.304688 145.304688 53.039062 145.539062 53 145.855469 C 52.953125 146.226562 53.242188 146.558594 53.621094 146.558594 L 73.125 146.558594 C 73.441406 146.558594 73.707031 146.324219 73.75 146.011719 " fill-opacity="1" fill-rule="nonzero"/><path fill="#f1eaff" d="M 78.488281 141.722656 L 54.070312 141.722656 C 53.753906 141.722656 53.488281 141.957031 53.445312 142.269531 C 53.398438 142.644531 53.691406 142.976562 54.070312 142.976562 L 78.488281 142.976562 C 78.800781 142.976562 79.070312 142.742188 79.109375 142.429688 C 79.160156 142.054688 78.867188 141.722656 78.488281 141.722656 " fill-opacity="1" fill-rule="nonzero"/><path fill="#f1eaff" d="M 79.4375 134.554688 L 54.964844 134.554688 C 54.648438 134.554688 54.382812 134.785156 54.34375 135.101562 C 54.296875 135.476562 54.585938 135.808594 54.964844 135.808594 L 79.4375 135.808594 C 79.753906 135.808594 80.019531 135.574219 80.0625 135.261719 C 80.109375 134.886719 79.816406 134.554688 79.4375 134.554688 " fill-opacity="1" fill-rule="nonzero"/><path fill="#000000" d="M 93.300781 151.109375 L 46.863281 151.109375 C 46.636719 151.109375 46.421875 151.011719 46.273438 150.84375 C 46.125 150.671875 46.054688 150.445312 46.085938 150.222656 L 50.339844 118.34375 C 50.394531 117.925781 50.753906 117.609375 51.175781 117.609375 L 86.835938 117.609375 C 86.972656 117.609375 87.078125 117.71875 87.078125 117.851562 C 87.078125 117.988281 86.972656 118.09375 86.835938 118.09375 L 51.175781 118.09375 C 50.996094 118.09375 50.84375 118.230469 50.820312 118.410156 L 46.566406 150.285156 C 46.554688 150.371094 46.582031 150.457031 46.636719 150.523438 C 46.695312 150.589844 46.777344 150.625 46.863281 150.625 L 93.300781 150.625 C 93.4375 150.625 93.542969 150.734375 93.542969 150.867188 C 93.542969 151.003906 93.4375 151.109375 93.300781 151.109375 " fill-opacity="1" fill-rule="nonzero"/><path fill="#000000" d="M 84.980469 145.21875 L 84.609375 145.21875 C 84.367188 145.21875 84.136719 145.113281 83.976562 144.929688 C 83.816406 144.746094 83.746094 144.503906 83.777344 144.261719 L 85.277344 133.378906 C 85.335938 132.964844 85.691406 132.652344 86.109375 132.652344 L 94.484375 132.652344 C 94.726562 132.652344 94.960938 132.757812 95.121094 132.941406 C 95.277344 133.125 95.351562 133.367188 95.316406 133.609375 L 95.285156 133.851562 C 95.265625 133.984375 95.144531 134.074219 95.011719 134.058594 C 94.878906 134.039062 94.785156 133.917969 94.804688 133.785156 L 94.839844 133.542969 C 94.851562 133.4375 94.820312 133.335938 94.753906 133.257812 C 94.683594 133.179688 94.589844 133.136719 94.484375 133.136719 L 86.109375 133.136719 C 85.933594 133.136719 85.78125 133.269531 85.757812 133.445312 L 84.257812 144.328125 C 84.246094 144.433594 84.273438 144.53125 84.34375 144.613281 C 84.410156 144.691406 84.507812 144.734375 84.609375 144.734375 L 84.980469 144.734375 C 85.113281 144.734375 85.222656 144.84375 85.222656 144.976562 C 85.222656 145.109375 85.113281 145.21875 84.980469 145.21875 " fill-opacity="1" fill-rule="nonzero"/><path fill="#f1eaff" d="M 94.453125 146.5 L 86.003906 146.5 C 85.660156 146.5 85.398438 146.199219 85.445312 145.863281 L 86.957031 134.902344 C 86.996094 134.625 87.230469 134.417969 87.511719 134.417969 L 95.960938 134.417969 C 96.300781 134.417969 96.5625 134.71875 96.519531 135.054688 L 95.007812 146.015625 C 94.96875 146.292969 94.730469 146.5 94.453125 146.5 " fill-opacity="1" fill-rule="nonzero"/><path fill="#8c52ff" d="M 157.121094 148.027344 C 156.988281 148.027344 156.882812 147.925781 156.878906 147.792969 C 156.875 147.660156 156.980469 147.546875 157.113281 147.542969 L 168.792969 147.246094 L 175.363281 144.40625 C 175.488281 144.355469 175.628906 144.410156 175.683594 144.535156 C 175.734375 144.65625 175.679688 144.800781 175.558594 144.851562 L 168.941406 147.707031 C 168.914062 147.722656 168.882812 147.726562 168.851562 147.726562 L 157.125 148.027344 C 157.125 148.027344 157.121094 148.027344 157.121094 148.027344 " fill-opacity="1" fill-rule="nonzero"/><path fill="#8c52ff" d="M 157.570312 152.988281 C 157.4375 152.988281 157.332031 152.882812 157.328125 152.75 C 157.328125 152.617188 157.433594 152.507812 157.566406 152.503906 L 169.144531 152.355469 C 169.28125 152.351562 169.386719 152.460938 169.390625 152.59375 C 169.390625 152.726562 169.285156 152.839844 169.148438 152.839844 L 157.574219 152.988281 C 157.574219 152.988281 157.574219 152.988281 157.570312 152.988281 " fill-opacity="1" fill-rule="nonzero"/><path fill="#8c52ff" d="M 171.101562 162.160156 C 171.050781 162.160156 171 162.144531 170.960938 162.113281 L 166.816406 159.15625 L 157.875 159.304688 C 157.742188 159.308594 157.632812 159.199219 157.628906 159.066406 C 157.628906 158.929688 157.734375 158.820312 157.867188 158.820312 L 166.890625 158.667969 C 166.941406 158.667969 166.992188 158.683594 167.035156 158.714844 L 171.175781 161.671875 L 177.109375 161.523438 C 177.246094 161.527344 177.355469 161.628906 177.355469 161.761719 C 177.359375 161.894531 177.253906 162.007812 177.121094 162.011719 L 171.109375 162.160156 C 171.105469 162.160156 171.105469 162.160156 171.101562 162.160156 " fill-opacity="1" fill-rule="nonzero"/><path fill="#8c52ff" d="M 163.585938 167.273438 C 163.582031 167.273438 163.578125 167.273438 163.578125 167.269531 L 157.863281 167.121094 C 157.730469 167.117188 157.625 167.007812 157.628906 166.871094 C 157.632812 166.738281 157.746094 166.628906 157.878906 166.636719 L 163.554688 166.785156 L 169.234375 165.292969 C 169.257812 165.285156 169.28125 165.28125 169.304688 165.285156 L 174.414062 165.433594 C 174.550781 165.4375 174.652344 165.550781 174.652344 165.683594 C 174.644531 165.816406 174.535156 165.929688 174.402344 165.917969 L 169.324219 165.769531 L 163.644531 167.261719 C 163.625 167.269531 163.605469 167.273438 163.585938 167.273438 " fill-opacity="1" fill-rule="nonzero"/><path fill="#8c52ff" d="M 122.242188 150.285156 C 122.167969 150.285156 122.097656 150.25 122.046875 150.183594 C 121.96875 150.078125 121.992188 149.925781 122.101562 149.847656 L 127.210938 146.085938 C 127.257812 146.054688 127.3125 146.039062 127.367188 146.039062 L 135.636719 146.492188 C 135.769531 146.5 135.871094 146.613281 135.867188 146.746094 C 135.859375 146.882812 135.746094 146.984375 135.609375 146.976562 L 127.429688 146.53125 L 122.386719 150.238281 C 122.34375 150.269531 122.292969 150.285156 122.242188 150.285156 " fill-opacity="1" fill-rule="nonzero"/><path fill="#8c52ff" d="M 126.753906 151.636719 C 126.625 151.636719 126.515625 151.535156 126.511719 151.402344 C 126.507812 151.269531 126.609375 151.15625 126.746094 151.152344 L 135.011719 150.851562 C 135.144531 150.839844 135.257812 150.953125 135.265625 151.085938 C 135.269531 151.21875 135.164062 151.332031 135.03125 151.335938 L 126.761719 151.636719 C 126.761719 151.636719 126.757812 151.636719 126.753906 151.636719 " fill-opacity="1" fill-rule="nonzero"/><path fill="#8c52ff" d="M 134.570312 156.449219 C 134.570312 156.449219 134.566406 156.449219 134.566406 156.449219 L 124.796875 156.296875 C 124.660156 156.296875 124.554688 156.183594 124.554688 156.050781 C 124.558594 155.917969 124.664062 155.804688 124.804688 155.8125 L 134.574219 155.960938 C 134.707031 155.964844 134.816406 156.074219 134.8125 156.210938 C 134.8125 156.339844 134.703125 156.449219 134.570312 156.449219 " fill-opacity="1" fill-rule="nonzero"/><path fill="#8c52ff" d="M 121.941406 165.015625 C 121.816406 165.015625 121.707031 164.917969 121.699219 164.785156 C 121.695312 164.652344 121.796875 164.539062 121.929688 164.53125 L 124.714844 164.386719 L 127.511719 162.324219 C 127.558594 162.289062 127.613281 162.273438 127.671875 162.277344 L 134.738281 162.726562 C 134.871094 162.738281 134.972656 162.851562 134.964844 162.984375 C 134.953125 163.117188 134.839844 163.21875 134.707031 163.210938 L 127.726562 162.765625 L 124.941406 164.820312 C 124.90625 164.847656 124.859375 164.863281 124.8125 164.867188 L 121.957031 165.015625 C 121.953125 165.015625 121.945312 165.015625 121.941406 165.015625 " fill-opacity="1" fill-rule="nonzero"/><path fill="#8c52ff" d="M 135.324219 168.472656 C 135.320312 168.472656 135.320312 168.472656 135.316406 168.472656 L 127.949219 168.324219 C 127.816406 168.320312 127.710938 168.210938 127.714844 168.074219 C 127.714844 167.945312 127.824219 167.839844 127.957031 167.839844 C 127.957031 167.839844 127.960938 167.839844 127.960938 167.839844 L 135.328125 167.988281 C 135.460938 167.992188 135.566406 168.101562 135.566406 168.234375 C 135.5625 168.367188 135.453125 168.472656 135.324219 168.472656 " fill-opacity="1" fill-rule="nonzero"/><path fill="#8c52ff" d="M 176.664062 143.519531 C 176.132812 143.519531 175.703125 143.949219 175.703125 144.480469 C 175.703125 145.007812 176.132812 145.441406 176.664062 145.441406 C 177.191406 145.441406 177.625 145.007812 177.625 144.480469 C 177.625 143.949219 177.191406 143.519531 176.664062 143.519531 Z M 176.664062 145.925781 C 175.867188 145.925781 175.21875 145.277344 175.21875 144.480469 C 175.21875 143.683594 175.867188 143.035156 176.664062 143.035156 C 177.460938 143.035156 178.109375 143.683594 178.109375 144.480469 C 178.109375 145.277344 177.460938 145.925781 176.664062 145.925781 " fill-opacity="1" fill-rule="nonzero"/><path fill="#8c52ff" d="M 175.0625 155.652344 C 174.53125 155.652344 174.101562 156.082031 174.101562 156.613281 C 174.101562 157.140625 174.53125 157.570312 175.0625 157.570312 C 175.59375 157.570312 176.023438 157.140625 176.023438 156.613281 C 176.023438 156.082031 175.59375 155.652344 175.0625 155.652344 Z M 175.0625 158.058594 C 174.265625 158.058594 173.617188 157.410156 173.617188 156.613281 C 173.617188 155.816406 174.265625 155.167969 175.0625 155.167969 C 175.859375 155.167969 176.507812 155.816406 176.507812 156.613281 C 176.507812 157.410156 175.859375 158.058594 175.0625 158.058594 " fill-opacity="1" fill-rule="nonzero"/><path fill="#8c52ff" d="M 170.351562 151.484375 C 169.820312 151.484375 169.390625 151.917969 169.390625 152.445312 C 169.390625 152.976562 169.820312 153.40625 170.351562 153.40625 C 170.878906 153.40625 171.3125 152.976562 171.3125 152.445312 C 171.3125 151.917969 170.878906 151.484375 170.351562 151.484375 Z M 170.351562 153.890625 C 169.554688 153.890625 168.90625 153.242188 168.90625 152.445312 C 168.90625 151.648438 169.554688 151 170.351562 151 C 171.144531 151 171.792969 151.648438 171.792969 152.445312 C 171.792969 153.242188 171.144531 153.890625 170.351562 153.890625 " fill-opacity="1" fill-rule="nonzero"/><path fill="#8c52ff" d="M 178.167969 160.808594 C 177.636719 160.808594 177.207031 161.238281 177.207031 161.765625 C 177.207031 162.296875 177.636719 162.726562 178.167969 162.726562 C 178.695312 162.726562 179.125 162.296875 179.125 161.765625 C 179.125 161.238281 178.695312 160.808594 178.167969 160.808594 Z M 178.167969 163.210938 C 177.371094 163.210938 176.722656 162.5625 176.722656 161.765625 C 176.722656 160.96875 177.371094 160.320312 178.167969 160.320312 C 178.964844 160.320312 179.613281 160.96875 179.613281 161.765625 C 179.613281 162.5625 178.964844 163.210938 178.167969 163.210938 " fill-opacity="1" fill-rule="nonzero"/><path fill="#8c52ff" d="M 175.460938 164.566406 C 174.929688 164.566406 174.5 164.996094 174.5 165.523438 C 174.5 166.054688 174.929688 166.484375 175.460938 166.484375 C 175.992188 166.484375 176.421875 166.054688 176.421875 165.523438 C 176.421875 164.996094 175.992188 164.566406 175.460938 164.566406 Z M 175.460938 166.96875 C 174.664062 166.96875 174.015625 166.324219 174.015625 165.523438 C 174.015625 164.726562 174.664062 164.082031 175.460938 164.082031 C 176.257812 164.082031 176.90625 164.726562 176.90625 165.523438 C 176.90625 166.324219 176.257812 166.96875 175.460938 166.96875 " fill-opacity="1" fill-rule="nonzero"/><path fill="#8c52ff" d="M 126.753906 167.121094 C 126.222656 167.121094 125.792969 167.550781 125.792969 168.082031 C 125.792969 168.609375 126.222656 169.042969 126.753906 169.042969 C 127.28125 169.042969 127.714844 168.609375 127.714844 168.082031 C 127.714844 167.550781 127.28125 167.121094 126.753906 167.121094 Z M 126.753906 169.527344 C 125.957031 169.527344 125.308594 168.878906 125.308594 168.082031 C 125.308594 167.285156 125.957031 166.636719 126.753906 166.636719 C 127.550781 166.636719 128.199219 167.285156 128.199219 168.082031 C 128.199219 168.878906 127.550781 169.527344 126.753906 169.527344 " fill-opacity="1" fill-rule="nonzero"/><path fill="#8c52ff" d="M 123.597656 154.945312 C 123.066406 154.945312 122.636719 155.375 122.636719 155.90625 C 122.636719 156.433594 123.066406 156.863281 123.597656 156.863281 C 124.125 156.863281 124.554688 156.433594 124.554688 155.90625 C 124.554688 155.375 124.125 154.945312 123.597656 154.945312 Z M 123.597656 157.351562 C 122.800781 157.351562 122.152344 156.703125 122.152344 155.90625 C 122.152344 155.105469 122.800781 154.460938 123.597656 154.460938 C 124.394531 154.460938 125.042969 155.105469 125.042969 155.90625 C 125.042969 156.703125 124.394531 157.351562 123.597656 157.351562 " fill-opacity="1" fill-rule="nonzero"/><path fill="#8c52ff" d="M 125.550781 150.585938 C 125.023438 150.585938 124.589844 151.015625 124.589844 151.546875 C 124.589844 152.074219 125.023438 152.503906 125.550781 152.503906 C 126.082031 152.503906 126.511719 152.074219 126.511719 151.546875 C 126.511719 151.015625 126.082031 150.585938 125.550781 150.585938 Z M 125.550781 152.988281 C 124.753906 152.988281 124.105469 152.339844 124.105469 151.546875 C 124.105469 150.75 124.753906 150.101562 125.550781 150.101562 C 126.347656 150.101562 126.996094 150.75 126.996094 151.546875 C 126.996094 152.339844 126.347656 152.988281 125.550781 152.988281 " fill-opacity="1" fill-rule="nonzero"/><path fill="#8c52ff" d="M 121.191406 149.832031 C 120.664062 149.832031 120.230469 150.261719 120.230469 150.792969 C 120.230469 151.324219 120.664062 151.753906 121.191406 151.753906 C 121.722656 151.753906 122.152344 151.324219 122.152344 150.792969 C 122.152344 150.261719 121.722656 149.832031 121.191406 149.832031 Z M 121.191406 152.238281 C 120.394531 152.238281 119.746094 151.589844 119.746094 150.792969 C 119.746094 149.996094 120.394531 149.347656 121.191406 149.347656 C 121.988281 149.347656 122.636719 149.996094 122.636719 150.792969 C 122.636719 151.589844 121.988281 152.238281 121.191406 152.238281 " fill-opacity="1" fill-rule="nonzero"/><path fill="#8c52ff" d="M 120.742188 163.664062 C 120.210938 163.664062 119.78125 164.09375 119.78125 164.625 C 119.78125 165.152344 120.210938 165.582031 120.742188 165.582031 C 121.269531 165.582031 121.699219 165.152344 121.699219 164.625 C 121.699219 164.09375 121.269531 163.664062 120.742188 163.664062 Z M 120.742188 166.070312 C 119.945312 166.070312 119.296875 165.421875 119.296875 164.625 C 119.296875 163.828125 119.945312 163.179688 120.742188 163.179688 C 121.539062 163.179688 122.1875 163.828125 122.1875 164.625 C 122.1875 165.421875 121.539062 166.070312 120.742188 166.070312 " fill-opacity="1" fill-rule="nonzero"/><path fill="#8c52ff" d="M 174.164062 157.015625 C 174.164062 157.015625 174.160156 157.015625 174.160156 157.015625 L 158.804688 156.691406 C 158.671875 156.691406 158.566406 156.578125 158.566406 156.445312 C 158.570312 156.3125 158.683594 156.210938 158.816406 156.207031 L 174.171875 156.53125 C 174.304688 156.535156 174.410156 156.644531 174.40625 156.777344 C 174.402344 156.910156 174.296875 157.015625 174.164062 157.015625 " fill-opacity="1" fill-rule="nonzero"/><path fill="#8c52ff" d="M 157.96875 170.160156 L 137.074219 170.160156 C 135.289062 170.160156 133.84375 168.714844 133.84375 166.929688 L 133.84375 146.515625 C 133.84375 144.730469 135.289062 143.285156 137.074219 143.285156 L 157.96875 143.285156 C 159.753906 143.285156 161.203125 144.730469 161.203125 146.515625 L 161.203125 166.929688 C 161.203125 168.714844 159.753906 170.160156 157.96875 170.160156 " fill-opacity="1" fill-rule="nonzero"/><path fill="#000000" d="M 137.074219 143.523438 C 135.425781 143.523438 134.085938 144.867188 134.085938 146.515625 L 134.085938 166.929688 C 134.085938 168.578125 135.425781 169.917969 137.074219 169.917969 L 157.96875 169.917969 C 159.617188 169.917969 160.960938 168.578125 160.960938 166.929688 L 160.960938 146.515625 C 160.960938 144.867188 159.617188 143.523438 157.96875 143.523438 Z M 157.96875 170.402344 L 137.074219 170.402344 C 135.160156 170.402344 133.597656 168.84375 133.597656 166.929688 L 133.597656 146.515625 C 133.597656 144.597656 135.160156 143.039062 137.074219 143.039062 L 157.96875 143.039062 C 159.886719 143.039062 161.445312 144.597656 161.445312 146.515625 L 161.445312 166.929688 C 161.445312 168.84375 159.886719 170.402344 157.96875 170.402344 " fill-opacity="1" fill-rule="nonzero"/><path fill="#d2c7ff" d="M 154.757812 167.1875 L 140.046875 167.1875 C 138.261719 167.1875 136.816406 165.742188 136.816406 163.953125 L 136.816406 149.90625 C 136.816406 148.121094 138.261719 146.671875 140.046875 146.671875 L 154.757812 146.671875 C 156.542969 146.671875 157.992188 148.121094 157.992188 149.90625 L 157.992188 163.953125 C 157.992188 165.742188 156.542969 167.1875 154.757812 167.1875 " fill-opacity="1" fill-rule="nonzero"/><path fill="#000000" d="M 140.046875 146.914062 C 138.398438 146.914062 137.058594 148.257812 137.058594 149.90625 L 137.058594 163.957031 C 137.058594 165.601562 138.398438 166.945312 140.046875 166.945312 L 154.757812 166.945312 C 156.40625 166.945312 157.75 165.601562 157.75 163.957031 L 157.75 149.90625 C 157.75 148.257812 156.40625 146.914062 154.757812 146.914062 Z M 154.757812 167.429688 L 140.046875 167.429688 C 138.132812 167.429688 136.574219 165.871094 136.574219 163.957031 L 136.574219 149.90625 C 136.574219 147.992188 138.132812 146.429688 140.046875 146.429688 L 154.757812 146.429688 C 156.671875 146.429688 158.234375 147.992188 158.234375 149.90625 L 158.234375 163.957031 C 158.234375 165.871094 156.671875 167.429688 154.757812 167.429688 " fill-opacity="1" fill-rule="nonzero"/><path fill="#ffffff" d="M 143.203125 158.441406 L 145.742188 158.441406 L 144.46875 154.34375 Z M 146.421875 160.640625 L 142.519531 160.640625 L 141.839844 162.847656 L 138.792969 162.847656 L 143.128906 151.03125 L 145.804688 151.03125 L 150.171875 162.847656 L 147.113281 162.847656 L 146.421875 160.640625 " fill-opacity="1" fill-rule="nonzero"/><path fill="#ffffff" d="M 154.066406 162.847656 L 151.226562 162.847656 L 151.226562 151.03125 L 154.066406 151.03125 L 154.066406 162.847656 " fill-opacity="1" fill-rule="nonzero"/><path fill="#8c52ff" d="M 134.019531 132.269531 C 132.574219 132.667969 131.082031 131.816406 130.6875 130.371094 C 130.292969 128.925781 131.144531 127.429688 132.585938 127.035156 C 134.03125 126.640625 135.523438 127.492188 135.917969 128.9375 C 136.316406 130.382812 135.464844 131.875 134.019531 132.269531 Z M 138.699219 128.722656 L 138.417969 127.703125 L 137.269531 127.757812 C 137.164062 127.535156 137.039062 127.320312 136.902344 127.121094 L 137.507812 126.148438 L 136.761719 125.40625 L 135.792969 126.027344 C 135.589844 125.886719 135.375 125.765625 135.15625 125.664062 L 135.195312 124.511719 L 134.175781 124.246094 L 133.648438 125.265625 C 133.40625 125.246094 133.160156 125.25 132.914062 125.269531 L 132.371094 124.253906 L 131.355469 124.53125 L 131.410156 125.683594 C 131.183594 125.789062 130.972656 125.914062 130.773438 126.050781 L 129.800781 125.445312 L 129.058594 126.191406 L 129.679688 127.164062 C 129.539062 127.367188 129.417969 127.578125 129.316406 127.800781 L 128.167969 127.761719 L 127.898438 128.78125 L 128.917969 129.308594 C 128.902344 129.550781 128.902344 129.796875 128.925781 130.042969 L 127.910156 130.585938 L 128.1875 131.601562 L 129.335938 131.550781 C 129.441406 131.773438 129.566406 131.984375 129.707031 132.183594 L 129.097656 133.160156 L 129.847656 133.898438 L 130.816406 133.28125 C 131.019531 133.417969 131.230469 133.539062 131.453125 133.644531 L 131.414062 134.792969 L 132.429688 135.0625 L 132.960938 134.039062 C 133.203125 134.058594 133.449219 134.058594 133.695312 134.035156 L 134.234375 135.050781 L 135.25 134.773438 L 135.199219 133.621094 C 135.421875 133.515625 135.632812 133.394531 135.832031 133.253906 L 136.808594 133.863281 L 137.546875 133.113281 L 136.925781 132.144531 C 137.066406 131.941406 137.1875 131.726562 137.292969 131.503906 L 138.441406 131.546875 L 138.707031 130.523438 L 137.6875 129.996094 C 137.707031 129.753906 137.703125 129.507812 137.683594 129.261719 L 138.699219 128.722656 " fill-opacity="1" fill-rule="nonzero"/><path fill="#ffffff" d="M 128.101562 86.953125 C 128.101562 90.792969 124.992188 93.90625 121.152344 93.90625 C 117.3125 93.90625 114.203125 90.792969 114.203125 86.953125 C 114.203125 83.117188 117.3125 80.003906 121.152344 80.003906 C 124.992188 80.003906 128.101562 83.117188 128.101562 86.953125 " fill-opacity="1" fill-rule="nonzero"/><path fill="#ffffff" d="M 119.054688 54.710938 C 101.007812 54.710938 86.324219 69.394531 86.324219 87.441406 C 86.324219 105.484375 101.007812 120.167969 119.054688 120.167969 C 137.097656 120.167969 151.78125 105.484375 151.78125 87.441406 C 151.78125 69.394531 137.097656 54.710938 119.054688 54.710938 Z M 119.054688 120.652344 C 100.738281 120.652344 85.839844 105.753906 85.839844 87.441406 C 85.839844 69.125 100.738281 54.226562 119.054688 54.226562 C 137.367188 54.226562 152.265625 69.125 152.265625 87.441406 C 152.265625 105.753906 137.367188 120.652344 119.054688 120.652344 " fill-opacity="1" fill-rule="nonzero"/><path fill="#ffffff" d="M 119.539062 64.246094 C 106.484375 64.246094 95.863281 74.867188 95.863281 87.921875 C 95.863281 100.976562 106.484375 111.597656 119.539062 111.597656 C 132.59375 111.597656 143.214844 100.976562 143.214844 87.921875 C 143.214844 74.867188 132.59375 64.246094 119.539062 64.246094 Z M 119.539062 112.082031 C 106.214844 112.082031 95.375 101.246094 95.375 87.921875 C 95.375 74.597656 106.214844 63.757812 119.539062 63.757812 C 132.863281 63.757812 143.699219 74.597656 143.699219 87.921875 C 143.699219 101.246094 132.863281 112.082031 119.539062 112.082031 " fill-opacity="1" fill-rule="nonzero"/><path fill="#ffffff" d="M 120.914062 75.074219 C 114.316406 75.074219 108.953125 80.4375 108.953125 87.03125 C 108.953125 93.628906 114.316406 98.992188 120.914062 98.992188 C 127.507812 98.992188 132.871094 93.628906 132.871094 87.03125 C 132.871094 80.4375 127.507812 75.074219 120.914062 75.074219 Z M 120.914062 99.476562 C 114.050781 99.476562 108.46875 93.894531 108.46875 87.03125 C 108.46875 80.171875 114.050781 74.589844 120.914062 74.589844 C 127.773438 74.589844 133.355469 80.171875 133.355469 87.03125 C 133.355469 93.894531 127.773438 99.476562 120.914062 99.476562 " fill-opacity="1" fill-rule="nonzero"/><path fill="#8c52ff" d="M 146.761719 80.503906 C 143.957031 77.730469 143.914062 73.191406 146.671875 70.367188 C 149.425781 67.542969 153.9375 67.503906 156.746094 70.273438 C 159.554688 73.046875 159.597656 77.585938 156.839844 80.410156 C 154.082031 83.234375 149.570312 83.273438 146.761719 80.503906 " fill-opacity="1" fill-rule="nonzero"/><path fill="#ffffff" d="M 156.582031 75.003906 L 151.742188 79.964844 C 151.484375 80.226562 151.066406 80.230469 150.804688 79.972656 L 147.402344 76.609375 C 147.140625 76.351562 147.136719 75.929688 147.394531 75.667969 L 152.234375 70.710938 C 152.488281 70.449219 152.910156 70.441406 153.171875 70.699219 L 156.574219 74.0625 C 156.835938 74.320312 156.839844 74.742188 156.582031 75.003906 " fill-opacity="1" fill-rule="nonzero"/><path fill="#000000" d="M 152.707031 70.753906 C 152.703125 70.753906 152.703125 70.753906 152.703125 70.753906 C 152.589844 70.753906 152.484375 70.800781 152.40625 70.878906 L 147.566406 75.839844 C 147.402344 76.003906 147.40625 76.273438 147.570312 76.4375 L 150.976562 79.800781 C 151.054688 79.878906 151.160156 79.921875 151.269531 79.921875 C 151.269531 79.921875 151.273438 79.921875 151.273438 79.921875 C 151.386719 79.917969 151.492188 79.875 151.570312 79.792969 L 156.410156 74.835938 C 156.574219 74.667969 156.570312 74.398438 156.402344 74.234375 L 153 70.875 C 152.921875 70.796875 152.816406 70.753906 152.707031 70.753906 Z M 151.269531 80.40625 C 151.03125 80.40625 150.804688 80.3125 150.636719 80.144531 L 147.230469 76.78125 C 146.875 76.433594 146.871094 75.855469 147.21875 75.5 L 152.058594 70.539062 C 152.230469 70.367188 152.457031 70.269531 152.699219 70.269531 C 152.699219 70.269531 152.703125 70.269531 152.707031 70.269531 C 152.945312 70.269531 153.167969 70.359375 153.339844 70.527344 L 156.746094 73.890625 C 157.097656 74.242188 157.105469 74.816406 156.757812 75.175781 L 151.917969 80.132812 C 151.746094 80.308594 151.519531 80.402344 151.277344 80.40625 C 151.273438 80.40625 151.273438 80.40625 151.269531 80.40625 " fill-opacity="1" fill-rule="nonzero"/><path fill="#000000" d="M 149.113281 76.421875 C 149.003906 76.421875 148.902344 76.347656 148.878906 76.230469 C 148.847656 76.101562 148.933594 75.972656 149.0625 75.945312 L 152.152344 75.269531 C 152.28125 75.238281 152.410156 75.324219 152.441406 75.453125 C 152.46875 75.585938 152.386719 75.714844 152.253906 75.742188 L 149.164062 76.417969 C 149.148438 76.421875 149.128906 76.421875 149.113281 76.421875 " fill-opacity="1" fill-rule="nonzero"/><path fill="#000000" d="M 152.214844 75.734375 C 152.199219 75.734375 152.183594 75.734375 152.167969 75.730469 C 152.039062 75.703125 151.953125 75.574219 151.980469 75.445312 L 152.59375 72.324219 C 152.621094 72.195312 152.746094 72.109375 152.878906 72.132812 C 153.011719 72.160156 153.09375 72.289062 153.070312 72.417969 L 152.453125 75.539062 C 152.429688 75.652344 152.328125 75.734375 152.214844 75.734375 " fill-opacity="1" fill-rule="nonzero"/><path fill="#ffffff" d="M 135.476562 64.949219 C 132.535156 62.355469 132.238281 57.859375 134.8125 54.898438 C 137.390625 51.9375 141.863281 51.640625 144.804688 54.230469 C 147.746094 56.820312 148.042969 61.320312 145.46875 64.277344 C 142.894531 67.238281 138.421875 67.539062 135.476562 64.949219 " fill-opacity="1" fill-rule="nonzero"/><path fill="#000000" d="M 140.152344 52.710938 C 139.996094 52.710938 139.84375 52.714844 139.691406 52.726562 C 137.867188 52.847656 136.199219 53.675781 134.996094 55.058594 C 132.511719 57.910156 132.800781 62.265625 135.636719 64.765625 C 137.011719 65.976562 138.769531 66.574219 140.589844 66.453125 C 142.414062 66.332031 144.082031 65.503906 145.285156 64.121094 C 147.769531 61.265625 147.480469 56.910156 144.644531 54.414062 C 143.386719 53.304688 141.804688 52.710938 140.152344 52.710938 Z M 140.128906 66.953125 C 138.355469 66.953125 136.664062 66.316406 135.316406 65.128906 C 132.28125 62.453125 131.972656 57.792969 134.628906 54.738281 C 135.917969 53.257812 137.707031 52.371094 139.65625 52.242188 C 141.609375 52.109375 143.492188 52.753906 144.964844 54.046875 C 148.003906 56.722656 148.3125 61.382812 145.652344 64.4375 C 144.363281 65.917969 142.578125 66.804688 140.625 66.9375 C 140.460938 66.949219 140.292969 66.953125 140.128906 66.953125 " fill-opacity="1" fill-rule="nonzero"/><path fill="#d2c7ff" d="M 144.199219 59.605469 L 142.71875 59.40625 C 142.523438 59.382812 142.226562 59.515625 142.027344 59.894531 C 141.835938 60.253906 141.53125 60.824219 139.890625 60.332031 C 138.253906 59.84375 138.246094 59.1875 138.34375 58.796875 C 138.359375 58.734375 138.410156 58.210938 138.027344 58 L 136.980469 57.5 C 136.136719 57.132812 135.9375 58.011719 135.925781 58.0625 C 135.578125 59.46875 137.082031 61.046875 139.46875 61.761719 C 141.859375 62.476562 143.972656 61.980469 144.449219 60.609375 C 144.464844 60.5625 144.722656 59.699219 144.199219 59.605469 " fill-opacity="1" fill-rule="nonzero"/><path fill="#000000" d="M 136.601562 57.652344 C 136.542969 57.652344 136.492188 57.664062 136.445312 57.6875 C 136.25 57.785156 136.175781 58.0625 136.160156 58.117188 C 135.847656 59.394531 137.296875 60.859375 139.539062 61.53125 C 141.777344 62.199219 143.789062 61.769531 144.21875 60.53125 C 144.265625 60.386719 144.324219 60.039062 144.242188 59.898438 C 144.226562 59.871094 144.207031 59.855469 144.160156 59.84375 L 142.6875 59.644531 C 142.59375 59.636719 142.390625 59.722656 142.238281 60.007812 C 141.9375 60.582031 141.4375 61.050781 139.820312 60.566406 C 138.464844 60.160156 137.90625 59.5625 138.105469 58.738281 C 138.105469 58.738281 138.152344 58.347656 137.910156 58.214844 L 136.875 57.71875 C 136.773438 57.675781 136.683594 57.652344 136.601562 57.652344 Z M 141.570312 62.332031 C 140.902344 62.332031 140.164062 62.222656 139.398438 61.996094 C 136.867188 61.238281 135.308594 59.5625 135.691406 58.003906 C 135.730469 57.839844 135.863281 57.4375 136.230469 57.253906 C 136.472656 57.132812 136.757812 57.140625 137.074219 57.277344 L 138.132812 57.785156 C 138.648438 58.066406 138.613281 58.710938 138.578125 58.855469 C 138.527344 59.066406 138.386719 59.628906 139.960938 60.101562 C 141.414062 60.535156 141.644531 60.101562 141.808594 59.785156 C 142.074219 59.28125 142.480469 59.136719 142.746094 59.164062 L 144.242188 59.367188 C 144.425781 59.398438 144.566406 59.5 144.660156 59.652344 C 144.894531 60.050781 144.679688 60.683594 144.675781 60.691406 C 144.3125 61.746094 143.121094 62.332031 141.570312 62.332031 " fill-opacity="1" fill-rule="nonzero"/><path fill="#ffffff" d="M 113.882812 61.078125 C 110.941406 58.484375 110.640625 53.988281 113.21875 51.027344 C 115.792969 48.070312 120.265625 47.769531 123.210938 50.359375 C 126.152344 52.949219 126.449219 57.449219 123.875 60.410156 C 121.296875 63.367188 116.824219 63.667969 113.882812 61.078125 " fill-opacity="1" fill-rule="nonzero"/><path fill="#8c52ff" d="M 112.265625 58.832031 L 115.980469 55.496094 C 116.285156 55.21875 116.75 55.226562 117.050781 55.511719 L 119.863281 58.1875 L 121.53125 56.773438 C 121.789062 56.554688 122.15625 56.523438 122.445312 56.695312 L 125.035156 58.238281 C 123.417969 62.980469 116.144531 64.8125 112.265625 58.832031 " fill-opacity="1" fill-rule="nonzero"/><path fill="#000000" d="M 118.554688 48.839844 C 118.402344 48.839844 118.25 48.84375 118.09375 48.855469 C 116.273438 48.976562 114.605469 49.804688 113.402344 51.1875 C 110.917969 54.039062 111.203125 58.398438 114.042969 60.894531 C 115.417969 62.105469 117.175781 62.703125 118.996094 62.582031 C 120.820312 62.460938 122.488281 61.632812 123.691406 60.25 C 126.175781 57.394531 125.886719 53.039062 123.050781 50.542969 C 121.792969 49.433594 120.210938 48.839844 118.554688 48.839844 Z M 118.535156 63.082031 C 116.761719 63.082031 115.070312 62.445312 113.722656 61.257812 C 110.683594 58.585938 110.375 53.921875 113.035156 50.867188 C 114.324219 49.386719 116.109375 48.5 118.0625 48.371094 C 120.011719 48.238281 121.898438 48.882812 123.371094 50.175781 C 126.40625 52.851562 126.714844 57.511719 124.058594 60.566406 C 122.765625 62.050781 120.980469 62.9375 119.03125 63.066406 C 118.863281 63.078125 118.699219 63.082031 118.535156 63.082031 " fill-opacity="1" fill-rule="nonzero"/><path fill="#d2c7ff" d="M 121.746094 53.929688 C 121.746094 54.554688 121.242188 55.0625 120.617188 55.0625 C 119.992188 55.0625 119.484375 54.554688 119.484375 53.929688 C 119.484375 53.304688 119.992188 52.796875 120.617188 52.796875 C 121.242188 52.796875 121.746094 53.304688 121.746094 53.929688 " fill-opacity="1" fill-rule="nonzero"/><path fill="#ffffff" d="M 137.914062 119.929688 C 134.972656 117.339844 134.671875 112.839844 137.25 109.882812 C 139.824219 106.921875 144.296875 106.621094 147.242188 109.214844 C 150.183594 111.804688 150.480469 116.304688 147.90625 119.261719 C 145.328125 122.222656 140.855469 122.523438 137.914062 119.929688 " fill-opacity="1" fill-rule="nonzero"/><path fill="#000000" d="M 142.585938 107.695312 C 142.433594 107.695312 142.28125 107.699219 142.125 107.710938 C 140.300781 107.832031 138.636719 108.660156 137.433594 110.042969 C 134.945312 112.894531 135.234375 117.25 138.074219 119.75 C 139.445312 120.957031 141.207031 121.558594 143.027344 121.4375 C 144.851562 121.316406 146.519531 120.488281 147.722656 119.105469 C 150.207031 116.25 149.917969 111.894531 147.078125 109.398438 C 145.820312 108.289062 144.242188 107.695312 142.585938 107.695312 Z M 142.566406 121.9375 C 140.792969 121.9375 139.097656 121.300781 137.753906 120.113281 C 134.714844 117.441406 134.40625 112.777344 137.066406 109.722656 C 138.355469 108.242188 140.140625 107.355469 142.09375 107.226562 C 144.042969 107.097656 145.929688 107.738281 147.398438 109.03125 C 150.4375 111.707031 150.746094 116.367188 148.085938 119.421875 C 146.796875 120.902344 145.011719 121.789062 143.058594 121.921875 C 142.894531 121.929688 142.730469 121.9375 142.566406 121.9375 " fill-opacity="1" fill-rule="nonzero"/><path fill="#8c52ff" d="M 146.308594 113.167969 C 146.308594 114.917969 143.519531 119.117188 142.851562 120.101562 C 142.785156 120.203125 142.636719 120.203125 142.566406 120.101562 C 142.089844 119.398438 140.523438 117.042969 139.675781 115.121094 C 139.335938 114.359375 139.113281 113.664062 139.113281 113.167969 C 139.113281 111.183594 140.722656 109.574219 142.710938 109.574219 C 144.695312 109.574219 146.308594 111.183594 146.308594 113.167969 " fill-opacity="1" fill-rule="nonzero"/><path fill="#ffffff" d="M 144.355469 113.171875 C 144.355469 114.078125 143.617188 114.8125 142.710938 114.8125 C 141.800781 114.8125 141.066406 114.078125 141.066406 113.171875 C 141.066406 112.261719 141.800781 111.523438 142.710938 111.523438 C 143.617188 111.523438 144.355469 112.261719 144.355469 113.171875 " fill-opacity="1" fill-rule="nonzero"/><path fill="#000000" d="M 143.027344 114.867188 C 142.609375 114.867188 142.210938 114.730469 141.875 114.46875 C 141.476562 114.160156 141.222656 113.714844 141.160156 113.214844 C 141.144531 113.082031 141.238281 112.960938 141.371094 112.945312 C 141.503906 112.929688 141.625 113.023438 141.640625 113.15625 C 141.6875 113.527344 141.875 113.859375 142.171875 114.085938 C 142.46875 114.316406 142.835938 114.417969 143.207031 114.371094 C 143.578125 114.324219 143.910156 114.136719 144.140625 113.839844 C 144.371094 113.542969 144.46875 113.175781 144.421875 112.804688 C 144.375 112.433594 144.1875 112.101562 143.890625 111.871094 C 143.65625 111.6875 143.375 111.589844 143.082031 111.578125 C 142.945312 111.574219 142.839844 111.460938 142.84375 111.328125 C 142.851562 111.195312 142.964844 111.089844 143.09375 111.09375 C 143.492188 111.105469 143.871094 111.242188 144.1875 111.488281 C 144.585938 111.796875 144.839844 112.242188 144.902344 112.742188 C 144.96875 113.242188 144.832031 113.738281 144.523438 114.136719 C 144.214844 114.535156 143.769531 114.789062 143.265625 114.851562 C 143.1875 114.863281 143.109375 114.867188 143.027344 114.867188 " fill-opacity="1" fill-rule="nonzero"/><path fill="#ffffff" d="M 149.417969 101.238281 C 146.476562 98.648438 146.179688 94.148438 148.753906 91.191406 C 151.332031 88.230469 155.804688 87.933594 158.746094 90.523438 C 161.6875 93.113281 161.984375 97.613281 159.410156 100.570312 C 156.835938 103.53125 152.359375 103.828125 149.417969 101.238281 " fill-opacity="1" fill-rule="nonzero"/><path fill="#000000" d="M 154.09375 89 C 153.9375 89 153.785156 89.007812 153.632812 89.015625 C 151.808594 89.136719 150.140625 89.964844 148.9375 91.347656 C 146.453125 94.203125 146.742188 98.558594 149.578125 101.058594 C 150.953125 102.265625 152.714844 102.867188 154.535156 102.746094 C 156.359375 102.625 158.023438 101.792969 159.226562 100.414062 C 161.710938 97.558594 161.425781 93.203125 158.585938 90.703125 C 157.328125 89.597656 155.746094 89 154.09375 89 Z M 154.074219 103.246094 C 152.300781 103.246094 150.605469 102.605469 149.257812 101.421875 C 146.222656 98.746094 145.914062 94.085938 148.570312 91.03125 C 149.859375 89.550781 151.648438 88.664062 153.601562 88.53125 C 155.550781 88.402344 157.433594 89.042969 158.90625 90.339844 C 161.945312 93.015625 162.253906 97.675781 159.59375 100.730469 C 158.304688 102.210938 156.519531 103.097656 154.566406 103.226562 C 154.402344 103.238281 154.234375 103.246094 154.074219 103.246094 " fill-opacity="1" fill-rule="nonzero"/><path fill="#d2c7ff" d="M 151.679688 99.363281 L 150.152344 99.363281 L 150.152344 92.675781 L 151.679688 92.675781 L 151.679688 99.363281 " fill-opacity="1" fill-rule="nonzero"/><path fill="#d2c7ff" d="M 153.789062 99.246094 L 152.265625 99.246094 L 152.265625 94.398438 L 153.789062 94.398438 L 153.789062 99.246094 " fill-opacity="1" fill-rule="nonzero"/><path fill="#d2c7ff" d="M 155.902344 99.128906 L 154.375 99.128906 L 154.375 95.84375 L 155.902344 95.84375 L 155.902344 99.128906 " fill-opacity="1" fill-rule="nonzero"/><path fill="#d2c7ff" d="M 158.128906 99.128906 L 156.605469 99.128906 L 156.605469 92.519531 L 158.128906 92.519531 L 158.128906 99.128906 " fill-opacity="1" fill-rule="nonzero"/><path fill="#ffffff" d="M 162.183594 77.476562 C 162.097656 77.476562 162.011719 77.429688 161.96875 77.347656 C 161.910156 77.238281 161.847656 77.132812 161.792969 77.03125 C 161.722656 76.917969 161.761719 76.769531 161.878906 76.699219 C 161.996094 76.632812 162.144531 76.671875 162.210938 76.789062 C 162.269531 76.890625 162.332031 77 162.394531 77.117188 C 162.460938 77.234375 162.417969 77.382812 162.296875 77.445312 C 162.261719 77.464844 162.222656 77.476562 162.183594 77.476562 Z M 163.710938 81.039062 C 163.609375 81.039062 163.515625 80.976562 163.480469 80.875 C 163.261719 80.246094 163.03125 79.640625 162.792969 79.078125 C 162.742188 78.957031 162.796875 78.8125 162.921875 78.761719 C 163.042969 78.710938 163.1875 78.765625 163.238281 78.890625 C 163.480469 79.460938 163.714844 80.074219 163.9375 80.714844 C 163.980469 80.84375 163.914062 80.980469 163.789062 81.023438 C 163.761719 81.035156 163.734375 81.039062 163.710938 81.039062 Z M 164.789062 84.761719 C 164.675781 84.761719 164.578125 84.6875 164.550781 84.578125 C 164.402344 83.945312 164.234375 83.316406 164.0625 82.710938 C 164.023438 82.582031 164.097656 82.449219 164.226562 82.410156 C 164.355469 82.375 164.492188 82.449219 164.527344 82.578125 C 164.703125 83.1875 164.871094 83.824219 165.023438 84.464844 C 165.054688 84.59375 164.972656 84.726562 164.84375 84.757812 C 164.824219 84.761719 164.804688 84.761719 164.789062 84.761719 Z M 165.519531 88.570312 C 165.402344 88.570312 165.296875 88.484375 165.28125 88.363281 C 165.183594 87.726562 165.074219 87.085938 164.957031 86.460938 C 164.929688 86.332031 165.015625 86.203125 165.148438 86.179688 C 165.28125 86.152344 165.40625 86.238281 165.433594 86.371094 C 165.554688 87 165.664062 87.644531 165.761719 88.292969 C 165.78125 88.425781 165.6875 88.546875 165.554688 88.566406 C 165.542969 88.570312 165.53125 88.570312 165.519531 88.570312 Z M 165.941406 92.425781 C 165.816406 92.425781 165.707031 92.328125 165.699219 92.199219 C 165.65625 91.558594 165.597656 90.910156 165.527344 90.277344 C 165.511719 90.144531 165.609375 90.027344 165.742188 90.011719 C 165.875 89.996094 165.996094 90.09375 166.007812 90.226562 C 166.078125 90.867188 166.136719 91.519531 166.183594 92.167969 C 166.195312 92.300781 166.09375 92.417969 165.957031 92.425781 C 165.953125 92.425781 165.945312 92.425781 165.941406 92.425781 Z M 166.070312 96.300781 C 165.9375 96.300781 165.828125 96.191406 165.828125 96.058594 L 165.828125 95.894531 C 165.828125 95.304688 165.820312 94.710938 165.800781 94.128906 C 165.796875 93.996094 165.898438 93.882812 166.035156 93.878906 C 166.164062 93.867188 166.28125 93.980469 166.285156 94.113281 C 166.304688 94.703125 166.3125 95.300781 166.3125 95.894531 L 166.3125 96.058594 C 166.3125 96.195312 166.207031 96.300781 166.070312 96.300781 Z M 165.921875 100.179688 C 165.917969 100.179688 165.910156 100.175781 165.90625 100.175781 C 165.769531 100.167969 165.671875 100.050781 165.679688 99.917969 C 165.726562 99.277344 165.765625 98.628906 165.789062 97.988281 C 165.792969 97.855469 165.90625 97.753906 166.039062 97.757812 C 166.175781 97.761719 166.277344 97.875 166.273438 98.007812 C 166.25 98.652344 166.210938 99.308594 166.164062 99.953125 C 166.15625 100.078125 166.046875 100.179688 165.921875 100.179688 Z M 165.507812 104.03125 C 165.496094 104.03125 165.484375 104.03125 165.472656 104.03125 C 165.339844 104.011719 165.25 103.890625 165.265625 103.757812 C 165.355469 103.121094 165.4375 102.476562 165.507812 101.839844 C 165.519531 101.707031 165.640625 101.609375 165.773438 101.625 C 165.90625 101.640625 166.003906 101.761719 165.988281 101.890625 C 165.917969 102.535156 165.835938 103.183594 165.746094 103.824219 C 165.730469 103.945312 165.625 104.03125 165.507812 104.03125 Z M 164.835938 107.851562 C 164.820312 107.851562 164.800781 107.851562 164.785156 107.847656 C 164.65625 107.820312 164.570312 107.691406 164.597656 107.558594 C 164.644531 107.351562 164.6875 107.140625 164.730469 106.925781 C 164.8125 106.507812 164.890625 106.082031 164.964844 105.664062 C 164.988281 105.53125 165.113281 105.445312 165.246094 105.46875 C 165.375 105.492188 165.464844 105.617188 165.441406 105.746094 C 165.367188 106.167969 165.289062 106.597656 165.203125 107.019531 C 165.160156 107.234375 165.117188 107.449219 165.074219 107.660156 C 165.050781 107.773438 164.949219 107.851562 164.835938 107.851562 Z M 163.882812 111.609375 C 163.859375 111.609375 163.835938 111.605469 163.8125 111.601562 C 163.683594 111.5625 163.609375 111.425781 163.648438 111.296875 C 163.832031 110.691406 164.003906 110.0625 164.164062 109.4375 C 164.195312 109.308594 164.328125 109.230469 164.457031 109.265625 C 164.585938 109.296875 164.664062 109.429688 164.632812 109.558594 C 164.472656 110.191406 164.300781 110.820312 164.113281 111.4375 C 164.082031 111.542969 163.988281 111.609375 163.882812 111.609375 Z M 162.609375 115.269531 C 162.578125 115.269531 162.546875 115.265625 162.515625 115.253906 C 162.394531 115.203125 162.332031 115.0625 162.382812 114.9375 C 162.617188 114.347656 162.84375 113.742188 163.058594 113.132812 C 163.101562 113.007812 163.238281 112.9375 163.367188 112.984375 C 163.492188 113.027344 163.558594 113.164062 163.515625 113.292969 C 163.300781 113.90625 163.070312 114.523438 162.832031 115.117188 C 162.792969 115.214844 162.703125 115.269531 162.609375 115.269531 Z M 160.992188 118.792969 C 160.953125 118.792969 160.917969 118.785156 160.882812 118.765625 C 160.761719 118.703125 160.714844 118.558594 160.777344 118.4375 C 161.070312 117.875 161.355469 117.292969 161.625 116.707031 C 161.679688 116.585938 161.824219 116.535156 161.945312 116.589844 C 162.066406 116.644531 162.121094 116.789062 162.0625 116.910156 C 161.792969 117.503906 161.503906 118.089844 161.207031 118.664062 C 161.164062 118.746094 161.082031 118.792969 160.992188 118.792969 Z M 159.03125 122.132812 C 158.988281 122.132812 158.941406 122.117188 158.898438 122.089844 C 158.785156 122.019531 158.757812 121.867188 158.828125 121.753906 C 159.179688 121.226562 159.523438 120.675781 159.847656 120.125 C 159.914062 120.007812 160.0625 119.96875 160.179688 120.039062 C 160.292969 120.105469 160.332031 120.253906 160.265625 120.371094 C 159.9375 120.929688 159.589844 121.484375 159.234375 122.023438 C 159.1875 122.09375 159.109375 122.132812 159.03125 122.132812 Z M 156.726562 125.242188 C 156.671875 125.242188 156.617188 125.226562 156.574219 125.1875 C 156.46875 125.101562 156.453125 124.949219 156.539062 124.847656 C 156.949219 124.355469 157.347656 123.84375 157.726562 123.332031 C 157.804688 123.222656 157.957031 123.199219 158.066406 123.28125 C 158.175781 123.359375 158.195312 123.511719 158.117188 123.621094 C 157.730469 124.140625 157.328125 124.65625 156.914062 125.15625 C 156.867188 125.214844 156.796875 125.242188 156.726562 125.242188 Z M 154.09375 128.089844 C 154.03125 128.089844 153.96875 128.066406 153.921875 128.019531 C 153.828125 127.921875 153.828125 127.769531 153.925781 127.675781 C 154.386719 127.230469 154.839844 126.765625 155.273438 126.296875 C 155.363281 126.199219 155.515625 126.191406 155.613281 126.28125 C 155.714844 126.375 155.71875 126.527344 155.628906 126.625 C 155.1875 127.101562 154.730469 127.570312 154.261719 128.023438 C 154.214844 128.070312 154.15625 128.089844 154.09375 128.089844 Z M 151.175781 130.636719 C 151.101562 130.636719 151.03125 130.605469 150.984375 130.546875 C 150.902344 130.441406 150.917969 130.289062 151.023438 130.207031 C 151.527344 129.808594 152.027344 129.398438 152.507812 128.980469 C 152.609375 128.890625 152.761719 128.902344 152.851562 129.003906 C 152.9375 129.101562 152.925781 129.257812 152.828125 129.34375 C 152.339844 129.769531 151.832031 130.1875 151.324219 130.585938 C 151.277344 130.621094 151.226562 130.636719 151.175781 130.636719 Z M 148.007812 132.871094 C 147.925781 132.871094 147.847656 132.832031 147.800781 132.757812 C 147.730469 132.644531 147.765625 132.496094 147.875 132.421875 C 148.417969 132.082031 148.957031 131.71875 149.480469 131.351562 C 149.589844 131.277344 149.738281 131.300781 149.816406 131.414062 C 149.894531 131.523438 149.867188 131.671875 149.757812 131.75 C 149.230469 132.121094 148.683594 132.484375 148.136719 132.832031 C 148.09375 132.859375 148.050781 132.871094 148.007812 132.871094 Z M 144.636719 134.785156 C 144.550781 134.785156 144.464844 134.738281 144.421875 134.65625 C 144.359375 134.535156 144.410156 134.390625 144.527344 134.328125 C 145.101562 134.035156 145.671875 133.730469 146.222656 133.414062 C 146.339844 133.347656 146.488281 133.390625 146.554688 133.503906 C 146.621094 133.621094 146.582031 133.769531 146.464844 133.835938 C 145.90625 134.152344 145.328125 134.464844 144.75 134.761719 C 144.710938 134.777344 144.675781 134.785156 144.636719 134.785156 Z M 141.113281 136.398438 C 141.015625 136.398438 140.925781 136.339844 140.886719 136.246094 C 140.839844 136.121094 140.898438 135.980469 141.019531 135.929688 C 141.617188 135.6875 142.214844 135.429688 142.792969 135.167969 C 142.914062 135.109375 143.058594 135.164062 143.113281 135.285156 C 143.167969 135.40625 143.113281 135.550781 142.992188 135.605469 C 142.410156 135.875 141.808594 136.132812 141.203125 136.378906 C 141.175781 136.390625 141.144531 136.398438 141.113281 136.398438 Z M 137.46875 137.71875 C 137.367188 137.71875 137.269531 137.65625 137.238281 137.550781 C 137.199219 137.425781 137.265625 137.289062 137.394531 137.246094 C 138.007812 137.050781 138.621094 136.839844 139.222656 136.621094 C 139.347656 136.578125 139.484375 136.644531 139.53125 136.769531 C 139.578125 136.894531 139.511719 137.035156 139.386719 137.078125 C 138.78125 137.296875 138.160156 137.507812 137.542969 137.707031 C 137.519531 137.714844 137.496094 137.71875 137.46875 137.71875 Z M 133.738281 138.777344 C 133.628906 138.777344 133.53125 138.703125 133.503906 138.59375 C 133.472656 138.460938 133.550781 138.332031 133.683594 138.300781 C 134.308594 138.144531 134.9375 137.976562 135.546875 137.804688 C 135.675781 137.769531 135.808594 137.84375 135.847656 137.972656 C 135.882812 138.101562 135.808594 138.234375 135.679688 138.269531 C 135.066406 138.445312 134.429688 138.613281 133.796875 138.769531 C 133.777344 138.773438 133.757812 138.777344 133.738281 138.777344 Z M 129.949219 139.59375 C 129.835938 139.59375 129.734375 139.511719 129.710938 139.394531 C 129.6875 139.261719 129.773438 139.136719 129.90625 139.113281 C 130.539062 138.996094 131.179688 138.867188 131.800781 138.734375 C 131.929688 138.707031 132.058594 138.789062 132.085938 138.917969 C 132.117188 139.050781 132.03125 139.179688 131.902344 139.207031 C 131.277344 139.34375 130.632812 139.46875 129.992188 139.589844 C 129.976562 139.589844 129.964844 139.59375 129.949219 139.59375 Z M 126.117188 140.1875 C 125.996094 140.1875 125.894531 140.101562 125.878906 139.976562 C 125.859375 139.84375 125.953125 139.722656 126.085938 139.707031 C 126.730469 139.621094 127.375 139.53125 128 139.433594 C 128.132812 139.414062 128.257812 139.503906 128.277344 139.636719 C 128.296875 139.769531 128.207031 139.894531 128.074219 139.914062 C 127.445312 140.011719 126.796875 140.105469 126.148438 140.1875 C 126.140625 140.1875 126.128906 140.1875 126.117188 140.1875 " fill-opacity="1" fill-rule="nonzero"/><path fill="#ffffff" d="M 77.824219 172.292969 C 75.804688 172.847656 73.71875 171.65625 73.164062 169.632812 C 72.613281 167.613281 73.800781 165.527344 75.820312 164.972656 C 77.839844 164.417969 79.929688 165.609375 80.480469 167.632812 C 81.035156 169.652344 79.84375 171.738281 77.824219 172.292969 Z M 84.367188 167.328125 L 83.980469 165.90625 L 82.371094 165.980469 C 82.222656 165.667969 82.050781 165.371094 81.855469 165.09375 L 82.707031 163.730469 L 81.660156 162.691406 L 80.304688 163.558594 C 80.019531 163.367188 79.722656 163.195312 79.414062 163.050781 L 79.46875 161.441406 L 78.042969 161.070312 L 77.304688 162.496094 C 76.964844 162.46875 76.621094 162.472656 76.277344 162.503906 L 75.519531 161.082031 L 74.101562 161.472656 L 74.171875 163.082031 C 73.859375 163.230469 73.5625 163.402344 73.285156 163.597656 L 71.921875 162.746094 L 70.886719 163.792969 L 71.753906 165.152344 C 71.5625 165.433594 71.390625 165.730469 71.246094 166.042969 L 69.636719 165.984375 L 69.265625 167.414062 L 70.691406 168.152344 C 70.664062 168.492188 70.667969 168.832031 70.699219 169.179688 L 69.277344 169.933594 L 69.667969 171.355469 L 71.273438 171.285156 C 71.425781 171.597656 71.597656 171.894531 71.792969 172.171875 L 70.941406 173.535156 L 71.988281 174.574219 L 73.34375 173.703125 C 73.625 173.898438 73.921875 174.070312 74.234375 174.214844 L 74.179688 175.824219 L 75.605469 176.195312 L 76.34375 174.769531 C 76.679688 174.796875 77.023438 174.792969 77.371094 174.761719 L 78.125 176.183594 L 79.546875 175.792969 L 79.472656 174.183594 C 79.785156 174.035156 80.082031 173.863281 80.359375 173.667969 L 81.722656 174.519531 L 82.757812 173.472656 L 81.890625 172.113281 C 82.085938 171.832031 82.253906 171.535156 82.398438 171.222656 L 84.007812 171.277344 L 84.382812 169.851562 L 82.953125 169.113281 C 82.980469 168.773438 82.980469 168.429688 82.949219 168.085938 L 84.367188 167.328125 " fill-opacity="1" fill-rule="nonzero"/><path fill="#000000" d="M 96.0625 56.644531 C 95.671875 56.644531 95.296875 56.515625 94.992188 56.269531 C 94.632812 55.980469 94.410156 55.570312 94.359375 55.117188 C 94.257812 54.175781 94.9375 53.324219 95.878906 53.222656 C 96.011719 53.207031 96.132812 53.304688 96.144531 53.4375 C 96.160156 53.570312 96.066406 53.691406 95.929688 53.703125 C 95.257812 53.777344 94.765625 54.386719 94.839844 55.0625 C 94.875 55.390625 95.039062 55.683594 95.292969 55.890625 C 95.550781 56.09375 95.871094 56.191406 96.199219 56.152344 C 96.875 56.078125 97.363281 55.46875 97.289062 54.796875 C 97.273438 54.660156 97.371094 54.542969 97.503906 54.527344 C 97.636719 54.511719 97.757812 54.609375 97.773438 54.742188 C 97.875 55.683594 97.191406 56.53125 96.25 56.636719 C 96.1875 56.640625 96.125 56.644531 96.0625 56.644531 " fill-opacity="1" fill-rule="nonzero"/><path fill="#000000" d="M 64.4375 162.378906 C 64.273438 162.378906 64.109375 162.410156 63.953125 162.472656 C 63.636719 162.601562 63.390625 162.847656 63.261719 163.160156 C 63.128906 163.476562 63.128906 163.824219 63.257812 164.136719 C 63.386719 164.453125 63.632812 164.699219 63.945312 164.828125 C 64.261719 164.960938 64.605469 164.960938 64.921875 164.832031 C 65.238281 164.699219 65.480469 164.457031 65.613281 164.144531 C 65.882812 163.496094 65.574219 162.746094 64.925781 162.476562 C 64.769531 162.410156 64.601562 162.378906 64.4375 162.378906 Z M 64.4375 165.414062 C 64.207031 165.414062 63.976562 165.367188 63.761719 165.277344 C 63.324219 165.09375 62.988281 164.757812 62.808594 164.320312 C 62.632812 163.886719 62.632812 163.410156 62.8125 162.976562 C 62.992188 162.542969 63.332031 162.203125 63.765625 162.027344 C 64.203125 161.847656 64.679688 161.847656 65.113281 162.027344 C 66.007812 162.402344 66.433594 163.433594 66.0625 164.328125 C 65.878906 164.761719 65.542969 165.101562 65.105469 165.28125 C 64.890625 165.367188 64.664062 165.414062 64.4375 165.414062 " fill-opacity="1" fill-rule="nonzero"/><path fill="#ffffff" d="M 93.570312 173.109375 L 92.394531 177.425781 L 95.664062 177.972656 L 96.757812 174.15625 L 93.570312 173.109375 " fill-opacity="1" fill-rule="nonzero"/><path fill="#000000" d="M 92.699219 177.230469 L 95.492188 177.695312 L 96.460938 174.3125 L 93.734375 173.417969 Z M 95.664062 178.214844 C 95.652344 178.214844 95.640625 178.210938 95.625 178.210938 L 92.355469 177.664062 C 92.285156 177.652344 92.226562 177.613281 92.1875 177.558594 C 92.152344 177.5 92.140625 177.429688 92.160156 177.363281 L 93.335938 173.042969 C 93.351562 172.980469 93.394531 172.925781 93.453125 172.894531 C 93.511719 172.863281 93.582031 172.855469 93.644531 172.878906 L 96.832031 173.925781 C 96.957031 173.964844 97.027344 174.09375 96.988281 174.21875 L 95.898438 178.039062 C 95.867188 178.144531 95.773438 178.214844 95.664062 178.214844 " fill-opacity="1" fill-rule="nonzero"/><path fill="#ffffff" d="M 112.765625 172.40625 L 112.5625 176.984375 L 116.121094 176.789062 L 117.128906 171.953125 L 112.765625 172.40625 " fill-opacity="1" fill-rule="nonzero"/><path fill="#000000" d="M 112.996094 172.625 L 112.816406 176.726562 L 115.921875 176.558594 L 116.820312 172.230469 Z M 112.5625 177.226562 C 112.496094 177.226562 112.4375 177.203125 112.390625 177.15625 C 112.34375 177.109375 112.316406 177.042969 112.320312 176.972656 L 112.523438 172.394531 C 112.527344 172.273438 112.621094 172.175781 112.738281 172.164062 L 117.101562 171.714844 C 117.179688 171.707031 117.253906 171.734375 117.308594 171.792969 C 117.359375 171.847656 117.378906 171.929688 117.363281 172.003906 L 116.359375 176.839844 C 116.335938 176.945312 116.242188 177.027344 116.132812 177.03125 L 112.574219 177.226562 C 112.570312 177.226562 112.566406 177.226562 112.5625 177.226562 " fill-opacity="1" fill-rule="nonzero"/><path fill="#8c52ff" d="M 99.878906 125.449219 C 99.878906 125.449219 98.023438 130.082031 97.664062 134.832031 C 97.308594 139.582031 92.894531 170.851562 92.460938 173.777344 C 92.460938 173.777344 95.324219 175.195312 97.210938 174.890625 C 97.210938 174.890625 106.753906 155.800781 108.484375 139.992188 C 110.214844 124.183594 109.707031 125.449219 109.707031 125.449219 L 99.878906 125.449219 " fill-opacity="1" fill-rule="nonzero"/><path fill="#8c52ff" d="M 103.148438 127.226562 C 103.148438 127.226562 102.554688 135.789062 105.527344 141.839844 C 108.5 147.894531 112.511719 167.761719 111.835938 173.859375 C 111.835938 173.859375 115.597656 174.851562 117.378906 174.15625 C 117.378906 174.15625 122.765625 143.78125 115.875 127.105469 L 103.148438 127.226562 " fill-opacity="1" fill-rule="nonzero"/><path fill="#ffffff" d="M 92.03125 176.699219 L 91.550781 179.257812 C 91.382812 180.144531 91.867188 181.03125 92.710938 181.351562 C 93.875 181.800781 95.652344 182.304688 97.664062 182.261719 C 99.488281 182.222656 101.019531 182.144531 102.074219 182.078125 C 102.636719 182.042969 102.851562 181.335938 102.410156 180.992188 L 96.394531 176.335938 L 95.03125 177.425781 L 92.03125 176.699219 " fill-opacity="1" fill-rule="nonzero"/><path fill="#000000" d="M 92.222656 176.996094 L 91.789062 179.300781 C 91.640625 180.078125 92.066406 180.847656 92.796875 181.128906 C 93.917969 181.558594 95.675781 182.0625 97.660156 182.019531 C 99.53125 181.980469 101.085938 181.898438 102.0625 181.835938 C 102.292969 181.820312 102.367188 181.636719 102.386719 181.582031 C 102.402344 181.523438 102.445312 181.328125 102.261719 181.183594 L 96.394531 176.644531 L 95.179688 177.617188 C 95.121094 177.664062 95.046875 177.679688 94.972656 177.664062 Z M 97.425781 182.503906 C 95.460938 182.503906 93.742188 182.007812 92.625 181.582031 C 91.675781 181.214844 91.121094 180.21875 91.3125 179.210938 L 91.792969 176.652344 C 91.804688 176.589844 91.84375 176.53125 91.898438 176.496094 C 91.953125 176.460938 92.023438 176.449219 92.085938 176.464844 L 94.972656 177.164062 L 96.242188 176.144531 C 96.328125 176.078125 96.453125 176.074219 96.542969 176.144531 L 102.554688 180.800781 C 102.839844 181.019531 102.953125 181.378906 102.851562 181.722656 C 102.746094 182.0625 102.445312 182.296875 102.089844 182.320312 C 101.113281 182.382812 99.550781 182.464844 97.671875 182.503906 C 97.585938 182.503906 97.507812 182.503906 97.425781 182.503906 " fill-opacity="1" fill-rule="nonzero"/><path fill="#000000" d="M 97.082031 179.542969 C 97.042969 179.542969 97.003906 179.535156 96.96875 179.515625 C 96.851562 179.453125 96.804688 179.308594 96.867188 179.1875 L 97.652344 177.675781 C 97.714844 177.558594 97.859375 177.511719 97.980469 177.574219 C 98.097656 177.636719 98.144531 177.78125 98.082031 177.902344 L 97.296875 179.410156 C 97.253906 179.496094 97.167969 179.542969 97.082031 179.542969 " fill-opacity="1" fill-rule="nonzero"/><path fill="#000000" d="M 98.5625 180.203125 C 98.527344 180.203125 98.492188 180.199219 98.457031 180.179688 C 98.335938 180.121094 98.285156 179.976562 98.34375 179.855469 L 99.03125 178.441406 C 99.085938 178.320312 99.234375 178.269531 99.351562 178.328125 C 99.472656 178.382812 99.523438 178.53125 99.464844 178.648438 L 98.78125 180.066406 C 98.738281 180.15625 98.652344 180.203125 98.5625 180.203125 " fill-opacity="1" fill-rule="nonzero"/><path fill="#ffffff" d="M 112.34375 176.011719 C 112.34375 176.011719 112.15625 177.609375 112.203125 179.203125 C 112.222656 179.890625 112.761719 180.453125 113.449219 180.511719 C 115.382812 180.679688 119.296875 180.882812 122.988281 180.292969 C 123.382812 180.230469 123.566406 179.757812 123.3125 179.449219 C 122.554688 178.527344 120.695312 176.855469 116.453125 175.402344 L 115.207031 176.335938 C 115.207031 176.335938 114.136719 175.605469 112.34375 176.011719 " fill-opacity="1" fill-rule="nonzero"/><path fill="#000000" d="M 112.566406 176.210938 C 112.519531 176.664062 112.40625 177.941406 112.445312 179.195312 C 112.460938 179.757812 112.902344 180.222656 113.46875 180.269531 C 115.445312 180.441406 119.304688 180.636719 122.949219 180.054688 C 123.050781 180.039062 123.132812 179.972656 123.167969 179.875 C 123.183594 179.832031 123.214844 179.714844 123.125 179.605469 C 122.425781 178.75 120.636719 177.113281 116.496094 175.675781 L 115.351562 176.53125 C 115.265625 176.589844 115.152344 176.59375 115.070312 176.535156 C 115.058594 176.53125 114.121094 175.917969 112.566406 176.210938 Z M 117.519531 180.929688 C 115.859375 180.929688 114.414062 180.835938 113.425781 180.753906 C 112.617188 180.683594 111.984375 180.019531 111.960938 179.210938 C 111.914062 177.617188 112.101562 175.996094 112.101562 175.980469 C 112.113281 175.878906 112.1875 175.796875 112.289062 175.773438 C 113.792969 175.433594 114.816406 175.851562 115.1875 176.046875 L 116.308594 175.210938 C 116.375 175.160156 116.457031 175.148438 116.53125 175.175781 C 120.871094 176.660156 122.761719 178.394531 123.5 179.296875 C 123.671875 179.507812 123.71875 179.789062 123.621094 180.046875 C 123.523438 180.308594 123.300781 180.488281 123.027344 180.53125 C 121.152344 180.832031 119.222656 180.929688 117.519531 180.929688 " fill-opacity="1" fill-rule="nonzero"/><path fill="#000000" d="M 117.128906 178.503906 C 117.070312 178.503906 117.011719 178.484375 116.964844 178.441406 C 116.867188 178.355469 116.855469 178.199219 116.945312 178.101562 L 118.632812 176.175781 C 118.722656 176.074219 118.875 176.066406 118.976562 176.152344 C 119.074219 176.242188 119.085938 176.394531 118.996094 176.496094 L 117.308594 178.421875 C 117.261719 178.476562 117.195312 178.503906 117.128906 178.503906 " fill-opacity="1" fill-rule="nonzero"/><path fill="#000000" d="M 118.761719 178.789062 C 118.707031 178.789062 118.652344 178.773438 118.609375 178.734375 C 118.503906 178.652344 118.488281 178.5 118.574219 178.394531 L 119.816406 176.871094 C 119.898438 176.765625 120.054688 176.75 120.15625 176.835938 C 120.261719 176.917969 120.277344 177.070312 120.191406 177.175781 L 118.949219 178.699219 C 118.902344 178.757812 118.832031 178.789062 118.761719 178.789062 " fill-opacity="1" fill-rule="nonzero"/><path fill="#000000" d="M 107.046875 146.054688 C 106.945312 146.054688 106.851562 145.992188 106.816406 145.890625 C 106.8125 145.871094 106.195312 144.089844 104.714844 140.992188 C 103.210938 137.835938 102.871094 133.902344 102.859375 133.738281 C 102.847656 133.601562 102.945312 133.488281 103.078125 133.476562 C 103.214844 133.46875 103.328125 133.5625 103.339844 133.699219 C 103.34375 133.738281 103.683594 137.707031 105.152344 140.78125 C 106.648438 143.910156 107.269531 145.714844 107.277344 145.734375 C 107.320312 145.859375 107.253906 146 107.125 146.042969 C 107.101562 146.050781 107.074219 146.054688 107.046875 146.054688 " fill-opacity="1" fill-rule="nonzero"/><path fill="#ffffff" d="M 104.753906 101.609375 L 105.625 96.832031 L 109.519531 97.832031 L 108.980469 101.160156 L 104.753906 101.609375 " fill-opacity="1" fill-rule="nonzero"/><path fill="#000000" d="M 105.816406 97.128906 L 105.050781 101.335938 L 108.769531 100.9375 L 109.242188 98.011719 Z M 104.753906 101.851562 C 104.6875 101.851562 104.621094 101.824219 104.574219 101.773438 C 104.523438 101.71875 104.5 101.640625 104.515625 101.566406 L 105.386719 96.785156 C 105.398438 96.722656 105.4375 96.664062 105.492188 96.625 C 105.550781 96.589844 105.621094 96.578125 105.683594 96.597656 L 109.578125 97.597656 C 109.699219 97.628906 109.777344 97.746094 109.757812 97.871094 L 109.21875 101.199219 C 109.203125 101.304688 109.117188 101.390625 109.007812 101.402344 L 104.777344 101.851562 C 104.769531 101.851562 104.761719 101.851562 104.753906 101.851562 " fill-opacity="1" fill-rule="nonzero"/><path fill="#000000" d="M 108.832031 90.394531 C 107.441406 90.582031 107.25 92.152344 105.589844 92.339844 C 104.824219 92.421875 104.441406 92.140625 103.769531 92.464844 C 103.320312 92.679688 102.671875 93.195312 102.605469 93.882812 C 102.519531 94.753906 103.476562 94.941406 104.453125 96.621094 C 105.136719 97.796875 105.179688 98.585938 105.722656 98.671875 C 106.277344 98.757812 106.523438 97.996094 107.132812 98.046875 C 107.917969 98.109375 108.023438 99.425781 108.855469 99.816406 C 109.378906 100.066406 110.476562 100.015625 112.03125 98.851562 C 112.28125 98.664062 112.363281 98.324219 112.222656 98.042969 C 112.042969 97.679688 111.8125 97.226562 111.558594 96.8125 C 110.34375 94.832031 109.484375 94.5 109.65625 93.890625 C 109.914062 92.960938 111.621094 93.132812 111.75 92.386719 C 111.886719 91.609375 110.261719 90.199219 108.832031 90.394531 " fill-opacity="1" fill-rule="nonzero"/><path fill="#ffffff" d="M 106.574219 94.4375 L 106.941406 94.242188 C 106.941406 94.242188 108.144531 96.75 108.613281 97.390625 C 109.082031 98.035156 111.183594 96.730469 111.183594 96.730469 L 111.234375 96.265625 L 111.484375 96.105469 C 111.5625 96.050781 111.613281 95.96875 111.621094 95.878906 C 111.632812 95.785156 111.597656 95.691406 111.53125 95.628906 C 111.027344 95.125 109.953125 93.988281 109.429688 92.878906 C 109.429688 92.878906 107.664062 92.773438 106.574219 94.4375 " fill-opacity="1" fill-rule="nonzero"/><path fill="#000000" d="M 106.394531 94.597656 C 106.382812 94.539062 106.363281 94.4375 106.390625 94.332031 C 106.402344 94.277344 106.425781 94.230469 106.449219 94.191406 C 106.457031 94.171875 106.472656 94.152344 106.480469 94.140625 L 106.5 94.117188 C 106.542969 94.058594 106.585938 93.996094 106.636719 93.9375 C 106.730469 93.820312 106.835938 93.710938 106.945312 93.605469 C 107.167969 93.398438 107.414062 93.214844 107.683594 93.070312 C 107.949219 92.921875 108.234375 92.816406 108.527344 92.742188 C 108.675781 92.707031 108.824219 92.679688 108.976562 92.660156 C 109.128906 92.640625 109.269531 92.628906 109.445312 92.636719 C 109.535156 92.640625 109.613281 92.695312 109.648438 92.773438 C 109.789062 93.085938 109.96875 93.386719 110.160156 93.683594 C 110.351562 93.976562 110.5625 94.261719 110.785156 94.539062 C 111.007812 94.816406 111.242188 95.085938 111.492188 95.339844 L 111.585938 95.4375 L 111.65625 95.507812 C 111.667969 95.519531 111.679688 95.535156 111.691406 95.546875 C 111.777344 95.660156 111.8125 95.808594 111.785156 95.945312 C 111.769531 96.011719 111.742188 96.078125 111.703125 96.140625 C 111.683594 96.167969 111.664062 96.199219 111.636719 96.222656 C 111.625 96.238281 111.609375 96.25 111.59375 96.261719 L 111.566406 96.285156 C 111.5 96.347656 111.433594 96.410156 111.363281 96.464844 L 111.46875 96.292969 C 111.460938 96.449219 111.4375 96.601562 111.425781 96.757812 C 111.417969 96.832031 111.375 96.898438 111.3125 96.9375 C 110.839844 97.222656 110.363281 97.472656 109.835938 97.664062 C 109.566406 97.753906 109.296875 97.84375 108.953125 97.824219 C 108.867188 97.816406 108.773438 97.800781 108.679688 97.761719 C 108.585938 97.722656 108.488281 97.65625 108.421875 97.566406 C 108.320312 97.433594 108.257812 97.324219 108.183594 97.203125 C 107.90625 96.734375 107.664062 96.261719 107.417969 95.789062 C 107.175781 95.3125 106.949219 94.832031 106.71875 94.351562 L 107.058594 94.464844 C 106.960938 94.515625 106.839844 94.5625 106.714844 94.582031 C 106.589844 94.601562 106.480469 94.597656 106.394531 94.597656 Z M 106.753906 94.273438 C 106.789062 94.210938 106.804688 94.140625 106.800781 94.097656 C 106.800781 94.054688 106.800781 94.039062 106.828125 94.023438 C 106.949219 93.960938 107.097656 94.003906 107.160156 94.125 L 107.164062 94.128906 L 107.167969 94.136719 C 107.398438 94.609375 107.640625 95.082031 107.878906 95.550781 C 108.121094 96.023438 108.367188 96.492188 108.628906 96.9375 C 108.695312 97.042969 108.769531 97.160156 108.828125 97.242188 C 108.847656 97.269531 108.902344 97.296875 108.996094 97.308594 C 109.1875 97.324219 109.4375 97.261719 109.667969 97.183594 C 110.140625 97.023438 110.613281 96.78125 111.050781 96.523438 L 110.9375 96.703125 C 110.957031 96.546875 110.96875 96.394531 110.996094 96.242188 L 111.003906 96.210938 C 111.011719 96.148438 111.050781 96.097656 111.101562 96.066406 C 111.183594 96.023438 111.265625 95.988281 111.351562 95.953125 C 111.359375 95.949219 111.375 95.941406 111.378906 95.941406 C 111.386719 95.941406 111.390625 95.9375 111.394531 95.9375 C 111.402344 95.933594 111.410156 95.929688 111.417969 95.921875 C 111.433594 95.910156 111.445312 95.894531 111.449219 95.875 C 111.460938 95.835938 111.449219 95.792969 111.421875 95.761719 L 111.242188 95.582031 C 110.988281 95.324219 110.738281 95.058594 110.492188 94.789062 C 110.007812 94.242188 109.550781 93.660156 109.210938 92.980469 L 109.414062 93.121094 C 109.304688 93.117188 109.164062 93.128906 109.039062 93.144531 C 108.90625 93.164062 108.78125 93.191406 108.652344 93.222656 C 108.398438 93.289062 108.152344 93.390625 107.921875 93.511719 C 107.691406 93.636719 107.480469 93.792969 107.289062 93.96875 C 107.191406 94.058594 107.097656 94.152344 107.015625 94.253906 C 106.972656 94.304688 106.933594 94.355469 106.890625 94.40625 L 106.875 94.429688 C 106.875 94.429688 106.878906 94.421875 106.878906 94.417969 C 106.882812 94.410156 106.882812 94.390625 106.875 94.367188 C 106.863281 94.320312 106.804688 94.273438 106.753906 94.273438 " fill-opacity="1" fill-rule="nonzero"/><path fill="#ffffff" d="M 107.363281 96.269531 C 107.363281 96.269531 106.398438 95.089844 105.953125 95.640625 C 105.507812 96.195312 106.605469 97.46875 107.363281 96.269531 " fill-opacity="1" fill-rule="nonzero"/><path fill="#ffffff" d="M 91.0625 132.355469 C 91.0625 132.355469 91.363281 135.328125 90.847656 136.40625 C 90.328125 137.480469 86.957031 139.535156 86.957031 139.535156 C 86.957031 139.535156 85.9375 138.882812 86.957031 138.046875 C 87.980469 137.214844 88.394531 136.519531 88.394531 136.519531 C 88.394531 136.519531 88.183594 133.355469 88.640625 132.699219 C 89.101562 132.042969 91.0625 132.355469 91.0625 132.355469 " fill-opacity="1" fill-rule="nonzero"/><path fill="#000000" d="M 90.089844 132.523438 C 89.53125 132.523438 89.003906 132.605469 88.839844 132.839844 C 88.542969 133.265625 88.554688 135.3125 88.636719 136.503906 C 88.636719 136.550781 88.625 136.601562 88.601562 136.644531 C 88.582031 136.671875 88.15625 137.382812 87.113281 138.234375 C 86.859375 138.441406 86.738281 138.640625 86.746094 138.828125 C 86.757812 139 86.882812 139.148438 86.976562 139.238281 C 87.988281 138.609375 90.246094 137.085938 90.628906 136.300781 C 91 135.527344 90.917969 133.5 90.839844 132.570312 C 90.605469 132.542969 90.34375 132.523438 90.089844 132.523438 Z M 86.957031 139.777344 C 86.914062 139.777344 86.867188 139.761719 86.828125 139.738281 C 86.804688 139.722656 86.296875 139.390625 86.265625 138.855469 C 86.242188 138.503906 86.425781 138.167969 86.804688 137.859375 C 87.609375 137.203125 88.023438 136.636719 88.144531 136.453125 C 88.101562 135.765625 87.980469 133.222656 88.441406 132.5625 C 88.972656 131.800781 90.886719 132.082031 91.101562 132.117188 C 91.210938 132.132812 91.292969 132.222656 91.304688 132.332031 C 91.316406 132.457031 91.605469 135.386719 91.066406 136.507812 C 90.53125 137.617188 87.4375 139.527344 87.085938 139.742188 C 87.046875 139.765625 87.003906 139.777344 86.957031 139.777344 " fill-opacity="1" fill-rule="nonzero"/><path fill="#ffffff" d="M 128.554688 91.492188 L 128.316406 89.917969 C 128.25 89.472656 128.335938 89.019531 128.554688 88.628906 L 130.972656 84.34375 C 130.972656 84.34375 131.703125 84.664062 131.171875 85.777344 L 130.421875 87.203125 C 130.421875 87.203125 131.667969 87.8125 131.808594 88.867188 C 132.039062 90.585938 130.148438 91.828125 130.148438 91.828125 L 128.554688 91.492188 " fill-opacity="1" fill-rule="nonzero"/><path fill="#000000" d="M 128.769531 91.289062 L 130.09375 91.570312 C 130.4375 91.316406 131.75 90.253906 131.566406 88.898438 C 131.445312 87.988281 130.328125 87.425781 130.316406 87.421875 C 130.257812 87.390625 130.210938 87.339844 130.191406 87.277344 C 130.171875 87.214844 130.175781 87.148438 130.207031 87.089844 L 130.957031 85.664062 C 131.117188 85.328125 131.164062 85.03125 131.082031 84.816406 C 131.070312 84.78125 131.054688 84.75 131.035156 84.722656 L 128.765625 88.75 C 128.570312 89.089844 128.496094 89.492188 128.558594 89.882812 Z M 130.148438 92.070312 C 130.132812 92.070312 130.113281 92.070312 130.097656 92.066406 L 128.503906 91.730469 C 128.40625 91.710938 128.328125 91.628906 128.3125 91.527344 L 128.078125 89.953125 C 128.003906 89.460938 128.097656 88.945312 128.34375 88.511719 L 130.761719 84.226562 C 130.820312 84.117188 130.953125 84.074219 131.070312 84.125 C 131.101562 84.136719 131.398438 84.277344 131.539062 84.648438 C 131.667969 84.992188 131.617188 85.40625 131.390625 85.882812 L 130.746094 87.109375 C 131.136719 87.351562 131.929688 87.941406 132.046875 88.835938 C 132.296875 90.683594 130.363281 91.976562 130.28125 92.03125 C 130.242188 92.058594 130.195312 92.070312 130.148438 92.070312 " fill-opacity="1" fill-rule="nonzero"/><path fill="#000000" d="M 87.964844 132.867188 L 91.863281 132.867188 C 91.863281 132.867188 92.707031 119.019531 100.140625 114.535156 L 99.574219 103.398438 C 99.574219 103.398438 83.988281 112.066406 87.964844 132.867188 " fill-opacity="1" fill-rule="nonzero"/><path fill="#ffffff" d="M 100.238281 117.558594 L 97.324219 131.40625 C 97.324219 131.40625 109.191406 133.441406 113.328125 132.699219 C 117.460938 131.957031 117.945312 130.867188 117.945312 130.867188 L 116.199219 115.636719 L 100.238281 117.558594 " fill-opacity="1" fill-rule="nonzero"/><path fill="#000000" d="M 97.613281 131.210938 C 99.339844 131.496094 109.566406 133.128906 113.285156 132.460938 C 116.675781 131.851562 117.53125 131.011719 117.695312 130.804688 L 115.984375 115.90625 L 100.4375 117.78125 Z M 110.914062 133.105469 C 105.863281 133.105469 97.691406 131.714844 97.28125 131.644531 C 97.21875 131.636719 97.160156 131.597656 97.121094 131.542969 C 97.085938 131.488281 97.070312 131.421875 97.085938 131.359375 L 100 117.507812 C 100.019531 117.410156 100.105469 117.332031 100.207031 117.320312 L 116.167969 115.394531 C 116.230469 115.386719 116.296875 115.40625 116.347656 115.445312 C 116.398438 115.484375 116.429688 115.546875 116.4375 115.609375 L 118.1875 130.839844 C 118.191406 130.882812 118.183594 130.925781 118.167969 130.964844 C 118.113281 131.089844 117.511719 132.195312 113.367188 132.9375 C 112.710938 133.058594 111.867188 133.105469 110.914062 133.105469 " fill-opacity="1" fill-rule="nonzero"/><path fill="#000000" d="M 105.558594 101.515625 L 99.574219 103.398438 L 96.984375 123.222656 C 96.859375 124.167969 97.40625 125.078125 98.300781 125.40625 C 101.167969 126.464844 107.945312 128.328125 117.296875 126.882812 C 118.277344 126.734375 119.003906 125.902344 119.027344 124.914062 C 119.109375 121.589844 119.171875 114.128906 118.234375 109.84375 C 118.234375 109.84375 131.429688 109.832031 130.667969 91.996094 L 127.90625 91.242188 C 127.90625 91.242188 123.265625 101.726562 115.257812 101.320312 C 115.257812 101.320312 109.894531 100.152344 105.558594 101.515625 " fill-opacity="1" fill-rule="nonzero"/><path fill="#ffffff" d="M 110.671875 100.355469 C 110.671875 100.355469 105.484375 99.863281 101.363281 100.675781 C 98.917969 101.160156 94.277344 102.964844 97.820312 106.601562 C 101.359375 110.242188 103.796875 109.894531 104.960938 107.859375 C 106.128906 105.824219 108.210938 101.113281 110.671875 100.355469 " fill-opacity="1" fill-rule="nonzero"/><path fill="#000000" d="M 107.03125 100.453125 C 105.316406 100.453125 103.25 100.550781 101.40625 100.914062 C 99.582031 101.277344 97.296875 102.199219 96.855469 103.621094 C 96.597656 104.445312 96.980469 105.394531 97.992188 106.433594 C 99.859375 108.355469 101.550781 109.28125 102.878906 109.113281 C 103.65625 109.015625 104.285156 108.550781 104.75 107.738281 C 104.949219 107.398438 105.175781 106.96875 105.417969 106.511719 C 106.464844 104.539062 107.980469 101.691406 109.753906 100.53125 C 109.101562 100.492188 108.140625 100.453125 107.03125 100.453125 Z M 102.574219 109.617188 C 101.15625 109.617188 99.460938 108.640625 97.644531 106.773438 C 96.5 105.59375 96.078125 104.484375 96.390625 103.476562 C 97.042969 101.382812 100.605469 100.578125 101.3125 100.441406 C 105.425781 99.625 110.644531 100.109375 110.695312 100.113281 C 110.808594 100.125 110.902344 100.214844 110.914062 100.332031 C 110.925781 100.445312 110.855469 100.554688 110.742188 100.585938 C 108.796875 101.1875 107.019531 104.53125 105.847656 106.742188 C 105.601562 107.199219 105.371094 107.632812 105.171875 107.980469 C 104.632812 108.917969 103.863281 109.476562 102.941406 109.59375 C 102.820312 109.609375 102.695312 109.617188 102.574219 109.617188 " fill-opacity="1" fill-rule="nonzero"/><path fill="#000000" d="M 106.464844 101.828125 Z M 106.464844 101.828125 Z M 106.464844 101.828125 Z M 99.878906 104.941406 C 98.992188 104.941406 98.195312 104.65625 97.484375 104.089844 C 97.378906 104.007812 97.363281 103.855469 97.445312 103.75 C 97.53125 103.644531 97.683594 103.628906 97.789062 103.710938 C 99.410156 105.003906 101.484375 104.640625 104.308594 102.574219 C 105.585938 101.640625 106.382812 101.242188 106.683594 101.394531 C 106.800781 101.453125 106.851562 101.597656 106.789062 101.71875 C 106.738281 101.820312 106.625 101.871094 106.519531 101.847656 C 106.457031 101.851562 106.019531 101.921875 104.597656 102.964844 C 102.792969 104.285156 101.230469 104.941406 99.878906 104.941406 " fill-opacity="1" fill-rule="nonzero"/></svg>