<svg xmlns="http://www.w3.org/2000/svg" xmlns:xlink="http://www.w3.org/1999/xlink" width="500" zoomAndPan="magnify" viewBox="0 0 375 374.999991" height="500" preserveAspectRatio="xMidYMid meet" version="1.0"><defs><clipPath id="7818276455"><path d="M 46.96875 0 L 375 0 L 375 328.03125 L 46.96875 328.03125 Z M 46.96875 0 " clip-rule="nonzero"/></clipPath><clipPath id="48952eb8b3"><path d="M 375 -328.03125 C 193.832031 -328.03125 46.96875 -181.167969 46.96875 0 C 46.96875 181.167969 193.832031 328.03125 375 328.03125 C 556.167969 328.03125 703.03125 181.167969 703.03125 0 C 703.03125 -181.167969 556.167969 -328.03125 375 -328.03125 Z M 375 -328.03125 " clip-rule="nonzero"/></clipPath><clipPath id="855e67677b"><path d="M 152 47 L 327.96875 47 L 327.96875 223 L 152 223 Z M 152 47 " clip-rule="nonzero"/></clipPath><clipPath id="2cf1dec7dd"><path d="M 158 52 L 327.96875 52 L 327.96875 199 L 158 199 Z M 158 52 " clip-rule="nonzero"/></clipPath></defs><rect x="-37.5" width="450" fill="#ffffff" y="-37.499999" height="449.999989" fill-opacity="1"/><rect x="-37.5" width="450" fill="#ffffff" y="-37.499999" height="449.999989" fill-opacity="1"/><g clip-path="url(#7818276455)"><g clip-path="url(#48952eb8b3)"><path fill="#d2c7ff" d="M 46.96875 -328.03125 L 703.03125 -328.03125 L 703.03125 328.03125 L 46.96875 328.03125 Z M 46.96875 -328.03125 " fill-opacity="1" fill-rule="nonzero"/></g></g><g clip-path="url(#855e67677b)"><path fill="#f1eaff" d="M 160.375 102.160156 C 156.59375 110.542969 150.992188 126.585938 153.242188 146.542969 C 156.128906 172.144531 170.425781 192.332031 184.335938 203.675781 C 230.480469 241.3125 314.960938 216.996094 326.148438 181.542969 C 328.175781 175.109375 327.605469 168.90625 326.902344 161.273438 C 324.671875 136.992188 312.90625 129.777344 304.996094 103.996094 C 297.796875 80.535156 304.894531 77.894531 298.164062 67.464844 C 283.558594 44.839844 241.402344 43.699219 212.394531 54.546875 C 201.253906 58.710938 174.21875 71.492188 160.375 102.160156 " fill-opacity="1" fill-rule="nonzero"/></g><path fill="#ffffff" d="M 228.785156 117.941406 C 228.753906 117.941406 228.71875 117.9375 228.6875 117.925781 C 227.890625 117.675781 227.078125 117.4375 226.273438 117.21875 C 226.105469 117.171875 226.007812 116.996094 226.050781 116.828125 C 226.097656 116.660156 226.273438 116.5625 226.441406 116.609375 C 227.253906 116.832031 228.074219 117.070312 228.878906 117.324219 C 229.042969 117.375 229.136719 117.554688 229.085938 117.71875 C 229.042969 117.855469 228.917969 117.941406 228.785156 117.941406 Z M 233.550781 119.628906 C 233.511719 119.628906 233.472656 119.621094 233.433594 119.605469 C 232.65625 119.300781 231.863281 119.003906 231.074219 118.722656 C 230.910156 118.664062 230.824219 118.484375 230.882812 118.320312 C 230.941406 118.15625 231.121094 118.070312 231.289062 118.128906 C 232.082031 118.410156 232.882812 118.710938 233.667969 119.019531 C 233.828125 119.082031 233.90625 119.265625 233.84375 119.429688 C 233.796875 119.554688 233.675781 119.628906 233.550781 119.628906 Z M 238.179688 121.660156 C 238.136719 121.660156 238.089844 121.648438 238.042969 121.628906 C 237.289062 121.265625 236.519531 120.910156 235.757812 120.574219 C 235.597656 120.503906 235.523438 120.320312 235.59375 120.160156 C 235.664062 120 235.851562 119.925781 236.011719 119.996094 C 236.78125 120.335938 237.558594 120.691406 238.320312 121.058594 C 238.476562 121.132812 238.542969 121.324219 238.464844 121.480469 C 238.410156 121.59375 238.296875 121.660156 238.179688 121.660156 Z M 242.652344 124.019531 C 242.597656 124.019531 242.542969 124.007812 242.496094 123.976562 C 241.769531 123.5625 241.027344 123.152344 240.289062 122.761719 C 240.136719 122.679688 240.078125 122.488281 240.15625 122.335938 C 240.238281 122.179688 240.429688 122.121094 240.585938 122.203125 C 241.328125 122.597656 242.078125 123.007812 242.808594 123.429688 C 242.960938 123.515625 243.011719 123.710938 242.925781 123.863281 C 242.867188 123.964844 242.761719 124.019531 242.652344 124.019531 Z M 246.941406 126.699219 C 246.878906 126.699219 246.816406 126.679688 246.765625 126.644531 C 246.074219 126.179688 245.363281 125.714844 244.652344 125.273438 C 244.503906 125.179688 244.460938 124.984375 244.550781 124.835938 C 244.644531 124.6875 244.839844 124.644531 244.988281 124.738281 C 245.703125 125.183594 246.421875 125.648438 247.117188 126.121094 C 247.261719 126.21875 247.300781 126.414062 247.203125 126.558594 C 247.140625 126.648438 247.042969 126.699219 246.941406 126.699219 Z M 251.023438 129.679688 C 250.957031 129.679688 250.886719 129.65625 250.828125 129.613281 C 250.171875 129.097656 249.5 128.585938 248.824219 128.089844 C 248.683594 127.988281 248.652344 127.792969 248.753906 127.648438 C 248.855469 127.507812 249.054688 127.476562 249.195312 127.582031 C 249.878906 128.078125 250.558594 128.59375 251.21875 129.117188 C 251.359375 129.222656 251.382812 129.421875 251.273438 129.558594 C 251.210938 129.640625 251.117188 129.679688 251.023438 129.679688 Z M 254.882812 132.945312 C 254.808594 132.945312 254.734375 132.921875 254.671875 132.863281 C 254.050781 132.300781 253.417969 131.742188 252.777344 131.203125 C 252.648438 131.089844 252.628906 130.890625 252.742188 130.757812 C 252.855469 130.625 253.054688 130.609375 253.1875 130.722656 C 253.832031 131.265625 254.472656 131.828125 255.097656 132.398438 C 255.226562 132.515625 255.234375 132.714844 255.117188 132.84375 C 255.054688 132.914062 254.96875 132.945312 254.882812 132.945312 Z M 258.5 136.484375 C 258.414062 136.484375 258.332031 136.449219 258.269531 136.382812 C 257.695312 135.78125 257.101562 135.175781 256.503906 134.59375 C 256.378906 134.472656 256.375 134.269531 256.496094 134.144531 C 256.621094 134.019531 256.820312 134.019531 256.945312 134.140625 C 257.546875 134.730469 258.148438 135.339844 258.726562 135.949219 C 258.847656 136.074219 258.84375 136.273438 258.71875 136.394531 C 258.65625 136.453125 258.578125 136.484375 258.5 136.484375 " fill-opacity="1" fill-rule="nonzero"/><path fill="#d2c7ff" d="M 256.304688 74.84375 C 253.300781 73.625 251.851562 70.199219 253.066406 67.195312 C 254.285156 64.1875 257.707031 62.738281 260.714844 63.957031 C 263.71875 65.175781 265.164062 68.597656 263.949219 71.605469 C 262.730469 74.609375 259.308594 76.058594 256.304688 74.84375 Z M 269.011719 74.886719 L 269.867188 72.773438 L 267.824219 71.355469 C 267.933594 70.828125 268 70.300781 268.019531 69.777344 L 270.347656 68.898438 L 270.03125 66.640625 L 267.550781 66.433594 C 267.386719 65.929688 267.179688 65.4375 266.933594 64.96875 L 268.511719 63.042969 L 267.109375 61.242188 L 264.859375 62.304688 C 264.46875 61.953125 264.042969 61.632812 263.589844 61.347656 L 263.996094 58.890625 L 261.882812 58.035156 L 260.460938 60.082031 C 259.9375 59.96875 259.410156 59.902344 258.882812 59.882812 L 258.007812 57.554688 L 255.75 57.867188 L 255.542969 60.351562 C 255.039062 60.519531 254.550781 60.722656 254.082031 60.972656 L 252.152344 59.390625 L 250.355469 60.792969 L 251.417969 63.042969 C 251.066406 63.4375 250.746094 63.859375 250.460938 64.316406 L 248.003906 63.910156 L 247.148438 66.023438 L 249.195312 67.445312 C 249.082031 67.96875 249.015625 68.5 248.996094 69.023438 L 246.667969 69.898438 L 246.980469 72.160156 L 249.464844 72.367188 C 249.628906 72.871094 249.835938 73.359375 250.082031 73.828125 L 248.503906 75.753906 L 249.90625 77.554688 L 252.15625 76.492188 C 252.546875 76.84375 252.972656 77.164062 253.425781 77.449219 L 253.019531 79.90625 L 255.136719 80.765625 L 256.554688 78.71875 C 257.078125 78.828125 257.605469 78.894531 258.132812 78.917969 L 259.007812 81.246094 L 261.265625 80.929688 L 261.472656 78.445312 C 261.976562 78.28125 262.464844 78.074219 262.933594 77.828125 L 264.859375 79.40625 L 266.660156 78.003906 L 265.597656 75.753906 C 265.949219 75.363281 266.269531 74.9375 266.554688 74.484375 L 269.011719 74.886719 " fill-opacity="1" fill-rule="nonzero"/><path fill="#d2c7ff" d="M 290.070312 78.839844 C 284.929688 76.753906 282.449219 70.894531 284.53125 65.75 C 286.617188 60.605469 292.472656 58.125 297.613281 60.210938 C 302.757812 62.296875 305.234375 68.15625 303.152344 73.300781 C 301.066406 78.441406 295.210938 80.921875 290.070312 78.839844 Z M 311.816406 78.917969 L 313.28125 75.300781 L 309.78125 72.867188 C 309.972656 71.96875 310.085938 71.066406 310.121094 70.167969 L 314.101562 68.667969 L 313.5625 64.800781 L 309.316406 64.445312 C 309.035156 63.585938 308.679688 62.75 308.257812 61.945312 L 310.960938 58.648438 L 308.5625 55.570312 L 304.710938 57.382812 C 304.042969 56.785156 303.316406 56.238281 302.539062 55.75 L 303.230469 51.542969 L 299.613281 50.074219 L 297.183594 53.578125 C 296.285156 53.386719 295.386719 53.273438 294.488281 53.238281 L 292.988281 49.253906 L 289.121094 49.792969 L 288.765625 54.042969 C 287.90625 54.328125 287.070312 54.679688 286.265625 55.101562 L 282.972656 52.398438 L 279.890625 54.800781 L 281.707031 58.652344 C 281.105469 59.320312 280.5625 60.046875 280.074219 60.824219 L 275.867188 60.132812 L 274.402344 63.75 L 277.902344 66.179688 C 277.714844 67.082031 277.601562 67.980469 277.5625 68.878906 L 273.582031 70.382812 L 274.121094 74.246094 L 278.367188 74.601562 C 278.652344 75.464844 279.003906 76.300781 279.425781 77.105469 L 276.722656 80.402344 L 279.125 83.480469 L 282.972656 81.664062 C 283.640625 82.265625 284.371094 82.8125 285.144531 83.300781 L 284.453125 87.507812 L 288.070312 88.972656 L 290.5 85.472656 C 291.398438 85.660156 292.300781 85.773438 293.199219 85.808594 L 294.699219 89.796875 L 298.5625 89.257812 L 298.917969 85.007812 C 299.777344 84.722656 300.613281 84.367188 301.417969 83.945312 L 304.714844 86.652344 L 307.792969 84.25 L 305.976562 80.398438 C 306.578125 79.730469 307.125 79.003906 307.613281 78.226562 L 311.816406 78.917969 " fill-opacity="1" fill-rule="nonzero"/><g clip-path="url(#2cf1dec7dd)"><path fill="#8c52ff" d="M 325.597656 196.84375 L 324.109375 198.203125 C 322.976562 199.238281 321.976562 198.71875 320.515625 198.5 L 162.359375 175.871094 C 160.261719 175.558594 159.246094 173.390625 159.222656 171.253906 L 158.171875 63.210938 C 158.160156 61.9375 158.933594 56.855469 158.933594 56.855469 C 158.933594 56.855469 162.765625 54.109375 165.054688 53.050781 C 166.101562 52.570312 167.246094 52.402344 168.351562 52.5625 L 324.453125 75.527344 C 326.046875 75.761719 327.195312 77.09375 327.199219 78.714844 L 327.550781 192.472656 C 327.554688 194.109375 326.84375 195.707031 325.597656 196.84375 " fill-opacity="1" fill-rule="nonzero"/></g><path fill="#d2c7ff" d="M 320.820312 199.230469 L 162.867188 175.992188 C 160.414062 175.632812 158.652344 173.585938 158.644531 171.089844 L 158.296875 58.808594 C 158.292969 57.488281 159.503906 56.429688 160.796875 56.621094 L 319.171875 79.917969 C 320.765625 80.152344 321.910156 81.484375 321.917969 83.109375 L 322.273438 197.957031 C 322.273438 198.726562 321.570312 199.339844 320.820312 199.230469 " fill-opacity="1" fill-rule="nonzero"/><path fill="#000000" d="M 158.484375 119.515625 C 158.308594 119.515625 158.167969 119.375 158.167969 119.203125 L 157.980469 58.808594 C 157.976562 58.085938 158.296875 57.390625 158.859375 56.902344 C 159.417969 56.421875 160.140625 56.203125 160.84375 56.308594 L 297.925781 76.207031 C 298.097656 76.234375 298.214844 76.394531 298.191406 76.566406 C 298.167969 76.738281 298.003906 76.859375 297.832031 76.832031 L 160.753906 56.933594 C 160.230469 56.859375 159.691406 57.019531 159.273438 57.382812 C 158.851562 57.746094 158.609375 58.265625 158.613281 58.808594 L 158.800781 119.199219 C 158.800781 119.375 158.660156 119.515625 158.484375 119.515625 " fill-opacity="1" fill-rule="nonzero"/><path fill="#000000" d="M 320.996094 199.558594 C 320.921875 199.558594 320.847656 199.550781 320.773438 199.542969 L 311.628906 198.1875 C 311.457031 198.160156 311.335938 198 311.363281 197.828125 C 311.386719 197.65625 311.550781 197.535156 311.722656 197.5625 L 320.867188 198.917969 C 321.132812 198.957031 321.40625 198.871094 321.617188 198.6875 C 321.835938 198.5 321.957031 198.234375 321.957031 197.960938 L 321.601562 83.109375 C 321.597656 82.230469 321.222656 81.417969 320.570312 80.871094 C 320.4375 80.757812 320.417969 80.558594 320.53125 80.425781 C 320.640625 80.292969 320.839844 80.273438 320.976562 80.386719 C 321.769531 81.054688 322.230469 82.042969 322.234375 83.105469 L 322.589844 197.957031 C 322.589844 198.417969 322.386719 198.855469 322.03125 199.164062 C 321.738281 199.421875 321.367188 199.558594 320.996094 199.558594 " fill-opacity="1" fill-rule="nonzero"/><path fill="#ffffff" d="M 286.058594 153.929688 L 213.855469 142.636719 C 212.089844 142.359375 210.828125 140.875 210.828125 139.074219 L 210.828125 73.578125 C 210.828125 71.140625 213.078125 69.199219 215.460938 69.570312 L 287.667969 80.867188 C 289.429688 81.140625 290.691406 82.625 290.691406 84.429688 L 290.691406 149.925781 C 290.691406 152.359375 288.441406 154.304688 286.058594 153.929688 " fill-opacity="1" fill-rule="nonzero"/><path fill="#f1eaff" d="M 218.496094 136.65625 L 216.441406 136.289062 C 215.539062 136.125 214.820312 135.210938 214.820312 134.234375 L 214.839844 123.546875 C 214.84375 122.542969 215.601562 121.855469 216.523438 122.015625 L 218.558594 122.371094 C 219.460938 122.527344 220.183594 123.441406 220.183594 124.421875 C 220.183594 127.148438 220.183594 132.355469 220.183594 135.125 C 220.183594 136.132812 219.421875 136.820312 218.496094 136.65625 " fill-opacity="1" fill-rule="nonzero"/><path fill="#f1eaff" d="M 225.761719 137.792969 L 223.710938 137.425781 C 222.808594 137.261719 222.085938 136.351562 222.089844 135.371094 L 222.109375 117.9375 C 222.113281 116.933594 222.871094 116.246094 223.792969 116.40625 L 225.824219 116.761719 C 226.726562 116.917969 227.453125 117.828125 227.453125 118.808594 C 227.453125 122.753906 227.453125 132.253906 227.453125 136.261719 C 227.453125 137.269531 226.691406 137.960938 225.761719 137.792969 " fill-opacity="1" fill-rule="nonzero"/><path fill="#f1eaff" d="M 233.03125 138.929688 L 230.976562 138.5625 C 230.078125 138.398438 229.355469 137.488281 229.359375 136.507812 L 229.378906 122.667969 C 229.378906 121.667969 230.136719 120.976562 231.0625 121.136719 L 233.09375 121.492188 C 233.996094 121.648438 234.722656 122.5625 234.722656 123.542969 C 234.722656 126.867188 234.722656 134.023438 234.722656 137.398438 C 234.722656 138.40625 233.957031 139.097656 233.03125 138.929688 " fill-opacity="1" fill-rule="nonzero"/><path fill="#f1eaff" d="M 240.300781 140.066406 L 238.246094 139.699219 C 237.34375 139.535156 236.625 138.625 236.625 137.648438 L 236.648438 110.417969 C 236.648438 109.417969 237.40625 108.726562 238.332031 108.886719 L 240.359375 109.242188 C 241.265625 109.398438 241.988281 110.3125 241.988281 111.292969 C 241.988281 116.707031 241.988281 133.03125 241.988281 138.535156 C 241.988281 139.542969 241.226562 140.234375 240.300781 140.066406 " fill-opacity="1" fill-rule="nonzero"/><path fill="#f1eaff" d="M 247.566406 141.203125 L 245.511719 140.835938 C 244.613281 140.671875 243.890625 139.761719 243.894531 138.785156 L 243.914062 104.546875 C 243.917969 103.542969 244.675781 102.851562 245.597656 103.011719 L 247.628906 103.367188 C 248.535156 103.523438 249.257812 104.4375 249.257812 105.417969 C 249.257812 111.742188 249.257812 133.238281 249.257812 139.671875 C 249.257812 140.679688 248.496094 141.371094 247.566406 141.203125 " fill-opacity="1" fill-rule="nonzero"/><path fill="#d2c7ff" d="M 254.835938 142.339844 L 252.78125 141.972656 C 251.878906 141.8125 251.160156 140.898438 251.160156 139.921875 L 251.183594 100.46875 C 251.183594 99.464844 251.941406 98.777344 252.867188 98.9375 L 254.898438 99.292969 C 255.800781 99.449219 256.527344 100.359375 256.527344 101.339844 C 256.527344 108.292969 256.527344 133.738281 256.527344 140.808594 C 256.527344 141.816406 255.761719 142.507812 254.835938 142.339844 " fill-opacity="1" fill-rule="nonzero"/><path fill="#f1eaff" d="M 262.105469 143.476562 L 260.050781 143.109375 C 259.148438 142.949219 258.429688 142.035156 258.429688 141.058594 L 258.453125 113.03125 C 258.453125 112.03125 259.210938 111.339844 260.136719 111.5 L 262.167969 111.855469 C 263.070312 112.011719 263.792969 112.925781 263.792969 113.90625 C 263.792969 119.429688 263.792969 136.332031 263.792969 141.945312 C 263.792969 142.953125 263.03125 143.644531 262.105469 143.476562 " fill-opacity="1" fill-rule="nonzero"/><path fill="#f1eaff" d="M 269.371094 144.613281 L 267.320312 144.246094 C 266.417969 144.085938 265.699219 143.171875 265.699219 142.195312 L 265.722656 105.003906 C 265.722656 104.003906 266.480469 103.3125 267.402344 103.472656 L 269.433594 103.828125 C 270.339844 103.984375 271.0625 104.898438 271.0625 105.878906 C 271.0625 112.566406 271.0625 136.285156 271.0625 143.085938 C 271.0625 144.089844 270.300781 144.78125 269.371094 144.613281 " fill-opacity="1" fill-rule="nonzero"/><path fill="#f1eaff" d="M 276.640625 145.75 L 274.585938 145.382812 C 273.683594 145.222656 272.964844 144.308594 272.964844 143.332031 L 272.988281 94.972656 C 272.992188 93.96875 273.746094 93.28125 274.671875 93.441406 L 276.703125 93.796875 C 277.605469 93.953125 278.332031 94.867188 278.332031 95.847656 C 278.332031 103.785156 278.332031 136.144531 278.332031 144.222656 C 278.332031 145.226562 277.570312 145.917969 276.640625 145.75 " fill-opacity="1" fill-rule="nonzero"/><path fill="#d2c7ff" d="M 284.007812 146.902344 L 281.953125 146.535156 C 281.050781 146.375 280.332031 145.460938 280.332031 144.484375 L 280.355469 88.621094 C 280.355469 87.617188 281.113281 86.925781 282.039062 87.089844 L 284.070312 87.441406 C 284.972656 87.601562 285.695312 88.511719 285.695312 89.492188 C 285.695312 98.203125 285.695312 136.511719 285.695312 145.371094 C 285.695312 146.378906 284.933594 147.070312 284.007812 146.902344 " fill-opacity="1" fill-rule="nonzero"/><path fill="#ffffff" d="M 263.230469 186.300781 L 234.300781 181.699219 C 233.378906 181.554688 232.632812 180.648438 232.632812 179.679688 L 232.632812 151.070312 C 232.632812 150.101562 233.378906 149.433594 234.300781 149.578125 L 263.230469 154.175781 C 264.148438 154.324219 264.898438 155.230469 264.898438 156.199219 L 264.898438 184.808594 C 264.898438 185.777344 264.148438 186.445312 263.230469 186.300781 " fill-opacity="1" fill-rule="nonzero"/><path fill="#d2c7ff" d="M 240.320312 180.222656 L 237.429688 179.761719 L 237.429688 159.109375 L 240.320312 159.570312 L 240.320312 180.222656 " fill-opacity="1" fill-rule="nonzero"/><path fill="#f1eaff" d="M 240.320312 180.222656 L 237.429688 179.761719 L 237.429688 166.4375 L 240.320312 166.898438 L 240.320312 180.222656 " fill-opacity="1" fill-rule="nonzero"/><path fill="#d2c7ff" d="M 245.742188 181.085938 L 242.851562 180.625 L 242.851562 163.015625 L 245.742188 163.476562 L 245.742188 181.085938 " fill-opacity="1" fill-rule="nonzero"/><path fill="#f1eaff" d="M 245.742188 181.085938 L 242.851562 180.625 L 242.851562 170.535156 L 245.742188 170.996094 L 245.742188 181.085938 " fill-opacity="1" fill-rule="nonzero"/><path fill="#d2c7ff" d="M 250.800781 181.984375 L 247.910156 181.523438 L 247.910156 165.535156 L 250.800781 165.992188 L 250.800781 181.984375 " fill-opacity="1" fill-rule="nonzero"/><path fill="#f1eaff" d="M 250.800781 181.984375 L 247.910156 181.523438 L 247.910156 174.101562 L 250.800781 174.558594 L 250.800781 181.984375 " fill-opacity="1" fill-rule="nonzero"/><path fill="#d2c7ff" d="M 255.996094 183 L 253.105469 182.539062 L 253.105469 161.886719 L 255.996094 162.347656 L 255.996094 183 " fill-opacity="1" fill-rule="nonzero"/><path fill="#f1eaff" d="M 255.996094 183 L 253.105469 182.539062 L 253.105469 165.3125 L 255.996094 165.773438 L 255.996094 183 " fill-opacity="1" fill-rule="nonzero"/><path fill="#d2c7ff" d="M 261.238281 183.738281 L 258.347656 183.277344 L 258.347656 164.050781 L 261.238281 164.511719 L 261.238281 183.738281 " fill-opacity="1" fill-rule="nonzero"/><path fill="#f1eaff" d="M 261.238281 183.738281 L 258.347656 183.277344 L 258.347656 170.621094 L 261.238281 171.078125 L 261.238281 183.738281 " fill-opacity="1" fill-rule="nonzero"/><path fill="#8c52ff" d="M 263.046875 184.320312 C 263.027344 184.320312 263.011719 184.316406 262.996094 184.316406 L 234.976562 179.859375 C 234.402344 179.769531 233.953125 179.226562 233.957031 178.628906 L 234.066406 154.21875 C 234.066406 154.046875 234.207031 153.90625 234.382812 153.90625 C 234.558594 153.90625 234.699219 154.050781 234.695312 154.222656 L 234.585938 178.628906 C 234.585938 178.914062 234.808594 179.195312 235.074219 179.234375 L 263.09375 183.691406 C 263.265625 183.71875 263.382812 183.878906 263.355469 184.050781 C 263.332031 184.207031 263.199219 184.320312 263.046875 184.320312 " fill-opacity="1" fill-rule="nonzero"/><path fill="#d2c7ff" d="M 246.027344 155.144531 L 237.339844 153.765625 L 237.339844 152.144531 L 246.027344 153.527344 L 246.027344 155.144531 " fill-opacity="1" fill-rule="nonzero"/><path fill="#d2c7ff" d="M 246.058594 157.625 L 237.371094 156.242188 L 237.371094 154.625 L 246.058594 156.007812 L 246.058594 157.625 " fill-opacity="1" fill-rule="nonzero"/><path fill="#ffffff" d="M 203.675781 136.289062 L 164.046875 129.378906 C 163.097656 129.214844 162.402344 128.390625 162.402344 127.429688 L 162.402344 64.394531 C 162.402344 63.164062 163.515625 62.234375 164.734375 62.445312 L 204.363281 69.351562 C 205.316406 69.519531 206.007812 70.339844 206.007812 71.300781 L 206.007812 134.339844 C 206.007812 135.566406 204.894531 136.5 203.675781 136.289062 " fill-opacity="1" fill-rule="nonzero"/><path fill="#f1eaff" d="M 201.5 90.34375 C 202.828125 100.121094 196.0625 108.027344 186.398438 108.007812 C 176.730469 107.988281 167.816406 100.046875 166.492188 90.269531 C 165.164062 80.496094 171.929688 72.585938 181.597656 72.609375 C 191.265625 72.628906 200.175781 80.570312 201.5 90.34375 " fill-opacity="1" fill-rule="nonzero"/><path fill="#d2c7ff" d="M 184.3125 90.378906 L 195.578125 105.089844 C 199.878906 101.929688 202.261719 96.511719 201.425781 90.34375 C 200.894531 86.4375 199.152344 82.820312 196.632812 79.890625 L 184.3125 90.378906 " fill-opacity="1" fill-rule="nonzero"/><path fill="#8c52ff" d="M 185.390625 73.042969 L 184.3125 90.378906 L 196.632812 79.894531 C 193.707031 76.484375 189.730469 73.996094 185.390625 73.042969 " fill-opacity="1" fill-rule="nonzero"/><path fill="#ffffff" d="M 189.332031 90.316406 C 189.734375 93.296875 187.671875 95.707031 184.726562 95.699219 C 181.78125 95.695312 179.066406 93.273438 178.664062 90.296875 C 178.257812 87.316406 180.320312 84.90625 183.265625 84.914062 C 186.210938 84.921875 188.925781 87.339844 189.332031 90.316406 " fill-opacity="1" fill-rule="nonzero"/><path fill="#f1eaff" d="M 201.210938 119.738281 L 166.800781 115.019531 L 166.800781 111.273438 L 201.210938 115.992188 L 201.210938 119.738281 " fill-opacity="1" fill-rule="nonzero"/><path fill="#f1eaff" d="M 201.289062 126.710938 L 166.878906 121.992188 L 166.878906 118.246094 L 201.289062 122.964844 L 201.289062 126.710938 " fill-opacity="1" fill-rule="nonzero"/><path fill="#000000" d="M 206.007812 90.941406 C 205.835938 90.941406 205.695312 90.800781 205.695312 90.625 L 205.695312 71.300781 C 205.695312 70.492188 205.109375 69.804688 204.308594 69.664062 L 164.679688 62.757812 C 164.191406 62.671875 163.691406 62.804688 163.308594 63.125 C 162.933594 63.441406 162.71875 63.90625 162.71875 64.394531 L 162.71875 90.011719 C 162.71875 90.1875 162.574219 90.332031 162.402344 90.332031 C 162.226562 90.332031 162.085938 90.1875 162.085938 90.011719 L 162.085938 64.394531 C 162.085938 63.71875 162.382812 63.078125 162.902344 62.640625 C 163.425781 62.203125 164.113281 62.015625 164.789062 62.136719 L 204.417969 69.042969 C 205.523438 69.234375 206.324219 70.183594 206.324219 71.300781 L 206.324219 90.625 C 206.324219 90.800781 206.183594 90.941406 206.007812 90.941406 " fill-opacity="1" fill-rule="nonzero"/><path fill="#f1eaff" d="M 315.324219 169.828125 L 270.734375 162.714844 L 270.734375 158.136719 L 315.324219 165.246094 L 315.324219 169.828125 " fill-opacity="1" fill-rule="nonzero"/><path fill="#f1eaff" d="M 315.53125 177.175781 L 270.945312 170.066406 L 270.945312 165.484375 L 315.53125 172.597656 L 315.53125 177.175781 " fill-opacity="1" fill-rule="nonzero"/><path fill="#f1eaff" d="M 315.601562 184.796875 L 271.015625 177.6875 L 271.015625 173.105469 L 315.601562 180.21875 L 315.601562 184.796875 " fill-opacity="1" fill-rule="nonzero"/><path fill="#f1eaff" d="M 315.601562 191.890625 L 271.015625 184.78125 L 271.015625 180.199219 L 315.601562 187.308594 L 315.601562 191.890625 " fill-opacity="1" fill-rule="nonzero"/><path fill="#f1eaff" d="M 315.09375 91.292969 L 298.492188 88.953125 L 298.492188 84.667969 L 315.09375 87.007812 L 315.09375 91.292969 " fill-opacity="1" fill-rule="nonzero"/><path fill="#f1eaff" d="M 316.777344 103.25 L 295.550781 100.257812 L 295.550781 95.972656 L 316.777344 98.964844 L 316.777344 103.25 " fill-opacity="1" fill-rule="nonzero"/><path fill="#f1eaff" d="M 316.847656 110.207031 L 295.621094 107.210938 L 295.621094 102.925781 L 316.847656 105.917969 L 316.847656 110.207031 " fill-opacity="1" fill-rule="nonzero"/><path fill="#f1eaff" d="M 316.914062 124.253906 L 295.691406 121.261719 L 295.691406 116.972656 L 316.914062 119.96875 L 316.914062 124.253906 " fill-opacity="1" fill-rule="nonzero"/><path fill="#f1eaff" d="M 316.847656 131.261719 L 295.621094 128.269531 L 295.621094 123.984375 L 316.847656 126.976562 L 316.847656 131.261719 " fill-opacity="1" fill-rule="nonzero"/><path fill="#f1eaff" d="M 316.710938 138.1875 L 295.484375 135.195312 L 295.484375 130.707031 L 316.710938 133.699219 L 316.710938 138.1875 " fill-opacity="1" fill-rule="nonzero"/><path fill="#000000" d="M 245.851562 188.53125 C 245.835938 188.53125 245.820312 188.53125 245.804688 188.527344 L 224.503906 185.367188 C 224.332031 185.34375 224.214844 185.179688 224.238281 185.007812 C 224.265625 184.835938 224.425781 184.71875 224.597656 184.742188 L 245.898438 187.902344 C 246.070312 187.929688 246.1875 188.089844 246.164062 188.261719 C 246.140625 188.417969 246.003906 188.53125 245.851562 188.53125 " fill-opacity="1" fill-rule="nonzero"/><path fill="#ffffff" d="M 218.089844 91.730469 C 219.054688 86.449219 224.117188 82.921875 229.402344 83.855469 C 234.691406 84.789062 238.191406 89.824219 237.230469 95.109375 C 236.269531 100.390625 231.203125 103.914062 225.917969 102.980469 C 220.632812 102.050781 217.128906 97.011719 218.089844 91.730469 " fill-opacity="1" fill-rule="nonzero"/><path fill="#000000" d="M 227.707031 84.023438 C 223.230469 84.023438 219.230469 87.234375 218.402344 91.785156 C 217.953125 94.257812 218.492188 96.753906 219.921875 98.808594 C 221.351562 100.863281 223.5 102.234375 225.972656 102.671875 C 231.078125 103.570312 235.988281 100.152344 236.917969 95.050781 C 237.371094 92.578125 236.828125 90.085938 235.398438 88.03125 C 233.96875 85.976562 231.820312 84.601562 229.347656 84.167969 C 228.796875 84.070312 228.25 84.023438 227.707031 84.023438 Z M 227.613281 103.449219 C 227.035156 103.449219 226.453125 103.398438 225.863281 103.292969 C 223.222656 102.828125 220.929688 101.363281 219.402344 99.167969 C 217.875 96.972656 217.300781 94.3125 217.78125 91.675781 C 218.773438 86.230469 224.011719 82.582031 229.457031 83.542969 C 232.097656 84.007812 234.390625 85.476562 235.917969 87.667969 C 237.445312 89.863281 238.023438 92.527344 237.542969 95.164062 C 236.65625 100.019531 232.390625 103.449219 227.613281 103.449219 " fill-opacity="1" fill-rule="nonzero"/><path fill="#8c52ff" d="M 233.582031 89.675781 L 230.203125 90.917969 C 230.027344 90.984375 229.980469 91.210938 230.117188 91.335938 L 230.515625 91.710938 C 230.617188 91.804688 230.625 91.960938 230.53125 92.0625 L 228.714844 94.015625 C 228.621094 94.117188 228.460938 94.121094 228.359375 94.027344 L 226.039062 91.867188 C 225.9375 91.773438 225.777344 91.777344 225.683594 91.878906 L 221.636719 96.210938 C 221.542969 96.308594 221.550781 96.46875 221.648438 96.5625 L 222.5 97.351562 C 222.601562 97.445312 222.757812 97.441406 222.851562 97.339844 L 225.769531 94.226562 C 225.863281 94.125 226.023438 94.121094 226.125 94.214844 L 228.445312 96.375 C 228.546875 96.46875 228.703125 96.464844 228.800781 96.363281 L 231.742188 93.195312 C 231.835938 93.09375 231.996094 93.089844 232.097656 93.183594 L 232.527344 93.585938 C 232.664062 93.714844 232.886719 93.652344 232.9375 93.46875 L 233.90625 89.976562 C 233.964844 89.78125 233.773438 89.605469 233.582031 89.675781 " fill-opacity="1" fill-rule="nonzero"/><path fill="#000000" d="M 218.234375 178.730469 C 218.222656 178.730469 218.210938 178.730469 218.199219 178.730469 C 214.582031 178.722656 210.855469 176.542969 207.128906 172.25 C 204.515625 169.242188 202.855469 166.269531 202.785156 166.144531 C 202.230469 165.148438 202.589844 163.886719 203.585938 163.335938 C 204.585938 162.78125 205.84375 163.140625 206.394531 164.136719 C 208.015625 167.042969 213.296875 174.585938 218.210938 174.597656 C 218.21875 174.597656 218.226562 174.597656 218.234375 174.597656 C 219.796875 174.597656 221 174.117188 221.921875 173.128906 C 224.125 170.757812 224.285156 166.015625 224.160156 164.390625 C 224.074219 163.253906 224.925781 162.261719 226.0625 162.175781 C 227.199219 162.085938 228.195312 162.9375 228.28125 164.078125 C 228.304688 164.390625 228.820312 171.773438 224.945312 175.941406 C 223.226562 177.792969 220.96875 178.730469 218.234375 178.730469 " fill-opacity="1" fill-rule="nonzero"/><path fill="#000000" d="M 232.738281 163.84375 L 220.503906 163.84375 C 219.367188 163.84375 218.441406 162.917969 218.441406 161.777344 C 218.441406 160.636719 219.367188 159.710938 220.503906 159.710938 L 232.738281 159.710938 C 233.878906 159.710938 234.804688 160.636719 234.804688 161.777344 C 234.804688 162.917969 233.878906 163.84375 232.738281 163.84375 " fill-opacity="1" fill-rule="nonzero"/><path fill="#ffffff" d="M 216.433594 135.414062 L 215.925781 135.414062 L 215.925781 123.195312 L 216.433594 123.195312 C 219.613281 123.195312 222.195312 125.773438 222.195312 128.957031 L 222.195312 129.648438 C 222.195312 132.832031 219.613281 135.414062 216.433594 135.414062 " fill-opacity="1" fill-rule="nonzero"/><path fill="#000000" d="M 216.242188 135.097656 L 216.433594 135.097656 C 219.433594 135.097656 221.878906 132.652344 221.878906 129.652344 L 221.878906 128.957031 C 221.878906 125.953125 219.433594 123.507812 216.433594 123.507812 L 216.242188 123.507812 Z M 216.433594 135.730469 L 215.925781 135.730469 C 215.753906 135.730469 215.613281 135.585938 215.613281 135.414062 L 215.613281 123.195312 C 215.613281 123.019531 215.753906 122.878906 215.925781 122.878906 L 216.433594 122.878906 C 219.785156 122.878906 222.511719 125.605469 222.511719 128.957031 L 222.511719 129.652344 C 222.511719 133.003906 219.785156 135.730469 216.433594 135.730469 " fill-opacity="1" fill-rule="nonzero"/><path fill="#ffffff" d="M 160.277344 135.414062 L 160.78125 135.414062 L 160.78125 123.195312 L 160.277344 123.195312 C 157.09375 123.195312 154.515625 125.773438 154.515625 128.957031 L 154.515625 129.648438 C 154.515625 132.832031 157.09375 135.414062 160.277344 135.414062 " fill-opacity="1" fill-rule="nonzero"/><path fill="#000000" d="M 160.277344 123.507812 C 157.273438 123.507812 154.832031 125.953125 154.832031 128.957031 L 154.832031 129.652344 C 154.832031 132.652344 157.273438 135.097656 160.277344 135.097656 L 160.464844 135.097656 L 160.464844 123.507812 Z M 160.78125 135.730469 L 160.277344 135.730469 C 156.925781 135.730469 154.199219 133.003906 154.199219 129.652344 L 154.199219 128.957031 C 154.199219 125.605469 156.925781 122.878906 160.277344 122.878906 L 160.78125 122.878906 C 160.957031 122.878906 161.097656 123.019531 161.097656 123.195312 L 161.097656 135.414062 C 161.097656 135.585938 160.957031 135.730469 160.78125 135.730469 " fill-opacity="1" fill-rule="nonzero"/><path fill="#ffffff" d="M 158.808594 128.800781 C 158.808594 115.667969 172.035156 102.085938 188.355469 102.085938 C 204.671875 102.085938 217.902344 115.667969 217.902344 128.800781 C 217.902344 141.929688 204.671875 149.636719 188.355469 149.636719 C 172.035156 149.636719 158.808594 141.929688 158.808594 128.800781 " fill-opacity="1" fill-rule="nonzero"/><path fill="#000000" d="M 188.355469 102.402344 C 171.625 102.402344 159.125 116.339844 159.125 128.800781 C 159.125 134.945312 162.066406 140.160156 167.636719 143.878906 C 172.894531 147.386719 180.253906 149.320312 188.355469 149.320312 C 196.457031 149.320312 203.8125 147.386719 209.070312 143.878906 C 214.640625 140.160156 217.585938 134.945312 217.585938 128.800781 C 217.585938 116.339844 205.085938 102.402344 188.355469 102.402344 Z M 188.355469 149.949219 C 180.128906 149.949219 172.648438 147.980469 167.285156 144.402344 C 161.53125 140.566406 158.492188 135.167969 158.492188 128.800781 C 158.492188 122.273438 161.679688 115.527344 167.246094 110.289062 C 173.074219 104.796875 180.574219 101.769531 188.355469 101.769531 C 196.136719 101.769531 203.632812 104.796875 209.464844 110.289062 C 215.027344 115.527344 218.21875 122.273438 218.21875 128.800781 C 218.21875 135.167969 215.175781 140.566406 209.421875 144.402344 C 204.0625 147.980469 196.578125 149.949219 188.355469 149.949219 " fill-opacity="1" fill-rule="nonzero"/><path fill="#ffffff" d="M 195.753906 153.582031 L 180.953125 153.582031 C 174.464844 153.582031 169.207031 158.839844 169.207031 165.332031 C 169.207031 169.621094 169.625 173.898438 170.453125 178.105469 L 172.582031 188.890625 C 174.070312 196.425781 180.675781 201.855469 188.355469 201.855469 C 196.03125 201.855469 202.636719 196.425781 204.125 188.890625 L 206.253906 178.105469 C 207.085938 173.898438 207.503906 169.621094 207.503906 165.332031 C 207.503906 158.839844 202.242188 153.582031 195.753906 153.582031 " fill-opacity="1" fill-rule="nonzero"/><path fill="#000000" d="M 180.953125 153.894531 C 174.648438 153.894531 169.523438 159.027344 169.523438 165.332031 C 169.523438 169.589844 169.941406 173.867188 170.765625 178.042969 L 172.894531 188.828125 C 174.347656 196.195312 180.847656 201.539062 188.355469 201.539062 C 195.859375 201.539062 202.363281 196.195312 203.816406 188.828125 L 205.945312 178.042969 C 206.769531 173.867188 207.1875 169.589844 207.1875 165.332031 C 207.1875 159.027344 202.058594 153.894531 195.753906 153.894531 Z M 188.355469 202.171875 C 180.546875 202.171875 173.785156 196.613281 172.273438 188.949219 L 170.144531 178.167969 C 169.3125 173.949219 168.890625 169.632812 168.890625 165.332031 C 168.890625 158.679688 174.300781 153.265625 180.953125 153.265625 L 195.753906 153.265625 C 202.40625 153.265625 207.816406 158.679688 207.816406 165.332031 C 207.816406 169.632812 207.398438 173.949219 206.5625 178.167969 L 204.4375 188.949219 C 202.921875 196.613281 196.160156 202.171875 188.355469 202.171875 " fill-opacity="1" fill-rule="nonzero"/><path fill="#8c52ff" d="M 188.808594 179.621094 L 187.898438 179.621094 C 183.699219 179.621094 180.296875 176.214844 180.296875 172.015625 L 180.296875 153.582031 L 196.410156 153.582031 L 196.410156 172.015625 C 196.410156 176.214844 193.007812 179.621094 188.808594 179.621094 " fill-opacity="1" fill-rule="nonzero"/><path fill="#000000" d="M 196.410156 153.894531 L 180.296875 153.894531 C 180.121094 153.894531 179.980469 153.753906 179.980469 153.582031 C 179.980469 153.40625 180.121094 153.265625 180.296875 153.265625 L 196.410156 153.265625 C 196.585938 153.265625 196.726562 153.40625 196.726562 153.582031 C 196.726562 153.753906 196.585938 153.894531 196.410156 153.894531 " fill-opacity="1" fill-rule="nonzero"/><path fill="#000000" d="M 208.21875 124.859375 L 179.765625 124.859375 C 176.808594 124.859375 174.414062 127.441406 174.414062 130.628906 L 174.414062 134.390625 C 174.414062 136.824219 175.710938 139.398438 177.945312 139.820312 C 185.832031 141.300781 202.152344 141.300781 210.039062 139.820312 C 212.273438 139.398438 213.570312 136.824219 213.570312 134.390625 L 213.570312 130.628906 C 213.570312 127.441406 211.175781 124.859375 208.21875 124.859375 " fill-opacity="1" fill-rule="nonzero"/><path fill="#8c52ff" d="M 187.308594 132.433594 C 187.308594 133.5 186.503906 134.367188 185.515625 134.367188 C 184.523438 134.367188 183.722656 133.5 183.722656 132.433594 C 183.722656 131.367188 184.523438 130.5 185.515625 130.5 C 186.503906 130.5 187.308594 131.367188 187.308594 132.433594 " fill-opacity="1" fill-rule="nonzero"/><path fill="#8c52ff" d="M 206.382812 132.433594 C 206.382812 133.5 205.582031 134.367188 204.589844 134.367188 C 203.601562 134.367188 202.796875 133.5 202.796875 132.433594 C 202.796875 131.367188 203.601562 130.5 204.589844 130.5 C 205.582031 130.5 206.382812 131.367188 206.382812 132.433594 " fill-opacity="1" fill-rule="nonzero"/><path fill="#000000" d="M 169.453125 188.125 C 165.410156 188.125 159.933594 187.550781 156.421875 184.855469 C 154.402344 183.304688 153.21875 181.257812 152.910156 178.769531 C 151.53125 167.597656 165.007812 161.203125 165.582031 160.933594 C 166.613281 160.453125 167.84375 160.90625 168.324219 161.9375 C 168.804688 162.972656 168.355469 164.203125 167.324219 164.683594 C 167.207031 164.734375 156 170.082031 157.011719 178.261719 C 157.179688 179.628906 157.808594 180.710938 158.9375 181.578125 C 162.796875 184.535156 171.210938 184.121094 174.125 183.710938 C 175.257812 183.554688 176.300781 184.339844 176.460938 185.46875 C 176.617188 186.601562 175.832031 187.644531 174.699219 187.804688 C 174.492188 187.832031 172.335938 188.125 169.453125 188.125 " fill-opacity="1" fill-rule="nonzero"/><path fill="#000000" d="M 183.71875 190.324219 L 179.75 190.324219 C 177.582031 190.324219 175.785156 188.695312 175.570312 186.539062 L 175.433594 185.15625 C 175.316406 183.980469 175.703125 182.796875 176.496094 181.921875 C 177.292969 181.039062 178.429688 180.535156 179.613281 180.535156 L 185.9375 180.535156 C 187.082031 180.535156 188.003906 181.464844 188.003906 182.605469 C 188.003906 183.746094 187.082031 184.667969 185.9375 184.667969 L 179.613281 184.667969 C 179.601562 184.667969 179.582031 184.667969 179.5625 184.691406 C 179.539062 184.714844 179.542969 184.734375 179.542969 184.746094 L 179.679688 186.128906 C 179.683594 186.164062 179.714844 186.191406 179.75 186.191406 L 183.71875 186.191406 C 184.859375 186.191406 185.78125 187.117188 185.78125 188.257812 C 185.78125 189.398438 184.859375 190.324219 183.71875 190.324219 " fill-opacity="1" fill-rule="nonzero"/><path fill="#8c52ff" d="M 286.589844 155.375 L 286.589844 163.621094 C 286.589844 171.679688 280.226562 178.21875 272.378906 178.21875 C 264.527344 178.21875 258.164062 184.753906 258.164062 192.816406 C 258.164062 193.535156 258.746094 194.117188 259.464844 194.117188 L 297.085938 194.117188 C 308.851562 194.117188 318.390625 184.316406 318.390625 172.230469 L 318.390625 154.644531 C 318.390625 149.835938 314.597656 145.9375 309.917969 145.9375 L 295.777344 145.9375 C 290.703125 145.9375 286.589844 150.164062 286.589844 155.375 " fill-opacity="1" fill-rule="nonzero"/><path fill="#000000" d="M 295.777344 146.253906 C 290.886719 146.253906 286.90625 150.347656 286.90625 155.375 L 286.90625 163.621094 C 286.90625 171.84375 280.386719 178.535156 272.378906 178.535156 C 264.714844 178.535156 258.480469 184.941406 258.480469 192.816406 C 258.480469 193.359375 258.921875 193.800781 259.464844 193.800781 L 297.085938 193.800781 C 308.65625 193.800781 318.074219 184.125 318.074219 172.230469 L 318.074219 154.644531 C 318.074219 150.015625 314.414062 146.253906 309.917969 146.253906 Z M 297.085938 194.433594 L 259.464844 194.433594 C 258.574219 194.433594 257.851562 193.707031 257.851562 192.816406 C 257.851562 184.59375 264.367188 177.902344 272.378906 177.902344 C 280.039062 177.902344 286.273438 171.496094 286.273438 163.621094 L 286.273438 155.375 C 286.273438 150 290.539062 145.621094 295.777344 145.621094 L 309.917969 145.621094 C 314.761719 145.621094 318.707031 149.667969 318.707031 154.644531 L 318.707031 172.230469 C 318.707031 184.472656 309.007812 194.433594 297.085938 194.433594 " fill-opacity="1" fill-rule="nonzero"/><path fill="#8c52ff" d="M 290.929688 218.972656 L 287.519531 218.972656 L 287.519531 179.257812 L 290.929688 179.257812 L 290.929688 218.972656 " fill-opacity="1" fill-rule="nonzero"/><path fill="#8c52ff" d="M 273.246094 220.261719 L 288.335938 218.933594 L 289.71875 218.933594 L 305.121094 220.261719 L 305.121094 221.3125 L 273.246094 221.3125 L 273.246094 220.261719 " fill-opacity="1" fill-rule="nonzero"/><path fill="#ffffff" d="M 278.949219 213.332031 C 278.601562 212.976562 276.578125 206.683594 276.578125 206.683594 L 272.585938 209.535156 L 276.964844 215.425781 L 278.949219 213.332031 " fill-opacity="1" fill-rule="nonzero"/><path fill="#000000" d="M 273.03125 209.605469 L 276.992188 214.933594 L 278.5625 213.28125 C 278.082031 212.285156 277 209.019531 276.410156 207.195312 Z M 276.964844 215.742188 C 276.957031 215.742188 276.953125 215.742188 276.945312 215.742188 C 276.851562 215.734375 276.765625 215.6875 276.710938 215.613281 L 272.332031 209.726562 C 272.28125 209.65625 272.257812 209.570312 272.273438 209.488281 C 272.285156 209.402344 272.332031 209.328125 272.402344 209.277344 L 276.394531 206.429688 C 276.476562 206.367188 276.582031 206.351562 276.679688 206.386719 C 276.773438 206.417969 276.851562 206.492188 276.878906 206.589844 C 277.820312 209.519531 278.949219 212.804688 279.1875 213.121094 C 279.304688 213.242188 279.296875 213.425781 279.179688 213.546875 L 277.191406 215.644531 C 277.132812 215.707031 277.050781 215.742188 276.964844 215.742188 " fill-opacity="1" fill-rule="nonzero"/><path fill="#000000" d="M 271.75 221.285156 L 274.40625 221.269531 C 276.164062 221.257812 277.800781 220.367188 278.757812 218.890625 L 281.386719 214.730469 C 282.113281 213.582031 281.707031 212.058594 280.503906 211.421875 C 279.410156 210.835938 278.261719 210.269531 277.992188 210.292969 C 277.445312 210.347656 277.222656 212.933594 277.222656 212.933594 L 274.855469 213.023438 C 274.855469 213.023438 273.6875 217.886719 272.660156 218.441406 C 271.910156 218.84375 271.386719 219.4375 271.035156 219.976562 C 270.664062 220.542969 271.078125 221.289062 271.75 221.285156 " fill-opacity="1" fill-rule="nonzero"/><path fill="#ffffff" d="M 272.019531 220.566406 C 271.863281 220.566406 271.730469 220.453125 271.707031 220.296875 C 271.679688 220.121094 271.796875 219.960938 271.972656 219.933594 L 275.605469 219.386719 C 276.328125 219.277344 276.960938 218.855469 277.335938 218.226562 L 280.546875 212.859375 C 280.636719 212.710938 280.832031 212.660156 280.980469 212.75 C 281.128906 212.839844 281.179688 213.035156 281.089844 213.183594 L 277.878906 218.550781 C 277.40625 219.34375 276.609375 219.875 275.699219 220.011719 L 272.066406 220.5625 C 272.050781 220.5625 272.03125 220.566406 272.019531 220.566406 " fill-opacity="1" fill-rule="nonzero"/><path fill="#ffffff" d="M 276.503906 216.527344 C 276.476562 216.527344 276.449219 216.523438 276.421875 216.519531 L 274.398438 215.964844 C 274.226562 215.917969 274.128906 215.746094 274.175781 215.578125 C 274.21875 215.410156 274.394531 215.308594 274.5625 215.355469 L 276.585938 215.90625 C 276.753906 215.953125 276.855469 216.128906 276.808594 216.296875 C 276.769531 216.433594 276.644531 216.527344 276.503906 216.527344 " fill-opacity="1" fill-rule="nonzero"/><path fill="#ffffff" d="M 275.449219 217.570312 C 275.425781 217.570312 275.398438 217.566406 275.375 217.558594 L 274.015625 217.226562 C 273.847656 217.1875 273.742188 217.015625 273.785156 216.84375 C 273.828125 216.675781 273.996094 216.570312 274.167969 216.613281 L 275.523438 216.945312 C 275.695312 216.988281 275.796875 217.160156 275.757812 217.328125 C 275.71875 217.472656 275.59375 217.570312 275.449219 217.570312 " fill-opacity="1" fill-rule="nonzero"/><path fill="#ffffff" d="M 265.320312 212.128906 L 260.683594 216.792969 L 258.222656 215.886719 L 262.5 209.925781 L 265.320312 212.128906 " fill-opacity="1" fill-rule="nonzero"/><path fill="#000000" d="M 258.722656 215.734375 L 260.601562 216.425781 L 264.84375 212.160156 L 262.5625 210.375 Z M 260.683594 217.109375 C 260.644531 217.109375 260.609375 217.101562 260.574219 217.089844 L 258.113281 216.183594 C 258.019531 216.152344 257.949219 216.078125 257.921875 215.980469 C 257.894531 215.886719 257.910156 215.785156 257.96875 215.703125 L 262.242188 209.742188 C 262.292969 209.671875 262.367188 209.625 262.453125 209.609375 C 262.539062 209.597656 262.625 209.621094 262.695312 209.675781 L 265.515625 211.882812 C 265.585938 211.9375 265.628906 212.019531 265.636719 212.109375 C 265.640625 212.199219 265.609375 212.289062 265.542969 212.351562 L 260.90625 217.015625 C 260.84375 217.078125 260.765625 217.109375 260.683594 217.109375 " fill-opacity="1" fill-rule="nonzero"/><path fill="#000000" d="M 262.148438 216.0625 C 262.148438 216.0625 262.371094 218.046875 261.992188 219.800781 C 261.789062 220.734375 260.949219 221.390625 259.992188 221.390625 L 248.609375 221.390625 C 247.796875 221.390625 247.425781 220.375 248.050781 219.851562 C 250.074219 218.15625 253.796875 215.566406 258.375 214.804688 L 259.652344 216.59375 L 262.148438 216.0625 " fill-opacity="1" fill-rule="nonzero"/><path fill="#ffffff" d="M 260.949219 220.140625 L 249.152344 220.140625 C 248.976562 220.140625 248.835938 220 248.835938 219.824219 C 248.835938 219.648438 248.976562 219.507812 249.152344 219.507812 L 260.949219 219.507812 C 261.121094 219.507812 261.261719 219.648438 261.261719 219.824219 C 261.261719 220 261.121094 220.140625 260.949219 220.140625 " fill-opacity="1" fill-rule="nonzero"/><path fill="#ffffff" d="M 255.734375 218.042969 C 255.609375 218.042969 255.492188 217.96875 255.441406 217.847656 L 254.816406 216.332031 C 254.75 216.171875 254.824219 215.988281 254.988281 215.917969 C 255.148438 215.851562 255.335938 215.929688 255.402344 216.089844 L 256.023438 217.605469 C 256.09375 217.769531 256.015625 217.953125 255.855469 218.019531 C 255.8125 218.035156 255.773438 218.042969 255.734375 218.042969 " fill-opacity="1" fill-rule="nonzero"/><path fill="#ffffff" d="M 253.679688 218.441406 C 253.546875 218.441406 253.421875 218.359375 253.378906 218.226562 L 252.929688 216.859375 C 252.871094 216.691406 252.964844 216.515625 253.128906 216.457031 C 253.296875 216.402344 253.472656 216.492188 253.527344 216.660156 L 253.980469 218.027344 C 254.035156 218.191406 253.945312 218.371094 253.777344 218.425781 C 253.746094 218.4375 253.714844 218.441406 253.679688 218.441406 " fill-opacity="1" fill-rule="nonzero"/><path fill="#000000" d="M 289.871094 179.507812 C 289.871094 179.507812 268.671875 177.039062 262.371094 182.496094 C 256.066406 187.957031 272.320312 211.429688 272.320312 211.429688 L 277.460938 207.613281 L 272.585938 191.023438 L 292.179688 185.457031 L 289.871094 179.507812 " fill-opacity="1" fill-rule="nonzero"/><path fill="#000000" d="M 301.535156 190.3125 C 298.457031 191.289062 292.945312 192.554688 285.246094 192.449219 C 283.058594 192.417969 281.039062 193.625 280.046875 195.578125 C 277.765625 200.050781 272.828125 208.109375 264.789062 213.332031 L 260.949219 211.261719 L 270.75 189.1875 C 271.644531 187.171875 273.316406 185.605469 275.386719 184.84375 L 294.8125 177.71875 C 294.8125 177.71875 300.835938 176.035156 303.789062 181.414062 C 304.316406 182.375 305.296875 180.65625 305.53125 181.433594 C 306.328125 184.089844 304.179688 189.472656 301.535156 190.3125 " fill-opacity="1" fill-rule="nonzero"/><path fill="#ffffff" d="M 266.320312 199.476562 C 266.277344 199.476562 266.234375 199.46875 266.191406 199.449219 C 266.03125 199.378906 265.960938 199.191406 266.03125 199.03125 L 270.460938 189.058594 C 271.386719 186.976562 273.140625 185.332031 275.277344 184.546875 L 284.582031 181.136719 C 284.746094 181.074219 284.929688 181.160156 284.984375 181.324219 C 285.046875 181.488281 284.964844 181.667969 284.800781 181.730469 L 275.496094 185.140625 C 273.519531 185.867188 271.894531 187.386719 271.039062 189.3125 L 266.609375 199.289062 C 266.554688 199.40625 266.441406 199.476562 266.320312 199.476562 " fill-opacity="1" fill-rule="nonzero"/><path fill="#ffffff" d="M 271.492188 208.054688 C 271.414062 208.054688 271.332031 208.023438 271.273438 207.964844 C 271.144531 207.84375 271.140625 207.644531 271.261719 207.519531 C 272.144531 206.601562 273.011719 205.613281 273.839844 204.589844 C 273.953125 204.453125 274.148438 204.433594 274.285156 204.542969 C 274.421875 204.652344 274.441406 204.851562 274.332031 204.988281 C 273.492188 206.027344 272.613281 207.027344 271.71875 207.957031 C 271.65625 208.019531 271.574219 208.054688 271.492188 208.054688 " fill-opacity="1" fill-rule="nonzero"/><path fill="#ffffff" d="M 274.085938 205.105469 C 274.015625 205.105469 273.949219 205.082031 273.890625 205.035156 C 273.753906 204.921875 273.730469 204.726562 273.839844 204.589844 C 274.25 204.082031 274.65625 203.558594 275.050781 203.03125 C 275.152344 202.890625 275.351562 202.863281 275.492188 202.96875 C 275.632812 203.070312 275.660156 203.269531 275.558594 203.410156 C 275.160156 203.941406 274.746094 204.472656 274.332031 204.988281 C 274.269531 205.0625 274.179688 205.105469 274.085938 205.105469 " fill-opacity="1" fill-rule="nonzero"/><path fill="#ffffff" d="M 285.050781 162.378906 C 285.050781 162.378906 283.1875 179.316406 270.671875 180.421875 L 285.050781 180.628906 C 285.050781 180.628906 290.378906 169.832031 290.59375 165.628906 C 290.808594 161.425781 285.050781 162.378906 285.050781 162.378906 " fill-opacity="1" fill-rule="nonzero"/><path fill="#000000" d="M 273.621094 180.148438 L 284.859375 180.308594 C 285.546875 178.886719 290.085938 169.410156 290.277344 165.609375 C 290.324219 164.699219 290.070312 163.988281 289.515625 163.496094 C 288.320312 162.425781 286.0625 162.578125 285.335938 162.660156 C 285.199219 163.636719 284.59375 167.347656 282.84375 171.117188 C 280.660156 175.820312 277.507812 178.890625 273.621094 180.148438 Z M 285.054688 180.945312 C 285.050781 180.945312 285.050781 180.945312 285.050781 180.945312 L 270.664062 180.738281 C 270.5 180.738281 270.359375 180.601562 270.355469 180.433594 C 270.347656 180.265625 270.476562 180.125 270.644531 180.109375 C 275.714844 179.660156 279.625 176.546875 282.269531 170.851562 C 284.253906 166.574219 284.734375 162.386719 284.738281 162.34375 C 284.753906 162.203125 284.863281 162.089844 285.003906 162.066406 C 285.132812 162.042969 288.28125 161.542969 289.9375 163.023438 C 290.640625 163.648438 290.96875 164.53125 290.910156 165.644531 C 290.691406 169.863281 285.554688 180.324219 285.335938 180.769531 C 285.285156 180.875 285.175781 180.945312 285.054688 180.945312 " fill-opacity="1" fill-rule="nonzero"/><path fill="#ffffff" d="M 302.867188 151.617188 C 300.441406 151.042969 299.425781 151.035156 290.601562 151.359375 C 288.441406 151.433594 285.875 154.144531 285.621094 156.289062 C 286.308594 158.347656 289.472656 168.507812 283.949219 176.441406 C 283.164062 177.570312 282.097656 178.804688 280.632812 179.988281 C 281.457031 180.652344 282.734375 181.519531 284.449219 182.027344 C 287.296875 182.875 288.730469 181.960938 291.023438 182.027344 C 297.097656 182.210938 299.324219 188.976562 303.246094 188.125 C 304.292969 187.898438 305.679688 187.082031 306.980469 184.339844 C 307.71875 182.066406 308.375 179.398438 308.738281 176.382812 C 309.730469 168.207031 308.109375 161.398438 306.664062 157.125 C 306.230469 155.777344 305.730469 152.289062 302.867188 151.617188 " fill-opacity="1" fill-rule="nonzero"/><path fill="#000000" d="M 290.777344 181.707031 C 290.859375 181.707031 290.949219 181.710938 291.035156 181.710938 C 294.324219 181.808594 296.492188 183.746094 298.402344 185.449219 C 300.046875 186.917969 301.464844 188.1875 303.175781 187.816406 C 304.507812 187.527344 305.6875 186.320312 306.683594 184.222656 C 307.519531 181.652344 308.105469 179.003906 308.425781 176.34375 C 309.199219 169.976562 308.503906 163.542969 306.363281 157.226562 C 306.296875 157.027344 306.238281 156.800781 306.164062 156.535156 C 305.761719 155.011719 305.078125 152.460938 302.796875 151.925781 C 300.4375 151.371094 299.527344 151.351562 290.613281 151.671875 C 288.695312 151.742188 286.238281 154.167969 285.945312 156.257812 C 287.167969 159.957031 289.378906 169.195312 284.207031 176.621094 C 283.347656 177.855469 282.320312 178.984375 281.140625 179.980469 C 282.199219 180.78125 283.339844 181.367188 284.539062 181.726562 C 286.292969 182.246094 287.476562 182.074219 288.726562 181.898438 C 289.367188 181.804688 290.027344 181.707031 290.777344 181.707031 Z M 302.574219 188.515625 C 300.882812 188.515625 299.46875 187.25 297.980469 185.921875 C 296.152344 184.289062 294.078125 182.4375 291.015625 182.34375 C 290.214844 182.320312 289.503906 182.421875 288.816406 182.523438 C 287.554688 182.703125 286.246094 182.890625 284.359375 182.332031 C 282.964844 181.917969 281.644531 181.210938 280.4375 180.234375 L 280.132812 179.988281 L 280.4375 179.742188 C 281.695312 178.722656 282.792969 177.550781 283.6875 176.261719 C 288.730469 169.023438 286.511719 159.953125 285.320312 156.390625 L 285.300781 156.324219 L 285.308594 156.253906 C 285.570312 154.050781 288.175781 151.128906 290.589844 151.042969 C 299.582031 150.714844 300.503906 150.734375 302.941406 151.308594 C 305.589844 151.929688 306.335938 154.710938 306.777344 156.371094 C 306.847656 156.628906 306.90625 156.851562 306.960938 157.03125 C 309.132812 163.433594 309.835938 169.957031 309.054688 176.421875 C 308.726562 179.125 308.128906 181.824219 307.28125 184.4375 L 307.265625 184.476562 C 306.175781 186.769531 304.84375 188.101562 303.3125 188.433594 C 303.058594 188.488281 302.8125 188.515625 302.574219 188.515625 " fill-opacity="1" fill-rule="nonzero"/><path fill="#ffffff" d="M 283.40625 164.277344 C 283.40625 164.277344 284.835938 152.824219 288.949219 151.847656 C 287.5 156.296875 287.019531 161.140625 287.230469 166.265625 C 287.238281 166.480469 287.007812 166.613281 286.828125 166.496094 L 283.40625 164.277344 " fill-opacity="1" fill-rule="nonzero"/><path fill="#000000" d="M 283.746094 164.121094 L 286.910156 166.175781 C 286.707031 160.988281 287.210938 156.464844 288.453125 152.371094 C 285.289062 154.035156 283.945312 162.703125 283.746094 164.121094 Z M 286.96875 166.855469 C 286.859375 166.855469 286.75 166.824219 286.65625 166.761719 L 283.070312 164.433594 L 283.09375 164.238281 C 283.152344 163.761719 284.597656 152.558594 288.875 151.539062 L 289.425781 151.410156 L 289.25 151.945312 C 287.878906 156.15625 287.324219 160.835938 287.546875 166.253906 C 287.554688 166.46875 287.441406 166.671875 287.253906 166.78125 C 287.164062 166.832031 287.066406 166.855469 286.96875 166.855469 " fill-opacity="1" fill-rule="nonzero"/><path fill="#f1eaff" d="M 255.492188 163.167969 L 270.429688 163.167969 C 271.058594 163.167969 271.644531 163.480469 271.980469 163.996094 L 277.585938 180.5 L 290.804688 180.5 L 290.804688 180.75 C 290.804688 181.527344 290.171875 182.160156 289.394531 182.160156 L 261.335938 182.160156 C 260.554688 182.160156 259.925781 181.527344 259.925781 180.75 L 259.925781 180.53125 L 254.859375 165.101562 C 254.785156 164.867188 254.6875 164.636719 254.601562 164.40625 C 254.378906 163.824219 254.816406 163.167969 255.492188 163.167969 " fill-opacity="1" fill-rule="nonzero"/><path fill="#000000" d="M 255.492188 163.484375 C 255.277344 163.484375 255.085938 163.582031 254.964844 163.753906 C 254.851562 163.917969 254.828125 164.113281 254.894531 164.292969 L 254.96875 164.484375 C 255.035156 164.652344 255.101562 164.824219 255.160156 165 L 260.226562 180.433594 C 260.234375 180.464844 260.242188 180.496094 260.242188 180.53125 L 260.242188 180.75 C 260.242188 181.351562 260.734375 181.84375 261.335938 181.84375 L 289.394531 181.84375 C 289.972656 181.84375 290.449219 181.390625 290.488281 180.816406 L 277.585938 180.816406 C 277.449219 180.816406 277.328125 180.730469 277.285156 180.601562 L 271.695312 164.140625 C 271.414062 163.726562 270.941406 163.484375 270.429688 163.484375 Z M 289.394531 182.476562 L 261.335938 182.476562 C 260.382812 182.476562 259.609375 181.699219 259.609375 180.75 L 259.609375 180.582031 L 254.558594 165.199219 C 254.507812 165.039062 254.445312 164.882812 254.378906 164.714844 L 254.304688 164.519531 C 254.164062 164.148438 254.214844 163.726562 254.445312 163.394531 C 254.683594 163.050781 255.066406 162.851562 255.492188 162.851562 L 270.429688 162.851562 C 271.171875 162.851562 271.847656 163.214844 272.246094 163.828125 C 272.257812 163.847656 272.269531 163.871094 272.277344 163.898438 L 277.808594 180.183594 L 290.804688 180.183594 C 290.980469 180.183594 291.121094 180.328125 291.121094 180.5 L 291.121094 180.75 C 291.121094 181.699219 290.347656 182.476562 289.394531 182.476562 " fill-opacity="1" fill-rule="nonzero"/><path fill="#ffffff" d="M 266.484375 171.625 C 266.691406 172.324219 266.371094 173.039062 265.765625 173.222656 C 265.15625 173.40625 264.492188 172.988281 264.28125 172.289062 C 264.074219 171.589844 264.394531 170.875 265 170.691406 C 265.609375 170.507812 266.273438 170.925781 266.484375 171.625 " fill-opacity="1" fill-rule="nonzero"/><path fill="#ffffff" d="M 274.519531 180.847656 L 264.785156 180.847656 C 264.609375 180.847656 264.46875 180.707031 264.46875 180.53125 C 264.46875 180.355469 264.609375 180.214844 264.785156 180.214844 L 274.519531 180.214844 C 274.695312 180.214844 274.835938 180.355469 274.835938 180.53125 C 274.835938 180.707031 274.695312 180.847656 274.519531 180.847656 " fill-opacity="1" fill-rule="nonzero"/><path fill="#ffffff" d="M 261.984375 180.847656 L 260.609375 180.847656 C 260.433594 180.847656 260.292969 180.707031 260.292969 180.53125 C 260.292969 180.355469 260.433594 180.214844 260.609375 180.214844 L 261.984375 180.214844 C 262.160156 180.214844 262.300781 180.355469 262.300781 180.53125 C 262.300781 180.707031 262.160156 180.847656 261.984375 180.847656 " fill-opacity="1" fill-rule="nonzero"/><path fill="#ffffff" d="M 282.121094 179.050781 C 282.972656 177.714844 284.542969 177.035156 285.40625 177.085938 C 289.332031 177.304688 296.898438 173.332031 302.527344 171.414062 C 303.5 169.996094 302.792969 166.890625 303.234375 163.167969 L 310.414062 163.789062 C 311.128906 167.339844 310.855469 173.363281 310.234375 174.164062 C 309.824219 175.140625 307.59375 177.980469 303.058594 180.191406 C 295.96875 183.648438 286.480469 181.386719 286.480469 181.386719 C 286.480469 181.386719 281.667969 183.933594 279.589844 181.167969 C 279.589844 181.167969 281.265625 180.390625 282.121094 179.050781 " fill-opacity="1" fill-rule="nonzero"/><path fill="#000000" d="M 282.117188 179.050781 L 282.121094 179.050781 Z M 280.089844 181.261719 C 282.101562 183.308594 286.285156 181.132812 286.332031 181.109375 C 286.398438 181.074219 286.476562 181.0625 286.550781 181.082031 C 286.644531 181.105469 296.015625 183.273438 302.917969 179.90625 C 307.253906 177.792969 309.523438 175.042969 309.945312 174.039062 C 309.953125 174.015625 309.96875 173.992188 309.988281 173.96875 C 310.472656 173.34375 310.832031 167.777344 310.148438 164.082031 L 303.515625 163.511719 C 303.371094 164.898438 303.382812 166.199219 303.390625 167.355469 C 303.40625 169.207031 303.417969 170.671875 302.785156 171.59375 C 302.746094 171.648438 302.691406 171.691406 302.628906 171.714844 C 300.847656 172.320312 298.828125 173.152344 296.875 173.957031 C 292.578125 175.726562 288.140625 177.554688 285.386719 177.398438 C 284.648438 177.355469 283.1875 177.96875 282.382812 179.222656 C 281.730469 180.246094 280.652344 180.945312 280.089844 181.261719 Z M 282.472656 182.78125 C 281.3125 182.78125 280.148438 182.433594 279.339844 181.359375 C 279.28125 181.28125 279.261719 181.183594 279.285156 181.089844 C 279.308594 181 279.371094 180.921875 279.457031 180.882812 C 279.472656 180.875 281.058594 180.125 281.851562 178.882812 C 282.730469 177.5 284.382812 176.710938 285.425781 176.769531 C 288.03125 176.914062 292.402344 175.113281 296.632812 173.371094 C 298.558594 172.578125 300.546875 171.761719 302.320312 171.148438 C 302.785156 170.378906 302.773438 169.039062 302.757812 167.359375 C 302.75 166.101562 302.738281 164.675781 302.921875 163.132812 C 302.941406 162.960938 303.09375 162.84375 303.261719 162.855469 L 310.441406 163.472656 C 310.582031 163.488281 310.695312 163.589844 310.722656 163.726562 C 311.425781 167.21875 311.191406 173.289062 310.511719 174.316406 C 310.113281 175.210938 307.992188 178.136719 303.195312 180.476562 C 296.511719 183.734375 287.632812 181.964844 286.519531 181.722656 C 286.0625 181.949219 284.269531 182.78125 282.472656 182.78125 " fill-opacity="1" fill-rule="nonzero"/><path fill="#000000" d="M 280.4375 181.605469 C 280.390625 181.605469 280.359375 181.601562 280.351562 181.601562 C 280.179688 181.585938 280.050781 181.429688 280.070312 181.257812 C 280.089844 181.085938 280.238281 180.957031 280.414062 180.972656 C 280.441406 180.976562 281.636719 181.03125 283.515625 179.324219 C 283.644531 179.207031 283.847656 179.214844 283.964844 179.34375 C 284.082031 179.472656 284.070312 179.675781 283.945312 179.792969 C 282.078125 181.484375 280.773438 181.605469 280.4375 181.605469 " fill-opacity="1" fill-rule="nonzero"/><path fill="#000000" d="M 281.6875 182.257812 C 281.59375 182.257812 281.539062 182.25 281.53125 182.246094 C 281.355469 182.21875 281.242188 182.058594 281.265625 181.886719 C 281.292969 181.714844 281.453125 181.597656 281.625 181.621094 C 281.652344 181.625 282.695312 181.722656 284.339844 180.296875 C 284.472656 180.179688 284.671875 180.195312 284.785156 180.324219 C 284.898438 180.457031 284.886719 180.65625 284.753906 180.773438 C 283.207031 182.117188 282.085938 182.257812 281.6875 182.257812 " fill-opacity="1" fill-rule="nonzero"/><path fill="#ffffff" d="M 311.3125 166.367188 C 311.359375 166.371094 311.398438 166.332031 311.398438 166.285156 C 311.347656 165.46875 310.960938 159.394531 310.414062 156.945312 C 309.175781 151.414062 301.550781 151.40625 301.550781 151.40625 C 302.953125 156.144531 303.410156 160.6875 302.964844 165.046875 C 302.9375 165.316406 303.128906 165.554688 303.394531 165.582031 L 311.3125 166.367188 " fill-opacity="1" fill-rule="nonzero"/><path fill="#000000" d="M 301.976562 151.742188 C 303.277344 156.308594 303.714844 160.792969 303.277344 165.078125 C 303.273438 165.125 303.285156 165.171875 303.316406 165.207031 C 303.34375 165.242188 303.382812 165.261719 303.425781 165.265625 L 311.0625 166.023438 C 310.972656 164.613281 310.601562 159.25 310.101562 157.015625 C 309.101562 152.535156 303.566406 151.847656 301.976562 151.742188 Z M 311.339844 166.050781 Z M 311.082031 166.304688 Z M 311.320312 166.683594 C 311.304688 166.683594 311.292969 166.683594 311.277344 166.679688 L 303.363281 165.894531 C 303.152344 165.875 302.960938 165.773438 302.824219 165.609375 C 302.691406 165.441406 302.625 165.230469 302.648438 165.015625 C 303.089844 160.679688 302.621094 156.132812 301.246094 151.496094 L 301.125 151.089844 L 301.550781 151.089844 C 301.628906 151.089844 309.445312 151.164062 310.71875 156.875 C 311.273438 159.359375 311.667969 165.566406 311.710938 166.265625 C 311.71875 166.378906 311.675781 166.492188 311.59375 166.574219 C 311.519531 166.644531 311.421875 166.683594 311.320312 166.683594 " fill-opacity="1" fill-rule="nonzero"/><path fill="#ffffff" d="M 297.785156 150.070312 L 296.015625 144.300781 L 292.328125 146.261719 L 293.390625 149.902344 C 293.542969 150.433594 293.316406 150.996094 292.839844 151.277344 L 292.414062 151.53125 C 292.195312 151.660156 292.257812 151.996094 292.511719 152.035156 L 294.457031 152.351562 C 296.320312 152.652344 298.234375 152.332031 299.898438 151.441406 C 300.136719 151.3125 300.097656 150.957031 299.835938 150.886719 C 299.035156 150.671875 297.863281 150.316406 297.785156 150.070312 " fill-opacity="1" fill-rule="nonzero"/><path fill="#000000" d="M 299.753906 151.195312 L 299.757812 151.195312 Z M 292.675781 151.742188 L 294.503906 152.039062 C 296.277344 152.324219 298.125 152.023438 299.710938 151.183594 C 297.628906 150.617188 297.542969 150.347656 297.484375 150.167969 C 297.484375 150.164062 297.484375 150.164062 297.484375 150.164062 L 295.824219 144.761719 L 292.703125 146.421875 L 293.695312 149.816406 C 293.882812 150.484375 293.597656 151.199219 293.003906 151.550781 Z M 295.820312 152.777344 C 295.347656 152.777344 294.871094 152.738281 294.40625 152.664062 L 292.460938 152.347656 C 292.210938 152.308594 292.019531 152.121094 291.972656 151.875 C 291.925781 151.628906 292.035156 151.386719 292.253906 151.257812 L 292.679688 151.003906 C 293.03125 150.800781 293.195312 150.382812 293.085938 149.992188 L 292.023438 146.351562 C 291.984375 146.210938 292.046875 146.054688 292.179688 145.984375 L 295.863281 144.023438 C 295.949219 143.980469 296.046875 143.972656 296.132812 144.007812 C 296.222656 144.046875 296.289062 144.121094 296.316406 144.207031 L 298.074219 149.929688 C 298.191406 150.027344 298.691406 150.253906 299.917969 150.582031 C 300.164062 150.648438 300.339844 150.855469 300.367188 151.105469 C 300.398438 151.359375 300.273438 151.601562 300.046875 151.71875 C 298.75 152.414062 297.285156 152.777344 295.820312 152.777344 " fill-opacity="1" fill-rule="nonzero"/><path fill="#000000" d="M 287.691406 140.402344 C 288.640625 139.894531 287.871094 141.464844 290.996094 138.746094 C 292.242188 137.667969 292.277344 139.675781 292.601562 139.398438 C 293.796875 138.363281 294.128906 138.097656 294.878906 137.964844 C 295.378906 137.875 296.71875 138.320312 296.84375 138.988281 C 297.257812 141.167969 296.152344 141.050781 296.335938 143.035156 C 296.46875 144.425781 296.296875 144.945312 295.898438 145.34375 C 295.492188 145.742188 294.835938 145.257812 294.359375 145.660156 C 293.746094 146.1875 294.441406 147.34375 293.984375 148.167969 C 293.695312 148.6875 292.753906 149.300781 290.78125 149.261719 C 290.460938 149.253906 290.191406 149.019531 290.140625 148.703125 C 290.078125 148.292969 289.996094 147.78125 289.960938 147.28125 C 289.792969 144.90625 290.304688 144.113281 289.804688 143.710938 C 289.039062 143.089844 287.726562 144.253906 287.175781 143.710938 C 286.601562 143.144531 286.394531 141.09375 287.691406 140.402344 " fill-opacity="1" fill-rule="nonzero"/><path fill="#ffffff" d="M 292.683594 142.320312 L 292.640625 142.96875 C 292.621094 143.277344 292.621094 143.582031 292.644531 143.886719 C 292.6875 144.460938 292.71875 145.449219 292.746094 146.003906 C 292.828125 147.785156 290.226562 146.984375 290.226562 146.984375 L 289.910156 146.632812 L 289.613281 146.644531 C 289.558594 146.648438 289.5 146.636719 289.449219 146.609375 C 289.320312 146.546875 289.257812 146.410156 289.28125 146.277344 C 289.402344 145.558594 289.617188 143.964844 289.390625 142.730469 C 289.390625 142.730469 290.792969 141.585938 292.683594 142.320312 " fill-opacity="1" fill-rule="nonzero"/><path fill="#000000" d="M 290.398438 146.707031 C 290.824219 146.824219 291.773438 146.984375 292.203125 146.652344 C 292.367188 146.523438 292.441406 146.316406 292.429688 146.015625 C 292.421875 145.863281 292.414062 145.671875 292.40625 145.464844 C 292.382812 144.957031 292.359375 144.320312 292.328125 143.910156 C 292.304688 143.59375 292.304688 143.269531 292.324219 142.949219 L 292.351562 142.539062 C 291.078125 142.140625 290.09375 142.644531 289.734375 142.875 C 289.910156 144.09375 289.722656 145.546875 289.59375 146.332031 L 289.894531 146.316406 C 289.992188 146.3125 290.082031 146.351562 290.144531 146.421875 Z M 291.402344 147.484375 C 290.792969 147.484375 290.230469 147.320312 290.132812 147.289062 C 290.078125 147.269531 290.027344 147.238281 289.988281 147.199219 L 289.773438 146.953125 L 289.628906 146.960938 C 289.507812 146.964844 289.398438 146.941406 289.300781 146.890625 C 289.054688 146.765625 288.921875 146.496094 288.96875 146.226562 C 289.074219 145.59375 289.300781 143.992188 289.078125 142.789062 C 289.058594 142.675781 289.101562 142.558594 289.191406 142.484375 C 289.253906 142.433594 290.757812 141.234375 292.796875 142.027344 C 292.925781 142.078125 293.007812 142.203125 292.996094 142.339844 L 292.957031 142.992188 C 292.9375 143.28125 292.9375 143.578125 292.957031 143.863281 C 292.988281 144.285156 293.015625 144.925781 293.035156 145.441406 C 293.046875 145.644531 293.054688 145.832031 293.0625 145.988281 C 293.089844 146.625 292.820312 146.972656 292.589844 147.152344 C 292.261719 147.40625 291.820312 147.484375 291.402344 147.484375 " fill-opacity="1" fill-rule="nonzero"/><path fill="#ffffff" d="M 293.113281 144.320312 C 293.113281 144.320312 293.210938 142.761719 293.910156 142.953125 C 294.605469 143.148438 294.453125 144.863281 293.113281 144.320312 " fill-opacity="1" fill-rule="nonzero"/><path fill="#000000" d="M 289.773438 144.167969 L 289.777344 144.167969 Z M 290.136719 144.308594 C 290.136719 144.3125 290.074219 144.308594 290.011719 144.378906 C 289.996094 144.394531 289.976562 144.492188 290.070312 144.734375 C 290.257812 145.214844 290.417969 145.304688 290.464844 145.320312 C 290.480469 145.324219 290.511719 145.335938 290.570312 145.308594 C 290.609375 145.183594 290.585938 144.746094 290.136719 144.308594 Z M 290.5 145.957031 C 290.417969 145.957031 290.335938 145.945312 290.253906 145.914062 C 289.9375 145.804688 289.6875 145.492188 289.480469 144.964844 C 289.417969 144.800781 289.226562 144.304688 289.539062 143.957031 C 289.691406 143.789062 289.894531 143.691406 290.105469 143.683594 C 290.289062 143.675781 290.460938 143.742188 290.578125 143.855469 C 291.113281 144.378906 291.253906 144.964844 291.207031 145.339844 C 291.175781 145.574219 291.078125 145.75 290.925781 145.839844 C 290.785156 145.917969 290.644531 145.957031 290.5 145.957031 " fill-opacity="1" fill-rule="nonzero"/><path fill="#000000" d="M 290.027344 144.316406 C 289.894531 144.316406 289.769531 144.230469 289.726562 144.097656 C 289.675781 143.929688 289.765625 143.753906 289.933594 143.699219 L 293.15625 142.683594 C 293.324219 142.628906 293.5 142.722656 293.550781 142.886719 C 293.605469 143.054688 293.511719 143.230469 293.347656 143.285156 L 290.125 144.304688 C 290.09375 144.3125 290.0625 144.316406 290.027344 144.316406 " fill-opacity="1" fill-rule="nonzero"/><path fill="#000000" d="M 289.238281 145.574219 Z M 289.328125 145.59375 Z M 289.234375 146.207031 C 289.179688 146.207031 289.007812 146.203125 288.746094 145.914062 C 288.625 145.78125 288.230469 145.289062 288.292969 144.679688 C 288.3125 144.476562 288.40625 144.308594 288.566406 144.195312 C 288.898438 143.957031 289.390625 144.0625 289.488281 144.085938 C 289.65625 144.128906 289.761719 144.300781 289.71875 144.46875 C 289.679688 144.636719 289.511719 144.742188 289.339844 144.699219 C 289.164062 144.660156 288.960938 144.675781 288.925781 144.714844 C 288.925781 144.714844 288.921875 144.722656 288.921875 144.742188 C 288.882812 145.125 289.203125 145.503906 289.3125 145.582031 C 289.453125 145.617188 289.550781 145.742188 289.550781 145.890625 C 289.550781 146.066406 289.410156 146.207031 289.234375 146.207031 " fill-opacity="1" fill-rule="nonzero"/><path fill="#ffffff" d="M 288.726562 222.445312 L 297.027344 187.984375 L 305.328125 222.445312 L 307.316406 222.445312 L 298.195312 184.304688 L 295.859375 184.300781 L 286.738281 222.445312 L 288.726562 222.445312 " fill-opacity="1" fill-rule="nonzero"/><path fill="#000000" d="M 305.574219 222.128906 L 306.914062 222.128906 L 297.945312 184.621094 L 296.105469 184.617188 L 287.136719 222.128906 L 288.476562 222.128906 L 297.027344 186.636719 Z M 307.71875 222.761719 L 305.078125 222.761719 L 297.027344 189.335938 L 288.976562 222.761719 L 286.335938 222.761719 L 295.609375 183.984375 L 298.445312 183.988281 L 298.503906 184.230469 L 307.71875 222.761719 " fill-opacity="1" fill-rule="nonzero"/><path fill="#ffffff" d="M 241.582031 222.328125 L 249.882812 187.867188 L 258.183594 222.328125 L 260.171875 222.328125 L 251.050781 184.1875 L 248.710938 184.183594 L 239.59375 222.328125 L 241.582031 222.328125 " fill-opacity="1" fill-rule="nonzero"/><path fill="#000000" d="M 258.429688 222.011719 L 259.769531 222.011719 L 250.800781 184.5 L 248.960938 184.5 L 239.992188 222.011719 L 241.332031 222.011719 L 249.882812 186.515625 Z M 260.570312 222.644531 L 257.933594 222.644531 L 249.882812 189.21875 L 241.832031 222.644531 L 239.191406 222.644531 L 248.464844 183.867188 L 251.300781 183.871094 L 251.359375 184.113281 L 260.570312 222.644531 " fill-opacity="1" fill-rule="nonzero"/><path fill="#ffffff" d="M 305.941406 184.964844 L 240.476562 184.964844 L 240.476562 181.851562 L 305.941406 181.851562 L 305.941406 184.964844 " fill-opacity="1" fill-rule="nonzero"/><path fill="#000000" d="M 240.792969 184.648438 L 305.625 184.648438 L 305.625 182.167969 L 240.792969 182.167969 Z M 306.257812 185.28125 L 240.160156 185.28125 L 240.160156 181.535156 L 306.257812 181.535156 L 306.257812 185.28125 " fill-opacity="1" fill-rule="nonzero"/><path fill="#8c52ff" d="M 286.117188 184.550781 C 285.945312 184.550781 285.804688 184.410156 285.804688 184.234375 L 285.804688 182.5 C 285.804688 182.324219 285.945312 182.183594 286.117188 182.183594 C 286.292969 182.183594 286.433594 182.324219 286.433594 182.5 L 286.433594 184.234375 C 286.433594 184.410156 286.292969 184.550781 286.117188 184.550781 " fill-opacity="1" fill-rule="nonzero"/><path fill="#000000" d="M 241.347656 145.777344 C 241.347656 152.683594 235.746094 158.285156 228.84375 158.285156 C 221.9375 158.285156 216.339844 152.683594 216.339844 145.777344 C 216.339844 138.867188 221.9375 133.265625 228.84375 133.265625 C 235.746094 133.265625 241.347656 138.867188 241.347656 145.777344 " fill-opacity="1" fill-rule="nonzero"/><path fill="#d2c7ff" d="M 241.507812 145.40625 C 241.507812 152.109375 236.078125 157.542969 229.375 157.542969 C 222.675781 157.542969 217.246094 152.109375 217.246094 145.40625 C 217.246094 138.699219 222.675781 133.265625 229.375 133.265625 C 236.078125 133.265625 241.507812 138.699219 241.507812 145.40625 " fill-opacity="1" fill-rule="nonzero"/><path fill="#000000" d="M 229.375 133.582031 C 222.863281 133.582031 217.558594 138.886719 217.558594 145.40625 C 217.558594 151.921875 222.863281 157.226562 229.375 157.226562 C 235.890625 157.226562 241.191406 151.921875 241.191406 145.40625 C 241.191406 138.886719 235.890625 133.582031 229.375 133.582031 Z M 229.375 157.859375 C 222.511719 157.859375 216.929688 152.273438 216.929688 145.40625 C 216.929688 138.539062 222.511719 132.949219 229.375 132.949219 C 236.242188 132.949219 241.824219 138.539062 241.824219 145.40625 C 241.824219 152.273438 236.242188 157.859375 229.375 157.859375 " fill-opacity="1" fill-rule="nonzero"/><path fill="#ffffff" d="M 239.558594 145.40625 C 239.558594 151.03125 235 155.589844 229.375 155.589844 C 223.753906 155.589844 219.195312 151.03125 219.195312 145.40625 C 219.195312 139.777344 223.753906 135.21875 229.375 135.21875 C 235 135.21875 239.558594 139.777344 239.558594 145.40625 " fill-opacity="1" fill-rule="nonzero"/><path fill="#000000" d="M 237.9375 151.238281 C 237.878906 151.238281 237.816406 151.222656 237.765625 151.1875 C 237.617188 151.09375 237.574219 150.898438 237.671875 150.75 C 238.183594 149.957031 238.578125 149.097656 238.84375 148.195312 C 238.890625 148.027344 239.066406 147.933594 239.234375 147.980469 C 239.402344 148.03125 239.5 148.207031 239.449219 148.375 C 239.167969 149.335938 238.746094 150.25 238.203125 151.09375 C 238.140625 151.1875 238.039062 151.238281 237.9375 151.238281 " fill-opacity="1" fill-rule="nonzero"/><path fill="#000000" d="M 238.542969 141.277344 C 238.425781 141.277344 238.3125 141.210938 238.257812 141.101562 C 236.589844 137.667969 233.1875 135.535156 229.375 135.535156 C 226.246094 135.535156 223.269531 137.042969 221.414062 139.574219 C 221.3125 139.714844 221.113281 139.746094 220.972656 139.644531 C 220.832031 139.539062 220.800781 139.339844 220.90625 139.199219 C 222.878906 136.507812 226.042969 134.902344 229.375 134.902344 C 233.371094 134.902344 237.082031 137.226562 238.824219 140.824219 C 238.902344 140.980469 238.835938 141.167969 238.679688 141.246094 C 238.632812 141.265625 238.585938 141.277344 238.542969 141.277344 " fill-opacity="1" fill-rule="nonzero"/><path fill="#000000" d="M 229.375 155.90625 C 223.589844 155.90625 218.878906 151.195312 218.878906 145.40625 C 218.878906 143.605469 219.34375 141.832031 220.214844 140.269531 C 220.300781 140.121094 220.496094 140.066406 220.648438 140.148438 C 220.800781 140.234375 220.851562 140.429688 220.769531 140.582031 C 219.945312 142.046875 219.511719 143.714844 219.511719 145.40625 C 219.511719 150.847656 223.9375 155.273438 229.375 155.273438 C 229.550781 155.273438 229.691406 155.414062 229.691406 155.589844 C 229.691406 155.765625 229.550781 155.90625 229.375 155.90625 " fill-opacity="1" fill-rule="nonzero"/><path fill="#8c52ff" d="M 228.441406 152.597656 L 228.441406 150.921875 C 227.261719 150.871094 226.117188 150.550781 225.449219 150.164062 L 225.976562 148.101562 C 226.714844 148.507812 227.753906 148.878906 228.902344 148.878906 C 229.90625 148.878906 230.59375 148.488281 230.59375 147.785156 C 230.59375 147.113281 230.027344 146.691406 228.726562 146.25 C 226.839844 145.617188 225.554688 144.734375 225.554688 143.023438 C 225.554688 141.472656 226.644531 140.257812 228.53125 139.886719 L 228.53125 138.214844 L 230.257812 138.214844 L 230.257812 139.765625 C 231.4375 139.816406 232.230469 140.0625 232.8125 140.347656 L 232.300781 142.335938 C 231.84375 142.144531 231.03125 141.738281 229.765625 141.738281 C 228.621094 141.738281 228.25 142.230469 228.25 142.726562 C 228.25 143.308594 228.867188 143.675781 230.363281 144.242188 C 232.460938 144.980469 233.304688 145.949219 233.304688 147.539062 C 233.304688 149.105469 232.195312 150.445312 230.167969 150.800781 L 230.167969 152.597656 L 228.441406 152.597656 " fill-opacity="1" fill-rule="nonzero"/><path fill="#000000" d="M 242.667969 53.589844 C 242.550781 53.589844 242.4375 53.527344 242.382812 53.414062 C 242.308594 53.257812 242.371094 53.070312 242.527344 52.992188 L 243.996094 52.273438 C 244.152344 52.199219 244.34375 52.261719 244.417969 52.417969 C 244.496094 52.574219 244.429688 52.765625 244.273438 52.84375 L 242.804688 53.558594 C 242.761719 53.582031 242.714844 53.589844 242.667969 53.589844 " fill-opacity="1" fill-rule="nonzero"/><path fill="#000000" d="M 239.25 55.265625 C 239.132812 55.265625 239.019531 55.199219 238.964844 55.089844 C 238.886719 54.929688 238.953125 54.742188 239.109375 54.664062 L 240.578125 53.945312 C 240.734375 53.871094 240.921875 53.933594 241 54.09375 C 241.078125 54.25 241.011719 54.4375 240.855469 54.515625 L 239.386719 55.230469 C 239.34375 55.253906 239.296875 55.265625 239.25 55.265625 " fill-opacity="1" fill-rule="nonzero"/><path fill="#000000" d="M 241.214844 53.09375 C 241.097656 53.09375 240.984375 53.03125 240.929688 52.917969 L 240.210938 51.449219 C 240.136719 51.292969 240.199219 51.101562 240.359375 51.023438 C 240.515625 50.949219 240.703125 51.015625 240.78125 51.171875 L 241.5 52.640625 C 241.574219 52.796875 241.507812 52.984375 241.351562 53.0625 C 241.308594 53.082031 241.261719 53.09375 241.214844 53.09375 " fill-opacity="1" fill-rule="nonzero"/><path fill="#000000" d="M 242.886719 56.515625 C 242.769531 56.515625 242.65625 56.449219 242.601562 56.335938 L 241.886719 54.867188 C 241.808594 54.710938 241.871094 54.523438 242.03125 54.445312 C 242.1875 54.371094 242.375 54.433594 242.453125 54.589844 L 243.171875 56.058594 C 243.246094 56.214844 243.183594 56.40625 243.027344 56.484375 C 242.980469 56.503906 242.933594 56.515625 242.886719 56.515625 " fill-opacity="1" fill-rule="nonzero"/><path fill="#000000" d="M 229.140625 54.339844 C 228.753906 54.339844 228.371094 54.535156 228.152344 54.890625 C 227.988281 55.148438 227.9375 55.457031 228.007812 55.75 C 228.078125 56.035156 228.253906 56.277344 228.503906 56.429688 C 229.035156 56.75 229.742188 56.578125 230.074219 56.039062 C 230.238281 55.78125 230.289062 55.472656 230.21875 55.179688 C 230.152344 54.894531 229.972656 54.652344 229.722656 54.5 C 229.539062 54.390625 229.339844 54.339844 229.140625 54.339844 Z M 229.082031 57.222656 C 228.773438 57.222656 228.460938 57.140625 228.179688 56.972656 C 227.78125 56.730469 227.5 56.347656 227.394531 55.894531 C 227.28125 55.4375 227.363281 54.960938 227.613281 54.554688 C 228.128906 53.726562 229.222656 53.460938 230.046875 53.957031 C 230.445312 54.199219 230.726562 54.578125 230.832031 55.03125 C 230.945312 55.492188 230.863281 55.96875 230.613281 56.375 C 230.273438 56.921875 229.679688 57.222656 229.082031 57.222656 " fill-opacity="1" fill-rule="nonzero"/><path fill="#000000" d="M 203.652344 205.949219 C 203.28125 205.949219 202.910156 206.128906 202.6875 206.460938 C 202.511719 206.71875 202.449219 207.019531 202.511719 207.316406 C 202.566406 207.605469 202.734375 207.855469 202.984375 208.015625 C 203.5 208.355469 204.210938 208.207031 204.566406 207.683594 C 204.738281 207.429688 204.800781 207.128906 204.742188 206.832031 C 204.683594 206.542969 204.515625 206.292969 204.269531 206.132812 C 204.082031 206.007812 203.867188 205.949219 203.652344 205.949219 Z M 203.597656 208.832031 C 203.265625 208.832031 202.929688 208.738281 202.636719 208.542969 C 202.246094 208.289062 201.980469 207.898438 201.890625 207.441406 C 201.796875 206.976562 201.894531 206.503906 202.164062 206.109375 C 202.710938 205.300781 203.808594 205.074219 204.617188 205.601562 C 205.003906 205.859375 205.269531 206.25 205.363281 206.707031 C 205.453125 207.171875 205.359375 207.644531 205.089844 208.039062 C 204.742188 208.550781 204.171875 208.832031 203.597656 208.832031 " fill-opacity="1" fill-rule="nonzero"/><path fill="#000000" d="M 230.703125 216.882812 C 230.6875 216.882812 230.675781 216.882812 230.660156 216.882812 C 222.714844 215.773438 215.039062 213.339844 207.835938 209.65625 C 207.683594 209.574219 207.621094 209.386719 207.699219 209.230469 C 207.78125 209.074219 207.96875 209.011719 208.125 209.09375 C 215.261719 212.746094 222.875 215.15625 230.746094 216.253906 C 230.917969 216.277344 231.039062 216.4375 231.015625 216.613281 C 230.992188 216.769531 230.859375 216.882812 230.703125 216.882812 " fill-opacity="1" fill-rule="nonzero"/><path fill="#d2c7ff" d="M 214.683594 190.324219 C 214.683594 191.949219 213.332031 193.261719 211.664062 193.261719 C 210 193.261719 208.648438 191.949219 208.648438 190.324219 C 208.648438 188.699219 210 187.382812 211.664062 187.382812 C 213.332031 187.382812 214.683594 188.699219 214.683594 190.324219 " fill-opacity="1" fill-rule="nonzero"/><path fill="#000000" d="M 222.9375 204.308594 C 222.859375 204.308594 222.78125 204.28125 222.71875 204.226562 C 222.59375 204.105469 222.585938 203.90625 222.707031 203.777344 L 223.820312 202.585938 C 223.941406 202.457031 224.140625 202.449219 224.269531 202.570312 C 224.394531 202.6875 224.402344 202.886719 224.285156 203.015625 L 223.167969 204.210938 C 223.105469 204.277344 223.019531 204.308594 222.9375 204.308594 " fill-opacity="1" fill-rule="nonzero"/><path fill="#000000" d="M 220.335938 207.089844 C 220.257812 207.089844 220.179688 207.0625 220.121094 207.007812 C 219.992188 206.886719 219.984375 206.6875 220.105469 206.558594 L 221.21875 205.367188 C 221.339844 205.238281 221.539062 205.230469 221.667969 205.351562 C 221.796875 205.46875 221.800781 205.667969 221.683594 205.796875 L 220.566406 206.992188 C 220.503906 207.058594 220.417969 207.089844 220.335938 207.089844 " fill-opacity="1" fill-rule="nonzero"/><path fill="#000000" d="M 221.402344 204.363281 C 221.324219 204.363281 221.246094 204.332031 221.183594 204.277344 L 219.992188 203.160156 C 219.863281 203.039062 219.855469 202.839844 219.976562 202.710938 C 220.097656 202.585938 220.296875 202.578125 220.421875 202.695312 L 221.617188 203.816406 C 221.742188 203.933594 221.75 204.132812 221.632812 204.261719 C 221.570312 204.328125 221.484375 204.363281 221.402344 204.363281 " fill-opacity="1" fill-rule="nonzero"/><path fill="#000000" d="M 224.179688 206.964844 C 224.101562 206.964844 224.027344 206.933594 223.964844 206.878906 L 222.769531 205.761719 C 222.644531 205.640625 222.636719 205.441406 222.757812 205.3125 C 222.875 205.1875 223.074219 205.179688 223.203125 205.296875 L 224.398438 206.417969 C 224.523438 206.535156 224.53125 206.734375 224.410156 206.863281 C 224.347656 206.929688 224.265625 206.964844 224.179688 206.964844 " fill-opacity="1" fill-rule="nonzero"/></svg>