<svg xmlns="http://www.w3.org/2000/svg" xmlns:xlink="http://www.w3.org/1999/xlink" width="500" zoomAndPan="magnify" viewBox="0 0 375 374.999991" height="500" preserveAspectRatio="xMidYMid meet" version="1.0"><defs><g/><clipPath id="ca2a5c39cf"><path d="M 0 166.519531 L 208.480469 166.519531 L 208.480469 375 L 0 375 Z M 0 166.519531 " clip-rule="nonzero"/></clipPath><clipPath id="c1d43803b1"><path d="M 0 166.519531 C -115.140625 166.519531 -208.480469 259.859375 -208.480469 375 C -208.480469 490.140625 -115.140625 583.480469 0 583.480469 C 115.140625 583.480469 208.480469 490.140625 208.480469 375 C 208.480469 259.859375 115.140625 166.519531 0 166.519531 Z M 0 166.519531 " clip-rule="nonzero"/></clipPath><clipPath id="17e285c95e"><path d="M 0 268.324219 L 106.675781 268.324219 L 106.675781 375 L 0 375 Z M 0 268.324219 " clip-rule="nonzero"/></clipPath><clipPath id="6b9b8302d7"><path d="M 0 268.324219 C -58.914062 268.324219 -106.675781 316.085938 -106.675781 375 C -106.675781 433.914062 -58.914062 481.675781 0 481.675781 C 58.914062 481.675781 106.675781 433.914062 106.675781 375 C 106.675781 316.085938 58.914062 268.324219 0 268.324219 Z M 0 268.324219 " clip-rule="nonzero"/></clipPath><clipPath id="6f5afe845c"><path d="M 39.28125 259.597656 L 118.78125 259.597656 L 118.78125 339 L 39.28125 339 Z M 39.28125 259.597656 " clip-rule="nonzero"/></clipPath><clipPath id="430a803d74"><path d="M 97 259.597656 L 118.78125 259.597656 L 118.78125 282 L 97 282 Z M 97 259.597656 " clip-rule="nonzero"/></clipPath><clipPath id="2cdf1f2a30"><path d="M 76 259.597656 L 118.78125 259.597656 L 118.78125 302 L 76 302 Z M 76 259.597656 " clip-rule="nonzero"/></clipPath></defs><rect x="-37.5" width="450" fill="#ffffff" y="-37.499999" height="449.999989" fill-opacity="1"/><rect x="-37.5" width="450" fill="#ffffff" y="-37.499999" height="449.999989" fill-opacity="1"/><g clip-path="url(#ca2a5c39cf)"><g clip-path="url(#c1d43803b1)"><path fill="#d2c7ff" d="M -208.480469 166.519531 L 208.480469 166.519531 L 208.480469 583.480469 L -208.480469 583.480469 Z M -208.480469 166.519531 " fill-opacity="1" fill-rule="nonzero"/></g></g><g clip-path="url(#17e285c95e)"><g clip-path="url(#6b9b8302d7)"><path fill="#8c52ff" d="M -106.675781 268.324219 L 106.675781 268.324219 L 106.675781 481.675781 L -106.675781 481.675781 Z M -106.675781 268.324219 " fill-opacity="1" fill-rule="nonzero"/></g></g><g fill="#737373" fill-opacity="1"><g transform="translate(19.664066, 137.033897)"><g><path d="M 4.734375 0.125 C 3.503906 0.125 2.59375 -0.164062 2 -0.75 C 1.40625 -1.332031 1.109375 -2.195312 1.109375 -3.34375 L 1.109375 -8.921875 L 2.828125 -8.921875 L 2.828125 -3.359375 C 2.828125 -2.703125 2.984375 -2.210938 3.296875 -1.890625 C 3.609375 -1.566406 4.085938 -1.40625 4.734375 -1.40625 C 5.992188 -1.40625 6.625 -2.054688 6.625 -3.359375 L 6.625 -8.921875 L 8.359375 -8.921875 L 8.359375 -3.34375 C 8.359375 -2.195312 8.0625 -1.332031 7.46875 -0.75 C 6.875 -0.164062 5.960938 0.125 4.734375 0.125 Z M 4.734375 0.125 "/></g></g></g><g fill="#737373" fill-opacity="1"><g transform="translate(29.118602, 137.033897)"><g><path d="M 4.609375 -8.921875 C 5.242188 -8.921875 5.785156 -8.800781 6.234375 -8.5625 C 6.691406 -8.332031 7.035156 -8.003906 7.265625 -7.578125 C 7.503906 -7.160156 7.625 -6.675781 7.625 -6.125 C 7.625 -5.5625 7.503906 -5.070312 7.265625 -4.65625 C 7.035156 -4.238281 6.691406 -3.910156 6.234375 -3.671875 C 5.785156 -3.441406 5.242188 -3.328125 4.609375 -3.328125 L 2.921875 -3.328125 L 2.921875 0 L 1.15625 0 L 1.15625 -8.921875 Z M 4.375 -4.71875 C 5.351562 -4.71875 5.84375 -5.1875 5.84375 -6.125 C 5.84375 -7.0625 5.351562 -7.53125 4.375 -7.53125 L 2.921875 -7.53125 L 2.921875 -4.71875 Z M 4.375 -4.71875 "/></g></g></g><g fill="#737373" fill-opacity="1"><g transform="translate(37.267801, 137.033897)"><g><path d="M 3.953125 0.125 C 3.335938 0.125 2.785156 0.0507812 2.296875 -0.09375 C 1.816406 -0.25 1.414062 -0.453125 1.09375 -0.703125 C 0.769531 -0.953125 0.523438 -1.222656 0.359375 -1.515625 L 1.328125 -2.703125 L 1.484375 -2.703125 C 1.753906 -2.304688 2.09375 -1.988281 2.5 -1.75 C 2.914062 -1.507812 3.398438 -1.390625 3.953125 -1.390625 C 4.421875 -1.390625 4.773438 -1.488281 5.015625 -1.6875 C 5.265625 -1.894531 5.390625 -2.171875 5.390625 -2.515625 C 5.390625 -2.734375 5.347656 -2.910156 5.265625 -3.046875 C 5.191406 -3.191406 5.0625 -3.316406 4.875 -3.421875 C 4.695312 -3.523438 4.457031 -3.613281 4.15625 -3.6875 L 3.015625 -3.9375 C 2.210938 -4.125 1.613281 -4.429688 1.21875 -4.859375 C 0.820312 -5.285156 0.625 -5.835938 0.625 -6.515625 C 0.625 -7.015625 0.75 -7.457031 1 -7.84375 C 1.257812 -8.226562 1.628906 -8.523438 2.109375 -8.734375 C 2.585938 -8.941406 3.164062 -9.046875 3.84375 -9.046875 C 4.53125 -9.046875 5.117188 -8.957031 5.609375 -8.78125 C 6.097656 -8.601562 6.507812 -8.328125 6.84375 -7.953125 L 5.96875 -6.75 L 5.828125 -6.75 C 5.566406 -7.007812 5.273438 -7.207031 4.953125 -7.34375 C 4.628906 -7.476562 4.257812 -7.546875 3.84375 -7.546875 C 3.351562 -7.546875 2.984375 -7.457031 2.734375 -7.28125 C 2.484375 -7.113281 2.359375 -6.878906 2.359375 -6.578125 C 2.359375 -6.296875 2.445312 -6.070312 2.625 -5.90625 C 2.800781 -5.738281 3.109375 -5.609375 3.546875 -5.515625 L 4.71875 -5.28125 C 5.582031 -5.09375 6.207031 -4.78125 6.59375 -4.34375 C 6.988281 -3.90625 7.1875 -3.332031 7.1875 -2.625 C 7.1875 -2.070312 7.066406 -1.585938 6.828125 -1.171875 C 6.585938 -0.765625 6.222656 -0.445312 5.734375 -0.21875 C 5.253906 0.0078125 4.660156 0.125 3.953125 0.125 Z M 3.953125 0.125 "/></g></g></g><g fill="#737373" fill-opacity="1"><g transform="translate(44.929025, 137.033897)"><g><path d="M 4.875 0.125 C 4.050781 0.125 3.328125 -0.0390625 2.703125 -0.375 C 2.078125 -0.71875 1.585938 -1.234375 1.234375 -1.921875 C 0.878906 -2.609375 0.703125 -3.457031 0.703125 -4.46875 C 0.703125 -5.46875 0.878906 -6.3125 1.234375 -7 C 1.585938 -7.6875 2.078125 -8.195312 2.703125 -8.53125 C 3.328125 -8.875 4.050781 -9.046875 4.875 -9.046875 C 5.738281 -9.046875 6.46875 -8.878906 7.0625 -8.546875 C 7.664062 -8.210938 8.09375 -7.703125 8.34375 -7.015625 L 7.0625 -6.21875 L 6.90625 -6.234375 C 6.71875 -6.691406 6.457031 -7.019531 6.125 -7.21875 C 5.800781 -7.425781 5.382812 -7.53125 4.875 -7.53125 C 4.132812 -7.53125 3.554688 -7.285156 3.140625 -6.796875 C 2.722656 -6.304688 2.515625 -5.53125 2.515625 -4.46875 C 2.515625 -3.40625 2.722656 -2.625 3.140625 -2.125 C 3.554688 -1.632812 4.132812 -1.390625 4.875 -1.390625 C 6.03125 -1.390625 6.738281 -1.957031 7 -3.09375 L 7.15625 -3.09375 L 8.453125 -2.40625 C 8.210938 -1.5625 7.796875 -0.925781 7.203125 -0.5 C 6.617188 -0.0820312 5.84375 0.125 4.875 0.125 Z M 4.875 0.125 "/></g></g></g><g fill="#737373" fill-opacity="1"><g transform="translate(104.510212, 158.546942)"><g><path d="M 4.875 0.125 C 4.050781 0.125 3.328125 -0.0390625 2.703125 -0.375 C 2.078125 -0.71875 1.585938 -1.234375 1.234375 -1.921875 C 0.878906 -2.609375 0.703125 -3.457031 0.703125 -4.46875 C 0.703125 -5.46875 0.878906 -6.3125 1.234375 -7 C 1.585938 -7.6875 2.078125 -8.195312 2.703125 -8.53125 C 3.328125 -8.875 4.050781 -9.046875 4.875 -9.046875 C 5.738281 -9.046875 6.46875 -8.878906 7.0625 -8.546875 C 7.664062 -8.210938 8.09375 -7.703125 8.34375 -7.015625 L 7.0625 -6.21875 L 6.90625 -6.234375 C 6.71875 -6.691406 6.457031 -7.019531 6.125 -7.21875 C 5.800781 -7.425781 5.382812 -7.53125 4.875 -7.53125 C 4.132812 -7.53125 3.554688 -7.285156 3.140625 -6.796875 C 2.722656 -6.304688 2.515625 -5.53125 2.515625 -4.46875 C 2.515625 -3.40625 2.722656 -2.625 3.140625 -2.125 C 3.554688 -1.632812 4.132812 -1.390625 4.875 -1.390625 C 6.03125 -1.390625 6.738281 -1.957031 7 -3.09375 L 7.15625 -3.09375 L 8.453125 -2.40625 C 8.210938 -1.5625 7.796875 -0.925781 7.203125 -0.5 C 6.617188 -0.0820312 5.84375 0.125 4.875 0.125 Z M 4.875 0.125 "/></g></g></g><g fill="#737373" fill-opacity="1"><g transform="translate(113.257183, 158.546942)"><g><path d="M 8.5625 0 L 6.703125 0 L 6.03125 -2.0625 L 2.625 -2.0625 L 1.953125 0 L 0.140625 0 L 3.21875 -8.921875 L 5.484375 -8.921875 Z M 4.234375 -7.0625 L 3.09375 -3.546875 L 5.546875 -3.546875 L 4.390625 -7.0625 Z M 4.234375 -7.0625 "/></g></g></g><g fill="#737373" fill-opacity="1"><g transform="translate(121.949256, 158.546942)"><g><path d="M 7.15625 -8.921875 L 7.15625 -7.4375 L 4.578125 -7.4375 L 4.578125 0 L 2.8125 0 L 2.8125 -7.4375 L 0.25 -7.4375 L 0.25 -8.921875 Z M 7.15625 -8.921875 "/></g></g></g><g fill="#737373" fill-opacity="1"><g transform="translate(169.430721, 206.837331)"><g><path d="M 4.328125 0.125 C 3.585938 0.125 2.945312 -0.0390625 2.40625 -0.375 C 1.863281 -0.71875 1.441406 -1.234375 1.140625 -1.921875 C 0.847656 -2.609375 0.703125 -3.457031 0.703125 -4.46875 C 0.703125 -5.476562 0.878906 -6.328125 1.234375 -7.015625 C 1.585938 -7.703125 2.078125 -8.210938 2.703125 -8.546875 C 3.335938 -8.878906 4.066406 -9.046875 4.890625 -9.046875 C 5.742188 -9.046875 6.472656 -8.882812 7.078125 -8.5625 C 7.679688 -8.25 8.101562 -7.78125 8.34375 -7.15625 L 7.0625 -6.375 L 6.90625 -6.390625 C 6.726562 -6.785156 6.472656 -7.070312 6.140625 -7.25 C 5.804688 -7.4375 5.390625 -7.53125 4.890625 -7.53125 C 4.117188 -7.53125 3.53125 -7.285156 3.125 -6.796875 C 2.71875 -6.316406 2.515625 -5.539062 2.515625 -4.46875 C 2.515625 -3.382812 2.703125 -2.597656 3.078125 -2.109375 C 3.460938 -1.617188 4.03125 -1.375 4.78125 -1.375 C 5.425781 -1.375 5.898438 -1.519531 6.203125 -1.8125 C 6.503906 -2.101562 6.65625 -2.535156 6.65625 -3.109375 L 6.65625 -3.484375 L 4.546875 -3.484375 L 4.546875 -4.921875 L 8.40625 -4.921875 L 8.40625 0 L 6.71875 0 L 6.71875 -1.203125 L 6.59375 -1.21875 C 6.414062 -0.789062 6.140625 -0.457031 5.765625 -0.21875 C 5.390625 0.0078125 4.910156 0.125 4.328125 0.125 Z M 4.328125 0.125 "/></g></g></g><g fill="#737373" fill-opacity="1"><g transform="translate(178.732764, 206.837331)"><g><path d="M 8.5625 0 L 6.703125 0 L 6.03125 -2.0625 L 2.625 -2.0625 L 1.953125 0 L 0.140625 0 L 3.21875 -8.921875 L 5.484375 -8.921875 Z M 4.234375 -7.0625 L 3.09375 -3.546875 L 5.546875 -3.546875 L 4.390625 -7.0625 Z M 4.234375 -7.0625 "/></g></g></g><g fill="#737373" fill-opacity="1"><g transform="translate(187.424838, 206.837331)"><g><path d="M 7.15625 -8.921875 L 7.15625 -7.4375 L 4.578125 -7.4375 L 4.578125 0 L 2.8125 0 L 2.8125 -7.4375 L 0.25 -7.4375 L 0.25 -8.921875 Z M 7.15625 -8.921875 "/></g></g></g><g fill="#737373" fill-opacity="1"><g transform="translate(194.817675, 206.837331)"><g><path d="M 2.921875 -3.921875 L 2.921875 -1.484375 L 7.1875 -1.484375 L 7.1875 0 L 1.15625 0 L 1.15625 -8.921875 L 7.09375 -8.921875 L 7.09375 -7.453125 L 2.921875 -7.453125 L 2.921875 -5.359375 L 6.5625 -5.359375 L 6.5625 -3.921875 Z M 2.921875 -3.921875 "/></g></g></g><g fill="#737373" fill-opacity="1"><g transform="translate(234.403231, 346.2499)"><g><path d="M 4.328125 0.125 C 3.585938 0.125 2.945312 -0.0390625 2.40625 -0.375 C 1.863281 -0.71875 1.441406 -1.234375 1.140625 -1.921875 C 0.847656 -2.609375 0.703125 -3.457031 0.703125 -4.46875 C 0.703125 -5.476562 0.878906 -6.328125 1.234375 -7.015625 C 1.585938 -7.703125 2.078125 -8.210938 2.703125 -8.546875 C 3.335938 -8.878906 4.066406 -9.046875 4.890625 -9.046875 C 5.742188 -9.046875 6.472656 -8.882812 7.078125 -8.5625 C 7.679688 -8.25 8.101562 -7.78125 8.34375 -7.15625 L 7.0625 -6.375 L 6.90625 -6.390625 C 6.726562 -6.785156 6.472656 -7.070312 6.140625 -7.25 C 5.804688 -7.4375 5.390625 -7.53125 4.890625 -7.53125 C 4.117188 -7.53125 3.53125 -7.285156 3.125 -6.796875 C 2.71875 -6.316406 2.515625 -5.539062 2.515625 -4.46875 C 2.515625 -3.382812 2.703125 -2.597656 3.078125 -2.109375 C 3.460938 -1.617188 4.03125 -1.375 4.78125 -1.375 C 5.425781 -1.375 5.898438 -1.519531 6.203125 -1.8125 C 6.503906 -2.101562 6.65625 -2.535156 6.65625 -3.109375 L 6.65625 -3.484375 L 4.546875 -3.484375 L 4.546875 -4.921875 L 8.40625 -4.921875 L 8.40625 0 L 6.71875 0 L 6.71875 -1.203125 L 6.59375 -1.21875 C 6.414062 -0.789062 6.140625 -0.457031 5.765625 -0.21875 C 5.390625 0.0078125 4.910156 0.125 4.328125 0.125 Z M 4.328125 0.125 "/></g></g></g><g fill="#737373" fill-opacity="1"><g transform="translate(243.705274, 346.2499)"><g><path d="M 2.78125 0 L 1.15625 0 L 1.15625 -8.921875 L 3.46875 -8.921875 L 5.71875 -2.359375 L 5.859375 -2.359375 L 8.09375 -8.921875 L 10.359375 -8.921875 L 10.359375 0 L 8.671875 0 L 8.671875 -5.890625 L 8.53125 -5.921875 L 6.46875 0 L 5 0 L 2.9375 -5.921875 L 2.78125 -5.890625 Z M 2.78125 0 "/></g></g></g><g fill="#737373" fill-opacity="1"><g transform="translate(255.215409, 346.2499)"><g><path d="M 8.5625 0 L 6.703125 0 L 6.03125 -2.0625 L 2.625 -2.0625 L 1.953125 0 L 0.140625 0 L 3.21875 -8.921875 L 5.484375 -8.921875 Z M 4.234375 -7.0625 L 3.09375 -3.546875 L 5.546875 -3.546875 L 4.390625 -7.0625 Z M 4.234375 -7.0625 "/></g></g></g><g fill="#737373" fill-opacity="1"><g transform="translate(263.907482, 346.2499)"><g><path d="M 7.15625 -8.921875 L 7.15625 -7.4375 L 4.578125 -7.4375 L 4.578125 0 L 2.8125 0 L 2.8125 -7.4375 L 0.25 -7.4375 L 0.25 -8.921875 Z M 7.15625 -8.921875 "/></g></g></g><g fill="#737373" fill-opacity="1"><g transform="translate(219.890366, 273.692795)"><g><path d="M 4.328125 0.125 C 3.585938 0.125 2.945312 -0.0390625 2.40625 -0.375 C 1.863281 -0.71875 1.441406 -1.234375 1.140625 -1.921875 C 0.847656 -2.609375 0.703125 -3.457031 0.703125 -4.46875 C 0.703125 -5.476562 0.878906 -6.328125 1.234375 -7.015625 C 1.585938 -7.703125 2.078125 -8.210938 2.703125 -8.546875 C 3.335938 -8.878906 4.066406 -9.046875 4.890625 -9.046875 C 5.742188 -9.046875 6.472656 -8.882812 7.078125 -8.5625 C 7.679688 -8.25 8.101562 -7.78125 8.34375 -7.15625 L 7.0625 -6.375 L 6.90625 -6.390625 C 6.726562 -6.785156 6.472656 -7.070312 6.140625 -7.25 C 5.804688 -7.4375 5.390625 -7.53125 4.890625 -7.53125 C 4.117188 -7.53125 3.53125 -7.285156 3.125 -6.796875 C 2.71875 -6.316406 2.515625 -5.539062 2.515625 -4.46875 C 2.515625 -3.382812 2.703125 -2.597656 3.078125 -2.109375 C 3.460938 -1.617188 4.03125 -1.375 4.78125 -1.375 C 5.425781 -1.375 5.898438 -1.519531 6.203125 -1.8125 C 6.503906 -2.101562 6.65625 -2.535156 6.65625 -3.109375 L 6.65625 -3.484375 L 4.546875 -3.484375 L 4.546875 -4.921875 L 8.40625 -4.921875 L 8.40625 0 L 6.71875 0 L 6.71875 -1.203125 L 6.59375 -1.21875 C 6.414062 -0.789062 6.140625 -0.457031 5.765625 -0.21875 C 5.390625 0.0078125 4.910156 0.125 4.328125 0.125 Z M 4.328125 0.125 "/></g></g></g><g fill="#737373" fill-opacity="1"><g transform="translate(229.192409, 273.692795)"><g><path d="M 1.15625 0 L 1.15625 -8.921875 L 4.75 -8.921875 C 5.664062 -8.921875 6.359375 -8.707031 6.828125 -8.28125 C 7.296875 -7.851562 7.53125 -7.269531 7.53125 -6.53125 C 7.53125 -5.988281 7.394531 -5.539062 7.125 -5.1875 C 6.851562 -4.84375 6.441406 -4.582031 5.890625 -4.40625 L 5.890625 -4.265625 C 6.171875 -4.148438 6.398438 -3.972656 6.578125 -3.734375 C 6.753906 -3.492188 6.914062 -3.132812 7.0625 -2.65625 L 7.953125 0 L 6.140625 0 L 5.28125 -2.671875 C 5.1875 -2.929688 5.082031 -3.132812 4.96875 -3.28125 C 4.851562 -3.4375 4.707031 -3.546875 4.53125 -3.609375 C 4.363281 -3.679688 4.144531 -3.71875 3.875 -3.71875 L 2.921875 -3.71875 L 2.921875 0 Z M 4.53125 -5.109375 C 5.382812 -5.109375 5.8125 -5.507812 5.8125 -6.3125 C 5.8125 -7.125 5.382812 -7.53125 4.53125 -7.53125 L 2.921875 -7.53125 L 2.921875 -5.109375 Z M 4.53125 -5.109375 "/></g></g></g><g fill="#737373" fill-opacity="1"><g transform="translate(237.5307, 273.692795)"><g><path d="M 2.921875 -3.921875 L 2.921875 -1.484375 L 7.1875 -1.484375 L 7.1875 0 L 1.15625 0 L 1.15625 -8.921875 L 7.09375 -8.921875 L 7.09375 -7.453125 L 2.921875 -7.453125 L 2.921875 -5.359375 L 6.5625 -5.359375 L 6.5625 -3.921875 Z M 2.921875 -3.921875 "/></g></g></g><g clip-path="url(#6f5afe845c)"><path fill="#00bf63" d="M 78.875 259.804688 C 56.996094 259.804688 39.28125 277.519531 39.28125 299.398438 C 39.28125 321.277344 56.996094 338.992188 78.875 338.992188 C 100.757812 338.992188 118.46875 321.277344 118.46875 299.398438 C 118.46875 277.519531 100.757812 259.804688 78.875 259.804688 Z M 78.875 259.804688 " fill-opacity="1" fill-rule="nonzero"/></g><path fill="#ffffff" d="M 78.875 268.140625 C 61.582031 268.140625 47.617188 282.101562 47.617188 299.398438 C 47.617188 316.695312 61.582031 330.65625 78.875 330.65625 C 96.171875 330.65625 110.132812 316.695312 110.132812 299.398438 C 110.132812 282.101562 96.171875 268.140625 78.875 268.140625 Z M 78.875 322.320312 C 66.164062 322.320312 55.953125 312.109375 55.953125 299.398438 C 55.953125 286.6875 66.164062 276.476562 78.875 276.476562 C 91.585938 276.476562 101.796875 286.6875 101.796875 299.398438 C 101.796875 312.109375 91.585938 322.320312 78.875 322.320312 Z M 78.875 284.8125 C 70.75 284.8125 64.289062 291.269531 64.289062 299.398438 C 64.289062 307.523438 70.75 313.984375 78.875 313.984375 C 87.003906 313.984375 93.464844 307.523438 93.464844 299.398438 C 93.464844 291.269531 87.003906 284.8125 78.875 284.8125 Z M 78.875 305.648438 C 75.332031 305.648438 72.625 302.941406 72.625 299.398438 C 72.625 295.855469 75.332031 293.148438 78.875 293.148438 C 82.417969 293.148438 85.128906 295.855469 85.128906 299.398438 C 85.128906 302.941406 82.417969 305.648438 78.875 305.648438 Z M 78.875 305.648438 " fill-opacity="1" fill-rule="nonzero"/><g clip-path="url(#430a803d74)"><path fill="#5e17eb" d="M 118.46875 268.140625 C 118.46875 268.140625 117.21875 272.933594 113.886719 276.058594 C 110.550781 279.394531 97.214844 281.058594 97.214844 281.058594 C 97.214844 281.058594 98.882812 267.515625 102.214844 264.390625 C 105.339844 261.054688 110.132812 259.804688 110.132812 259.804688 L 110.132812 268.140625 Z M 118.46875 268.140625 " fill-opacity="1" fill-rule="nonzero"/></g><g clip-path="url(#2cdf1f2a30)"><path fill="#000000" d="M 117.84375 260.429688 C 117.011719 259.597656 115.761719 259.597656 114.925781 260.429688 L 77.417969 297.9375 C 76.585938 298.773438 76.585938 300.023438 77.417969 300.855469 C 77.835938 301.273438 78.460938 301.480469 78.875 301.480469 C 79.292969 301.480469 79.917969 301.273438 80.335938 300.855469 L 117.84375 263.347656 C 118.675781 262.515625 118.675781 261.265625 117.84375 260.429688 Z M 117.84375 260.429688 " fill-opacity="1" fill-rule="nonzero"/></g><path fill="#004aad" d="M 110.089844 265.488281 L 113.035156 268.4375 L 100.804688 280.667969 L 97.859375 277.71875 Z M 110.089844 265.488281 " fill-opacity="1" fill-rule="nonzero"/></svg>