<svg xmlns="http://www.w3.org/2000/svg" xmlns:xlink="http://www.w3.org/1999/xlink" width="500" zoomAndPan="magnify" viewBox="0 0 375 374.999991" height="500" preserveAspectRatio="xMidYMid meet" version="1.0"><path fill="#d2c7ff" d="M 128.9375 136.695312 C 150.949219 114.464844 144.644531 100.53125 159.707031 90.238281 C 182.882812 74.398438 226.128906 88.023438 251.648438 109.808594 C 282.898438 136.492188 299.023438 185.214844 280.65625 229.289062 C 261.097656 276.230469 209.628906 300.597656 163.703125 293.25 C 122.691406 286.695312 82.375 254.253906 78.335938 215.347656 C 77.898438 211.132812 75.964844 188.335938 89.523438 168.683594 C 100.726562 152.4375 111.488281 154.320312 128.9375 136.695312 " fill-opacity="1" fill-rule="nonzero"/><path fill="#f1eaff" d="M 222.292969 146.464844 C 219.589844 147.207031 216.800781 145.613281 216.058594 142.910156 C 215.316406 140.203125 216.910156 137.410156 219.613281 136.667969 C 222.316406 135.929688 225.109375 137.523438 225.847656 140.226562 C 226.585938 142.933594 224.996094 145.726562 222.292969 146.464844 Z M 231.050781 139.824219 L 230.53125 137.921875 L 228.378906 138.019531 C 228.179688 137.601562 227.949219 137.203125 227.6875 136.832031 L 228.824219 135.007812 L 227.425781 133.617188 L 225.609375 134.777344 C 225.230469 134.519531 224.832031 134.292969 224.417969 134.097656 L 224.492188 131.945312 L 222.585938 131.445312 L 221.59375 133.355469 C 221.144531 133.320312 220.683594 133.324219 220.222656 133.367188 L 219.210938 131.464844 L 217.308594 131.984375 L 217.40625 134.136719 C 216.988281 134.335938 216.589844 134.570312 216.21875 134.828125 L 214.394531 133.6875 L 213.011719 135.09375 L 214.167969 136.90625 C 213.910156 137.285156 213.683594 137.683594 213.492188 138.101562 L 211.339844 138.027344 L 210.839844 139.933594 L 212.746094 140.925781 C 212.710938 141.375 212.714844 141.835938 212.757812 142.296875 L 210.855469 143.3125 L 211.378906 145.214844 L 213.527344 145.117188 C 213.726562 145.535156 213.957031 145.933594 214.21875 146.304688 L 213.082031 148.128906 L 214.484375 149.515625 L 216.296875 148.355469 C 216.675781 148.613281 217.074219 148.84375 217.488281 149.035156 L 217.414062 151.1875 L 219.320312 151.691406 L 220.3125 149.777344 C 220.761719 149.8125 221.222656 149.8125 221.683594 149.769531 L 222.695312 151.671875 L 224.597656 151.148438 L 224.5 148.996094 C 224.917969 148.796875 225.316406 148.566406 225.6875 148.304688 L 227.511719 149.445312 L 228.898438 148.042969 L 227.738281 146.226562 C 227.996094 145.847656 228.222656 145.449219 228.414062 145.035156 L 230.570312 145.109375 L 231.066406 143.199219 L 229.160156 142.210938 C 229.191406 141.757812 229.191406 141.296875 229.148438 140.835938 L 231.050781 139.824219 " fill-opacity="1" fill-rule="nonzero"/><path fill="#000000" d="M 104.644531 122.570312 C 104.597656 122.570312 104.554688 122.5625 104.511719 122.542969 C 104.3125 122.472656 104.210938 122.25 104.285156 122.054688 L 104.972656 120.203125 C 105.046875 120.003906 105.265625 119.90625 105.464844 119.976562 C 105.664062 120.050781 105.761719 120.269531 105.691406 120.46875 L 105 122.320312 C 104.945312 122.472656 104.796875 122.570312 104.644531 122.570312 " fill-opacity="1" fill-rule="nonzero"/><path fill="#000000" d="M 103.039062 126.878906 C 102.996094 126.878906 102.953125 126.871094 102.90625 126.855469 C 102.710938 126.78125 102.609375 126.5625 102.683594 126.363281 L 103.371094 124.515625 C 103.441406 124.316406 103.664062 124.214844 103.863281 124.289062 C 104.058594 124.363281 104.160156 124.582031 104.085938 124.78125 L 103.398438 126.628906 C 103.34375 126.785156 103.195312 126.878906 103.039062 126.878906 " fill-opacity="1" fill-rule="nonzero"/><path fill="#000000" d="M 102.957031 123.34375 C 102.910156 123.34375 102.867188 123.335938 102.824219 123.320312 L 100.972656 122.632812 C 100.773438 122.558594 100.671875 122.335938 100.746094 122.140625 C 100.820312 121.941406 101.042969 121.839844 101.238281 121.914062 L 103.089844 122.601562 C 103.289062 122.675781 103.386719 122.894531 103.316406 123.09375 C 103.257812 123.246094 103.109375 123.34375 102.957031 123.34375 " fill-opacity="1" fill-rule="nonzero"/><path fill="#000000" d="M 107.265625 124.945312 C 107.222656 124.945312 107.175781 124.9375 107.132812 124.921875 L 105.28125 124.234375 C 105.085938 124.160156 104.984375 123.9375 105.058594 123.742188 C 105.132812 123.542969 105.351562 123.441406 105.550781 123.515625 L 107.398438 124.203125 C 107.597656 124.277344 107.699219 124.496094 107.625 124.695312 C 107.566406 124.851562 107.421875 124.945312 107.265625 124.945312 " fill-opacity="1" fill-rule="nonzero"/><path fill="#000000" d="M 263.96875 110.78125 C 263.761719 110.78125 263.589844 110.609375 263.589844 110.402344 L 263.589844 108.425781 C 263.589844 108.214844 263.761719 108.042969 263.96875 108.042969 C 264.183594 108.042969 264.355469 108.214844 264.355469 108.425781 L 264.355469 110.402344 C 264.355469 110.609375 264.183594 110.78125 263.96875 110.78125 " fill-opacity="1" fill-rule="nonzero"/><path fill="#000000" d="M 263.96875 115.378906 C 263.757812 115.378906 263.589844 115.210938 263.589844 115 L 263.589844 113.023438 C 263.589844 112.8125 263.757812 112.640625 263.96875 112.640625 C 264.183594 112.640625 264.355469 112.8125 264.355469 113.023438 L 264.355469 115 C 264.355469 115.210938 264.183594 115.378906 263.96875 115.378906 " fill-opacity="1" fill-rule="nonzero"/><path fill="#000000" d="M 262.660156 112.09375 L 260.683594 112.09375 C 260.472656 112.09375 260.300781 111.921875 260.300781 111.710938 C 260.300781 111.503906 260.472656 111.332031 260.683594 111.332031 L 262.660156 111.332031 C 262.871094 111.332031 263.039062 111.503906 263.039062 111.710938 C 263.039062 111.921875 262.871094 112.09375 262.660156 112.09375 " fill-opacity="1" fill-rule="nonzero"/><path fill="#000000" d="M 267.257812 112.09375 L 265.285156 112.09375 C 265.070312 112.09375 264.902344 111.925781 264.902344 111.710938 C 264.902344 111.5 265.070312 111.328125 265.285156 111.328125 L 267.257812 111.328125 C 267.46875 111.328125 267.640625 111.5 267.640625 111.710938 C 267.640625 111.925781 267.46875 112.09375 267.257812 112.09375 " fill-opacity="1" fill-rule="nonzero"/><path fill="#000000" d="M 116.382812 285.609375 C 116.332031 285.609375 116.28125 285.597656 116.230469 285.578125 C 104.617188 280.625 95.703125 273.152344 89.734375 263.375 C 89.625 263.195312 89.683594 262.960938 89.863281 262.851562 C 90.042969 262.742188 90.277344 262.796875 90.386719 262.976562 C 96.273438 272.617188 105.066406 279.984375 116.53125 284.875 C 116.726562 284.957031 116.816406 285.183594 116.734375 285.375 C 116.671875 285.523438 116.53125 285.609375 116.382812 285.609375 " fill-opacity="1" fill-rule="nonzero"/><path fill="#000000" d="M 88.121094 259.992188 C 87.992188 259.992188 87.867188 259.929688 87.792969 259.8125 C 83.96875 253.671875 82.832031 248.945312 82.785156 248.746094 C 82.738281 248.542969 82.863281 248.335938 83.070312 248.289062 C 83.277344 248.238281 83.480469 248.367188 83.53125 248.570312 C 83.542969 248.617188 84.6875 253.382812 88.445312 259.40625 C 88.554688 259.585938 88.5 259.824219 88.320312 259.933594 C 88.257812 259.972656 88.1875 259.992188 88.121094 259.992188 " fill-opacity="1" fill-rule="nonzero"/><path fill="#000000" d="M 118.21875 291.214844 C 118.183594 291.214844 118.144531 291.210938 118.105469 291.199219 C 106.03125 287.402344 97.804688 280.210938 93.03125 274.847656 C 87.859375 269.035156 85.503906 264.039062 85.480469 263.992188 C 85.390625 263.800781 85.472656 263.570312 85.664062 263.484375 C 85.855469 263.394531 86.085938 263.476562 86.171875 263.667969 C 86.195312 263.71875 88.515625 268.628906 93.621094 274.359375 C 98.328125 279.644531 106.4375 286.726562 118.335938 290.46875 C 118.535156 290.535156 118.648438 290.746094 118.585938 290.949219 C 118.53125 291.113281 118.382812 291.214844 118.21875 291.214844 " fill-opacity="1" fill-rule="nonzero"/><path fill="#000000" d="M 244.160156 150.210938 C 243.03125 150.140625 241.703125 150.492188 239.046875 151.199219 C 236.65625 151.835938 235.992188 152.261719 235.699219 152.996094 C 235.214844 154.199219 235.9375 155.683594 236.152344 156.128906 C 237.375 158.644531 239.613281 158.976562 241.09375 160.125 C 245.867188 163.847656 243.433594 170.164062 247.394531 174.117188 C 251.164062 177.882812 254.691406 173.460938 261.472656 177.046875 C 266.816406 179.875 266.316406 183.507812 270.671875 185.109375 C 275.992188 187.066406 284.324219 184.4375 287.707031 176.582031 C 289.871094 171.550781 290.675781 157.917969 283.25 156.164062 C 280.722656 155.570312 278.53125 157.34375 276.066406 157.5 C 273.605469 157.652344 271.058594 156.832031 269.246094 155.132812 C 267.707031 153.6875 266.703125 151.730469 265.078125 150.382812 C 261.582031 147.488281 257.292969 148.824219 253.851562 150.980469 C 253.335938 151.304688 252.152344 152.558594 251.652344 152.597656 C 248.46875 152.84375 247.808594 150.445312 244.160156 150.210938 " fill-opacity="1" fill-rule="nonzero"/><path fill="#8c52ff" d="M 232.414062 186.730469 C 229.867188 202.320312 229.574219 202.546875 229.230469 204.179688 C 229.230469 204.179688 228.21875 208.769531 227.9375 213.195312 C 227.699219 217.03125 228.417969 240.074219 240.332031 245.152344 C 244.632812 246.984375 245.878906 243.613281 255.035156 243.980469 C 264.421875 244.355469 266.328125 247.695312 270.421875 246.523438 C 279.285156 243.992188 282.179688 224.976562 281.691406 213.222656 C 281.292969 203.652344 276.53125 194.617188 267.003906 176.539062 C 265.554688 173.789062 263.230469 169.585938 259.492188 169.046875 C 257.773438 168.804688 257.089844 169.066406 250.203125 170.957031 C 242.714844 173.015625 240.8125 170.828125 237.597656 172.851562 C 234.273438 174.945312 233.6875 178.929688 232.414062 186.730469 " fill-opacity="1" fill-rule="nonzero"/><path fill="#ffffff" d="M 246.085938 276.992188 L 246.085938 284.527344 L 249.710938 284.308594 L 250.425781 276.992188 L 246.085938 276.992188 " fill-opacity="1" fill-rule="nonzero"/><path fill="#000000" d="M 246.46875 277.375 L 246.46875 284.121094 L 249.363281 283.945312 L 250.007812 277.375 Z M 246.085938 284.910156 C 245.988281 284.910156 245.894531 284.875 245.824219 284.808594 C 245.746094 284.734375 245.703125 284.636719 245.703125 284.527344 L 245.703125 276.988281 C 245.703125 276.78125 245.875 276.609375 246.085938 276.609375 L 250.425781 276.609375 C 250.535156 276.609375 250.636719 276.652344 250.710938 276.734375 C 250.78125 276.8125 250.820312 276.921875 250.808594 277.027344 L 250.09375 284.34375 C 250.074219 284.53125 249.925781 284.679688 249.738281 284.691406 L 246.109375 284.910156 C 246.101562 284.910156 246.09375 284.910156 246.085938 284.910156 " fill-opacity="1" fill-rule="nonzero"/><path fill="#ffffff" d="M 250.257812 293.929688 C 248.78125 294.085938 246.363281 294.1875 243.546875 293.703125 C 242.625 293.546875 242.039062 292.625 242.292969 291.722656 C 243 289.210938 244.394531 284.527344 245.503906 282.285156 L 246.175781 283.507812 L 246.710938 282.21875 C 246.800781 282.066406 246.960938 281.964844 247.136719 281.949219 L 248.527344 281.820312 C 248.820312 281.792969 249.167969 282.078125 249.21875 282.363281 L 250.136719 283.507812 L 250.664062 282.148438 L 251.652344 292.207031 C 251.738281 293.066406 251.117188 293.835938 250.257812 293.929688 " fill-opacity="1" fill-rule="nonzero"/><path fill="#000000" d="M 245.53125 283.136719 C 244.445312 285.644531 243.183594 289.964844 242.660156 291.828125 C 242.566406 292.15625 242.617188 292.496094 242.800781 292.785156 C 242.980469 293.070312 243.277344 293.269531 243.609375 293.328125 C 246.359375 293.800781 248.71875 293.710938 250.214844 293.550781 C 250.863281 293.480469 251.335938 292.894531 251.269531 292.246094 L 250.433594 283.746094 C 250.375 283.820312 250.289062 283.871094 250.191406 283.886719 C 250.054688 283.90625 249.921875 283.855469 249.835938 283.75 L 248.917969 282.605469 C 248.878906 282.554688 248.851562 282.496094 248.839844 282.429688 C 248.820312 282.328125 248.632812 282.195312 248.5625 282.199219 L 247.175781 282.328125 C 247.125 282.335938 247.078125 282.359375 247.046875 282.398438 L 246.527344 283.65625 C 246.46875 283.789062 246.339844 283.882812 246.195312 283.890625 C 246.042969 283.894531 245.910156 283.824219 245.839844 283.691406 Z M 250.257812 293.929688 L 250.261719 293.929688 Z M 247.734375 294.441406 C 246.496094 294.441406 245.050781 294.351562 243.480469 294.082031 C 242.933594 293.988281 242.449219 293.664062 242.152344 293.195312 C 241.855469 292.726562 241.773438 292.152344 241.921875 291.621094 C 242.503906 289.554688 243.984375 284.496094 245.164062 282.117188 C 245.222656 281.988281 245.355469 281.90625 245.496094 281.902344 C 245.640625 281.902344 245.769531 281.980469 245.839844 282.101562 L 246.125 282.625 L 246.355469 282.074219 C 246.363281 282.054688 246.371094 282.039062 246.382812 282.019531 C 246.535156 281.765625 246.804688 281.59375 247.101562 281.566406 L 248.492188 281.4375 C 248.941406 281.398438 249.429688 281.75 249.566406 282.191406 L 250.019531 282.753906 L 250.304688 282.011719 C 250.371094 281.847656 250.539062 281.75 250.714844 281.769531 C 250.890625 281.796875 251.027344 281.9375 251.042969 282.113281 L 252.03125 292.171875 C 252.136719 293.234375 251.359375 294.195312 250.296875 294.308594 C 249.605469 294.382812 248.738281 294.441406 247.734375 294.441406 " fill-opacity="1" fill-rule="nonzero"/><path fill="#000000" d="M 246.75 292.734375 C 245.652344 292.734375 244.421875 292.628906 243.203125 292.308594 C 243 292.253906 242.878906 292.042969 242.929688 291.839844 C 242.984375 291.636719 243.195312 291.515625 243.398438 291.566406 C 246.785156 292.457031 250.390625 291.574219 250.425781 291.566406 C 250.632812 291.515625 250.839844 291.640625 250.890625 291.84375 C 250.941406 292.050781 250.816406 292.257812 250.613281 292.308594 C 250.511719 292.335938 248.875 292.734375 246.75 292.734375 " fill-opacity="1" fill-rule="nonzero"/><path fill="#000000" d="M 248.816406 288.820312 L 245.503906 288.820312 C 245.292969 288.820312 245.125 288.648438 245.125 288.4375 C 245.125 288.226562 245.292969 288.054688 245.503906 288.054688 L 248.816406 288.054688 C 249.027344 288.054688 249.199219 288.226562 249.199219 288.4375 C 249.199219 288.648438 249.027344 288.820312 248.816406 288.820312 " fill-opacity="1" fill-rule="nonzero"/><path fill="#ffffff" d="M 272.765625 273.003906 L 273.839844 282.089844 L 277.238281 281.972656 L 277.238281 273.003906 L 272.765625 273.003906 " fill-opacity="1" fill-rule="nonzero"/><path fill="#000000" d="M 273.195312 273.382812 L 274.175781 281.695312 L 276.855469 281.601562 L 276.855469 273.382812 Z M 273.839844 282.472656 C 273.648438 282.472656 273.480469 282.328125 273.460938 282.136719 L 272.386719 273.046875 C 272.375 272.9375 272.40625 272.828125 272.480469 272.746094 C 272.554688 272.667969 272.65625 272.621094 272.765625 272.621094 L 277.238281 272.621094 C 277.449219 272.621094 277.621094 272.792969 277.621094 273.003906 L 277.621094 281.972656 C 277.621094 282.179688 277.457031 282.347656 277.25 282.355469 L 273.851562 282.472656 C 273.847656 282.472656 273.84375 282.472656 273.839844 282.472656 " fill-opacity="1" fill-rule="nonzero"/><path fill="#ffffff" d="M 273.03125 279.921875 C 273.03125 279.921875 272.59375 283.957031 272.730469 285.582031 C 272.824219 286.746094 274.417969 290.253906 275.316406 292.15625 C 275.6875 292.9375 276.390625 293.4375 277.175781 293.472656 C 278.128906 293.515625 279.457031 293.5625 280.523438 293.5625 C 281.996094 293.566406 283.007812 291.890625 282.484375 290.332031 C 281.996094 288.894531 281.226562 287.089844 280.019531 285.167969 C 279.105469 283.71875 277.773438 279.789062 277.773438 279.789062 L 275.003906 279.789062 L 274.457031 282.089844 L 273.03125 279.921875 " fill-opacity="1" fill-rule="nonzero"/><path fill="#000000" d="M 273.304688 281.035156 C 273.1875 282.339844 273.019531 284.492188 273.109375 285.550781 C 273.175781 286.351562 274.105469 288.699219 275.664062 291.992188 C 275.972656 292.640625 276.554688 293.0625 277.191406 293.089844 C 278.121094 293.132812 279.453125 293.179688 280.527344 293.179688 C 281.042969 293.179688 281.507812 292.925781 281.835938 292.46875 C 282.246094 291.898438 282.355469 291.144531 282.121094 290.453125 C 281.527344 288.695312 280.710938 286.988281 279.695312 285.371094 C 278.894531 284.105469 277.816406 281.082031 277.5 280.171875 L 275.304688 280.171875 L 274.832031 282.179688 C 274.796875 282.328125 274.675781 282.441406 274.527344 282.46875 C 274.375 282.492188 274.222656 282.425781 274.136719 282.300781 Z M 280.527344 293.945312 C 280.527344 293.945312 280.527344 293.945312 280.523438 293.945312 C 279.4375 293.945312 278.09375 293.894531 277.15625 293.855469 C 276.238281 293.816406 275.402344 293.226562 274.972656 292.316406 C 273.828125 289.898438 272.441406 286.769531 272.347656 285.613281 C 272.210938 283.972656 272.632812 280.046875 272.648438 279.882812 C 272.667969 279.71875 272.78125 279.589844 272.941406 279.550781 C 273.097656 279.511719 273.261719 279.578125 273.347656 279.710938 L 274.289062 281.140625 L 274.628906 279.703125 C 274.671875 279.527344 274.824219 279.40625 275 279.40625 L 277.773438 279.40625 C 277.9375 279.40625 278.082031 279.511719 278.132812 279.667969 C 278.148438 279.707031 279.464844 283.570312 280.339844 284.964844 C 281.390625 286.628906 282.234375 288.394531 282.847656 290.210938 C 283.15625 291.136719 283.011719 292.144531 282.457031 292.914062 C 281.988281 293.570312 281.285156 293.945312 280.527344 293.945312 " fill-opacity="1" fill-rule="nonzero"/><path fill="#000000" d="M 273.992188 287.425781 Z M 278.414062 292.214844 C 277.164062 292.214844 276.035156 291.496094 275.460938 290.335938 C 274.28125 287.960938 274.011719 287.476562 273.945312 287.382812 C 273.824219 287.246094 273.816406 287.035156 273.9375 286.886719 C 274.070312 286.722656 274.3125 286.699219 274.472656 286.832031 C 274.566406 286.90625 274.644531 286.972656 276.144531 289.996094 C 276.589844 290.894531 277.457031 291.449219 278.414062 291.449219 L 281.570312 291.449219 C 281.78125 291.449219 281.953125 291.617188 281.953125 291.828125 C 281.953125 292.039062 281.78125 292.210938 281.570312 292.210938 L 278.414062 292.214844 " fill-opacity="1" fill-rule="nonzero"/><path fill="#000000" d="M 280.113281 288.933594 L 277.078125 288.933594 C 276.867188 288.933594 276.699219 288.761719 276.699219 288.546875 C 276.699219 288.335938 276.867188 288.167969 277.078125 288.167969 L 280.113281 288.167969 C 280.324219 288.167969 280.496094 288.335938 280.496094 288.546875 C 280.496094 288.761719 280.324219 288.933594 280.113281 288.933594 " fill-opacity="1" fill-rule="nonzero"/><path fill="#000000" d="M 240.257812 201.625 C 240.257812 201.625 240.621094 229.363281 241.785156 247.421875 C 242.949219 265.480469 245.25 279.289062 245.25 279.289062 C 245.25 279.289062 249.207031 280.707031 251.804688 279.964844 C 251.804688 279.964844 253.953125 264.125 254.441406 258.769531 C 254.929688 253.414062 253.632812 250.757812 253.523438 246.375 C 253.414062 241.996094 255.414062 222.648438 255.414062 222.648438 C 255.414062 222.648438 270.324219 266.386719 272.03125 276.046875 C 272.03125 276.046875 275.644531 276.660156 278.1875 275.269531 C 278.1875 275.269531 278.269531 258.066406 277.90625 255.410156 C 277.238281 250.484375 273.394531 245.636719 272.703125 240.40625 C 272.011719 235.175781 271.609375 222.050781 269.707031 214.179688 C 267.804688 206.304688 264.074219 197.460938 264.074219 197.460938 L 240.257812 201.625 " fill-opacity="1" fill-rule="nonzero"/><path fill="#ffffff" d="M 265.664062 212.035156 C 265.617188 212.035156 265.566406 212.023438 265.519531 212.003906 C 260.394531 209.90625 258.917969 205.03125 258.859375 204.824219 C 258.800781 204.621094 258.917969 204.410156 259.121094 204.351562 C 259.324219 204.289062 259.535156 204.40625 259.59375 204.609375 C 259.609375 204.65625 261.035156 209.339844 265.808594 211.296875 C 266.003906 211.378906 266.097656 211.601562 266.019531 211.796875 C 265.960938 211.945312 265.816406 212.035156 265.664062 212.035156 " fill-opacity="1" fill-rule="nonzero"/><path fill="#ffffff" d="M 270.171875 224.960938 C 269.980469 224.960938 269.816406 224.816406 269.792969 224.625 C 268.089844 211.566406 263.003906 202.847656 262.953125 202.761719 C 262.84375 202.578125 262.90625 202.34375 263.085938 202.238281 C 263.265625 202.128906 263.503906 202.191406 263.609375 202.371094 C 263.664062 202.460938 268.828125 211.304688 270.546875 224.527344 C 270.578125 224.738281 270.429688 224.929688 270.21875 224.957031 C 270.203125 224.957031 270.1875 224.960938 270.171875 224.960938 " fill-opacity="1" fill-rule="nonzero"/><path fill="#ffffff" d="M 193.992188 172.640625 L 200.492188 175.34375 L 202.867188 180.449219 C 204.285156 181.394531 205.703125 182.164062 207.109375 182.785156 C 206.851562 183.332031 206.597656 183.878906 206.359375 184.433594 C 205.96875 185.332031 205.59375 186.238281 205.21875 187.144531 C 202.378906 184.316406 201.285156 181.671875 201.285156 181.671875 C 197.273438 181.4375 197.175781 178.34375 197.375 177.542969 C 197.570312 176.742188 197.207031 175.832031 195.363281 174.621094 C 193.347656 173.296875 193.992188 172.640625 193.992188 172.640625 " fill-opacity="1" fill-rule="nonzero"/><path fill="#000000" d="M 194.371094 173.210938 C 194.511719 173.453125 194.847656 173.824219 195.574219 174.300781 C 197.332031 175.457031 198.023438 176.515625 197.746094 177.632812 C 197.671875 177.941406 197.605469 179.019531 198.28125 179.933594 C 198.882812 180.75 199.902344 181.207031 201.308594 181.289062 C 201.453125 181.296875 201.582031 181.386719 201.640625 181.523438 C 201.648438 181.546875 202.636719 183.886719 205.085938 186.460938 C 205.371094 185.777344 205.683594 185.023438 206.007812 184.28125 C 206.203125 183.832031 206.402344 183.394531 206.597656 182.976562 C 205.253906 182.355469 203.925781 181.617188 202.652344 180.765625 C 202.59375 180.726562 202.546875 180.671875 202.519531 180.609375 L 200.207031 175.636719 Z M 205.21875 187.527344 C 205.117188 187.527344 205.023438 187.488281 204.949219 187.414062 C 202.523438 185.003906 201.355469 182.738281 201.03125 182.035156 C 199.503906 181.902344 198.371094 181.347656 197.664062 180.390625 C 196.902344 179.355469 196.851562 178.066406 197.003906 177.449219 C 197.121094 176.972656 197.058594 176.191406 195.15625 174.941406 C 194.128906 174.269531 193.578125 173.628906 193.515625 173.046875 C 193.472656 172.644531 193.679688 172.414062 193.71875 172.371094 C 193.828125 172.261719 193.996094 172.226562 194.140625 172.285156 L 200.636719 174.988281 C 200.726562 175.023438 200.796875 175.09375 200.835938 175.179688 L 203.167969 180.1875 C 204.488281 181.0625 205.867188 181.820312 207.261719 182.433594 C 207.355469 182.476562 207.429688 182.554688 207.46875 182.648438 C 207.503906 182.746094 207.5 182.851562 207.457031 182.945312 C 207.214844 183.464844 206.957031 184.015625 206.710938 184.585938 C 206.300781 185.523438 205.910156 186.472656 205.574219 187.289062 C 205.523438 187.40625 205.421875 187.492188 205.296875 187.519531 C 205.269531 187.523438 205.246094 187.527344 205.21875 187.527344 " fill-opacity="1" fill-rule="nonzero"/><path fill="#ffffff" d="M 237.546875 170.972656 C 237.546875 170.972656 246.445312 169.699219 255.207031 169.445312 C 255.207031 169.445312 266.195312 198.109375 266.195312 200.042969 C 266.191406 201.976562 261.503906 204.449219 255.207031 202.871094 C 248.910156 201.292969 240.914062 201.136719 236.414062 202.1875 C 229.675781 203.761719 237.546875 170.972656 237.546875 170.972656 " fill-opacity="1" fill-rule="nonzero"/><path fill="#000000" d="M 243.488281 201.136719 C 247.410156 201.136719 251.730469 201.605469 255.300781 202.5 C 259.585938 203.574219 263.210938 202.722656 264.90625 201.402344 C 265.480469 200.957031 265.808594 200.460938 265.8125 200.042969 C 265.8125 198.683594 259.351562 181.335938 254.945312 169.835938 C 247.214844 170.082031 239.363281 171.109375 237.855469 171.316406 C 236.042969 178.949219 232.1875 198.523438 235.164062 201.519531 C 235.480469 201.832031 235.847656 201.929688 236.328125 201.816406 C 238.277344 201.359375 240.789062 201.136719 243.488281 201.136719 Z M 259.160156 203.761719 C 257.929688 203.761719 256.574219 203.609375 255.113281 203.242188 C 249.191406 201.757812 241.1875 201.464844 236.5 202.558594 C 235.769531 202.730469 235.121094 202.558594 234.621094 202.058594 C 230.695312 198.105469 236.90625 171.992188 237.171875 170.882812 C 237.210938 170.730469 237.335938 170.617188 237.492188 170.59375 C 237.582031 170.582031 246.511719 169.316406 255.195312 169.0625 C 255.355469 169.054688 255.503906 169.15625 255.5625 169.308594 C 256.691406 172.25 266.578125 198.09375 266.574219 200.042969 C 266.574219 200.707031 266.148438 201.402344 265.378906 202.007812 C 264.183594 202.9375 262.015625 203.761719 259.160156 203.761719 " fill-opacity="1" fill-rule="nonzero"/><path fill="#8c52ff" d="M 204.605469 180.570312 L 200.503906 183.171875 C 200.503906 183.171875 204.828125 193.171875 214.242188 196.230469 C 223.65625 199.285156 232.554688 190.625 232.554688 190.625 L 231.746094 209.191406 C 231.746094 209.191406 236.292969 211.890625 236.292969 211.652344 C 236.292969 211.414062 238.28125 170.230469 238.28125 170.230469 C 238.28125 170.230469 234.609375 170.289062 232.972656 172.617188 C 231.335938 174.945312 225.140625 184.578125 218.015625 184.691406 C 210.894531 184.808594 204.605469 180.570312 204.605469 180.570312 " fill-opacity="1" fill-rule="nonzero"/><path fill="#000000" d="M 227.234375 178.683594 L 243.410156 177.019531 C 243.953125 177.019531 244.46875 177.472656 244.558594 178.035156 L 248.464844 202.148438 C 248.554688 202.710938 248.1875 203.164062 247.644531 203.164062 L 230.492188 202.324219 C 229.949219 202.324219 229.378906 202.710938 229.289062 202.148438 L 225.378906 178.035156 C 225.289062 177.472656 226.6875 178.683594 227.234375 178.683594 " fill-opacity="1" fill-rule="nonzero"/><path fill="#000000" d="M 230.492188 201.941406 L 247.664062 202.785156 C 247.789062 202.78125 247.90625 202.730469 247.988281 202.636719 C 248.078125 202.527344 248.113281 202.378906 248.085938 202.207031 L 244.179688 178.097656 C 244.121094 177.726562 243.777344 177.410156 243.425781 177.398438 L 227.273438 179.066406 C 227.257812 179.066406 227.246094 179.066406 227.234375 179.066406 C 226.914062 179.066406 226.546875 178.871094 226.023438 178.566406 C 225.96875 178.53125 225.902344 178.496094 225.835938 178.457031 L 229.660156 202.066406 C 229.734375 202.058594 229.835938 202.039062 229.910156 202.019531 C 230.085938 201.984375 230.28125 201.941406 230.492188 201.941406 Z M 247.648438 203.546875 L 230.472656 202.707031 C 230.363281 202.707031 230.214844 202.738281 230.074219 202.769531 C 229.792969 202.828125 229.472656 202.898438 229.207031 202.71875 C 229.046875 202.609375 228.949219 202.4375 228.910156 202.207031 L 225.003906 178.097656 C 224.953125 177.789062 225.121094 177.636719 225.195312 177.585938 C 225.5 177.375 225.863281 177.585938 226.410156 177.90625 C 226.640625 178.039062 227.066406 178.289062 227.222656 178.300781 L 243.371094 176.636719 C 243.382812 176.636719 243.398438 176.636719 243.410156 176.636719 C 244.144531 176.636719 244.8125 177.222656 244.9375 177.972656 L 248.839844 202.085938 C 248.90625 202.472656 248.804688 202.855469 248.570312 203.132812 C 248.339844 203.398438 248.011719 203.546875 247.648438 203.546875 " fill-opacity="1" fill-rule="nonzero"/><path fill="#ffffff" d="M 225.664062 177.015625 L 242.875 177.015625 C 243.417969 177.015625 243.933594 177.472656 244.023438 178.035156 L 247.929688 202.144531 C 248.019531 202.710938 247.652344 203.164062 247.109375 203.164062 L 229.902344 203.164062 C 229.359375 203.164062 228.84375 202.710938 228.753906 202.144531 L 224.847656 178.035156 C 224.753906 177.472656 225.125 177.015625 225.664062 177.015625 " fill-opacity="1" fill-rule="nonzero"/><path fill="#000000" d="M 225.664062 177.398438 C 225.523438 177.398438 225.40625 177.449219 225.324219 177.546875 C 225.230469 177.652344 225.199219 177.804688 225.222656 177.972656 L 229.132812 202.085938 C 229.191406 202.460938 229.542969 202.78125 229.902344 202.78125 L 247.113281 202.78125 C 247.253906 202.78125 247.371094 202.730469 247.453125 202.636719 C 247.542969 202.527344 247.582031 202.375 247.550781 202.207031 L 243.644531 178.09375 C 243.585938 177.71875 243.230469 177.398438 242.875 177.398438 Z M 247.113281 203.546875 L 229.902344 203.546875 C 229.167969 203.546875 228.496094 202.957031 228.375 202.207031 L 224.46875 178.09375 C 224.40625 177.707031 224.507812 177.328125 224.742188 177.050781 C 224.96875 176.78125 225.296875 176.636719 225.664062 176.636719 L 242.875 176.636719 C 243.609375 176.636719 244.277344 177.222656 244.402344 177.972656 L 248.308594 202.085938 C 248.371094 202.472656 248.273438 202.855469 248.035156 203.132812 C 247.808594 203.398438 247.480469 203.546875 247.113281 203.546875 " fill-opacity="1" fill-rule="nonzero"/><path fill="#ffffff" d="M 246.703125 187.933594 L 246.515625 190.203125 L 239.625 188.949219 C 239.625 188.949219 239.46875 189.179688 239.371094 189.546875 C 239.242188 190.039062 239.230469 190.785156 239.859375 191.570312 C 240.160156 191.945312 241.351562 191.957031 241.257812 192.699219 C 241.179688 193.347656 243.871094 193.855469 246.203125 194.289062 C 248.8125 194.769531 248.589844 191.054688 247.941406 189.148438 C 247.441406 187.664062 246.703125 187.933594 246.703125 187.933594 " fill-opacity="1" fill-rule="nonzero"/><path fill="#000000" d="M 241.644531 192.691406 C 242.011719 193.121094 244.773438 193.632812 246.273438 193.910156 C 246.816406 194.011719 247.214844 193.90625 247.492188 193.585938 C 248.179688 192.792969 248.074219 190.730469 247.578125 189.273438 C 247.40625 188.753906 247.210938 188.496094 247.050781 188.378906 L 246.898438 190.234375 C 246.890625 190.339844 246.835938 190.441406 246.75 190.507812 C 246.664062 190.574219 246.554688 190.597656 246.449219 190.578125 L 239.832031 189.378906 C 239.800781 189.449219 239.769531 189.539062 239.742188 189.644531 C 239.589844 190.230469 239.730469 190.796875 240.15625 191.332031 C 240.207031 191.390625 240.4375 191.480469 240.574219 191.53125 C 241 191.695312 241.699219 191.964844 241.644531 192.691406 Z M 246.640625 194.710938 C 246.484375 194.710938 246.316406 194.699219 246.132812 194.664062 C 242.390625 193.96875 240.765625 193.570312 240.878906 192.652344 C 240.894531 192.515625 240.773438 192.429688 240.300781 192.246094 C 240.023438 192.140625 239.734375 192.027344 239.558594 191.808594 C 238.828125 190.898438 238.851562 190.023438 239 189.449219 C 239.109375 189.03125 239.289062 188.761719 239.308594 188.734375 C 239.398438 188.609375 239.546875 188.546875 239.691406 188.574219 L 246.171875 189.753906 L 246.320312 187.902344 C 246.332031 187.753906 246.433594 187.625 246.574219 187.574219 C 246.628906 187.554688 246.925781 187.464844 247.300781 187.640625 C 247.722656 187.84375 248.0625 188.3125 248.304688 189.027344 C 248.773438 190.410156 249.097656 192.898438 248.070312 194.085938 C 247.808594 194.390625 247.359375 194.710938 246.640625 194.710938 " fill-opacity="1" fill-rule="nonzero"/><path fill="#8c52ff" d="M 247.566406 194.199219 L 248.945312 192.097656 C 248.945312 192.097656 255.800781 193.488281 258.964844 192.097656 C 264.492188 189.667969 263.449219 181.183594 262.507812 176.960938 C 261.566406 172.738281 259.488281 169.050781 259.488281 169.050781 C 259.488281 169.050781 264.566406 171.917969 268.011719 178.226562 C 271.453125 184.535156 272.574219 198.648438 261.058594 201.199219 C 253.523438 202.867188 247.566406 194.199219 247.566406 194.199219 " fill-opacity="1" fill-rule="nonzero"/><path fill="#ffffff" d="M 266.949219 198.554688 C 266.839844 198.554688 266.730469 198.511719 266.65625 198.417969 C 266.519531 198.257812 266.542969 198.015625 266.703125 197.878906 C 270.15625 194.976562 269.925781 188.585938 269.921875 188.523438 C 269.910156 188.3125 270.078125 188.132812 270.289062 188.125 C 270.503906 188.117188 270.675781 188.28125 270.6875 188.492188 C 270.699219 188.765625 270.9375 195.320312 267.191406 198.464844 C 267.121094 198.527344 267.035156 198.554688 266.949219 198.554688 " fill-opacity="1" fill-rule="nonzero"/><path fill="#ffffff" d="M 245.695312 158.855469 C 245.523438 158.957031 245.304688 158.882812 245.230469 158.699219 C 244.871094 157.820312 244.300781 156.121094 243.128906 155.851562 C 241.628906 155.503906 239.195312 155.054688 238.988281 156.242188 C 238.804688 157.285156 239.019531 159.082031 237.921875 160.382812 C 237.820312 160.507812 237.910156 160.707031 238.039062 160.804688 L 238.730469 161.386719 C 238.875 161.496094 239 161.867188 239.015625 162.050781 C 239.070312 162.613281 239.144531 163.816406 239.339844 163.972656 C 239.71875 164.273438 241.617188 164.15625 241.617188 164.15625 L 243.140625 169.390625 C 243.199219 169.589844 243.082031 169.800781 242.882812 169.851562 L 241.070312 170.464844 C 241.070312 170.464844 242.523438 172.507812 247.070312 172.199219 C 249.976562 172.003906 252.105469 169.953125 252.105469 169.953125 C 252.105469 169.953125 246.453125 169.152344 245.691406 162.472656 C 245.675781 162.324219 245.738281 162.179688 245.855469 162.09375 C 246.308594 161.753906 247.519531 160.753906 247.308594 159.742188 C 247.082031 158.671875 246.277344 158.503906 245.695312 158.855469 " fill-opacity="1" fill-rule="nonzero"/><path fill="#000000" d="M 245.695312 158.851562 L 245.699219 158.851562 Z M 239.628906 163.726562 Z M 241.785156 170.625 C 242.457031 171.152344 244.046875 172.019531 247.046875 171.816406 C 248.925781 171.6875 250.484375 170.726562 251.277344 170.136719 C 249.640625 169.628906 245.925781 167.886719 245.3125 162.515625 C 245.28125 162.234375 245.402344 161.953125 245.628906 161.785156 C 245.972656 161.523438 247.097656 160.605469 246.933594 159.820312 C 246.855469 159.453125 246.703125 159.210938 246.484375 159.117188 C 246.308594 159.039062 246.09375 159.0625 245.890625 159.179688 C 245.714844 159.289062 245.5 159.3125 245.304688 159.246094 C 245.109375 159.179688 244.957031 159.035156 244.878906 158.839844 C 244.84375 158.765625 244.8125 158.679688 244.777344 158.59375 C 244.457031 157.78125 243.917969 156.421875 243.042969 156.222656 C 241.1875 155.792969 240.011719 155.734375 239.539062 156.046875 C 239.4375 156.113281 239.382812 156.195312 239.363281 156.308594 C 239.324219 156.550781 239.304688 156.851562 239.28125 157.171875 C 239.210938 158.203125 239.125 159.472656 238.300781 160.523438 L 238.976562 161.09375 C 239.242188 161.292969 239.378906 161.808594 239.398438 162.011719 C 239.40625 162.097656 239.414062 162.203125 239.425781 162.316406 C 239.457031 162.664062 239.523438 163.449219 239.609375 163.6875 C 239.851562 163.785156 240.746094 163.824219 241.59375 163.773438 C 241.769531 163.761719 241.9375 163.875 241.984375 164.046875 L 243.507812 169.285156 C 243.566406 169.480469 243.539062 169.691406 243.441406 169.867188 C 243.339844 170.039062 243.183594 170.160156 242.996094 170.214844 Z M 246.160156 172.613281 C 242.179688 172.613281 240.820312 170.773438 240.757812 170.6875 C 240.6875 170.589844 240.667969 170.460938 240.707031 170.347656 C 240.742188 170.234375 240.832031 170.140625 240.945312 170.101562 L 242.761719 169.488281 C 242.769531 169.484375 242.78125 169.480469 242.789062 169.476562 L 241.335938 164.550781 C 240.5625 164.585938 239.480469 164.570312 239.101562 164.269531 C 238.851562 164.070312 238.773438 163.621094 238.664062 162.382812 C 238.652344 162.273438 238.644531 162.171875 238.636719 162.085938 C 238.625 161.96875 238.539062 161.738281 238.488281 161.679688 L 237.792969 161.09375 C 237.640625 160.976562 237.523438 160.78125 237.5 160.582031 C 237.480469 160.417969 237.527344 160.257812 237.632812 160.132812 C 238.371094 159.253906 238.453125 158.070312 238.515625 157.121094 C 238.539062 156.78125 238.5625 156.457031 238.609375 156.175781 C 238.667969 155.855469 238.84375 155.589844 239.117188 155.410156 C 239.796875 154.957031 241.0625 154.980469 243.214844 155.476562 C 244.480469 155.769531 245.085938 157.296875 245.488281 158.308594 L 245.5625 158.492188 C 245.960938 158.273438 246.40625 158.246094 246.792969 158.414062 C 247.238281 158.609375 247.554688 159.054688 247.683594 159.664062 C 247.925781 160.816406 246.785156 161.871094 246.085938 162.398438 C 246.078125 162.402344 246.070312 162.417969 246.074219 162.425781 C 246.789062 168.71875 251.941406 169.542969 252.160156 169.574219 C 252.304688 169.59375 252.425781 169.695312 252.46875 169.835938 C 252.515625 169.976562 252.476562 170.125 252.371094 170.226562 C 252.28125 170.316406 250.109375 172.375 247.097656 172.578125 C 246.769531 172.601562 246.457031 172.613281 246.160156 172.613281 " fill-opacity="1" fill-rule="nonzero"/><path fill="#ffffff" d="M 250.238281 95.875 C 251.476562 95.875 252.582031 96.996094 252.703125 98.378906 L 254.222656 115.597656 C 254.34375 116.980469 253.4375 118.101562 252.199219 118.101562 L 211.082031 118.101562 L 201.84375 126.980469 L 203.597656 118.101562 L 196.710938 118.101562 C 195.472656 118.101562 194.371094 116.980469 194.246094 115.597656 L 192.730469 98.378906 C 192.605469 96.996094 193.511719 95.875 194.75 95.875 L 250.238281 95.875 " fill-opacity="1" fill-rule="nonzero"/><path fill="#000000" d="M 201.832031 127.808594 C 201.738281 127.808594 201.640625 127.785156 201.554688 127.738281 C 201.328125 127.613281 201.214844 127.363281 201.269531 127.113281 L 203.125 118.484375 L 196.710938 118.484375 C 195.28125 118.484375 194.003906 117.203125 193.867188 115.632812 L 192.347656 98.410156 C 192.277344 97.589844 192.527344 96.804688 193.035156 96.25 C 193.480469 95.761719 194.09375 95.488281 194.753906 95.488281 L 213.886719 95.386719 C 214.097656 95.386719 214.269531 95.554688 214.269531 95.765625 C 214.269531 95.976562 214.101562 96.148438 213.890625 96.148438 L 194.753906 96.253906 C 194.308594 96.253906 193.898438 96.4375 193.597656 96.765625 C 193.234375 97.164062 193.058594 97.738281 193.109375 98.34375 L 194.628906 115.5625 C 194.734375 116.753906 195.667969 117.71875 196.710938 117.71875 L 204.074219 117.71875 L 202.148438 126.648438 L 210.902344 117.972656 L 252.195312 117.71875 C 252.644531 117.71875 253.054688 117.535156 253.355469 117.207031 C 253.71875 116.8125 253.894531 116.238281 253.84375 115.632812 L 252.324219 98.410156 C 252.21875 97.222656 251.285156 96.253906 250.238281 96.253906 L 218.636719 96.320312 C 218.425781 96.320312 218.253906 96.148438 218.253906 95.9375 C 218.253906 95.726562 218.425781 95.554688 218.636719 95.554688 L 250.238281 95.488281 C 251.671875 95.488281 252.945312 96.769531 253.085938 98.34375 L 254.605469 115.5625 C 254.675781 116.382812 254.425781 117.167969 253.917969 117.722656 C 253.472656 118.214844 252.859375 118.484375 252.199219 118.484375 L 211.222656 118.734375 L 202.234375 127.640625 C 202.125 127.753906 201.980469 127.808594 201.832031 127.808594 " fill-opacity="1" fill-rule="nonzero"/><path fill="#f1eaff" d="M 246.097656 103.335938 L 200.980469 103.335938 C 200.332031 103.335938 199.75 102.808594 199.679688 102.164062 C 199.609375 101.515625 200.082031 100.992188 200.730469 100.992188 L 245.847656 100.992188 C 246.496094 100.992188 247.078125 101.515625 247.148438 102.164062 C 247.21875 102.808594 246.746094 103.335938 246.097656 103.335938 " fill-opacity="1" fill-rule="nonzero"/><path fill="#d2c7ff" d="M 246.640625 108.382812 L 201.519531 108.382812 C 200.871094 108.382812 200.289062 107.859375 200.222656 107.210938 C 200.152344 106.5625 200.621094 106.039062 201.269531 106.039062 L 246.386719 106.039062 C 247.035156 106.039062 247.617188 106.5625 247.6875 107.210938 C 247.757812 107.859375 247.289062 108.382812 246.640625 108.382812 " fill-opacity="1" fill-rule="nonzero"/><path fill="#d2c7ff" d="M 247.179688 113.425781 L 202.0625 113.425781 C 201.414062 113.425781 200.832031 112.902344 200.761719 112.257812 C 200.695312 111.609375 201.164062 111.085938 201.8125 111.085938 L 246.929688 111.085938 C 247.578125 111.085938 248.160156 111.609375 248.230469 112.257812 C 248.300781 112.902344 247.832031 113.425781 247.179688 113.425781 " fill-opacity="1" fill-rule="nonzero"/><path fill="#ffffff" d="M 282.726562 140.929688 C 283.84375 140.949219 284.695312 140.0625 284.632812 138.953125 L 283.839844 125.160156 C 283.777344 124.050781 282.824219 123.140625 281.707031 123.125 L 245.5625 122.398438 C 244.449219 122.382812 242.191406 123.199219 242.257812 124.308594 L 242.289062 138.363281 C 242.351562 139.472656 243.308594 140.382812 244.425781 140.398438 L 248.871094 140.335938 L 251.035156 147.585938 L 255.105469 140.464844 L 282.726562 140.929688 " fill-opacity="1" fill-rule="nonzero"/><path fill="#000000" d="M 249.554688 139.949219 L 251.175781 146.566406 L 254.886719 140.074219 L 255.113281 140.078125 L 281.195312 140.589844 C 281.203125 140.589844 281.210938 140.589844 281.21875 140.589844 C 281.890625 140.589844 282.726562 140.25 283.164062 139.789062 C 283.382812 139.558594 283.488281 139.320312 283.476562 139.085938 L 283.460938 125.15625 C 283.40625 124.269531 282.621094 123.519531 281.703125 123.507812 L 244.796875 122.90625 C 244.785156 122.90625 244.773438 122.90625 244.761719 122.90625 C 244.082031 122.90625 243.3125 123.199219 242.921875 123.609375 C 242.71875 123.820312 242.625 124.046875 242.640625 124.285156 L 242.671875 138.363281 C 242.722656 139.25 243.511719 140 244.429688 140.011719 Z M 250.894531 148.609375 L 248.957031 140.722656 L 244.429688 140.78125 C 243.109375 140.761719 241.984375 139.6875 241.90625 138.386719 L 241.875 124.308594 C 241.851562 123.875 242.019531 123.445312 242.367188 123.082031 C 243.003906 122.417969 244.058594 122.128906 244.808594 122.144531 L 281.714844 122.742188 C 283.023438 122.761719 284.148438 123.832031 284.222656 125.136719 L 284.238281 139.0625 C 284.265625 139.492188 284.082031 139.933594 283.714844 140.320312 C 283.121094 140.941406 282.085938 141.363281 281.179688 141.355469 L 255.324219 140.847656 L 250.894531 148.609375 " fill-opacity="1" fill-rule="nonzero"/><path fill="#ffffff" d="M 248.335938 133.890625 L 278.78125 134.316406 L 248.335938 133.890625 " fill-opacity="1" fill-rule="nonzero"/><path fill="#000000" d="M 278.78125 134.699219 C 278.777344 134.699219 278.777344 134.699219 278.773438 134.699219 L 248.332031 134.273438 C 248.121094 134.269531 247.953125 134.097656 247.953125 133.886719 C 247.957031 133.675781 248.128906 133.507812 248.335938 133.507812 C 248.339844 133.507812 248.339844 133.507812 248.34375 133.507812 L 278.785156 133.933594 C 278.996094 133.933594 279.164062 134.109375 279.164062 134.320312 C 279.160156 134.53125 278.988281 134.699219 278.78125 134.699219 " fill-opacity="1" fill-rule="nonzero"/><path fill="#ffffff" d="M 272.183594 130.1875 L 278.546875 130.273438 L 272.183594 130.1875 " fill-opacity="1" fill-rule="nonzero"/><path fill="#000000" d="M 278.550781 130.65625 C 278.546875 130.65625 278.542969 130.65625 278.542969 130.65625 L 272.179688 130.570312 C 271.964844 130.566406 271.796875 130.394531 271.800781 130.179688 C 271.804688 129.972656 271.972656 129.804688 272.183594 129.804688 C 272.1875 129.804688 272.1875 129.804688 272.1875 129.804688 L 278.554688 129.894531 C 278.765625 129.894531 278.933594 130.070312 278.929688 130.28125 C 278.929688 130.488281 278.757812 130.65625 278.550781 130.65625 " fill-opacity="1" fill-rule="nonzero"/><path fill="#ffffff" d="M 248.105469 129.851562 L 268.117188 130.128906 L 248.105469 129.851562 " fill-opacity="1" fill-rule="nonzero"/><path fill="#000000" d="M 268.117188 130.511719 C 268.113281 130.511719 268.109375 130.511719 268.109375 130.511719 L 248.101562 130.234375 C 247.890625 130.230469 247.71875 130.054688 247.722656 129.84375 C 247.726562 129.636719 247.894531 129.46875 248.105469 129.46875 C 248.109375 129.46875 248.109375 129.46875 248.109375 129.46875 L 268.121094 129.75 C 268.332031 129.75 268.5 129.925781 268.496094 130.136719 C 268.496094 130.34375 268.324219 130.511719 268.117188 130.511719 " fill-opacity="1" fill-rule="nonzero"/><path fill="#8c52ff" d="M 107.511719 274.398438 L 196.179688 274.398438 C 200.003906 274.398438 202.707031 271.3125 202.226562 267.503906 L 180.394531 95.023438 C 179.910156 91.214844 176.421875 88.125 172.601562 88.125 L 88.382812 87.144531 C 78.71875 87.144531 77.40625 91.214844 77.886719 95.023438 L 99.71875 267.503906 C 100.203125 271.3125 103.691406 274.398438 107.511719 274.398438 " fill-opacity="1" fill-rule="nonzero"/><path fill="#ffffff" d="M 112.847656 274.398438 L 201.515625 274.398438 C 205.335938 274.398438 208.042969 271.300781 207.5625 267.480469 L 185.730469 94.449219 C 185.246094 90.628906 181.757812 87.53125 177.9375 87.53125 L 89.269531 87.53125 C 85.449219 87.53125 82.742188 90.628906 83.222656 94.449219 L 105.054688 267.480469 C 105.539062 271.300781 109.027344 274.398438 112.847656 274.398438 " fill-opacity="1" fill-rule="nonzero"/><path fill="#000000" d="M 92.339844 170.402344 C 92.148438 170.402344 91.984375 170.257812 91.960938 170.0625 L 82.84375 94.496094 C 82.597656 92.53125 83.132812 90.679688 84.363281 89.285156 C 85.578125 87.910156 87.320312 87.148438 89.269531 87.148438 L 99.558594 87.148438 C 99.769531 87.148438 99.941406 87.324219 99.941406 87.53125 C 99.941406 87.742188 99.769531 87.914062 99.558594 87.914062 L 89.269531 87.914062 C 87.542969 87.914062 86.003906 88.582031 84.9375 89.792969 C 83.855469 91.019531 83.382812 92.65625 83.601562 94.402344 L 92.71875 169.972656 C 92.746094 170.183594 92.59375 170.375 92.386719 170.398438 C 92.371094 170.402344 92.355469 170.402344 92.339844 170.402344 " fill-opacity="1" fill-rule="nonzero"/><path fill="#000000" d="M 164.277344 88.042969 L 105.867188 87.914062 C 105.65625 87.914062 105.488281 87.742188 105.488281 87.53125 C 105.488281 87.320312 105.660156 87.148438 105.871094 87.148438 L 164.28125 87.277344 C 164.492188 87.28125 164.660156 87.449219 164.660156 87.664062 C 164.660156 87.875 164.488281 88.042969 164.277344 88.042969 " fill-opacity="1" fill-rule="nonzero"/><path fill="#000000" d="M 203.792969 237.074219 C 203.605469 237.074219 203.441406 236.929688 203.414062 236.738281 L 199.8125 207.285156 C 199.789062 207.074219 199.9375 206.882812 200.144531 206.855469 C 200.355469 206.835938 200.546875 206.980469 200.574219 207.191406 L 204.175781 236.644531 C 204.199219 236.855469 204.050781 237.042969 203.84375 237.070312 C 203.824219 237.070312 203.808594 237.074219 203.792969 237.074219 " fill-opacity="1" fill-rule="nonzero"/><path fill="#000000" d="M 167.492188 274.78125 L 137 274.78125 C 136.789062 274.78125 136.617188 274.609375 136.617188 274.398438 C 136.617188 274.1875 136.789062 274.015625 137 274.015625 L 167.492188 274.015625 C 167.703125 274.015625 167.875 274.1875 167.875 274.398438 C 167.875 274.609375 167.703125 274.78125 167.492188 274.78125 " fill-opacity="1" fill-rule="nonzero"/><path fill="#000000" d="M 121.835938 274.78125 L 112.847656 274.78125 C 108.847656 274.78125 105.179688 271.527344 104.675781 267.527344 L 101.335938 241.050781 C 101.308594 240.839844 101.457031 240.648438 101.667969 240.625 C 101.878906 240.597656 102.070312 240.746094 102.09375 240.957031 L 105.4375 267.433594 C 105.894531 271.0625 109.21875 274.015625 112.847656 274.015625 L 121.835938 274.015625 C 122.046875 274.015625 122.21875 274.1875 122.21875 274.398438 C 122.21875 274.609375 122.046875 274.78125 121.835938 274.78125 " fill-opacity="1" fill-rule="nonzero"/><path fill="#f1eaff" d="M 202.507812 267.71875 L 181.664062 102.503906 C 181.550781 101.621094 180.746094 100.90625 179.863281 100.90625 L 90.71875 100.90625 C 89.835938 100.90625 89.210938 101.621094 89.324219 102.503906 L 110.167969 267.71875 C 110.28125 268.601562 111.085938 269.316406 111.96875 269.316406 L 201.113281 269.316406 C 201.996094 269.316406 202.621094 268.601562 202.507812 267.71875 " fill-opacity="1" fill-rule="nonzero"/><path fill="#d2c7ff" d="M 134.714844 96.332031 C 136.144531 96.332031 137.160156 95.171875 136.976562 93.742188 C 136.796875 92.308594 135.492188 91.148438 134.058594 91.148438 C 132.628906 91.148438 131.613281 92.308594 131.792969 93.742188 C 131.976562 95.171875 133.28125 96.332031 134.714844 96.332031 " fill-opacity="1" fill-rule="nonzero"/><path fill="#000000" d="M 184.699219 213.3125 C 184.6875 213.3125 184.671875 213.3125 184.660156 213.3125 C 180.390625 213.300781 175.996094 210.730469 171.601562 205.671875 C 168.519531 202.125 166.558594 198.621094 166.476562 198.472656 C 165.824219 197.296875 166.246094 195.8125 167.425781 195.160156 C 168.597656 194.507812 170.082031 194.929688 170.738281 196.105469 C 172.648438 199.53125 178.875 208.425781 184.675781 208.441406 C 184.683594 208.441406 184.691406 208.441406 184.699219 208.441406 C 186.539062 208.441406 187.960938 207.871094 189.046875 206.703125 C 191.644531 203.910156 191.835938 198.324219 191.691406 196.40625 C 191.589844 195.066406 192.59375 193.894531 193.933594 193.789062 C 195.273438 193.691406 196.445312 194.695312 196.550781 196.035156 C 196.578125 196.402344 197.183594 205.109375 192.617188 210.023438 C 190.585938 212.207031 187.925781 213.3125 184.699219 213.3125 " fill-opacity="1" fill-rule="nonzero"/><path fill="#000000" d="M 201.804688 195.761719 L 187.378906 195.761719 C 186.03125 195.761719 184.941406 194.667969 184.941406 193.324219 C 184.941406 191.980469 186.03125 190.886719 187.378906 190.886719 L 201.804688 190.886719 C 203.152344 190.886719 204.242188 191.980469 204.242188 193.324219 C 204.242188 194.667969 203.152344 195.761719 201.804688 195.761719 " fill-opacity="1" fill-rule="nonzero"/><path fill="#ffffff" d="M 182.171875 162.242188 L 181.976562 162.242188 L 181.976562 147.835938 L 182.171875 147.835938 C 186.148438 147.835938 189.371094 151.058594 189.371094 155.035156 L 189.371094 155.042969 C 189.371094 159.019531 186.148438 162.242188 182.171875 162.242188 " fill-opacity="1" fill-rule="nonzero"/><path fill="#000000" d="M 182.359375 148.222656 L 182.359375 161.855469 C 186.03125 161.757812 188.988281 158.738281 188.988281 155.042969 C 188.988281 151.339844 186.03125 148.320312 182.359375 148.222656 Z M 182.171875 162.625 L 181.976562 162.625 C 181.765625 162.625 181.59375 162.453125 181.59375 162.242188 L 181.59375 147.835938 C 181.59375 147.625 181.765625 147.453125 181.976562 147.453125 L 182.171875 147.453125 C 186.351562 147.453125 189.75 150.855469 189.75 155.035156 C 189.75 159.226562 186.351562 162.625 182.171875 162.625 " fill-opacity="1" fill-rule="nonzero"/><path fill="#ffffff" d="M 116.738281 162.242188 L 116.933594 162.242188 L 116.933594 147.835938 L 116.738281 147.835938 C 112.765625 147.835938 109.542969 151.058594 109.542969 155.035156 L 109.542969 155.042969 C 109.542969 159.019531 112.765625 162.242188 116.738281 162.242188 " fill-opacity="1" fill-rule="nonzero"/><path fill="#000000" d="M 116.550781 148.222656 C 112.878906 148.320312 109.925781 151.339844 109.925781 155.035156 C 109.925781 158.738281 112.878906 161.757812 116.550781 161.855469 Z M 116.933594 162.625 L 116.738281 162.625 C 112.558594 162.625 109.160156 159.226562 109.160156 155.042969 C 109.160156 150.855469 112.558594 147.453125 116.738281 147.453125 L 116.933594 147.453125 C 117.144531 147.453125 117.316406 147.625 117.316406 147.835938 L 117.316406 162.242188 C 117.316406 162.453125 117.144531 162.625 116.933594 162.625 " fill-opacity="1" fill-rule="nonzero"/><path fill="#ffffff" d="M 114.605469 154.445312 C 114.605469 138.964844 130.207031 122.953125 149.457031 122.953125 C 168.703125 122.953125 184.308594 138.964844 184.308594 154.445312 C 184.308594 169.925781 168.703125 179.011719 149.457031 179.011719 C 130.207031 179.011719 114.605469 169.925781 114.605469 154.445312 " fill-opacity="1" fill-rule="nonzero"/><path fill="#000000" d="M 149.457031 123.335938 C 129.730469 123.335938 114.988281 139.757812 114.988281 154.445312 C 114.988281 161.691406 118.460938 167.832031 125.023438 172.214844 C 131.226562 176.347656 139.902344 178.625 149.457031 178.625 C 159.007812 178.625 167.6875 176.347656 173.886719 172.214844 C 180.453125 167.832031 183.921875 161.691406 183.921875 154.445312 C 183.921875 139.757812 169.183594 123.335938 149.457031 123.335938 Z M 149.457031 179.390625 C 139.753906 179.390625 130.925781 177.066406 124.601562 172.847656 C 117.8125 168.320312 114.222656 161.957031 114.222656 154.445312 C 114.222656 146.75 117.988281 138.792969 124.550781 132.613281 C 131.429688 126.136719 140.277344 122.570312 149.457031 122.570312 C 158.636719 122.570312 167.480469 126.136719 174.359375 132.613281 C 180.925781 138.792969 184.6875 146.75 184.6875 154.445312 C 184.6875 161.957031 181.101562 168.320312 174.3125 172.847656 C 167.988281 177.066406 159.160156 179.390625 149.457031 179.390625 " fill-opacity="1" fill-rule="nonzero"/><path fill="#ffffff" d="M 158.183594 183.660156 L 140.726562 183.660156 C 133.074219 183.660156 126.871094 189.863281 126.871094 197.515625 C 126.871094 202.570312 127.363281 207.613281 128.34375 212.574219 L 130.855469 225.285156 C 132.609375 234.171875 140.398438 240.574219 149.457031 240.574219 C 158.511719 240.574219 166.304688 234.171875 168.058594 225.285156 L 170.570312 212.574219 C 171.546875 207.613281 172.039062 202.570312 172.039062 197.515625 C 172.039062 189.863281 165.839844 183.660156 158.183594 183.660156 " fill-opacity="1" fill-rule="nonzero"/><path fill="#000000" d="M 140.726562 184.042969 C 133.296875 184.042969 127.253906 190.085938 127.253906 197.515625 C 127.253906 202.535156 127.746094 207.578125 128.71875 212.5 L 131.230469 225.210938 C 132.941406 233.894531 140.609375 240.191406 149.457031 240.191406 C 158.304688 240.191406 165.96875 233.894531 167.683594 225.210938 L 170.191406 212.5 C 171.164062 207.578125 171.660156 202.535156 171.660156 197.515625 C 171.660156 190.085938 165.613281 184.042969 158.183594 184.042969 Z M 149.457031 240.957031 C 140.242188 240.957031 132.261719 234.398438 130.480469 225.359375 L 127.96875 212.648438 C 126.988281 207.675781 126.488281 202.585938 126.488281 197.515625 C 126.488281 189.664062 132.875 183.277344 140.726562 183.277344 L 158.183594 183.277344 C 166.035156 183.277344 172.421875 189.664062 172.421875 197.515625 C 172.421875 202.585938 171.925781 207.675781 170.945312 212.648438 L 168.433594 225.359375 C 166.648438 234.398438 158.667969 240.957031 149.457031 240.957031 " fill-opacity="1" fill-rule="nonzero"/><path fill="#8c52ff" d="M 149.464844 214.359375 L 149.449219 214.359375 C 144.203125 214.359375 139.953125 210.105469 139.953125 204.863281 L 139.953125 183.660156 L 158.960938 183.660156 L 158.960938 204.863281 C 158.960938 210.105469 154.707031 214.359375 149.464844 214.359375 " fill-opacity="1" fill-rule="nonzero"/><path fill="#000000" d="M 158.960938 184.042969 L 139.953125 184.042969 C 139.742188 184.042969 139.570312 183.871094 139.570312 183.660156 C 139.570312 183.449219 139.742188 183.277344 139.953125 183.277344 L 158.960938 183.277344 C 159.171875 183.277344 159.34375 183.449219 159.34375 183.660156 C 159.34375 183.871094 159.171875 184.042969 158.960938 184.042969 " fill-opacity="1" fill-rule="nonzero"/><path fill="#000000" d="M 172.886719 149.800781 L 139.328125 149.800781 C 135.839844 149.800781 133.011719 152.84375 133.011719 156.601562 L 133.011719 161.039062 C 133.011719 163.902344 134.542969 166.941406 137.179688 167.4375 C 146.480469 169.183594 165.730469 169.183594 175.03125 167.4375 C 177.667969 166.941406 179.199219 163.902344 179.199219 161.039062 L 179.199219 156.601562 C 179.199219 152.84375 176.371094 149.800781 172.886719 149.800781 " fill-opacity="1" fill-rule="nonzero"/><path fill="#8c52ff" d="M 148.21875 158.730469 C 148.21875 159.988281 147.273438 161.007812 146.105469 161.007812 C 144.9375 161.007812 143.992188 159.988281 143.992188 158.730469 C 143.992188 157.472656 144.9375 156.449219 146.105469 156.449219 C 147.273438 156.449219 148.21875 157.472656 148.21875 158.730469 " fill-opacity="1" fill-rule="nonzero"/><path fill="#8c52ff" d="M 170.722656 158.730469 C 170.722656 159.988281 169.773438 161.007812 168.605469 161.007812 C 167.4375 161.007812 166.492188 159.988281 166.492188 158.730469 C 166.492188 157.472656 167.4375 156.449219 168.605469 156.449219 C 169.773438 156.449219 170.722656 157.472656 170.722656 158.730469 " fill-opacity="1" fill-rule="nonzero"/><path fill="#000000" d="M 127.164062 224.386719 C 122.390625 224.386719 115.933594 223.707031 111.792969 220.535156 C 109.410156 218.703125 108.015625 216.289062 107.652344 213.355469 C 106.023438 200.183594 121.917969 192.644531 122.59375 192.332031 C 123.816406 191.765625 125.261719 192.292969 125.832031 193.515625 C 126.394531 194.734375 125.867188 196.183594 124.648438 196.75 C 124.515625 196.8125 111.292969 203.113281 112.488281 212.757812 C 112.6875 214.367188 113.429688 215.648438 114.757812 216.667969 C 119.308594 220.15625 129.234375 219.667969 132.675781 219.183594 C 134.007812 218.996094 135.238281 219.921875 135.425781 221.253906 C 135.613281 222.589844 134.683594 223.820312 133.351562 224.007812 C 133.109375 224.042969 130.5625 224.386719 127.164062 224.386719 " fill-opacity="1" fill-rule="nonzero"/><path fill="#000000" d="M 143.988281 226.976562 L 139.308594 226.976562 C 136.753906 226.976562 134.632812 225.058594 134.378906 222.515625 L 134.214844 220.886719 C 134.078125 219.496094 134.535156 218.105469 135.472656 217.070312 C 136.410156 216.035156 137.75 215.441406 139.144531 215.441406 L 146.609375 215.441406 C 147.953125 215.441406 149.042969 216.53125 149.042969 217.875 C 149.042969 219.222656 147.953125 220.3125 146.609375 220.3125 L 139.144531 220.3125 C 139.132812 220.3125 139.109375 220.3125 139.085938 220.339844 C 139.058594 220.367188 139.0625 220.390625 139.0625 220.402344 L 139.226562 222.03125 C 139.230469 222.074219 139.265625 222.105469 139.308594 222.105469 L 143.988281 222.105469 C 145.332031 222.105469 146.421875 223.195312 146.421875 224.542969 C 146.421875 225.886719 145.332031 226.976562 143.988281 226.976562 " fill-opacity="1" fill-rule="nonzero"/><path fill="#ffffff" d="M 224.574219 266.917969 C 224.574219 281.25 212.953125 292.871094 198.621094 292.871094 C 184.289062 292.871094 172.667969 281.25 172.667969 266.917969 C 172.667969 252.585938 184.289062 240.964844 198.621094 240.964844 C 212.953125 240.964844 224.574219 252.585938 224.574219 266.917969 " fill-opacity="1" fill-rule="nonzero"/><path fill="#000000" d="M 198.621094 241.347656 C 184.523438 241.347656 173.050781 252.820312 173.050781 266.917969 C 173.050781 281.015625 184.523438 292.488281 198.621094 292.488281 C 212.71875 292.488281 224.191406 281.015625 224.191406 266.917969 C 224.191406 252.820312 212.71875 241.347656 198.621094 241.347656 Z M 198.621094 293.253906 C 184.101562 293.253906 172.285156 281.441406 172.285156 266.917969 C 172.285156 252.398438 184.101562 240.582031 198.621094 240.582031 C 213.140625 240.582031 224.957031 252.398438 224.957031 266.917969 C 224.957031 281.441406 213.140625 293.253906 198.621094 293.253906 " fill-opacity="1" fill-rule="nonzero"/><path fill="#8c52ff" d="M 222.128906 267.011719 C 222.128906 279.839844 211.730469 290.238281 198.902344 290.238281 C 186.074219 290.238281 175.675781 279.839844 175.675781 267.011719 C 175.675781 254.183594 186.074219 243.785156 198.902344 243.785156 C 211.730469 243.785156 222.128906 254.183594 222.128906 267.011719 " fill-opacity="1" fill-rule="nonzero"/></svg>