<svg width="19" height="14" viewBox="0 0 19 14" fill="none" xmlns="http://www.w3.org/2000/svg">
<mask id="mask0_3601_1714" style="mask-type:luminance" maskUnits="userSpaceOnUse" x="0" y="1" width="7" height="11">
<path d="M0.15625 1.33334H7V12H0.15625V1.33334Z" fill="white"/>
</mask>
<g mask="url(#mask0_3601_1714)">
<path d="M4.86458 11.349C4.59375 11.349 4.41146 11.2552 4.22396 11.0729L0.5625 7.40626C0.192708 7.04168 0.192708 6.48959 0.5625 6.12501L4.22396 2.45834C4.59375 2.09376 5.14063 2.09376 5.51042 2.45834C5.875 2.82814 5.875 3.37501 5.51042 3.7448L2.48438 6.76564L5.51042 9.79168C5.875 10.1563 5.875 10.7031 5.51042 11.0729C5.32292 11.2552 5.14062 11.349 4.86458 11.349Z" fill="white"/>
</g>
<path d="M14.026 11.349C13.7552 11.349 13.5729 11.2552 13.3854 11.0729C13.0208 10.7031 13.0208 10.1563 13.3854 9.79168L16.4114 6.76564L13.3854 3.7448C13.0208 3.37501 13.0208 2.82814 13.3854 2.45834C13.7552 2.09376 14.3021 2.09376 14.6719 2.45834L18.3333 6.12501C18.7031 6.48959 18.7031 7.04168 18.3333 7.40626L14.6719 11.0729C14.4844 11.2552 14.3021 11.349 14.026 11.349Z" fill="white"/>
<mask id="mask1_3601_1714" style="mask-type:luminance" maskUnits="userSpaceOnUse" x="5" y="0" width="8" height="14">
<path d="M5.66666 0.171875H12.3333V13.1615H5.66666V0.171875Z" fill="white"/>
</mask>
<g mask="url(#mask1_3601_1714)">
<path d="M7.61458 13.1771C7.52604 13.1771 7.43229 13.1771 7.33854 13.0885C6.88021 12.9062 6.60937 12.4479 6.79166 11.8958L10.4531 0.90104C10.6406 0.442706 11.099 0.171873 11.6458 0.354165C12.1042 0.536457 12.3802 0.99479 12.1979 1.54166L8.53125 12.5365C8.34896 12.9062 7.98437 13.1771 7.61458 13.1771Z" fill="white"/>
</g>
</svg>
