<svg width="31" height="31" viewBox="0 0 31 31" fill="none" xmlns="http://www.w3.org/2000/svg">
<path d="M25.1724 10.9783H21.895C21.7749 10.9783 21.659 11.0012 21.5481 11.0475C21.4372 11.0933 21.3391 11.1589 21.2538 11.2442L19.5072 12.9914H16.8637C16.8041 12.9914 16.7454 12.9974 16.6872 13.0088C16.6286 13.0208 16.5722 13.0377 16.5172 13.0607C16.4622 13.0831 16.41 13.1111 16.3605 13.1441C16.311 13.1771 16.2656 13.2147 16.2234 13.2569C16.1813 13.2991 16.1437 13.3449 16.1107 13.394C16.0777 13.4435 16.0497 13.4957 16.0273 13.5508C16.0044 13.6058 15.9869 13.6622 15.9755 13.7209C15.964 13.7791 15.9581 13.8378 15.9581 13.8974C15.9581 13.957 15.964 14.0157 15.9755 14.0743C15.9869 14.1326 16.0044 14.1894 16.0273 14.244C16.0497 14.299 16.0777 14.3513 16.1107 14.4008C16.1437 14.4503 16.1813 14.4961 16.2234 14.5379C16.2656 14.58 16.311 14.6176 16.3605 14.6506C16.41 14.6837 16.4622 14.7116 16.5172 14.7345C16.5722 14.757 16.6286 14.7744 16.6872 14.7859C16.7454 14.7978 16.8041 14.8033 16.8637 14.8033H19.8826C20.0026 14.8033 20.1181 14.7804 20.2295 14.7345C20.3404 14.6882 20.4385 14.6227 20.5233 14.5379L22.2704 12.7902H25.1724C25.2077 12.8993 25.2498 13.0056 25.2979 13.1102C25.3461 13.2142 25.4001 13.3151 25.4602 13.4128C25.5202 13.5104 25.5858 13.6044 25.6568 13.6943C25.7278 13.7841 25.8039 13.8699 25.8855 13.951C25.9666 14.0317 26.0523 14.1078 26.1421 14.1789C26.2324 14.2495 26.3264 14.315 26.424 14.3746C26.5221 14.4347 26.6229 14.4883 26.7274 14.5365C26.8314 14.5846 26.9382 14.6259 27.0473 14.6612C27.1564 14.6969 27.2668 14.7254 27.3796 14.7478C27.4919 14.7703 27.6055 14.7859 27.7196 14.7946C27.8342 14.8033 27.9483 14.8056 28.0629 14.801C28.1775 14.7964 28.2916 14.785 28.4048 14.7671C28.518 14.7492 28.6299 14.7245 28.7403 14.6933C28.8503 14.6621 28.9585 14.6245 29.0643 14.5805C29.1707 14.5365 29.2733 14.4865 29.3732 14.4306C29.4736 14.3742 29.5698 14.3127 29.6624 14.2449C29.7555 14.1775 29.8439 14.1051 29.9278 14.0271C30.0121 13.9492 30.0914 13.8666 30.1656 13.7795C30.2403 13.692 30.3096 13.6007 30.3733 13.5054C30.4365 13.41 30.4947 13.311 30.5465 13.2087C30.5987 13.1065 30.6446 13.002 30.684 12.8942C30.7239 12.7865 30.7569 12.6769 30.7839 12.5655C30.8105 12.4541 30.8307 12.3413 30.8439 12.2271C30.8577 12.1134 30.8646 11.9988 30.8646 11.8842C30.8646 11.7696 30.8577 11.6554 30.8439 11.5413C30.8307 11.4276 30.8105 11.3148 30.7839 11.2034C30.7569 11.0915 30.7239 10.9819 30.684 10.8742C30.6446 10.7669 30.5987 10.6619 30.5465 10.5597C30.4947 10.4574 30.4365 10.3584 30.3733 10.263C30.3096 10.1677 30.2403 10.0764 30.1656 9.98934C30.0914 9.90177 30.0121 9.81924 29.9278 9.7413C29.8439 9.66382 29.7555 9.59092 29.6624 9.52353C29.5698 9.45613 29.4736 9.39424 29.3732 9.3383C29.2733 9.28191 29.1707 9.23194 29.0643 9.18792C28.9585 9.14391 28.8503 9.10632 28.7403 9.07514C28.6299 9.04396 28.518 9.01921 28.4048 9.00132C28.2916 8.98344 28.1775 8.97198 28.0629 8.9674C27.9483 8.96281 27.8342 8.96511 27.7196 8.97382C27.6055 8.98299 27.4919 8.99857 27.3796 9.02058C27.2668 9.04305 27.1564 9.07193 27.0473 9.10723C26.9382 9.14253 26.8314 9.18426 26.7274 9.23194C26.6229 9.28008 26.5221 9.33372 26.424 9.39378C26.3264 9.45338 26.2324 9.51894 26.1421 9.59001C26.0523 9.66061 25.9666 9.73672 25.8855 9.81787C25.8039 9.89856 25.7278 9.98429 25.6568 10.0742C25.5858 10.1645 25.5202 10.258 25.4602 10.3557C25.4001 10.4538 25.3461 10.5546 25.2979 10.6587C25.2498 10.7628 25.2077 10.8691 25.1724 10.9783ZM27.9323 10.777C28.0052 10.777 28.0771 10.7843 28.1482 10.7981C28.2197 10.8123 28.2889 10.8334 28.3558 10.8614C28.4232 10.8893 28.4869 10.9232 28.5474 10.9636C28.6079 11.0039 28.6638 11.0498 28.7151 11.1011C28.7664 11.1529 28.8123 11.2089 28.8526 11.2689C28.8929 11.3295 28.9273 11.3932 28.9548 11.4606C28.9827 11.5275 29.0038 11.5967 29.018 11.6683C29.0322 11.7398 29.0391 11.8118 29.0391 11.8842C29.0391 11.9571 29.0322 12.0291 29.018 12.1001C29.0038 12.1717 28.9827 12.2409 28.9548 12.3078C28.9273 12.3752 28.8929 12.439 28.8526 12.4995C28.8123 12.56 28.7664 12.6159 28.7151 12.6673C28.6638 12.7186 28.6079 12.7645 28.5474 12.8048C28.4869 12.8452 28.4232 12.8796 28.3558 12.9071C28.2889 12.935 28.2197 12.9561 28.1482 12.9703C28.0771 12.9845 28.0052 12.9914 27.9323 12.9914C27.8599 12.9914 27.7879 12.9845 27.7164 12.9703C27.6449 12.9561 27.5757 12.935 27.5088 12.9071C27.4415 12.8796 27.3778 12.8452 27.3173 12.8048C27.2572 12.7645 27.2013 12.7186 27.1495 12.6673C27.0982 12.6159 27.0524 12.56 27.012 12.4995C26.9717 12.439 26.9378 12.3752 26.9098 12.3078C26.8819 12.2409 26.8608 12.1717 26.8466 12.1001C26.8328 12.0291 26.8255 11.9571 26.8255 11.8842C26.8255 11.8118 26.8328 11.7398 26.8466 11.6683C26.8608 11.5967 26.8819 11.5275 26.9098 11.4606C26.9378 11.3932 26.9717 11.3295 27.012 11.2689C27.0524 11.2089 27.0982 11.1529 27.1495 11.1011C27.2013 11.0498 27.2572 11.0039 27.3173 10.9636C27.3778 10.9232 27.4415 10.8893 27.5088 10.8614C27.5757 10.8334 27.6449 10.8123 27.7164 10.7981C27.7879 10.7843 27.8599 10.777 27.9323 10.777Z" fill="#8C52FF"/>
<path d="M27.9323 18.0246C27.7801 18.0251 27.6284 18.0375 27.4781 18.0618C27.3278 18.0861 27.1797 18.1218 27.0349 18.1695C26.8901 18.2167 26.7498 18.2754 26.6146 18.3446C26.479 18.4143 26.3493 18.4941 26.2264 18.584C26.1032 18.6738 25.9877 18.7724 25.88 18.8806C25.7723 18.9883 25.6737 19.1043 25.5844 19.2277C25.495 19.351 25.4157 19.4807 25.3465 19.6165C25.2773 19.7522 25.2191 19.8929 25.1723 20.0378H21.8404V17.9439C21.8404 17.8848 21.8349 17.8257 21.823 17.7674C21.8116 17.7092 21.7946 17.6524 21.7717 17.5973C21.7488 17.5423 21.7208 17.4901 21.6878 17.441C21.6548 17.3915 21.6172 17.3456 21.5755 17.3035C21.5334 17.2613 21.4875 17.2237 21.438 17.1907C21.3885 17.1577 21.3363 17.1297 21.2818 17.1072C21.2268 17.0843 21.1699 17.0673 21.1117 17.0554C21.0535 17.044 20.9944 17.038 20.9348 17.038L16.8637 17.0178C16.8045 17.0183 16.7454 17.0238 16.6872 17.0357C16.629 17.0472 16.5726 17.0646 16.5176 17.0875C16.4626 17.11 16.4104 17.1379 16.3613 17.171C16.3119 17.204 16.266 17.2416 16.2243 17.2837C16.1821 17.3259 16.1446 17.3718 16.1116 17.4208C16.0786 17.4703 16.0511 17.5226 16.0282 17.5776C16.0052 17.6326 15.9883 17.689 15.9768 17.7473C15.9654 17.8055 15.9594 17.8646 15.9594 17.9238C15.9594 17.9834 15.9654 18.0421 15.9768 18.1007C15.9883 18.159 16.0052 18.2154 16.0282 18.2704C16.0511 18.3254 16.0786 18.3777 16.1116 18.4267C16.1446 18.4762 16.1821 18.5221 16.2243 18.5643C16.266 18.606 16.3119 18.6436 16.3613 18.6766C16.4104 18.71 16.4626 18.7376 16.5176 18.7605C16.5726 18.7834 16.629 18.8008 16.6872 18.8123C16.7454 18.8238 16.8045 18.8297 16.8637 18.8297L20.0333 18.8448V20.9437C20.0333 21.0033 20.0393 21.062 20.0507 21.1207C20.0622 21.1789 20.0796 21.2353 20.1025 21.2903C20.125 21.3454 20.1529 21.3976 20.1859 21.4471C20.2189 21.4967 20.2565 21.5425 20.2987 21.5842C20.3408 21.6264 20.3862 21.664 20.4357 21.697C20.4852 21.73 20.5375 21.758 20.5925 21.7809C20.6475 21.8034 20.7038 21.8208 20.7625 21.8323C20.8207 21.8437 20.8794 21.8497 20.9389 21.8497H25.1765C25.204 21.934 25.2356 22.0175 25.2713 22.0991C25.3066 22.1807 25.346 22.2605 25.3887 22.3384C25.4313 22.4164 25.4776 22.4925 25.5275 22.5663C25.577 22.6401 25.6302 22.7116 25.6866 22.7804C25.7429 22.8492 25.8021 22.9156 25.8644 22.9789C25.9267 23.0426 25.9918 23.1031 26.0601 23.1605C26.1279 23.2182 26.198 23.2723 26.2709 23.3237C26.3438 23.3746 26.4189 23.4222 26.4964 23.4663C26.5734 23.5107 26.6527 23.5511 26.7333 23.5882C26.8145 23.6249 26.897 23.6584 26.9808 23.6877C27.0652 23.717 27.1504 23.7423 27.2366 23.7638C27.3227 23.7858 27.4098 23.8032 27.4978 23.8165C27.5858 23.8303 27.6742 23.8399 27.7632 23.8454C27.8521 23.8509 27.941 23.8523 28.0299 23.8495C28.1188 23.8468 28.2073 23.8399 28.2957 23.8294C28.3842 23.8184 28.4717 23.8037 28.5588 23.7849C28.6454 23.7661 28.7316 23.7432 28.8163 23.7166C28.9011 23.6895 28.9845 23.6593 29.0666 23.6249C29.1491 23.5905 29.2293 23.5524 29.3077 23.5103C29.3865 23.4685 29.463 23.4236 29.5373 23.3746C29.612 23.326 29.6839 23.2737 29.7536 23.2187C29.8233 23.1632 29.8902 23.1045 29.9543 23.0431C30.019 22.9816 30.0804 22.9175 30.1386 22.8501C30.1972 22.7831 30.2522 22.7134 30.3045 22.641C30.3563 22.569 30.4048 22.4943 30.4502 22.4177C30.4951 22.3412 30.5368 22.2623 30.5749 22.1821C30.6129 22.1014 30.6473 22.0193 30.6775 21.9359C30.7082 21.852 30.7348 21.7672 30.7573 21.6814C30.7802 21.5952 30.799 21.5081 30.8137 21.4205C30.8283 21.3325 30.8393 21.2445 30.8457 21.1555C30.8526 21.0671 30.8549 20.9781 30.8535 20.8892C30.8522 20.7998 30.8467 20.7113 30.837 20.6228C30.8274 20.5343 30.8137 20.4463 30.7958 20.3592C30.7784 20.2721 30.7568 20.1854 30.7312 20.1001C30.7055 20.0153 30.6762 19.931 30.6427 19.8484C30.6097 19.7659 30.5726 19.6852 30.5318 19.6059C30.491 19.527 30.447 19.4496 30.3993 19.3744C30.3517 19.2996 30.3004 19.2267 30.2458 19.1561C30.1917 19.086 30.134 19.0181 30.0735 18.953C30.013 18.8879 29.9493 18.8256 29.8828 18.766C29.8168 18.7068 29.7476 18.6504 29.6761 18.5977C29.6046 18.5445 29.5309 18.495 29.4548 18.4487C29.3792 18.4024 29.3008 18.3598 29.221 18.3208C29.1413 18.2814 29.0597 18.2461 28.9763 18.2144C28.8933 18.1828 28.8086 18.1553 28.7229 18.1315C28.6371 18.1076 28.5505 18.0874 28.463 18.0719C28.3755 18.0558 28.2875 18.0439 28.1985 18.0361C28.1101 18.0283 28.0212 18.0242 27.9323 18.0246ZM27.9323 22.0509C27.8599 22.0509 27.7879 22.0441 27.7164 22.0299C27.6449 22.0156 27.5757 21.9946 27.5088 21.9666C27.4414 21.9391 27.3777 21.9047 27.3172 21.8643C27.2572 21.824 27.2013 21.7782 27.1495 21.7268C27.0981 21.6755 27.0523 21.6195 27.012 21.559C26.9717 21.4985 26.9377 21.4348 26.9098 21.3674C26.8818 21.3004 26.8607 21.2312 26.8465 21.1597C26.8328 21.0886 26.8255 21.0166 26.8255 20.9437C26.8255 20.8708 26.8328 20.7989 26.8465 20.7278C26.8607 20.6563 26.8818 20.587 26.9098 20.5201C26.9377 20.4527 26.9717 20.389 27.012 20.3285C27.0523 20.2679 27.0981 20.212 27.1495 20.1607C27.2013 20.1093 27.2572 20.0635 27.3172 20.0231C27.3777 19.9828 27.4414 19.9484 27.5088 19.9209C27.5757 19.8929 27.6449 19.8718 27.7164 19.8576C27.7879 19.8434 27.8599 19.8365 27.9323 19.8365C28.0051 19.8365 28.0771 19.8434 28.1481 19.8576C28.2196 19.8718 28.2888 19.8929 28.3557 19.9209C28.4231 19.9484 28.4868 19.9828 28.5473 20.0231C28.6078 20.0635 28.6637 20.1093 28.7151 20.1607C28.7664 20.212 28.8122 20.2679 28.8526 20.3285C28.8929 20.389 28.9273 20.4527 28.9548 20.5201C28.9827 20.587 29.0038 20.6563 29.018 20.7278C29.0322 20.7989 29.0391 20.8708 29.0391 20.9437C29.0391 21.0166 29.0322 21.0886 29.018 21.1597C29.0038 21.2312 28.9827 21.3004 28.9548 21.3674C28.9273 21.4348 28.8929 21.4985 28.8526 21.559C28.8122 21.6195 28.7664 21.6755 28.7151 21.7268C28.6637 21.7782 28.6078 21.824 28.5473 21.8643C28.4868 21.9047 28.4231 21.9391 28.3557 21.9666C28.2888 21.9946 28.2196 22.0156 28.1481 22.0299C28.0771 22.0441 28.0051 22.0509 27.9323 22.0509Z" fill="#8C52FF"/>
<path d="M24.7961 25.0708C24.5165 25.0712 24.2433 25.1111 23.9757 25.1909C23.708 25.2707 23.4573 25.3867 23.2231 25.5389L21.4926 24.2441C21.3313 24.124 21.1502 24.064 20.949 24.064H16.8637C16.8045 24.064 16.7454 24.0699 16.6872 24.0818C16.629 24.0933 16.5726 24.1107 16.5176 24.1332C16.4626 24.1561 16.4104 24.1841 16.3613 24.2171C16.3119 24.2501 16.266 24.2877 16.2243 24.3299C16.1821 24.3721 16.1446 24.4174 16.1116 24.467C16.0786 24.5165 16.0511 24.5687 16.0282 24.6238C16.0052 24.6783 15.9883 24.7352 15.9768 24.7934C15.9654 24.8516 15.9594 24.9108 15.9594 24.9699C15.9594 25.0295 15.9654 25.0882 15.9768 25.1464C15.9883 25.2051 16.0052 25.2615 16.0282 25.3165C16.0511 25.3715 16.0786 25.4233 16.1116 25.4729C16.1446 25.5224 16.1821 25.5682 16.2243 25.6099C16.266 25.6521 16.3119 25.6897 16.3613 25.7227C16.4104 25.7557 16.4626 25.7837 16.5176 25.8066C16.5726 25.8295 16.629 25.8465 16.6872 25.8584C16.7454 25.8699 16.8045 25.8759 16.8637 25.8759H20.652L22.0792 26.945C21.9468 27.2806 21.8794 27.6291 21.878 27.9899C21.878 28.0852 21.8826 28.1806 21.8918 28.276C21.9014 28.3709 21.9151 28.4653 21.9339 28.5593C21.9527 28.6533 21.9756 28.7459 22.0036 28.8371C22.0311 28.9288 22.0632 29.0187 22.0998 29.1067C22.1365 29.1952 22.1773 29.2814 22.2222 29.3658C22.2676 29.4501 22.3166 29.5322 22.3698 29.6115C22.4225 29.6913 22.4798 29.7678 22.5403 29.8417C22.6008 29.9155 22.6649 29.9865 22.7323 30.0539C22.8001 30.1218 22.8707 30.1855 22.9445 30.2465C23.0187 30.307 23.0953 30.3639 23.1746 30.417C23.2543 30.4702 23.3359 30.5193 23.4202 30.5642C23.5046 30.6091 23.5907 30.6499 23.6792 30.6866C23.7676 30.7233 23.8574 30.7554 23.9487 30.7834C24.0403 30.8109 24.1329 30.8342 24.2264 30.853C24.3203 30.8714 24.4148 30.8856 24.5101 30.8948C24.605 30.9044 24.7003 30.909 24.7961 30.909C24.8914 30.909 24.9867 30.9044 25.0821 30.8948C25.1769 30.8856 25.2713 30.8714 25.3653 30.853C25.4588 30.8342 25.5514 30.8109 25.643 30.7834C25.7342 30.7554 25.8245 30.7233 25.9125 30.6866C26.001 30.6499 26.0871 30.6091 26.1715 30.5642C26.2558 30.5193 26.3378 30.4702 26.4171 30.417C26.4964 30.3639 26.5734 30.307 26.6472 30.2465C26.721 30.1855 26.7915 30.1218 26.8594 30.0539C26.9267 29.9865 26.9909 29.9155 27.0514 29.8417C27.1124 29.7678 27.1692 29.6913 27.2224 29.6115C27.2755 29.5322 27.3246 29.4501 27.3695 29.3658C27.4144 29.2814 27.4552 29.1952 27.4918 29.1067C27.5285 29.0187 27.5606 28.9288 27.5885 28.8371C27.616 28.7459 27.6394 28.6533 27.6577 28.5593C27.6765 28.4653 27.6907 28.3709 27.6999 28.276C27.7091 28.1806 27.7141 28.0852 27.7141 27.9899C27.7141 27.8941 27.7091 27.7987 27.6999 27.7038C27.6907 27.6084 27.6765 27.514 27.6577 27.4205C27.6394 27.3265 27.616 27.2339 27.5885 27.1426C27.5606 27.0509 27.5285 26.9611 27.4918 26.8726C27.4552 26.7845 27.4144 26.6979 27.3695 26.6135C27.3246 26.5296 27.2755 26.4476 27.2224 26.3678C27.1692 26.2885 27.1124 26.2119 27.0514 26.1381C26.9909 26.0638 26.9267 25.9932 26.8594 25.9258C26.7915 25.858 26.721 25.7938 26.6472 25.7333C26.5734 25.6727 26.4964 25.6159 26.4171 25.5627C26.3378 25.5095 26.2558 25.4605 26.1715 25.4155C26.0871 25.3702 26.001 25.3294 25.9125 25.2927C25.8245 25.2565 25.7342 25.2239 25.643 25.1964C25.5514 25.1684 25.4588 25.1455 25.3653 25.1267C25.2713 25.1079 25.1769 25.0942 25.0821 25.0845C24.9867 25.0754 24.8914 25.0708 24.7961 25.0708ZM24.7961 29.0971C24.7232 29.0971 24.6512 29.0898 24.5797 29.076C24.5087 29.0618 24.4395 29.0407 24.3721 29.0127C24.3052 28.9848 24.2415 28.9508 24.181 28.9105C24.1205 28.8701 24.0646 28.8243 24.0133 28.7729C23.9619 28.7211 23.9161 28.6652 23.8758 28.6051C23.835 28.5446 23.8011 28.4809 23.7731 28.4135C23.7456 28.3466 23.7245 28.2773 23.7103 28.2058C23.6961 28.1343 23.6892 28.0623 23.6892 27.9899C23.6892 27.917 23.6961 27.845 23.7103 27.7739C23.7245 27.7024 23.7456 27.6332 23.7731 27.5662C23.8011 27.4989 23.835 27.4351 23.8758 27.3746C23.9161 27.3141 23.9619 27.2582 24.0133 27.2068C24.0646 27.1555 24.1205 27.1096 24.181 27.0693C24.2415 27.0289 24.3052 26.9945 24.3721 26.967C24.4395 26.9391 24.5087 26.918 24.5797 26.9038C24.6512 26.8895 24.7232 26.8827 24.7961 26.8827C24.8685 26.8827 24.9404 26.8895 25.0119 26.9038C25.083 26.918 25.1522 26.9391 25.2195 26.967C25.2865 26.9945 25.3506 27.0289 25.4107 27.0693C25.4712 27.1096 25.5271 27.1555 25.5784 27.2068C25.6302 27.2582 25.676 27.3141 25.7164 27.3746C25.7567 27.4351 25.7906 27.4989 25.8186 27.5662C25.8465 27.6332 25.8671 27.7024 25.8813 27.7739C25.8955 27.845 25.9029 27.917 25.9029 27.9899C25.9029 28.0623 25.8955 28.1343 25.8813 28.2058C25.8671 28.2773 25.8465 28.3466 25.8186 28.4135C25.7906 28.4809 25.7567 28.5446 25.7164 28.6051C25.676 28.6652 25.6302 28.7211 25.5784 28.7729C25.5271 28.8243 25.4712 28.8701 25.4107 28.9105C25.3506 28.9508 25.2865 28.9848 25.2195 29.0127C25.1522 29.0407 25.083 29.0618 25.0119 29.076C24.9404 29.0898 24.8685 29.0971 24.7961 29.0971Z" fill="#8C52FF"/>
<path d="M15.9581 6.85108C15.9581 6.91069 15.964 6.96983 15.9755 7.02806C15.9869 7.08628 16.0044 7.14313 16.0273 7.19815C16.0497 7.25271 16.0777 7.30497 16.1107 7.35449C16.1437 7.404 16.1813 7.44985 16.2234 7.49203C16.2656 7.53375 16.311 7.57135 16.3605 7.60436C16.41 7.63737 16.4622 7.66533 16.5172 7.68826C16.5722 7.71118 16.6286 7.72815 16.6872 7.73961C16.7454 7.75153 16.8041 7.75703 16.8637 7.75703H20.8886C21.0843 7.75749 21.2616 7.69972 21.4202 7.5851L23.2713 6.24131C23.3607 6.30183 23.4528 6.35731 23.5477 6.40774C23.643 6.45817 23.7406 6.50356 23.841 6.54299C23.9414 6.58242 24.0431 6.6168 24.1471 6.64477C24.2512 6.6732 24.3566 6.69566 24.4629 6.71217C24.5692 6.72913 24.6765 6.73968 24.7837 6.74472C24.8914 6.7493 24.9991 6.74793 25.1068 6.74105C25.2141 6.73372 25.3209 6.72088 25.4272 6.70208C25.5331 6.68282 25.6376 6.65807 25.7411 6.62781C25.8443 6.59709 25.9455 6.56087 26.045 6.51915C26.1444 6.47743 26.2411 6.43021 26.3351 6.37748C26.4291 6.32521 26.5203 6.26745 26.6078 6.20509C26.6953 6.14228 26.7797 6.07535 26.8599 6.00337C26.9401 5.93139 27.0161 5.85528 27.0881 5.77505C27.1601 5.69481 27.227 5.61091 27.2898 5.52289C27.3521 5.43532 27.4098 5.34408 27.4621 5.25009C27.5148 5.15611 27.562 5.05937 27.6037 4.95988C27.6454 4.86039 27.6816 4.75907 27.7119 4.65591C27.7426 4.55276 27.7673 4.44776 27.7861 4.34186C27.8054 4.23549 27.8182 4.12867 27.8255 4.02138C27.8324 3.91364 27.8338 3.8059 27.8287 3.69862C27.8241 3.59088 27.8131 3.48359 27.7966 3.37723C27.7801 3.27086 27.7577 3.16541 27.7293 3.06134C27.7009 2.95727 27.6669 2.85549 27.6275 2.75508C27.5877 2.65513 27.5427 2.55702 27.4923 2.46211C27.4419 2.36675 27.3865 2.2746 27.326 2.18565C27.265 2.09625 27.1999 2.01098 27.1298 1.92891C27.0597 1.8473 26.985 1.76936 26.9066 1.696C26.8278 1.62219 26.7453 1.55342 26.6591 1.48877C26.5725 1.42413 26.4831 1.36499 26.3901 1.31043C26.2971 1.25587 26.2013 1.20635 26.1032 1.1628C26.0047 1.11879 25.9043 1.08027 25.8016 1.04772C25.699 1.01471 25.5949 0.987663 25.4891 0.966573C25.3836 0.945025 25.2769 0.929895 25.1696 0.920267C25.0624 0.911098 24.9547 0.90743 24.847 0.909722C24.7393 0.912473 24.632 0.920726 24.5252 0.934938C24.4185 0.949609 24.313 0.969782 24.2085 0.995457C24.1041 1.02159 24.0009 1.05322 23.9001 1.09082C23.7988 1.12841 23.7003 1.17105 23.604 1.21965C23.5078 1.26779 23.4143 1.32143 23.324 1.38012C23.2337 1.4388 23.1471 1.50253 23.0637 1.57084C22.9803 1.63915 22.901 1.71159 22.8258 1.78907C22.7507 1.8661 22.6796 1.94725 22.6136 2.03207C22.5472 2.11688 22.4858 2.20537 22.4294 2.29706C22.3726 2.38876 22.3212 2.48366 22.2754 2.58086C22.2296 2.67851 22.1888 2.778 22.1539 2.87978C22.1187 2.98202 22.0898 3.08564 22.066 3.19063C22.0426 3.29562 22.0247 3.40199 22.0132 3.50927C22.0013 3.61609 21.9954 3.72383 21.9954 3.83158C21.9986 4.16443 22.0582 4.48719 22.1737 4.79987L20.5948 5.94514H16.8637C16.8041 5.94514 16.7454 5.9511 16.6872 5.96256C16.6286 5.97448 16.5722 5.99145 16.5172 6.01437C16.4622 6.03729 16.41 6.0648 16.3605 6.09781C16.311 6.13128 16.2656 6.16842 16.2234 6.2106C16.1813 6.25278 16.1437 6.29862 16.1107 6.34814C16.0777 6.39765 16.0497 6.44946 16.0273 6.50448C16.0044 6.55949 15.9869 6.61635 15.9755 6.67457C15.964 6.7328 15.9581 6.79194 15.9581 6.85108ZM24.9139 2.72436C24.9863 2.72436 25.0583 2.73124 25.1297 2.74545C25.2008 2.75966 25.27 2.78075 25.3374 2.80872C25.4043 2.83623 25.468 2.87061 25.5285 2.91096C25.589 2.95131 25.6449 2.99715 25.6962 3.0485C25.7475 3.09985 25.7934 3.15579 25.8342 3.2163C25.8745 3.27682 25.9084 3.34055 25.9364 3.40795C25.9639 3.47488 25.985 3.54411 25.9992 3.61563C26.0134 3.6867 26.0207 3.75868 26.0207 3.83158C26.0207 3.90401 26.0134 3.976 25.9992 4.04752C25.985 4.11858 25.9639 4.18827 25.9364 4.25521C25.9084 4.3226 25.8745 4.38633 25.8342 4.44685C25.7934 4.50691 25.7475 4.56284 25.6962 4.61465C25.6449 4.666 25.589 4.71185 25.5285 4.75219C25.468 4.79254 25.4043 4.82646 25.3374 4.85443C25.27 4.8824 25.2008 4.90349 25.1297 4.91724C25.0583 4.93145 24.9863 4.93879 24.9139 4.93879C24.841 4.93879 24.7691 4.93145 24.6976 4.91724C24.6265 4.90349 24.5573 4.8824 24.4899 4.85443C24.423 4.82646 24.3593 4.79254 24.2988 4.75219C24.2383 4.71185 24.1824 4.666 24.1311 4.61465C24.0798 4.56284 24.0339 4.50691 23.9931 4.44685C23.9528 4.38633 23.9189 4.3226 23.8909 4.25521C23.8634 4.18827 23.8424 4.11858 23.8281 4.04752C23.8139 3.976 23.8066 3.90401 23.8066 3.83158C23.8066 3.75868 23.8139 3.6867 23.8281 3.61563C23.8424 3.54411 23.8634 3.47488 23.8909 3.40795C23.9189 3.34055 23.9528 3.27682 23.9931 3.2163C24.0339 3.15579 24.0798 3.09985 24.1311 3.0485C24.1824 2.99715 24.2383 2.95131 24.2988 2.91096C24.3593 2.87061 24.423 2.83623 24.4899 2.80872C24.5573 2.78075 24.6265 2.75966 24.6976 2.74545C24.7691 2.73124 24.841 2.72436 24.9139 2.72436Z" fill="#8C52FF"/>
<path d="M15.8577 29.0972H14.6299L14.2687 26.5645C14.2559 26.4738 14.2298 26.3871 14.1904 26.3046C14.1514 26.2216 14.1005 26.1469 14.0387 26.0795C13.9768 26.0121 13.9062 25.9552 13.8269 25.9094C13.7476 25.8631 13.6638 25.8301 13.5744 25.8094C12.4694 25.555 11.4368 25.1263 10.4762 24.523C10.3988 24.4748 10.3158 24.4386 10.2274 24.4152C10.1389 24.3918 10.0491 24.3822 9.95787 24.3863C9.86667 24.39 9.77775 24.4074 9.69159 24.4381C9.60543 24.4689 9.52614 24.5115 9.45281 24.5665L7.40509 26.1024L5.66947 24.3662L7.20389 22.3177C7.25889 22.2443 7.30151 22.1646 7.33222 22.0784C7.36338 21.9922 7.38034 21.9037 7.38447 21.812C7.38813 21.7208 7.37851 21.6305 7.35513 21.542C7.33176 21.4535 7.29555 21.3705 7.24697 21.293C6.6443 20.3321 6.21578 19.2991 5.96096 18.1937C5.94079 18.1043 5.90734 18.0204 5.8615 17.9411C5.81522 17.8623 5.75884 17.7917 5.69147 17.7298C5.6241 17.6679 5.54894 17.6174 5.46644 17.578C5.38349 17.539 5.29687 17.5129 5.20658 17.5001L2.6758 17.1379V14.6837L5.2075 14.3215C5.29824 14.3082 5.38486 14.2825 5.46736 14.2431C5.54985 14.2041 5.62502 14.1537 5.69239 14.0918C5.75976 14.0299 5.81613 13.9593 5.86242 13.88C5.90825 13.8011 5.94171 13.7167 5.96233 13.6278C6.21669 12.5224 6.64567 11.4895 7.24835 10.5285C7.29647 10.4506 7.33268 10.3676 7.35605 10.2791C7.37897 10.1906 7.38905 10.1008 7.38492 10.0091C7.3808 9.91782 7.36338 9.82888 7.33268 9.74268C7.30197 9.65649 7.25889 9.57672 7.20389 9.50382L5.66947 7.45536L7.40509 5.71866L9.45281 7.25409C9.52614 7.30864 9.60543 7.35174 9.69159 7.38246C9.77775 7.41318 9.86667 7.43014 9.95787 7.43427C10.0491 7.43793 10.1389 7.42831 10.2274 7.40492C10.3158 7.38154 10.3988 7.34578 10.4762 7.29718C11.4368 6.69429 12.4694 6.26562 13.5744 6.01071C13.6638 5.99053 13.7476 5.95706 13.8269 5.91122C13.9062 5.86537 13.9768 5.80852 14.0387 5.74112C14.1005 5.67373 14.1514 5.59854 14.1904 5.51601C14.2298 5.43303 14.2559 5.34638 14.2687 5.2556L14.6299 2.72436H15.8577C15.9168 2.72436 15.9759 2.7184 16.0341 2.70694C16.0923 2.69502 16.1492 2.67806 16.2042 2.65513C16.2587 2.63221 16.3109 2.60424 16.3604 2.57123C16.4099 2.53822 16.4558 2.50063 16.4975 2.45891C16.5396 2.41673 16.5772 2.37088 16.6102 2.32137C16.6432 2.27185 16.6712 2.21958 16.6936 2.16503C16.7165 2.11001 16.7335 2.05316 16.7454 1.99493C16.7569 1.93671 16.7628 1.87756 16.7628 1.81842C16.7628 1.75882 16.7569 1.70013 16.7454 1.64145C16.7335 1.58322 16.7165 1.52683 16.6936 1.47181C16.6712 1.4168 16.6432 1.36453 16.6102 1.31502C16.5772 1.2655 16.5396 1.22011 16.4975 1.17793C16.4558 1.13575 16.4099 1.09816 16.3604 1.06515C16.3109 1.03214 16.2587 1.00417 16.2042 0.981247C16.1492 0.958781 16.0923 0.941359 16.0341 0.929898C15.9759 0.917977 15.9168 0.912476 15.8577 0.912476H13.8452C13.7912 0.912476 13.7375 0.91706 13.6839 0.926688C13.6308 0.936316 13.579 0.950529 13.5281 0.969785C13.4777 0.988582 13.4291 1.01196 13.3824 1.03947C13.3361 1.06698 13.2925 1.09862 13.2517 1.13392C13.2105 1.16922 13.1734 1.20819 13.1394 1.25037C13.1055 1.29255 13.0757 1.33748 13.0496 1.3847C13.024 1.43238 13.0024 1.4819 12.9855 1.53325C12.9685 1.5846 12.9561 1.63686 12.9483 1.69051L12.562 4.40238C11.6866 4.65271 10.8511 4.99931 10.0555 5.4422L7.86294 3.79719C7.81986 3.76464 7.77403 3.73622 7.72545 3.71238C7.67732 3.68808 7.62691 3.6679 7.57512 3.65277C7.52333 3.63764 7.47017 3.6271 7.41655 3.62114C7.36292 3.61518 7.30884 3.61426 7.25476 3.61839C7.20114 3.62206 7.14798 3.63077 7.09527 3.64406C7.04303 3.65736 6.99215 3.67524 6.94311 3.69816C6.89362 3.72063 6.84687 3.74722 6.80241 3.77794C6.75796 3.80911 6.71671 3.8435 6.67867 3.88201L3.83303 6.72868C3.79453 6.76673 3.76016 6.80799 3.72945 6.85246C3.69829 6.89694 3.67171 6.9437 3.64925 6.99321C3.62679 7.04227 3.60892 7.09316 3.59563 7.14543C3.58233 7.19815 3.57363 7.25134 3.56996 7.30544C3.56629 7.35908 3.56721 7.41318 3.57317 7.46682C3.57913 7.52092 3.58967 7.57364 3.60479 7.62545C3.62037 7.67726 3.64008 7.72769 3.66437 7.77583C3.68866 7.82397 3.71708 7.86982 3.74962 7.91337L5.39265 10.1067C4.94901 10.9022 4.60207 11.7375 4.35138 12.6132L1.64048 13.0006C1.58686 13.0084 1.53461 13.0208 1.48328 13.0377C1.43195 13.0552 1.38291 13.0767 1.3357 13.1024C1.28804 13.1285 1.24358 13.1583 1.20142 13.1922C1.15926 13.2262 1.12076 13.2638 1.08547 13.3046C1.05018 13.3454 1.01855 13.3889 0.991056 13.4352C0.963558 13.482 0.940184 13.5306 0.921393 13.581C0.902603 13.6315 0.888395 13.6837 0.878771 13.7369C0.869146 13.7901 0.864563 13.8433 0.864563 13.8974V17.9237C0.864563 17.9778 0.869146 18.0314 0.878771 18.0851C0.888395 18.1383 0.903061 18.1901 0.921852 18.241C0.940642 18.2914 0.964016 18.34 0.991515 18.3863C1.01901 18.4331 1.05064 18.4766 1.08593 18.5174C1.12167 18.5582 1.16017 18.5958 1.20234 18.6297C1.2445 18.6637 1.28942 18.6935 1.33708 18.7196C1.38429 18.7453 1.43378 18.7668 1.48511 18.7838C1.53644 18.8008 1.58869 18.8131 1.64231 18.8209L4.35321 19.2083C4.60345 20.0836 4.94993 20.9194 5.39265 21.7148L3.74962 23.9081C3.71708 23.9512 3.68866 23.9971 3.66437 24.0457C3.64008 24.0938 3.62037 24.1438 3.60479 24.1961C3.58967 24.2479 3.57913 24.3006 3.57317 24.3542C3.56721 24.4083 3.56629 24.462 3.56996 24.5161C3.57363 24.5702 3.58233 24.6234 3.59563 24.6756C3.60892 24.7284 3.62679 24.7788 3.64925 24.8283C3.67171 24.8774 3.69829 24.9241 3.72945 24.9686C3.76016 25.0131 3.79453 25.0548 3.83303 25.0928L6.67867 27.9395C6.71671 27.978 6.75796 28.0124 6.80241 28.0431C6.84687 28.0743 6.89362 28.1009 6.94311 28.1234C6.99215 28.1458 7.04303 28.1637 7.09527 28.177C7.14798 28.1908 7.20114 28.199 7.25522 28.2031C7.30884 28.2068 7.36292 28.2059 7.41655 28.1999C7.47017 28.1944 7.52333 28.1839 7.57512 28.1687C7.62691 28.1532 7.67732 28.1334 7.72545 28.1091C7.77403 28.0848 7.81986 28.0564 7.86294 28.0243L10.0555 26.3793C10.8511 26.8227 11.6866 27.1693 12.562 27.4201L12.9483 30.1319C12.9561 30.1856 12.9685 30.2378 12.9855 30.2892C13.0029 30.3405 13.024 30.3896 13.0501 30.4373C13.0757 30.4845 13.106 30.5294 13.1399 30.5716C13.1738 30.6138 13.2109 30.6523 13.2517 30.6876C13.2925 30.7234 13.3365 30.7545 13.3828 30.782C13.4291 30.81 13.4777 30.8329 13.5286 30.8517C13.579 30.871 13.6312 30.8852 13.6844 30.8948C13.7375 30.9045 13.7912 30.909 13.8452 30.909H15.8577C15.9168 30.909 15.9759 30.9031 16.0341 30.8916C16.0923 30.8802 16.1492 30.8627 16.2042 30.8403C16.2592 30.8174 16.3114 30.7894 16.3604 30.7564C16.4099 30.7234 16.4558 30.6858 16.4979 30.6436C16.5401 30.6014 16.5777 30.556 16.6107 30.5065C16.6437 30.457 16.6716 30.4047 16.6941 30.3497C16.717 30.2947 16.734 30.2383 16.7459 30.1796C16.7573 30.1214 16.7633 30.0627 16.7633 30.0031C16.7633 29.9435 16.7573 29.8848 16.7459 29.8261C16.734 29.7679 16.717 29.7115 16.6941 29.6565C16.6716 29.6015 16.6437 29.5492 16.6107 29.4997C16.5777 29.4502 16.5401 29.4043 16.4979 29.3626C16.4558 29.3204 16.4099 29.2828 16.3604 29.2498C16.3114 29.2168 16.2592 29.1889 16.2042 29.1659C16.1492 29.1435 16.0923 29.126 16.0341 29.1146C15.9759 29.1031 15.9168 29.0972 15.8577 29.0972Z" fill="#8C52FF"/>
<path d="M15.8577 10.777C15.9168 10.777 15.9759 10.771 16.0341 10.7596C16.0923 10.7481 16.1492 10.7307 16.2042 10.7082C16.2592 10.6853 16.3114 10.6573 16.3605 10.6243C16.4099 10.5913 16.4558 10.5537 16.4979 10.5115C16.5401 10.4698 16.5777 10.424 16.6107 10.3744C16.6437 10.3249 16.6716 10.2727 16.6941 10.2176C16.717 10.1626 16.734 10.1062 16.7459 10.048C16.7573 9.98932 16.7633 9.93063 16.7633 9.87103C16.7633 9.81143 16.7573 9.75275 16.7459 9.69452C16.734 9.63584 16.717 9.57944 16.6941 9.52443C16.6716 9.46941 16.6437 9.41714 16.6107 9.36763C16.5777 9.31811 16.5401 9.27272 16.4979 9.23054C16.4558 9.18836 16.4099 9.15077 16.3605 9.11776C16.3114 9.08475 16.2592 9.05678 16.2042 9.03386C16.1492 9.01139 16.0923 8.99397 16.0341 8.98251C15.9759 8.97105 15.9168 8.96509 15.8577 8.96509C15.6299 8.96509 15.4035 8.97609 15.1771 8.99856C14.9507 9.02102 14.7261 9.05403 14.5029 9.0985C14.2802 9.14298 14.0597 9.19799 13.842 9.26401C13.6243 9.33003 13.4108 9.4066 13.2004 9.49371C12.9905 9.58082 12.7852 9.67801 12.5844 9.7853C12.3842 9.89258 12.1894 10.0095 12.0001 10.1356C11.8113 10.2621 11.6289 10.3974 11.4529 10.5418C11.2769 10.6862 11.1087 10.8384 10.9478 10.9993C10.7874 11.1603 10.6348 11.3285 10.4904 11.5046C10.3461 11.6802 10.2109 11.8626 10.0844 12.052C9.95833 12.2409 9.84147 12.4357 9.73422 12.6365C9.62698 12.8374 9.52982 13.0428 9.4432 13.2527C9.35612 13.4627 9.27958 13.6768 9.21358 13.8946C9.14759 14.1124 9.09213 14.3324 9.04767 14.5557C9.00368 14.7785 8.97022 15.0036 8.94776 15.2297C8.92576 15.4562 8.91431 15.6831 8.91431 15.9105C8.91431 16.1379 8.92576 16.3649 8.94776 16.5913C8.97022 16.8178 9.00368 17.0425 9.04767 17.2658C9.09213 17.4886 9.14759 17.7091 9.21358 17.9269C9.27958 18.1447 9.35612 18.3583 9.4432 18.5687C9.52982 18.7787 9.62698 18.9841 9.73422 19.1849C9.84147 19.3853 9.95833 19.5801 10.0844 19.7695C10.2109 19.9584 10.3461 20.1408 10.4904 20.3169C10.6348 20.4925 10.7874 20.6612 10.9478 20.8217C11.1087 20.9826 11.2769 21.1353 11.4529 21.2797C11.6289 21.4241 11.8113 21.5594 12.0001 21.6854C12.1894 21.812 12.3842 21.9289 12.5844 22.0362C12.7852 22.1435 12.9905 22.2407 13.2004 22.3273C13.4108 22.4144 13.6243 22.491 13.842 22.557C14.0597 22.623 14.2802 22.6785 14.5029 22.7225C14.7261 22.767 14.9507 22.8005 15.1771 22.8229C15.4035 22.8449 15.6299 22.8564 15.8577 22.8564C15.9168 22.8564 15.9759 22.8504 16.0341 22.839C16.0923 22.827 16.1492 22.8101 16.2042 22.7872C16.2592 22.7647 16.3114 22.7367 16.3605 22.7037C16.4099 22.6702 16.4558 22.6331 16.4979 22.5909C16.5401 22.5488 16.5777 22.5029 16.6107 22.4534C16.6437 22.4043 16.6716 22.3521 16.6941 22.2971C16.717 22.242 16.734 22.1852 16.7459 22.127C16.7573 22.0687 16.7633 22.0096 16.7633 21.9504C16.7633 21.8908 16.7573 21.8317 16.7459 21.7735C16.734 21.7152 16.717 21.6584 16.6941 21.6034C16.6716 21.5488 16.6437 21.4966 16.6107 21.447C16.5777 21.3975 16.5401 21.3517 16.4979 21.3095C16.4558 21.2678 16.4099 21.2302 16.3605 21.1972C16.3114 21.1642 16.2592 21.1362 16.2042 21.1133C16.1492 21.0903 16.0923 21.0734 16.0341 21.0619C15.9759 21.05 15.9168 21.0445 15.8577 21.0445C15.6895 21.0445 15.5217 21.0362 15.3545 21.0197C15.1872 21.0032 15.0213 20.9785 14.8563 20.9455C14.6913 20.9129 14.5286 20.8721 14.3677 20.8231C14.2069 20.7745 14.0487 20.7181 13.8938 20.6534C13.7385 20.5892 13.5868 20.5173 13.4383 20.4379C13.2902 20.3591 13.1463 20.2724 13.0065 20.1794C12.8668 20.0858 12.732 19.9859 12.6019 19.8791C12.4722 19.7722 12.3475 19.6594 12.2288 19.5407C12.1101 19.422 11.9974 19.2973 11.8906 19.1675C11.7838 19.0373 11.6839 18.9025 11.5904 18.7627C11.4973 18.6228 11.4107 18.4789 11.3319 18.3308C11.2526 18.1822 11.1806 18.0305 11.1165 17.8751C11.0519 17.7201 10.9955 17.5619 10.9464 17.401C10.8979 17.2401 10.8571 17.0769 10.8241 16.9123C10.7915 16.7472 10.7668 16.5813 10.7503 16.4139C10.7338 16.2466 10.7255 16.0788 10.7255 15.9105C10.7255 15.7427 10.7338 15.5749 10.7503 15.4076C10.7668 15.2402 10.7915 15.0743 10.8241 14.9092C10.8571 14.7442 10.8979 14.5814 10.9464 14.4205C10.9955 14.2595 11.0519 14.1014 11.1165 13.9459C11.1806 13.791 11.2526 13.6388 11.3319 13.4907C11.4107 13.3426 11.4973 13.1982 11.5904 13.0583C11.6839 12.919 11.7838 12.7837 11.8906 12.654C11.9974 12.5238 12.1101 12.3995 12.2288 12.2808C12.3475 12.1616 12.4722 12.0488 12.6019 11.9424C12.732 11.8356 12.8668 11.7356 13.0065 11.6421C13.1463 11.5486 13.2902 11.4624 13.4383 11.3831C13.5868 11.3038 13.7385 11.2322 13.8938 11.1676C14.0487 11.1034 14.2069 11.047 14.3677 10.998C14.5286 10.9494 14.6913 10.9086 14.8563 10.8755C15.0213 10.843 15.1872 10.8182 15.3545 10.8017C15.5217 10.7852 15.6895 10.777 15.8577 10.777Z" fill="#8C52FF"/>
</svg>
