<svg width="50" height="50" viewBox="0 0 50 50" fill="none" xmlns="http://www.w3.org/2000/svg">
<circle cx="25" cy="25" r="25" fill="#E8E2F4"/>
<mask id="mask0_3250_926" style="mask-type:luminance" maskUnits="userSpaceOnUse" x="13" y="12" width="25" height="26">
<path d="M13 12.4958H38V38.0001H13V12.4958Z" fill="white"/>
</mask>
<g mask="url(#mask0_3250_926)">
<path d="M37.9205 15.6562V34.8694C37.9205 35.772 37.5411 36.5835 36.937 37.1476C36.3977 37.6517 35.6785 37.9592 34.8883 37.9592H16.0323C15.1956 37.9592 14.4371 37.6139 13.8884 37.0539C13.3402 36.4948 13 35.7233 13 34.8694V15.6562C13 14.8023 13.3402 14.0308 13.8884 13.4717C14.4371 12.9117 15.1956 12.5664 16.0323 12.5664H34.8883C35.7258 12.5664 36.4843 12.9117 37.033 13.4717C37.5817 14.0308 37.9205 14.8023 37.9205 15.6562Z" fill="white"/>
</g>
<path d="M34.8884 36.8537H16.0324C15.5118 36.8537 15.0229 36.6476 14.6564 36.2728C14.2876 35.897 14.085 35.3989 14.085 34.8694V21.2561H14.3948V34.8694C14.3948 35.3147 14.5653 35.7337 14.8765 36.0494C15.1841 36.3642 15.5953 36.538 16.0332 36.538H34.8884C35.2996 36.538 35.692 36.3824 35.9947 36.1004C36.3375 35.7801 36.5259 35.3434 36.5259 34.8694V21.5782H36.8358V34.8707C36.8358 35.4339 36.6117 35.9539 36.2045 36.3337C35.8451 36.6695 35.3781 36.8551 34.8884 36.8551V36.8537Z" fill="#8C52FF"/>
<mask id="mask1_3250_926" style="mask-type:luminance" maskUnits="userSpaceOnUse" x="13" y="12" width="25" height="11">
<path d="M13 12.4958H38V22.6277H13V12.4958Z" fill="white"/>
</mask>
<g mask="url(#mask1_3250_926)">
<path d="M37.9205 15.6562V22.5372H13V15.6562C13 14.8023 13.3402 14.0308 13.8884 13.4717C14.4371 12.9117 15.1956 12.5664 16.0323 12.5664H34.8883C35.7258 12.5664 36.4843 12.9117 37.033 13.4717C37.5817 14.0308 37.9205 14.8023 37.9205 15.6562Z" fill="#8C52FF"/>
</g>
<path d="M18.6912 15.3334C18.6912 15.4194 18.6832 15.504 18.6667 15.5877C18.6506 15.6718 18.626 15.7533 18.5939 15.8324C18.5618 15.9116 18.5225 15.9866 18.4756 16.0576C18.4292 16.1286 18.376 16.1945 18.3167 16.255C18.2573 16.3155 18.1925 16.3697 18.1229 16.417C18.0533 16.4648 17.9796 16.5048 17.9019 16.5375C17.8242 16.5703 17.7443 16.5949 17.6617 16.6117C17.5796 16.6285 17.4965 16.6367 17.4126 16.6367C17.3282 16.6367 17.2452 16.6285 17.163 16.6117C17.0805 16.5949 17.0005 16.5703 16.9229 16.5375C16.8452 16.5048 16.7715 16.4648 16.7019 16.417C16.6322 16.3697 16.5675 16.3155 16.5081 16.255C16.4487 16.1945 16.3956 16.1286 16.3492 16.0576C16.3023 15.9866 16.263 15.9116 16.2309 15.8324C16.1987 15.7533 16.1742 15.6718 16.1581 15.5877C16.1416 15.504 16.1335 15.4194 16.1335 15.3334C16.1335 15.2479 16.1416 15.1633 16.1581 15.0795C16.1742 14.9954 16.1987 14.914 16.2309 14.8348C16.263 14.7556 16.3023 14.6806 16.3492 14.6096C16.3956 14.5382 16.4487 14.4727 16.5081 14.4122C16.5675 14.3517 16.6322 14.2976 16.7019 14.2498C16.7715 14.2025 16.8452 14.1624 16.9229 14.1297C17.0005 14.0969 17.0805 14.0719 17.163 14.0555C17.2452 14.0387 17.3282 14.0305 17.4126 14.0305C17.4965 14.0305 17.5796 14.0387 17.6617 14.0555C17.7443 14.0719 17.8242 14.0969 17.9019 14.1297C17.9796 14.1624 18.0533 14.2025 18.1229 14.2498C18.1925 14.2976 18.2573 14.3517 18.3167 14.4122C18.376 14.4727 18.4292 14.5382 18.4756 14.6096C18.5225 14.6806 18.5618 14.7556 18.5939 14.8348C18.626 14.914 18.6506 14.9954 18.6667 15.0795C18.6832 15.1633 18.6912 15.2479 18.6912 15.3334Z" fill="white"/>
<mask id="mask2_3250_926" style="mask-type:luminance" maskUnits="userSpaceOnUse" x="16" y="11" width="3" height="6">
<path d="M16.6616 11H18.1474V16.1059H16.6616V11Z" fill="white"/>
</mask>
<g mask="url(#mask2_3250_926)">
<path d="M17.4125 11.0122C16.7615 11.0136 16.7075 11.7123 16.7553 12.2209C16.7531 12.6503 16.7531 13.0798 16.7553 13.5092C16.7531 13.9387 16.7531 14.3681 16.7553 14.798C16.7075 15.3052 16.7624 16.0062 17.4134 16.0062C18.0643 16.0053 18.1178 15.3061 18.0705 14.798C18.0723 14.3681 18.0723 13.9387 18.0705 13.5092C18.0723 13.0798 18.0723 12.6503 18.0705 12.2209C18.1178 11.7132 18.0629 11.0122 17.4125 11.0122Z" fill="#3D4C52"/>
</g>
<path d="M24.0572 15.3334C24.0572 15.4194 24.0492 15.504 24.0326 15.5877C24.0166 15.6718 23.992 15.7533 23.9599 15.8324C23.9277 15.9116 23.8884 15.9866 23.842 16.0576C23.7951 16.1286 23.742 16.1945 23.6826 16.255C23.6232 16.3155 23.559 16.3697 23.4889 16.417C23.4192 16.4648 23.3456 16.5048 23.2679 16.5375C23.1902 16.5703 23.1103 16.5949 23.0281 16.6117C22.9455 16.6285 22.8625 16.6367 22.7786 16.6367C22.6946 16.6367 22.6112 16.6285 22.529 16.6117C22.4464 16.5949 22.3665 16.5703 22.2888 16.5375C22.2116 16.5048 22.1375 16.4648 22.0678 16.417C21.9982 16.3697 21.9335 16.3155 21.8741 16.255C21.8147 16.1945 21.7616 16.1286 21.7151 16.0576C21.6683 15.9866 21.629 15.9116 21.5968 15.8324C21.5647 15.7533 21.5406 15.6718 21.5241 15.5877C21.5075 15.504 21.4995 15.4194 21.4995 15.3334C21.4995 15.2479 21.5075 15.1633 21.5241 15.0795C21.5406 14.9954 21.5647 14.914 21.5968 14.8348C21.629 14.7556 21.6683 14.6806 21.7151 14.6096C21.7616 14.5382 21.8147 14.4727 21.8741 14.4122C21.9335 14.3517 21.9982 14.2976 22.0678 14.2498C22.1375 14.2025 22.2116 14.1624 22.2888 14.1297C22.3665 14.0969 22.4464 14.0719 22.529 14.0555C22.6112 14.0387 22.6946 14.0305 22.7786 14.0305C22.8625 14.0305 22.9455 14.0387 23.0281 14.0555C23.1103 14.0719 23.1902 14.0969 23.2679 14.1297C23.3456 14.1624 23.4192 14.2025 23.4889 14.2498C23.559 14.2976 23.6232 14.3517 23.6826 14.4122C23.742 14.4727 23.7951 14.5382 23.842 14.6096C23.8884 14.6806 23.9277 14.7556 23.9599 14.8348C23.992 14.914 24.0166 14.9954 24.0326 15.0795C24.0492 15.1633 24.0572 15.2479 24.0572 15.3334Z" fill="white"/>
<mask id="mask3_3250_926" style="mask-type:luminance" maskUnits="userSpaceOnUse" x="22" y="11" width="2" height="6">
<path d="M22.0334 11H23.5192V16.1059H22.0334V11Z" fill="white"/>
</mask>
<g mask="url(#mask3_3250_926)">
<path d="M22.7773 11.0122C22.1264 11.0136 22.0728 11.7123 22.1206 12.2209C22.1183 12.6503 22.1183 13.0798 22.1206 13.5092C22.1183 13.9387 22.1183 14.3681 22.1206 14.798C22.0728 15.3052 22.1277 16.0062 22.7786 16.0062C23.4291 16.0053 23.4831 15.3061 23.4353 14.798C23.4376 14.3681 23.4376 13.9387 23.4353 13.5092C23.4376 13.0798 23.4376 12.6503 23.4353 12.2209C23.4831 11.7132 23.4282 11.0122 22.7773 11.0122Z" fill="#3D4C52"/>
</g>
<path d="M29.4219 15.3334C29.4219 15.4194 29.4139 15.504 29.3974 15.5877C29.3809 15.6718 29.3568 15.7533 29.3246 15.8324C29.2925 15.9116 29.2532 15.9866 29.2063 16.0576C29.1599 16.1286 29.1067 16.1945 29.0474 16.255C28.988 16.3155 28.9233 16.3697 28.8536 16.417C28.784 16.4648 28.7103 16.5048 28.6326 16.5375C28.5549 16.5703 28.475 16.5949 28.3924 16.6117C28.3103 16.6285 28.2273 16.6367 28.1429 16.6367C28.0589 16.6367 27.9759 16.6285 27.8938 16.6117C27.8112 16.5949 27.7313 16.5703 27.6536 16.5375C27.5759 16.5048 27.5022 16.4648 27.4326 16.417C27.3625 16.3697 27.2982 16.3155 27.2388 16.255C27.1794 16.1945 27.1263 16.1286 27.0794 16.0576C27.033 15.9866 26.9937 15.9116 26.9616 15.8324C26.9294 15.7533 26.9049 15.6718 26.8888 15.5877C26.8723 15.504 26.8643 15.4194 26.8643 15.3334C26.8643 15.2479 26.8723 15.1633 26.8888 15.0795C26.9049 14.9954 26.9294 14.914 26.9616 14.8348C26.9937 14.7556 27.033 14.6806 27.0794 14.6096C27.1263 14.5382 27.1794 14.4727 27.2388 14.4122C27.2982 14.3517 27.3625 14.2976 27.4326 14.2498C27.5022 14.2025 27.5759 14.1624 27.6536 14.1297C27.7313 14.0969 27.8112 14.0719 27.8938 14.0555C27.9759 14.0387 28.0589 14.0305 28.1429 14.0305C28.2273 14.0305 28.3103 14.0387 28.3924 14.0555C28.475 14.0719 28.5549 14.0969 28.6326 14.1297C28.7103 14.1624 28.784 14.2025 28.8536 14.2498C28.9233 14.2976 28.988 14.3517 29.0474 14.4122C29.1067 14.4727 29.1599 14.5382 29.2063 14.6096C29.2532 14.6806 29.2925 14.7556 29.3246 14.8348C29.3568 14.914 29.3809 14.9954 29.3974 15.0795C29.4139 15.1633 29.4219 15.2479 29.4219 15.3334Z" fill="white"/>
<mask id="mask4_3250_926" style="mask-type:luminance" maskUnits="userSpaceOnUse" x="27" y="11" width="2" height="6">
<path d="M27.405 11H28.8908V16.1059H27.405V11Z" fill="white"/>
</mask>
<g mask="url(#mask4_3250_926)">
<path d="M28.142 11.0122C27.4911 11.0136 27.4376 11.7123 27.4849 12.2209C27.4831 12.6503 27.4831 13.0798 27.4849 13.5092C27.4831 13.9387 27.4831 14.3681 27.4849 14.798C27.4376 15.3052 27.4925 16.0062 28.1429 16.0062C28.7939 16.0053 28.8479 15.3061 28.8001 14.798C28.8023 14.3681 28.8023 13.9387 28.8001 13.5092C28.8023 13.0798 28.8023 12.6503 28.8001 12.2209C28.8479 11.7132 28.793 11.0122 28.142 11.0122Z" fill="#3D4C52"/>
</g>
<path d="M34.7869 15.3334C34.7869 15.4194 34.7789 15.504 34.7623 15.5877C34.7458 15.6718 34.7217 15.7533 34.6896 15.8324C34.6574 15.9116 34.6181 15.9866 34.5713 16.0576C34.5248 16.1286 34.4717 16.1945 34.4123 16.255C34.3529 16.3155 34.2882 16.3697 34.2186 16.417C34.1485 16.4648 34.0748 16.5048 33.9976 16.5375C33.9199 16.5703 33.84 16.5949 33.7574 16.6117C33.6752 16.6285 33.5918 16.6367 33.5078 16.6367C33.4239 16.6367 33.3409 16.6285 33.2583 16.6117C33.1761 16.5949 33.0962 16.5703 33.0185 16.5375C32.9408 16.5048 32.8672 16.4648 32.7975 16.417C32.7274 16.3697 32.6632 16.3155 32.6038 16.255C32.5444 16.1945 32.4913 16.1286 32.4444 16.0576C32.398 15.9866 32.3587 15.9116 32.3265 15.8324C32.2944 15.7533 32.2698 15.6718 32.2538 15.5877C32.2372 15.504 32.2288 15.4194 32.2288 15.3334C32.2288 15.2479 32.2372 15.1633 32.2538 15.0795C32.2698 14.9954 32.2944 14.914 32.3265 14.8348C32.3587 14.7556 32.398 14.6806 32.4444 14.6096C32.4913 14.5382 32.5444 14.4727 32.6038 14.4122C32.6632 14.3517 32.7274 14.2976 32.7975 14.2498C32.8672 14.2025 32.9408 14.1624 33.0185 14.1297C33.0962 14.0969 33.1761 14.0719 33.2583 14.0555C33.3409 14.0387 33.4239 14.0305 33.5078 14.0305C33.5918 14.0305 33.6752 14.0387 33.7574 14.0555C33.84 14.0719 33.9199 14.0969 33.9976 14.1297C34.0748 14.1624 34.1485 14.2025 34.2186 14.2498C34.2882 14.2976 34.3529 14.3517 34.4123 14.4122C34.4717 14.4727 34.5248 14.5382 34.5713 14.6096C34.6181 14.6806 34.6574 14.7556 34.6896 14.8348C34.7217 14.914 34.7458 14.9954 34.7623 15.0795C34.7789 15.1633 34.7869 15.2479 34.7869 15.3334Z" fill="white"/>
<mask id="mask5_3250_926" style="mask-type:luminance" maskUnits="userSpaceOnUse" x="32" y="11" width="3" height="6">
<path d="M32.7766 11H34.2624V16.1059H32.7766V11Z" fill="white"/>
</mask>
<g mask="url(#mask5_3250_926)">
<path d="M33.507 11.0122C32.8561 11.0136 32.8025 11.7123 32.8499 12.2209C32.8481 12.6503 32.8481 13.0798 32.8499 13.5092C32.8481 13.9387 32.8481 14.3681 32.8499 14.798C32.8025 15.3052 32.857 16.0062 33.5079 16.0062C34.1588 16.0053 34.2124 15.3061 34.1651 14.798C34.1673 14.3681 34.1673 13.9387 34.1651 13.5092C34.1673 13.0798 34.1673 12.6503 34.1651 12.2209C34.2124 11.7132 34.158 11.0122 33.507 11.0122Z" fill="#3D4C52"/>
</g>
<path d="M19.5889 33.2621V31.992H21.4282V27.159L21.3086 27.1263C21.0478 27.2536 20.7911 27.3551 20.5389 27.4301C20.2876 27.5043 20 27.5625 19.6764 27.6048V26.2929C20.5215 26.1123 21.205 25.8466 21.7264 25.4958H22.9193V31.992H24.5623V33.2621H19.5889Z" fill="#8C52FF"/>
<path d="M28.4541 33.3731C27.88 33.3731 27.3684 33.2394 26.9183 32.971C26.4683 32.7017 26.1112 32.2741 25.8469 31.6882C25.5826 31.1013 25.4504 30.3562 25.4504 29.4536C25.4504 28.5329 25.5888 27.7686 25.8665 27.1609C26.1451 26.5531 26.5246 26.105 27.0059 25.8161C27.488 25.5277 28.0398 25.3831 28.6613 25.3831C29.1791 25.3831 29.6247 25.4595 29.9988 25.6123C30.3725 25.7652 30.6636 25.9904 30.8721 26.2874L30.1327 27.2537H30.0024C29.6854 26.8679 29.2385 26.675 28.6613 26.675C27.5777 26.675 27.0237 27.4843 26.9987 29.1024L27.1076 29.1406C27.2849 28.8072 27.5188 28.5529 27.8095 28.3782C28.0996 28.2026 28.4657 28.1144 28.9077 28.1144C29.38 28.1144 29.7885 28.2163 30.1327 28.4201C30.4765 28.6239 30.7404 28.9159 30.9238 29.2953C31.1082 29.6738 31.2006 30.1233 31.2006 30.6437C31.2006 31.2105 31.0899 31.6991 30.8685 32.1103C30.6479 32.5206 30.3314 32.8336 29.9185 33.0493C29.505 33.2649 29.0171 33.3731 28.4541 33.3731ZM28.422 32.0612C28.8148 32.0612 29.1224 31.9438 29.3452 31.7082C29.5676 31.473 29.6792 31.1432 29.6792 30.7183C29.6792 30.2925 29.5676 29.9622 29.3452 29.7266C29.1224 29.4914 28.8148 29.3736 28.422 29.3736C28.1648 29.3736 27.9398 29.4291 27.7469 29.5391C27.5541 29.6483 27.405 29.8044 27.3005 30.0068C27.1969 30.2083 27.1451 30.4453 27.1451 30.7183C27.1451 31.1322 27.2585 31.4598 27.4862 31.7009C27.7135 31.9411 28.0255 32.0612 28.422 32.0612Z" fill="#8C52FF"/>
<path d="M22.6731 20.4221C22.4611 20.4221 22.2847 20.3816 22.1446 20.3002C22.0039 20.2179 21.9017 20.1073 21.8374 19.969L22.116 19.6233H22.1588C22.2053 19.7352 22.27 19.823 22.3535 19.8872C22.4379 19.9517 22.5356 19.9836 22.6464 19.9836C22.77 19.9836 22.8624 19.9467 22.9232 19.8726C22.9839 19.7989 23.0142 19.6788 23.0142 19.5123V17.8328H23.5089V19.5214C23.5089 19.8298 23.4397 20.0573 23.3017 20.2038C23.1633 20.3493 22.954 20.4221 22.6731 20.4221Z" fill="white"/>
<path d="M24.6845 20.4223C24.4711 20.4223 24.314 20.3636 24.2131 20.2458C24.1117 20.127 24.0613 19.9574 24.0613 19.7363V18.4607H24.5363V19.6744C24.5363 19.7922 24.5604 19.8782 24.6095 19.9328C24.6595 19.9874 24.7367 20.0147 24.8417 20.0147C24.9725 20.0147 25.0743 19.971 25.147 19.8837C25.2207 19.7954 25.2578 19.6562 25.2578 19.467V18.4607H25.7328V20.3859H25.2774V20.1038L25.2399 20.0947C25.1801 20.2053 25.1064 20.2876 25.0185 20.3422C24.9314 20.3954 24.8202 20.4223 24.6845 20.4223Z" fill="white"/>
<path d="M26.7889 20.4222C26.6183 20.4222 26.4888 20.3758 26.3996 20.2821C26.3103 20.1888 26.2656 20.0464 26.2656 19.8545V17.6873H26.7406V19.8363C26.7406 19.9541 26.788 20.0128 26.8835 20.0128C26.9107 20.0128 26.9398 20.0082 26.971 19.9982L26.996 20.0055L27.0389 20.3767C27.0112 20.3913 26.9764 20.4022 26.9335 20.4095C26.8906 20.4176 26.8424 20.4222 26.7889 20.4222Z" fill="white"/>
<path d="M27.5093 21.2029C27.428 21.2029 27.3548 21.1961 27.2896 21.1829C27.224 21.1706 27.1704 21.1542 27.1289 21.1338L27.2039 20.7425L27.2361 20.7316C27.2646 20.7462 27.2994 20.758 27.3414 20.768C27.3843 20.7776 27.4276 20.7826 27.4718 20.7826C27.5477 20.7826 27.6115 20.7721 27.6629 20.7516C27.7137 20.7307 27.7566 20.697 27.7914 20.6497C27.8271 20.6033 27.8584 20.5378 27.8861 20.4532L27.1325 18.4607H27.6289L28.0986 19.8H28.1397L28.5968 18.4607H29.0808L28.3218 20.506C28.2611 20.6707 28.1941 20.8035 28.1218 20.9045C28.049 21.005 27.9633 21.0796 27.8646 21.1283C27.7655 21.1779 27.6472 21.2029 27.5093 21.2029Z" fill="white"/>
</svg>
