<svg width="45" height="45" viewBox="0 0 45 45" fill="none" xmlns="http://www.w3.org/2000/svg">
<circle cx="22.5" cy="22.5" r="22.5" fill="#E8E2F4"/>
<path d="M19.4974 27.9901C19.2222 27.9901 18.9974 28.2152 18.9974 28.4899C18.9974 28.7646 19.2222 28.9897 19.4974 28.9897H23.4964C23.7712 28.9897 23.9961 28.7646 23.9961 28.4899C23.9961 28.2152 23.7712 27.9901 23.4964 27.9901H19.4974Z" fill="#8C52FF"/>
<path d="M12.524 28.34C12.524 28.368 12.5214 28.3956 12.5158 28.4229C12.5105 28.4501 12.5023 28.4767 12.4918 28.5027C12.481 28.5283 12.4678 28.5526 12.4524 28.576C12.4369 28.5993 12.4195 28.6207 12.3998 28.6404C12.38 28.6601 12.3583 28.6775 12.3353 28.6933C12.312 28.7087 12.2877 28.7219 12.2617 28.7324C12.2361 28.7429 12.2094 28.7511 12.1821 28.7567C12.1545 28.762 12.1269 28.7646 12.0993 28.7646C12.0714 28.7646 12.0437 28.762 12.0161 28.7567C11.9889 28.7511 11.9622 28.7429 11.9366 28.7324C11.9109 28.7219 11.8863 28.7087 11.8629 28.6933C11.8399 28.6775 11.8186 28.6601 11.7988 28.6404C11.7791 28.6207 11.7614 28.5993 11.7459 28.576C11.7305 28.5526 11.7173 28.5283 11.7065 28.5027C11.696 28.4767 11.6877 28.4501 11.6825 28.4229C11.6769 28.3956 11.6743 28.368 11.6743 28.34C11.6743 28.3121 11.6769 28.2845 11.6825 28.2572C11.6877 28.2296 11.696 28.2033 11.7065 28.1774C11.7173 28.1518 11.7305 28.1271 11.7459 28.1041C11.7614 28.0808 11.7791 28.0594 11.7988 28.0397C11.8186 28.02 11.8399 28.0022 11.8629 27.9868C11.8863 27.9714 11.9109 27.9582 11.9366 27.9477C11.9622 27.9368 11.9889 27.929 12.0161 27.9234C12.0437 27.9181 12.0714 27.9152 12.0993 27.9152C12.1269 27.9152 12.1545 27.9181 12.1821 27.9234C12.2094 27.929 12.2361 27.9368 12.2617 27.9477C12.2877 27.9582 12.312 27.9714 12.3353 27.9868C12.3583 28.0022 12.38 28.02 12.3998 28.0397C12.4195 28.0594 12.4369 28.0808 12.4524 28.1041C12.4678 28.1271 12.481 28.1518 12.4918 28.1774C12.5023 28.2033 12.5105 28.2296 12.5158 28.2572C12.5214 28.2845 12.524 28.3121 12.524 28.34Z" fill="#8C52FF"/>
<path d="M10.8495 28.34C10.8495 28.368 10.8468 28.3956 10.8412 28.4229C10.836 28.4501 10.8278 28.4767 10.8172 28.5027C10.8064 28.5283 10.7933 28.5526 10.7778 28.576C10.7624 28.5993 10.7446 28.6207 10.7249 28.6404C10.7052 28.6601 10.6838 28.6775 10.6608 28.6933C10.6374 28.7087 10.6131 28.7219 10.5871 28.7324C10.5615 28.7429 10.5349 28.7511 10.5076 28.7567C10.48 28.762 10.4524 28.7646 10.4244 28.7646C10.3968 28.7646 10.3692 28.762 10.3416 28.7567C10.3143 28.7511 10.2877 28.7429 10.262 28.7324C10.2361 28.7219 10.2117 28.7087 10.1884 28.6933C10.1654 28.6775 10.144 28.6601 10.1243 28.6404C10.1046 28.6207 10.0868 28.5993 10.0714 28.576C10.0559 28.5526 10.0428 28.5283 10.0319 28.5027C10.0214 28.4767 10.0132 28.4501 10.0079 28.4229C10.0023 28.3956 9.99969 28.368 9.99969 28.34C9.99969 28.3121 10.0023 28.2845 10.0079 28.2572C10.0132 28.2296 10.0214 28.2033 10.0319 28.1774C10.0428 28.1518 10.0559 28.1271 10.0714 28.1041C10.0868 28.0808 10.1046 28.0594 10.1243 28.0397C10.144 28.02 10.1654 28.0022 10.1884 27.9868C10.2117 27.9714 10.2361 27.9582 10.262 27.9477C10.2877 27.9368 10.3143 27.929 10.3416 27.9234C10.3692 27.9181 10.3968 27.9152 10.4244 27.9152C10.4524 27.9152 10.48 27.9181 10.5076 27.9234C10.5349 27.929 10.5615 27.9368 10.5871 27.9477C10.6131 27.9582 10.6374 27.9714 10.6608 27.9868C10.6838 28.0022 10.7052 28.02 10.7249 28.0397C10.7446 28.0594 10.7624 28.0808 10.7778 28.1041C10.7933 28.1271 10.8064 28.1518 10.8172 28.1774C10.8278 28.2033 10.836 28.2296 10.8412 28.2572C10.8468 28.2845 10.8495 28.3121 10.8495 28.34Z" fill="#8C52FF"/>
<path d="M19.1722 16.9725C19.0223 16.7474 18.6976 16.6725 18.4727 16.8223L13.9737 19.8205C13.8238 19.9204 13.7488 20.0706 13.7488 20.2454C13.7488 20.4202 13.8238 20.57 13.9737 20.6699L18.4727 23.6681C18.6976 23.8179 19.0223 23.768 19.1722 23.5182C19.3225 23.2935 19.2725 22.9685 19.0223 22.8186L15.1482 20.2454L19.0223 17.6721C19.2475 17.5219 19.3225 17.1973 19.1722 16.9725Z" fill="#8C52FF"/>
<path d="M23.8212 23.5182C23.9711 23.743 24.2962 23.8179 24.5211 23.6681L29.0201 20.6699C29.17 20.57 29.2449 20.4202 29.2449 20.2453C29.2449 20.0705 29.17 19.9204 29.0201 19.8205L24.5211 16.8223C24.2962 16.6725 23.9711 16.7224 23.8212 16.9725C23.6713 17.1972 23.7213 17.5219 23.9711 17.6721L27.8452 20.2453L23.9711 22.8186C23.7462 22.9685 23.6713 23.2935 23.8212 23.5182Z" fill="#8C52FF"/>
<path d="M22.0217 16.3728L20.022 23.8679C19.947 24.1429 20.1223 24.4176 20.3721 24.4676C20.4221 24.4676 20.447 24.4926 20.497 24.4926C20.7219 24.4926 20.9221 24.3427 20.972 24.118L22.9714 16.6226C23.0463 16.3478 22.8714 16.0731 22.6216 16.0229C22.3714 15.9479 22.0966 16.0981 22.0217 16.3728Z" fill="#8C52FF"/>
<mask id="mask0_453_1467" style="mask-type:luminance" maskUnits="userSpaceOnUse" x="8" y="13" width="28" height="20">
<path d="M8 13H35.0513V33H8V13Z" fill="white"/>
</mask>
<g mask="url(#mask0_453_1467)">
<path d="M19.4974 31.9876H17.9977C17.7229 31.9876 17.4977 32.2127 17.4977 32.4874C17.4977 32.7621 17.7229 32.9872 17.9977 32.9872H24.9961C25.2709 32.9872 25.4957 32.7621 25.4957 32.4874C25.4957 32.2127 25.2709 31.9876 24.9961 31.9876H23.4964V30.4888H33.4938C34.1437 30.4888 34.6936 30.0639 34.8935 29.4892H34.3685C34.1437 29.4892 33.9438 29.4642 33.7439 29.3893C33.669 29.4393 33.5687 29.4892 33.4688 29.4892H9.49967C9.22485 29.4892 9 29.2645 9 28.9897V27.4907H30.1446L30.0697 27.4157C29.8199 27.1657 29.6197 26.841 29.5197 26.4914H9V14.4991C9 14.224 9.22485 13.9993 9.49967 13.9993H33.4938C33.7689 13.9993 33.9938 14.224 33.9938 14.4991V17.0474C34.1187 17.0224 34.2436 16.9974 34.3935 16.9974H34.9934V14.4991C34.9934 13.6746 34.3185 13 33.4938 13H9.49967C8.67488 13 8 13.6746 8 14.4991V28.9897C8 29.8142 8.67488 30.4888 9.49967 30.4888H19.4974V31.9876ZM20.497 30.4888H22.4967V31.9876H20.497V30.4888Z" fill="#8C52FF"/>
</g>
<mask id="mask1_453_1467" style="mask-type:luminance" maskUnits="userSpaceOnUse" x="29" y="17" width="11" height="12">
<path d="M29.4971 17.979H40V28.4943H29.4971V17.979Z" fill="white"/>
</mask>
<g mask="url(#mask1_453_1467)">
<path d="M39.0175 21.6695C38.9675 21.5443 38.9175 21.4444 38.8676 21.3195C39.1923 20.8447 39.1424 20.1954 38.7177 19.7705L38.2177 19.271C37.9928 19.0459 37.668 18.9211 37.3429 18.9211C37.0931 18.9211 36.8682 18.996 36.668 19.1208C36.5681 19.0709 36.4432 19.021 36.3182 18.971C36.1933 18.3963 35.6933 17.9967 35.1184 17.9967H34.4185C33.8189 17.9967 33.3189 18.4213 33.219 18.971C33.094 19.021 32.9941 19.0709 32.8692 19.1208C32.669 18.996 32.4441 18.9211 32.1943 18.9211C31.8692 18.9211 31.5444 19.0459 31.3196 19.271L30.8196 19.7705C30.3945 20.1954 30.3445 20.8447 30.6697 21.3195C30.6197 21.4194 30.5697 21.5443 30.5198 21.6695C29.9448 21.7944 29.5447 22.2938 29.5447 22.8685V23.5681C29.5447 24.1678 29.9698 24.6673 30.5198 24.7672C30.5697 24.8924 30.6197 24.9923 30.6697 25.1172C30.5447 25.317 30.4698 25.5417 30.4698 25.7918C30.4698 26.1164 30.5947 26.4411 30.8196 26.6662L31.3196 27.1657C31.5444 27.3908 31.8692 27.5156 32.1943 27.5156C32.4441 27.5156 32.669 27.4407 32.8692 27.3158C32.9691 27.3658 33.094 27.4157 33.219 27.4657C33.3439 28.0401 33.8439 28.44 34.4185 28.44H35.1184C35.7183 28.44 36.2183 28.0151 36.3182 27.4657C36.4432 27.4157 36.5431 27.3658 36.668 27.3158C36.8682 27.4407 37.0931 27.5156 37.3429 27.5156C37.668 27.5156 37.9928 27.3908 38.2177 27.1657L38.7177 26.6662C38.9425 26.4411 39.0674 26.1164 39.0674 25.7918C39.0674 25.5417 38.9925 25.317 38.8676 25.1172C38.9175 25.0173 38.9675 24.8924 39.0175 24.7672C39.5924 24.6423 39.9921 24.1429 39.9921 23.5681V22.8685C39.9921 22.2938 39.5674 21.7944 39.0175 21.6695ZM38.9925 23.5931C38.9925 23.718 38.8925 23.8179 38.7676 23.8179H38.2426C38.1427 24.3676 37.9428 24.8421 37.643 25.267L38.0178 25.6419C38.1177 25.7418 38.1177 25.8917 38.0178 25.9666L37.5178 26.4664C37.4678 26.5164 37.4178 26.5413 37.3429 26.5413C37.2679 26.5413 37.218 26.5164 37.168 26.4664L36.7929 26.0915C36.3682 26.3912 35.8682 26.6163 35.3436 26.6912V27.2156C35.3436 27.3408 35.2436 27.4407 35.1184 27.4407H34.4185C34.2936 27.4407 34.1937 27.3408 34.1937 27.2156V26.7411C33.644 26.6412 33.169 26.4411 32.7439 26.1414L32.3192 26.4914C32.2693 26.5413 32.2193 26.5663 32.1443 26.5663C32.0694 26.5663 32.0444 26.5413 31.9941 26.4914L31.4944 25.9916C31.3945 25.8917 31.3945 25.7418 31.4944 25.6669L31.8692 25.292C31.5694 24.8674 31.3445 24.3676 31.2696 23.8429H30.7446C30.6197 23.8429 30.5198 23.743 30.5198 23.6181V22.9185C30.5198 22.7936 30.6197 22.6937 30.7446 22.6937H31.2446C31.3445 22.144 31.5444 21.6695 31.8442 21.2446L31.4944 20.8197C31.3945 20.7198 31.3945 20.57 31.4944 20.4951L31.9941 19.9953C32.0444 19.9453 32.0944 19.9203 32.1693 19.9203C32.2443 19.9203 32.2942 19.9453 32.3442 19.9953L32.719 20.3702C33.144 20.0705 33.644 19.8454 34.1687 19.7705V19.2457C34.1687 19.1208 34.2686 19.021 34.3935 19.021H35.0934C35.2183 19.021 35.3186 19.1208 35.3186 19.2457V19.7455C35.8682 19.8454 36.3432 20.0452 36.7679 20.3452L37.143 19.9703C37.193 19.9203 37.243 19.8954 37.3179 19.8954C37.3929 19.8954 37.4428 19.9203 37.4928 19.9703L37.9928 20.4701C38.0927 20.57 38.0927 20.7198 37.9928 20.7947L37.6177 21.1697C37.9178 21.5942 38.1427 22.094 38.2177 22.6188H38.7426C38.8676 22.6188 38.9675 22.7187 38.9675 22.8436V23.5931H38.9925Z" fill="#8C52FF"/>
</g>
<path d="M34.7436 21.2446C33.644 21.2446 32.7439 22.144 32.7439 23.2432C32.7439 24.3427 33.644 25.2421 34.7436 25.2421C35.8432 25.2421 36.7429 24.3427 36.7429 23.2432C36.7429 22.144 35.8432 21.2446 34.7436 21.2446ZM34.7436 24.2428C34.1936 24.2428 33.7439 23.7929 33.7439 23.2432C33.7439 22.6938 34.1936 22.2439 34.7436 22.2439C35.2935 22.2439 35.7432 22.6938 35.7432 23.2432C35.7432 23.7929 35.2935 24.2428 34.7436 24.2428Z" fill="#8C52FF"/>
</svg>
