<svg width="100" height="30" viewBox="0 0 100 30" fill="none" xmlns="http://www.w3.org/2000/svg">
<rect width="100" height="30" rx="5" fill="white"/>
<path d="M35.4418 10.2727V19H33.8608V10.2727H35.4418ZM38.6282 15.1648V19H37.0856V12.4545H38.56V13.5668H38.6367C38.7873 13.2003 39.0273 12.9091 39.3569 12.6932C39.6893 12.4773 40.0998 12.3693 40.5884 12.3693C41.0401 12.3693 41.4336 12.4659 41.7688 12.6591C42.1069 12.8523 42.3683 13.1321 42.5529 13.4986C42.7404 13.8651 42.8327 14.3097 42.8299 14.8324V19H41.2873V15.071C41.2873 14.6335 41.1737 14.2912 40.9464 14.044C40.7219 13.7969 40.4109 13.6733 40.0131 13.6733C39.7433 13.6733 39.5032 13.733 39.293 13.8523C39.0856 13.9687 38.9222 14.1378 38.8029 14.3594C38.6864 14.581 38.6282 14.8494 38.6282 15.1648ZM49.5714 14.1847L48.1651 14.3381C48.1254 14.196 48.0558 14.0625 47.9563 13.9375C47.8597 13.8125 47.729 13.7116 47.5643 13.6349C47.3995 13.5582 47.1978 13.5199 46.9592 13.5199C46.6381 13.5199 46.3683 13.5895 46.1495 13.7287C45.9336 13.8679 45.8271 14.0483 45.8299 14.2699C45.8271 14.4602 45.8967 14.6151 46.0387 14.7344C46.1836 14.8537 46.4222 14.9517 46.7546 15.0284L47.8711 15.267C48.4904 15.4006 48.9506 15.6122 49.2518 15.902C49.5558 16.1918 49.7092 16.571 49.712 17.0398C49.7092 17.4517 49.5884 17.8153 49.3498 18.1307C49.114 18.4432 48.7859 18.6875 48.3654 18.8636C47.945 19.0398 47.462 19.1278 46.9165 19.1278C46.1154 19.1278 45.4705 18.9602 44.9819 18.625C44.4933 18.2869 44.2021 17.8168 44.1083 17.2145L45.6126 17.0696C45.6808 17.3651 45.8256 17.5881 46.0472 17.7386C46.2688 17.8892 46.5572 17.9645 46.9123 17.9645C47.2788 17.9645 47.5728 17.8892 47.7944 17.7386C48.0188 17.5881 48.131 17.402 48.131 17.1804C48.131 16.9929 48.0586 16.8381 47.9137 16.7159C47.7717 16.5937 47.5501 16.5 47.2489 16.4347L46.1325 16.2003C45.5046 16.0696 45.0401 15.8494 44.739 15.5398C44.4379 15.2273 44.2887 14.8324 44.2915 14.3551C44.2887 13.9517 44.3981 13.6023 44.6197 13.3068C44.8441 13.0085 45.1552 12.7784 45.5529 12.6165C45.9535 12.4517 46.4151 12.3693 46.9379 12.3693C47.7049 12.3693 48.3086 12.5327 48.7489 12.8594C49.1921 13.1861 49.4663 13.6278 49.5714 14.1847ZM50.984 19V12.4545H52.5266V19H50.984ZM51.7596 11.5256C51.5153 11.5256 51.305 11.4446 51.1289 11.2827C50.9528 11.1179 50.8647 10.9205 50.8647 10.6903C50.8647 10.4574 50.9528 10.2599 51.1289 10.098C51.305 9.93324 51.5153 9.85085 51.7596 9.85085C52.0067 9.85085 52.217 9.93324 52.3903 10.098C52.5664 10.2599 52.6545 10.4574 52.6545 10.6903C52.6545 10.9205 52.5664 11.1179 52.3903 11.2827C52.217 11.4446 52.0067 11.5256 51.7596 11.5256ZM56.9595 21.5909C56.4055 21.5909 55.9297 21.5156 55.532 21.3651C55.1342 21.2173 54.8146 21.0185 54.5732 20.7685C54.3317 20.5185 54.1641 20.2415 54.0703 19.9375L55.4595 19.6009C55.522 19.7287 55.6129 19.8551 55.7322 19.9801C55.8516 20.108 56.0121 20.2131 56.2138 20.2955C56.4183 20.3807 56.6754 20.4233 56.9851 20.4233C57.4226 20.4233 57.7848 20.3168 58.0717 20.1037C58.3587 19.8935 58.5021 19.5469 58.5021 19.0639V17.8239H58.4254C58.3459 17.983 58.2294 18.1463 58.076 18.3139C57.9254 18.4815 57.7251 18.6222 57.4751 18.7358C57.228 18.8494 56.9169 18.9062 56.5419 18.9062C56.0391 18.9062 55.5831 18.7884 55.174 18.5526C54.7678 18.3139 54.4439 17.9588 54.2024 17.4872C53.9638 17.0128 53.8445 16.419 53.8445 15.706C53.8445 14.9872 53.9638 14.3807 54.2024 13.8864C54.4439 13.3892 54.7692 13.0128 55.1783 12.7571C55.5874 12.4986 56.0433 12.3693 56.5462 12.3693C56.9297 12.3693 57.245 12.4347 57.4922 12.5653C57.7422 12.6932 57.9411 12.848 58.0888 13.0298C58.2365 13.2088 58.3487 13.3778 58.4254 13.5369H58.5107V12.4545H60.032V19.1065C60.032 19.6662 59.8984 20.1293 59.6314 20.4957C59.3643 20.8622 58.9993 21.1364 58.5362 21.3182C58.0732 21.5 57.5476 21.5909 56.9595 21.5909ZM56.9723 17.696C57.299 17.696 57.5774 17.6165 57.8075 17.4574C58.0376 17.2983 58.2124 17.0696 58.3317 16.7713C58.451 16.473 58.5107 16.1151 58.5107 15.6974C58.5107 15.2855 58.451 14.9247 58.3317 14.6151C58.2152 14.3054 58.0419 14.0653 57.8118 13.8949C57.5845 13.7216 57.3047 13.6349 56.9723 13.6349C56.6286 13.6349 56.3416 13.7244 56.1115 13.9034C55.8814 14.0824 55.7081 14.3281 55.5916 14.6406C55.4751 14.9503 55.4169 15.3026 55.4169 15.6974C55.4169 16.098 55.4751 16.4489 55.5916 16.75C55.7109 17.0483 55.8857 17.2812 56.1158 17.4489C56.3487 17.6136 56.6342 17.696 56.9723 17.696ZM63.1555 15.1648V19H61.6129V10.2727H63.1214V13.5668H63.1982C63.3516 13.1974 63.5888 12.9062 63.9098 12.6932C64.2337 12.4773 64.6456 12.3693 65.1456 12.3693C65.6001 12.3693 65.9964 12.4645 66.3345 12.6548C66.6726 12.8452 66.9339 13.1236 67.1186 13.4901C67.3061 13.8565 67.3999 14.304 67.3999 14.8324V19H65.8572V15.071C65.8572 14.6307 65.7436 14.2884 65.5163 14.044C65.2919 13.7969 64.9766 13.6733 64.5703 13.6733C64.2976 13.6733 64.0533 13.733 63.8374 13.8523C63.6243 13.9687 63.4567 14.1378 63.3345 14.3594C63.2152 14.581 63.1555 14.8494 63.1555 15.1648ZM72.2408 12.4545V13.6477H68.478V12.4545H72.2408ZM69.407 10.8864H70.9496V17.0312C70.9496 17.2386 70.9808 17.3977 71.0433 17.5085C71.1087 17.6165 71.1939 17.6903 71.299 17.7301C71.4041 17.7699 71.5206 17.7898 71.6484 17.7898C71.745 17.7898 71.8331 17.7827 71.9126 17.7685C71.995 17.7543 72.0575 17.7415 72.1001 17.7301L72.3601 18.9361C72.2777 18.9645 72.1598 18.9957 72.0064 19.0298C71.8558 19.0639 71.6712 19.0838 71.4524 19.0895C71.0661 19.1009 70.718 19.0426 70.4084 18.9148C70.0987 18.7841 69.853 18.5824 69.6712 18.3097C69.4922 18.0369 69.4041 17.696 69.407 17.2869V10.8864ZM78.6104 14.1847L77.2042 14.3381C77.1644 14.196 77.0948 14.0625 76.9954 13.9375C76.8988 13.8125 76.7681 13.7116 76.6033 13.6349C76.4386 13.5582 76.2369 13.5199 75.9982 13.5199C75.6772 13.5199 75.4073 13.5895 75.1886 13.7287C74.9727 13.8679 74.8661 14.0483 74.869 14.2699C74.8661 14.4602 74.9357 14.6151 75.0778 14.7344C75.2227 14.8537 75.4613 14.9517 75.7937 15.0284L76.9102 15.267C77.5295 15.4006 77.9897 15.6122 78.2908 15.902C78.5948 16.1918 78.7482 16.571 78.7511 17.0398C78.7482 17.4517 78.6275 17.8153 78.3888 18.1307C78.1531 18.4432 77.8249 18.6875 77.4045 18.8636C76.984 19.0398 76.5011 19.1278 75.9556 19.1278C75.1545 19.1278 74.5096 18.9602 74.021 18.625C73.5323 18.2869 73.2411 17.8168 73.1474 17.2145L74.6516 17.0696C74.7198 17.3651 74.8647 17.5881 75.0863 17.7386C75.3079 17.8892 75.5962 17.9645 75.9513 17.9645C76.3178 17.9645 76.6119 17.8892 76.8335 17.7386C77.0579 17.5881 77.1701 17.402 77.1701 17.1804C77.1701 16.9929 77.0977 16.8381 76.9528 16.7159C76.8107 16.5937 76.5891 16.5 76.288 16.4347L75.1715 16.2003C74.5437 16.0696 74.0792 15.8494 73.7781 15.5398C73.4769 15.2273 73.3278 14.8324 73.3306 14.3551C73.3278 13.9517 73.4371 13.6023 73.6587 13.3068C73.8832 13.0085 74.1942 12.7784 74.592 12.6165C74.9925 12.4517 75.4542 12.3693 75.9769 12.3693C76.744 12.3693 77.3477 12.5327 77.788 12.8594C78.2312 13.1861 78.5053 13.6278 78.6104 14.1847Z" fill="black"/>
<mask id="mask0_405_1529" style="mask-type:luminance" maskUnits="userSpaceOnUse" x="7" y="7" width="17" height="17">
<path d="M7 7.5H24V23.5H7V7.5Z" fill="white"/>
</mask>
<g mask="url(#mask0_405_1529)">
<mask id="mask1_405_1529" style="mask-type:luminance" maskUnits="userSpaceOnUse" x="7" y="7" width="17" height="17">
<path d="M7.26241 7.5H23.731C23.8005 7.5 23.8672 7.52657 23.9166 7.574C23.9658 7.62144 23.9934 7.68578 23.9934 7.75297V23.247C23.9934 23.3142 23.9658 23.3786 23.9166 23.426C23.8672 23.4734 23.8005 23.5 23.731 23.5H7.26241C7.19271 23.5 7.12597 23.4734 7.07676 23.426C7.02756 23.3786 7 23.3142 7 23.247V7.75297C7 7.68578 7.02756 7.62144 7.07676 7.574C7.12597 7.52657 7.19271 7.5 7.26241 7.5Z" fill="white"/>
</mask>
<g mask="url(#mask1_405_1529)">
<path d="M7 7.5H23.9861V23.5H7V7.5Z" fill="black"/>
</g>
</g>
<mask id="mask2_405_1529" style="mask-type:luminance" maskUnits="userSpaceOnUse" x="10" y="10" width="11" height="11">
<path d="M10.292 10.4825H20.701V20.5171H10.292V10.4825Z" fill="white"/>
</mask>
<g mask="url(#mask2_405_1529)">
<path d="M15.4965 10.4825C15.4113 10.4825 15.3261 10.4845 15.2409 10.4885C15.1559 10.4926 15.071 10.4986 14.9862 10.5067C14.9015 10.5146 14.817 10.5247 14.7327 10.5368C14.6484 10.5489 14.5646 10.5629 14.481 10.5789C14.3974 10.595 14.3145 10.613 14.2318 10.6327C14.1491 10.6527 14.0671 10.6747 13.9856 10.6984C13.904 10.7223 13.8232 10.748 13.743 10.7757C13.6628 10.8034 13.5833 10.833 13.5047 10.8644C13.4261 10.8958 13.3482 10.929 13.2712 10.9641C13.1942 10.9992 13.1182 11.0361 13.043 11.075C12.9678 11.1137 12.8938 11.1541 12.8207 11.1962C12.7478 11.2386 12.6758 11.2825 12.6049 11.328C12.5341 11.3737 12.4644 11.4209 12.3961 11.4698C12.3277 11.5188 12.2605 11.5693 12.1947 11.6214C12.1289 11.6734 12.0644 11.727 12.0013 11.7821C11.9382 11.8374 11.8765 11.8939 11.8163 11.9521C11.756 12.01 11.6972 12.0695 11.64 12.1304C11.5829 12.1912 11.5273 12.2533 11.4733 12.3168C11.4193 12.3803 11.3669 12.445 11.3161 12.5109C11.2653 12.5768 11.2164 12.644 11.169 12.7123C11.1216 12.7806 11.076 12.85 11.0323 12.9202C10.9886 12.9907 10.9467 13.0621 10.9063 13.1346C10.8662 13.207 10.828 13.2804 10.7915 13.3546C10.7551 13.4288 10.7207 13.5039 10.6881 13.5797C10.6555 13.6557 10.6248 13.7321 10.5961 13.8094C10.5674 13.8867 10.5407 13.9646 10.5159 14.0432C10.4913 14.1219 10.4685 14.2009 10.4478 14.2806C10.4271 14.3603 10.4084 14.4405 10.392 14.5209C10.3754 14.6015 10.3608 14.6823 10.3483 14.7635C10.3357 14.8448 10.3252 14.9262 10.317 15.0079C10.3086 15.0896 10.3022 15.1715 10.2981 15.2536C10.294 15.3356 10.292 15.4177 10.292 15.4998C10.292 15.5819 10.294 15.6638 10.2981 15.746C10.3022 15.8279 10.3086 15.9098 10.317 15.9915C10.3252 16.0732 10.3357 16.1546 10.3483 16.2359C10.3608 16.3171 10.3754 16.3979 10.392 16.4785C10.4084 16.5591 10.4271 16.6393 10.4478 16.7188C10.4685 16.7985 10.4913 16.8775 10.5159 16.9562C10.5407 17.0348 10.5674 17.1127 10.5961 17.19C10.6248 17.2673 10.6555 17.344 10.6881 17.4197C10.7207 17.4957 10.7551 17.5706 10.7915 17.6448C10.828 17.719 10.8662 17.7924 10.9063 17.8648C10.9467 17.9373 10.9886 18.0087 11.0323 18.0792C11.076 18.1496 11.1216 18.2188 11.169 18.2871C11.2164 18.3554 11.2653 18.4226 11.3161 18.4885C11.3669 18.5546 11.4193 18.6191 11.4733 18.6826C11.5273 18.7461 11.5829 18.8082 11.64 18.869C11.6972 18.9301 11.756 18.9894 11.8163 19.0476C11.8765 19.1055 11.9382 19.1622 12.0013 19.2173C12.0644 19.2724 12.1289 19.326 12.1947 19.378C12.2605 19.4303 12.3277 19.4808 12.3961 19.5296C12.4644 19.5785 12.5341 19.6257 12.6049 19.6714C12.6758 19.7171 12.7478 19.761 12.8207 19.8032C12.8938 19.8453 12.9678 19.886 13.043 19.9246C13.1182 19.9633 13.1942 20.0002 13.2712 20.0353C13.3482 20.0704 13.4261 20.1036 13.5047 20.135C13.5833 20.1666 13.6628 20.196 13.743 20.2237C13.8232 20.2514 13.904 20.2771 13.9856 20.301C14.0671 20.3247 14.1491 20.3467 14.2318 20.3667C14.3145 20.3866 14.3974 20.4046 14.481 20.4207C14.5646 20.4367 14.6484 20.4508 14.7327 20.4626C14.817 20.4747 14.9015 20.4848 14.9862 20.4929C15.071 20.5008 15.1559 20.507 15.2409 20.5109C15.3261 20.5149 15.4113 20.5171 15.4965 20.5171C15.5814 20.5171 15.6666 20.5149 15.7518 20.5109C15.8368 20.507 15.9218 20.5008 16.0065 20.4929C16.0912 20.4848 16.1757 20.4747 16.26 20.4626C16.3443 20.4505 16.4281 20.4367 16.5117 20.4207C16.5953 20.4046 16.6782 20.3866 16.7609 20.3667C16.8436 20.3467 16.9256 20.3247 17.0072 20.301C17.0887 20.2771 17.1696 20.2514 17.2498 20.2237C17.3299 20.196 17.4094 20.1666 17.488 20.135C17.5668 20.1036 17.6445 20.0704 17.7215 20.0353C17.7985 20.0002 17.8746 19.9633 17.9497 19.9246C18.0249 19.886 18.0989 19.8453 18.1721 19.8032C18.245 19.761 18.3169 19.7171 18.3878 19.6714C18.4586 19.6257 18.5283 19.5785 18.5967 19.5296C18.665 19.4808 18.7322 19.4303 18.798 19.378C18.8639 19.326 18.9283 19.2724 18.9914 19.2173C19.0545 19.1622 19.1162 19.1055 19.1764 19.0476C19.2367 18.9894 19.2955 18.9301 19.3527 18.869C19.4099 18.8082 19.4654 18.7461 19.5194 18.6826C19.5734 18.6191 19.6258 18.5546 19.6766 18.4885C19.7274 18.4226 19.7764 18.3554 19.8238 18.2871C19.8711 18.2188 19.9167 18.1496 19.9604 18.0792C20.0042 18.0087 20.0461 17.9373 20.0864 17.8648C20.1265 17.7924 20.1648 17.719 20.2012 17.6448C20.2376 17.5706 20.272 17.4957 20.3046 17.4197C20.3372 17.344 20.3679 17.2673 20.3966 17.19C20.4253 17.1127 20.452 17.0348 20.4768 16.9562C20.5014 16.8775 20.5242 16.7985 20.5449 16.7188C20.5657 16.6393 20.5843 16.5591 20.6007 16.4785C20.6174 16.3979 20.6319 16.3171 20.6445 16.2359C20.657 16.1546 20.6675 16.0732 20.6759 15.9915C20.6841 15.9098 20.6905 15.8279 20.6946 15.746C20.6987 15.6638 20.701 15.5819 20.701 15.4998C20.7007 15.4177 20.6987 15.3356 20.6946 15.2536C20.6903 15.1715 20.6841 15.0896 20.6757 15.0079C20.6675 14.9262 20.657 14.8448 20.6445 14.7635C20.6319 14.6823 20.6174 14.6015 20.6007 14.5209C20.5841 14.4405 20.5654 14.3603 20.5447 14.2806C20.524 14.2011 20.5014 14.1219 20.4766 14.0435C20.4518 13.9649 20.4251 13.8869 20.3964 13.8096C20.3677 13.7323 20.3372 13.6557 20.3046 13.5799C20.2718 13.5039 20.2374 13.4288 20.201 13.3546C20.1645 13.2804 20.1263 13.2073 20.0862 13.1348C20.0461 13.0623 20.0039 12.991 19.9602 12.9205C19.9165 12.85 19.8709 12.7808 19.8235 12.7125C19.7761 12.6442 19.7272 12.577 19.6764 12.5111C19.6258 12.4453 19.5734 12.3805 19.5192 12.317C19.4652 12.2536 19.4096 12.1914 19.3525 12.1306C19.2953 12.0698 19.2365 12.0103 19.1764 11.9523C19.116 11.8941 19.0545 11.8374 18.9912 11.7823C18.9281 11.7272 18.8636 11.6736 18.7978 11.6216C18.732 11.5695 18.665 11.519 18.5964 11.4701C18.5281 11.4211 18.4584 11.3739 18.3878 11.3282C18.3169 11.2825 18.245 11.2386 18.1718 11.1964C18.0987 11.1543 18.0247 11.1139 17.9495 11.075C17.8746 11.0364 17.7985 10.9995 17.7215 10.9643C17.6445 10.9292 17.5666 10.896 17.488 10.8646C17.4092 10.8332 17.3297 10.8036 17.2495 10.7759C17.1693 10.7483 17.0885 10.7226 17.0072 10.6986C16.9256 10.6749 16.8436 10.6529 16.7609 10.633C16.6782 10.613 16.5951 10.595 16.5117 10.5789C16.4281 10.5629 16.3443 10.5489 16.26 10.5368C16.1757 10.5247 16.0912 10.5148 16.0065 10.5067C15.9218 10.4986 15.8368 10.4926 15.7518 10.4885C15.6666 10.4845 15.5814 10.4825 15.4965 10.4825ZM14.184 18.4114H12.2437V14.6704C12.2437 14.6487 12.2457 14.6271 12.2503 14.6058C12.2546 14.5845 12.261 14.5639 12.2696 14.5437C12.2783 14.5237 12.289 14.5046 12.3015 14.4866C12.3138 14.4684 12.3282 14.4517 12.3441 14.4363C12.3601 14.4209 12.3774 14.4073 12.3961 14.3953C12.4147 14.3832 12.4346 14.3731 12.4555 14.3647C12.4762 14.3564 12.4977 14.35 12.5198 14.3458C12.5418 14.3417 12.5642 14.3395 12.5867 14.3395H13.8407C13.8632 14.3395 13.8856 14.3417 13.9077 14.3458C13.9298 14.35 13.9512 14.3564 13.9719 14.3647C13.9929 14.3731 14.0127 14.3832 14.0313 14.3953C14.05 14.4073 14.0673 14.4209 14.0833 14.4363C14.0992 14.4517 14.1136 14.4684 14.1261 14.4866C14.1386 14.5046 14.1491 14.5237 14.1578 14.5437C14.1664 14.5639 14.1728 14.5845 14.1774 14.6058C14.1817 14.6271 14.184 14.6487 14.184 14.6704V18.4114ZM16.4657 18.4114H14.527V12.9189C14.527 12.8974 14.5291 12.8759 14.5334 12.8546C14.5377 12.8333 14.5441 12.8126 14.5528 12.7924C14.5612 12.7725 14.5717 12.7534 14.5842 12.7354C14.5965 12.7173 14.6106 12.7007 14.6266 12.6853C14.6425 12.6699 14.6598 12.6561 14.6785 12.644C14.6972 12.6319 14.7168 12.6218 14.7375 12.6135C14.7582 12.6051 14.7796 12.5988 14.8017 12.5946C14.8238 12.5904 14.8461 12.5882 14.8685 12.5882H16.1243C16.1466 12.5882 16.1689 12.5904 16.191 12.5946C16.2131 12.5988 16.2345 12.6051 16.2552 12.6135C16.276 12.6218 16.2958 12.6319 16.3142 12.644C16.3329 12.6561 16.3502 12.6699 16.3662 12.6853C16.3821 12.7007 16.3962 12.7173 16.4085 12.7354C16.4211 12.7534 16.4315 12.7725 16.4402 12.7924C16.4486 12.8126 16.455 12.8333 16.4593 12.8546C16.4637 12.8759 16.4657 12.8974 16.4657 12.9189V18.4114ZM18.7493 18.4114H16.809V13.7892C16.809 13.7674 16.811 13.7459 16.8156 13.7248C16.8199 13.7035 16.8265 13.6829 16.8352 13.6629C16.8438 13.6429 16.8543 13.6238 16.8668 13.6058C16.8794 13.5878 16.8937 13.5711 16.9097 13.556C16.9256 13.5406 16.9429 13.527 16.9616 13.5149C16.9803 13.503 17.0001 13.4927 17.0208 13.4846C17.0418 13.4763 17.0632 13.4701 17.0853 13.4659C17.1074 13.4618 17.1295 13.4598 17.152 13.46H18.406C18.4286 13.4598 18.4509 13.4618 18.4727 13.4659C18.4948 13.4701 18.5163 13.4763 18.5372 13.4846C18.5579 13.4927 18.5778 13.503 18.5964 13.5149C18.6151 13.527 18.6324 13.5406 18.6484 13.556C18.6643 13.5711 18.6787 13.5878 18.6912 13.6058C18.7037 13.6238 18.7142 13.6429 18.7229 13.6629C18.7315 13.6829 18.7381 13.7035 18.7424 13.7248C18.747 13.7459 18.7491 13.7674 18.7493 13.7892V18.4114Z" fill="white"/>
</g>
</svg>
