<svg width="45" height="45" viewBox="0 0 45 45" fill="none" xmlns="http://www.w3.org/2000/svg">
<circle cx="22.5" cy="22.5" r="22.5" fill="#E8E2F4"/>
<path d="M12.6567 12.6409H13.4848V13.4616H12.6567V12.6409Z" fill="#8C52FF"/>
<path d="M14.3125 12.6409H15.1405V13.4616H14.3125V12.6409Z" fill="#8C52FF"/>
<path d="M15.9683 12.6409H16.796V13.4616H15.9683V12.6409Z" fill="#8C52FF"/>
<mask id="mask0_453_1489" style="mask-type:luminance" maskUnits="userSpaceOnUse" x="11" y="11" width="24" height="23">
<path d="M11 11H35V34H11V11Z" fill="white"/>
</mask>
<g mask="url(#mask0_453_1489)">
<path d="M33.3528 11H12.6567C12.6028 11 12.5486 11.0025 12.4946 11.0079C12.4407 11.0132 12.3871 11.0211 12.3341 11.0318C12.2808 11.0421 12.2284 11.0553 12.1764 11.0711C12.1247 11.0865 12.0736 11.1047 12.0235 11.1252C11.9734 11.1459 11.9245 11.1689 11.8769 11.1943C11.829 11.2195 11.7827 11.2472 11.7373 11.277C11.6923 11.3069 11.6488 11.339 11.6069 11.373C11.5651 11.4069 11.5251 11.4431 11.4867 11.4811C11.4483 11.5192 11.4121 11.5588 11.3776 11.6003C11.3433 11.6418 11.3109 11.6849 11.2808 11.7296C11.2506 11.7742 11.2227 11.8204 11.1973 11.8676C11.1716 11.9151 11.1485 11.9635 11.1279 12.0132C11.1069 12.0629 11.0885 12.1135 11.073 12.1648C11.0571 12.2164 11.0438 12.2682 11.0333 12.3211C11.0229 12.3736 11.0146 12.4267 11.0092 12.4802C11.0038 12.5336 11.0013 12.5871 11.0013 12.6409V29.0519C11.0013 29.1057 11.0038 29.1594 11.0092 29.2129C11.0146 29.2664 11.0229 29.3195 11.0333 29.372C11.0438 29.4248 11.0571 29.4767 11.073 29.5283C11.0885 29.5796 11.1069 29.6302 11.1279 29.6799C11.1485 29.7292 11.1716 29.778 11.1973 29.8252C11.2227 29.8726 11.2506 29.9186 11.2808 29.9632C11.3109 30.0079 11.3433 30.0513 11.3776 30.0928C11.4121 30.1343 11.4483 30.1739 11.4867 30.212C11.5251 30.25 11.5651 30.2858 11.6069 30.3201C11.6488 30.3541 11.6923 30.3862 11.7373 30.416C11.7827 30.4459 11.829 30.4736 11.8769 30.4987C11.9245 30.5242 11.9734 30.5472 12.0235 30.5676C12.0736 30.5884 12.1247 30.6063 12.1764 30.622C12.2284 30.6377 12.2808 30.6506 12.3341 30.6613C12.3871 30.6717 12.4407 30.6799 12.4946 30.6849C12.5486 30.6903 12.6028 30.6931 12.6567 30.6931H19.9553L19.7294 33.1547H18.4518V33.9755H27.5581V33.1547H26.2805L26.0546 30.6931H33.3528C33.4071 30.6931 33.4613 30.6903 33.5152 30.6849C33.5692 30.6799 33.6228 30.6717 33.6758 30.6613C33.7291 30.6506 33.7814 30.6377 33.8335 30.622C33.8852 30.6063 33.9362 30.5884 33.9864 30.5676C34.0362 30.5472 34.0854 30.5242 34.1329 30.4987C34.1808 30.4736 34.2272 30.4459 34.2722 30.416C34.3173 30.3862 34.3607 30.3541 34.4029 30.3201C34.4448 30.2858 34.4848 30.25 34.5232 30.212C34.5616 30.1739 34.5977 30.1343 34.6323 30.0928C34.6666 30.0513 34.6989 30.0079 34.7291 29.9632C34.7592 29.9186 34.7871 29.8726 34.8125 29.8252C34.8382 29.778 34.8614 29.7292 34.882 29.6799C34.9029 29.6302 34.921 29.5796 34.9369 29.5283C34.9527 29.4767 34.9657 29.4248 34.9765 29.372C34.987 29.3195 34.9953 29.2664 35.0003 29.2129C35.0057 29.1594 35.0086 29.1057 35.0086 29.0519V12.6409C35.0086 12.5871 35.0057 12.5336 35.0003 12.4802C34.9953 12.4267 34.987 12.3736 34.9765 12.3211C34.9657 12.2682 34.9527 12.2164 34.9369 12.1648C34.921 12.1135 34.9029 12.0629 34.882 12.0132C34.8614 11.9635 34.8382 11.9151 34.8125 11.8676C34.7871 11.8204 34.7592 11.7742 34.7291 11.7296C34.6989 11.6849 34.6666 11.6418 34.6323 11.6003C34.5977 11.5588 34.5616 11.5192 34.5232 11.4811C34.4848 11.4431 34.4448 11.4069 34.4029 11.373C34.3607 11.339 34.3173 11.3069 34.2722 11.277C34.2272 11.2472 34.1808 11.2195 34.1329 11.1943C34.0854 11.1689 34.0362 11.1459 33.9864 11.1252C33.9362 11.1047 33.8852 11.0865 33.8335 11.0711C33.7814 11.0553 33.7291 11.0421 33.6758 11.0318C33.6228 11.0211 33.5692 11.0132 33.5152 11.0079C33.4613 11.0025 33.4071 11 33.3528 11ZM12.6567 11.8204H33.3528C33.4074 11.8204 33.461 11.8258 33.5143 11.8365C33.5676 11.8469 33.6193 11.8626 33.6694 11.883C33.7199 11.9038 33.7675 11.9289 33.8125 11.9591C33.8579 11.989 33.8994 12.023 33.9381 12.061C33.9765 12.0991 34.0108 12.1406 34.0409 12.1852C34.0711 12.2302 34.0968 12.2774 34.1174 12.327C34.1383 12.3767 34.1542 12.4283 34.1647 12.4808C34.1755 12.5336 34.1808 12.5871 34.1808 12.6409V14.2821H11.829V12.6409C11.829 12.5871 11.8344 12.5336 11.8452 12.4808C11.8557 12.4283 11.8715 12.3767 11.8925 12.327C11.9131 12.2774 11.9388 12.2302 11.9689 12.1852C11.9991 12.1406 12.0333 12.0991 12.0717 12.061C12.1101 12.023 12.152 11.989 12.1973 11.9591C12.2424 11.9289 12.29 11.9038 12.3401 11.883C12.3906 11.8626 12.4423 11.8469 12.4956 11.8365C12.5489 11.8258 12.6025 11.8204 12.6567 11.8204ZM34.1808 15.1025V26.5903H11.829V15.1025H34.1808ZM25.4493 33.1547H20.5606L20.7865 30.6931H25.2234L25.4493 33.1547ZM33.3528 29.8726H12.6567C12.6025 29.8726 12.5489 29.8673 12.4956 29.8566C12.4423 29.8462 12.3906 29.8305 12.3401 29.8097C12.29 29.7893 12.2424 29.7638 12.1973 29.734C12.152 29.7041 12.1101 29.6701 12.0717 29.6321C12.0333 29.594 11.9991 29.5525 11.9689 29.5075C11.9388 29.4629 11.9131 29.4157 11.8925 29.366C11.8715 29.316 11.8557 29.2648 11.8452 29.212C11.8344 29.1591 11.829 29.106 11.829 29.0519V27.411H34.1808V29.0519C34.1808 29.106 34.1755 29.1591 34.1647 29.212C34.1542 29.2648 34.1383 29.316 34.1174 29.366C34.0968 29.4157 34.0711 29.4629 34.0409 29.5075C34.0108 29.5525 33.9765 29.594 33.9381 29.6321C33.8994 29.6701 33.8579 29.7041 33.8125 29.734C33.7675 29.7638 33.7199 29.7893 33.6694 29.8097C33.6193 29.8305 33.5676 29.8462 33.5143 29.8566C33.461 29.8673 33.4074 29.8726 33.3528 29.8726Z" fill="#8C52FF"/>
</g>
<path d="M22.5911 28.2314H23.4188V29.0519H22.5911V28.2314Z" fill="#8C52FF"/>
<path d="M13.0707 19.6157H13.8985V20.4362H13.0707V19.6157Z" fill="#8C52FF"/>
<path d="M14.7265 19.6157H20.9353V20.4362H14.7265V19.6157Z" fill="#8C52FF"/>
<path d="M13.0707 21.257H13.8985V22.0774H13.0707V21.257Z" fill="#8C52FF"/>
<path d="M14.7265 21.257H25.4882V22.0774H14.7265V21.257Z" fill="#8C52FF"/>
<path d="M13.0707 22.8977H13.8985V23.7185H13.0707V22.8977Z" fill="#8C52FF"/>
<path d="M14.7265 22.8977H22.591V23.7185H14.7265V22.8977Z" fill="#8C52FF"/>
<path d="M13.0707 24.5389H13.8985V25.3594H13.0707V24.5389Z" fill="#8C52FF"/>
<path d="M14.7265 24.5389H26.7303V25.3594H14.7265V24.5389Z" fill="#8C52FF"/>
<path d="M13.1919 17.8544L14.02 18.6748L14.6053 18.0946L14.0701 17.5641L14.6053 17.0339L14.02 16.4537L13.1919 17.2742C13.1729 17.293 13.1558 17.3138 13.1405 17.3364C13.1253 17.3588 13.1126 17.3824 13.1021 17.4072C13.092 17.432 13.0841 17.4578 13.0787 17.4842C13.0733 17.5107 13.0707 17.5374 13.0707 17.5641C13.0707 17.5912 13.0733 17.6179 13.0787 17.6443C13.0841 17.6707 13.092 17.6965 13.1021 17.7213C13.1126 17.7462 13.1253 17.7698 13.1405 17.7921C13.1558 17.8147 13.1729 17.8352 13.1919 17.8544Z" fill="#8C52FF"/>
<path d="M17.3312 18.0946L17.9166 18.6748L18.7446 17.8544C18.7637 17.8352 18.7808 17.8147 18.796 17.7921C18.8109 17.7698 18.8239 17.7462 18.8341 17.7213C18.8446 17.6965 18.8525 17.6707 18.8579 17.6443C18.863 17.6179 18.8658 17.5912 18.8658 17.5641C18.8658 17.5374 18.863 17.5107 18.8579 17.4842C18.8525 17.4578 18.8446 17.432 18.8341 17.4072C18.8239 17.3824 18.8109 17.3588 18.796 17.3364C18.7808 17.3138 18.7637 17.293 18.7446 17.2742L17.9166 16.4537L17.3312 17.0339L17.8665 17.5641L17.3312 18.0946Z" fill="#8C52FF"/>
<path d="M15.1615 18.6654L15.9895 16.2037L16.7748 16.4632L15.947 18.9248L15.1615 18.6654Z" fill="#8C52FF"/>
<path d="M26.3163 21.257H28.7998V22.0774H26.3163V21.257Z" fill="#8C52FF"/>
<path d="M27.558 24.5389H28.3858V25.3594H27.558V24.5389Z" fill="#8C52FF"/>
<path d="M29.2139 24.5389H30.0416V25.3594H29.2139V24.5389Z" fill="#8C52FF"/>
<path d="M21.763 19.6157H22.591V20.4362H21.763V19.6157Z" fill="#8C52FF"/>
</svg>
