<svg width="84" height="24" viewBox="0 0 84 24" fill="none" xmlns="http://www.w3.org/2000/svg">
<rect width="84" height="24" rx="12" fill="#8C52FF"/>
<path d="M26.0021 8.45455V15H25.0945L21.7674 10.1996H21.7067V15H20.7191V8.45455H21.6332L24.9634 13.2614H25.0241V8.45455H26.0021ZM29.4818 15.0991C28.9981 15.0991 28.5816 14.9957 28.2322 14.7891C27.8849 14.5803 27.6164 14.2873 27.4268 13.9102C27.2393 13.5309 27.1455 13.0866 27.1455 12.5774C27.1455 12.0746 27.2393 11.6314 27.4268 11.2479C27.6164 10.8643 27.8806 10.565 28.2194 10.3498C28.5603 10.1346 28.9587 10.027 29.4147 10.027C29.6917 10.027 29.9601 10.0728 30.2201 10.1644C30.48 10.256 30.7133 10.3999 30.92 10.5959C31.1267 10.7919 31.2897 11.0465 31.409 11.3597C31.5283 11.6708 31.588 12.049 31.588 12.4943V12.8331H27.6856V12.1172H30.6515C30.6515 11.8658 30.6004 11.6431 30.4981 11.4492C30.3959 11.2532 30.252 11.0987 30.0667 10.9858C29.8834 10.8729 29.6682 10.8164 29.4211 10.8164C29.1526 10.8164 28.9182 10.8825 28.718 11.0146C28.5198 11.1445 28.3664 11.315 28.2577 11.5259C28.1512 11.7347 28.0979 11.9616 28.0979 12.2067V12.766C28.0979 13.0941 28.1555 13.3732 28.2705 13.6033C28.3877 13.8335 28.5507 14.0092 28.7595 14.1307C28.9683 14.25 29.2123 14.3097 29.4914 14.3097C29.6725 14.3097 29.8376 14.2841 29.9868 14.233C30.1359 14.1797 30.2648 14.1009 30.3735 13.9964C30.4822 13.892 30.5653 13.7631 30.6228 13.6097L31.5273 13.7727C31.4548 14.0391 31.3248 14.2724 31.1373 14.4727C30.952 14.6708 30.7187 14.8253 30.4374 14.9361C30.1583 15.0447 29.8398 15.0991 29.4818 15.0991ZM33.2883 10.0909L34.3717 12.0021L35.4648 10.0909H36.5099L34.979 12.5455L36.5226 15H35.4775L34.3717 13.1655L33.2691 15H32.2208L33.7485 12.5455L32.24 10.0909H33.2883ZM39.7826 10.0909V10.858H37.1011V10.0909H39.7826ZM37.8202 8.91477H38.7758V13.5586C38.7758 13.744 38.8035 13.8835 38.8589 13.9773C38.9143 14.0689 38.9857 14.1317 39.0731 14.1658C39.1626 14.1978 39.2595 14.2138 39.3639 14.2138C39.4406 14.2138 39.5077 14.2085 39.5653 14.1978C39.6228 14.1871 39.6675 14.1786 39.6995 14.1722L39.8721 14.9616C39.8167 14.983 39.7378 15.0043 39.6356 15.0256C39.5333 15.049 39.4055 15.0618 39.252 15.0639C39.0006 15.0682 38.7662 15.0234 38.5489 14.9297C38.3316 14.8359 38.1558 14.6911 38.0216 14.495C37.8873 14.299 37.8202 14.0529 37.8202 13.7567V8.91477Z" fill="white"/>
<path d="M82 12C82 18.0751 77.0751 23 71 23C64.9249 23 60 18.0751 60 12C60 5.92487 64.9249 1 71 1C77.0751 1 82 5.92487 82 12Z" fill="white"/>
<line x1="76.8261" y1="6.33092" x2="66.9671" y2="18.0804" stroke="black"/>
<line x1="76.7708" y1="6.98022" x2="76.7708" y2="10.8147" stroke="black"/>
<line x1="76.5539" y1="6.48911" x2="72.7777" y2="7.15496" stroke="black"/>
</svg>
