<svg width="84" height="24" viewBox="0 0 84 24" fill="none" xmlns="http://www.w3.org/2000/svg">
<rect width="84" height="24" rx="12" fill="#8C52FF"/>
<path d="M35.7191 15V8.45455H38.0522C38.5614 8.45455 38.9833 8.54723 39.3178 8.7326C39.6523 8.91797 39.9027 9.17152 40.0689 9.49325C40.2351 9.81286 40.3182 10.1729 40.3182 10.5735C40.3182 10.9762 40.234 11.3384 40.0657 11.6602C39.8995 11.9798 39.6481 12.2333 39.3114 12.4208C38.9769 12.6062 38.5561 12.6989 38.049 12.6989H36.4446V11.8615H37.9595C38.2813 11.8615 38.5423 11.8061 38.7425 11.6953C38.9428 11.5824 39.0898 11.429 39.1836 11.2351C39.2773 11.0412 39.3242 10.8207 39.3242 10.5735C39.3242 10.3263 39.2773 10.1069 39.1836 9.91513C39.0898 9.72337 38.9418 9.57315 38.7393 9.46449C38.5391 9.35582 38.2749 9.30149 37.9467 9.30149H36.7067V15H35.7191ZM41.3992 15V10.0909H42.3229V10.8707H42.374C42.4635 10.6065 42.6212 10.3988 42.847 10.2475C43.075 10.0941 43.3328 10.0174 43.6205 10.0174C43.6801 10.0174 43.7504 10.0195 43.8314 10.0238C43.9145 10.0281 43.9795 10.0334 44.0264 10.0398V10.9538C43.988 10.9432 43.9198 10.9315 43.8218 10.9187C43.7238 10.9038 43.6258 10.8963 43.5278 10.8963C43.3019 10.8963 43.1006 10.9442 42.9237 11.0401C42.749 11.1339 42.6105 11.2649 42.5083 11.4332C42.406 11.5994 42.3548 11.7891 42.3548 12.0021V15H41.3992ZM46.7933 15.0991C46.3097 15.0991 45.8931 14.9957 45.5437 14.7891C45.1964 14.5803 44.9279 14.2873 44.7383 13.9102C44.5508 13.5309 44.457 13.0866 44.457 12.5774C44.457 12.0746 44.5508 11.6314 44.7383 11.2479C44.9279 10.8643 45.1921 10.565 45.5309 10.3498C45.8718 10.1346 46.2702 10.027 46.7262 10.027C47.0032 10.027 47.2717 10.0728 47.5316 10.1644C47.7915 10.256 48.0249 10.3999 48.2315 10.5959C48.4382 10.7919 48.6012 11.0465 48.7205 11.3597C48.8398 11.6708 48.8995 12.049 48.8995 12.4943V12.8331H44.9972V12.1172H47.9631C47.9631 11.8658 47.9119 11.6431 47.8097 11.4492C47.7074 11.2532 47.5636 11.0987 47.3782 10.9858C47.195 10.8729 46.9798 10.8164 46.7326 10.8164C46.4641 10.8164 46.2298 10.8825 46.0295 11.0146C45.8313 11.1445 45.6779 11.315 45.5692 11.5259C45.4627 11.7347 45.4094 11.9616 45.4094 12.2067V12.766C45.4094 13.0941 45.467 13.3732 45.582 13.6033C45.6992 13.8335 45.8622 14.0092 46.071 14.1307C46.2798 14.25 46.5238 14.3097 46.8029 14.3097C46.984 14.3097 47.1491 14.2841 47.2983 14.233C47.4474 14.1797 47.5763 14.1009 47.685 13.9964C47.7937 13.892 47.8768 13.7631 47.9343 13.6097L48.8388 13.7727C48.7663 14.0391 48.6364 14.2724 48.4489 14.4727C48.2635 14.6708 48.0302 14.8253 47.7489 14.9361C47.4698 15.0447 47.1513 15.0991 46.7933 15.0991ZM54.0187 10.0909L52.2385 15H51.2158L49.4324 10.0909H50.4584L51.7016 13.8686H51.7528L52.9928 10.0909H54.0187ZM54.9168 15V10.0909H55.8724V15H54.9168ZM55.3994 9.33345C55.2332 9.33345 55.0905 9.27805 54.9711 9.16726C54.854 9.05433 54.7954 8.9201 54.7954 8.76456C54.7954 8.60689 54.854 8.47266 54.9711 8.36186C55.0905 8.24893 55.2332 8.19247 55.3994 8.19247C55.5656 8.19247 55.7073 8.24893 55.8245 8.36186C55.9438 8.47266 56.0035 8.60689 56.0035 8.76456C56.0035 8.9201 55.9438 9.05433 55.8245 9.16726C55.7073 9.27805 55.5656 9.33345 55.3994 9.33345ZM59.2259 15.0991C58.7656 15.0991 58.364 14.9936 58.021 14.7827C57.6779 14.5717 57.4116 14.2766 57.2219 13.8974C57.0323 13.5181 56.9375 13.0749 56.9375 12.5678C56.9375 12.0586 57.0323 11.6133 57.2219 11.2319C57.4116 10.8505 57.6779 10.5543 58.021 10.3434C58.364 10.1325 58.7656 10.027 59.2259 10.027C59.6861 10.027 60.0877 10.1325 60.4308 10.3434C60.7738 10.5543 61.0401 10.8505 61.2298 11.2319C61.4194 11.6133 61.5142 12.0586 61.5142 12.5678C61.5142 13.0749 61.4194 13.5181 61.2298 13.8974C61.0401 14.2766 60.7738 14.5717 60.4308 14.7827C60.0877 14.9936 59.6861 15.0991 59.2259 15.0991ZM59.229 14.2969C59.5273 14.2969 59.7745 14.218 59.9705 14.0604C60.1665 13.9027 60.3114 13.6928 60.4052 13.4308C60.5011 13.1687 60.549 12.88 60.549 12.5646C60.549 12.2514 60.5011 11.9638 60.4052 11.7017C60.3114 11.4375 60.1665 11.2255 59.9705 11.0657C59.7745 10.9059 59.5273 10.826 59.229 10.826C58.9286 10.826 58.6793 10.9059 58.4812 11.0657C58.2852 11.2255 58.1392 11.4375 58.0433 11.7017C57.9496 11.9638 57.9027 12.2514 57.9027 12.5646C57.9027 12.88 57.9496 13.1687 58.0433 13.4308C58.1392 13.6928 58.2852 13.9027 58.4812 14.0604C58.6793 14.218 58.9286 14.2969 59.229 14.2969ZM65.6906 12.9641V10.0909H66.6494V15H65.7098V14.1499H65.6586C65.5457 14.4119 65.3646 14.6303 65.1153 14.805C64.8682 14.9776 64.5603 15.0639 64.1917 15.0639C63.8763 15.0639 63.5972 14.9947 63.3543 14.8562C63.1135 14.7156 62.9239 14.5078 62.7854 14.233C62.6491 13.9581 62.5809 13.6183 62.5809 13.2134V10.0909H63.5365V13.0984C63.5365 13.4329 63.6292 13.6992 63.8145 13.8974C63.9999 14.0955 64.2407 14.1946 64.5368 14.1946C64.7158 14.1946 64.8937 14.1499 65.0706 14.0604C65.2496 13.9709 65.3976 13.8356 65.5148 13.6545C65.6341 13.4734 65.6927 13.2433 65.6906 12.9641ZM71.612 11.2894L70.7459 11.4428C70.7097 11.332 70.6522 11.2266 70.5733 11.1264C70.4966 11.0263 70.3922 10.9442 70.2601 10.8803C70.128 10.8164 69.9629 10.7844 69.7647 10.7844C69.4941 10.7844 69.2683 10.8452 69.0872 10.9666C68.9061 11.0859 68.8155 11.2404 68.8155 11.43C68.8155 11.5941 68.8762 11.7262 68.9977 11.8263C69.1191 11.9265 69.3152 12.0085 69.5858 12.0724L70.3656 12.2514C70.8173 12.3558 71.1539 12.5167 71.3755 12.734C71.5971 12.9513 71.7079 13.2337 71.7079 13.581C71.7079 13.875 71.6227 14.1371 71.4522 14.3672C71.2839 14.5952 71.0485 14.7741 70.7459 14.9041C70.4455 15.0341 70.0971 15.0991 69.7008 15.0991C69.1511 15.0991 68.7026 14.9819 68.3553 14.7475C68.008 14.511 67.7949 14.1754 67.7161 13.7408L68.6397 13.6001C68.6973 13.8409 68.8155 14.0231 68.9945 14.1467C69.1735 14.2681 69.4068 14.3288 69.6944 14.3288C70.0076 14.3288 70.258 14.2638 70.4455 14.1339C70.633 14.0018 70.7267 13.8409 70.7267 13.6513C70.7267 13.4979 70.6692 13.369 70.5542 13.2646C70.4412 13.1602 70.2676 13.0813 70.0332 13.0281L69.2022 12.8459C68.7441 12.7415 68.4054 12.5753 68.1859 12.3473C67.9686 12.1193 67.8599 11.8306 67.8599 11.4812C67.8599 11.1914 67.9409 10.9379 68.1028 10.7205C68.2647 10.5032 68.4885 10.3338 68.774 10.2124C69.0595 10.0888 69.3865 10.027 69.7551 10.027C70.2857 10.027 70.7033 10.142 71.008 10.3722C71.3127 10.6001 71.514 10.9059 71.612 11.2894Z" fill="white"/>
<path d="M23 12C23 18.0751 18.0751 23 12 23C5.92487 23 1 18.0751 1 12C1 5.92487 5.92487 1 12 1C18.0751 1 23 5.92487 23 12Z" fill="white"/>
<line x1="5.77352" y1="17.797" x2="16.619" y2="6.95145" stroke="black"/>
<line x1="5.88508" y1="17.1549" x2="6.21928" y2="13.335" stroke="black"/>
<line x1="6.05847" y1="17.6632" x2="9.87835" y2="17.329" stroke="black"/>
</svg>
