<svg width="100" height="30" viewBox="0 0 100 30" fill="none" xmlns="http://www.w3.org/2000/svg">
<rect width="100" height="30" rx="5" fill="white"/>
<path d="M34.8608 19V10.2727H38.1335C38.804 10.2727 39.3665 10.3892 39.821 10.6222C40.2784 10.8551 40.6236 11.1818 40.8565 11.6023C41.0923 12.0199 41.2102 12.5071 41.2102 13.0639C41.2102 13.6236 41.0909 14.1094 40.8523 14.5213C40.6165 14.9304 40.2685 15.2472 39.8082 15.4716C39.348 15.6932 38.7827 15.804 38.1122 15.804H35.7812V14.4915H37.8991C38.2912 14.4915 38.6122 14.4375 38.8622 14.3295C39.1122 14.2187 39.2969 14.0582 39.4162 13.848C39.5384 13.6349 39.5994 13.3736 39.5994 13.0639C39.5994 12.7543 39.5384 12.4901 39.4162 12.2713C39.294 12.0497 39.108 11.8821 38.858 11.7685C38.608 11.652 38.2855 11.5938 37.8906 11.5938H36.4418V19H34.8608ZM39.3693 15.0455L41.5298 19H39.7656L37.6435 15.0455H39.3693ZM45.3587 19.1278C44.7195 19.1278 44.1655 18.9872 43.6967 18.706C43.228 18.4247 42.8643 18.0312 42.6058 17.5256C42.3501 17.0199 42.2223 16.429 42.2223 15.7528C42.2223 15.0767 42.3501 14.4844 42.6058 13.9759C42.8643 13.4673 43.228 13.0724 43.6967 12.7912C44.1655 12.5099 44.7195 12.3693 45.3587 12.3693C45.9979 12.3693 46.5518 12.5099 47.0206 12.7912C47.4893 13.0724 47.8516 13.4673 48.1072 13.9759C48.3658 14.4844 48.495 15.0767 48.495 15.7528C48.495 16.429 48.3658 17.0199 48.1072 17.5256C47.8516 18.0312 47.4893 18.4247 47.0206 18.706C46.5518 18.9872 45.9979 19.1278 45.3587 19.1278ZM45.3672 17.892C45.7138 17.892 46.0036 17.7969 46.2365 17.6065C46.4695 17.4134 46.6428 17.1548 46.7564 16.831C46.8729 16.5071 46.9311 16.1463 46.9311 15.7486C46.9311 15.348 46.8729 14.9858 46.7564 14.6619C46.6428 14.3352 46.4695 14.0753 46.2365 13.8821C46.0036 13.6889 45.7138 13.5923 45.3672 13.5923C45.0121 13.5923 44.7166 13.6889 44.4808 13.8821C44.2479 14.0753 44.0732 14.3352 43.9567 14.6619C43.843 14.9858 43.7862 15.348 43.7862 15.7486C43.7862 16.1463 43.843 16.5071 43.9567 16.831C44.0732 17.1548 44.2479 17.4134 44.4808 17.6065C44.7166 17.7969 45.0121 17.892 45.3672 17.892ZM51.6879 19.1321C51.2731 19.1321 50.8995 19.0582 50.5671 18.9105C50.2376 18.7599 49.9762 18.5384 49.783 18.2457C49.5927 17.9531 49.4975 17.5923 49.4975 17.1634C49.4975 16.794 49.5657 16.4886 49.7021 16.2472C49.8384 16.0057 50.0245 15.8125 50.2603 15.6676C50.4961 15.5227 50.7617 15.4134 51.0572 15.3395C51.3555 15.2628 51.6637 15.2074 51.9819 15.1733C52.3654 15.1335 52.6765 15.098 52.9151 15.0668C53.1538 15.0327 53.3271 14.9815 53.435 14.9134C53.5458 14.8423 53.6012 14.733 53.6012 14.5852V14.5597C53.6012 14.2386 53.506 13.9901 53.3157 13.8139C53.1254 13.6378 52.8512 13.5497 52.4933 13.5497C52.1154 13.5497 51.8157 13.6321 51.5941 13.7969C51.3754 13.9616 51.2276 14.1562 51.1509 14.3807L49.7106 14.1761C49.8242 13.7784 50.0117 13.446 50.2731 13.179C50.5344 12.9091 50.854 12.7074 51.2319 12.5739C51.6097 12.4375 52.0273 12.3693 52.4847 12.3693C52.8001 12.3693 53.114 12.4062 53.4265 12.4801C53.739 12.554 54.0245 12.6761 54.283 12.8466C54.5415 13.0142 54.7489 13.2429 54.9052 13.5327C55.0643 13.8224 55.1438 14.1847 55.1438 14.6193V19H53.6609V18.1009H53.6097C53.516 18.2827 53.3839 18.4531 53.2134 18.6122C53.0458 18.7685 52.8342 18.8949 52.5785 18.9915C52.3256 19.0852 52.0288 19.1321 51.6879 19.1321ZM52.0884 17.9986C52.3981 17.9986 52.6665 17.9375 52.8938 17.8153C53.1211 17.6903 53.2958 17.5256 53.418 17.321C53.543 17.1165 53.6055 16.8935 53.6055 16.652V15.8807C53.5572 15.9205 53.4748 15.9574 53.3583 15.9915C53.2447 16.0256 53.1168 16.0554 52.9748 16.081C52.8327 16.1065 52.6921 16.1293 52.5529 16.1491C52.4137 16.169 52.293 16.1861 52.1907 16.2003C51.9606 16.2315 51.7546 16.2827 51.5728 16.3537C51.391 16.4247 51.2475 16.5241 51.1424 16.652C51.0373 16.777 50.9847 16.9389 50.9847 17.1378C50.9847 17.4219 51.0884 17.6364 51.2958 17.7812C51.5032 17.9261 51.7674 17.9986 52.0884 17.9986ZM59.1239 19.1151C58.6097 19.1151 58.1495 18.983 57.7433 18.7188C57.337 18.4545 57.016 18.071 56.7802 17.5682C56.5444 17.0653 56.4265 16.4545 56.4265 15.7358C56.4265 15.0085 56.5458 14.3949 56.7844 13.8949C57.0259 13.392 57.3512 13.0128 57.7603 12.7571C58.1694 12.4986 58.6254 12.3693 59.1282 12.3693C59.5117 12.3693 59.8271 12.4347 60.0742 12.5653C60.3214 12.6932 60.5174 12.848 60.6623 13.0298C60.8072 13.2088 60.9194 13.3778 60.9989 13.5369H61.0629V10.2727H62.6097V19H61.0927V17.9688H60.9989C60.9194 18.1278 60.8043 18.2969 60.6538 18.4759C60.5032 18.652 60.3043 18.8026 60.0572 18.9276C59.81 19.0526 59.4989 19.1151 59.1239 19.1151ZM59.5543 17.8494C59.881 17.8494 60.1594 17.7614 60.3896 17.5852C60.6197 17.4062 60.7944 17.1577 60.9137 16.8395C61.033 16.5213 61.0927 16.1506 61.0927 15.7273C61.0927 15.304 61.033 14.9361 60.9137 14.6236C60.7972 14.3111 60.6239 14.0682 60.3938 13.8949C60.1665 13.7216 59.8867 13.6349 59.5543 13.6349C59.2106 13.6349 58.9237 13.7244 58.6935 13.9034C58.4634 14.0824 58.2901 14.3295 58.1737 14.6449C58.0572 14.9602 57.9989 15.321 57.9989 15.7273C57.9989 16.1364 58.0572 16.5014 58.1737 16.8224C58.293 17.1406 58.4677 17.392 58.6978 17.5767C58.9308 17.7585 59.2163 17.8494 59.5543 17.8494ZM64.2536 19V12.4545H65.728V13.5668H65.8047C65.9411 13.1918 66.1669 12.8991 66.4822 12.6889C66.7976 12.4759 67.174 12.3693 67.6115 12.3693C68.0547 12.3693 68.4283 12.4773 68.7322 12.6932C69.0391 12.9062 69.255 13.1974 69.38 13.5668H69.4482C69.593 13.2031 69.8374 12.9134 70.1811 12.6974C70.5277 12.4787 70.9382 12.3693 71.4126 12.3693C72.0149 12.3693 72.5064 12.5597 72.8871 12.9403C73.2678 13.321 73.4581 13.8764 73.4581 14.6065V19H71.9112V14.8452C71.9112 14.4389 71.8033 14.142 71.5874 13.9545C71.3714 13.7642 71.1072 13.669 70.7947 13.669C70.4226 13.669 70.1314 13.7855 69.9212 14.0185C69.7138 14.2486 69.6101 14.5483 69.6101 14.9176V19H68.0973V14.7812C68.0973 14.4432 67.995 14.1733 67.7905 13.9716C67.5888 13.7699 67.3246 13.669 66.9979 13.669C66.7763 13.669 66.5746 13.7259 66.3928 13.8395C66.2109 13.9503 66.0661 14.108 65.9581 14.3125C65.8501 14.5142 65.7962 14.75 65.7962 15.0199V19H64.2536ZM76.9066 19.1321C76.4918 19.1321 76.1183 19.0582 75.7859 18.9105C75.4563 18.7599 75.195 18.5384 75.0018 18.2457C74.8114 17.9531 74.7163 17.5923 74.7163 17.1634C74.7163 16.794 74.7844 16.4886 74.9208 16.2472C75.0572 16.0057 75.2433 15.8125 75.479 15.6676C75.7148 15.5227 75.9805 15.4134 76.2759 15.3395C76.5742 15.2628 76.8825 15.2074 77.2006 15.1733C77.5842 15.1335 77.8952 15.098 78.1339 15.0668C78.3725 15.0327 78.5458 14.9815 78.6538 14.9134C78.7646 14.8423 78.82 14.733 78.82 14.5852V14.5597C78.82 14.2386 78.7248 13.9901 78.5344 13.8139C78.3441 13.6378 78.07 13.5497 77.712 13.5497C77.3342 13.5497 77.0344 13.6321 76.8129 13.7969C76.5941 13.9616 76.4464 14.1562 76.3697 14.3807L74.9293 14.1761C75.043 13.7784 75.2305 13.446 75.4918 13.179C75.7532 12.9091 76.0728 12.7074 76.4506 12.5739C76.8285 12.4375 77.2461 12.3693 77.7035 12.3693C78.0188 12.3693 78.3327 12.4062 78.6452 12.4801C78.9577 12.554 79.2433 12.6761 79.5018 12.8466C79.7603 13.0142 79.9677 13.2429 80.1239 13.5327C80.283 13.8224 80.3626 14.1847 80.3626 14.6193V19H78.8796V18.1009H78.8285C78.7347 18.2827 78.6026 18.4531 78.4322 18.6122C78.2646 18.7685 78.0529 18.8949 77.7972 18.9915C77.5444 19.0852 77.2475 19.1321 76.9066 19.1321ZM77.3072 17.9986C77.6168 17.9986 77.8853 17.9375 78.1126 17.8153C78.3398 17.6903 78.5146 17.5256 78.6367 17.321C78.7617 17.1165 78.8242 16.8935 78.8242 16.652V15.8807C78.7759 15.9205 78.6935 15.9574 78.5771 15.9915C78.4634 16.0256 78.3356 16.0554 78.1935 16.081C78.0515 16.1065 77.9109 16.1293 77.7717 16.1491C77.6325 16.169 77.5117 16.1861 77.4094 16.2003C77.1793 16.2315 76.9734 16.2827 76.7915 16.3537C76.6097 16.4247 76.4663 16.5241 76.3612 16.652C76.256 16.777 76.2035 16.9389 76.2035 17.1378C76.2035 17.4219 76.3072 17.6364 76.5146 17.7812C76.7219 17.9261 76.9862 17.9986 77.3072 17.9986ZM81.9137 21.4545V12.4545H83.4308V13.5369H83.5202C83.5998 13.3778 83.712 13.2088 83.8569 13.0298C84.0018 12.848 84.1978 12.6932 84.445 12.5653C84.6921 12.4347 85.0075 12.3693 85.391 12.3693C85.8967 12.3693 86.3526 12.4986 86.7589 12.7571C87.168 13.0128 87.4918 13.392 87.7305 13.8949C87.9719 14.3949 88.0927 15.0085 88.0927 15.7358C88.0927 16.4545 87.9748 17.0653 87.739 17.5682C87.5032 18.071 87.1822 18.4545 86.7759 18.7188C86.3697 18.983 85.9094 19.1151 85.3952 19.1151C85.0202 19.1151 84.7092 19.0526 84.462 18.9276C84.2148 18.8026 84.016 18.652 83.8654 18.4759C83.7177 18.2969 83.6026 18.1278 83.5202 17.9688H83.4563V21.4545H81.9137ZM83.4265 15.7273C83.4265 16.1506 83.4862 16.5213 83.6055 16.8395C83.7276 17.1577 83.9023 17.4062 84.1296 17.5852C84.3597 17.7614 84.6381 17.8494 84.9648 17.8494C85.3058 17.8494 85.5913 17.7585 85.8214 17.5767C86.0515 17.392 86.2248 17.1406 86.3413 16.8224C86.4606 16.5014 86.5202 16.1364 86.5202 15.7273C86.5202 15.321 86.462 14.9602 86.3455 14.6449C86.229 14.3295 86.0558 14.0824 85.8256 13.9034C85.5955 13.7244 85.3086 13.6349 84.9648 13.6349C84.6353 13.6349 84.3555 13.7216 84.1254 13.8949C83.8952 14.0682 83.7205 14.3111 83.6012 14.6236C83.4847 14.9361 83.4265 15.304 83.4265 15.7273Z" fill="black"/>
<mask id="mask0_405_1547" style="mask-type:luminance" maskUnits="userSpaceOnUse" x="7" y="7" width="18" height="17">
<path d="M7 7H25V24H7V7Z" fill="white"/>
</mask>
<g mask="url(#mask0_405_1547)">
<mask id="mask1_405_1547" style="mask-type:luminance" maskUnits="userSpaceOnUse" x="7" y="7" width="18" height="17">
<path d="M7.25177 7H24.7325C24.8715 7 24.9843 7.10915 24.9843 7.24368V23.7563C24.9843 23.8911 24.8715 24 24.7325 24H7.25177C7.11277 24 7 23.8911 7 23.7563V7.24368C7 7.10915 7.11277 7 7.25177 7Z" fill="white"/>
</mask>
<g mask="url(#mask1_405_1547)">
<path d="M7 7H24.9764V24H7V7Z" fill="black"/>
</g>
</g>
<mask id="mask2_405_1547" style="mask-type:luminance" maskUnits="userSpaceOnUse" x="10" y="10" width="12" height="12">
<path d="M10.3105 10.0012H21.6823V21.0074H10.3105V10.0012Z" fill="white"/>
</mask>
<g mask="url(#mask2_405_1547)">
<path fill-rule="evenodd" clip-rule="evenodd" d="M15.9918 10.0012C19.1165 10.0012 21.6731 12.4757 21.6731 15.4999C21.6731 18.5243 19.1165 20.9985 15.9918 20.9985C12.8672 20.9985 10.3105 18.5243 10.3105 15.4999C10.3105 12.4757 12.8672 10.0012 15.9918 10.0012ZM15.9918 10.6104C13.2131 10.6104 10.9398 12.8107 10.9398 15.4999C10.9398 18.1892 13.2131 20.3895 15.9918 20.3895C18.7705 20.3895 21.0439 18.1892 21.0439 15.4999C21.0439 12.8107 18.7705 10.6104 15.9918 10.6104Z" fill="white"/>
</g>
<path d="M15.992 13.6929H14.3959C14.338 13.6929 14.291 13.6474 14.291 13.5914V13.0397C14.291 12.9836 14.338 12.9382 14.3959 12.9382C14.399 12.9382 14.4018 12.9384 14.4049 12.9386C14.4394 12.9382 14.5773 12.9339 14.6879 12.8887C14.8276 12.8318 14.8136 12.6543 14.8013 12.4965C14.7974 12.4462 14.7935 12.3975 14.7935 12.3529C14.7935 12.2968 14.8405 12.2513 14.8984 12.2513H17.0856C17.1436 12.2513 17.1906 12.2968 17.1906 12.3529C17.1906 12.3975 17.1866 12.4462 17.1829 12.4965C17.1704 12.6543 17.1565 12.8318 17.2961 12.8887C17.4211 12.9397 17.5811 12.9386 17.5872 12.9386V12.9382C17.6451 12.9377 17.6926 12.9826 17.693 13.0386V13.5914C17.693 13.6474 17.6462 13.6929 17.5881 13.6929H15.992Z" fill="white"/>
<path fill-rule="evenodd" clip-rule="evenodd" d="M14.5348 15.4896C14.4968 15.4475 14.5009 15.3834 14.5444 15.3464C14.5877 15.3094 14.6539 15.3134 14.6922 15.3555L14.8204 15.4966L15.2051 15.1412C15.2468 15.1027 15.3131 15.1042 15.3528 15.1448C15.3928 15.1852 15.3911 15.2493 15.3493 15.2878L14.8917 15.7108C14.8889 15.7136 14.8862 15.7163 14.8832 15.7189C14.8397 15.7559 14.7735 15.7519 14.7352 15.7098V15.7096L14.5348 15.4896ZM15.2051 16.2041C15.2468 16.1656 15.3131 16.1671 15.3528 16.2075C15.3928 16.2481 15.3911 16.3122 15.3493 16.3507L14.8917 16.7738C14.8889 16.7765 14.8862 16.7793 14.8832 16.7818C14.8397 16.8188 14.7735 16.8148 14.7352 16.7727L14.5348 16.5525C14.4968 16.5104 14.5009 16.4463 14.5444 16.4093C14.5877 16.3723 14.6539 16.3763 14.6922 16.4184L14.8204 16.5595L15.2051 16.2041ZM16.3223 17.5545C16.3223 17.4982 16.3693 17.453 16.427 17.453H17.3703C17.4282 17.453 17.475 17.4982 17.475 17.5545C17.475 17.6106 17.4282 17.656 17.3703 17.656H16.427C16.3693 17.656 16.3223 17.6106 16.3223 17.5545ZM14.5444 17.4722C14.5877 17.4352 14.6539 17.4394 14.6922 17.4813L14.8204 17.6224L15.2051 17.267C15.2468 17.2285 15.3131 17.23 15.3528 17.2706C15.3928 17.311 15.3911 17.3751 15.3493 17.4136L14.8917 17.8367C14.8889 17.8394 14.8862 17.8422 14.8832 17.8447C14.8397 17.8817 14.7735 17.8777 14.7352 17.8356L14.5348 17.6154C14.4968 17.5733 14.5009 17.5092 14.5444 17.4722ZM16.3223 16.4916C16.3223 16.4355 16.3693 16.39 16.427 16.39H17.3703C17.4282 16.39 17.475 16.4355 17.475 16.4916C17.475 16.5476 17.4282 16.5931 17.3703 16.5931H16.427C16.3693 16.5931 16.3223 16.5476 16.3223 16.4916ZM16.3223 15.4287C16.3223 15.3726 16.3693 15.3271 16.427 15.3271H17.3703C17.4282 15.3271 17.475 15.3726 17.475 15.4287C17.475 15.4847 17.4282 15.5302 17.3703 15.5302H16.427C16.3693 15.5302 16.3223 15.4847 16.3223 15.4287ZM14.186 13.1719H14.042C13.8863 13.1719 13.7449 13.2334 13.6427 13.3324C13.5402 13.4316 13.4766 13.5683 13.4766 13.7189V18.2011C13.4766 18.3517 13.5402 18.4886 13.6427 18.5876C13.7449 18.6868 13.8863 18.7484 14.042 18.7484H17.9418C18.0974 18.7484 18.2388 18.6868 18.3411 18.5876C18.4436 18.4886 18.5072 18.3517 18.5072 18.2011V13.7189C18.5072 13.5683 18.4436 13.4316 18.3411 13.3324C18.2388 13.2334 18.0974 13.1719 17.9418 13.1719H17.7978V13.5913C17.7978 13.7034 17.7038 13.7944 17.588 13.7944H14.3958C14.28 13.7944 14.186 13.7034 14.186 13.5913V13.1719ZM16.3223 14.3657C16.3223 14.3097 16.3693 14.2642 16.427 14.2642H17.3703C17.4282 14.2642 17.475 14.3097 17.475 14.3657C17.475 14.4218 17.4282 14.4673 17.3703 14.4673H16.427C16.3693 14.4673 16.3223 14.4218 16.3223 14.3657ZM14.5348 14.4267C14.4968 14.3846 14.5009 14.3205 14.5444 14.2834C14.5877 14.2464 14.6539 14.2505 14.6922 14.2925L14.8204 14.4336L15.2051 14.0783C15.2468 14.0396 15.3131 14.0413 15.3528 14.0819C15.3928 14.1223 15.3911 14.1864 15.3493 14.2249L14.8917 14.6479C14.8889 14.6507 14.8862 14.6534 14.8832 14.6559C14.8397 14.693 14.7735 14.6889 14.7352 14.6469L14.5348 14.4267Z" fill="white"/>
</svg>
