<svg width="45" height="45" viewBox="0 0 45 45" fill="none" xmlns="http://www.w3.org/2000/svg">
<circle cx="22.5" cy="22.5" r="22.5" fill="#E8E2F4"/>
<path d="M21.4491 27.2174C21.5821 27.306 21.6613 27.4509 21.6613 27.6057V30.3601C21.1445 29.8829 20.7486 29.2861 20.5094 28.6088C20.4699 28.4976 20.3502 28.4395 20.2415 28.4802C20.1325 28.5203 20.076 28.6432 20.1155 28.7544C20.4197 29.6162 20.9545 30.3604 21.6613 30.918V31.0632C21.6613 31.5343 22.0054 31.9215 22.4439 31.9438C22.4592 31.9445 22.4744 31.9448 22.4893 31.9448C22.7021 31.9448 22.9029 31.8634 23.0583 31.7125C23.222 31.5538 23.3158 31.3303 23.3158 31.0993V29.4579C23.9178 28.9138 24.2878 28.2224 24.411 27.3977C24.4287 27.2808 24.3501 27.1714 24.2359 27.1533C24.1227 27.136 24.0147 27.2157 23.997 27.3329C23.9081 27.9284 23.6824 28.4292 23.3158 28.8546V27.6057C23.3158 27.4509 23.392 27.3063 23.5159 27.2274C24.078 26.8632 24.4134 26.2409 24.4134 25.5629C24.4134 25.0018 24.1791 24.4655 23.7703 24.0922C23.3622 23.7192 22.8136 23.5406 22.266 23.6051C21.3934 23.7068 20.6835 24.4262 20.5776 25.3163C20.4879 26.0783 20.8223 26.8069 21.4491 27.2174Z" fill="#8C52FF"/>
<mask id="mask0_453_1442" style="mask-type:luminance" maskUnits="userSpaceOnUse" x="14" y="9" width="17" height="27">
<path d="M14 9H31V36H14V9Z" fill="white"/>
</mask>
<g mask="url(#mask0_453_1442)">
<path d="M30.9678 32.4497V21.1688C30.9678 20.0449 30.1281 19.1186 29.0575 19.0106V15.722C29.0575 12.0155 26.1108 9 22.4889 9C20.7337 9 19.084 9.69887 17.8434 10.9684C16.6032 12.2376 15.92 13.9258 15.92 15.722V19.0141C15.2128 19.085 14.5887 19.5065 14.2551 20.1579C14.2495 20.1664 14.2443 20.1749 14.2398 20.1841C14.0896 20.4877 14.01 20.8281 14.01 21.1688V33.8393C14.01 35.0351 14.9608 36.0085 16.1297 36.0085H28.8481C30.017 36.0085 30.9678 35.0351 30.9678 33.8393V32.45V32.4497ZM30.549 21.1688V22.1816C29.4406 21.6605 28.81 20.7558 28.6283 19.4282H28.8481C29.7857 19.4282 30.549 20.2089 30.549 21.1688ZM17.9625 18.9996V15.5612C17.9625 14.3246 18.4329 13.1621 19.2875 12.2875C20.1425 11.4129 21.2792 10.9312 22.4889 10.9312C24.9849 10.9312 27.0153 13.0083 27.0153 15.5612V18.9996H17.9625ZM16.1297 19.4282H16.2474C16.6392 19.7165 16.92 20.0917 17.0982 20.5777C17.1297 20.6634 17.2093 20.7165 17.2941 20.7165C17.3187 20.7165 17.3436 20.7123 17.3679 20.703C17.4762 20.6612 17.5312 20.5376 17.4904 20.4268C17.3492 20.0421 17.1456 19.7088 16.8853 19.4282H19.2031C17.8369 20.7236 17.1796 22.3735 17.2522 24.343C17.2567 24.4585 17.3495 24.5492 17.4617 24.5492C17.4644 24.5492 17.4668 24.5492 17.4696 24.5488C17.5852 24.5446 17.6752 24.445 17.6711 24.3267C17.597 22.3268 18.328 20.6797 19.8413 19.4282H26.5847C26.9606 19.8508 27.2957 20.3471 27.6331 20.9836C27.6712 21.0555 27.7432 21.0959 27.8176 21.0959C27.8512 21.0959 27.8855 21.0874 27.9173 21.07C28.0187 21.0133 28.0568 20.8833 28.0014 20.7792C27.7207 20.2496 27.4403 19.8111 27.1378 19.4282H28.2063C28.4057 20.9942 29.1932 22.076 30.5486 22.6477V24.433C29.5798 24.0734 29.0959 23.0505 28.5438 21.8783L28.5421 21.8755C28.4919 21.7689 28.3673 21.7253 28.2631 21.777C28.1589 21.8284 28.116 21.958 28.1662 22.0647C28.7591 23.3236 29.3226 24.5134 30.5486 24.8835V29.0786C30.044 31.6342 28.4483 33.9402 26.051 35.5802H24.8963C25.3943 34.4 26.0156 33.6756 26.6183 32.9739C26.7083 32.8691 26.7983 32.7646 26.8869 32.659C26.9623 32.5694 26.9526 32.4341 26.8651 32.3569C26.7775 32.2796 26.6453 32.2896 26.5695 32.3792C26.4819 32.4833 26.3926 32.5871 26.3033 32.6912C25.6505 33.451 24.9766 34.2381 24.4421 35.5802H23.8326C23.6789 35.412 23.2386 34.863 23.2386 34.084C23.2386 33.4886 23.5404 32.8227 23.9222 31.9793C24.5332 30.63 25.2936 28.9507 25.2936 26.5367C25.2936 24.0051 24.0351 21.9456 22.4889 21.9456C21.8212 21.9456 21.1757 22.3303 20.6717 23.0292C20.6032 23.1245 20.6229 23.2587 20.716 23.3289C20.8091 23.399 20.9399 23.3788 21.0088 23.2839C21.3082 22.8687 21.8077 22.3739 22.4885 22.3739C23.8042 22.3739 24.8744 24.2413 24.8744 26.5367C24.8744 28.8558 24.1355 30.4876 23.5418 31.7986C23.1542 32.6548 22.8195 33.3937 22.8195 34.084C22.8195 34.7454 23.0752 35.2593 23.295 35.5802H20.7337C18.9023 33.8446 17.9127 31.6629 17.7946 29.0924C17.7891 28.9737 17.687 28.8784 17.5755 28.8883C17.4599 28.8937 17.3706 28.9943 17.3762 29.1126C17.4925 31.6459 18.4187 33.8191 20.1293 35.5802H19.0864C17.3294 34.1099 16.5614 32.0264 16.8071 29.3842C16.8182 29.2663 16.7337 29.1618 16.6185 29.1505C16.5036 29.1363 16.4011 29.2259 16.39 29.3435C16.1481 31.9456 16.8428 34.0398 18.4516 35.5802H17.5191C16.7469 35.1276 16.5586 34.2268 16.3609 33.2736C16.2637 32.8049 16.1633 32.3207 15.9885 31.8811C15.5493 30.7746 14.7722 30.3931 14.4288 30.2737V29.951C14.5209 29.9567 14.6116 29.9599 14.6995 29.9599C15.1571 29.9599 15.5596 29.8848 15.9203 29.7332C16.0273 29.6882 16.0782 29.5628 16.0342 29.453C15.9906 29.3439 15.8681 29.2918 15.7611 29.3364C15.3855 29.4948 14.9446 29.5507 14.4288 29.5171V28.7941C14.6774 28.9149 14.9543 28.9773 15.2575 28.9773C15.3045 28.9773 15.3523 28.9758 15.4004 28.9726C15.516 28.9659 15.604 28.8643 15.597 28.7459C15.5901 28.6276 15.4883 28.5366 15.3759 28.5448C15.0038 28.5685 14.694 28.4824 14.4288 28.2961V26.9412C14.982 27.1973 15.3949 27.6681 15.6849 28.3747C15.7189 28.4569 15.7964 28.5061 15.8781 28.5061C15.9051 28.5061 15.9328 28.5008 15.9594 28.4895C16.066 28.4434 16.1162 28.3177 16.0712 28.2086C15.714 27.3386 15.1606 26.7609 14.4288 26.4818V25.2806C15.5489 25.4882 16.4845 26.338 17.2121 27.8097C17.2488 27.8845 17.3225 27.9273 17.399 27.9273C17.4308 27.9273 17.4634 27.9199 17.4935 27.9043C17.597 27.8508 17.6382 27.7219 17.5859 27.6163C16.7791 25.9845 15.7175 25.0553 14.4288 24.8471V24.2885L15.4883 24.444C15.4984 24.4457 15.5084 24.4461 15.5185 24.4461C15.6209 24.4461 15.7106 24.3692 15.7254 24.2622C15.7417 24.1453 15.6625 24.0366 15.5479 24.0196L14.4288 23.8552V22.6909C14.7594 22.7777 15.0605 22.9566 15.326 23.2283C15.3669 23.2701 15.4205 23.291 15.4738 23.291C15.5275 23.291 15.5811 23.2701 15.622 23.2283C15.704 23.1443 15.704 23.009 15.622 22.9251C15.2744 22.5694 14.8736 22.3427 14.4288 22.2496V21.1688C14.4288 20.9432 14.4745 20.7186 14.5576 20.51C15.0141 20.5706 15.381 20.8192 15.6742 21.2723C15.7144 21.3346 15.7812 21.3683 15.849 21.3683C15.8885 21.3683 15.9286 21.3566 15.9643 21.3325C16.0609 21.267 16.0872 21.1341 16.0231 21.0353C15.6998 20.5355 15.2827 20.2302 14.7784 20.1168C15.0955 19.6875 15.5891 19.4282 16.1297 19.4282ZM14.4288 33.8393V30.7335C14.741 30.8748 15.2758 31.2248 15.6005 32.0423C15.7614 32.4468 15.858 32.9123 15.9511 33.3621C16.119 34.1715 16.2928 35.0011 16.8414 35.5799H16.1297C15.1917 35.5795 14.4288 34.7988 14.4288 33.8393ZM28.8481 35.5795H26.7782C28.5497 34.2406 29.8491 32.5297 30.549 30.6258V32.4008C30.1983 33.2173 29.757 33.8619 29.199 34.3688C29.1125 34.4475 29.1049 34.5831 29.1817 34.6713C29.2229 34.7191 29.2804 34.7436 29.3385 34.7436C29.3877 34.7436 29.4375 34.7259 29.4773 34.6894C29.8923 34.3125 30.2461 33.8655 30.549 33.3405V33.8389C30.549 34.7988 29.7857 35.5795 28.8481 35.5795Z" fill="#8C52FF"/>
</g>
<path d="M22.6021 20.8281C22.2262 20.8281 21.8531 20.9121 21.4934 21.0782C21.3882 21.1271 21.3411 21.2543 21.3889 21.3619C21.4363 21.4696 21.5606 21.5174 21.6658 21.4693C21.9711 21.3279 22.2857 21.2567 22.6018 21.2567C24.43 21.2567 25.8087 23.6583 25.8087 26.8428C25.8087 28.6964 25.2691 29.99 24.7935 31.1309C24.3826 32.116 23.9946 33.0466 23.9946 34.1801C23.9946 34.2987 24.0884 34.3944 24.204 34.3944C24.3196 34.3944 24.4134 34.2987 24.4134 34.1801C24.4134 33.1341 24.7682 32.2836 25.1787 31.2992C25.6702 30.1204 26.2275 28.7842 26.2275 26.8428C26.2279 23.4136 24.6689 20.8281 22.6021 20.8281Z" fill="#8C52FF"/>
<path d="M20.6835 21.6142C19.8061 22.6294 19.5409 23.629 19.4132 24.8177C19.3128 25.7702 19.4887 26.9307 19.8954 28.0008C19.9276 28.0858 20.0068 28.1378 20.0906 28.1378C20.1158 28.1378 20.1418 28.1332 20.1667 28.123C20.2744 28.0801 20.3277 27.9561 20.2858 27.8456C19.9026 26.8375 19.7365 25.7508 19.8296 24.8645C19.9487 23.7572 20.193 22.8292 20.9974 21.8986C21.0743 21.8097 21.066 21.6744 20.9795 21.5958C20.8922 21.5171 20.76 21.5256 20.6835 21.6142Z" fill="#8C52FF"/>
<path d="M19.5395 30.6527C19.516 30.4887 19.4924 30.3258 19.4679 30.1643C19.4499 30.0474 19.3436 29.9687 19.2283 29.9854C19.1141 30.0038 19.0362 30.1136 19.0539 30.2305C19.0785 30.391 19.1017 30.5528 19.1248 30.7151C19.2979 31.9215 19.4769 33.1691 20.2287 34.1577C20.2699 34.2119 20.3318 34.2406 20.3941 34.2406C20.4391 34.2406 20.4845 34.2257 20.5229 34.1953C20.6143 34.1227 20.6305 33.9877 20.5596 33.8945C19.8753 32.9945 19.7046 31.8039 19.5395 30.6527Z" fill="#8C52FF"/>
<path d="M16.2672 24.5637C16.1626 24.6151 16.119 24.743 16.1689 24.8499C16.4465 25.4401 16.8102 25.8786 17.1951 26.3426C17.5655 26.7896 17.949 27.2515 18.2775 27.8856C18.4509 28.2228 18.5215 28.5505 18.5215 29.0159C18.5215 29.1346 18.6153 29.2306 18.7309 29.2306C18.8469 29.2306 18.9407 29.1346 18.9407 29.0159C18.9407 28.4825 18.8531 28.0843 18.6479 27.6851C18.2979 27.0096 17.8999 26.5293 17.5146 26.0649C17.1477 25.6225 16.8009 25.2045 16.5465 24.664C16.4966 24.5573 16.3713 24.5124 16.2672 24.5637Z" fill="#8C52FF"/>
<path d="M16.0284 24.0249C16.0474 24.1279 16.1353 24.1995 16.2343 24.1995C16.2468 24.1995 16.2603 24.1984 16.2731 24.196C16.3866 24.174 16.4617 24.0617 16.4403 23.9455C16.0917 22.0497 16.8539 21.2995 16.8899 21.2655C16.9754 21.1865 16.9826 21.0516 16.9058 20.9637C16.829 20.8752 16.6964 20.8674 16.6102 20.9464C16.5701 20.9832 15.632 21.8687 16.0284 24.0249Z" fill="#8C52FF"/>
<path d="M20.2636 29.911C20.2339 29.7966 20.1193 29.7279 20.0075 29.7587C19.8957 29.7892 19.8292 29.9061 19.8587 30.0208C20.0615 30.8054 20.5 31.4285 20.924 32.0314C21.4986 32.8486 22.0417 33.6204 21.9801 34.7405C21.9735 34.8588 22.0618 34.9597 22.1774 34.9664C22.1812 34.9668 22.1854 34.9668 22.1892 34.9668C22.2996 34.9668 22.392 34.879 22.3982 34.7649C22.4682 33.4929 21.8562 32.6229 21.264 31.7809C20.8437 31.1834 20.4467 30.6191 20.2636 29.911Z" fill="#8C52FF"/>
<path d="M22.6343 20.1668C23.2241 20.0651 23.8326 20.0956 24.4117 20.2546C24.43 20.2596 24.448 20.2624 24.466 20.2624C24.5584 20.2624 24.6432 20.1993 24.6682 20.1034C24.6983 19.9893 24.6322 19.8713 24.52 19.8409C23.8831 19.6655 23.2137 19.6326 22.5647 19.7442C22.4508 19.764 22.374 19.8742 22.393 19.9911C22.4121 20.1076 22.5204 20.1859 22.6343 20.1668Z" fill="#8C52FF"/>
<path d="M18.344 25.0528C18.3543 25.0542 18.3647 25.0553 18.3751 25.0553C18.4769 25.0553 18.5665 24.9791 18.5821 24.8725C18.8742 22.8793 20.0404 21.1954 21.6246 20.4774C21.7305 20.4295 21.7779 20.3031 21.7316 20.1947C21.6841 20.0863 21.5606 20.0374 21.455 20.0852C19.7409 20.8624 18.4814 22.6721 18.1678 24.8091C18.1508 24.926 18.2294 25.0351 18.344 25.0528Z" fill="#8C52FF"/>
<path d="M19.5617 29.3397C19.5845 29.4385 19.6707 29.5051 19.7655 29.5051C19.7815 29.5051 19.7974 29.503 19.8137 29.4994C19.9261 29.4725 19.9964 29.3574 19.9698 29.2419C19.752 28.2887 19.3786 27.6001 19.0785 27.0468C18.8026 26.5385 18.5845 26.1368 18.5845 25.7263C18.5845 25.6076 18.4907 25.512 18.3751 25.512C18.2595 25.512 18.1657 25.6076 18.1657 25.7263C18.1657 26.2477 18.4187 26.7142 18.7119 27.2551C19.0144 27.8126 19.3574 28.4442 19.5617 29.3397Z" fill="#8C52FF"/>
<path d="M25.1112 20.5572C25.1441 20.5759 28.4165 22.4646 28.4165 26.4354C28.4165 28.2827 28.1821 29.645 27.6788 30.7222C27.629 30.8292 27.6733 30.957 27.7775 31.008C27.8066 31.0222 27.8374 31.0289 27.8678 31.0289C27.9461 31.0289 28.0208 30.984 28.0568 30.9074C28.5881 29.77 28.8356 28.3489 28.8356 26.4358C28.8356 22.2057 25.3476 20.2015 25.3127 20.1813C25.2113 20.1247 25.0839 20.1626 25.0285 20.2663C24.9728 20.3698 25.0098 20.5001 25.1112 20.5572Z" fill="#8C52FF"/>
<path d="M26.8038 30.1884C26.6961 30.1455 26.5747 30.2007 26.5328 30.3113C26.2074 31.1745 25.8637 31.5875 25.8606 31.5911C25.7844 31.6803 25.7931 31.8156 25.8803 31.8936C25.9201 31.929 25.9693 31.9463 26.0181 31.9463C26.0766 31.9463 26.1347 31.9219 26.1759 31.873C26.1918 31.8546 26.5688 31.4072 26.9236 30.4654C26.9654 30.3548 26.9114 30.2309 26.8038 30.1884Z" fill="#8C52FF"/>
<path d="M27.0541 29.3117C27.0686 29.3152 27.0828 29.3163 27.097 29.3163C27.1942 29.3163 27.2811 29.2472 27.3019 29.1459C27.4594 28.3783 27.539 27.5537 27.539 26.6947C27.539 23.1235 25.4954 21.3 25.4085 21.2242C25.3206 21.1476 25.1887 21.1579 25.1136 21.2482C25.0385 21.3379 25.0486 21.4732 25.1365 21.5504C25.1562 21.5677 27.1198 23.33 27.1198 26.6947C27.1198 27.5243 27.0433 28.3195 26.8921 29.0581C26.8682 29.1739 26.9405 29.2876 27.0541 29.3117Z" fill="#8C52FF"/>
<path d="M26.3248 34.2541C26.2369 34.3306 26.2254 34.4659 26.3002 34.5562C26.3417 34.6065 26.4006 34.632 26.4601 34.632C26.5079 34.632 26.556 34.6157 26.5954 34.5814C26.6844 34.5049 28.7823 32.6693 29.3617 30.2479C29.9318 27.8547 29.5622 24.9353 29.5459 24.8124C29.5307 24.6948 29.4247 24.6129 29.3109 24.6282C29.1963 24.6438 29.1156 24.7518 29.1309 24.869C29.1347 24.8984 29.5061 27.8331 28.9547 30.1462C28.4085 32.4302 26.3459 34.236 26.3248 34.2541Z" fill="#8C52FF"/>
</svg>
