<svg width="14" height="19" viewBox="0 0 14 19" fill="none" xmlns="http://www.w3.org/2000/svg">
<mask id="mask0_484_2031" style="mask-type:luminance" maskUnits="userSpaceOnUse" x="0" y="3" width="11" height="16">
<path d="M0 3.08984H10.9499V18.6825H0V3.08984Z" fill="white"/>
</mask>
<g mask="url(#mask0_484_2031)">
<path d="M10.8885 18.6659V3.88902C10.8885 3.46247 10.5383 3.11157 10.1105 3.11157H0.777694C0.350149 3.11157 0 3.46247 0 3.88902V18.6659L5.44411 15.5552L10.8885 18.6659Z" fill="#8C52FF"/>
</g>
<mask id="mask1_484_2031" style="mask-type:luminance" maskUnits="userSpaceOnUse" x="3" y="0" width="11" height="16">
<path d="M3.05006 0H14V15.5768H3.05006V0Z" fill="white"/>
</mask>
<g mask="url(#mask1_484_2031)">
<path d="M13.2216 0.000244141H3.88881C3.46127 0.000244141 3.11112 0.35114 3.11112 0.778187V1.94485H10.1106C11.1832 1.94485 12.0552 2.81662 12.0552 3.88896V14.4437L13.9993 15.5551V0.778187C13.9993 0.35114 13.6492 0.000244141 13.2216 0.000244141Z" fill="#8C52FF"/>
</g>
</svg>
