<svg width="23" height="23" viewBox="0 0 23 23" fill="none" xmlns="http://www.w3.org/2000/svg">
<mask id="mask0_2993_2678" style="mask-type:luminance" maskUnits="userSpaceOnUse" x="0" y="0" width="23" height="23">
<path d="M0 0H23V23H0V0Z" fill="white"/>
</mask>
<g mask="url(#mask0_2993_2678)">
<path d="M11.4989 22.9917C9.94417 22.9917 8.43515 22.6865 7.02649 22.0889C5.65564 21.5078 4.42259 20.6803 3.36927 19.6228C2.31146 18.565 1.48393 17.332 0.903165 15.9735C0.305174 14.5566 0 13.0475 0 11.5011C0 9.95461 0.305174 8.43735 0.903165 7.02869C1.47981 5.65746 2.31146 4.42441 3.36927 3.37521C4.42671 2.32639 5.65976 1.49025 7.02649 0.909107C8.44789 0.303252 9.95241 0.00219727 11.4989 0.00219727C13.0457 0.00219727 14.563 0.307371 15.9716 0.904988C17.3425 1.47752 18.5673 2.31366 19.6247 3.37109C20.6822 4.42853 21.5101 5.66196 22.0908 7.02007C22.693 8.44147 22.9936 9.95049 22.9936 11.4928C22.9936 13.0352 22.6885 14.5566 22.0908 15.9652C21.5101 17.3361 20.6822 18.5691 19.6247 19.6142C18.5673 20.6716 17.3342 21.4995 15.9716 22.0803C14.563 22.6907 13.0581 22.9917 11.4989 22.9917ZM11.4989 0.415961C5.39652 0.415961 0.422376 5.38599 0.422376 11.497C0.422376 17.6079 5.3924 22.5693 11.4948 22.5693C17.5975 22.5693 22.5716 17.6038 22.5716 11.497C22.5716 5.39011 17.6057 0.415961 11.4989 0.415961Z" fill="#8C52FF"/>
</g>
</svg>
