<svg width="100" height="30" viewBox="0 0 100 30" fill="none" xmlns="http://www.w3.org/2000/svg">
<mask id="mask0_490_3698" style="mask-type:luminance" maskUnits="userSpaceOnUse" x="0" y="0" width="100" height="30">
<path d="M0 0H100V30H0V0Z" fill="white"/>
</mask>
<g mask="url(#mask0_490_3698)">
<mask id="mask1_490_3698" style="mask-type:luminance" maskUnits="userSpaceOnUse" x="0" y="0" width="100" height="30">
<path d="M84.6709 30H15.3447C11.2779 30 7.37811 28.4206 4.50393 25.6081C1.62975 22.7918 0.0117798 18.9795 0.0117798 15C0.0117798 11.0205 1.62975 7.20436 4.50393 4.39186C7.37811 1.57936 11.2779 0 15.3447 0H84.6709C88.7337 0 92.6335 1.57936 95.5077 4.39186C98.3859 7.20436 99.9999 11.0205 99.9999 15C99.9999 18.9795 98.3859 22.7918 95.5077 25.6081C92.6335 28.4206 88.7337 30 84.6709 30Z" fill="white"/>
</mask>
<g mask="url(#mask1_490_3698)">
<path d="M99.9999 30H-6.10352e-05V0H99.9999V30Z" fill="#00BF63"/>
</g>
</g>
<mask id="mask2_490_3698" style="mask-type:luminance" maskUnits="userSpaceOnUse" x="0" y="0" width="100" height="30">
<path d="M0.0118408 0.124268H99.988V29.9998H0.0118408V0.124268Z" fill="white"/>
</mask>
<g mask="url(#mask2_490_3698)">
<mask id="mask3_490_3698" style="mask-type:luminance" maskUnits="userSpaceOnUse" x="0" y="0" width="100" height="30">
<path d="M84.6631 29.9998H15.3568C11.294 29.9998 7.39415 28.4204 4.51997 25.6079C1.64579 22.7954 0.0317993 18.9793 0.0317993 15.0037C0.0317993 11.0281 1.64579 7.21193 4.51997 4.39943C7.39415 1.58692 11.294 0.00756836 15.3568 0.00756836H84.6631C88.7299 0.00756836 92.6257 1.58692 95.4999 4.39943C98.3741 7.21193 99.9881 11.0281 99.9881 15.0037C99.9881 18.9793 98.3741 22.7954 95.4999 25.6079C92.6257 28.4204 88.7299 29.9998 84.6631 29.9998Z" fill="white"/>
</mask>
<g mask="url(#mask3_490_3698)">
<path d="M84.663 30H15.3567C11.2939 30 7.39405 28.4206 4.51987 25.6081C1.64569 22.7956 0.0316952 18.9795 0.0316952 15.0039C0.0316952 11.0283 1.64569 7.21214 4.51987 4.39964C7.39405 1.58714 11.2939 0.00778187 15.3567 0.00778187H84.663C88.7298 0.00778187 92.6256 1.58714 95.4998 4.39964C98.374 7.21214 99.988 11.0283 99.988 15.0039C99.988 18.9795 98.374 22.7956 95.4998 25.6081C92.6256 28.4206 88.7298 30 84.663 30Z" stroke="#00BF63" stroke-width="4"/>
</g>
</g>
<mask id="mask4_490_3698" style="mask-type:luminance" maskUnits="userSpaceOnUse" x="72" y="3" width="24" height="24">
<path d="M72.3714 3.80811H95.2694V26.2147H72.3714V3.80811Z" fill="white"/>
</mask>
<g mask="url(#mask4_490_3698)">
<path fill-rule="evenodd" clip-rule="evenodd" d="M83.8125 3.80811C90.1054 3.80811 95.2575 8.8496 95.2575 15.0075C95.2575 21.1655 90.1054 26.2031 83.8125 26.2031C77.5195 26.2031 72.3714 21.1655 72.3714 15.0075C72.3714 8.8496 77.5195 3.80811 83.8125 3.80811ZM83.8125 5.04903C78.2152 5.04903 73.6395 9.53036 73.6395 15.0075C73.6395 20.4847 78.2152 24.966 83.8125 24.966C89.4098 24.966 93.9894 20.4847 93.9894 15.0075C93.9894 9.53036 89.4098 5.04903 83.8125 5.04903Z" fill="white"/>
</g>
<path fill-rule="evenodd" clip-rule="evenodd" d="M81.5029 16.7231L88.094 10.2734C88.6625 9.71713 89.5808 9.71713 90.1493 10.2734C90.7177 10.8297 90.7177 11.7283 90.1493 12.2846L82.5365 19.734C82.5325 19.734 82.5325 19.7379 82.5285 19.7418C81.96 20.2942 81.0417 20.2942 80.4733 19.7418L80.199 19.4734L77.4798 16.8087C76.9113 16.2563 76.9113 15.3538 77.4798 14.7975C78.0483 14.2451 78.9666 14.2451 79.5351 14.7975L81.5029 16.7231Z" fill="white"/>
<path d="M17.1992 17.2574C16.6586 17.2574 16.1816 17.1484 15.7681 16.9306C15.3626 16.7128 15.0446 16.386 14.814 15.9503C14.5914 15.5146 14.4801 14.9778 14.4801 14.332C14.4801 13.6902 14.5914 13.1495 14.814 12.7138C15.0446 12.2781 15.3626 11.9513 15.7681 11.7335C16.1816 11.5157 16.6586 11.4067 17.1992 11.4067C17.7598 11.4067 18.2328 11.5157 18.6145 11.7335C19.0041 11.9436 19.2863 12.2703 19.4572 12.7138L18.6145 13.2117H18.5191C18.3918 12.9122 18.2209 12.6982 18.0102 12.5738C17.7955 12.4415 17.5252 12.3715 17.1992 12.3715C16.7103 12.3715 16.3286 12.5349 16.0543 12.8538C15.788 13.165 15.6568 13.6591 15.6568 14.332C15.6568 15.0089 15.788 15.5068 16.0543 15.8258C16.3286 16.137 16.7103 16.2926 17.1992 16.2926C17.9506 16.2926 18.4117 15.9309 18.5827 15.2034H18.6781L19.5368 15.6391C19.3777 16.1798 19.0995 16.5844 18.7099 16.8528C18.3282 17.1251 17.8234 17.2574 17.1992 17.2574Z" fill="white"/>
<path d="M22.264 17.2573C21.8386 17.2573 21.461 17.1756 21.135 17.0084C20.817 16.8333 20.5665 16.5805 20.3876 16.2459C20.2048 15.9153 20.1173 15.5107 20.1173 15.0322C20.1173 14.5654 20.2048 14.1686 20.3876 13.8341C20.5665 13.4918 20.817 13.2389 21.135 13.0717C21.461 12.8966 21.8386 12.8071 22.264 12.8071C22.6973 12.8071 23.075 12.8966 23.393 13.0717C23.719 13.2389 23.9734 13.4918 24.1563 13.8341C24.3352 14.1686 24.4266 14.5654 24.4266 15.0322C24.4266 15.5107 24.3352 15.9153 24.1563 16.2459C23.9734 16.5805 23.719 16.8333 23.393 17.0084C23.075 17.1756 22.6973 17.2573 22.264 17.2573ZM22.264 16.3393C22.9517 16.3393 23.2976 15.9036 23.2976 15.0322C23.2976 14.5771 23.2062 14.2464 23.0273 14.0364C22.8563 13.8302 22.6019 13.7252 22.264 13.7252C21.5842 13.7252 21.2463 14.1609 21.2463 15.0322C21.2463 15.9036 21.5842 16.3393 22.264 16.3393Z" fill="white"/>
<path d="M25.4524 17.1795V12.8849H26.5019V13.4607L26.5973 13.4762C26.7325 13.2506 26.8994 13.0833 27.0902 12.9783C27.2811 12.8655 27.5275 12.8071 27.8376 12.8071C28.1636 12.8071 28.4299 12.8772 28.6327 13.0094C28.8314 13.1339 28.9825 13.3167 29.0779 13.554H29.1574C29.2926 13.3051 29.4675 13.1183 29.6822 12.9939C29.8929 12.8694 30.1592 12.8071 30.4772 12.8071C31.3876 12.8071 31.8448 13.3012 31.8448 14.2853V17.1795H30.7317V14.4254C30.7317 14.1764 30.676 13.9975 30.5726 13.8808C30.4772 13.768 30.3182 13.7096 30.0956 13.7096C29.4914 13.7096 29.1892 14.1103 29.1892 14.9078V17.1795H28.092V14.4254C28.092 14.1764 28.0364 13.9975 27.933 13.8808C27.8376 13.768 27.6786 13.7096 27.456 13.7096C27.1697 13.7096 26.9471 13.803 26.7881 13.9897C26.6291 14.1764 26.5496 14.4721 26.5496 14.8766V17.1795H25.4524Z" fill="white"/>
<path d="M33.0377 18.9223V12.8849H34.1349V13.4451L34.2144 13.4607C34.3495 13.2428 34.5244 13.0833 34.7391 12.9783C34.9617 12.8655 35.2162 12.8071 35.5024 12.8071C35.8522 12.8071 36.1583 12.8927 36.4247 13.0561C36.687 13.2117 36.8938 13.4607 37.0448 13.803C37.1919 14.1375 37.2674 14.546 37.2674 15.0322C37.2674 15.5224 37.1879 15.9308 37.0289 16.2615C36.8779 16.596 36.6672 16.845 36.3929 17.0084C36.1146 17.1756 35.7966 17.2573 35.4388 17.2573C35.1605 17.2573 34.922 17.2145 34.7232 17.1329C34.5205 17.0395 34.3495 16.8995 34.2144 16.7127L34.1349 16.7283V18.9223H33.0377ZM35.1207 16.3393C35.4467 16.3393 35.6972 16.2381 35.8681 16.0281C36.0351 15.8219 36.1225 15.4913 36.1225 15.0322C36.1225 14.5771 36.0351 14.2464 35.8681 14.0364C35.6972 13.8302 35.4467 13.7252 35.1207 13.7252C34.8107 13.7252 34.5682 13.8341 34.3893 14.0519C34.2064 14.2698 34.119 14.5965 34.119 15.0322C34.119 15.4679 34.2064 15.7947 34.3893 16.0125C34.5682 16.2304 34.8107 16.3393 35.1207 16.3393Z" fill="white"/>
<path d="M39.4819 17.2573C39.0764 17.2573 38.7703 17.1562 38.5596 16.9461C38.3568 16.7399 38.2574 16.4248 38.2574 15.9969V11.1577H39.3546V15.9502C39.3546 16.2109 39.466 16.3393 39.6886 16.3393C39.7522 16.3393 39.8198 16.3315 39.8953 16.3081L39.9589 16.3237L40.0543 17.1639C39.9907 17.1951 39.9032 17.2145 39.7999 17.2262C39.7045 17.2456 39.5971 17.2573 39.4819 17.2573Z" fill="white"/>
<path d="M44.5147 15.2812H41.6842C41.716 15.6546 41.8194 15.9269 42.0022 16.0903C42.193 16.2576 42.4514 16.3393 42.7814 16.3393C43.0239 16.3393 43.2266 16.3004 43.3857 16.2148C43.5447 16.1214 43.6719 15.9814 43.7673 15.7947H43.8468L44.5783 16.2459C44.4391 16.5493 44.2205 16.7905 43.9263 16.9773C43.6401 17.164 43.2584 17.2573 42.7814 17.2573C42.3242 17.2573 41.9307 17.1756 41.6047 17.0084C41.2747 16.845 41.0203 16.596 40.8414 16.2615C40.6586 15.9192 40.5711 15.5107 40.5711 15.0322C40.5711 14.546 40.6586 14.1375 40.8414 13.803C41.0322 13.4723 41.2867 13.2234 41.6047 13.0561C41.9307 12.8927 42.2964 12.8071 42.7019 12.8071C43.3141 12.8071 43.7872 12.9705 44.1171 13.2895C44.4431 13.6124 44.6101 14.0831 44.6101 14.7055C44.6101 14.935 44.6021 15.11 44.5942 15.2345L44.5147 15.2812ZM43.5606 14.581C43.5486 14.2503 43.4691 14.013 43.3221 13.8652C43.1829 13.7213 42.9762 13.6474 42.7019 13.6474C42.1374 13.6474 41.8114 13.9586 41.716 14.581H43.5606Z" fill="white"/>
<path d="M47.9616 16.1526L48.2478 16.9461C48.1285 17.0512 47.9814 17.129 47.8025 17.1796C47.6197 17.2301 47.4209 17.2574 47.1983 17.2574C46.7213 17.2574 46.3555 17.1329 46.1011 16.8839C45.8546 16.6272 45.7354 16.2576 45.7354 15.7791V13.7408H45.0675V12.8849H45.7354V12.0447L46.8485 11.8735V12.8849H48.0888V13.7408H46.8485V15.7013C46.8485 15.9114 46.8882 16.067 46.9757 16.1681C47.0711 16.2615 47.2023 16.3082 47.3732 16.3082C47.564 16.3082 47.731 16.2576 47.8821 16.1526H47.9616Z" fill="white"/>
<path d="M52.6883 15.2812H49.8578C49.8897 15.6546 49.993 15.9269 50.1759 16.0903C50.3667 16.2576 50.6251 16.3393 50.955 16.3393C51.1975 16.3393 51.4003 16.3004 51.5593 16.2148C51.7183 16.1214 51.8455 15.9814 51.9409 15.7947H52.0204L52.7519 16.2459C52.6128 16.5493 52.3941 16.7905 52.0999 16.9773C51.8137 17.164 51.4321 17.2573 50.955 17.2573C50.4979 17.2573 50.1043 17.1756 49.7783 17.0084C49.4484 16.845 49.194 16.596 49.0151 16.2615C48.8322 15.9192 48.7448 15.5107 48.7448 15.0322C48.7448 14.546 48.8322 14.1375 49.0151 13.803C49.2059 13.4723 49.4603 13.2234 49.7783 13.0561C50.1043 12.8927 50.4701 12.8071 50.8755 12.8071C51.4877 12.8071 51.9608 12.9705 52.2908 13.2895C52.6167 13.6124 52.7837 14.0831 52.7837 14.7055C52.7837 14.935 52.7758 15.11 52.7678 15.2345L52.6883 15.2812ZM51.7342 14.581C51.7223 14.2503 51.6428 14.013 51.4957 13.8652C51.3566 13.7213 51.1498 13.6474 50.8755 13.6474C50.311 13.6474 49.9851 13.9586 49.8897 14.581H51.7342Z" fill="white"/>
<path d="M55.2763 17.2573C54.9345 17.2573 54.6284 17.1756 54.3541 17.0083C54.0877 16.845 53.881 16.596 53.7339 16.2614C53.5828 15.9308 53.5113 15.5223 53.5113 15.0322C53.5113 14.5459 53.5828 14.1375 53.7339 13.8029C53.8929 13.4723 54.1076 13.2233 54.3859 13.0561C54.6602 12.8927 54.9782 12.8071 55.34 12.8071C55.6143 12.8071 55.8488 12.8538 56.0396 12.9471C56.2384 13.0405 56.4093 13.1805 56.5485 13.3673L56.6439 13.3517V11.1577H57.7411V17.1795H56.6439V16.6193L56.5485 16.6038C56.4292 16.8138 56.2662 16.9733 56.0555 17.0861C55.8408 17.1989 55.5825 17.2573 55.2763 17.2573ZM55.6421 16.3393C55.9482 16.3393 56.1907 16.2381 56.3735 16.028C56.5524 15.8102 56.6439 15.4796 56.6439 15.0322C56.6439 14.5965 56.5524 14.2697 56.3735 14.0519C56.1907 13.8341 55.9482 13.7251 55.6421 13.7251C55.3121 13.7251 55.0617 13.8302 54.8947 14.0363C54.7238 14.2464 54.6403 14.5771 54.6403 15.0322C54.6403 15.4912 54.7238 15.8219 54.8947 16.028C55.0617 16.2381 55.3121 16.3393 55.6421 16.3393Z" fill="white"/>
<path d="M60.1504 15.2966H59.1486L59.0691 11.4844H60.2299L60.1504 15.2966ZM59.6415 17.2261C59.5024 17.2261 59.3792 17.1988 59.2758 17.1483C59.1804 17.086 59.1009 17.0082 59.0373 16.9149C58.9816 16.8137 58.9578 16.7048 58.9578 16.5881C58.9578 16.4636 58.9816 16.3547 59.0373 16.2613C59.1009 16.1602 59.1804 16.0824 59.2758 16.0279C59.3792 15.9774 59.5024 15.9501 59.6415 15.9501C59.8522 15.9501 60.0232 16.0124 60.1504 16.1369C60.2776 16.2536 60.3412 16.4014 60.3412 16.5881C60.3412 16.7671 60.2776 16.9149 60.1504 17.0394C60.0232 17.1638 59.8522 17.2261 59.6415 17.2261Z" fill="white"/>
</svg>
