<svg width="23" height="23" viewBox="0 0 23 23" fill="none" xmlns="http://www.w3.org/2000/svg">
<mask id="mask0_2993_2143" style="mask-type:luminance" maskUnits="userSpaceOnUse" x="0" y="0" width="23" height="23">
<path d="M0 0H23V23H0V0Z" fill="white"/>
</mask>
<g mask="url(#mask0_2993_2143)">
<path d="M11.4936 22.9872C8.42251 22.9872 5.5352 21.7919 3.36521 19.6219C1.19522 17.452 0 14.5646 0 11.4936C0 8.42251 1.19522 5.5352 3.36521 3.36521C5.5352 1.19522 8.42251 0 11.4936 0C14.5646 0 17.452 1.19522 19.6219 3.36521C21.7916 5.5352 22.9872 8.42251 22.9872 11.4936C22.9872 14.5646 21.7916 17.452 19.6219 19.6219C17.452 21.7919 14.5646 22.9872 11.4936 22.9872ZM11.4936 0.735662C5.56272 0.735662 0.735662 5.56272 0.735662 11.4936C0.735662 17.4241 5.56272 22.2515 11.4936 22.2515C17.4241 22.2515 22.2515 17.4241 22.2515 11.4936C22.2515 5.56272 17.4241 0.735662 11.4936 0.735662Z" fill="#8C52FF"/>
</g>
<path d="M5.76512 14.7763C5.45263 14.7439 5.21352 14.4773 5.21352 14.1602V6.9375H4.59741V15.1946C5.61804 15.2221 6.63868 15.3325 7.97638 15.5991C9.24988 15.852 10.5879 16.1461 11.5073 16.491C11.5073 16.491 9.35109 15.5533 8.00879 15.1946C7.19486 14.9738 6.43626 14.8497 5.76512 14.7763Z" fill="#8C52FF"/>
<path d="M17.7324 6.9375V14.1785C17.7324 14.4864 17.5024 14.7485 17.1991 14.7901C16.5601 14.8726 15.8565 15.0014 15.1071 15.1992C13.7278 15.5578 12.4085 16.0357 11.512 16.4956C11.512 16.4956 13.8015 15.8107 15.167 15.5487C16.4314 15.3096 17.4242 15.2129 18.3898 15.1946V6.9375H17.7324Z" fill="#8C52FF"/>
<path d="M11.3095 16.0957C11.3095 13.4429 11.3095 10.2523 11.3141 7.59947C10.505 7.31909 9.56269 7.05247 8.49589 6.84547C7.45691 6.64336 6.47327 6.54215 5.64099 6.4917C5.64099 9.14418 5.64099 11.797 5.64099 14.4543C6.5329 14.5372 7.65474 14.721 8.85913 15.0934C9.81097 15.3967 10.6292 15.7508 11.3095 16.0957Z" fill="#8C52FF"/>
<path d="M17.3137 14.4543C17.3137 11.8016 17.3137 9.14907 17.3137 6.4917C16.4772 6.53756 15.4932 6.64336 14.4588 6.84547C13.3923 7.05247 12.4497 7.31909 11.6406 7.59947C11.6406 10.2523 11.6406 13.4475 11.6406 16.0957C12.4405 15.737 13.3877 15.3692 14.468 15.0567C15.4932 14.7671 16.4772 14.5739 17.3137 14.4543Z" fill="#8C52FF"/>
</svg>
