<svg width="23" height="23" viewBox="0 0 23 23" fill="none" xmlns="http://www.w3.org/2000/svg">
<mask id="mask0_2993_2687" style="mask-type:luminance" maskUnits="userSpaceOnUse" x="0" y="0" width="23" height="23">
<path d="M0 0H23V23H0V0Z" fill="white"/>
</mask>
<g mask="url(#mask0_2993_2687)">
<path d="M11.4989 22.2508C5.57045 22.2508 0.74703 17.4274 0.74703 11.4989C0.74703 5.56991 5.57045 0.74703 11.4989 0.74703C17.4274 0.74703 22.2508 5.56991 22.2508 11.4989C22.2508 17.4274 17.4274 22.2508 11.4989 22.2508ZM11.4989 0C5.15851 0 0 5.15851 0 11.4989C0 17.8394 5.15851 22.9976 11.4989 22.9976C17.8394 22.9976 22.9976 17.8394 22.9976 11.4989C22.9976 5.15851 17.8394 0 11.4989 0Z" fill="#8C52FF"/>
</g>
<path d="M17.6838 7.58447L16.3204 8.89978L15.4264 9.761L15.4 9.78715H16.7092C16.6793 9.91121 16.6697 9.95123 16.6505 10.0329C16.5734 10.3706 16.4637 10.6951 16.3204 11.0053C16.23 11.2006 16.127 11.3906 16.0096 11.5744C15.8359 11.8473 15.642 12.0971 15.4264 12.3246C15.0622 12.7104 14.6383 13.0309 14.1525 13.2835C13.7939 13.4705 13.4142 13.6039 13.0178 13.6848C12.5146 13.7872 12.0066 13.8035 11.4984 13.7256C11.4258 13.7147 11.3324 13.7069 11.3127 13.7838C11.2929 13.8609 11.3844 13.8931 11.4455 13.9137C12.4338 14.2429 13.4393 14.3053 14.4627 14.1173C14.6724 14.07 14.8568 14.0244 15.0348 13.974C15.1671 13.9369 15.2975 13.895 15.4264 13.8473C15.6636 13.7603 15.8936 13.656 16.1158 13.5351C16.1174 13.534 16.1193 13.5327 16.1211 13.5322C16.1889 13.4951 16.2553 13.4572 16.3204 13.4182C17.6838 12.6117 18.5471 11.4335 18.8486 9.84237C18.8526 9.81836 18.8587 9.80049 18.866 9.78715H19.9673L17.6838 7.58447Z" fill="#8C52FF"/>
<path d="M10.4136 6.997C10.6801 6.06642 11.6504 5.52802 12.581 5.79428C13.319 6.00585 13.8107 6.65977 13.8488 7.38573C13.8598 7.57489 13.8387 7.76965 13.7837 7.96254C13.7512 8.07379 13.7093 8.17971 13.6584 8.27923C13.2848 9.01052 12.4348 9.39924 11.6163 9.16446C11.1313 9.02546 10.7527 8.69543 10.5387 8.27923C10.4 8.00843 10.3311 7.70081 10.3477 7.38573C10.3549 7.25633 10.3765 7.1264 10.4136 6.997ZM9.51767 7.38573C9.5134 7.50312 9.51713 7.61997 9.52861 7.7355C9.54701 7.92119 9.58543 8.10314 9.64279 8.27816L9.64119 8.27923L9.44456 8.44518L8.93685 8.87445L9.22846 9.47394L10.1585 9.18367C10.3335 9.3835 10.54 9.55718 10.7743 9.69672C10.8148 9.72126 10.8575 9.74528 10.8999 9.76742L10.825 10.6569L11.4557 10.8744L11.8863 10.0532C11.9252 10.0566 11.9647 10.059 12.0037 10.0604C12.311 10.0724 12.6128 10.0281 12.8966 9.93577L13.4937 10.6412L14.0215 10.3843L14.0927 10.3501L14.0609 10.2479L13.8027 9.41952C14.0375 9.21408 14.2376 8.96383 14.3867 8.67809L15.2754 8.75306L15.4264 8.31525L15.4934 8.12235L14.6724 7.69174C14.6815 7.58929 14.6831 7.48684 14.6796 7.38573C14.6719 7.15762 14.633 6.93404 14.5671 6.72087L15.2455 6.13632L14.8688 5.45652L14.5238 5.57871L14.022 5.7572C13.9532 5.6801 13.8801 5.60699 13.8016 5.53816C13.6746 5.42611 13.5351 5.32606 13.3841 5.24041C13.3507 5.22067 13.3158 5.202 13.2806 5.18412L13.3499 4.25887L12.6032 4.04517L12.1966 4.89918C12.1803 4.89838 12.1643 4.89785 12.148 4.89785C11.8708 4.89198 11.5976 4.932 11.3396 5.01177L10.7551 4.33251L10.0758 4.70922L10.376 5.55657C10.1446 5.76254 9.94881 6.01252 9.80341 6.29693L8.87816 6.2281L8.66418 6.97486L9.51767 7.38146C9.51767 7.38279 9.51767 7.38386 9.51767 7.38573Z" fill="#8C52FF"/>
<path d="M15.4264 15.0684H5.15046V8.27924H8.13591V7.38574H5.05761C4.61633 7.38574 4.25696 7.74565 4.25696 8.18693V15.1605C4.25696 15.3264 4.30738 15.4804 4.39409 15.6084C4.53789 15.8219 4.78228 15.9625 5.05761 15.9625H9.8853V17.0488C9.416 17.0782 8.99607 17.1572 8.67217 17.2711C8.2557 17.4165 7.99771 17.6185 7.99771 17.8412C7.99771 18.2857 9.02355 18.6462 10.2884 18.6462C11.5538 18.6462 12.5791 18.2857 12.5791 17.8412C12.5791 17.6676 12.4231 17.5069 12.1581 17.3759C11.8169 17.2071 11.2953 17.0867 10.6916 17.0488V15.9625H15.5192C15.6569 15.9625 15.7868 15.9272 15.9008 15.8653C16.0139 15.8037 16.111 15.7151 16.1833 15.6084C16.2697 15.4804 16.3204 15.3264 16.3204 15.1605V14.1029C16.035 14.2534 15.7353 14.3795 15.4264 14.4796V15.0684Z" fill="#8C52FF"/>
<path d="M7.71096 11.9642C7.71816 11.9599 7.72216 11.9522 7.72216 11.9439V11.4282C7.72216 11.4109 7.70322 11.3994 7.68748 11.4085L5.79989 12.4983C5.78415 12.5074 5.78415 12.5295 5.79989 12.5386L7.68748 13.6285C7.70322 13.6375 7.72216 13.6261 7.72216 13.6082V13.0925C7.72216 13.0847 7.71816 13.077 7.71096 13.0727L6.78624 12.5386C6.7705 12.5295 6.7705 12.5074 6.78624 12.4983L7.71096 11.9642Z" fill="#8C52FF"/>
<path d="M9.66501 13.0727C9.65781 13.077 9.65381 13.0847 9.65381 13.0925V13.6082C9.65381 13.6261 9.67302 13.6375 9.68849 13.6285L11.5761 12.5386C11.5918 12.5295 11.5918 12.5074 11.5761 12.4983L9.68849 11.4085C9.67302 11.3994 9.65381 11.4109 9.65381 11.4282V11.9439C9.65381 11.9522 9.65781 11.9599 9.66501 11.9642L10.5905 12.4983C10.606 12.5074 10.606 12.5295 10.5905 12.5386L9.66501 13.0727Z" fill="#8C52FF"/>
<path d="M7.88147 14.0388L8.37077 14.0321L9.49452 10.9976H9.00762L7.88147 14.0388Z" fill="#8C52FF"/>
</svg>
