<svg width="23" height="23" viewBox="0 0 23 23" fill="none" xmlns="http://www.w3.org/2000/svg">
<path d="M11.7037 6.88639L11.6914 6.83622C11.612 6.50595 11.3944 6.07122 10.4707 6.07122C10.358 6.07122 10.2617 5.99633 10.2325 5.89149C10.0947 5.3901 9.81876 5.08081 9.51771 5.08081C9.21703 5.08081 8.94106 5.3901 8.80289 5.89149C8.77368 6.00045 8.67333 6.07122 8.56474 6.07122C7.64098 6.07122 7.4238 6.50595 7.34442 6.83622L7.33581 6.87403V6.87815C7.33581 6.88227 7.33581 6.88639 7.33169 6.89051L7.04749 8.03182H11.9924L11.7037 6.88639Z" fill="#8C52FF"/>
<path d="M14.3162 7.07471H12.2597L12.4312 7.76856H14.12C14.2578 7.76856 14.3663 7.88126 14.3663 8.01494V16.9725C14.3663 17.1106 14.2536 17.2192 14.12 17.2192H4.91157C4.7734 17.2192 4.66481 17.1061 4.66481 16.9725V8.01494C4.66481 7.87715 4.77789 7.76856 4.91157 7.76856H6.60032L6.77144 7.07471H4.71498C4.39745 7.07471 4.14246 7.32971 4.14246 7.64724V17.3405C4.14246 17.6581 4.40157 17.9131 4.71498 17.9131H14.3162C14.6341 17.9131 14.8891 17.6539 14.8891 17.3405V7.64724C14.8891 7.32971 14.6341 7.07471 14.3162 7.07471Z" fill="#8C52FF"/>
<path d="M12.3058 8.53319H6.72539C6.6505 8.53319 6.57936 8.49987 6.52918 8.43733C6.49136 8.38716 6.47077 8.32425 6.47901 8.26172H5.15796V16.722H13.8691V8.26172H12.548C12.5525 8.32425 12.5357 8.38716 12.4979 8.43733C12.4522 8.49575 12.381 8.53319 12.3058 8.53319ZM9.19599 15.7731H6.23225C6.09445 15.7731 5.98586 15.66 5.98586 15.5264C5.98586 15.3886 6.09857 15.2796 6.23225 15.2796H9.20011C9.3379 15.2796 9.44649 15.3927 9.44649 15.5264C9.44238 15.6642 9.33379 15.7731 9.19599 15.7731ZM5.98137 10.8533C5.98137 10.7151 6.09445 10.6065 6.22813 10.6065H12.7989C12.9367 10.6065 13.0457 10.7196 13.0457 10.8533C13.0457 10.9869 12.9367 11.0996 12.7989 11.0996H6.22813C6.09445 11.1041 5.98137 10.9911 5.98137 10.8533ZM9.19599 14.6067H6.23225C6.09445 14.6067 5.98586 14.494 5.98586 14.36C5.98586 14.2263 6.09857 14.1136 6.23225 14.1136H9.20011C9.3379 14.1136 9.44649 14.2263 9.44649 14.36C9.44649 14.494 9.33379 14.6067 9.19599 14.6067ZM9.19599 13.4362H6.23225C6.09445 13.4362 5.98586 13.3235 5.98586 13.1898C5.98586 13.052 6.09857 12.943 6.23225 12.943H9.20011C9.3379 12.943 9.44649 13.0561 9.44649 13.1898C9.44238 13.3276 9.33379 13.4362 9.19599 13.4362ZM11.6494 16.2704C10.638 16.2704 9.81458 15.447 9.81458 14.4352C9.81458 13.4238 10.638 12.6004 11.6494 12.6004C12.6611 12.6004 13.4845 13.4238 13.4845 14.4352C13.4886 15.447 12.6652 16.2704 11.6494 16.2704ZM12.803 12.2702H6.22813C6.09033 12.2702 5.98137 12.1575 5.98137 12.0234C5.98137 11.8856 6.09033 11.777 6.22813 11.777H12.7989C12.9367 11.777 13.0457 11.8897 13.0457 12.0234C13.0498 12.1575 12.9412 12.2702 12.803 12.2702ZM12.803 9.44048C12.9412 9.44048 13.0498 9.55318 13.0498 9.68686C13.0498 9.82503 12.9412 9.93362 12.803 9.93362H6.22813C6.09033 9.93362 5.98137 9.82091 5.98137 9.68686C5.98137 9.54907 6.09445 9.44048 6.22813 9.44048H12.803Z" fill="#8C52FF"/>
<path d="M11.6494 13.0938C10.9098 13.0938 10.3077 13.6959 10.3077 14.4354C10.3077 15.1753 10.9098 15.7774 11.6494 15.7774C12.3893 15.7774 12.9914 15.1753 12.9914 14.4354C12.9914 13.6959 12.3893 13.0938 11.6494 13.0938ZM12.3017 15.5348C12.1721 15.5767 12.0298 15.5056 11.9883 15.376L11.9085 15.1292H11.3989L11.315 15.376C11.2817 15.4805 11.1854 15.5475 11.081 15.5475C11.0559 15.5475 11.0308 15.5434 11.0016 15.5348C10.872 15.4932 10.8009 15.3509 10.8428 15.2214L11.4154 13.491C11.4491 13.3907 11.5449 13.3195 11.6494 13.3195C11.7037 13.3195 11.7539 13.3364 11.7958 13.3656C11.8377 13.3948 11.8711 13.4364 11.8879 13.4865L12.3181 14.7949C12.3181 14.7994 12.3226 14.8035 12.3226 14.8076L12.4604 15.2214C12.5024 15.3509 12.4312 15.4932 12.3017 15.5348Z" fill="#8C52FF"/>
<path d="M11.5618 14.6361H11.7415L11.6494 14.3601L11.5618 14.6361Z" fill="#8C52FF"/>
<path d="M16.8074 16.9812L17.1796 16.0447H16.4355L16.8074 16.9812Z" fill="#8C52FF"/>
<path d="M16.3184 14.4354L17.2964 13.8044V13.4158L16.3184 14.0508V14.4354Z" fill="#8C52FF"/>
<path d="M16.3184 15.5475H17.2964V14.3938L16.3184 15.0247V15.5475Z" fill="#8C52FF"/>
<path d="M16.3184 13.4613L17.2964 12.8262V12.4417L16.3184 13.0767V13.4613Z" fill="#8C52FF"/>
<path d="M16.3184 12.4834L17.2964 11.8525V7.13745H16.3184V12.4834Z" fill="#8C52FF"/>
<path d="M18.6092 7.48438H17.7899V7.98164H18.3583V10.1175C18.3583 10.2557 18.471 10.3642 18.6047 10.3642C18.7429 10.3642 18.8515 10.2512 18.8515 10.1175V7.73076C18.8556 7.59296 18.7429 7.48438 18.6092 7.48438Z" fill="#8C52FF"/>
<path d="M16.983 6.41029C16.983 6.36424 16.9456 6.32642 16.8995 6.32642H16.707C16.6614 6.32642 16.6235 6.36424 16.6235 6.41029V6.6402H16.9789V6.41029H16.983Z" fill="#8C52FF"/>
<mask id="mask0_2993_2665" style="mask-type:luminance" maskUnits="userSpaceOnUse" x="0" y="0" width="23" height="23">
<path d="M0 0H23V23H0V0Z" fill="white"/>
</mask>
<g mask="url(#mask0_2993_2665)">
<path d="M11.4989 22.9917C9.94417 22.9917 8.43515 22.6865 7.02649 22.0889C5.65564 21.5078 4.42259 20.6803 3.36927 19.6228C2.31146 18.565 1.48393 17.332 0.903165 15.9735C0.305174 14.5566 0 13.0475 0 11.5011C0 9.95461 0.305174 8.43735 0.903165 7.02869C1.47981 5.65746 2.31146 4.42441 3.36927 3.37521C4.42671 2.32639 5.65976 1.49025 7.02649 0.909107C8.44789 0.303252 9.95241 0.00219727 11.4989 0.00219727C13.0457 0.00219727 14.563 0.307371 15.9716 0.904988C17.3425 1.47752 18.5673 2.31366 19.6247 3.37109C20.6822 4.42853 21.5101 5.66196 22.0908 7.02007C22.693 8.44147 22.9936 9.95049 22.9936 11.4928C22.9936 13.0352 22.6885 14.5566 22.0908 15.9652C21.5101 17.3361 20.6822 18.5691 19.6247 19.6142C18.5673 20.6716 17.3342 21.4995 15.9716 22.0803C14.563 22.6907 13.0581 22.9917 11.4989 22.9917ZM11.4989 0.415961C5.39652 0.415961 0.422376 5.38599 0.422376 11.497C0.422376 17.6079 5.3924 22.5693 11.4948 22.5693C17.5975 22.5693 22.5716 17.6038 22.5716 11.497C22.5716 5.39011 17.6057 0.415961 11.4989 0.415961Z" fill="#8C52FF"/>
</g>
</svg>
