<svg width="18" height="22" viewBox="0 0 18 22" fill="none" xmlns="http://www.w3.org/2000/svg">
<mask id="mask0_484_2042" style="mask-type:luminance" maskUnits="userSpaceOnUse" x="0" y="0" width="18" height="22">
<path d="M0 0.372803H18V21.4616H0V0.372803Z" fill="white"/>
</mask>
<g mask="url(#mask0_484_2042)">
<path d="M2.81999 5.11243C3.57886 2.38119 6.08182 0.375 9.04438 0.375C12.0044 0.375 14.5091 2.38119 15.2685 5.11243H17.3393C17.7018 5.11243 17.9958 5.40754 17.9958 5.7709V15.155H0V5.7709C0 5.40754 0.294009 5.11243 0.65625 5.11243H2.81999ZM0 15.527H17.9958V16.8523C17.9958 17.2164 17.7018 17.5107 17.3393 17.5107H11.7448L12.3889 20.3623H12.9835C13.2909 20.3623 13.5399 20.6122 13.5399 20.9201C13.5399 21.2283 13.2909 21.4782 12.9835 21.4782H5.19342C4.88609 21.4782 4.63702 21.2283 4.63702 20.9201C4.63702 20.6122 4.88609 20.3623 5.19342 20.3623H5.94231L6.54586 17.5107H0.65625C0.294009 17.5107 0 17.2164 0 16.8523V15.527ZM9.64488 16.8301C9.64488 16.5191 9.39497 16.2709 9.08848 16.2709C8.78199 16.2709 8.53208 16.5191 8.53208 16.8301C8.53208 17.1363 8.78199 17.3867 9.08848 17.3867C9.39497 17.3867 9.64488 17.1363 9.64488 16.8301ZM9.04438 12.682C12.2552 12.682 14.8583 10.072 14.8583 6.85235C14.8583 3.63295 12.2552 1.02293 9.04438 1.02293C5.8333 1.02293 3.23021 3.63295 3.23021 6.85235C3.23021 10.072 5.8333 12.682 9.04438 12.682ZM7.71302 6.49538H10.188C10.7923 6.49538 11.336 6.75638 11.6034 7.13693L8.99806 8.25305L6.38415 7.13332C6.6213 6.75472 7.11058 6.49538 7.71302 6.49538ZM9.00388 6.17668C8.06084 6.17668 7.29614 5.41503 7.29614 4.47559C7.29614 3.53615 8.06084 2.7745 9.00388 2.7745C9.94693 2.7745 10.7116 3.53615 10.7116 4.47559C10.7116 5.41503 9.94693 6.17668 9.00388 6.17668ZM8.99806 11.8857L6.08182 10.391C6.06019 10.3788 6.04493 10.358 6.03966 10.3339L5.50102 7.47171C5.49686 7.45368 5.49852 7.4351 5.50573 7.41818C5.52487 7.3738 5.57646 7.353 5.62084 7.37213L8.99806 8.81888L12.375 7.37213C12.4197 7.353 12.471 7.3738 12.4901 7.41818C12.4973 7.4351 12.499 7.45368 12.4951 7.47171L11.9565 10.3339C11.9512 10.358 11.9359 10.3788 11.9143 10.391L8.99806 11.8857Z" fill="#8C52FF"/>
</g>
</svg>
