<svg width="100" height="30" viewBox="0 0 100 30" fill="none" xmlns="http://www.w3.org/2000/svg">
<mask id="mask0_490_3650" style="mask-type:luminance" maskUnits="userSpaceOnUse" x="0" y="0" width="100" height="30">
<path d="M0 0H100V30H0V0Z" fill="white"/>
</mask>
<g mask="url(#mask0_490_3650)">
<mask id="mask1_490_3650" style="mask-type:luminance" maskUnits="userSpaceOnUse" x="0" y="0" width="100" height="30">
<path d="M84.6709 30H15.3447C11.2779 30 7.37811 28.4206 4.50393 25.6081C1.62975 22.7956 0.0117798 18.9795 0.0117798 15C0.0117798 11.0205 1.62975 7.20825 4.50393 4.39186C7.37811 1.57936 11.2779 0 15.3447 0H84.6709C88.7337 0 92.6335 1.57936 95.5077 4.39186C98.3859 7.20825 99.9999 11.0205 99.9999 15C99.9999 18.9795 98.3859 22.7956 95.5077 25.6081C92.6335 28.4206 88.7337 30 84.6709 30Z" fill="white"/>
</mask>
<g mask="url(#mask1_490_3650)">
<path d="M100 30H6.10352e-05V0H100V30Z" fill="#FFA500"/>
</g>
</g>
<mask id="mask2_490_3650" style="mask-type:luminance" maskUnits="userSpaceOnUse" x="0" y="0" width="100" height="30">
<path d="M0.0117188 0.124268H99.9879V29.9998H0.0117188V0.124268Z" fill="white"/>
</mask>
<g mask="url(#mask2_490_3650)">
<mask id="mask3_490_3650" style="mask-type:luminance" maskUnits="userSpaceOnUse" x="0" y="0" width="100" height="30">
<path d="M84.6631 30H15.3568C11.294 30 7.39415 28.4207 4.51997 25.6082C1.64579 22.7957 0.0317993 18.9834 0.0317993 15.0039C0.0317993 11.0283 1.64579 7.21217 4.51997 4.39967C7.39415 1.58717 11.294 0.0078125 15.3568 0.0078125H84.6631C88.7299 0.0078125 92.6257 1.58717 95.4999 4.39967C98.3741 7.21217 99.9881 11.0283 99.9881 15.0039C99.9881 18.9834 98.3741 22.7957 95.4999 25.6082C92.6257 28.4207 88.7299 30 84.6631 30Z" fill="white"/>
</mask>
<g mask="url(#mask3_490_3650)">
<path d="M84.6631 29.9998H15.3568C11.294 29.9998 7.39417 28.4204 4.51999 25.6079C1.64581 22.7954 0.0318172 18.9832 0.0318172 15.0036C0.0318172 11.028 1.64581 7.21189 4.51999 4.39939C7.39417 1.58689 11.294 0.00753249 15.3568 0.00753249H84.6631C88.7299 0.00753249 92.6257 1.58689 95.4999 4.39939C98.3741 7.21189 99.9881 11.028 99.9881 15.0036C99.9881 18.9832 98.3741 22.7954 95.4999 25.6079C92.6257 28.4204 88.7299 29.9998 84.6631 29.9998Z" stroke="#FFA500" stroke-width="4"/>
</g>
</g>
<mask id="mask4_490_3650" style="mask-type:luminance" maskUnits="userSpaceOnUse" x="70" y="2" width="23" height="24">
<path d="M70.5587 2.73071H92.6935V25.8842H70.5587V2.73071Z" fill="white"/>
</mask>
<g mask="url(#mask4_490_3650)">
<path d="M81.4671 4.86645H78.3186L79.1693 4.03398C79.4556 3.75779 79.4556 3.30265 79.1693 3.02257C78.8791 2.74638 78.418 2.74249 78.1318 3.02257L76.0328 5.07651C75.8936 5.20877 75.8181 5.3955 75.8181 5.58611C75.8181 5.77283 75.8976 5.95566 76.0328 6.09181L78.1318 8.14576C78.2749 8.2858 78.4617 8.35582 78.6525 8.35582C78.8394 8.35582 79.0262 8.2858 79.1693 8.14576C79.4556 7.86567 79.4556 7.41443 79.1693 7.13434L78.3186 6.29799H81.4671C86.6748 6.29799 90.9085 10.4409 90.9085 15.5368C90.9085 20.6289 86.6748 24.7757 81.4671 24.7757C76.2594 24.7757 72.0256 20.6328 72.0256 15.5368C72.0256 12.95 73.087 10.5537 75.023 8.78372C75.3172 8.51531 75.3331 8.06017 75.0588 7.77231C74.7805 7.48445 74.3154 7.46889 74.0212 7.7373C71.8189 9.74845 70.5587 12.5921 70.5587 15.5368C70.5587 21.4225 75.4524 26.2111 81.4671 26.2111C87.4778 26.2111 92.3715 21.4225 92.3715 15.5368C92.3715 9.65509 87.4778 4.86645 81.4671 4.86645Z" fill="white"/>
</g>
<path d="M81.4669 21.8154C85.0089 21.8154 87.8831 19.0067 87.8831 15.5368C87.8831 12.0708 85.0089 9.2583 81.4669 9.2583C77.9209 9.2583 75.0507 12.0708 75.0507 15.5368C75.0507 19.0067 77.9209 21.8154 81.4669 21.8154ZM78.6881 14.7705C79.0379 14.4282 79.6104 14.4282 79.9642 14.7705L80.8507 15.638L82.9696 13.5646C83.3234 13.2223 83.8958 13.2223 84.2457 13.5646C84.5995 13.9108 84.5995 14.471 84.2457 14.8133L81.4868 17.5091C81.3118 17.6841 81.0813 17.7697 80.8507 17.7697C80.6201 17.7697 80.3896 17.6841 80.2146 17.5091L78.6881 16.0192C78.3343 15.673 78.3343 15.1128 78.6881 14.7705Z" fill="white"/>
<path d="M14.782 18.081V12.386H17.1036C17.7078 12.386 18.161 12.526 18.4711 12.8061C18.7772 13.0784 18.9323 13.4519 18.9323 13.9264C18.9323 14.2688 18.8408 14.5488 18.6619 14.7667C18.4791 14.9845 18.2167 15.1557 17.8669 15.2802V15.358C18.0457 15.4319 18.1889 15.5447 18.2962 15.7003C18.4115 15.8559 18.5228 16.0854 18.6301 16.3849L19.2026 18.081H18.0259L17.4534 16.3849C17.3978 16.2099 17.3342 16.0737 17.2626 15.9804C17.1871 15.887 17.0917 15.8209 16.9764 15.7781C16.869 15.7392 16.7259 15.7159 16.547 15.7159H15.9269V18.081H14.782ZM16.9764 14.8134C17.525 14.8134 17.8033 14.5605 17.8033 14.0509C17.8033 13.5452 17.525 13.2885 16.9764 13.2885H15.9269V14.8134H16.9764Z" fill="white"/>
<path d="M23.7943 16.1826H20.9638C20.9956 16.556 21.099 16.8283 21.2818 16.9917C21.4727 17.159 21.731 17.2407 22.061 17.2407C22.3035 17.2407 22.5062 17.2018 22.6653 17.1162C22.8243 17.0228 22.9515 16.8828 23.0469 16.696H23.1264L23.8579 17.1473C23.7187 17.4507 23.5001 17.6919 23.2059 17.8786C22.9197 18.0653 22.538 18.1587 22.061 18.1587C21.6038 18.1587 21.2103 18.077 20.8843 17.9097C20.5543 17.7464 20.2999 17.4974 20.121 17.1629C19.9382 16.8205 19.8507 16.4121 19.8507 15.9336C19.8507 15.4473 19.9382 15.0389 20.121 14.7043C20.3118 14.3737 20.5663 14.1247 20.8843 13.9575C21.2103 13.7941 21.576 13.7085 21.9815 13.7085C22.5937 13.7085 23.0668 13.8719 23.3967 14.1909C23.7227 14.5137 23.8897 14.9844 23.8897 15.6068C23.8897 15.8363 23.8817 16.0114 23.8738 16.1359L23.7943 16.1826ZM22.8402 15.4824C22.8282 15.1517 22.7487 14.9144 22.6017 14.7666C22.4625 14.6227 22.2558 14.5487 21.9815 14.5487C21.417 14.5487 21.091 14.8599 20.9956 15.4824H22.8402Z" fill="white"/>
<path d="M27.241 18.0812H25.9212L24.2993 13.7866H25.4601L26.5414 16.852H26.6368L27.734 13.7866H28.863L27.241 18.0812Z" fill="white"/>
<path d="M30.1115 13.2728C29.9206 13.2728 29.7616 13.2184 29.6344 13.1017C29.5072 12.9772 29.4436 12.8216 29.4436 12.6349C29.4436 12.4598 29.5072 12.3159 29.6344 12.1992C29.7616 12.0747 29.9206 12.0125 30.1115 12.0125C30.2466 12.0125 30.3659 12.0397 30.4613 12.0903C30.5647 12.1447 30.6442 12.2225 30.6998 12.3237C30.7634 12.417 30.7952 12.522 30.7952 12.6349C30.7952 12.7593 30.7634 12.876 30.6998 12.9772C30.6442 13.0705 30.5647 13.1445 30.4613 13.195C30.3659 13.2495 30.2466 13.2728 30.1115 13.2728ZM29.5708 18.0809V13.7863H30.668V18.0809H29.5708Z" fill="white"/>
<path d="M33.3474 18.1587C33.0493 18.1587 32.775 18.1276 32.5206 18.0653C32.2741 17.9953 32.0634 17.902 31.8845 17.7853C31.7136 17.6608 31.5864 17.5207 31.5029 17.3651L32.1071 16.7116H32.1866C32.3337 16.91 32.5086 17.0539 32.7114 17.1473C32.9101 17.2407 33.1288 17.2873 33.3633 17.2873C33.574 17.2873 33.733 17.2523 33.8404 17.1784C33.9437 17.1084 33.9994 16.9995 33.9994 16.8516C33.9994 16.7505 33.9596 16.661 33.8881 16.5871C33.8125 16.5054 33.6853 16.4432 33.5064 16.4004L32.934 16.2759C32.4967 16.1748 32.1787 16.0192 31.9799 15.8091C31.7772 15.6029 31.6778 15.3384 31.6778 15.0155C31.6778 14.7471 31.7454 14.5137 31.8845 14.3153C32.0197 14.1208 32.2184 13.9691 32.4729 13.8641C32.7273 13.763 33.0215 13.7085 33.3633 13.7085C33.7529 13.7085 34.0789 13.7668 34.3333 13.8797C34.5957 13.9847 34.8024 14.1286 34.9535 14.3153L34.3651 14.9377H34.2856C34.1584 14.8055 34.0153 14.7043 33.8563 14.6421C33.7052 14.5799 33.5422 14.5487 33.3633 14.5487C32.926 14.5487 32.7114 14.6849 32.7114 14.9533C32.7114 15.07 32.7472 15.1634 32.8227 15.2334C32.9062 15.2956 33.0493 15.3501 33.252 15.389L33.7927 15.5135C34.2379 15.6068 34.5599 15.7585 34.7627 15.9647C34.9734 16.1748 35.0807 16.4471 35.0807 16.7894C35.0807 17.0617 35.0091 17.299 34.874 17.5052C34.7348 17.7152 34.5321 17.8747 34.2697 17.9875C34.0153 18.1004 33.7052 18.1587 33.3474 18.1587Z" fill="white"/>
<path d="M39.6804 16.1826H36.85C36.8818 16.556 36.9851 16.8283 37.168 16.9917C37.3588 17.159 37.6172 17.2407 37.9472 17.2407C38.1897 17.2407 38.3924 17.2018 38.5514 17.1162C38.7104 17.0228 38.8377 16.8828 38.9331 16.696H39.0126L39.744 17.1473C39.6049 17.4507 39.3863 17.6919 39.0921 17.8786C38.8059 18.0653 38.4242 18.1587 37.9472 18.1587C37.49 18.1587 37.0964 18.077 36.7705 17.9097C36.4405 17.7464 36.1861 17.4974 36.0072 17.1629C35.8243 16.8205 35.7369 16.4121 35.7369 15.9336C35.7369 15.4473 35.8243 15.0389 36.0072 14.7043C36.198 14.3737 36.4524 14.1247 36.7705 13.9575C37.0964 13.7941 37.4622 13.7085 37.8677 13.7085C38.4799 13.7085 38.9529 13.8719 39.2829 14.1909C39.6089 14.5137 39.7758 14.9844 39.7758 15.6068C39.7758 15.8363 39.7679 16.0114 39.7599 16.1359L39.6804 16.1826ZM38.7263 15.4824C38.7144 15.1517 38.6349 14.9144 38.4878 14.7666C38.3487 14.6227 38.142 14.5487 37.8677 14.5487C37.3032 14.5487 36.9772 14.8599 36.8818 15.4824H38.7263Z" fill="white"/>
<path d="M41.8868 16.1982H40.885L40.8055 12.386H41.9663L41.8868 16.1982ZM41.3779 18.1277C41.2388 18.1277 41.1155 18.1005 41.0122 18.0499C40.9168 17.9876 40.8373 17.9098 40.7737 17.8165C40.718 17.7153 40.6942 17.6064 40.6942 17.4897C40.6942 17.3652 40.718 17.2563 40.7737 17.163C40.8373 17.0618 40.9168 16.984 41.0122 16.9296C41.1155 16.879 41.2388 16.8518 41.3779 16.8518C41.5886 16.8518 41.7595 16.914 41.8868 17.0385C42.014 17.1552 42.0776 17.303 42.0776 17.4897C42.0776 17.6687 42.014 17.8165 41.8868 17.941C41.7595 18.0654 41.5886 18.1277 41.3779 18.1277Z" fill="white"/>
</svg>
