<svg width="34" height="34" viewBox="0 0 34 34" fill="none" xmlns="http://www.w3.org/2000/svg">
<mask id="mask0_67_382" style="mask-type:luminance" maskUnits="userSpaceOnUse" x="0" y="0" width="34" height="34">
<path d="M0 0H33.1042V33.1094H0V0Z" fill="white"/>
</mask>
<g mask="url(#mask0_67_382)">
<mask id="mask1_67_382" style="mask-type:luminance" maskUnits="userSpaceOnUse" x="0" y="0" width="34" height="34">
<path d="M16.5521 0C7.41146 0 0 7.41146 0 16.5573C0 25.6979 7.41146 33.1094 16.5521 33.1094C25.6927 33.1094 33.1042 25.6979 33.1042 16.5573C33.1042 7.41146 25.6927 0 16.5521 0Z" fill="white"/>
</mask>
<g mask="url(#mask1_67_382)">
<path d="M0 0H33.1042V33.1094H0V0Z" fill="#8C52FF"/>
</g>
</g>
<mask id="mask2_67_382" style="mask-type:luminance" maskUnits="userSpaceOnUse" x="8" y="9" width="3" height="4">
<path d="M8.375 9.27087H10.099V12.6302H8.375V9.27087Z" fill="white"/>
</mask>
<g mask="url(#mask2_67_382)">
<path d="M8.375 9.27087H8.92188V12.5417H8.375V9.27087Z" fill="white"/>
</g>
<mask id="mask3_67_382" style="mask-type:luminance" maskUnits="userSpaceOnUse" x="10" y="9" width="3" height="4">
<path d="M10.099 9.27087H12.7657V12.6302H10.099V9.27087Z" fill="white"/>
</mask>
<g mask="url(#mask3_67_382)">
<path d="M11.6459 12.5417C11.9479 12.5417 12.2031 12.4323 12.4167 12.2188C12.6302 12.0052 12.7344 11.75 12.7344 11.448V10.3594C12.7344 10.0573 12.6302 9.80212 12.4167 9.58858C12.2031 9.37504 11.9479 9.27087 11.6459 9.27087C11.3438 9.27087 11.0886 9.37504 10.875 9.58858C10.6615 9.80212 10.5573 10.0573 10.5573 10.3594V11.448C10.5573 11.75 10.6615 12.0052 10.875 12.2188C11.0886 12.4323 11.3438 12.5417 11.6459 12.5417ZM11.099 10.3594C11.099 10.2084 11.1511 10.0782 11.2604 9.974C11.3646 9.86983 11.4948 9.81254 11.6459 9.81254C11.7969 9.81254 11.9219 9.86983 12.0313 9.974C12.1354 10.0782 12.1927 10.2084 12.1927 10.3594V11.448C12.1927 11.599 12.1354 11.7292 12.0313 11.8334C11.9219 11.9427 11.7969 11.9948 11.6459 11.9948C11.4948 11.9948 11.3646 11.9427 11.2604 11.8334C11.1511 11.7292 11.099 11.599 11.099 11.448V10.3594Z" fill="white"/>
</g>
<mask id="mask4_67_382" style="mask-type:luminance" maskUnits="userSpaceOnUse" x="14" y="9" width="2" height="4">
<path d="M14.099 9.27087H15.4323V12.6302H14.099V9.27087Z" fill="white"/>
</mask>
<g mask="url(#mask4_67_382)">
<path d="M14.3698 9.27087H14.9167V12.5417H14.3698V9.27087Z" fill="white"/>
</g>
<mask id="mask5_67_382" style="mask-type:luminance" maskUnits="userSpaceOnUse" x="15" y="9" width="5" height="4">
<path d="M15.4323 9.27087H19.4323V12.6302H15.4323V9.27087Z" fill="white"/>
</mask>
<g mask="url(#mask5_67_382)">
<path d="M17.6407 12.5417C17.9427 12.5417 18.198 12.4323 18.4115 12.2188C18.625 12.0052 18.7292 11.75 18.7292 11.448V10.3594C18.7292 10.0573 18.625 9.80212 18.4115 9.58858C18.198 9.37504 17.9427 9.27087 17.6407 9.27087C17.3386 9.27087 17.0834 9.37504 16.8698 9.58858C16.6563 9.80212 16.5521 10.0573 16.5521 10.3594V11.448C16.5521 11.75 16.6563 12.0052 16.8698 12.2188C17.0834 12.4323 17.3386 12.5417 17.6407 12.5417ZM17.0938 10.3594C17.0938 10.2084 17.1511 10.0782 17.2552 9.974C17.3594 9.86983 17.4896 9.81254 17.6407 9.81254C17.7917 9.81254 17.9219 9.86983 18.0261 9.974C18.1303 10.0782 18.1875 10.2084 18.1875 10.3594V11.448C18.1875 11.599 18.1303 11.7292 18.0261 11.8334C17.9219 11.9427 17.7917 11.9948 17.6407 11.9948C17.4896 11.9948 17.3594 11.9427 17.2552 11.8334C17.1511 11.7292 17.0938 11.599 17.0938 11.448V10.3594Z" fill="white"/>
</g>
<mask id="mask6_67_382" style="mask-type:luminance" maskUnits="userSpaceOnUse" x="19" y="9" width="4" height="4">
<path d="M19.4323 9.27087H22.099V12.6302H19.4323V9.27087Z" fill="white"/>
</mask>
<g mask="url(#mask6_67_382)">
<path d="M20.3646 9.27087H20.9115V12.5417H20.3646V9.27087Z" fill="white"/>
</g>
<mask id="mask7_67_382" style="mask-type:luminance" maskUnits="userSpaceOnUse" x="22" y="9" width="3" height="4">
<path d="M22.099 9.27087H24.3646V12.6302H22.099V9.27087Z" fill="white"/>
</mask>
<g mask="url(#mask7_67_382)">
<path d="M23.6354 9.27087C23.3333 9.27087 23.0781 9.37504 22.8646 9.58858C22.651 9.80212 22.5469 10.0573 22.5469 10.3594V11.448C22.5469 11.75 22.651 12.0052 22.8646 12.2188C23.0781 12.4323 23.3333 12.5417 23.6354 12.5417C23.9375 12.5417 24.1927 12.4323 24.4063 12.2188C24.6198 12.0052 24.724 11.75 24.724 11.448V10.3594C24.724 10.0573 24.6198 9.80212 24.4063 9.58858C24.1927 9.37504 23.9375 9.27087 23.6354 9.27087ZM24.1823 11.448C24.1823 11.599 24.1302 11.7292 24.0208 11.8334C23.9167 11.9427 23.7865 11.9948 23.6354 11.9948C23.4844 11.9948 23.3594 11.9427 23.25 11.8334C23.1458 11.7292 23.0885 11.599 23.0885 11.448V10.3594C23.0885 10.2084 23.1458 10.0782 23.25 9.974C23.3594 9.86983 23.4844 9.81254 23.6354 9.81254C23.7865 9.81254 23.9167 9.86983 24.0208 9.974C24.1302 10.0782 24.1823 10.2084 24.1823 10.3594V11.448Z" fill="white"/>
</g>
<mask id="mask8_67_382" style="mask-type:luminance" maskUnits="userSpaceOnUse" x="8" y="17" width="3" height="5">
<path d="M8.375 17.9635H10.099V21.9635H8.375V17.9635Z" fill="white"/>
</mask>
<g mask="url(#mask8_67_382)">
<path d="M8.375 17.9895H8.92188V21.2603H8.375V17.9895Z" fill="white"/>
</g>
<path d="M10.5573 19.0782V20.1719C10.5573 20.4688 10.6615 20.7292 10.875 20.9427C11.0886 21.1511 11.3438 21.2605 11.6459 21.2605C11.9479 21.2605 12.2031 21.1511 12.4167 20.9427C12.6302 20.7292 12.7344 20.4688 12.7344 20.1719V19.0782C12.7344 18.7813 12.6302 18.5209 12.4167 18.3073C12.2031 18.0938 11.9479 17.9896 11.6459 17.9896C11.3438 17.9896 11.0886 18.0938 10.875 18.3073C10.6615 18.5209 10.5573 18.7813 10.5573 19.0782ZM12.1927 19.0782V20.1719C12.1927 20.323 12.1354 20.448 12.0313 20.5573C11.9219 20.6615 11.7969 20.7136 11.6459 20.7136C11.4948 20.7136 11.3646 20.6615 11.2604 20.5573C11.1511 20.448 11.099 20.323 11.099 20.1719V19.0782C11.099 18.9271 11.1511 18.8021 11.2604 18.6927C11.3646 18.5886 11.4948 18.5365 11.6459 18.5365C11.7969 18.5365 11.9219 18.5886 12.0313 18.6927C12.1354 18.8021 12.1927 18.9271 12.1927 19.0782Z" fill="white"/>
<path d="M14.3698 17.9896H14.9167V21.2605H14.3698V17.9896Z" fill="white"/>
<path d="M16.5521 19.0782V20.1719C16.5521 20.4688 16.6563 20.7292 16.8698 20.9427C17.0834 21.1511 17.3386 21.2605 17.6407 21.2605C17.9427 21.2605 18.198 21.1511 18.4115 20.9427C18.625 20.7292 18.7292 20.4688 18.7292 20.1719V19.0782C18.7292 18.7813 18.625 18.5209 18.4115 18.3073C18.198 18.0938 17.9427 17.9896 17.6407 17.9896C17.3386 17.9896 17.0834 18.0938 16.8698 18.3073C16.6563 18.5209 16.5521 18.7813 16.5521 19.0782ZM18.1875 19.0782V20.1719C18.1875 20.323 18.1303 20.448 18.0261 20.5573C17.9219 20.6615 17.7917 20.7136 17.6407 20.7136C17.4896 20.7136 17.3594 20.6615 17.2552 20.5573C17.1511 20.448 17.0938 20.323 17.0938 20.1719V19.0782C17.0938 18.9271 17.1511 18.8021 17.2552 18.6927C17.3594 18.5886 17.4896 18.5365 17.6407 18.5365C17.7917 18.5365 17.9219 18.5886 18.0261 18.6927C18.1303 18.8021 18.1875 18.9271 18.1875 19.0782Z" fill="white"/>
<path d="M20.3646 17.9896H20.9115V21.2605H20.3646V17.9896Z" fill="white"/>
<mask id="mask9_67_382" style="mask-type:luminance" maskUnits="userSpaceOnUse" x="22" y="17" width="3" height="5">
<path d="M22.099 17.9635H24.3646V21.9635H22.099V17.9635Z" fill="white"/>
</mask>
<g mask="url(#mask9_67_382)">
<path d="M23.6354 17.9895C23.3333 17.9895 23.0781 18.0937 22.8646 18.3072C22.651 18.5208 22.5469 18.7812 22.5469 19.078V20.1718C22.5469 20.4687 22.651 20.7291 22.8646 20.9426C23.0781 21.151 23.3333 21.2603 23.6354 21.2603C23.9375 21.2603 24.1927 21.151 24.4063 20.9426C24.6198 20.7291 24.724 20.4687 24.724 20.1718V19.078C24.724 18.7812 24.6198 18.5208 24.4063 18.3072C24.1927 18.0937 23.9375 17.9895 23.6354 17.9895ZM24.1823 20.1718C24.1823 20.3228 24.1302 20.4478 24.0208 20.5572C23.9167 20.6614 23.7865 20.7135 23.6354 20.7135C23.4844 20.7135 23.3594 20.6614 23.25 20.5572C23.1458 20.4478 23.0885 20.3228 23.0885 20.1718V19.078C23.0885 18.927 23.1458 18.802 23.25 18.6926C23.3594 18.5885 23.4844 18.5364 23.6354 18.5364C23.7865 18.5364 23.9167 18.5885 24.0208 18.6926C24.1302 18.802 24.1823 18.927 24.1823 19.078V20.1718Z" fill="white"/>
</g>
<mask id="mask10_67_382" style="mask-type:luminance" maskUnits="userSpaceOnUse" x="8" y="12" width="4" height="6">
<path d="M8.375 12.6302H11.4323V17.9636H8.375V12.6302Z" fill="white"/>
</mask>
<g mask="url(#mask10_67_382)">
<path d="M9.46354 16.9011C9.76562 16.9011 10.0208 16.7917 10.2344 16.5782C10.4479 16.3698 10.5573 16.1094 10.5573 15.8073V14.7188C10.5573 14.4167 10.4479 14.1615 10.2344 13.948C10.0208 13.7344 9.76562 13.6302 9.46354 13.6302C9.16146 13.6302 8.90625 13.7344 8.69271 13.948C8.47917 14.1615 8.375 14.4167 8.375 14.7188V15.8073C8.375 16.1094 8.47917 16.3698 8.69271 16.5782C8.90625 16.7917 9.16146 16.9011 9.46354 16.9011ZM8.92188 14.7188C8.92188 14.5677 8.97396 14.4427 9.07813 14.3334C9.1875 14.2292 9.3125 14.1719 9.46354 14.1719C9.61458 14.1719 9.74479 14.2292 9.84896 14.3334C9.95833 14.4427 10.0104 14.5677 10.0104 14.7188V15.8073C10.0104 15.9584 9.95833 16.0886 9.84896 16.1927C9.74479 16.3021 9.61458 16.3542 9.46354 16.3542C9.3125 16.3542 9.1875 16.3021 9.07813 16.1927C8.97396 16.0886 8.92188 15.9584 8.92188 15.8073V14.7188Z" fill="white"/>
</g>
<path d="M12.1927 13.6302H12.7344V16.9011H12.1927V13.6302Z" fill="white"/>
<path d="M15.4584 16.9011C15.7604 16.9011 16.0209 16.7917 16.2292 16.5782C16.4427 16.3698 16.5521 16.1094 16.5521 15.8073V14.7188C16.5521 14.4167 16.4427 14.1615 16.2292 13.948C16.0209 13.7344 15.7604 13.6302 15.4584 13.6302C15.1615 13.6302 14.9011 13.7344 14.6875 13.948C14.4792 14.1615 14.3698 14.4167 14.3698 14.7188V15.8073C14.3698 16.1094 14.4792 16.3698 14.6875 16.5782C14.9011 16.7917 15.1615 16.9011 15.4584 16.9011ZM14.9167 14.7188C14.9167 14.5677 14.9688 14.4427 15.0729 14.3334C15.1823 14.2292 15.3125 14.1719 15.4584 14.1719C15.6094 14.1719 15.7396 14.2292 15.8438 14.3334C15.9531 14.4427 16.0052 14.5677 16.0052 14.7188V15.8073C16.0052 15.9584 15.9531 16.0886 15.8438 16.1927C15.7396 16.3021 15.6094 16.3542 15.4584 16.3542C15.3125 16.3542 15.1823 16.3021 15.0729 16.1927C14.9688 16.0886 14.9167 15.9584 14.9167 15.8073V14.7188Z" fill="white"/>
<path d="M18.1875 13.6302H18.7292V16.9011H18.1875V13.6302Z" fill="white"/>
<mask id="mask11_67_382" style="mask-type:luminance" maskUnits="userSpaceOnUse" x="23" y="12" width="2" height="6">
<path d="M23.4323 12.6302H24.3646V17.9636H23.4323V12.6302Z" fill="white"/>
</mask>
<g mask="url(#mask11_67_382)">
<path d="M24.1823 13.6302H24.724V16.9011H24.1823V13.6302Z" fill="white"/>
</g>
<path d="M21.4584 16.9011C21.7553 16.9011 22.0157 16.7917 22.2292 16.5782C22.4375 16.3698 22.5469 16.1094 22.5469 15.8073V14.7188C22.5469 14.4167 22.4375 14.1615 22.2292 13.948C22.0157 13.7344 21.7553 13.6302 21.4584 13.6302C21.1563 13.6302 20.8959 13.7344 20.6875 13.948C20.474 14.1615 20.3646 14.4167 20.3646 14.7188V15.8073C20.3646 16.1094 20.474 16.3698 20.6875 16.5782C20.8959 16.7917 21.1563 16.9011 21.4584 16.9011ZM20.9115 14.7188C20.9115 14.5677 20.9636 14.4427 21.073 14.3334C21.1771 14.2292 21.3073 14.1719 21.4584 14.1719C21.6042 14.1719 21.7344 14.2292 21.8438 14.3334C21.948 14.4427 22 14.5677 22 14.7188V15.8073C22 15.9584 21.948 16.0886 21.8438 16.1927C21.7344 16.3021 21.6042 16.3542 21.4584 16.3542C21.3073 16.3542 21.1771 16.3021 21.073 16.1927C20.9636 16.0886 20.9115 15.9584 20.9115 15.8073V14.7188Z" fill="white"/>
<mask id="mask12_67_382" style="mask-type:luminance" maskUnits="userSpaceOnUse" x="8" y="21" width="4" height="5">
<path d="M8.375 21.9635H11.4323V25.2604H8.375V21.9635Z" fill="white"/>
</mask>
<g mask="url(#mask12_67_382)">
<path d="M9.46354 25.6197C9.76562 25.6197 10.0208 25.5155 10.2344 25.302C10.4479 25.0885 10.5573 24.8333 10.5573 24.5312V23.4426C10.5573 23.1405 10.4479 22.8801 10.2344 22.6718C10.0208 22.4583 9.76562 22.3489 9.46354 22.3489C9.16146 22.3489 8.90625 22.4583 8.69271 22.6718C8.47917 22.8801 8.375 23.1405 8.375 23.4426V24.5312C8.375 24.8333 8.47917 25.0885 8.69271 25.302C8.90625 25.5155 9.16146 25.6197 9.46354 25.6197ZM8.92188 23.4426C8.92188 23.2916 8.97396 23.1614 9.07813 23.0572C9.1875 22.9478 9.3125 22.8958 9.46354 22.8958C9.61458 22.8958 9.74479 22.9478 9.84896 23.0572C9.95833 23.1614 10.0104 23.2916 10.0104 23.4426V24.5312C10.0104 24.6822 9.95833 24.8072 9.84896 24.9166C9.74479 25.0208 9.61458 25.0728 9.46354 25.0728C9.3125 25.0728 9.1875 25.0208 9.07813 24.9166C8.97396 24.8072 8.92188 24.6822 8.92188 24.5312V23.4426Z" fill="white"/>
</g>
<mask id="mask13_67_382" style="mask-type:luminance" maskUnits="userSpaceOnUse" x="11" y="21" width="2" height="5">
<path d="M11.4323 21.9635H12.7656V25.2604H11.4323V21.9635Z" fill="white"/>
</mask>
<g mask="url(#mask13_67_382)">
<path d="M12.1927 22.3489H12.7344V25.6197H12.1927V22.3489Z" fill="white"/>
</g>
<mask id="mask14_67_382" style="mask-type:luminance" maskUnits="userSpaceOnUse" x="14" y="21" width="3" height="5">
<path d="M14.099 21.9635H16.7657V25.2604H14.099V21.9635Z" fill="white"/>
</mask>
<g mask="url(#mask14_67_382)">
<path d="M15.4584 25.6197C15.7604 25.6197 16.0209 25.5155 16.2292 25.302C16.4427 25.0885 16.5521 24.8333 16.5521 24.5312V23.4426C16.5521 23.1405 16.4427 22.8801 16.2292 22.6718C16.0209 22.4583 15.7604 22.3489 15.4584 22.3489C15.1615 22.3489 14.9011 22.4583 14.6875 22.6718C14.4792 22.8801 14.3698 23.1405 14.3698 23.4426V24.5312C14.3698 24.8333 14.4792 25.0885 14.6875 25.302C14.9011 25.5155 15.1615 25.6197 15.4584 25.6197ZM14.9167 23.4426C14.9167 23.2916 14.9688 23.1614 15.0729 23.0572C15.1823 22.9478 15.3125 22.8958 15.4584 22.8958C15.6094 22.8958 15.7396 22.9478 15.8438 23.0572C15.9531 23.1614 16.0052 23.2916 16.0052 23.4426V24.5312C16.0052 24.6822 15.9531 24.8072 15.8438 24.9166C15.7396 25.0208 15.6094 25.0728 15.4584 25.0728C15.3125 25.0728 15.1823 25.0208 15.0729 24.9166C14.9688 24.8072 14.9167 24.6822 14.9167 24.5312V23.4426Z" fill="white"/>
</g>
<mask id="mask15_67_382" style="mask-type:luminance" maskUnits="userSpaceOnUse" x="18" y="21" width="2" height="5">
<path d="M18.099 21.9635H19.4323V25.2604H18.099V21.9635Z" fill="white"/>
</mask>
<g mask="url(#mask15_67_382)">
<path d="M18.1875 22.3489H18.7292V25.6197H18.1875V22.3489Z" fill="white"/>
</g>
<mask id="mask16_67_382" style="mask-type:luminance" maskUnits="userSpaceOnUse" x="23" y="21" width="2" height="5">
<path d="M23.4323 21.9635H24.3646V25.2604H23.4323V21.9635Z" fill="white"/>
</mask>
<g mask="url(#mask16_67_382)">
<path d="M24.1823 22.3489H24.724V25.6197H24.1823V22.3489Z" fill="white"/>
</g>
<mask id="mask17_67_382" style="mask-type:luminance" maskUnits="userSpaceOnUse" x="19" y="21" width="5" height="5">
<path d="M19.4323 21.9635H23.4323V25.2604H19.4323V21.9635Z" fill="white"/>
</mask>
<g mask="url(#mask17_67_382)">
<path d="M21.4584 25.6197C21.7553 25.6197 22.0157 25.5155 22.2292 25.302C22.4375 25.0885 22.5469 24.8333 22.5469 24.5312V23.4426C22.5469 23.1405 22.4375 22.8801 22.2292 22.6718C22.0157 22.4583 21.7553 22.3489 21.4584 22.3489C21.1563 22.3489 20.8959 22.4583 20.6875 22.6718C20.474 22.8801 20.3646 23.1405 20.3646 23.4426V24.5312C20.3646 24.8333 20.474 25.0885 20.6875 25.302C20.8959 25.5155 21.1563 25.6197 21.4584 25.6197ZM20.9115 23.4426C20.9115 23.2916 20.9636 23.1614 21.073 23.0572C21.1771 22.9478 21.3073 22.8958 21.4584 22.8958C21.6042 22.8958 21.7344 22.9478 21.8438 23.0572C21.948 23.1614 22 23.2916 22 23.4426V24.5312C22 24.6822 21.948 24.8072 21.8438 24.9166C21.7344 25.0208 21.6042 25.0728 21.4584 25.0728C21.3073 25.0728 21.1771 25.0208 21.073 24.9166C20.9636 24.8072 20.9115 24.6822 20.9115 24.5312V23.4426Z" fill="white"/>
</g>
</svg>
