<svg width="34" height="34" viewBox="0 0 34 34" fill="none" xmlns="http://www.w3.org/2000/svg">
<mask id="mask0_66_179" style="mask-type:luminance" maskUnits="userSpaceOnUse" x="0" y="0" width="34" height="34">
<path d="M0 0H33.1042V33.1094H0V0Z" fill="white"/>
</mask>
<g mask="url(#mask0_66_179)">
<mask id="mask1_66_179" style="mask-type:luminance" maskUnits="userSpaceOnUse" x="0" y="0" width="34" height="34">
<path d="M16.5521 0C7.41146 0 0 7.41146 0 16.5521C0 25.6979 7.41146 33.1094 16.5521 33.1094C25.6927 33.1094 33.1042 25.6979 33.1042 16.5521C33.1042 7.41146 25.6927 0 16.5521 0Z" fill="white"/>
</mask>
<g mask="url(#mask1_66_179)">
<path d="M0 0H33.1042V33.1094H0V0Z" fill="#8C52FF"/>
</g>
</g>
<mask id="mask2_66_179" style="mask-type:luminance" maskUnits="userSpaceOnUse" x="7" y="11" width="8" height="11">
<path d="M7.25525 11.2084H14.099V21.875H7.25525V11.2084Z" fill="white"/>
</mask>
<g mask="url(#mask2_66_179)">
<path d="M11.9636 21.224C11.6927 21.224 11.5105 21.1302 11.323 20.948L7.6615 17.2813C7.29171 16.9167 7.29171 16.3646 7.6615 16L11.323 12.3334C11.6927 11.9688 12.2396 11.9688 12.6094 12.3334C12.974 12.7032 12.974 13.25 12.6094 13.6198L9.58337 16.6407L12.6094 19.6667C12.974 20.0313 12.974 20.5782 12.6094 20.948C12.4219 21.1302 12.2396 21.224 11.9636 21.224Z" fill="white"/>
</g>
<path d="M21.125 21.224C20.8542 21.224 20.6719 21.1302 20.4844 20.948C20.1198 20.5782 20.1198 20.0313 20.4844 19.6667L23.5104 16.6407L20.4844 13.6198C20.1198 13.25 20.1198 12.7032 20.4844 12.3334C20.8542 11.9688 21.401 11.9688 21.7708 12.3334L25.4323 16C25.8021 16.3646 25.8021 16.9167 25.4323 17.2813L21.7708 20.948C21.5833 21.1302 21.401 21.224 21.125 21.224Z" fill="white"/>
<mask id="mask3_66_179" style="mask-type:luminance" maskUnits="userSpaceOnUse" x="12" y="10" width="8" height="14">
<path d="M12.7656 10.0469H19.4323V23.0365H12.7656V10.0469Z" fill="white"/>
</mask>
<g mask="url(#mask3_66_179)">
<path d="M14.7135 23.0521C14.625 23.0521 14.5313 23.0521 14.4375 22.9635C13.9792 22.7812 13.7083 22.3229 13.8906 21.7708L17.5521 10.776C17.7396 10.3177 18.1979 10.0468 18.7448 10.2291C19.2031 10.4114 19.4792 10.8698 19.2969 11.4166L15.6302 22.4114C15.4479 22.7812 15.0833 23.0521 14.7135 23.0521Z" fill="white"/>
</g>
</svg>
