<svg width="34" height="34" viewBox="0 0 34 34" fill="none" xmlns="http://www.w3.org/2000/svg">
<mask id="mask0_67_256" style="mask-type:luminance" maskUnits="userSpaceOnUse" x="0" y="0" width="34" height="34">
<path d="M0 0H33.1042V33.1094H0V0Z" fill="white"/>
</mask>
<g mask="url(#mask0_67_256)">
<mask id="mask1_67_256" style="mask-type:luminance" maskUnits="userSpaceOnUse" x="0" y="0" width="34" height="34">
<path d="M16.5521 0C7.41146 0 0 7.41146 0 16.5521C0 25.6979 7.41146 33.1094 16.5521 33.1094C25.6927 33.1094 33.1042 25.6979 33.1042 16.5521C33.1042 7.41146 25.6927 0 16.5521 0Z" fill="white"/>
</mask>
<g mask="url(#mask1_67_256)">
<path d="M0 0H33.1042V33.1094H0V0Z" fill="#8C52FF"/>
</g>
</g>
<mask id="mask2_67_256" style="mask-type:luminance" maskUnits="userSpaceOnUse" x="6" y="10" width="21" height="17">
<path d="M6.38025 10.0625H26.3698V26.0573H6.38025V10.0625Z" fill="white"/>
</mask>
<g mask="url(#mask2_67_256)">
<path d="M26.0677 10.0625H7.02083C6.67188 10.0625 6.39062 10.349 6.39062 10.6979V23.3958C6.39062 23.7448 6.67188 24.0313 7.02083 24.0313H15.4323V25.4583H14.1667C14.0781 25.4583 14.0052 25.526 14.0052 25.6146C14.0052 25.7031 14.0781 25.776 14.1667 25.776H18.9271C19.0156 25.776 19.0833 25.7031 19.0833 25.6146C19.0833 25.526 19.0156 25.4583 18.9271 25.4583H17.6563V24.0313H26.0677C26.4167 24.0313 26.7031 23.7448 26.7031 23.3958V10.6979C26.7031 10.349 26.4167 10.0625 26.0677 10.0625ZM17.3385 25.4583H15.75V24.0313H17.3385V25.4583ZM26.3854 23.3958C26.3854 23.5677 26.2396 23.7135 26.0677 23.7135H7.02083C6.84896 23.7135 6.70833 23.5677 6.70833 23.3958V22.599H26.3854V23.3958ZM26.3854 22.2813H6.70833V11.651H26.3854V22.2813ZM26.3854 11.3333H6.70833V10.6979C6.70833 10.526 6.84896 10.3802 7.02083 10.3802H26.0677C26.2396 10.3802 26.3854 10.526 26.3854 10.6979V11.3333Z" fill="white"/>
</g>
<mask id="mask3_67_256" style="mask-type:luminance" maskUnits="userSpaceOnUse" x="6" y="11" width="6" height="4">
<path d="M6.38025 11.4895H11.4323V14.1562H6.38025V11.4895Z" fill="white"/>
</mask>
<g mask="url(#mask3_67_256)">
<path d="M7.50002 12.9218H10.5938C10.6823 12.9218 10.7552 12.8489 10.7552 12.7604C10.7552 12.6718 10.6823 12.6041 10.5938 12.6041H7.50002C7.41148 12.6041 7.33856 12.6718 7.33856 12.7604C7.33856 12.8489 7.41148 12.9218 7.50002 12.9218Z" fill="white"/>
</g>
<path d="M8.96356 13.3958C8.96356 13.4843 9.03648 13.5572 9.12502 13.5572H12.5469C12.6302 13.5572 12.7031 13.4843 12.7031 13.3958C12.7031 13.3072 12.6302 13.2395 12.5469 13.2395H9.12502C9.03648 13.2395 8.96356 13.3072 8.96356 13.3958Z" fill="white"/>
<mask id="mask4_67_256" style="mask-type:luminance" maskUnits="userSpaceOnUse" x="6" y="12" width="6" height="4">
<path d="M6.38025 12.8229H11.4323V15.4895H6.38025V12.8229Z" fill="white"/>
</mask>
<g mask="url(#mask4_67_256)">
<path d="M7.50002 14.1875H10.2604C10.349 14.1875 10.4167 14.1198 10.4167 14.0313C10.4167 13.9427 10.349 13.875 10.2604 13.875H7.50002C7.41148 13.875 7.33856 13.9427 7.33856 14.0313C7.33856 14.1198 7.41148 14.1875 7.50002 14.1875Z" fill="white"/>
</g>
<mask id="mask5_67_256" style="mask-type:luminance" maskUnits="userSpaceOnUse" x="6" y="14" width="6" height="2">
<path d="M6.38025 14.1562H11.4323V15.4896H6.38025V14.1562Z" fill="white"/>
</mask>
<g mask="url(#mask5_67_256)">
<path d="M7.50002 14.8228H10.7604C10.8438 14.8228 10.9167 14.7551 10.9167 14.6666C10.9167 14.578 10.8438 14.5051 10.7604 14.5051H7.50002C7.41148 14.5051 7.33856 14.578 7.33856 14.6666C7.33856 14.7551 7.41148 14.8228 7.50002 14.8228Z" fill="white"/>
</g>
<path d="M8.64062 15.3021C8.64062 15.3906 8.71354 15.4583 8.79688 15.4583H13.0313C13.1198 15.4583 13.1927 15.3906 13.1927 15.3021C13.1927 15.2135 13.1198 15.1406 13.0313 15.1406H8.79688C8.71354 15.1406 8.64062 15.2135 8.64062 15.3021Z" fill="white"/>
<path d="M12.2188 15.776H8.31252C8.22398 15.776 8.15106 15.8489 8.15106 15.9375C8.15106 16.026 8.22398 16.0937 8.31252 16.0937H12.2188C12.3073 16.0937 12.3802 16.026 12.3802 15.9375C12.3802 15.8489 12.3073 15.776 12.2188 15.776Z" fill="white"/>
<mask id="mask6_67_256" style="mask-type:luminance" maskUnits="userSpaceOnUse" x="6" y="15" width="7" height="2">
<path d="M6.38025 15.4895H12.7657V16.8228H6.38025V15.4895Z" fill="white"/>
</mask>
<g mask="url(#mask6_67_256)">
<path d="M7.50002 16.7291H11.3959C11.4844 16.7291 11.5573 16.6562 11.5573 16.5728C11.5573 16.4843 11.4844 16.4114 11.3959 16.4114H7.50002C7.41148 16.4114 7.33856 16.4843 7.33856 16.5728C7.33856 16.6562 7.41148 16.7291 7.50002 16.7291Z" fill="white"/>
</g>
<path d="M9.45312 17.2031C9.45312 17.2917 9.52083 17.3646 9.60938 17.3646H12.3802C12.4687 17.3646 12.5417 17.2917 12.5417 17.2031C12.5417 17.1198 12.4687 17.0469 12.3802 17.0469H9.60938C9.52083 17.0469 9.45312 17.1198 9.45312 17.2031Z" fill="white"/>
<path d="M9.77087 18H11.3959C11.4844 18 11.5573 17.927 11.5573 17.8385C11.5573 17.75 11.4844 17.6823 11.3959 17.6823H9.77087C9.68754 17.6823 9.61462 17.75 9.61462 17.8385C9.61462 17.927 9.68754 18 9.77087 18Z" fill="white"/>
<mask id="mask7_67_256" style="mask-type:luminance" maskUnits="userSpaceOnUse" x="6" y="18" width="7" height="2">
<path d="M6.38025 18.1562H12.7657V19.4896H6.38025V18.1562Z" fill="white"/>
</mask>
<g mask="url(#mask7_67_256)">
<path d="M7.50002 18.6353H11.3959C11.4844 18.6353 11.5573 18.5624 11.5573 18.4739C11.5573 18.3853 11.4844 18.3176 11.3959 18.3176H7.50002C7.41148 18.3176 7.33856 18.3853 7.33856 18.4739C7.33856 18.5624 7.41148 18.6353 7.50002 18.6353Z" fill="white"/>
</g>
<mask id="mask8_67_256" style="mask-type:luminance" maskUnits="userSpaceOnUse" x="6" y="18" width="6" height="2">
<path d="M6.38025 18.1562H11.4323V19.4896H6.38025V18.1562Z" fill="white"/>
</mask>
<g mask="url(#mask8_67_256)">
<path d="M7.50002 19.2708H11.2344C11.3229 19.2708 11.3906 19.1979 11.3906 19.1094C11.3906 19.0208 11.3229 18.9531 11.2344 18.9531H7.50002C7.41148 18.9531 7.33856 19.0208 7.33856 19.1094C7.33856 19.1979 7.41148 19.2708 7.50002 19.2708Z" fill="white"/>
</g>
<path d="M14.0052 19.5833H10.5834C10.4948 19.5833 10.4271 19.6562 10.4271 19.7447C10.4271 19.8333 10.4948 19.901 10.5834 19.901H14.0052C14.0938 19.901 14.1667 19.8333 14.1667 19.7447C14.1667 19.6562 14.0938 19.5833 14.0052 19.5833Z" fill="white"/>
<mask id="mask9_67_256" style="mask-type:luminance" maskUnits="userSpaceOnUse" x="6" y="19" width="7" height="2">
<path d="M6.38025 19.4895H12.7657V20.8228H6.38025V19.4895Z" fill="white"/>
</mask>
<g mask="url(#mask9_67_256)">
<path d="M7.50002 20.5365H11.3959C11.4844 20.5365 11.5573 20.4687 11.5573 20.3802C11.5573 20.2917 11.4844 20.2188 11.3959 20.2188H7.50002C7.41148 20.2188 7.33856 20.2917 7.33856 20.3802C7.33856 20.4687 7.41148 20.5365 7.50002 20.5365Z" fill="white"/>
</g>
<path d="M13.5208 20.8541H10.099C10.0104 20.8541 9.9375 20.927 9.9375 21.0156C9.9375 21.1041 10.0104 21.1718 10.099 21.1718H13.5208C13.6042 21.1718 13.6771 21.1041 13.6771 21.0156C13.6771 20.927 13.6042 20.8541 13.5208 20.8541Z" fill="white"/>
<path d="M22.0208 12.9218H25.5885C25.6771 12.9218 25.75 12.8489 25.75 12.7604C25.75 12.6718 25.6771 12.6041 25.5885 12.6041H22.0208C21.9323 12.6041 21.8594 12.6718 21.8594 12.7604C21.8594 12.8489 21.9323 12.9218 22.0208 12.9218Z" fill="white"/>
<path d="M20.5469 13.5572H23.9688C24.0573 13.5572 24.125 13.4843 24.125 13.3958C24.125 13.3072 24.0573 13.2395 23.9688 13.2395H20.5469C20.4584 13.2395 20.3854 13.3072 20.3854 13.3958C20.3854 13.4843 20.4584 13.5572 20.5469 13.5572Z" fill="white"/>
<path d="M25.5885 13.875H22.8281C22.7448 13.875 22.6719 13.9427 22.6719 14.0313C22.6719 14.1198 22.7448 14.1875 22.8281 14.1875H25.5885C25.6771 14.1875 25.75 14.1198 25.75 14.0313C25.75 13.9427 25.6771 13.875 25.5885 13.875Z" fill="white"/>
<path d="M25.5886 14.5051H21.8542C21.7709 14.5051 21.6979 14.578 21.6979 14.6666C21.6979 14.7551 21.7709 14.8228 21.8542 14.8228H25.5886C25.6771 14.8228 25.75 14.7551 25.75 14.6666C25.75 14.578 25.6771 14.5051 25.5886 14.5051Z" fill="white"/>
<path d="M20.0573 15.4583H24.2917C24.3802 15.4583 24.4531 15.3906 24.4531 15.3021C24.4531 15.2135 24.3802 15.1406 24.2917 15.1406H20.0573C19.9688 15.1406 19.9011 15.2135 19.9011 15.3021C19.9011 15.3906 19.9688 15.4583 20.0573 15.4583Z" fill="white"/>
<path d="M24.7813 16.0937C24.8646 16.0937 24.9375 16.026 24.9375 15.9375C24.9375 15.8489 24.8646 15.776 24.7813 15.776H20.8698C20.7813 15.776 20.7136 15.8489 20.7136 15.9375C20.7136 16.026 20.7813 16.0937 20.8698 16.0937H24.7813Z" fill="white"/>
<path d="M25.5886 16.4114H21.6927C21.6042 16.4114 21.5365 16.4843 21.5365 16.5728C21.5365 16.6562 21.6042 16.7291 21.6927 16.7291H25.5886C25.6771 16.7291 25.75 16.6562 25.75 16.5728C25.75 16.4843 25.6771 16.4114 25.5886 16.4114Z" fill="white"/>
<path d="M20.5521 17.2031C20.5521 17.2917 20.6198 17.3646 20.7084 17.3646H23.4792C23.5677 17.3646 23.6407 17.2917 23.6407 17.2031C23.6407 17.1198 23.5677 17.0469 23.4792 17.0469H20.7084C20.6198 17.0469 20.5521 17.1198 20.5521 17.2031Z" fill="white"/>
<path d="M21.6927 17.6823C21.6042 17.6823 21.5365 17.75 21.5365 17.8385C21.5365 17.927 21.6042 18 21.6927 18H23.3177C23.4063 18 23.474 17.927 23.474 17.8385C23.474 17.75 23.4063 17.6823 23.3177 17.6823H21.6927Z" fill="white"/>
<path d="M25.5886 18.3176H21.6927C21.6042 18.3176 21.5365 18.3853 21.5365 18.4739C21.5365 18.5624 21.6042 18.6353 21.6927 18.6353H25.5886C25.6771 18.6353 25.75 18.5624 25.75 18.4739C25.75 18.3853 25.6771 18.3176 25.5886 18.3176Z" fill="white"/>
<path d="M25.5886 18.9531H21.8542C21.7709 18.9531 21.6979 19.0208 21.6979 19.1094C21.6979 19.1979 21.7709 19.2708 21.8542 19.2708H25.5886C25.6771 19.2708 25.75 19.1979 25.75 19.1094C25.75 19.0208 25.6771 18.9531 25.5886 18.9531Z" fill="white"/>
<path d="M22.6667 19.7447C22.6667 19.6562 22.5938 19.5833 22.5052 19.5833H19.0834C18.9948 19.5833 18.9271 19.6562 18.9271 19.7447C18.9271 19.8333 18.9948 19.901 19.0834 19.901H22.5052C22.5938 19.901 22.6667 19.8333 22.6667 19.7447Z" fill="white"/>
<path d="M25.5886 20.2188H21.6927C21.6042 20.2188 21.5365 20.2917 21.5365 20.3802C21.5365 20.4687 21.6042 20.5365 21.6927 20.5365H25.5886C25.6771 20.5365 25.75 20.4687 25.75 20.3802C25.75 20.2917 25.6771 20.2188 25.5886 20.2188Z" fill="white"/>
<path d="M22.9948 20.8541H19.573C19.4844 20.8541 19.4115 20.927 19.4115 21.0156C19.4115 21.1041 19.4844 21.1718 19.573 21.1718H22.9948C23.0782 21.1718 23.1511 21.1041 23.1511 21.0156C23.1511 20.927 23.0782 20.8541 22.9948 20.8541Z" fill="white"/>
<path d="M25.1146 10.8593C25.1146 10.9635 25.0625 11.0156 24.9583 11.0156C24.849 11.0156 24.7969 10.9635 24.7969 10.8593C24.7969 10.75 24.849 10.6979 24.9583 10.6979C25.0625 10.6979 25.1146 10.75 25.1146 10.8593Z" fill="white"/>
<path d="M24.4792 10.8593C24.4792 10.9635 24.4271 11.0156 24.323 11.0156C24.2136 11.0156 24.1615 10.9635 24.1615 10.8593C24.1615 10.75 24.2136 10.6979 24.323 10.6979C24.4271 10.6979 24.4792 10.75 24.4792 10.8593Z" fill="white"/>
<path d="M23.8438 10.8593C23.8438 10.9635 23.7917 11.0156 23.6875 11.0156C23.5834 11.0156 23.5261 10.9635 23.5261 10.8593C23.5261 10.75 23.5834 10.6979 23.6875 10.6979C23.7917 10.6979 23.8438 10.75 23.8438 10.8593Z" fill="white"/>
<path d="M15.8646 18.7864C15.8802 18.7916 15.8959 18.7916 15.9115 18.7916C15.9792 18.7916 16.0417 18.7447 16.0625 18.677L17.0625 15.1875C17.0886 15.1041 17.0365 15.0156 16.9532 14.9895C16.8698 14.9635 16.7813 15.0156 16.7552 15.0989L15.7552 18.5885C15.7344 18.6718 15.7813 18.7604 15.8646 18.7864Z" fill="white"/>
<path d="M13.7552 17.177L15.1875 18.1979C15.2135 18.2187 15.25 18.2291 15.2813 18.2291C15.3281 18.2291 15.3802 18.2031 15.4063 18.1614C15.4583 18.0885 15.4427 17.9895 15.3698 17.9375L14.1198 17.0468L15.3698 16.1562C15.4427 16.1041 15.4583 16.0052 15.4063 15.9323C15.3594 15.8645 15.2604 15.8437 15.1875 15.8958L13.7552 16.9166C13.7135 16.9479 13.6875 16.9948 13.6875 17.0468C13.6875 17.0989 13.7135 17.1458 13.7552 17.177Z" fill="white"/>
<path d="M17.6823 18.1614C17.7136 18.2031 17.7605 18.2291 17.8125 18.2291C17.8438 18.2291 17.875 18.2187 17.9011 18.1979L19.3334 17.177C19.375 17.1458 19.4011 17.0989 19.4011 17.0468C19.4011 16.9948 19.375 16.9479 19.3334 16.9166L17.9011 15.8958C17.8334 15.8437 17.7344 15.8645 17.6823 15.9323C17.6303 16.0052 17.6459 16.1041 17.7188 16.1562L18.9688 17.0468L17.7188 17.9375C17.6459 17.9895 17.6303 18.0885 17.6823 18.1614Z" fill="white"/>
</svg>
