<svg width="34" height="34" viewBox="0 0 34 34" fill="none" xmlns="http://www.w3.org/2000/svg">
<mask id="mask0_67_284" style="mask-type:luminance" maskUnits="userSpaceOnUse" x="0" y="0" width="34" height="34">
<path d="M0 0H33.1042V33.1094H0V0Z" fill="white"/>
</mask>
<g mask="url(#mask0_67_284)">
<mask id="mask1_67_284" style="mask-type:luminance" maskUnits="userSpaceOnUse" x="0" y="0" width="34" height="34">
<path d="M16.5521 0C7.41146 0 0 7.41146 0 16.5573C0 25.6979 7.41146 33.1094 16.5521 33.1094C25.6927 33.1094 33.1042 25.6979 33.1042 16.5573C33.1042 7.41146 25.6927 0 16.5521 0Z" fill="white"/>
</mask>
<g mask="url(#mask1_67_284)">
<path d="M0 0H33.1042V33.1094H0V0Z" fill="#8C52FF"/>
</g>
</g>
<path d="M11.1094 9.599C11.1094 9.80733 11.0052 9.91671 10.7917 9.91671C10.5834 9.91671 10.4792 9.80733 10.4792 9.599C10.4792 9.39067 10.5834 9.2865 10.7917 9.2865C11.0052 9.2865 11.1094 9.39067 11.1094 9.599Z" fill="white"/>
<path d="M12.3646 9.599C12.3646 9.80733 12.2605 9.91671 12.0521 9.91671C11.8438 9.91671 11.7396 9.80733 11.7396 9.599C11.7396 9.39067 11.8438 9.2865 12.0521 9.2865C12.2605 9.2865 12.3646 9.39067 12.3646 9.599Z" fill="white"/>
<path d="M13.625 9.599C13.625 9.80733 13.5209 9.91671 13.3125 9.91671C13.099 9.91671 12.9948 9.80733 12.9948 9.599C12.9948 9.39067 13.099 9.2865 13.3125 9.2865C13.5209 9.2865 13.625 9.39067 13.625 9.599Z" fill="white"/>
<path d="M12.9948 12.1198C12.9948 12.3282 12.8907 12.4323 12.6823 12.4323C12.474 12.4323 12.3646 12.3282 12.3646 12.1198C12.3646 11.9063 12.474 11.8021 12.6823 11.8021C12.8907 11.8021 12.9948 11.9063 12.9948 12.1198Z" fill="white"/>
<path d="M12.9948 13.375C12.9948 13.5833 12.8907 13.6927 12.6823 13.6927C12.474 13.6927 12.3646 13.5833 12.3646 13.375C12.3646 13.1667 12.474 13.0625 12.6823 13.0625C12.8907 13.0625 12.9948 13.1667 12.9948 13.375Z" fill="white"/>
<path d="M12.9948 14.6355C12.9948 14.8438 12.8907 14.948 12.6823 14.948C12.474 14.948 12.3646 14.8438 12.3646 14.6355C12.3646 14.4271 12.474 14.3177 12.6823 14.3177C12.8907 14.3177 12.9948 14.4271 12.9948 14.6355Z" fill="white"/>
<path d="M12.9948 15.8958C12.9948 16.1042 12.8907 16.2083 12.6823 16.2083C12.474 16.2083 12.3646 16.1042 12.3646 15.8958C12.3646 15.6823 12.474 15.5781 12.6823 15.5781C12.8907 15.5781 12.9948 15.6823 12.9948 15.8958Z" fill="white"/>
<path d="M12.9948 17.7813C12.9948 17.9896 12.8907 18.0938 12.6823 18.0938C12.474 18.0938 12.3646 17.9896 12.3646 17.7813C12.3646 17.5729 12.474 17.4688 12.6823 17.4688C12.8907 17.4688 12.9948 17.5729 12.9948 17.7813Z" fill="white"/>
<path d="M13.9375 12.4323H14.5677C14.7448 12.4323 14.8854 12.2917 14.8854 12.1198C14.8854 11.9427 14.7448 11.8021 14.5677 11.8021H13.9375C13.7656 11.8021 13.625 11.9427 13.625 12.1198C13.625 12.2917 13.7656 12.4323 13.9375 12.4323Z" fill="white"/>
<path d="M17.401 13.375C17.401 13.2031 17.2604 13.0625 17.0885 13.0625H13.9375C13.7656 13.0625 13.625 13.2031 13.625 13.375C13.625 13.5469 13.7656 13.6927 13.9375 13.6927H17.0885C17.2604 13.6927 17.401 13.5469 17.401 13.375Z" fill="white"/>
<path d="M18.3438 13.6927H20.8646C21.0365 13.6927 21.1771 13.5469 21.1771 13.375C21.1771 13.2031 21.0365 13.0625 20.8646 13.0625H18.3438C18.1719 13.0625 18.0312 13.2031 18.0312 13.375C18.0312 13.5469 18.1719 13.6927 18.3438 13.6927Z" fill="white"/>
<path d="M18.974 15.5781C17.0677 15.5781 15.5156 17.1302 15.5156 19.0417C15.5156 20.9479 17.0677 22.5 18.974 22.5C20.8854 22.5 22.4375 20.9479 22.4375 19.0417C22.4375 17.1302 20.8854 15.5781 18.974 15.5781ZM18.974 21.875C17.4115 21.875 16.1406 20.6042 16.1406 19.0417C16.1406 17.4792 17.4115 16.2083 18.974 16.2083C20.5365 16.2083 21.8073 17.4792 21.8073 19.0417C21.8073 20.6042 20.5365 21.875 18.974 21.875Z" fill="white"/>
<path d="M20.0625 17.5001C19.9011 17.4219 19.7136 17.4844 19.6407 17.6407L18.6198 19.6719L18.2917 19.1824C18.1927 19.0365 18 18.9949 17.8542 19.0938C17.7084 19.1928 17.6667 19.3855 17.7657 19.5313L18.3959 20.474C18.4584 20.5626 18.5521 20.6199 18.6615 20.6199C18.6667 20.6199 18.6719 20.6199 18.6823 20.6199C18.7917 20.6094 18.8907 20.5417 18.9428 20.4428L20.2032 17.9271C20.2761 17.7657 20.2136 17.5782 20.0625 17.5001Z" fill="white"/>
<mask id="mask2_67_284" style="mask-type:luminance" maskUnits="userSpaceOnUse" x="7" y="8" width="20" height="20">
<path d="M7.95837 8.02612H26.948V27.0157H7.95837V8.02612Z" fill="white"/>
</mask>
<g mask="url(#mask2_67_284)">
<path d="M22.6511 24.4949L24.6927 26.5365C24.9323 26.7761 25.25 26.9063 25.5834 26.9063C25.9167 26.9063 26.2344 26.7761 26.474 26.5365C26.9636 26.047 26.9636 25.2501 26.474 24.7553L24.4271 22.7084C24.3125 22.599 24.1302 22.5886 24.0105 22.6876L22.9323 21.6095C23.4115 20.8699 23.698 19.9897 23.698 19.0417V12.1199C23.698 11.3595 23.1511 10.7188 22.4375 10.573V8.96883C22.4375 8.45321 22.0105 8.02612 21.4948 8.02612H10.1615C9.64587 8.02612 9.21879 8.45321 9.21879 8.96883V10.573C8.50525 10.7188 7.95837 11.3595 7.95837 12.1199V21.5574C7.95837 22.4272 8.66671 23.1303 9.5365 23.1303H13.8542L13.3802 25.0209H12.3646C11.4948 25.0209 10.7917 25.724 10.7917 26.5938C10.7917 26.7657 10.9323 26.9063 11.1094 26.9063H20.5469C20.724 26.9063 20.8646 26.7657 20.8646 26.5938C20.8646 25.724 20.1615 25.0209 19.2917 25.0209H18.2761L17.9323 23.6407C18.2657 23.7188 18.6146 23.7605 18.974 23.7605C19.9219 23.7605 20.8021 23.4792 21.5417 23.0001L22.6198 24.073C22.5261 24.2032 22.5365 24.3803 22.6511 24.4949ZM24.2084 23.3803L26.0261 25.198C26.2709 25.4428 26.2709 25.8438 26.0261 26.0886C25.9115 26.2084 25.7553 26.2761 25.5834 26.2761C25.4167 26.2761 25.2553 26.2084 25.1407 26.0886L23.3177 24.2709L24.2084 23.3803ZM22.4375 11.2292C22.8021 11.3595 23.0677 11.7084 23.0677 12.1199V16.6876C22.8907 16.3803 22.6771 16.0938 22.4375 15.8334V11.2292ZM9.849 8.96883C9.849 8.79696 9.98962 8.65633 10.1615 8.65633H21.4948C21.6667 8.65633 21.8073 8.79696 21.8073 8.96883V10.5417H9.849V8.96883ZM15.198 14.948H16.625C16.3177 15.1251 16.0313 15.3386 15.7709 15.5782H15.198C15.0261 15.5782 14.8855 15.7188 14.8855 15.8959C14.8855 16.0678 15.0261 16.2084 15.198 16.2084H15.2032C14.9167 16.5834 14.6875 17.0105 14.5261 17.4688H13.9375C13.7657 17.4688 13.625 17.6095 13.625 17.7813C13.625 17.9532 13.7657 18.0938 13.9375 18.0938H14.349C14.3073 18.3022 14.2761 18.5157 14.2657 18.724H11.7396V11.172H21.8073V15.2657C21.0157 14.672 20.0365 14.3178 18.974 14.3178C18.4219 14.3178 17.8959 14.4167 17.3959 14.5938C17.3803 14.4376 17.2448 14.3178 17.0886 14.3178H15.198C15.0261 14.3178 14.8855 14.4636 14.8855 14.6355C14.8855 14.8074 15.0261 14.948 15.198 14.948ZM9.849 11.172H11.1094V18.724H10.1615C9.98962 18.724 9.849 18.5834 9.849 18.4115V11.172ZM8.58858 12.1199C8.58858 11.7084 8.85421 11.3595 9.21879 11.2292V18.4115C9.21879 18.9324 9.64587 19.3542 10.1615 19.3542H14.2657C14.2813 19.5678 14.3073 19.7813 14.349 19.9845H8.58858V12.1199ZM9.5365 22.5001C9.01567 22.5001 8.58858 22.0782 8.58858 21.5574V20.6147H14.5261C14.7865 21.3438 15.2136 21.9845 15.7709 22.5001H9.5365ZM16.625 23.1303C16.8177 23.2449 17.0209 23.3438 17.2292 23.4272L17.625 25.0209H14.0261L14.5 23.1303H16.625ZM19.2917 25.6511C19.698 25.6511 20.0469 25.9115 20.1771 26.2761H11.4792C11.6094 25.9115 11.9584 25.6511 12.3646 25.6511H19.2917ZM18.974 23.1303C16.7188 23.1303 14.8855 21.297 14.8855 19.0417C14.8855 16.7865 16.7188 14.948 18.974 14.948C21.2292 14.948 23.0677 16.7865 23.0677 19.0417C23.0677 21.297 21.2292 23.1303 18.974 23.1303ZM22.0521 22.6147C22.2292 22.4636 22.3959 22.297 22.5521 22.1147L23.5677 23.1303L23.0677 23.6303L22.0521 22.6147Z" fill="white"/>
</g>
</svg>
