<svg width="22" height="22" viewBox="0 0 22 22" fill="none" xmlns="http://www.w3.org/2000/svg">
<mask id="mask0_36_295" style="mask-type:luminance" maskUnits="userSpaceOnUse" x="0" y="0" width="22" height="22">
<path d="M0 0H21.026V21.026H0V0Z" fill="white"/>
</mask>
<g mask="url(#mask0_36_295)">
<mask id="mask1_36_295" style="mask-type:luminance" maskUnits="userSpaceOnUse" x="0" y="0" width="22" height="22">
<path d="M10.5104 0C4.70312 0 0 4.70833 0 10.5156C0 16.3229 4.70312 21.026 10.5104 21.026C16.3177 21.026 21.026 16.3229 21.026 10.5156C21.026 4.70833 16.3177 0 10.5104 0Z" fill="white"/>
</mask>
<g mask="url(#mask1_36_295)">
<path d="M0 0H21.026V21.026H0V0Z" fill="white"/>
</g>
</g>
<mask id="mask2_36_295" style="mask-type:luminance" maskUnits="userSpaceOnUse" x="6" y="6" width="11" height="11">
<path d="M6 6H16.6667V16.6667H6V6Z" fill="white"/>
</mask>
<g mask="url(#mask2_36_295)">
<mask id="mask3_36_295" style="mask-type:luminance" maskUnits="userSpaceOnUse" x="4" y="5" width="14" height="14">
<path d="M8.31771 5.15619L17.375 14.2187L13.4948 18.0989L4.4375 9.04161L8.31771 5.15619Z" fill="white"/>
</mask>
<g mask="url(#mask3_36_295)">
<mask id="mask4_36_295" style="mask-type:luminance" maskUnits="userSpaceOnUse" x="4" y="5" width="14" height="14">
<path d="M8.31771 5.15619L17.375 14.2187L13.4948 18.0989L4.4375 9.04161L8.31771 5.15619Z" fill="white"/>
</mask>
<g mask="url(#mask4_36_295)">
<mask id="mask5_36_295" style="mask-type:luminance" maskUnits="userSpaceOnUse" x="4" y="5" width="14" height="14">
<path d="M8.31771 5.15619L17.375 14.2187L13.4948 18.0989L4.4375 9.04161L8.31771 5.15619Z" fill="white"/>
</mask>
<g mask="url(#mask5_36_295)">
<path d="M15.2865 12.1197C15.2135 12.0468 15.099 12.0156 15.0052 12.052C14.9063 12.0885 14.849 12.177 14.849 12.2812L14.8802 15.2343L6.79688 7.15097C6.72917 7.08327 6.63542 7.05201 6.54688 7.07285C6.45834 7.09368 6.39063 7.16139 6.3698 7.24993C6.34896 7.33847 6.375 7.43222 6.44271 7.49993L14.5313 15.5833L11.5781 15.552C11.4375 15.552 11.3281 15.6666 11.3385 15.8072C11.3438 15.9478 11.4635 16.0676 11.6094 16.0676L15.4063 16.1093L15.3646 12.3124C15.3646 12.2395 15.3333 12.1718 15.2865 12.1197Z" fill="black"/>
</g>
</g>
</g>
</g>
</svg>
