<svg width="186" height="137" viewBox="0 0 186 137" fill="none" xmlns="http://www.w3.org/2000/svg">
<mask id="mask0_33_668" style="mask-type:luminance" maskUnits="userSpaceOnUse" x="0" y="0" width="186" height="133">
<path d="M0.375 0.750854H185.427V132.581H0.375V0.750854Z" fill="white"/>
</mask>
<g mask="url(#mask0_33_668)">
<mask id="mask1_33_668" style="mask-type:luminance" maskUnits="userSpaceOnUse" x="0" y="0" width="186" height="133">
<path d="M8.36979 0.750854H177.427C179.547 0.750854 181.578 1.57027 183.078 3.02702C184.578 4.48376 185.422 6.45643 185.422 8.52016V124.817C185.422 126.876 184.578 128.848 183.078 130.305C181.578 131.762 179.547 132.581 177.427 132.581H8.36979C6.25 132.581 4.21354 131.762 2.71354 130.305C1.21354 128.848 0.375 126.876 0.375 124.817V8.52016C0.375 6.45643 1.21354 4.48376 2.71354 3.02702C4.21354 1.57027 6.25 0.750854 8.36979 0.750854Z" fill="white"/>
</mask>
<g mask="url(#mask1_33_668)">
<path d="M0.375 0.750854H185.427V132.581H0.375V0.750854Z" fill="#FF3131"/>
</g>
</g>
<path d="M134.594 123.153L126.995 122.065C126.995 122.065 121.109 120.766 117.963 121.115C114.818 121.464 112.578 121.226 110.739 122.667C108.901 124.104 109.5 125.586 109.5 125.586C109.5 125.586 108.052 127.022 108.239 127.624C108.427 128.221 108.193 130.432 108.781 130.963C109.375 131.494 109.614 131.519 109.614 131.519C109.89 132.02 110.406 132.359 110.979 132.399C111.958 132.47 115.177 131.029 116.151 131.059C117.13 131.084 121.609 131.448 123.922 131.14C126.234 130.836 127.469 130.037 127.469 130.037L137.021 132.956C137.021 132.956 136.693 125.889 134.594 123.153Z" fill="#FEC3AA"/>
<path d="M80.9322 77.2097C80.328 76.4713 79.6666 75.7732 78.9478 75.1308C77.9322 74.2912 77.0416 71.9999 78.0885 71.4131C79.1353 70.8264 82.8853 74.013 84.151 75.5911C85.4114 77.1693 88.6041 81.6811 89.552 84.2051C90.4999 86.7342 89.7239 88.0342 90.052 88.631L92.651 93.5627C92.651 93.5627 90.4114 95.1408 87.9582 96.1171C85.4999 97.0983 84.4062 97.1388 84.4062 97.1388C84.4062 97.1388 81.8801 92.3892 81.4791 92.1515C81.078 91.9137 79.3801 91.1348 78.7655 90.1839C78.3749 89.5567 78.0885 88.8839 77.901 88.1707C77.901 88.1707 75.9895 87.7509 75.1874 86.2739C74.3801 84.7919 73.9218 83.6083 74.2082 82.627C74.4947 81.6508 75.0416 81.1045 75.802 80.8668C76.078 80.1283 76.578 79.4859 77.2551 79.0408C78.3332 78.3681 78.4062 78.5097 78.5207 78.5501C78.6353 78.5906 78.9478 76.9315 80.9322 77.2097Z" fill="#FEC3AA"/>
<mask id="mask2_33_668" style="mask-type:luminance" maskUnits="userSpaceOnUse" x="83" y="78" width="84" height="59">
<path d="M83.3335 78.2413H166.693V136.491H83.3335V78.2413Z" fill="white"/>
</mask>
<g mask="url(#mask2_33_668)">
<path d="M84.3647 97.2498C84.2085 97.2498 91.7189 119.106 95.1824 122.318C98.6407 125.53 106.646 121.883 108.266 120.583C109.891 119.288 116.813 112.374 116.813 112.374C116.813 112.374 118.537 115.459 119.042 117.275C119.542 119.091 120.766 120.78 120.662 120.932C120.563 121.089 129.167 122.414 130.891 122.556C132.141 122.677 133.375 122.889 134.594 123.153C134.594 123.153 137.427 129.536 137.021 132.955C137.021 132.955 147.339 135.57 153.453 136C159.573 136.435 164.083 133.891 165.261 130.821C166.443 127.75 166.151 122.272 165.912 121.018C165.667 119.759 162.891 95.4339 162.891 95.4339C162.891 95.4339 161.167 88.9949 156.182 87.4623C151.198 85.9246 146.156 82.8948 145.511 81.7466C144.865 80.6035 145.453 79.865 144.766 79.5261C144.078 79.1922 133.219 78.3829 133.219 78.3829C133.219 78.3829 132.271 78.4234 132.328 79.0961C132.386 79.7638 132.026 80.826 131.234 81.1194C130.443 81.4128 125.016 81.9843 123.193 81.9843C121.365 81.9843 116.615 83.2286 114.833 85.6717C113.052 88.1148 109.302 96.7187 108.021 98.6863C106.745 100.659 100.307 107.917 100.307 107.917L92.7553 93.6029C92.7553 93.6029 86.0887 97.2498 84.3647 97.2498Z" fill="#A3DFBE"/>
</g>
<path d="M130.198 55.1161C130.198 55.1161 125.302 55.804 124.339 58.8895C123.375 61.9749 124.427 64.3624 124.427 65.5207C124.427 66.679 124.641 71.4842 125.042 72.5464C125.448 73.6086 127.688 77.3061 130.328 78.0345C132.974 78.7578 134.953 78.6364 134.953 78.6364L144.161 79.3193C144.161 79.3193 143.286 75.116 143.802 72.5869C143.802 72.5869 143.589 72.5869 144.734 71.4286C145.885 70.2703 146.719 68.9147 146.589 67.4074C146.458 65.9 145.354 65.3538 144.563 65.4802C143.776 65.6067 142.797 66.33 142.797 66.33C142.797 66.33 140.068 65.7888 138.474 61.1504C136.88 56.5121 135.115 53.4722 132.526 53.4014C130.818 53.3559 130.198 55.1161 130.198 55.1161Z" fill="#FEC3AA"/>
<path d="M124.323 64.7973C124.323 64.7973 121.469 62.855 122.286 58.763C123.104 54.6709 126.167 51.1505 127.943 49.977C129.724 48.8035 133.219 47.3417 138.859 47.4783C144.505 47.6199 146.359 49.7949 147.453 51.0392C148.542 52.2835 150.01 54.1803 150.01 54.1803C150.01 54.1803 151.474 52.2127 153.396 52.8702C155.323 53.5278 157.995 54.767 159.302 57.9233C160.609 61.0796 159.646 66.4412 158.786 68.1762C157.922 69.9061 156.901 74.3876 157.391 76.5524C157.88 78.7173 159.302 80.169 159.417 80.1033C159.531 80.0324 157.995 81.1604 155.021 80.169C152.047 79.1776 149.75 74.7517 149.292 72.8549C149.016 71.7371 148.943 70.5889 149.062 69.4458C149.062 69.4458 145.266 72.8954 144.667 73.4822C144.062 74.0689 143.76 75.7178 143.76 75.7178L143.802 72.5869C143.802 72.5869 146.156 70.4372 146.505 68.6769C146.849 66.9167 146.391 65.8292 145.37 65.4954C144.349 65.1565 142.797 66.3299 142.797 66.3299C142.797 66.3299 140.214 65.2424 138.818 61.8788C137.427 58.5101 136.635 55.283 135.125 55.0604C133.62 54.8379 131.74 55.5106 131.74 55.5106C131.74 55.5106 130.13 54.8126 129.109 54.9896C128.089 55.1717 125.531 56.3047 124.771 58.1762C124.01 60.0477 123.766 62.2379 124.323 64.7973Z" fill="#734C4C"/>
<path d="M149.953 97.7107C149.995 104.443 150.771 111.17 151.417 117.877C151.589 119.607 151.76 121.352 151.917 123.097C151.964 123.573 152.724 123.573 152.682 123.097C152.089 116.395 151.286 109.693 150.901 102.961C150.797 101.216 150.724 99.4709 150.714 97.7107C150.714 97.2352 149.953 97.2352 149.953 97.7107Z" fill="black"/>
<path d="M84.5677 84.6806C83.776 83.1986 82.2968 82.3084 81.25 81.0489C80.9895 80.7454 80.6718 80.3357 80.7031 79.931C80.7291 79.5264 81.1927 79.3038 81.5781 79.2887C81.9687 79.2785 82.526 79.4606 82.9583 79.6276C83.375 79.7793 83.776 79.9614 84.1666 80.1587C85.0677 80.6038 85.8854 81.2158 86.5625 81.9594C86.8802 82.3235 87.4114 81.7924 87.0937 81.4283C86.4166 80.6746 85.5989 80.0423 84.6979 79.582C84.2343 79.3443 83.75 79.1369 83.2604 78.9548C82.7552 78.7576 82.2395 78.5653 81.6927 78.5502C80.6718 78.5097 79.7395 79.2785 79.9843 80.3256C80.2291 81.3726 81.0625 81.9998 81.7343 82.627C82.4114 83.2542 83.3906 84.0787 83.9062 85.06C84.1197 85.4748 84.7812 85.1005 84.5677 84.6806Z" fill="black"/>
<path d="M81.9376 77.67C81.2501 76.2739 79.8699 75.5051 78.8907 74.3468C78.3907 73.76 77.8439 72.8394 78.0887 72.0453C78.2345 71.58 78.6928 71.7772 79.021 71.929C79.3074 72.0706 79.5835 72.2224 79.8543 72.3943C82.3126 73.8561 84.3491 76.1475 85.9324 78.4692C87.0105 80.1029 87.9585 81.8176 88.7449 83.6082C89.2501 84.7109 89.7085 85.8945 89.6095 87.1236C89.5522 87.503 89.5366 87.8925 89.5939 88.2819C89.6668 88.6461 89.8803 88.9395 90.0522 89.2632C90.8282 90.6744 91.547 92.1261 92.323 93.5323C93.3126 95.3785 94.3647 97.1792 95.4532 98.9647C95.698 99.3846 96.3595 99.0103 96.0991 98.6056C95.0782 96.9162 94.0887 95.2116 93.1407 93.4767C92.3491 92.0401 91.6355 90.5581 90.8439 89.1216C90.6564 88.8029 90.3855 88.4539 90.3282 88.0897C90.271 87.7255 90.3699 87.2501 90.3855 86.8201C90.4116 85.4899 89.8543 84.2051 89.2918 83.0063C88.4012 81.064 87.3543 79.1115 86.073 77.3766C85.1564 76.1222 84.1199 74.9487 82.9741 73.8713C81.9532 72.9103 80.8022 71.9745 79.5105 71.3422C78.8907 71.0489 77.9897 70.7454 77.5262 71.4586C77.0678 72.1667 77.3126 73.148 77.6564 73.8308C78.4897 75.5354 80.4428 76.3447 81.2762 78.0342C81.4949 78.4692 82.1407 78.0898 81.9376 77.67Z" fill="black"/>
<path d="M75.8905 80.5736C74.7863 80.3966 74.1092 81.5246 73.9061 82.435C73.6196 83.649 74.0103 84.8225 74.5988 85.8847C74.854 86.345 75.1144 86.8862 75.4738 87.2807C75.6457 87.4476 75.8176 87.5842 76.0207 87.7258C76.6248 88.171 77.4426 88.6211 78.2186 88.3834C78.9946 88.1457 79.4217 87.2807 79.1092 86.4562C78.9478 86.0061 78.203 86.2033 78.3748 86.6485C78.4634 86.8609 78.5467 87.1239 78.4478 87.3465C78.3488 87.5741 77.9009 87.741 77.5988 87.6955C77.0519 87.5994 76.4061 87.1947 76.0363 86.7749C75.6613 86.3551 75.5311 86.0061 75.3176 85.6318C75.0155 85.126 74.7863 84.5847 74.6405 84.0132C74.5103 83.4264 74.5415 82.8245 74.7394 82.2631C74.8696 81.914 75.2134 81.216 75.6873 81.302C76.1613 81.388 76.38 80.6596 75.8905 80.5736Z" fill="black"/>
<path d="M78.3908 78.2869C77.271 78.3426 76.3804 79.0102 75.9325 79.9865C75.4897 80.9677 75.62 82.2778 76.1043 83.34C76.6095 84.3617 77.2554 85.3076 78.0314 86.1624C78.547 86.7492 79.2085 87.5029 80.0731 87.3612C80.672 87.2651 81.2033 87.0122 81.4637 86.4255C81.7241 85.8387 81.6356 85.2823 81.2606 84.9586C80.8908 84.6399 80.3595 85.1559 80.7189 85.4745C81.0783 85.7983 80.646 86.4811 80.2137 86.5924C79.7814 86.7037 79.7554 86.6935 79.4793 86.5115C78.6356 85.9399 78.0002 84.989 77.4585 84.1645C76.9116 83.34 76.1772 82.0299 76.4377 80.8565C76.6356 79.9055 77.3439 79.0659 78.3908 79.0254C78.8804 78.9951 78.8804 78.2566 78.3908 78.2869Z" fill="black"/>
<path d="M82.8437 84.3718C82.8594 84.736 82.7396 85.2114 82.2969 85.2418C81.4792 85.3075 80.8021 84.4173 80.401 83.8407C79.5104 82.6115 78.5885 81.1042 78.7187 79.5564C78.776 78.8989 79.0625 78.0036 79.7396 77.7102C80.1875 77.518 80.6875 77.5585 81.1042 77.7962C81.5052 78.0744 81.8802 77.432 81.4948 77.1538C81.1042 76.8756 80.4427 76.8301 79.9114 76.9009C79.3802 76.9717 78.6614 77.518 78.3489 78.1604C77.7552 79.3339 77.875 80.7704 78.4062 81.9287C78.7656 82.7127 79.2083 83.4664 79.7135 84.1796C80.3021 85.004 81.0885 85.9499 82.2083 85.9803C83.3333 86.0056 83.6302 85.1963 83.6042 84.3718C83.5885 83.8963 82.8281 83.8963 82.8437 84.3718Z" fill="black"/>
<path d="M77.6876 88.2011C78.3334 90.0018 79.2813 91.929 81.3751 92.3893L81.1459 92.2224C82.3126 94.1647 83.4741 96.0918 84.3803 98.1556C84.5678 98.6057 85.2293 98.2264 85.0418 97.7964C84.1772 95.8238 83.0886 94.0079 81.9949 92.1667C81.8647 91.929 81.7918 91.7469 81.5209 91.666C81.0209 91.5092 80.547 91.2563 80.1407 90.9376C79.2084 90.1688 78.8074 89.0964 78.4168 88.0039C78.2605 87.5588 77.5261 87.751 77.6876 88.2011Z" fill="black"/>
<path d="M113.698 122.207C112.734 122.566 111.828 123.072 110.995 123.669C110.234 124.256 109.557 124.928 108.958 125.667C108.239 126.562 107.479 127.887 108.453 128.894C108.781 129.243 109.318 128.712 108.984 128.363C108.265 127.64 109.245 126.522 109.687 125.96C110.797 124.605 112.245 123.558 113.896 122.915C114.359 122.733 114.156 122.025 113.698 122.207Z" fill="black"/>
<path d="M114.859 124.286C113.87 124.676 112.937 125.166 112.073 125.768C111.224 126.294 110.422 126.881 109.661 127.513C108.828 128.236 108.01 129.284 108.25 130.457C108.411 131.201 109.042 131.63 109.776 131.797C110.25 131.899 110.448 131.185 109.974 131.084C109.5 130.988 108.943 130.583 108.969 129.926C109 129.521 109.245 129.076 109.531 128.712C110.177 127.918 111.099 127.331 111.943 126.76C112.792 126.183 113.943 125.429 115.062 125.009C115.505 124.832 115.318 124.119 114.859 124.286Z" fill="black"/>
<path d="M116.38 126.997C115.047 127.285 113.813 127.902 112.693 128.671C112.13 129.045 111.584 129.465 111.068 129.9L110.292 130.558C110.078 130.75 109.688 130.988 109.547 131.256C109.401 131.519 109.516 132.01 109.719 132.247C110.193 132.874 111.141 132.778 111.844 132.652C112.906 132.455 113.943 132.065 114.974 131.726C115.479 131.549 116.011 131.448 116.552 131.448C118.209 131.433 119.86 131.59 121.526 131.549C122.662 131.549 123.792 131.433 124.917 131.256C125.865 131.084 126.854 130.806 127.63 130.234C128.016 129.956 127.646 129.314 127.24 129.592C125.906 130.583 123.953 130.71 122.328 130.78C120.709 130.851 118.995 130.79 117.318 130.725C116.813 130.694 116.297 130.71 115.792 130.765C115.25 130.836 114.729 131.028 114.214 131.2C113.209 131.549 112.047 132.02 110.953 132.01C110.74 132.01 110.464 131.979 110.308 131.797C110.266 131.726 110.235 131.645 110.25 131.559C110.235 131.448 110.266 131.519 110.235 131.534L110.266 131.605L110.495 131.392L110.953 130.988C111.511 130.497 112.089 130.012 112.693 129.577C113.87 128.727 115.146 128.029 116.584 127.705C117.073 127.609 116.87 126.896 116.38 126.997Z" fill="black"/>
<path d="M109.776 125.095C109.49 124.483 109.688 123.77 110.104 123.264C110.521 122.764 110.797 122.764 111.167 122.597C112.047 122.192 112.948 121.858 113.886 121.62C114.417 121.494 114.958 121.438 115.505 121.438C116.37 121.393 117.229 121.393 118.078 121.423C120.073 121.464 122.083 121.605 124.068 121.858C124.886 121.954 125.703 122.106 126.511 122.288C126.896 122.384 127.271 122.541 127.672 122.597C130.761 122.986 133.875 123.335 136.995 123.628C141.36 124.048 145.755 124.23 150.136 124.175C153.828 124.119 157.537 123.993 161.224 123.811H161.427C161.917 123.785 161.917 123.042 161.427 123.072C158.141 123.224 154.833 123.335 151.547 123.406C149.188 123.462 146.833 123.502 144.479 123.421C142.12 123.335 140.083 123.168 137.886 122.961C134.511 122.667 131.136 122.288 127.761 121.868L127.531 121.843C127.599 121.858 127.354 121.757 127.297 121.732L126.797 121.605C125.964 121.408 125.115 121.256 124.266 121.145C122.229 120.877 120.188 120.725 118.136 120.685C116.714 120.654 115.12 120.543 113.724 120.892C112.807 121.13 111.917 121.448 111.052 121.828C110.089 122.248 109.287 122.764 108.969 123.811C108.813 124.357 108.87 124.944 109.115 125.46C109.318 125.889 109.974 125.515 109.776 125.095Z" fill="black"/>
<path d="M98.3437 101.803C98.3437 101.803 97.3802 99.9009 96.8021 99.5114C96.2604 99.1371 94.1771 98.869 94.1771 98.869C90.6302 98.7881 48.2968 98.7426 48.2968 98.7426C48.2968 98.7426 45.927 98.8134 46.5312 101.256C47.1354 103.7 55.5208 128.752 55.7656 129.537C56.0104 130.321 57.3021 131.226 59.5468 131.14C61.7864 131.059 108.984 130.568 108.984 130.568C105.87 120.837 102.318 111.256 98.3437 101.803Z" fill="#6293F1"/>
<path d="M109.36 130.472C107.391 124.341 105.266 118.266 102.953 112.262C101.787 109.233 100.584 106.213 99.3336 103.213C98.844 102.025 98.5002 100.659 97.5367 99.7485C95.969 98.2817 93.7138 98.4941 91.7034 98.479L84.4065 98.4385H74.469L63.969 98.4081H49.2294C47.9794 98.4081 46.5159 98.5042 46.1304 99.9559C45.9013 100.851 46.2554 101.787 46.5159 102.642L47.5054 105.753C48.4846 108.798 49.4898 111.858 50.495 114.903C51.5002 117.943 52.5784 121.185 53.6252 124.326L55.3648 129.495C56.0523 131.574 58.6982 131.534 60.5784 131.493L66.1252 131.423L74.8127 131.311L85.0107 131.2L95.1252 131.084L103.427 131.003L108.323 130.947H108.985C109.474 130.947 109.474 130.209 108.985 130.209L106.412 130.234L99.719 130.305L90.5002 130.416L80.3023 130.527L70.7034 130.639L63.2919 130.735L59.6148 130.79C58.4377 130.821 56.5263 130.639 56.0992 129.329C55.9117 128.742 55.7086 128.165 55.5211 127.578C54.6773 125.024 53.8127 122.485 52.9638 119.931C51.9013 116.703 50.8284 113.461 49.7763 110.234C48.9429 107.725 48.1252 105.221 47.3492 102.708C47.1357 102.01 46.7763 101.185 46.8179 100.447C46.8596 99.7081 47.6357 99.1365 48.3284 99.1213C49.4638 99.1062 50.594 99.1365 51.7294 99.1365H59.344L69.2711 99.1618H79.5679L88.3284 99.2023C90.1096 99.2023 91.8752 99.2023 93.6565 99.2326C94.8961 99.2478 96.1304 99.4299 97.0471 100.335C97.4377 100.715 97.7398 101.16 97.9117 101.661C98.1982 102.515 98.5732 103.325 98.9169 104.149C101.344 110.027 103.615 115.95 105.698 121.939C106.714 124.842 107.677 127.75 108.625 130.669C108.771 131.114 109.5 130.917 109.36 130.472Z" fill="black"/>
<path d="M118.766 89.7233C119.714 94.301 119.198 99.0657 117.261 103.34C116.412 105.196 115.422 106.967 115.594 109.066C115.651 110.057 115.865 111.018 116.208 111.954C116.511 112.778 116.943 113.547 117.344 114.316C118.453 116.481 119.469 118.686 120.104 121.033C120.234 121.494 120.964 121.296 120.833 120.836C120.276 118.757 119.412 116.759 118.438 114.817C117.573 113.087 116.599 111.438 116.38 109.48C116.255 108.479 116.354 107.472 116.682 106.506C117.031 105.505 117.547 104.554 117.979 103.588C119.958 99.1618 120.49 94.2605 119.5 89.5261C119.401 89.0658 118.667 89.2631 118.766 89.7233Z" fill="black"/>
<path d="M101.313 107.402C105.281 103.451 108.568 98.7423 111.099 93.8157C112.229 91.6053 112.979 89.1925 114.37 87.1238C115.766 85.06 117.573 83.6337 119.844 82.8395C121.656 82.1971 123.536 82.3337 125.432 82.2932C126.708 82.2528 127.974 82.1415 129.24 81.9594C130.188 81.8178 131.365 81.6509 132.109 81.0237C132.5 80.7151 132.615 80.2953 132.656 79.8198C132.672 79.5821 132.573 79.0813 132.844 78.9852C133.115 78.8841 133.693 78.9852 134.021 78.9852C135.573 79.0105 137.141 79.0813 138.703 79.1774C140.281 79.2331 141.865 79.3899 143.427 79.6124C143.688 79.6377 143.932 79.6934 144.177 79.7541C144.318 79.7794 144.552 79.8906 144.609 79.8906C144.667 79.8906 144.594 79.9463 144.609 79.8755C144.62 79.8097 144.536 79.6832 144.536 79.6832C144.536 79.6832 144.552 79.9766 144.552 79.9867C144.578 80.4066 144.667 80.8112 144.781 81.2159C144.922 81.6913 145.182 82.1263 145.526 82.4905C145.87 82.8395 146.401 82.3084 146.057 81.9695C145.427 81.3423 145.411 80.5077 145.297 79.6934C145.24 79.2887 144.839 79.1521 144.464 79.051C143.13 78.702 141.661 78.6463 140.281 78.535C138.563 78.4086 136.839 78.3277 135.115 78.272L133.344 78.2417C132.917 78.2417 132.396 78.2012 132.109 78.5907C131.823 78.9852 131.953 79.5163 131.865 79.9614C131.781 80.4066 131.365 80.6595 130.891 80.8264C129.74 81.2159 128.464 81.3423 127.255 81.4435C125.214 81.6205 123.104 81.3878 121.063 81.747C119.026 82.1112 116.771 83.3251 115.234 84.8931C113.698 86.4561 112.531 88.8284 111.573 91.0489C109.318 96.2739 106.01 101.216 102.146 105.449C101.703 105.935 101.245 106.41 100.781 106.886C100.323 107.361 100.969 107.751 101.313 107.402Z" fill="black"/>
<path d="M106.469 121.66C106.958 122.596 108.307 121.003 108.713 120.669C109.604 119.915 110.505 119.172 111.396 118.393C113.411 116.648 115.364 114.761 116.812 112.54C117.073 112.136 116.411 111.756 116.151 112.161C114.875 114.134 113.167 115.823 111.396 117.401C110.578 118.125 109.745 118.823 108.911 119.521L107.88 120.401L107.391 120.821L107.177 121.018L107.073 121.114C106.958 121.185 106.974 121.24 107.13 121.281C106.917 120.861 106.255 121.24 106.469 121.66Z" fill="black"/>
<mask id="mask3_33_668" style="mask-type:luminance" maskUnits="userSpaceOnUse" x="126" y="80" width="41" height="57">
<path d="M126 80.8309H166.693V136.491H126V80.8309Z" fill="white"/>
</mask>
<g mask="url(#mask3_33_668)">
<path d="M146 82.5152C147.839 84.0782 149.891 85.2264 152.135 86.1318C154.375 87.0423 156.917 87.7504 158.828 89.3893C160.51 90.8409 161.844 92.8642 162.26 95.0291C162.333 95.4186 162.375 95.8131 162.432 96.2026C162.792 98.5344 163.135 100.866 163.469 103.198C163.943 106.592 164.401 109.971 164.802 113.365C165.203 116.759 165.552 119.804 165.75 123.026C165.911 125.514 166.052 128.069 165.047 130.416C163.51 134.032 159.63 135.302 155.896 135.58C152.521 135.833 149.161 135.206 145.859 134.548C142.12 133.779 138.417 132.859 134.74 131.883C132.427 131.255 130.115 130.613 127.828 129.94L127.484 129.829C127.01 129.687 126.813 130.401 127.286 130.542C128.964 131.058 130.672 131.534 132.37 132.009C135.99 133.001 139.635 133.946 143.302 134.761C146.677 135.499 150.151 136.268 153.63 136.379C157.104 136.491 161.714 135.848 164.286 133.001C166.24 130.836 166.682 127.942 166.615 125.15C166.542 122.358 166.224 119.161 165.896 116.187C165.505 112.636 165.047 109.091 164.557 105.56C164.172 102.778 163.771 100.001 163.354 97.2344C163.25 96.5364 163.151 95.8536 163.036 95.1555C162.833 93.9669 162.406 92.8237 161.786 91.7767C160.578 89.6927 158.714 88.0337 156.474 87.0524C154.219 86.0913 151.833 85.363 149.677 84.1794C148.557 83.5471 147.51 82.8238 146.531 81.9993C146.172 81.6806 145.625 82.2067 146 82.5152Z" fill="black"/>
</g>
<path d="M116.094 106.845C116.438 103.77 114.557 112.834 113.422 115.712L116.755 111.898C116.755 111.898 115.807 109.415 116.094 106.845Z" fill="black"/>
<path d="M150.813 106.87C150.813 106.87 151.558 118.924 149.547 121.281C148.344 122.667 146.589 123.491 144.724 123.532C144.724 123.532 144.365 123.936 148.099 123.739C151.834 123.547 152.74 125.009 152.021 120.209C151.302 115.403 150.813 106.87 150.813 106.87Z" fill="black"/>
<path d="M133.662 81.8026C136.219 82.1111 138.802 82.0302 141.349 81.5952C141.833 81.5092 141.636 80.801 141.146 80.882C138.677 81.3018 136.146 81.3574 133.662 81.0641C133.172 81.0084 133.172 81.7469 133.662 81.8026Z" fill="black"/>
<path d="M129.927 90.2648C135.729 90.1434 141.531 89.6679 147.281 88.8434C147.755 88.7726 147.552 88.0443 147.078 88.1151C141.406 88.9395 135.672 89.415 129.927 89.5263C129.438 89.5415 129.438 90.28 129.927 90.2648Z" fill="black"/>
<path d="M134.193 123.405C135.401 126.309 136.235 129.339 136.677 132.439C136.735 132.915 137.469 132.717 137.412 132.247C136.964 129.146 136.13 126.116 134.927 123.208C134.755 122.778 134.005 122.96 134.193 123.405Z" fill="black"/>
<path d="M84.8696 97.8364C85.3123 97.3306 86.1613 97.2648 86.7759 97.0676C87.4946 96.8298 88.2134 96.5668 88.9061 96.2583C90.3123 95.6311 91.6353 94.8319 92.854 93.8961C93.2394 93.6027 92.7082 93.0868 92.3228 93.3802C91.0728 94.3311 89.7238 95.1101 88.2707 95.7272C87.5676 96.0205 86.8488 96.2734 86.1196 96.4808C85.4686 96.6629 84.7811 96.7894 84.3384 97.3205C83.8905 97.8516 84.5519 98.2006 84.8696 97.8364Z" fill="black"/>
<path d="M81.2606 86.694C82.4689 86.7042 83.6616 86.9318 84.7814 87.3617C84.9845 87.4174 85.1981 87.3061 85.2398 87.0987C85.2866 86.8863 85.1825 86.694 84.9689 86.6485C83.7762 86.2034 82.5262 85.9657 81.2502 85.9505C80.7762 85.9505 80.7762 86.694 81.2606 86.694Z" fill="black"/>
<path d="M123.438 61.3877C123.708 62.8799 123.896 64.3923 123.995 65.9097C124.083 67.3917 123.995 68.8889 124.125 70.3507C124.281 72.2779 125.146 74.2607 126.568 75.6163C127.99 76.9718 129.281 78.2313 131.005 78.7321C133.162 79.3593 135.198 78.5803 136.995 77.3917C138.146 76.6532 139.193 75.7731 140.125 74.7817C140.484 74.4175 140.802 74.0128 141.057 73.5778C141.292 73.1732 140.63 72.7989 140.401 73.2136C139.75 74.3467 138.589 75.2976 137.552 76.0766C135.875 77.3512 133.807 78.6208 131.578 78.115C129.901 77.7255 128.505 76.4256 127.297 75.2824C126.896 74.9031 126.552 74.5844 126.281 74.1393C125.589 72.9759 125.016 71.8075 124.885 70.4367C124.755 69.066 124.859 67.4221 124.755 65.9097C124.656 64.3366 124.453 62.7585 124.167 61.1904C124.083 60.7302 123.349 60.9274 123.438 61.3877Z" fill="black"/>
<path d="M143.115 66.8202C143.589 66.1374 144.578 65.1561 145.484 65.8136C146.391 66.4712 146.359 67.4778 146.26 68.3023C146.115 69.2228 145.672 70.0726 144.995 70.7302C144.318 71.4029 143.427 72.1667 142.437 72.2931C141.948 72.3488 141.948 73.0923 142.437 73.0367C143.719 72.8799 144.865 71.9846 145.698 71.0792C146.531 70.1839 147.021 69.0407 147.047 67.8369C147.047 66.7798 146.604 65.3685 145.469 64.9791C144.333 64.5845 143.115 65.495 142.469 66.4409C142.193 66.8455 142.854 67.2097 143.115 66.8202Z" fill="black"/>
<path d="M145.443 66.8459C144.734 66.6132 144.12 67.2252 143.719 67.7007C143.302 68.2014 142.984 68.7629 142.771 69.3598C142.714 69.557 142.839 69.7543 143.026 69.8099C143.026 69.8099 143.026 69.8099 143.042 69.8099C143.229 69.8656 143.427 69.7644 143.484 69.5874C143.484 69.5722 143.484 69.5722 143.5 69.557C143.531 69.4862 143.547 69.4306 143.573 69.3749L143.615 69.2637C143.604 69.3041 143.615 69.2636 143.63 69.2485L143.802 68.8995L144.005 68.5656L144.135 68.3987L144.177 68.3431C144.177 68.3431 144.25 68.247 144.203 68.2874C144.365 68.0902 144.552 67.898 144.734 67.726L144.823 67.645C144.792 67.6703 144.839 67.645 144.849 67.645L144.953 67.5742H144.979L145.083 67.5489H145.198C145.141 67.5489 145.224 67.5591 145.24 67.5742C145.443 67.6299 145.656 67.5186 145.698 67.3213C145.755 67.1291 145.641 66.9167 145.443 66.861V66.8459Z" fill="black"/>
<path d="M143.703 68.7323C143.776 68.7626 143.662 68.707 143.703 68.7323L143.745 68.7626C143.729 68.7323 143.703 68.7323 143.745 68.7626V68.7879C143.776 68.8031 143.76 68.8031 143.729 68.7626L143.802 68.8739C143.802 68.8891 143.818 68.9144 143.818 68.9296C143.818 68.9447 143.833 69.0105 143.844 69.056V69.2381C143.844 69.2482 143.833 69.3342 143.844 69.2634C143.859 69.1926 143.833 69.2937 143.833 69.3039C143.818 69.3898 143.787 69.4607 143.76 69.5416L143.729 69.5972L143.672 69.6984L143.63 69.754L143.547 69.8501L143.5 69.8805L143.474 69.9058H143.443L143.385 69.9462C143.198 70.0474 143.141 70.27 143.245 70.4369C143.245 70.4369 143.245 70.4369 143.245 70.4521C143.359 70.619 143.573 70.6746 143.76 70.5886C144.203 70.3408 144.505 69.9058 144.578 69.405C144.667 68.8739 144.495 68.1759 143.891 68.009C143.688 67.9533 143.484 68.0494 143.417 68.2467V68.2568C143.359 68.4541 143.474 68.6615 143.672 68.7323C143.688 68.7323 143.688 68.7323 143.703 68.7323Z" fill="black"/>
<path d="M126.38 62.824L126.578 62.7127L126.641 62.6874C126.682 62.6571 126.568 62.7127 126.625 62.6874L126.724 62.6571L126.937 62.6014C126.995 62.5863 126.937 62.6166 126.927 62.6014H127.354L127.469 62.6318L127.573 62.6723C127.63 62.6874 127.573 62.6722 127.557 62.6571L127.614 62.6874L127.828 62.7987C128.005 62.91 128.234 62.8543 128.349 62.6723C128.432 62.4902 128.375 62.2676 128.203 62.1563C127.531 61.7365 126.667 61.7365 126.005 62.1715C125.818 62.2828 125.76 62.5053 125.864 62.6874C125.963 62.8543 126.193 62.9252 126.38 62.824C126.38 62.8139 126.38 62.8139 126.38 62.8139V62.824Z" fill="black"/>
<path d="M127.271 65.5608C127.354 65.6468 127.412 65.7581 127.443 65.8694C127.531 66.1071 127.557 66.3752 127.542 66.6231C127.542 66.7343 127.516 66.8456 127.458 66.9468C127.412 67.0429 127.313 67.1289 127.198 67.139C127.026 67.139 126.88 67.0581 126.797 66.9164C126.682 66.7495 126.625 66.5421 126.641 66.3449C126.641 66.1476 126.682 65.9402 126.755 65.7581C126.766 65.6873 126.797 65.6215 126.854 65.576C126.912 65.5204 126.995 65.4799 127.083 65.4799C127.156 65.4799 127.214 65.5204 127.271 65.5608Z" fill="black"/>
<path d="M127.068 65.7579L127.114 65.8287L127.156 65.8996H127.141C127.156 65.9097 127.156 65.9248 127.156 65.94C127.182 65.9805 127.198 66.0361 127.213 66.0918C127.229 66.1474 127.239 66.2182 127.239 66.2739C127.255 66.4003 127.271 66.5268 127.255 66.6532V66.6937C127.239 66.724 127.239 66.7493 127.229 66.7797V66.8201C127.239 66.7797 127.213 66.8201 127.213 66.8353V66.8606C127.239 66.8454 127.198 66.8909 127.213 66.8606L127.182 66.8909C127.182 66.8909 127.229 66.8606 127.198 66.8758L127.156 66.9061C127.172 66.8909 127.198 66.8909 127.172 66.8909C127.141 66.8909 127.141 66.8758 127.172 66.8909H127.114L127.068 66.8454C127.052 66.8353 127.068 66.8454 127.068 66.8606C127.068 66.8758 127.052 66.8353 127.052 66.8201C127.026 66.7898 127.01 66.7645 126.995 66.7341C126.995 66.7341 126.984 66.7089 126.995 66.724C127.01 66.7341 126.984 66.7089 126.984 66.7089C126.984 66.7089 126.969 66.6532 126.969 66.6229C126.969 66.5976 126.953 66.5672 126.937 66.5419V66.3194C126.937 66.3042 126.953 66.2334 126.937 66.2637C126.927 66.289 126.953 66.1929 126.969 66.1626C126.984 66.0918 126.995 66.0108 127.026 65.94C127.026 65.9097 127.042 65.8692 127.052 65.8439C127.068 65.8136 127.052 65.8439 127.052 65.854C127.052 65.8692 127.068 65.8136 127.042 65.8439C127.01 65.8692 127.068 65.8287 127.068 65.8136C127.068 65.7984 127.042 65.854 127.068 65.8287C127.068 65.8136 127.068 65.8136 127.083 65.8136C127.026 65.8439 127.083 65.8287 127.099 65.8136C127.114 65.7984 127.042 65.8287 127.052 65.7984L127.141 65.854C127.271 65.94 127.443 65.8996 127.516 65.7731L127.531 65.7579C127.599 65.6315 127.557 65.4646 127.427 65.3836C127.255 65.242 127.01 65.2268 126.812 65.328C126.641 65.4241 126.51 65.5758 126.479 65.7731C126.338 66.1221 126.323 66.4964 126.437 66.8454C126.552 67.1944 126.88 67.5586 127.312 67.4625C127.745 67.3664 127.844 66.8909 127.844 66.5268C127.844 66.3194 127.818 66.1069 127.76 65.9097C127.713 65.7326 127.614 65.5607 127.484 65.4241C127.37 65.3128 127.198 65.3128 127.083 65.4241C126.995 65.5202 126.995 65.6618 127.068 65.7579Z" fill="black"/>
<path d="M134.854 64.9487C134.943 65.0347 135 65.1308 135.026 65.2421C135.115 65.4798 135.141 65.7428 135.125 65.9958C135.125 66.107 135.099 66.2183 135.042 66.3195C135 66.4156 134.896 66.4965 134.781 66.5117C134.625 66.5269 134.469 66.4409 134.38 66.3043C134.266 66.1374 134.224 65.9249 134.224 65.7327C134.224 65.5203 134.266 65.3281 134.339 65.1308C134.349 65.06 134.38 64.9892 134.438 64.9487C134.495 64.8931 134.583 64.8627 134.667 64.8627C134.74 64.8627 134.797 64.9083 134.854 64.9487Z" fill="black"/>
<path d="M134.651 65.1463L134.698 65.202L134.739 65.2677C134.755 65.2981 134.724 65.2677 134.724 65.2576C134.739 65.2677 134.739 65.2829 134.739 65.2981C134.765 65.3537 134.781 65.4093 134.797 65.465C134.812 65.5206 134.823 65.5763 134.823 65.6319C134.838 65.7583 134.854 65.8848 134.838 66.0113V66.0517C134.823 66.0821 134.823 66.1074 134.812 66.1377V66.1782C134.812 66.1377 134.797 66.1782 134.797 66.1782C134.797 66.1933 134.797 66.1933 134.781 66.2035C134.812 66.1933 134.765 66.249 134.781 66.2035L134.755 66.2338C134.755 66.2338 134.781 66.2186 134.765 66.2338H134.739L134.698 66.2035C134.682 66.2035 134.651 66.1782 134.682 66.1933L134.64 66.163C134.64 66.1478 134.625 66.1478 134.625 66.1377L134.567 66.0517C134.567 66.0517 134.552 66.0113 134.567 66.0365V66.0113C134.567 65.9809 134.552 65.9708 134.552 65.9404C134.536 65.9101 134.536 65.8696 134.526 65.8443V65.6218C134.526 65.6066 134.536 65.5358 134.526 65.5763C134.536 65.5358 134.536 65.5054 134.536 65.465C134.567 65.3942 134.583 65.3284 134.609 65.2576C134.609 65.2272 134.625 65.1868 134.651 65.1463C134.64 65.1311 134.64 65.1564 134.625 65.1564C134.609 65.1564 134.651 65.1311 134.625 65.1463H134.651C134.682 65.116 134.625 65.1716 134.651 65.1463C134.651 65.116 134.666 65.1463 134.666 65.1311C134.666 65.116 134.666 65.1463 134.682 65.1463C134.698 65.1463 134.625 65.1463 134.64 65.1311L134.724 65.1868C134.854 65.2576 135.026 65.2121 135.114 65.0907C135.182 64.949 135.14 64.7821 135.01 64.6961C134.823 64.5697 134.593 64.5596 134.396 64.6557C134.224 64.7417 134.109 64.9086 134.062 65.0907C133.937 65.4397 133.922 65.814 134.021 66.163C134.135 66.512 134.468 66.8914 134.896 66.7801C135.328 66.6688 135.427 66.2186 135.427 65.8443C135.427 65.6319 135.401 65.4245 135.328 65.2272C135.302 65.0452 135.198 64.8782 135.067 64.7518C134.968 64.6253 134.797 64.6 134.666 64.6961C134.536 64.7973 134.51 64.9642 134.609 65.0907C134.625 65.116 134.64 65.1311 134.666 65.1463H134.651Z" fill="black"/>
<path d="M135.24 61.6257C134.469 61.2919 133.578 61.302 132.828 61.6813C132.656 61.7774 132.583 62 132.698 62.1821C132.813 62.349 133.047 62.4097 133.219 62.3085L133.333 62.2529C133.26 62.2934 133.375 62.2377 133.391 62.2377L133.635 62.172H133.792L134.021 62.1416H134.266C134.281 62.1416 134.422 62.1568 134.323 62.1416H134.422L134.651 62.1973L134.781 62.2377L134.854 62.2681C135.042 62.3642 135.271 62.2934 135.37 62.1265C135.458 61.9747 135.427 61.7066 135.24 61.6257Z" fill="black"/>
<path d="M129.193 66.9066C129.068 67.1949 128.88 67.463 128.662 67.7007C128.417 67.9637 128.235 68.2723 128.089 68.596C127.787 69.3193 128.12 69.9921 128.49 70.6041C128.865 71.2212 129.412 70.6446 129.151 70.2399C128.979 69.9921 128.849 69.7088 128.75 69.4306C128.693 69.1827 128.75 68.8995 128.88 68.6769C129.193 68.1205 129.698 67.7007 129.943 67.0988C130 66.9066 129.87 66.6941 129.667 66.6385C129.469 66.598 129.25 66.7093 129.193 66.9066Z" fill="black"/>
<path d="M130.531 73.3552C131.839 73.426 133.104 72.9758 134.078 72.1412C134.224 71.9844 134.224 71.7618 134.078 71.6101C133.922 71.4836 133.703 71.4836 133.547 71.6101C132.714 72.3233 131.635 72.6875 130.531 72.6167C130.318 72.6167 130.156 72.7684 130.141 72.9758C130.156 73.1882 130.318 73.34 130.531 73.3552Z" fill="black"/>
<path d="M124.224 61.4034C124.109 58.2016 126.641 55.4955 129.911 55.283C130.401 55.2577 130.417 54.5192 129.911 54.5445C126.224 54.7671 123.364 57.7969 123.463 61.4034C123.479 61.8788 124.239 61.8788 124.224 61.4034Z" fill="black"/>
<path d="M130.99 54.7266C131.464 53.108 133.677 53.6087 134.651 54.4079C135.932 55.4246 136.521 57.0584 137.078 58.5101C137.641 59.9618 138.245 61.6411 139.021 63.1332C139.667 64.3775 140.516 65.6319 141.88 66.2187C142.323 66.4159 142.714 65.7736 142.266 65.5763C141 65.0452 140.271 63.902 139.667 62.7589C139.063 61.6107 138.458 59.9769 137.912 58.5556C137.052 56.3452 135.948 53.3457 133.162 52.9411C131.953 52.7741 130.604 53.3305 130.245 54.5293C130.115 54.9896 130.849 55.1869 130.99 54.7266Z" fill="black"/>
<path d="M132.255 55.6219C133.432 54.9087 134.969 55.1312 135.901 56.1226C136.234 56.4868 136.766 55.9557 136.448 55.6067C135.328 54.3776 133.302 54.0994 131.865 54.9795C131.464 55.2273 131.839 55.8697 132.255 55.6219Z" fill="black"/>
<path d="M130.083 53.2192C131.38 50.9431 133.89 49.7949 136.292 48.9299C136.75 48.763 136.547 48.0498 136.088 48.2167C133.505 49.1525 130.818 50.3968 129.427 52.855C129.193 53.2597 129.854 53.639 130.083 53.2192Z" fill="black"/>
<path d="M144.12 75.3689C144.12 74.7518 144.203 74.1246 144.651 73.6491C145.094 73.1737 145.682 72.9106 146.203 72.5616C148.354 71.1656 149.833 69.1221 150.943 66.8611C152.38 63.9274 152.208 60.4221 151.302 57.367C150.781 55.7029 150.068 54.1146 149.146 52.6326C148.401 51.4186 147.552 50.1591 146.36 49.3094C144.193 47.7464 141.162 47.0888 138.505 47.0737C137.985 47.0737 137.485 47.1141 136.979 47.1141C136.432 47.104 135.891 47.1293 135.344 47.1698C131.031 47.5491 126.74 49.3347 124.427 53.0372C123.578 54.3928 122.948 55.9406 122.474 57.4479C122.13 58.5658 121.87 59.7544 121.912 60.9127C121.969 62.2835 122.458 63.5683 123.521 64.4737C123.693 64.6254 123.88 64.767 124.083 64.9087C124.469 65.1869 124.86 64.5445 124.453 64.2663C123.594 63.6644 123.005 62.7842 122.776 61.7777C122.271 59.3751 123.406 56.7246 124.427 54.6002C125.458 52.4353 127.182 50.6751 129.354 49.5623C131.031 48.7226 132.87 48.1763 134.755 47.9841C135.615 47.8678 136.479 47.883 137.339 47.8577C138.563 47.8273 139.724 47.8273 140.943 48.0398C142.167 48.2472 143.688 48.6822 144.922 49.3094C146.156 49.9366 146.979 50.8015 147.755 51.9042C148.729 53.2749 149.537 54.757 150.136 56.3199C151.229 59.1829 151.735 62.6881 150.667 65.6219C150.11 67.114 149.292 68.5101 148.255 69.7544C147.641 70.508 146.906 71.1757 146.089 71.7372C145.068 72.4352 143.802 72.9764 143.474 74.2612C143.386 74.6254 143.36 74.9895 143.36 75.3689C143.37 75.8393 144.136 75.8393 144.12 75.3689Z" fill="black"/>
<path d="M149.963 54.6154C150.427 53.7657 151.318 53.275 152.276 53.1637C153.239 53.0525 154.401 53.4268 155.292 53.973C157.219 55.1617 158.682 57.0332 159.203 59.1981C160.323 63.8617 157.792 68.3685 157.13 72.8955C156.818 75.0857 156.802 77.4883 158.396 79.2334C158.729 79.5824 159.26 79.0665 158.927 78.7023C157.307 76.9319 157.62 74.2359 158.052 72.0711C158.542 69.542 159.458 67.1293 159.932 64.6002C160.333 62.4201 160.422 60.0883 159.63 57.9791C158.797 55.8597 157.203 54.1147 155.151 53.0373C153.213 52.0611 150.437 52.1572 149.302 54.2361C149.088 54.6559 149.734 55.0352 149.963 54.6154Z" fill="black"/>
<path d="M149.834 54.5289C150.813 54.4075 151.688 55.5102 152.162 56.2082C152.636 56.9062 153.011 57.7307 153.068 58.5552C153.11 59.2532 152.995 59.9512 152.74 60.6037C152.537 61.1247 152.209 61.8329 151.615 62.015C151.026 62.197 151.344 62.8698 151.818 62.7282C152.594 62.4904 153.052 61.7772 153.339 61.0944C153.63 60.4115 153.917 59.3341 153.828 58.454C153.745 57.5739 153.255 56.4004 152.636 55.5658C152.021 54.7262 151 53.6387 149.834 53.7904C149.36 53.8461 149.349 54.5845 149.834 54.5289Z" fill="black"/>
<path d="M148.542 70.0728C148.588 72.6575 149.463 75.1714 151.042 77.2503C152.609 79.2786 154.948 81.1501 157.677 81.2057C158.167 81.2159 158.167 80.4774 157.677 80.4622C155.151 80.4066 152.922 78.5502 151.531 76.6382C150.125 74.7263 149.349 72.4349 149.302 70.0728C149.292 69.5973 148.531 69.5973 148.542 70.0728Z" fill="black"/>
<path d="M153.453 74.7364C153.974 76.1223 154.646 77.488 155.708 78.5654C156.776 79.6377 158.036 80.2548 159.49 80.2953C159.979 80.3105 159.979 79.572 159.49 79.5568C156.672 79.4708 155.052 76.8305 154.187 74.5442C154.016 74.1092 153.281 74.2913 153.453 74.7364Z" fill="black"/>
<path d="M139.463 74.9339C139.463 74.9339 136.333 78.3987 132.396 79.9617L131.979 78.5909C131.979 78.5909 135.474 77.9384 135.917 77.6704C137.068 76.9572 139.463 74.9339 139.463 74.9339Z" fill="black"/>
<path d="M144.062 72.46V72.4195L143.875 72.7432L143.917 72.7129L143.63 72.7534H143.687L143.458 72.5864C143.417 72.5156 143.401 72.8646 143.385 72.9355C143.385 73.0619 143.37 73.1884 143.359 73.3148C143.328 73.593 143.302 73.8864 143.286 74.1646C143.245 74.7109 143.213 75.242 143.213 75.7832C143.198 76.8909 143.302 78.0037 143.484 79.0963C143.573 79.5717 144.307 79.3745 144.219 78.899C143.989 77.5181 143.917 76.1069 144.005 74.7109C144.047 74.0128 144.135 73.3148 144.193 72.6168C144.203 72.3639 144.12 72.0857 143.833 72.03C143.588 71.9845 143.359 72.1413 143.312 72.3639C143.312 72.3942 143.302 72.4195 143.302 72.4499C143.271 72.9203 144.031 72.9203 144.062 72.4499V72.46Z" fill="black"/>
<path d="M143.833 77.9783C142.224 77.9783 140.917 76.3445 140.917 74.3617C140.917 72.91 141.588 71.6101 142.656 71.0385C142.838 70.9374 143.073 71.0082 143.172 71.1751C143.271 71.342 143.213 71.5696 143.042 71.6809C143.042 71.6809 143.042 71.6809 143.026 71.6809C142.208 72.126 141.677 73.1731 141.677 74.3617C141.677 75.9399 142.64 77.2398 143.833 77.2398C145.026 77.2398 145.984 75.9399 145.984 74.3617C145.984 73.1731 145.453 72.126 144.635 71.6809C144.448 71.5798 144.375 71.3572 144.479 71.1751C144.594 71.0082 144.807 70.9526 144.995 71.0385C146.057 71.6101 146.75 72.91 146.75 74.3617C146.75 76.3445 145.443 77.9783 143.833 77.9783Z" fill="black"/>
<path d="M125.818 77.9787C124.255 77.9787 122.974 76.3854 122.974 74.4431C122.974 73.2696 123.448 72.1669 124.24 71.5144L124.511 71.7774L124.755 72.0556C124.11 72.5867 123.735 73.482 123.735 74.4431C123.735 75.9807 124.672 77.2402 125.818 77.2402C126.495 77.2402 127.141 76.79 127.531 76.0364L128.203 76.3854C127.688 77.3768 126.797 77.9787 125.818 77.9787Z" fill="black"/>
<path d="M125.432 115.99C129.885 115.727 134.364 116.076 138.719 117.022C139.193 117.133 139.396 116.425 138.917 116.309C134.495 115.348 129.958 114.983 125.432 115.252C124.943 115.277 124.927 116.015 125.432 115.99Z" fill="black"/>
<path d="M113.912 74.949C113.912 75.4143 113.865 75.8746 113.771 76.3299C113.677 76.7901 113.542 77.2302 113.354 77.6601C113.172 78.0951 112.948 78.4998 112.682 78.8893C112.417 79.2788 112.115 79.6328 111.776 79.9616C111.438 80.2954 111.068 80.5888 110.667 80.8468C110.271 81.1047 109.849 81.3222 109.406 81.5043C108.964 81.6814 108.511 81.8129 108.037 81.9039C107.568 81.995 107.094 82.0405 106.615 82.0405C106.136 82.0405 105.662 81.995 105.193 81.9039C104.724 81.8129 104.266 81.6814 103.823 81.5043C103.38 81.3222 102.958 81.1047 102.563 80.8468C102.162 80.5888 101.792 80.2954 101.453 79.9616C101.115 79.6328 100.813 79.2788 100.547 78.8893C100.281 78.4998 100.057 78.0951 99.8752 77.6601C99.6877 77.2302 99.5522 76.7901 99.4585 76.3299C99.3647 75.8746 99.3179 75.4143 99.3179 74.949C99.3179 74.4836 99.3647 74.0183 99.4585 73.5631C99.5522 73.1078 99.6877 72.6627 99.8752 72.2328C100.057 71.8028 100.281 71.3931 100.547 71.0087C100.813 70.6192 101.115 70.2601 101.453 69.9313C101.792 69.6025 102.162 69.3092 102.563 69.0512C102.958 68.7882 103.38 68.5707 103.823 68.3936C104.266 68.2166 104.724 68.08 105.193 67.989C105.662 67.8979 106.136 67.8524 106.615 67.8524C107.094 67.8524 107.568 67.8979 108.037 67.989C108.511 68.08 108.964 68.2166 109.406 68.3936C109.849 68.5707 110.271 68.7882 110.667 69.0512C111.068 69.3092 111.438 69.6025 111.776 69.9313C112.115 70.2601 112.417 70.6192 112.682 71.0087C112.948 71.3931 113.172 71.8028 113.354 72.2328C113.542 72.6627 113.677 73.1078 113.771 73.5631C113.865 74.0183 113.912 74.4836 113.912 74.949Z" fill="#FFE397"/>
<path d="M106.614 82.4194C102.375 82.4194 98.9321 79.0659 98.9321 74.9485C98.9321 70.8261 102.375 67.4777 106.614 67.4777C110.854 67.4777 114.302 70.8261 114.302 74.9485C114.302 79.0659 110.854 82.4194 106.614 82.4194ZM106.614 68.2313C102.792 68.2313 99.6925 71.246 99.6925 74.9637C99.6925 78.6764 102.792 81.691 106.614 81.691C110.437 81.691 113.536 78.6764 113.536 74.9637V74.9485C113.526 71.2308 110.437 68.2313 106.614 68.2313Z" fill="black"/>
<path d="M108.625 72.379C107.88 71.681 106.859 71.2055 105.87 71.7518C104.875 72.293 104.62 73.2035 105.037 74.028C105.453 74.8474 106.484 74.903 107.302 75.2116C107.662 75.3532 107.938 75.6718 107.995 76.0512C108.068 76.4255 107.891 76.7088 107.604 76.9718C107.318 77.2399 106.901 77.3208 106.443 77.1943C105.938 77.0578 105.495 76.7644 105.167 76.3699C104.875 75.9956 104.214 76.3598 104.516 76.7341C105.063 77.4624 105.953 77.9935 106.901 78.0036C107.849 78.0188 108.625 77.2803 108.755 76.471C108.87 75.5909 108.323 74.7664 107.464 74.4882C106.818 74.2758 105.495 74.1949 105.641 73.2288C105.724 72.7685 106.068 72.4043 106.531 72.2778C107.146 72.1261 107.677 72.5054 108.094 72.8949C108.511 73.2844 108.984 72.6977 108.625 72.379Z" fill="black"/>
<path d="M106.401 70.8714V71.5694C106.401 71.6655 106.443 71.7616 106.5 71.8325C106.573 71.9033 106.672 71.9286 106.771 71.9286C106.875 71.9286 106.974 71.9033 107.047 71.8325C107.12 71.7616 107.161 71.6655 107.161 71.5694V70.8714C107.161 70.7702 107.12 70.6741 107.047 70.6033C106.885 70.4769 106.656 70.4769 106.5 70.6033C106.443 70.6741 106.401 70.7702 106.401 70.8714Z" fill="black"/>
<path d="M106.401 77.8265V79.0404C106.354 79.2478 106.5 79.4451 106.703 79.4855C106.917 79.526 107.12 79.3894 107.161 79.1922C107.177 79.1517 107.177 79.0961 107.161 79.0505V77.8366C107.12 77.6292 106.917 77.5028 106.703 77.5432C106.557 77.5584 106.427 77.6697 106.401 77.8265Z" fill="black"/>
<path d="M118.61 50.1333C118.61 50.6947 118.5 51.241 118.276 51.762C118.052 52.283 117.735 52.7433 117.328 53.1429C116.917 53.5425 116.443 53.851 115.906 54.0685C115.37 54.281 114.807 54.3922 114.229 54.3922C113.646 54.3922 113.089 54.281 112.552 54.0685C112.016 53.851 111.542 53.5425 111.13 53.1429C110.719 52.7433 110.401 52.283 110.182 51.762C109.958 51.241 109.849 50.6947 109.849 50.1333C109.849 49.5668 109.958 49.0255 110.182 48.4995C110.401 47.9785 110.719 47.5182 111.13 47.1186C111.542 46.719 112.016 46.4105 112.552 46.198C113.089 45.9806 113.646 45.8743 114.229 45.8743C114.807 45.8743 115.37 45.9806 115.906 46.198C116.443 46.4105 116.917 46.719 117.328 47.1186C117.735 47.5182 118.052 47.9785 118.276 48.4995C118.5 49.0255 118.61 49.5668 118.61 50.1333Z" fill="#FFE397"/>
<path d="M114.229 54.757C111.599 54.757 109.458 52.673 109.458 50.1187C109.458 47.5643 111.599 45.4803 114.229 45.4803C116.854 45.4803 118.995 47.5643 118.995 50.1187V50.1338C118.985 52.6882 116.854 54.757 114.229 54.757ZM114.229 46.234C112.016 46.234 110.219 47.9841 110.219 50.1338C110.219 52.2835 112.016 54.0286 114.229 54.0286C116.438 54.0286 118.235 52.2835 118.235 50.1338C118.235 47.9841 116.438 46.234 114.229 46.234Z" fill="black"/>
<path d="M115.547 48.4691C115.047 48.0088 114.36 47.7155 113.698 48.0796C113.037 48.4438 112.865 49.0862 113.151 49.6426C113.292 49.9107 113.537 50.1029 113.823 50.2041C114.084 50.3002 114.36 50.3255 114.599 50.4266C114.761 50.5076 114.891 50.6492 114.917 50.8313C114.932 50.8869 114.917 50.7756 114.917 50.8465V50.9274C114.917 50.983 114.932 50.8717 114.917 50.9426C114.901 51.0134 114.901 50.983 114.901 51.0134C114.891 51.0387 114.875 51.069 114.844 51.0943L114.714 51.2359L114.589 51.332H114.557C114.542 51.3472 114.427 51.3624 114.5 51.3624C114.386 51.3725 114.271 51.3624 114.172 51.3169C113.896 51.2511 113.667 51.0943 113.495 50.8869C113.38 50.72 113.151 50.6644 112.979 50.7605C112.792 50.8566 112.735 51.0791 112.834 51.2511C112.834 51.2511 112.834 51.2511 112.834 51.2612C113.209 51.767 113.781 52.0705 114.417 52.1009C114.974 52.1009 115.578 51.6102 115.667 51.069C115.75 50.4671 115.375 49.8803 114.787 49.6831C114.531 49.6274 114.287 49.5617 114.042 49.4757C113.969 49.4453 113.896 49.4049 113.854 49.3341C113.823 49.3088 113.797 49.2683 113.797 49.2228V49.1267C113.823 48.9041 114 48.7069 114.229 48.6512C114.531 48.5804 114.802 48.7777 115.005 48.9851C115.203 49.1975 115.906 48.7928 115.547 48.4691Z" fill="black"/>
<path d="M113.943 47.6751V48.0949C113.943 48.1506 113.953 48.191 113.985 48.2315C114 48.277 114.026 48.3327 114.057 48.3579C114.083 48.3984 114.141 48.4136 114.182 48.4288C114.229 48.4541 114.271 48.4692 114.328 48.4692C114.427 48.4541 114.531 48.4288 114.599 48.3579C114.656 48.2871 114.703 48.191 114.703 48.0949V47.6751C114.714 47.6346 114.703 47.5739 114.672 47.5335C114.656 47.493 114.63 47.4525 114.599 47.4222C114.557 47.3817 114.516 47.3514 114.474 47.3413C114.427 47.3109 114.37 47.3109 114.328 47.3109C114.229 47.3109 114.125 47.3514 114.057 47.4222C113.985 47.493 113.943 47.5739 113.943 47.6751Z" fill="black"/>
<path d="M113.943 51.8486V52.5769C113.943 52.7843 114.115 52.9512 114.328 52.9512C114.427 52.9512 114.531 52.9108 114.599 52.84C114.672 52.7742 114.703 52.673 114.703 52.5769V51.8486C114.688 51.6412 114.516 51.4894 114.302 51.4894C114.214 51.4894 114.125 51.5299 114.057 51.5855C113.985 51.6564 113.943 51.7525 113.943 51.8486Z" fill="black"/>
<mask id="mask4_33_668" style="mask-type:luminance" maskUnits="userSpaceOnUse" x="55" y="33" width="48" height="33">
<path d="M55.3335 33.5988H102V65.2931H55.3335V33.5988Z" fill="white"/>
</mask>
<g mask="url(#mask4_33_668)">
<path d="M100.136 65.2678H57.3022C56.3439 65.2678 55.5679 64.5141 55.5679 63.5783V35.2882C55.5783 34.3524 56.3439 33.6139 57.3022 33.5988H100.136C101.099 33.6139 101.86 34.3524 101.875 35.2882V63.5783C101.875 64.5141 101.099 65.2678 100.136 65.2678ZM57.3022 34.3372C56.771 34.3524 56.3439 34.7722 56.3283 35.2882V63.5783C56.3283 64.1095 56.7554 64.5293 57.3022 64.5293H100.136C100.682 64.5293 101.115 64.1095 101.115 63.5783V35.2882C101.099 34.7722 100.667 34.3524 100.136 34.3372H57.3022Z" fill="black"/>
</g>
<path d="M62.3594 43.5272H65.1042V49.1974H62.3594V43.5272Z" fill="#6293F1"/>
<path d="M65.4793 49.5619H61.9741V43.1481H65.4793V49.5619ZM62.7345 48.8183H64.7137V43.8917H62.7345V48.8183Z" fill="black"/>
<path d="M67.9897 40.7914H70.7345V49.1981H67.9897V40.7914Z" fill="#6293F1"/>
<path d="M71.12 49.5622H67.6147V40.4272H71.12V49.5622ZM68.3804 48.8187H70.3595V41.1657H68.3804V48.8187Z" fill="black"/>
<path d="M73.6353 38.904H76.38V49.1973H73.6353V38.904Z" fill="#6293F1"/>
<path d="M76.75 49.5615H73.25V38.5398H76.75V49.5615ZM74.0104 48.8179H75.9896V39.2833H74.0104V48.8179Z" fill="black"/>
<path d="M79.2656 43.472H82.0104V49.1979H79.2656V43.472Z" fill="#6293F1"/>
<path d="M82.396 49.5615H78.8804V43.0922H82.396V49.5615ZM79.6408 48.818H81.6356V43.8357H79.6408V48.818Z" fill="black"/>
<path d="M87.2656 42.5616H96.6875V43.3051H87.2656V42.5616Z" fill="black"/>
<path d="M87.2656 45.0348H96.6875V45.7733H87.2656V45.0348Z" fill="black"/>
<path d="M87.2656 47.5079H96.6875V48.2464H87.2656V47.5079Z" fill="black"/>
<path d="M91.8908 54.7265L86.3022 55.202L78.3752 57.8828L70.1877 56.5981L63.5939 59.5014L61.9741 60.1286H96.5158V52.9663L91.8908 54.7265Z" fill="#A3DFBE"/>
<path d="M96.5155 60.5074H61.9738C61.7863 60.5074 61.6249 60.381 61.5988 60.1989C61.5572 60.0319 61.6561 59.8498 61.828 59.7942L63.453 59.167L70.0311 56.2636C70.1041 56.2333 70.1874 56.2181 70.2603 56.2333L78.3488 57.5029L86.177 54.8524H86.2603L91.7916 54.3769L96.3749 52.6319C96.4895 52.5914 96.6301 52.6015 96.7343 52.6723C96.8332 52.7432 96.8905 52.8544 96.8905 52.9809V60.1432C96.8749 60.3405 96.7186 60.4922 96.5155 60.5074ZM63.927 59.7689H96.1301V53.512L92.0207 55.075L91.9218 55.1053L86.3749 55.5656L78.5051 58.2312C78.4478 58.2616 78.3749 58.2616 78.3176 58.2464L70.2447 56.9869L63.927 59.7689Z" fill="black"/>
<path d="M62.0417 60.1028C61.8438 60.1028 61.6719 59.9359 61.6719 59.7386V53.1782C61.625 52.9658 61.7709 52.7736 61.974 52.7281C62.1875 52.6876 62.3906 52.8292 62.4323 53.0214C62.4479 53.0619 62.4479 53.1226 62.4323 53.1631V59.7235C62.4167 59.9511 62.2604 60.1028 62.0417 60.1028Z" fill="black"/>
<path d="M54.3856 72.0703C53.8127 72.0703 53.2242 72.126 52.6669 72.2372L54.4325 80.1128L46.3179 78.398C46.1981 78.9544 46.1304 79.5159 46.1304 80.0875C46.1148 84.5285 49.8075 88.1147 54.3752 88.1299C58.9429 88.1451 62.6304 84.5538 62.646 80.1128C62.6617 75.6717 58.969 72.0855 54.3856 72.0703Z" fill="#A3DFBE"/>
<mask id="mask5_33_668" style="mask-type:luminance" maskUnits="userSpaceOnUse" x="45" y="70" width="19" height="19">
<path d="M45.75 70.4726H63.3333V88.601H45.75V70.4726Z" fill="white"/>
</mask>
<g mask="url(#mask5_33_668)">
<path d="M54.3853 88.4948C49.6197 88.4796 45.7551 84.7214 45.7551 80.0882C45.7551 79.4862 45.8124 78.8995 45.9583 78.3128C45.9687 78.2166 46.026 78.1307 46.1145 78.075C46.1978 78.0346 46.302 78.0042 46.401 78.0346L53.927 79.6279L52.3072 72.3239C52.276 72.2228 52.2916 72.1267 52.3489 72.0457C52.4062 71.9597 52.4895 71.9041 52.5937 71.8889C53.1822 71.7625 53.7864 71.6917 54.3853 71.6917C59.1562 71.8889 62.8749 75.7989 62.677 80.4372C62.4895 84.8074 58.8853 88.3127 54.3853 88.4948ZM46.6145 78.859C46.5468 79.2637 46.5155 79.6683 46.5155 80.0882C46.5155 84.2207 49.9635 87.559 54.203 87.559C58.4374 87.559 61.8853 84.2055 61.8853 80.0882C61.8853 75.9557 58.4374 72.6173 54.203 72.6173C53.7864 72.6173 53.3801 72.6578 52.9635 72.7134L54.6041 80.0325C54.6458 80.2247 54.5312 80.4068 54.328 80.4523C54.2708 80.4625 54.2135 80.4625 54.1562 80.4523L46.6145 78.859Z" fill="black"/>
</g>
<path d="M52.6668 72.2227C49.4897 72.8802 46.9897 75.298 46.3022 78.3835L54.4325 80.1134L52.6668 72.2227Z" fill="#6293F1"/>
<mask id="mask6_33_668" style="mask-type:luminance" maskUnits="userSpaceOnUse" x="45" y="71" width="11" height="10">
<path d="M45.75 71.7674H55.3333V80.8316H45.75V71.7674Z" fill="white"/>
</mask>
<g mask="url(#mask6_33_668)">
<path d="M54.4323 80.4775H54.3438L46.2135 78.7476C46.0156 78.7021 45.8854 78.5099 45.9271 78.3126C46.6458 75.0754 49.2604 72.5463 52.5938 71.8635C52.7917 71.818 52.9948 71.9444 53.0365 72.1417L54.8021 80.0324C54.8333 80.1588 54.7917 80.2802 54.7031 80.3662C54.6302 80.437 54.5313 80.4775 54.4323 80.4775ZM46.7604 78.1052L53.9271 79.6277L52.375 72.6728C49.6354 73.3708 47.4948 75.4497 46.7604 78.1052Z" fill="black"/>
</g>
<path d="M46.3177 78.398L46.1719 79.5411C46.1719 79.5411 52.9219 80.0166 53.7969 80.1279L46.3177 78.398Z" fill="black"/>
<path d="M53.7969 80.1279L53.8854 80.1583C53.8854 80.1583 53.8542 80.1431 53.7969 80.1279Z" fill="black"/>
<path d="M78.2968 111.063C78.8021 111.402 79.2291 111.807 79.5781 112.283C79.9323 112.758 80.1771 113.269 80.3229 113.81C80.4635 114.346 80.4948 114.877 80.4062 115.403C80.3229 115.924 80.1302 116.4 79.8281 116.825C79.526 117.25 79.1406 117.594 78.6666 117.857C78.1927 118.12 77.6718 118.281 77.1041 118.342C76.5312 118.403 75.9583 118.362 75.375 118.211C74.7916 118.059 74.25 117.816 73.7448 117.477C73.2396 117.138 72.8125 116.734 72.4635 116.258C72.1093 115.783 71.8646 115.272 71.7187 114.731C71.5781 114.194 71.5468 113.663 71.6302 113.137C71.7187 112.616 71.9114 112.141 72.2135 111.716C72.5156 111.291 72.901 110.947 73.375 110.684C73.8437 110.421 74.3646 110.259 74.9375 110.199C75.5052 110.138 76.0833 110.178 76.6666 110.33C77.25 110.482 77.7916 110.725 78.2968 111.063Z" fill="white"/>
<path d="M76.5939 118.823C73.9793 118.823 71.5835 116.83 71.2241 114.397C71.0626 113.214 71.3803 112.096 72.1408 111.241C72.9741 110.351 74.1668 109.845 75.4168 109.875C78.0314 109.875 80.4272 111.858 80.7762 114.301C80.9637 115.434 80.6147 116.577 79.8543 117.442C79.0626 118.337 77.9012 118.823 76.5939 118.823ZM75.4168 110.614C74.323 110.614 73.3647 111.003 72.7137 111.731C72.0991 112.445 71.8283 113.38 71.9845 114.301C72.2866 116.38 74.3543 118.084 76.5939 118.084C77.6876 118.084 78.6355 117.68 79.2814 116.951C79.9116 116.253 80.1876 115.318 80.0262 114.397C79.7241 112.303 77.6564 110.614 75.4168 110.614Z" fill="black"/>
</svg>
