<svg width="186" height="136" viewBox="0 0 186 136" fill="none" xmlns="http://www.w3.org/2000/svg">
<mask id="mask0_33_309" style="mask-type:luminance" maskUnits="userSpaceOnUse" x="0" y="0" width="186" height="132">
<path d="M0 0H185.58V131.921H0V0Z" fill="white"/>
</mask>
<g mask="url(#mask0_33_309)">
<mask id="mask1_33_309" style="mask-type:luminance" maskUnits="userSpaceOnUse" x="0" y="0" width="186" height="132">
<path d="M7.99465 0H177.065C179.184 0 181.215 0.819985 182.715 2.27774C184.215 3.73549 185.059 5.70952 185.059 7.77467V124.152C185.059 126.212 184.215 128.186 182.715 129.644C181.215 131.101 179.184 131.921 177.065 131.921H7.99465C5.87489 131.921 3.83847 131.101 2.3385 129.644C0.838527 128.186 0 126.212 0 124.152V7.77467C0 5.70952 0.838527 3.73549 2.3385 2.27774C3.83847 0.819985 5.87489 0 7.99465 0Z" fill="white"/>
</mask>
<g mask="url(#mask1_33_309)">
<path d="M0 0H185.049V131.921H0V0Z" fill="#0166C8"/>
</g>
</g>
<path d="M104.392 74.8664L102.368 75.6925L98.4669 80.7084C98.4669 80.7084 96.6686 86.511 96.6968 86.7519C96.725 86.9978 94.3235 93.3659 94.3235 93.3659L94.6786 101.116L97.4184 103.142L101.133 102.739L100.925 101.554L101.517 99.6947L102.576 98.1408C102.576 98.1408 104.099 97.3393 104.161 97.3688C104.228 97.3934 106.314 97.2212 106.325 97.2409C106.331 97.2655 108.028 98.0916 108.028 98.0916L106.066 99.5718L106.111 100.978L106.658 101.681C106.658 101.681 107.712 102.05 107.695 101.996C107.684 101.947 109.009 101.436 109.009 101.436L110.085 100.383L110.886 99.0456L111.455 99.7341L111.76 101.116V102.36L111.348 103.486L115.982 102.985L119.387 102.335L120.588 101.814L121.552 101.416L123.891 100.904L124.494 98.4359L128.7 85.4095L132.448 79.0709L133.102 76.7301L130.363 76.1597L128.243 74.5173L124.342 74.65L111.444 74.8664H104.392Z" fill="#F4F4F4"/>
<mask id="mask2_33_309" style="mask-type:luminance" maskUnits="userSpaceOnUse" x="69" y="75" width="29" height="48">
<path d="M69.9985 75.0483H97.1195V122.886H69.9985V75.0483Z" fill="white"/>
</mask>
<g mask="url(#mask2_33_309)">
<path d="M95.1689 76.2236L91.3186 77.2513L86.6679 79.0708L83.2122 81.6672L80.3654 85.9602L77.6595 90.7645L73.4936 99.734L71.357 105.586L70.5171 111.103V116.119L71.6671 119.783L72.9862 121.853L75.7372 119.532L80.2358 116.96L84.1086 114.575L86.3522 113.778L86.0872 110.951L87.3895 107.479L88.6297 105.778L90.8507 102.198L93.2691 94.7969C93.2691 94.7969 95.3718 78.8101 95.5241 78.8101C95.6706 78.8101 96.7304 77.8316 96.7304 77.8316V76.2236H95.1689Z" fill="#F4F4F4"/>
</g>
<mask id="mask3_33_309" style="mask-type:luminance" maskUnits="userSpaceOnUse" x="125" y="77" width="29" height="55">
<path d="M125.982 77.5659H153.301V131.697H125.982V77.5659Z" fill="white"/>
</mask>
<g mask="url(#mask3_33_309)">
<path d="M130.74 119.02L131.101 120.254L130.74 121.7L130.78 123.416L130.74 125.231L129.923 128.078L129.444 130.67H131.653L136.952 130.93L142.46 130.409L146.947 129.253L149.557 127.655L151.063 125.211L152.201 119.669L152.714 109.874L152.201 101.784L151.209 95.318L150.008 89.2055L148.21 85.5666L145.059 81.667L141.755 79.587L139.072 78.3084L136.952 77.7675L133.35 79.7197L130.109 85.2765L127.826 93.2084L127.256 97.1276L130.436 104.504L131.039 107.317L133.305 110.951L135.289 112.677L136.349 109.741L137.702 106.102L138.153 108.575L138.379 111.816L138.007 113.945L137.02 115.804L136.028 117.068L134.371 118.101L132.426 118.583L130.74 119.02Z" fill="#F4F4F4"/>
</g>
<path d="M129.297 52.2949L127.944 53.0719L126.146 53.3325L124.342 53.0719L120.221 51.7245L115.035 51.2524L109.482 51.7737L104.792 52.2949L103.625 52.6588L103.202 54.8914L101.754 54.5865L100.626 55.1126L100.029 56.3223V58.5942L101.077 60.4825L102.278 61.2595L103.704 61.8938L104.792 65.1689L106.782 67.8882L108.039 69.5897L107.684 71.2715L106.929 72.6975L105.074 74.217L104.95 75.6923C104.95 75.6923 105.88 81.7998 114.285 82.3161C114.285 82.3161 124.793 83.2258 128.097 74.3891L126.794 71.9255L126.293 69.3192L125.994 67.2391L126.901 65.5082C126.901 65.5082 128.097 63.074 128.395 61.3873L129.297 61.4808L131.129 60.8858L131.851 59.9613L132.296 57.7533V56.165L132.082 54.8914L130.678 54.5865L129.021 54.8914L129.297 52.2949Z" fill="#FACFB5"/>
<path d="M95.6936 95.6085L94.0813 95.2151H88.5004L87.8803 95.6872L87.7112 103.531L88.4666 104.283H95.282L95.6936 103.255V101.116L95.9754 97.6542L95.6936 95.6085Z" fill="#FFD247"/>
<path d="M124.088 104.809L121.94 104.676L121.619 103.81L121.653 102.434L121.839 101.784L121.478 101.322L121.642 98.3077L121.94 96.2276L122.363 95.608C122.363 95.608 125.12 95.6425 125.334 95.608C125.543 95.5736 129.026 95.9523 129.026 95.9523L129.596 96.3555L129.748 97.6537L129.325 104.44L127.369 104.809L125.841 103.245L124.641 102.335L124.088 104.809Z" fill="#FFD247"/>
<path d="M102.368 75.6926C102.368 75.6926 96.4767 86.2898 95.1745 95.4805L89.3118 95.215C89.3118 95.215 91.3186 82.6066 95.975 76.1598L98.8049 75.6926H102.368Z" fill="#6092BB"/>
<path d="M138.007 77.9202L135.763 80.2658L132.77 85.2767L130.436 90.8679L128.812 95.8345L123.152 95.4805L123.744 92.3284L125.633 87.1945L128.542 81.7066L130.577 78.3086L131.698 76.7301C131.698 76.7301 135.148 77.2514 135.301 77.2514C135.453 77.2514 138.007 77.9202 138.007 77.9202Z" fill="#6092BB"/>
<path d="M98.7657 120.81C98.7657 120.81 96.1387 119.291 91.2512 120.038L89.9603 119.492L88.5453 117.737L87.9534 115.932L87.6434 114.57L87.012 113.945L85.9691 113.955L84.1088 114.575C84.1088 114.575 81.4142 116.242 81.262 116.375C81.1154 116.502 76.1377 119.197 76.1377 119.197L73.6066 121.312L72.6426 122.713L73.7588 124.429L76.1772 126.052L79.7625 127.941L81.6735 129.253L83.2125 131.319L85.0164 133.787L86.4708 135.022L89.7574 135.292L93.8726 134.181L96.6968 132.401L99.6169 130.193L100.062 129.514L98.8954 128.078L96.9336 125.467V123.554L97.3169 121.971L98.1287 121.253L98.7657 120.81Z" fill="#FF8355"/>
<path d="M118.085 116.217C118.085 116.217 118.846 118.519 118.592 119.266C118.592 119.266 120.853 118.597 120.87 118.656C120.892 118.71 123.773 118.656 123.773 118.656H126.682L129.365 118.583C129.365 118.583 130.374 118.578 130.436 118.583C130.498 118.583 130.887 119.266 130.887 119.266V120.781L130.797 123.003L130.735 124.597L130.205 127.055L129.004 131.402L127.042 131.879L123.773 131.481L121.49 130.93L118.22 129.514L116.157 128.919L113.383 128.722L109.922 128.58L107.43 127.96L104.166 126.052L103.028 124.823L102.216 122.325L101.703 118.455L102.684 117.624L103.123 116.547L103.642 115.839L104.595 115.804L105.474 115.347L105.914 114.791L107.109 114.295H107.893L109.167 113.734L110.249 113.483L111.258 113.734L112.307 114.575L113.361 116.547L114.855 117.289L116.157 117.186L117.087 116.724L118.085 116.217Z" fill="#FF8355"/>
<path d="M121.456 103.978C121.489 104.027 122.143 104.686 122.143 104.686L123.75 104.809L123.423 106.545L120.869 105.566L121.456 103.978Z" fill="#6092BB"/>
<path d="M95.8233 102.596L100.621 103.088L101.703 104.686L102.278 105.6L99.1831 111.261L95.1637 119.492L93.3203 119.782L90.9921 119.669L90.1184 117.284L88.9007 111.103L88.6301 104.283H95.0453L95.6936 103.811L95.8233 102.596Z" fill="#6092BB"/>
<path d="M130.537 105.262L131.964 109.294L134.004 111.817L135.29 112.908L133.959 117.9L131.039 119.001L129.895 118.45L126.383 118.657L122.634 118.583L120.345 118.657L118.592 119.39L118.496 117.737L117.904 116.095L119.415 115.077L119.979 114.295L119.855 113.43L119.381 112.633L120.588 111.822L123.141 111.694L125.379 110.804L126.935 109.294L127.927 107.829L128.051 107.086L129.867 105.94L130.537 105.262Z" fill="#6092BB"/>
<path d="M119.675 102.198L116.805 102.861L113.479 103.343H111.551L110.379 104.809L108.101 106.545L106.979 107.066L105.08 110.415L102.684 115.932L104.088 115.824L105.283 115.721L105.784 114.831C105.784 114.831 106.382 114.245 106.579 114.206C106.782 114.162 108.073 113.159 108.073 113.159L110.334 110.887L111.405 111.113L112.183 110.134L113.987 108.054L112.324 107.572L112.634 106.363L112.932 105.301L114.584 105.325C114.584 105.325 114.827 103.855 114.855 103.811C114.889 103.766 117.544 104.637 117.544 104.637L119.088 103.117L119.618 102.286L119.675 102.198Z" fill="#6092BB"/>
<path d="M110.914 98.967C110.914 98.967 109.381 102.193 107.78 102.134C107.78 102.134 105.423 101.76 105.801 100.359C105.801 100.359 106.793 98.372 107.988 98.2097C107.988 98.2097 105.045 95.9427 102.683 97.9687C102.683 97.9687 98.8275 101.244 102.204 105.365L101.297 107.396L95.1689 119.266L97.08 120.038L99.1432 120.633L101.144 119.301L101.894 117.373L102.864 114.988L106.979 107.066L108.884 106.102L110.993 104.283L111.883 102.335L111.737 100.644L111.432 99.2178L110.993 98.8686L110.914 98.967Z" fill="#B5B9DB"/>
<path d="M106.754 113.946C106.928 113.902 110.514 110.951 110.514 110.951L113.231 111.428L115.08 113.002L115.351 114.605L113.473 116.601L111.838 114.202L110.514 113.479L108.467 113.848L107.532 114.423L106.793 114.295L106.754 113.946Z" fill="#FF707B"/>
<path d="M101.613 118.883L96.9338 122.802V125.093C96.9338 125.093 97.9711 126.864 97.9485 126.819C97.926 126.77 99.3973 128.619 99.3973 128.619L99.8314 129.863L100.592 129.514L102.684 127.532L103.935 126.052L103.028 124.823L102.177 121.99L101.613 118.883Z" fill="#FF707B"/>
<path d="M111.585 110.784L113.378 108.88L114.415 107.223L114.759 104.966L114.81 104.017L119.032 105.261L123.457 106.368L123.942 104.966L124.692 102.507L125.842 103.245L127.713 105.66L127.871 107.199L126.997 109.205L125.154 110.951L123.006 111.698L120.825 111.851H119.224L117.628 112.328L115.452 113.65L114.139 111.954L112.335 111.305L111.376 110.951L111.585 110.784Z" fill="#B5B9DB"/>
<path d="M117.628 104.371L121.044 101.509L121.833 101.681L120.717 105.841L117.989 104.809L117.588 104.283L117.628 104.371Z" fill="#9FA4C1"/>
<path d="M113.823 107.887L112.385 107.317L112.932 105.301H114.736L114.285 107.543L113.823 107.887Z" fill="#9FA4C1"/>
<path d="M119.088 107.533C119.088 108.251 118.417 108.832 117.589 108.832C116.76 108.832 116.089 108.251 116.089 107.533C116.089 106.816 116.76 106.235 117.589 106.235C118.417 106.235 119.088 106.816 119.088 107.533Z" fill="#4F768C"/>
<path d="M127.967 106.948L131.039 105.261L133.503 104.44L134.371 102.793L133.503 101.509L131.468 102.306L130.222 103.796L127.826 105.591L127.967 106.948Z" fill="#B2B7C3"/>
<path d="M118.31 112.072L119.415 113.001L119.978 113.847L119.511 114.944L117.182 116.601L115.632 117.447L113.935 116.96L113.563 116.34L114.854 115.209L115.35 114.472L115.469 113.483L116.906 112.677L117.774 112.284L118.31 112.072Z" fill="#B0744F"/>
<path d="M130.678 50.353C130.678 50.353 128.998 54.5033 124.342 53.0724L121.687 52.202L117.803 51.2529L112.024 51.5332L107.65 51.9758L104.127 52.5019L102.791 52.9789C102.791 52.9789 98.6866 52.2856 102.356 48.2582C102.356 48.2582 99.7295 40.1148 107.379 36.7168L112.301 35.8415H117.329L122.031 36.348L125.593 37.3955L128.998 39.2936L131.129 41.9343L132.025 43.9898V46.419L131.755 48.622L130.678 50.353Z" fill="#6092BB"/>
<path d="M114.736 35.6548C114.736 35.6548 117.29 32.9256 119.838 35.9154L118.135 35.9302L114.736 35.6548Z" fill="#FFD247"/>
<path d="M118.62 108.143C118.598 108.172 118.575 108.202 118.553 108.231C118.553 108.231 118.547 108.231 118.547 108.236C117.972 108.782 116.924 108.699 116.551 108.01C116.179 107.327 116.794 106.515 117.668 106.54C118.587 106.569 119.122 107.479 118.62 108.143ZM119.195 108.644C119.257 108.581 119.308 108.512 119.353 108.448C119.748 107.853 119.703 107.076 119.224 106.525C118.767 106.009 117.978 105.743 117.245 105.876C116.535 106.004 115.931 106.466 115.717 107.066C115.492 107.7 115.734 108.418 116.303 108.861C116.929 109.348 117.837 109.431 118.581 109.087C118.767 108.999 119.071 108.841 119.195 108.644Z" fill="#330B24"/>
<mask id="mask4_33_309" style="mask-type:luminance" maskUnits="userSpaceOnUse" x="69" y="34" width="85" height="102">
<path d="M69.9985 34.1155H153.295V135.74H69.9985V34.1155Z" fill="white"/>
</mask>
<g mask="url(#mask4_33_309)">
<path d="M151.666 120.835C151.491 121.804 151.282 122.768 151.023 123.717C150.758 124.695 150.499 125.703 149.895 126.574C148.971 127.911 147.438 128.678 145.814 129.229C142.02 130.518 137.815 130.739 133.784 130.567C132.488 130.508 131.191 130.405 129.9 130.267C129.923 130.178 129.94 130.095 129.962 130.011C130.109 129.421 130.25 128.831 130.396 128.246C130.543 127.646 130.689 127.046 130.836 126.446C130.982 125.856 131.123 125.266 131.18 124.666C131.242 124.071 131.146 123.486 131.135 122.891C131.123 122.389 131.219 121.892 131.304 121.396C131.394 120.879 131.49 120.353 131.428 119.832C131.411 119.694 131.388 119.552 131.349 119.409C133.378 119.114 135.368 118.396 136.738 117.029C136.879 116.886 137.009 116.744 137.133 116.596C138.136 116.547 139.14 116.67 140.109 116.872C140.622 116.98 141.141 117.108 141.637 117.27C141.862 117.344 142.127 117.186 142.189 116.995C142.257 116.778 142.105 116.591 141.874 116.518C141.361 116.35 140.831 116.223 140.301 116.109C139.664 115.982 139.01 115.878 138.35 115.834C139.822 115.362 141.417 115.19 142.979 115.293C143.08 115.298 143.181 115.308 143.277 115.318C143.334 115.323 143.339 115.323 143.328 115.323C143.554 115.342 143.773 115.254 143.841 115.047C143.897 114.86 143.768 114.6 143.525 114.565C142.071 114.369 140.509 114.506 139.094 114.821C138.756 114.895 138.424 114.983 138.097 115.087C138.474 114.285 138.7 113.429 138.813 112.559C139.021 110.922 138.835 109.25 138.486 107.637C138.35 107.017 138.187 106.397 138.001 105.788C138.001 105.758 137.99 105.729 137.978 105.699C137.753 104.976 137.499 104.253 137.212 103.545C137.037 103.103 136.851 102.665 136.648 102.232C136.541 101.991 136.439 101.745 136.304 101.514C136.298 101.509 136.293 101.5 136.287 101.49C136.191 101.298 135.87 101.249 135.673 101.347C135.447 101.465 135.413 101.691 135.515 101.883C135.532 101.918 135.549 101.957 135.566 101.991C135.577 102.016 135.588 102.036 135.599 102.06C135.599 102.05 135.605 102.07 135.622 102.104C135.628 102.109 135.628 102.119 135.633 102.124C135.628 102.119 135.628 102.114 135.628 102.109V102.114C135.644 102.149 135.661 102.188 135.678 102.222C135.859 102.601 136.028 102.985 136.191 103.368C136.524 104.18 136.828 105.001 137.088 105.837C136.8 106.663 136.53 107.494 136.265 108.33C135.842 109.633 135.442 110.946 135.058 112.259C133.925 111.458 133.068 110.381 132.42 109.21C132.335 109.058 132.251 108.9 132.172 108.743C132.166 108.733 132.138 108.674 132.132 108.664C132.121 108.64 132.104 108.61 132.093 108.581C132.059 108.507 132.02 108.428 131.986 108.35C131.856 108.064 131.743 107.779 131.636 107.489C131.473 107.037 131.332 106.579 131.214 106.117C131.168 105.925 131.123 105.734 131.09 105.537C131.292 105.463 131.495 105.389 131.704 105.316C132.217 105.134 132.73 104.947 133.249 104.765C133.418 104.701 133.609 104.652 133.739 104.534C133.914 104.376 134.015 104.14 134.128 103.953C134.246 103.767 134.359 103.58 134.478 103.398C134.59 103.216 134.759 103.014 134.805 102.813C134.85 102.65 134.776 102.522 134.669 102.39C134.517 102.203 134.354 102.016 134.201 101.829C134.089 101.696 133.987 101.524 133.841 101.416C133.688 101.308 133.502 101.303 133.322 101.347C133.068 101.406 132.826 101.505 132.583 101.583C132.33 101.667 132.076 101.755 131.822 101.839C131.608 101.908 131.354 101.957 131.174 102.08C130.999 102.193 130.887 102.375 130.763 102.527C130.475 102.877 130.182 103.226 129.894 103.575C129.906 103.309 129.917 103.044 129.928 102.783C129.99 101.46 130.058 100.142 130.12 98.8196C130.142 98.2885 130.171 97.7574 130.193 97.2263C130.21 96.9313 130.261 96.6117 130.182 96.3264C130.097 96.0216 129.878 95.7806 129.596 95.6282C130.131 93.3612 130.796 91.1139 131.631 88.9158C131.98 88.011 132.352 87.116 132.764 86.226C133.108 85.4883 133.457 84.7851 133.874 84.0278C134.5 82.8919 135.193 81.7806 135.983 80.7184C136.265 80.3397 136.558 79.966 136.868 79.6021C136.935 79.5234 136.997 79.4497 137.065 79.3759C137.071 79.371 137.076 79.3661 137.076 79.3612C137.082 79.3562 137.088 79.3513 137.099 79.3415C137.127 79.3022 137.161 79.2677 137.195 79.2333C137.302 79.1153 137.409 78.9973 137.522 78.8842C137.691 78.7121 137.871 78.5498 138.046 78.3875C138.452 78.5252 138.846 78.6678 139.235 78.8202C142.257 80.025 144.985 81.815 146.902 84.1901C148.075 85.6506 148.926 87.2832 149.461 88.9994C149.687 89.7174 149.845 90.4501 150.008 91.1778C150.487 93.3022 150.882 95.4462 151.215 97.5902C151.784 101.219 152.173 104.878 152.325 108.537C152.5 112.638 152.398 116.778 151.666 120.835ZM129.1 129.77C129.032 130.046 128.97 130.316 128.897 130.591C128.846 130.783 128.795 130.965 128.688 131.122C128.468 131.432 127.764 131.422 127.346 131.452C126.134 131.531 124.917 131.462 123.739 131.231C122.572 131.004 121.489 130.616 120.424 130.159C119.364 129.701 118.315 129.215 117.194 128.88C116.066 128.541 114.877 128.433 113.687 128.398C112.515 128.364 111.337 128.403 110.164 128.305C109.014 128.206 107.937 127.931 106.945 127.42C106.432 127.149 105.942 126.849 105.457 126.544C104.995 126.264 104.538 125.974 104.149 125.615C103.377 124.922 103.072 123.992 102.836 123.073C102.559 122.02 102.277 120.953 102.215 119.871C102.182 119.35 102.187 118.809 102.306 118.298C102.311 118.263 102.317 118.234 102.328 118.204C102.593 119.601 103.298 120.914 104.374 121.991C104.532 122.148 104.848 122.128 105.011 121.991C105.192 121.833 105.169 121.597 105.011 121.44C103.884 120.309 103.208 118.848 103.117 117.358C103.129 117.344 103.134 117.334 103.14 117.324C103.247 117.152 103.326 116.97 103.399 116.788C103.433 116.704 103.467 116.621 103.501 116.542C103.506 116.537 103.506 116.532 103.506 116.532C103.518 116.513 103.529 116.493 103.535 116.478C103.557 116.439 103.58 116.4 103.608 116.36C103.613 116.35 103.659 116.301 103.659 116.291C103.675 116.277 103.692 116.262 103.715 116.247C103.721 116.242 103.754 116.218 103.771 116.208C103.777 116.203 103.783 116.203 103.788 116.198C103.822 116.188 103.856 116.178 103.884 116.173C104.036 116.149 104.245 116.173 104.436 116.183C104.752 117.826 105.491 119.409 106.59 120.771C106.725 120.948 106.985 121.027 107.204 120.914C107.402 120.815 107.503 120.555 107.368 120.378C106.308 119.065 105.609 117.57 105.31 115.991C105.344 115.967 105.378 115.942 105.412 115.918C105.609 115.75 105.694 115.534 105.818 115.328C105.992 115.033 106.297 114.831 106.652 114.737C106.861 114.683 106.956 114.674 107.182 114.683C107.193 114.683 107.283 114.688 107.295 114.688C107.334 114.698 107.379 114.703 107.419 114.713C107.447 114.723 107.475 114.728 107.498 114.733C107.582 116.527 108.332 118.253 109.612 119.665C109.764 119.832 110.091 119.802 110.249 119.665C110.44 119.502 110.401 119.281 110.249 119.114C109.076 117.821 108.428 116.188 108.388 114.546C108.783 114.138 109.442 113.926 110.079 113.941C110.401 113.951 110.745 114.029 111.038 114.182C111.201 114.26 111.291 114.329 111.438 114.467C111.585 114.6 111.692 114.733 111.81 114.9C112.267 115.564 112.543 116.316 113.14 116.906C113.732 117.491 114.623 117.772 115.508 117.713C116.359 117.654 117.188 117.344 117.814 116.842C118.197 117.599 118.287 118.46 118.045 119.271C117.943 119.621 118.361 119.857 118.704 119.714C120.739 118.863 123.096 119.07 125.283 119.153C126.439 119.198 127.6 119.212 128.756 119.08C129.049 119.045 129.342 119.001 129.629 118.947C129.816 118.907 130.024 118.844 130.159 118.976C130.464 119.286 130.543 119.748 130.548 120.137C130.554 121.13 130.182 122.089 130.238 123.082C130.272 123.648 130.334 124.199 130.272 124.759C130.21 125.31 130.064 125.856 129.928 126.397C129.652 127.518 129.376 128.644 129.1 129.77ZM101.652 128.01C101.184 128.467 100.716 128.919 100.242 129.372C100.124 128.772 99.673 128.241 99.2502 127.769C98.833 127.302 98.3821 126.864 98.0325 126.353C97.6887 125.851 97.435 125.305 97.3053 124.73C97.1644 124.081 97.2321 123.441 97.4688 122.837C98.6301 121.809 99.7857 120.781 100.947 119.753C100.953 119.753 100.953 119.748 100.953 119.748C101.071 119.645 101.184 119.542 101.302 119.439C101.302 119.468 101.297 119.498 101.297 119.527C101.308 120.127 101.392 120.717 101.505 121.307C101.618 121.878 101.759 122.448 101.9 123.014C102.024 123.51 102.153 124.012 102.356 124.489C102.571 125.01 102.852 125.487 103.258 125.92C103.337 126.003 103.427 126.092 103.518 126.171C102.898 126.785 102.277 127.4 101.652 128.01ZM100.265 129.5V129.505C100.265 129.5 100.265 129.5 100.265 129.495C100.265 129.495 100.265 129.495 100.265 129.5ZM99.3742 129.677C99.3517 129.908 99.1149 130.085 98.9289 130.232C98.4723 130.586 98.01 130.931 97.5477 131.28C97.5252 131.255 97.497 131.236 97.4688 131.221C95.5691 130.09 94.0808 128.442 93.2747 126.569C93.1901 126.372 92.9703 126.239 92.7222 126.298C92.5024 126.353 92.322 126.579 92.4065 126.78C93.2747 128.801 94.8306 130.552 96.86 131.796C96.1892 132.303 95.5183 132.809 94.7911 133.257C94.7629 133.232 94.7347 133.212 94.7009 133.193C93.6637 132.647 92.7561 131.939 91.9725 131.142C91.2058 130.365 90.5462 129.475 90.1065 128.521C90.0107 128.324 89.8021 128.187 89.5484 128.251C89.3342 128.3 89.1426 128.531 89.2384 128.728C90.1685 130.739 91.871 132.539 93.9793 133.719C93.9061 133.758 93.8328 133.798 93.7539 133.832C92.9252 134.24 92.0176 134.545 91.0818 134.732C91.0649 134.717 91.048 134.707 91.031 134.693C89.3681 133.645 88.0715 132.15 87.3612 130.478C87.2766 130.282 87.0568 130.149 86.8031 130.208C86.5832 130.257 86.4085 130.488 86.493 130.685C87.1921 132.332 88.3703 133.783 89.9036 134.909C89.881 134.909 89.8529 134.914 89.8303 134.919C89.1482 134.978 88.4379 134.997 87.7671 134.86C87.1752 134.747 86.6452 134.501 86.1886 134.157C85.219 133.414 84.6327 132.401 84.0408 131.427C83.3982 130.385 82.6822 129.406 81.6224 128.649C80.6415 127.946 79.5254 127.425 78.4205 126.898C77.2874 126.357 76.1881 125.782 75.2241 125.03C74.7224 124.636 74.2545 124.209 73.8317 123.751C73.4709 123.358 73.0256 122.915 73.2849 122.389C73.3976 122.163 73.5837 121.961 73.7584 121.769C73.9726 121.543 74.1925 121.322 74.418 121.111C74.8746 120.693 75.3594 120.304 75.8668 119.945C76.8928 119.212 78.0146 118.593 79.1533 118.012C80.3597 117.393 81.6224 116.847 82.7781 116.159C83.3418 115.824 83.8604 115.446 84.3903 115.077C84.847 114.762 85.343 114.457 85.9011 114.315C86.059 114.275 86.2225 114.246 86.3916 114.236C86.4141 114.241 86.4367 114.236 86.4592 114.236C86.5438 114.236 86.634 114.241 86.7242 114.26C86.8313 114.28 86.9666 114.334 87.0229 114.374C87.0173 114.374 87.085 114.428 87.1131 114.452C87.1188 114.457 87.1244 114.462 87.1244 114.467C87.147 114.497 87.1695 114.521 87.1864 114.551C87.4119 114.885 87.4232 115.337 87.4683 115.76C87.5867 116.916 88.0771 117.993 88.9058 118.907C89.3117 119.345 89.8078 119.778 90.3828 120.048C90.4899 120.098 90.6026 120.142 90.7154 120.176C90.7605 120.201 90.8168 120.216 90.8732 120.22C91.4257 120.368 92.0063 120.358 92.5926 120.334C93.9624 120.275 95.3605 120.25 96.7134 120.471C97.1249 120.54 97.5308 120.629 97.9311 120.747C97.2715 121.273 96.8205 122.015 96.5612 122.738C96.1666 123.845 96.3245 125 96.8487 126.057C97.1249 126.608 97.5026 127.105 97.9311 127.582C98.3313 128.024 98.7767 128.452 99.098 128.949C99.2333 129.16 99.4024 129.426 99.3742 129.677ZM70.9398 114.718C70.7594 111.954 71.1371 109.176 71.7854 106.471C72.4619 103.619 73.4427 100.826 74.5927 98.0918C75.6526 95.5741 76.8589 93.1055 78.1724 90.6763C79.1871 88.8076 80.2638 86.9685 81.4026 85.1539C81.955 84.2786 82.5131 83.4033 83.1107 82.5477C84.5989 80.4283 87.2315 78.9776 89.8134 78.0334C91.3185 77.4827 92.897 77.0745 94.4923 76.7697C94.8024 76.7106 95.1181 76.6516 95.4225 76.6025C95.3774 76.6811 95.3267 76.7598 95.2759 76.8434C94.7517 77.7089 94.2612 78.5891 93.7933 79.4792C93.0999 80.8118 92.4629 82.169 91.8936 83.541C91.2058 85.1884 90.6139 86.8603 90.1291 88.5568C89.5823 90.4599 89.1764 92.3925 88.9396 94.3398C88.9283 94.4578 88.9171 94.5807 88.9002 94.6988C88.1786 94.743 87.6318 95.2298 87.5979 95.879C87.581 96.1937 87.5698 96.5084 87.5528 96.8231C87.4908 98.1115 87.4288 99.4048 87.3668 100.698C87.3274 101.573 87.271 102.449 87.2428 103.324C87.2315 103.742 87.457 104.13 87.8573 104.362C87.9418 104.416 88.032 104.45 88.1279 104.48C88.1279 104.804 88.1278 105.124 88.1335 105.448C87.7558 105.866 87.4345 106.334 87.1582 106.806C86.9384 107.189 86.7411 107.583 86.572 107.981C86.4367 107.538 86.3239 107.091 86.2337 106.643C86.2055 106.496 86.1774 106.348 86.1548 106.201C86.1492 106.186 86.1492 106.171 86.1492 106.156C86.1435 106.127 86.1379 106.097 86.1323 106.068C86.1266 106.009 86.1153 105.945 86.1097 105.886C86.0928 105.704 86.0759 105.517 86.0702 105.335C86.0646 105.247 86.0646 105.153 86.0646 105.065C86.0702 104.563 85.1683 104.563 85.1683 105.065C85.1626 105.984 85.3487 106.904 85.5911 107.799C85.732 108.325 85.9068 108.846 86.0928 109.363C85.9631 109.845 85.8673 110.331 85.8109 110.828C85.7095 111.723 85.7433 112.623 85.8899 113.513C85.7715 113.533 85.6587 113.562 85.5516 113.592C84.909 113.779 84.3565 114.118 83.8266 114.477C83.3023 114.836 82.795 115.21 82.2425 115.534C81.6337 115.888 80.9911 116.203 80.354 116.518C77.9526 117.688 75.506 118.912 73.6344 120.697C73.3976 120.924 73.1552 121.155 72.941 121.406C71.6726 119.35 71.092 117.034 70.9398 114.718ZM96.5612 76.4303C97.0573 76.3664 97.5477 76.3074 98.0325 76.2632C99.2615 76.1501 100.473 76.0861 101.674 75.8501C101.618 75.9583 101.561 76.0665 101.505 76.1697C100.981 77.1827 100.479 78.2006 100 79.2284C99.3291 80.6643 98.6921 82.1149 98.1058 83.5804C97.4068 85.3162 96.7698 87.0668 96.2173 88.842C95.6367 90.7009 95.1463 92.5842 94.8024 94.4922C94.7798 94.625 94.7573 94.7627 94.7347 94.8955C94.1203 94.8758 93.5058 94.8512 92.8913 94.8315C91.8654 94.7922 90.8337 94.7529 89.8021 94.7184C89.9994 92.9285 90.3489 91.1483 90.8225 89.3928C91.2847 87.6717 91.8597 85.9752 92.5306 84.3081C92.8293 83.5705 93.145 82.8378 93.4776 82.11C93.782 81.4413 94.047 80.9003 94.374 80.2561C94.8588 79.312 95.3718 78.3777 95.9186 77.463C96.1271 77.1139 96.347 76.7746 96.5612 76.4303ZM102.813 75.5747C103.354 75.4173 103.89 75.2305 104.397 74.9994C104.42 76.7647 105.333 78.4711 106.725 79.7447C108.259 81.1462 110.356 82.0215 112.509 82.4395C114.753 82.8772 117.12 82.8526 119.347 82.351C121.489 81.8642 123.457 80.92 125.052 79.5923C126.54 78.3482 127.718 76.7844 128.322 75.0633C128.587 75.3288 128.88 75.5747 129.195 75.796C129.737 76.1796 130.329 76.4894 130.966 76.7303C130.825 76.9368 130.684 77.1483 130.548 77.3548C129.951 78.2596 129.381 79.1792 128.835 80.1135C128.051 81.4511 127.313 82.8083 126.63 84.1901C125.819 85.8326 125.075 87.5045 124.443 89.2059C123.778 90.991 123.22 92.8055 122.842 94.6545C122.803 94.8414 122.769 95.0282 122.735 95.2151C121.98 95.2397 121.41 95.7314 121.371 96.4002C121.354 96.7149 121.343 97.0296 121.326 97.3444C121.264 98.618 121.202 99.8965 121.145 101.175C120.835 101.278 120.548 101.495 120.305 101.662C120.21 101.731 120.114 101.8 120.018 101.868C119.263 102.065 118.496 102.232 117.724 102.375C116.698 102.557 115.672 102.695 114.668 102.798C113.755 102.886 112.836 102.95 111.917 102.995C111.923 102.975 111.928 102.96 111.934 102.94C112.267 101.873 112.176 100.742 111.833 99.6851C111.754 99.4392 111.669 99.1835 111.551 98.9425C111.461 98.7704 111.308 98.6426 111.088 98.6082C110.902 98.5786 110.711 98.6229 110.57 98.7311C110.389 98.8786 110.333 99.1294 110.243 99.3261C109.972 99.9014 109.64 100.462 109.2 100.954C108.991 101.19 108.749 101.416 108.462 101.583C108.321 101.672 108.163 101.731 107.994 101.77C107.898 101.79 107.796 101.79 107.695 101.805C107.571 101.8 107.447 101.79 107.328 101.765C107.204 101.731 107.086 101.686 106.973 101.637C106.703 101.49 106.488 101.293 106.37 101.037C106.224 100.732 106.269 100.403 106.353 100.088C106.398 99.9752 106.438 99.8621 106.494 99.7539C106.522 99.7047 106.556 99.6605 106.584 99.6113C106.866 99.2228 107.244 98.918 107.7 98.6868C107.853 98.6082 108.033 98.5541 108.151 98.4311C108.264 98.3131 108.292 98.141 108.23 97.9984C108.163 97.8361 107.994 97.7525 107.836 97.664C107.605 97.5361 107.362 97.4181 107.114 97.3099C106.641 97.1132 106.133 96.9657 105.609 96.8969C104.645 96.7739 103.653 96.9657 102.858 97.4673C102.12 97.9345 101.578 98.6082 101.173 99.3113C100.71 100.118 100.513 101.077 100.507 101.972C100.502 102.213 100.519 102.454 100.552 102.69C99.7406 102.616 98.9345 102.537 98.1227 102.444C98.0946 102.439 98.0607 102.439 98.0325 102.434C98.0325 102.434 98.0325 102.434 98.0269 102.434C98.0269 102.434 98.0213 102.434 98.0156 102.434C97.948 102.424 97.8803 102.414 97.8183 102.409C97.6999 102.395 97.5816 102.38 97.4632 102.365C97.2715 102.341 97.0798 102.316 96.8882 102.291C96.6909 102.267 96.4879 102.237 96.285 102.208C96.2794 102.208 96.2681 102.208 96.2624 102.203C96.2286 102.198 96.1948 102.198 96.161 102.198C96.223 100.9 96.285 99.6015 96.347 98.3033C96.3696 97.7673 96.3977 97.2362 96.4203 96.7051C96.4372 96.415 96.4879 96.0904 96.409 95.8052C96.3075 95.4364 96.0031 95.1561 95.6198 95.0135C95.9242 93.2481 96.3526 91.4975 96.8656 89.7665C97.4012 87.9766 98.0213 86.2063 98.709 84.4507C99.3009 82.9362 99.9436 81.4363 100.631 79.9513C100.772 79.6365 100.919 79.3267 101.065 79.012C101.139 78.8694 101.206 78.7219 101.28 78.5744C101.313 78.5055 101.347 78.4367 101.381 78.3678C101.381 78.358 101.404 78.3187 101.409 78.3039C101.421 78.2842 101.443 78.24 101.449 78.2252C101.674 77.7581 101.905 77.2958 102.148 76.8336C102.362 76.4107 102.587 75.9927 102.813 75.5747ZM105.31 74.5371C105.716 74.2962 106.105 74.0306 106.455 73.7307C107.633 72.7324 108.411 71.3654 108.586 69.9442C110.271 70.9818 112.261 71.5719 114.302 71.8227C116.269 72.0587 118.282 71.9112 120.153 71.3457C121.98 70.7949 123.654 69.8852 125.013 68.6952C125.215 68.5181 125.407 68.3362 125.599 68.1444C125.638 69.536 125.943 70.9572 126.467 72.2357C126.76 72.9488 127.143 73.6471 127.628 74.2814C127.205 75.8747 126.247 77.3401 124.967 78.5449C123.592 79.8431 121.867 80.8266 119.939 81.3822C117.915 81.9674 115.717 82.1199 113.614 81.8297C111.59 81.5544 109.572 80.8954 108.011 79.7251C106.494 78.594 105.4 76.9664 105.305 75.2108C105.293 74.9944 105.293 74.7732 105.31 74.5568C105.31 74.5519 105.31 74.542 105.31 74.5371ZM105.942 66.3004C104.904 64.7366 104.448 62.9171 104.121 61.1321C103.805 59.4208 103.664 57.6849 103.63 55.9491C103.625 55.6048 103.619 55.2655 103.625 54.9213C103.625 54.9066 103.625 54.8967 103.625 54.882C103.625 54.3116 103.642 53.746 103.681 53.1756C104.042 53.092 104.408 53.0133 104.775 52.9347C105.789 52.7232 106.804 52.5413 107.824 52.379C109.07 52.1823 110.22 52.0397 111.455 51.9315C112.797 51.8135 114.144 51.7496 115.486 51.7594C118.079 51.7791 120.773 52.0643 123.118 52.9838C123.727 53.2248 124.302 53.5002 124.967 53.6329C125.604 53.7559 126.258 53.7854 126.907 53.7116C127.606 53.628 128.288 53.4264 128.897 53.1166C128.897 54.9213 128.784 56.731 128.536 58.5258C128.322 60.0306 127.995 61.5747 127.544 63.0647C127.335 63.7728 127.081 64.5006 126.749 65.1398C126.371 65.8676 125.864 66.6052 125.328 67.2052C124.19 68.4788 122.769 69.4721 121.106 70.1655C119.477 70.849 117.633 71.1932 115.807 71.1539C114.713 71.1293 113.693 70.972 112.622 70.7261C111.658 70.5048 110.778 70.195 109.916 69.7623C108.264 68.9312 106.894 67.7313 105.942 66.3004ZM103.162 52.4872C103.157 52.4921 103.151 52.4921 103.146 52.4921C103.055 52.5118 102.965 52.5265 102.886 52.5314C102.604 52.5462 102.351 52.4921 102.114 52.3642C101.9 52.2511 101.736 52.0987 101.629 51.8774C101.607 51.8331 101.556 51.6561 101.55 51.5971C101.528 51.4299 101.522 51.2676 101.533 51.1004C101.573 50.1563 102.001 49.2761 102.61 48.4991C102.616 48.4893 102.621 48.4843 102.627 48.4745C105.395 47.4812 108.326 46.7829 111.297 46.5026C112.627 46.3797 113.969 46.3354 115.305 46.3698C116.506 46.4043 117.724 46.5026 118.851 46.655C120.897 46.9403 122.915 47.4123 124.843 48.0664C125.052 48.1352 125.255 48.2041 125.458 48.2778C125.464 48.2827 125.469 48.2827 125.48 48.2876C125.497 48.2926 125.531 48.3073 125.531 48.3073C125.576 48.3221 125.621 48.3417 125.661 48.3565C125.762 48.3958 125.864 48.4303 125.965 48.4696C126.326 48.6122 126.681 48.7548 127.031 48.9073C127.623 49.1679 128.203 49.4433 128.767 49.7432C129.156 49.9498 129.539 50.171 129.906 50.4071C129.911 50.412 129.917 50.4169 129.923 50.4218C129.951 50.4415 129.985 50.4612 130.013 50.4808C130.064 50.5153 130.109 50.5546 130.159 50.589C130.159 50.589 130.159 50.5939 130.165 50.5939C129.776 51.5135 129.049 52.2265 127.995 52.6445C127.921 52.674 127.933 52.6691 127.882 52.6888C127.814 52.7134 127.752 52.733 127.685 52.7527C127.538 52.797 127.391 52.8363 127.245 52.8658C127.104 52.8953 126.963 52.9199 126.822 52.9396C126.816 52.9396 126.794 52.9445 126.777 52.9445C126.754 52.9445 126.726 52.9494 126.698 52.9494C126.614 52.9592 126.523 52.9642 126.433 52.9691C125.813 52.9937 125.311 52.9347 124.719 52.7626C124.156 52.6003 123.581 52.3052 123 52.0987C122.419 51.8922 121.822 51.725 121.219 51.5873C119.933 51.2873 118.609 51.125 117.284 51.0414C114.651 50.8742 112.007 51.0464 109.397 51.3709C107.396 51.6217 105.412 51.9758 103.456 52.4183C103.36 52.4429 103.258 52.4675 103.162 52.4872ZM101.697 60.6059C101.133 60.1535 100.817 59.5536 100.648 58.9094C100.468 58.2062 100.451 57.4686 100.49 56.7506C100.524 56.1458 100.693 55.4573 101.274 55.0836C101.432 54.9852 101.516 54.9508 101.697 54.9164C101.81 54.8918 101.967 54.8869 102.148 54.8967C102.249 54.9066 102.227 54.9016 102.323 54.9213C102.413 54.9361 102.503 54.9607 102.593 54.9902C102.599 54.9951 102.604 54.9951 102.616 55.0049C102.655 55.0197 102.689 55.0344 102.723 55.0541C102.717 56.7211 102.813 58.3881 103.044 60.0453C103.095 60.4191 103.151 60.7977 103.213 61.1714C102.649 61.1616 102.131 60.9501 101.697 60.6059ZM102.576 44.4373C102.599 44.1717 102.633 43.9062 102.672 43.6456C102.672 43.6357 102.672 43.6357 102.672 43.6308C102.672 43.6259 102.672 43.6259 102.672 43.6259C102.678 43.5915 102.683 43.557 102.689 43.5275C102.7 43.4538 102.711 43.3849 102.728 43.3112C102.751 43.1735 102.785 43.0309 102.813 42.8932C102.943 42.3326 103.117 41.7769 103.354 41.236C103.382 41.1671 103.411 41.1032 103.444 41.0344C103.456 41 103.473 40.9655 103.489 40.936C103.489 40.9311 103.489 40.9311 103.489 40.9311C103.495 40.9164 103.506 40.9016 103.512 40.8869C103.58 40.7492 103.653 40.6164 103.732 40.4787C103.884 40.2132 104.053 39.9525 104.245 39.6968C104.341 39.569 104.442 39.4411 104.549 39.3182C104.572 39.2887 104.6 39.2592 104.623 39.2247C104.628 39.2247 104.628 39.2247 104.628 39.2247C104.634 39.2149 104.645 39.2051 104.656 39.1952C104.707 39.1362 104.763 39.0772 104.82 39.0182C105.057 38.7723 105.316 38.5412 105.592 38.3298C105.727 38.2216 105.868 38.1183 106.015 38.02C106.032 38.0101 106.043 38.0003 106.06 37.9905C106.099 37.9659 106.139 37.9413 106.178 37.9167C106.257 37.8626 106.342 37.8134 106.426 37.7643C106.759 37.5725 107.109 37.4004 107.469 37.2479C107.565 37.2086 107.661 37.1692 107.751 37.1348C107.768 37.1299 107.841 37.1004 107.853 37.1004C107.898 37.0807 107.949 37.066 107.994 37.0463C108.202 36.9775 108.416 36.9135 108.631 36.8545C109.082 36.7267 109.544 36.6283 110.012 36.5546C110.249 36.5152 110.542 36.4759 110.711 36.4562C110.84 36.4415 110.976 36.4316 111.105 36.4169C111.066 36.4218 110.987 36.4316 111.021 36.4267C111.134 36.4169 111.246 36.4021 111.359 36.3923C111.94 36.3382 112.52 36.2988 113.101 36.2743C115.204 36.1759 117.323 36.2251 119.415 36.4513C120.655 36.5841 121.935 36.8004 123.158 37.1004C124.37 37.3954 125.576 37.7643 126.676 38.315C128.632 39.2985 130.244 40.8475 131.09 42.6424C132.003 44.575 132.076 46.6944 131.253 48.6565C131.073 49.0843 130.847 49.4924 130.582 49.8858C130.278 49.6744 129.956 49.4777 129.629 49.2957C128.395 48.5925 127.059 48.0221 125.7 47.5304C123.767 46.8272 121.743 46.3108 119.68 45.9912C117.075 45.583 114.42 45.4749 111.782 45.6814C108.659 45.9273 105.592 46.596 102.689 47.614C102.689 47.614 102.689 47.614 102.689 47.609C102.683 47.5795 102.678 47.5549 102.672 47.5254C102.649 47.373 102.633 47.2206 102.616 47.0681C102.52 46.1928 102.509 45.3126 102.576 44.4373ZM103.495 40.9262C103.512 40.8819 103.501 40.9114 103.495 40.9262ZM104.628 39.2247C104.668 39.1805 104.639 39.21 104.628 39.2247ZM116.292 35.0547C116.652 34.922 117.098 34.8679 117.459 34.9072C118.056 34.9711 118.586 35.2367 118.964 35.6252C117.848 35.517 116.72 35.4629 115.593 35.453C115.796 35.2859 116.032 35.1531 116.292 35.0547ZM129.782 55.1229C129.917 54.9902 130.165 54.9115 130.385 54.8918C130.458 54.8869 130.531 54.8869 130.61 54.8869C130.65 54.8869 130.689 54.8869 130.729 54.8918C130.74 54.8918 130.785 54.8967 130.796 54.8967C130.858 54.9016 130.92 54.9164 130.977 54.9312C131.016 54.9361 131.05 54.9459 131.084 54.9557C131.095 54.9607 131.101 54.9607 131.106 54.9656C131.118 54.9656 131.123 54.9754 131.14 54.9803C131.743 55.3049 131.997 55.8704 132.048 56.4851C132.104 57.1981 132.048 57.9554 131.879 58.6586C131.727 59.288 131.456 59.9175 130.937 60.3895C130.43 60.8518 129.691 61.196 128.976 61.1173C129.06 60.7387 129.133 60.365 129.201 59.9863C129.494 58.3832 129.669 56.7703 129.748 55.1475C129.759 55.1377 129.77 55.1328 129.782 55.1229ZM129.319 96.651C129.319 96.6608 129.319 96.6707 129.319 96.6756C129.319 96.7149 129.314 96.7493 129.314 96.7887C129.297 97.1624 129.28 97.5361 129.263 97.9099C129.201 99.1786 129.139 100.447 129.077 101.716C129.043 102.522 129.015 103.329 128.964 104.135C128.953 104.357 128.733 104.524 128.457 104.519C128.141 104.509 127.826 104.499 127.51 104.485C127.251 104.096 126.935 103.737 126.591 103.398C126.112 102.926 125.565 102.444 124.945 102.109C124.748 102.006 124.494 102.011 124.353 102.188C124.263 102.311 124.24 102.478 124.195 102.621C124.139 102.808 124.082 102.99 124.026 103.176C123.908 103.57 123.789 103.958 123.671 104.347C123.519 104.342 123.366 104.337 123.214 104.332L122.555 104.308C122.498 104.308 122.442 104.308 122.386 104.303C122.301 104.298 122.301 104.303 122.216 104.278C122.019 104.219 121.912 104.047 121.918 103.835C121.923 103.737 121.929 103.639 121.929 103.54C121.94 103.388 121.946 103.235 121.952 103.083C122.036 102.803 122.121 102.522 122.194 102.242C122.278 101.932 122.278 101.559 122.036 101.328C122.087 100.329 122.132 99.331 122.177 98.3328C122.205 97.841 122.228 97.3493 122.25 96.8624L122.267 96.4592C122.267 96.4297 122.273 96.4051 122.273 96.3756C122.273 96.3707 122.273 96.3707 122.273 96.3658C122.278 96.3117 122.273 96.3363 122.295 96.2724C122.301 96.2576 122.301 96.2527 122.301 96.2478C122.301 96.2478 122.301 96.2478 122.307 96.2428C122.318 96.2133 122.34 96.1789 122.363 96.1543C122.448 96.0511 122.605 95.9871 122.78 95.9921C122.803 95.9921 122.831 95.9921 122.853 95.9921C123.028 96.0019 123.197 96.0068 123.366 96.0117C124.032 96.0363 124.691 96.0609 125.351 96.0806C126.518 96.1248 127.685 96.1592 128.852 96.2084C128.93 96.2133 128.953 96.2084 129.015 96.233C129.026 96.233 129.1 96.2674 129.133 96.2871C129.116 96.2773 129.207 96.3412 129.229 96.3658C129.207 96.3412 129.269 96.4297 129.286 96.4592C129.286 96.4592 129.291 96.4641 129.291 96.469C129.303 96.4986 129.314 96.533 129.319 96.5674C129.319 96.5625 129.319 96.6362 129.319 96.651ZM130.481 105.178C130.154 105.325 129.866 105.522 129.567 105.709C129.133 105.979 128.699 106.25 128.265 106.52C128.243 106.235 128.181 105.945 128.091 105.665L128.609 105.34C129.009 105.089 129.438 104.858 129.793 104.563C130.131 104.278 130.391 103.914 130.667 103.585C130.96 103.231 131.236 102.842 131.563 102.508C131.856 102.385 132.189 102.301 132.493 102.203C132.792 102.1 133.096 102.001 133.395 101.903C133.502 102.016 133.632 102.198 133.739 102.321C133.863 102.473 134.021 102.626 134.128 102.788C134.066 102.906 133.976 103.024 133.903 103.137C133.824 103.27 133.739 103.408 133.655 103.54C133.53 103.742 133.378 103.949 133.266 104.16C133.181 104.185 133.096 104.224 133.023 104.253C132.848 104.317 132.668 104.381 132.488 104.445C132.132 104.573 131.772 104.701 131.417 104.829C131.101 104.942 130.785 105.045 130.481 105.178ZM116.816 115.657C116.991 115.549 117.165 115.441 117.34 115.328C118.022 114.905 118.699 114.477 119.381 114.054C119.42 114.024 119.465 114 119.511 113.975C119.511 114.236 119.403 114.501 119.229 114.718C118.947 115.067 118.501 115.293 118.107 115.534C117.757 115.755 117.414 115.972 117.064 116.188L116.686 115.741C116.731 115.711 116.771 115.687 116.816 115.657ZM116.32 115.298L115.97 114.885C116.968 114.26 117.966 113.636 118.964 113.011L119.003 113.061C119.105 113.179 119.223 113.297 119.313 113.424C118.721 113.798 118.129 114.167 117.532 114.541C117.205 114.747 116.872 114.954 116.545 115.16C116.472 115.205 116.393 115.249 116.32 115.298ZM114.753 115.898C114.916 115.731 115.074 115.569 115.238 115.401C115.288 115.347 115.345 115.298 115.401 115.244C115.536 115.411 115.677 115.573 115.813 115.741C115.999 115.967 116.19 116.188 116.371 116.414C116.404 116.454 116.438 116.503 116.478 116.557L116.015 116.842C115.824 116.891 115.626 116.926 115.457 116.936C114.927 116.965 114.46 116.847 114.076 116.591C114.302 116.36 114.527 116.129 114.753 115.898ZM110.243 111.521C110.305 111.462 110.378 111.369 110.457 111.325C110.48 111.315 110.502 111.305 110.525 111.305C112.447 111.487 114.927 112.269 114.939 114.251C114.939 114.349 114.944 114.457 114.922 114.556C114.899 114.693 114.803 114.767 114.702 114.87C114.51 115.067 114.324 115.259 114.133 115.455C113.935 115.657 113.732 115.864 113.535 116.065C113.062 115.426 112.797 114.688 112.244 114.088C111.703 113.493 110.886 113.164 110.006 113.159C109.155 113.159 108.326 113.454 107.757 113.995C107.672 113.97 107.593 113.956 107.509 113.941C108.416 113.134 109.33 112.328 110.243 111.521ZM121.388 102.183C121.348 102.316 121.298 102.449 121.264 102.581C121.174 102.891 121.083 103.201 120.993 103.511C120.824 104.091 120.661 104.666 120.491 105.247C120.018 105.099 119.544 104.957 119.077 104.814C118.755 104.716 118.439 104.617 118.118 104.519C118.547 104.062 118.998 103.624 119.482 103.211C119.776 102.965 120.08 102.724 120.396 102.498C120.706 102.267 121.016 102.016 121.377 101.844C121.399 101.834 121.427 101.829 121.45 101.819C121.478 101.932 121.416 102.085 121.388 102.183ZM123.383 105.291C123.304 105.547 123.226 105.802 123.152 106.058C122.521 105.861 121.89 105.67 121.258 105.478C121.269 105.429 121.281 105.38 121.292 105.335C121.337 105.183 121.382 105.025 121.427 104.873C121.439 104.834 121.45 104.799 121.461 104.765C121.512 104.809 121.568 104.848 121.63 104.883C121.878 105.03 122.166 105.075 122.459 105.084L123.434 105.119C123.417 105.178 123.4 105.232 123.383 105.291ZM113.563 107.489C113.422 107.455 113.293 107.42 113.157 107.376C113.062 107.346 112.847 107.317 112.774 107.253C112.695 107.179 112.836 106.914 112.859 106.81C112.926 106.56 112.988 106.309 113.056 106.058C113.084 105.945 113.112 105.827 113.146 105.714C113.157 105.679 113.163 105.625 113.186 105.596C113.236 105.542 113.343 105.566 113.411 105.576C113.687 105.611 113.963 105.655 114.24 105.694C114.166 106.107 114.059 106.511 113.918 106.914C113.845 107.12 113.761 107.322 113.665 107.519C113.631 107.509 113.597 107.499 113.563 107.489ZM118.597 112.574L117.977 112.957C117.261 113.41 116.54 113.862 115.824 114.31C115.801 114.324 115.779 114.339 115.751 114.349C115.751 114.246 115.745 114.142 115.734 114.044C115.734 114.029 115.734 114.015 115.734 114C115.796 113.936 115.863 113.862 115.931 113.798C116.049 113.695 116.173 113.592 116.303 113.493C116.562 113.331 116.822 113.169 117.081 113.007C117.092 113.002 117.103 112.997 117.115 112.992C117.554 112.766 118.017 112.589 118.501 112.456L118.541 112.5L118.597 112.574ZM116.664 112.411C116.269 112.618 115.863 112.864 115.514 113.154C115.384 112.859 115.204 112.579 114.967 112.328C114.245 111.561 113.157 111.103 112.052 110.843C113.614 109.486 114.674 107.755 115.035 105.852C115.125 105.36 115.181 104.858 115.176 104.357C116.878 104.878 118.58 105.399 120.289 105.92C120.762 106.063 121.241 106.211 121.72 106.358C121.957 106.427 122.194 106.501 122.425 106.574C122.645 106.638 122.87 106.732 123.102 106.766C123.412 106.806 123.727 106.688 123.857 106.432C123.941 106.27 123.97 106.083 124.026 105.916C124.088 105.704 124.156 105.488 124.218 105.276C124.454 104.504 124.686 103.737 124.922 102.965C125.283 103.221 125.61 103.501 125.926 103.796C126.337 104.189 126.709 104.627 126.98 105.104C127.172 105.429 127.313 105.773 127.403 106.127C127.459 106.422 127.493 106.702 127.487 107.002C127.465 107.125 127.465 107.258 127.442 107.386C127.408 107.563 127.358 107.74 127.301 107.912C127.143 108.291 126.952 108.645 126.709 108.989C125.881 110.076 124.719 110.931 123.248 111.276C122.882 111.364 122.51 111.413 122.132 111.438C121.743 111.458 121.36 111.433 120.971 111.438C120.176 111.448 119.375 111.526 118.603 111.703C117.926 111.861 117.267 112.092 116.664 112.411ZM104.718 112.23C105.237 111.167 105.756 110.1 106.269 109.033C106.528 108.502 106.782 107.971 107.041 107.445C107.075 107.386 107.114 107.317 107.148 107.243C108.247 106.87 109.285 106.265 110.119 105.557C110.722 105.045 111.224 104.445 111.573 103.786C112.368 103.757 113.163 103.708 113.952 103.644C115.508 103.511 117.07 103.314 118.592 103.004C118.141 103.408 117.712 103.831 117.318 104.273C117.188 104.239 117.064 104.199 116.94 104.16C116.585 104.052 116.23 103.944 115.875 103.835C115.705 103.781 115.531 103.732 115.362 103.678C115.215 103.634 115.068 103.575 114.916 103.57C114.679 103.56 114.46 103.683 114.386 103.88C114.33 104.027 114.369 104.189 114.369 104.337C114.369 104.48 114.369 104.627 114.364 104.77C114.358 104.848 114.347 104.927 114.341 105.006C114.166 104.976 113.992 104.952 113.811 104.927C113.563 104.893 113.293 104.844 113.039 104.888C112.537 104.966 112.402 105.394 112.3 105.768C112.238 106.009 112.182 106.245 112.12 106.486C112.069 106.683 112.002 106.879 111.968 107.076C111.906 107.465 112.086 107.76 112.509 107.912C112.751 108.001 113.005 108.069 113.259 108.138C113.281 108.143 113.31 108.153 113.332 108.158C113.033 108.674 112.678 109.161 112.261 109.613C112.075 109.815 111.883 110.007 111.68 110.189C111.5 110.356 111.291 110.504 111.105 110.666C110.925 110.636 110.7 110.587 110.502 110.607C110.468 110.602 110.435 110.607 110.395 110.607C110.085 110.641 109.843 110.853 109.64 111.044C109.347 111.315 109.053 111.576 108.755 111.841L106.297 114.02C105.919 114.128 105.575 114.324 105.31 114.59C105.136 114.772 105.028 114.964 104.91 115.17C104.882 115.229 104.848 115.293 104.809 115.337L104.786 115.357C104.775 115.367 104.763 115.377 104.752 115.382C104.747 115.387 104.707 115.391 104.69 115.396C104.662 115.406 104.606 115.406 104.538 115.406C104.245 115.406 103.969 115.372 103.675 115.421C103.427 115.46 103.191 115.583 103.022 115.746C103.016 115.746 103.016 115.75 103.01 115.755C103.58 114.58 104.149 113.405 104.718 112.23ZM95.6818 119.124C95.8058 118.878 95.9298 118.632 96.0595 118.386C96.3245 117.87 96.5894 117.354 96.8544 116.837C97.9311 114.733 99.0078 112.633 100.085 110.528C100.626 109.471 101.167 108.414 101.708 107.361C101.973 106.845 102.232 106.334 102.497 105.822C102.503 105.812 102.509 105.802 102.514 105.793C102.531 105.797 102.548 105.802 102.559 105.807C102.83 105.906 103.1 105.999 103.371 106.097C104.38 106.456 105.395 106.82 106.404 107.179C105.434 109.181 104.465 111.177 103.495 113.179C102.554 115.121 101.612 117.059 100.671 119.001C100.163 119.453 99.6561 119.901 99.1431 120.353C99.1205 120.334 99.0924 120.319 99.0642 120.304C98.2637 119.989 97.4294 119.788 96.5725 119.67L95.5972 119.301C95.6254 119.237 95.6536 119.178 95.6818 119.124ZM105.603 100.944C105.744 101.593 106.331 102.134 107.058 102.331C107.514 102.454 108.022 102.439 108.467 102.277C108.884 102.124 109.228 101.854 109.527 101.564C110.187 100.929 110.609 100.167 110.97 99.3851C111.01 99.4736 111.055 99.5671 111.088 99.6605C111.162 99.8621 111.224 100.069 111.28 100.28C111.337 100.511 111.382 100.747 111.41 100.983C111.427 101.15 111.415 101.328 111.444 101.495C111.41 101.691 111.427 101.903 111.404 102.104C111.37 102.331 111.32 102.552 111.258 102.773C111.128 103.181 110.942 103.57 110.7 103.934C110.412 104.357 110.062 104.725 109.674 105.08C109.386 105.316 109.093 105.547 108.766 105.753C108.507 105.92 108.23 106.063 107.96 106.215C107.723 106.334 107.481 106.447 107.238 106.545C107.114 106.594 106.99 106.643 106.872 106.688C106.866 106.683 106.861 106.683 106.855 106.683C106.567 106.579 106.28 106.476 105.992 106.373C104.842 105.96 103.692 105.552 102.542 105.143C101.905 104.514 101.471 103.771 101.302 102.945C101.127 102.1 101.218 101.244 101.46 100.418C101.804 99.3949 102.463 98.3819 103.535 97.8115C103.749 97.7033 103.974 97.6296 104.211 97.5607C104.465 97.5116 104.718 97.4722 104.983 97.4673C105.31 97.482 105.62 97.5165 105.942 97.5804C106.387 97.6935 106.804 97.8509 107.21 98.0426C107.266 98.0771 107.328 98.1115 107.385 98.141C107.3 98.1852 107.221 98.2295 107.142 98.2738C106.832 98.4508 106.556 98.6524 106.314 98.8934C105.767 99.4441 105.446 100.216 105.603 100.944ZM89.8078 114.29C89.695 113.631 89.6048 113.021 89.5203 112.323C89.2384 110.066 89.0918 107.799 89.0411 105.532C89.0298 105.212 89.0298 104.898 89.0242 104.578C89.4301 104.593 89.8359 104.607 90.2362 104.622C91.6286 104.671 93.0154 104.721 94.4078 104.77C94.498 104.775 94.5938 104.775 94.684 104.78C95.3718 104.789 95.9749 104.362 96.0764 103.767C96.0877 103.668 96.0933 103.57 96.099 103.467C96.1046 103.304 96.1159 103.137 96.1215 102.97C96.612 103.044 97.108 103.103 97.5985 103.162C98.6414 103.29 99.6843 103.393 100.727 103.486C100.834 103.84 100.986 104.185 101.184 104.514C101.381 104.844 101.629 105.173 101.917 105.453C100.879 107.469 99.8478 109.486 98.8161 111.502C97.7394 113.597 96.6683 115.687 95.5972 117.781C95.3492 118.268 95.0561 118.75 94.8418 119.252C94.746 119.286 94.6558 119.321 94.56 119.355C94.436 119.404 94.3063 119.463 94.1823 119.517C93.6637 119.517 93.145 119.527 92.6264 119.552C92.1585 119.571 91.7075 119.591 91.2735 119.502C91.2509 119.448 91.2284 119.394 91.2002 119.34C91.1382 119.203 91.0818 119.065 91.0254 118.927C90.9183 118.657 90.8168 118.381 90.7266 118.106C90.5237 117.501 90.3546 116.886 90.208 116.267C90.0558 115.613 89.9205 114.954 89.8078 114.29ZM95.4563 95.8494C95.4338 95.8249 95.4958 95.9085 95.5127 95.938C95.5127 95.9429 95.5183 95.9429 95.5183 95.9478C95.5296 95.9822 95.5409 96.0117 95.5465 96.0461C95.5465 96.0461 95.5465 96.115 95.5465 96.1297C95.5465 96.1396 95.5465 96.1494 95.5465 96.1592C95.5465 96.1937 95.5409 96.2281 95.5409 96.2674C95.524 96.6412 95.507 97.0149 95.4901 97.3935C95.4281 98.6622 95.3661 99.931 95.3041 101.195C95.2703 102.001 95.2421 102.813 95.1914 103.614C95.1801 103.835 94.9602 104.003 94.684 104.003C93.6411 103.963 92.5982 103.924 91.5553 103.89C90.8507 103.865 90.146 103.84 89.4413 103.811C89.2215 103.806 89.0016 103.796 88.7818 103.791C88.7254 103.786 88.669 103.786 88.6127 103.781C88.5281 103.781 88.5281 103.781 88.4435 103.757C88.2462 103.698 88.1391 103.526 88.1448 103.314C88.1504 103.216 88.156 103.117 88.156 103.019C88.1786 102.572 88.2011 102.119 88.2237 101.672C88.2857 100.383 88.3477 99.0999 88.4041 97.8115C88.4323 97.3247 88.4548 96.8329 88.4774 96.3412C88.483 96.2084 88.4886 96.0757 88.4943 95.938C88.4943 95.9134 88.4999 95.8839 88.4999 95.8544C88.4999 95.8544 88.4999 95.8494 88.4999 95.8445C88.5055 95.7904 88.4999 95.815 88.5225 95.7511C88.5281 95.7363 88.5281 95.7314 88.5281 95.7314C88.5281 95.7265 88.5281 95.7265 88.5337 95.7265C88.545 95.6921 88.5676 95.6626 88.5901 95.6331C88.6747 95.5298 88.8325 95.4708 89.0073 95.4708C89.0298 95.4708 89.058 95.4708 89.0806 95.4757C89.1595 95.4757 89.2328 95.4806 89.3117 95.4806C89.4075 95.4856 89.5033 95.4905 89.5935 95.4905C90.2587 95.5151 90.9183 95.5396 91.5779 95.5642C92.7448 95.6036 93.9117 95.638 95.0786 95.6872C95.1575 95.6921 95.1801 95.6921 95.2421 95.7118C95.2534 95.7118 95.3323 95.7462 95.3605 95.7708C95.3436 95.756 95.4338 95.8249 95.4563 95.8494ZM87.1301 114.467C87.1582 114.501 87.1413 114.482 87.1301 114.467ZM86.7862 113.484C86.5269 111.959 86.6396 110.435 87.1357 108.969C87.2372 108.664 87.3555 108.364 87.4908 108.069C87.519 107.996 87.5528 107.927 87.5867 107.853C87.5923 107.848 87.5923 107.843 87.5923 107.838C87.5979 107.833 87.5979 107.828 87.6036 107.823C87.6205 107.784 87.6374 107.75 87.66 107.715C87.722 107.592 87.784 107.469 87.8516 107.351C87.9531 107.169 88.0658 106.988 88.1786 106.81C88.1955 107.253 88.218 107.691 88.2462 108.128C88.3984 110.774 88.6634 113.434 89.244 116.041C89.4526 116.995 89.7119 117.944 90.0614 118.868C89.3286 118.263 88.8043 117.432 88.545 116.611C88.3928 116.124 88.3759 115.637 88.297 115.141C88.2237 114.629 88.0602 114.093 87.5698 113.764C87.3386 113.606 87.068 113.518 86.7862 113.484ZM134.483 114.275C134.134 115.534 133.807 116.803 133.519 118.076C133.497 118.086 133.485 118.091 133.485 118.091C133.429 118.111 133.367 118.131 133.311 118.15C132.781 118.327 132.234 118.465 131.676 118.563C131.456 118.603 131.236 118.637 131.011 118.667C130.937 118.568 130.853 118.475 130.757 118.391C130.216 117.944 129.528 118.185 128.891 118.278C128.316 118.362 127.741 118.391 127.16 118.401C124.753 118.445 122.301 118.057 119.922 118.529C119.629 118.588 119.341 118.662 119.054 118.75C119.15 117.816 118.907 116.862 118.355 116.05C118.564 115.923 118.766 115.79 118.975 115.662C119.652 115.239 120.215 114.639 120.193 113.882C120.187 113.71 120.148 113.557 120.08 113.415C120.074 113.37 120.057 113.336 120.029 113.306C119.939 113.134 119.809 112.977 119.674 112.81C119.629 112.761 119.584 112.707 119.539 112.652C119.809 112.485 120.074 112.318 120.345 112.151C120.531 112.136 120.723 112.126 120.909 112.126C121.241 112.121 121.568 112.141 121.901 112.141C122.295 112.136 122.69 112.097 123.079 112.028C123.817 111.895 124.522 111.654 125.153 111.305C126.315 110.676 127.296 109.702 127.848 108.615C128.079 108.153 128.22 107.676 128.265 107.194C128.513 107.037 128.761 106.884 129.009 106.727C129.427 106.466 129.838 106.206 130.255 105.945C130.362 106.491 130.531 107.032 130.717 107.558C131.191 108.891 131.862 110.189 132.815 111.31C133.39 111.984 134.049 112.579 134.821 113.075C134.709 113.479 134.59 113.877 134.483 114.275ZM137.888 112.736C137.882 112.761 137.877 112.78 137.877 112.805C137.866 112.864 137.854 112.918 137.843 112.977C137.775 113.356 137.68 113.724 137.555 114.093C137.493 114.275 137.426 114.457 137.347 114.639C137.313 114.718 137.274 114.801 137.234 114.88C137.229 114.9 137.206 114.939 137.2 114.954C137.172 115.003 137.15 115.052 137.121 115.096C136.935 115.441 136.716 115.77 136.462 116.085C136.434 116.119 136.4 116.154 136.372 116.188C136.366 116.198 136.321 116.242 136.31 116.262C136.242 116.331 136.18 116.4 136.112 116.468C135.966 116.611 135.814 116.749 135.656 116.881C135.498 117.014 135.329 117.137 135.16 117.255C135.137 117.265 135.069 117.309 135.058 117.319C135.007 117.349 134.957 117.378 134.912 117.413C134.81 117.472 134.709 117.526 134.607 117.585C134.585 117.595 134.562 117.604 134.545 117.619C135.019 115.618 135.571 113.636 136.163 111.664C136.592 110.228 137.043 108.802 137.51 107.376C137.584 107.701 137.657 108.025 137.719 108.35C137.758 108.541 137.787 108.733 137.82 108.925C137.82 108.95 137.832 108.989 137.832 109.004C137.837 109.053 137.843 109.097 137.849 109.141C137.866 109.245 137.877 109.353 137.894 109.456C137.99 110.258 138.023 111.064 137.973 111.871C137.961 112.067 137.944 112.269 137.922 112.466C137.911 112.554 137.899 112.648 137.888 112.736C137.882 112.741 137.882 112.746 137.882 112.756C137.882 112.751 137.882 112.746 137.888 112.736ZM131.834 77.0057C132.155 77.0844 132.471 77.1385 132.803 77.1778C132.798 77.1778 132.798 77.1778 132.826 77.1827C132.854 77.1827 132.882 77.1876 132.91 77.1926C132.972 77.1975 133.04 77.2073 133.108 77.2171C134.466 77.3991 135.819 77.6941 137.127 78.0875C137.093 78.1269 137.054 78.1613 137.02 78.2006C136.445 78.7711 135.926 79.3808 135.442 80.0103C134.664 81.0184 133.981 82.0756 133.361 83.1624C132.471 84.7163 131.715 86.3292 131.056 87.9667C130.193 90.1108 129.505 92.299 128.947 94.5119C128.868 94.8168 128.795 95.1217 128.722 95.4216C128.666 95.4216 128.603 95.4167 128.541 95.4167C127.916 95.3921 127.29 95.3725 126.664 95.3479C125.655 95.3134 124.646 95.2741 123.637 95.2397C123.97 93.4989 124.46 91.7827 125.058 90.1009C125.666 88.3946 126.377 86.7177 127.172 85.0703C127.848 83.6639 128.587 82.2772 129.376 80.9151C129.945 79.9267 130.537 78.953 131.163 77.9941C131.383 77.6597 131.614 77.3352 131.834 77.0057ZM152.528 100.496C152.173 97.7328 151.722 94.9692 151.147 92.2302C150.752 90.3124 150.335 88.3896 149.45 86.5849C147.984 83.6049 145.47 81.1364 142.336 79.3956C140.064 78.1367 137.51 77.2516 134.889 76.7254C134.19 76.5828 133.485 76.4844 132.775 76.3959C131.061 76.1845 129.494 75.2256 128.508 74.0159C126.974 72.1325 126.473 69.6787 126.506 67.4117C126.512 67.3084 126.512 67.2002 126.518 67.097C127.177 66.2463 127.702 65.3169 128.062 64.3383C128.367 63.5318 128.603 62.7106 128.806 61.8746C129.72 61.9681 130.577 61.6927 131.281 61.1813C132.014 60.6453 132.459 59.8781 132.691 59.0815C132.927 58.2554 133.017 57.3358 132.95 56.4851C132.877 55.6639 132.538 54.8131 131.693 54.3558C131.174 54.0804 130.402 54.0165 129.782 54.2132C129.782 54.1542 129.787 54.0952 129.787 54.0362C129.799 53.5346 129.799 53.0281 129.787 52.5216C129.911 52.4183 130.03 52.3101 130.142 52.1921C130.571 51.7397 130.87 51.2332 131.078 50.6775C132.567 48.6958 133.063 46.242 132.493 43.9357C131.992 41.9048 130.667 40.0361 128.84 38.6937C126.828 37.2135 124.285 36.4513 121.732 35.9989C121.196 35.9005 120.661 35.8219 120.119 35.753C119.663 34.8629 118.631 34.2483 117.526 34.1352C116.365 34.0171 115.204 34.5089 114.544 35.3301C114.516 35.3645 114.499 35.4088 114.488 35.453C113.332 35.4678 112.171 35.517 111.026 35.6448C110.998 35.6497 110.976 35.6497 110.948 35.6547C110.925 35.6694 110.733 35.6743 110.711 35.6792C110.418 35.7088 110.13 35.7432 109.837 35.7924C109.363 35.8661 108.89 35.9645 108.428 36.0874C107.582 36.3185 106.759 36.6431 106.015 37.066C104.724 37.8036 103.687 38.8313 102.988 40.0263C102.356 41.1032 101.984 42.2736 101.798 43.4685C101.64 44.4766 101.595 45.4945 101.669 46.5124C101.702 47.0288 101.764 47.55 101.86 48.0664C101.793 48.15 101.725 48.2385 101.663 48.327C101.364 48.7499 101.122 49.2072 100.941 49.6793C100.705 50.2792 100.581 50.9333 100.643 51.5676C100.71 52.202 101.082 52.7724 101.742 53.0773C102.058 53.2248 102.413 53.3084 102.768 53.3133C102.751 53.6084 102.74 53.9034 102.734 54.1985C102.261 54.0706 101.708 54.0755 101.291 54.2034C100.389 54.4837 99.8477 55.2655 99.6786 56.0523C99.4982 56.9178 99.5433 57.8571 99.6955 58.7274C99.8421 59.5536 100.197 60.365 100.862 60.9846C101.494 61.5796 102.413 61.9926 103.36 61.9533C103.619 63.2417 103.991 64.5202 104.589 65.7053C105.299 67.1117 106.381 68.3608 107.723 69.359C107.723 69.3885 107.723 69.4229 107.723 69.4574C107.717 69.5606 107.712 69.6688 107.7 69.777C107.695 69.836 107.684 69.8999 107.678 69.959C107.678 69.9688 107.678 69.9737 107.678 69.9786C107.678 69.9835 107.678 69.9835 107.672 69.9885C107.667 70.0278 107.661 70.0721 107.655 70.1114C107.492 70.9375 107.199 71.5916 106.686 72.2751C104.989 74.5125 101.697 75.2256 98.7541 75.4272C96.1779 75.6042 93.5904 76.0419 91.1438 76.7647C87.7783 77.7581 84.4242 79.3857 82.4286 82.0215C81.9607 82.646 81.5491 83.3099 81.132 83.959C80.0665 85.6113 79.0631 87.293 78.1048 88.9945C76.78 91.3549 75.5567 93.7595 74.4518 96.2035C73.2398 98.913 72.1744 101.677 71.3739 104.504C70.5903 107.273 70.0435 110.115 69.9984 112.972C69.9589 115.549 70.3366 118.185 71.4922 120.575C71.7628 121.13 72.0672 121.671 72.4168 122.192C72.4111 122.197 72.4111 122.202 72.4055 122.207C72.1293 122.851 72.4449 123.446 72.8903 123.958C73.7528 124.951 74.7844 125.817 75.9626 126.525C78.0146 127.764 80.6472 128.467 82.1805 130.272C83.0148 131.245 83.5222 132.386 84.2889 133.399C85.0161 134.363 85.9857 135.233 87.2992 135.563C88.0207 135.745 88.7874 135.765 89.5315 135.72C90.27 135.676 91.0085 135.568 91.7244 135.396C93.1619 135.052 94.4811 134.447 95.6649 133.665C96.9051 132.849 98.0551 131.924 99.2276 131.039C99.5264 130.808 99.8365 130.577 100.039 130.291C100.293 130.114 100.744 129.795 100.755 129.78C101.364 129.2 101.962 128.61 102.559 128.024C103.106 127.547 103.636 127.08 104.104 126.638C104.279 126.761 104.453 126.874 104.634 126.992C105.654 127.641 106.697 128.3 107.898 128.678C109.07 129.042 110.339 129.126 111.573 129.151C112.802 129.175 114.042 129.131 115.266 129.278C116.461 129.421 117.571 129.8 118.648 130.257C119.77 130.734 120.864 131.255 122.047 131.619C123.282 131.998 124.59 132.209 125.898 132.254C126.54 132.278 127.189 132.254 127.826 132.19C128.468 132.126 129.094 132.032 129.466 131.516C129.567 131.363 129.646 131.201 129.708 131.029C134.404 131.54 139.314 131.649 143.92 130.582C145.273 130.272 146.603 129.849 147.838 129.274C148.858 128.801 149.732 128.147 150.403 127.326C151.113 126.451 151.451 125.443 151.75 124.42C152.9 120.471 153.255 116.355 153.295 112.293C153.329 108.355 153.03 104.416 152.528 100.496Z" fill="#330B24"/>
</g>
<path d="M135.622 102.104C135.616 102.089 135.611 102.075 135.6 102.06C135.605 102.065 135.611 102.08 135.627 102.109C135.622 102.109 135.622 102.104 135.622 102.104Z" fill="#330B24"/>
<path d="M137.883 112.755C137.877 112.785 137.872 112.82 137.883 112.755Z" fill="#330B24"/>
<path d="M110.886 35.6646C110.908 35.6594 110.925 35.6594 110.947 35.6543H110.953C110.953 35.6543 110.869 35.6646 110.886 35.6646Z" fill="#330B24"/>
<path d="M114.731 61.5847C115.379 61.9191 116.179 61.9633 116.901 61.806C117.166 61.7519 117.313 61.4913 117.239 61.2749C117.16 61.0487 116.878 60.9356 116.613 60.9897C116.005 61.1224 115.328 61.0192 114.911 60.6209C114.601 60.3209 114.511 59.9127 114.702 59.5489C114.973 59.0424 115.497 58.6588 115.847 58.1965C116.585 57.218 116.816 56.023 116.58 54.892C116.535 54.6609 116.191 54.5429 115.96 54.6068C115.678 54.6756 115.576 54.9068 115.621 55.133C115.751 55.7624 115.666 56.4213 115.418 57.0213C115.193 57.5671 114.793 57.9998 114.375 58.4424C113.913 58.9342 113.507 59.5046 113.62 60.1586C113.716 60.7536 114.127 61.2749 114.731 61.5847Z" fill="#330B24"/>
<path d="M121.777 56.8779C122.324 56.8533 122.736 56.2288 122.69 55.4863C122.64 54.7437 122.155 54.1585 121.602 54.188C121.05 54.2126 120.644 54.8322 120.689 55.5797C120.734 56.3222 121.219 56.9025 121.777 56.8779Z" fill="#330B24"/>
<path d="M110.807 56.8044C111.359 56.7798 111.765 56.1602 111.72 55.4128C111.675 54.6702 111.184 54.09 110.638 54.1146C110.085 54.1392 109.674 54.7637 109.719 55.5062C109.769 56.2488 110.254 56.8339 110.807 56.8044Z" fill="#330B24"/>
<path d="M111.506 63.7579C111.371 63.9546 111.472 64.166 111.669 64.289C113.524 65.4888 116.027 65.833 118.22 65.1938C118.851 65.0069 119.454 64.7561 120.001 64.4266C120.204 64.3086 120.294 64.0873 120.165 63.8956C120.046 63.7234 119.748 63.6349 119.55 63.7579C118.44 64.4119 117.121 64.7659 115.779 64.7364C114.454 64.7069 113.18 64.2988 112.12 63.6153C111.929 63.4923 111.619 63.5907 111.506 63.7579Z" fill="#330B24"/>
</svg>
