<svg width="28" height="28" viewBox="0 0 28 28" fill="none" xmlns="http://www.w3.org/2000/svg">
<mask id="mask0_40_165" style="mask-type:luminance" maskUnits="userSpaceOnUse" x="0" y="0" width="28" height="28">
<path d="M0.557251 0.463531H27.3333V27.4531H0.557251V0.463531Z" fill="white"/>
</mask>
<g mask="url(#mask0_40_165)">
<path d="M11.3176 0.515626C5.34885 0.578126 0.562396 5.46875 0.630104 11.4375C0.692604 17.4063 5.58323 22.1927 11.552 22.125C13.7551 22.1042 15.9009 21.4063 17.6978 20.1302L23.8697 26.2969C24.578 26.9948 25.7186 26.9896 26.4166 26.2813C27.1041 25.5833 27.1041 24.4583 26.4166 23.7552L20.2447 17.5833C23.703 12.7188 22.5624 5.97396 17.6978 2.51042C15.8332 1.1875 13.5989 0.489585 11.3176 0.515626ZM11.1874 2.38542C16.1145 2.24479 20.2239 6.13021 20.3593 11.0573C20.3593 11.1458 20.3645 11.2344 20.3645 11.3177C20.3645 16.25 16.3697 20.25 11.4374 20.25C6.51031 20.2552 2.51031 16.2604 2.5051 11.3281C2.5051 11.3229 2.5051 11.3229 2.5051 11.3177C2.4999 6.48438 6.34885 2.52084 11.1874 2.38542Z" fill="#8C52FF"/>
</g>
<path d="M9.026 4.69791C9.51559 4.52603 10.052 4.77603 10.2291 5.26562C10.401 5.74999 10.151 6.28645 9.66663 6.46353C7.62496 7.20833 6.26558 9.14583 6.26558 11.3177C6.26558 11.8385 5.84892 12.2604 5.32808 12.2604C4.80725 12.2604 4.38538 11.8385 4.38538 11.3177C4.39059 8.35937 6.23954 5.71353 9.026 4.69791Z" fill="#8C52FF"/>
</svg>
