<svg width="50" height="50" viewBox="0 0 65 65" fill="none" xmlns="http://www.w3.org/2000/svg">
<path d="M52.6669 21.8167H45.5659C45.3058 21.8167 45.0545 21.8664 44.8142 21.9667C44.5739 22.066 44.3614 22.2081 44.1767 22.3929L40.3924 26.1786H34.6647C34.5357 26.1786 34.4086 26.1915 34.2824 26.2163C34.1553 26.2421 34.0332 26.2789 33.914 26.3286C33.7949 26.3772 33.6817 26.4378 33.5744 26.5093C33.4672 26.5809 33.3689 26.6623 33.2775 26.7537C33.1862 26.8451 33.1047 26.9444 33.0332 27.0507C32.9617 27.158 32.9012 27.2713 32.8525 27.3905C32.8029 27.5097 32.7651 27.6318 32.7403 27.759C32.7155 27.8852 32.7026 28.0123 32.7026 28.1414C32.7026 28.2706 32.7155 28.3977 32.7403 28.5249C32.7651 28.651 32.8029 28.7742 32.8525 28.8924C32.9012 29.0116 32.9617 29.1249 33.0332 29.2322C33.1047 29.3394 33.1862 29.4388 33.2775 29.5292C33.3689 29.6206 33.4672 29.702 33.5744 29.7735C33.6817 29.8451 33.7949 29.9056 33.914 29.9553C34.0332 30.004 34.1553 30.0417 34.2824 30.0666C34.4086 30.0924 34.5357 30.1043 34.6647 30.1043H41.2057C41.4658 30.1043 41.7161 30.0547 41.9574 29.9553C42.1977 29.855 42.4102 29.7129 42.5939 29.5292L46.3792 25.7425H52.6669C52.7434 25.9789 52.8347 26.2094 52.939 26.4358C53.0432 26.6613 53.1604 26.8799 53.2905 27.0915C53.4206 27.303 53.5626 27.5067 53.7165 27.7014C53.8704 27.8961 54.0352 28.0818 54.212 28.2577C54.3878 28.4325 54.5735 28.5974 54.7681 28.7514C54.9637 28.9043 55.1673 29.0464 55.3788 29.1755C55.5913 29.3057 55.8097 29.4219 56.0361 29.5262C56.2616 29.6305 56.4929 29.7199 56.7293 29.7964C56.9656 29.8739 57.2049 29.9354 57.4492 29.9841C57.6925 30.0328 57.9387 30.0666 58.186 30.0854C58.4343 30.1043 58.6815 30.1093 58.9298 30.0994C59.178 30.0894 59.4253 30.0646 59.6705 30.0258C59.9158 29.9871 60.1581 29.9335 60.3974 29.8659C60.6357 29.7984 60.8701 29.7169 61.0995 29.6215C61.3298 29.5262 61.5523 29.4179 61.7688 29.2967C61.9862 29.1745 62.1948 29.0414 62.3953 28.8944C62.5969 28.7484 62.7886 28.5914 62.9703 28.4226C63.153 28.2537 63.3248 28.0749 63.4857 27.8861C63.6475 27.6964 63.7975 27.4987 63.9355 27.2921C64.0725 27.0855 64.1986 26.8709 64.3108 26.6494C64.424 26.4279 64.5233 26.2014 64.6087 25.968C64.6951 25.7345 64.7666 25.4971 64.8252 25.2557C64.8828 25.0143 64.9265 24.77 64.9553 24.5226C64.9851 24.2763 65 24.0279 65 23.7796C65 23.5313 64.9851 23.2839 64.9553 23.0366C64.9265 22.7902 64.8828 22.5458 64.8252 22.3045C64.7666 22.0621 64.6951 21.8247 64.6087 21.5912C64.5233 21.3588 64.424 21.1313 64.3108 20.9098C64.1986 20.6883 64.0725 20.4737 63.9355 20.2671C63.7975 20.0605 63.6475 19.8628 63.4857 19.674C63.3248 19.4843 63.153 19.3055 62.9703 19.1366C62.7886 18.9688 62.5969 18.8108 62.3953 18.6648C62.1948 18.5188 61.9862 18.3847 61.7688 18.2635C61.5523 18.1413 61.3298 18.033 61.0995 17.9376C60.8701 17.8423 60.6357 17.7608 60.3974 17.6933C60.1581 17.6257 59.9158 17.5721 59.6705 17.5333C59.4253 17.4946 59.178 17.4698 58.9298 17.4598C58.6815 17.4499 58.4343 17.4549 58.186 17.4737C57.9387 17.4936 57.6925 17.5274 57.4492 17.5751C57.2049 17.6237 56.9656 17.6863 56.7293 17.7628C56.4929 17.8393 56.2616 17.9297 56.0361 18.033C55.8097 18.1373 55.5913 18.2535 55.3788 18.3837C55.1673 18.5128 54.9637 18.6549 54.7681 18.8088C54.5735 18.9618 54.3878 19.1267 54.212 19.3025C54.0352 19.4774 53.8704 19.6631 53.7165 19.8578C53.5626 20.0535 53.4206 20.2561 53.2905 20.4677C53.1604 20.6803 53.0432 20.8989 52.939 21.1243C52.8347 21.3498 52.7434 21.5803 52.6669 21.8167ZM58.6468 21.3806C58.8046 21.3806 58.9605 21.3965 59.1145 21.4263C59.2694 21.4571 59.4193 21.5028 59.5643 21.5634C59.7103 21.624 59.8483 21.6975 59.9794 21.7849C60.1104 21.8723 60.2316 21.9717 60.3428 22.0829C60.454 22.1952 60.5533 22.3164 60.6407 22.4465C60.7281 22.5776 60.8026 22.7157 60.8621 22.8617C60.9227 23.0068 60.9684 23.1568 60.9992 23.3117C61.03 23.4667 61.0449 23.6226 61.0449 23.7796C61.0449 23.9375 61.03 24.0935 60.9992 24.2475C60.9684 24.4024 60.9227 24.5524 60.8621 24.6975C60.8026 24.8435 60.7281 24.9816 60.6407 25.1127C60.5533 25.2438 60.454 25.365 60.3428 25.4763C60.2316 25.5875 60.1104 25.6868 59.9794 25.7743C59.8483 25.8617 59.7103 25.9362 59.5643 25.9958C59.4193 26.0564 59.2694 26.1021 59.1145 26.1329C58.9605 26.1637 58.8046 26.1786 58.6468 26.1786C58.4899 26.1786 58.334 26.1637 58.179 26.1329C58.0241 26.1021 57.8742 26.0564 57.7292 25.9958C57.5832 25.9362 57.4452 25.8617 57.3141 25.7743C57.1841 25.6868 57.0629 25.5875 56.9507 25.4763C56.8395 25.365 56.7402 25.2438 56.6528 25.1127C56.5654 24.9816 56.4919 24.8435 56.4314 24.6975C56.3708 24.5524 56.3251 24.4024 56.2943 24.2475C56.2645 24.0935 56.2487 23.9375 56.2487 23.7796C56.2487 23.6226 56.2645 23.4667 56.2943 23.3117C56.3251 23.1568 56.3708 23.0068 56.4314 22.8617C56.4919 22.7157 56.5654 22.5776 56.6528 22.4465C56.7402 22.3164 56.8395 22.1952 56.9507 22.0829C57.0629 21.9717 57.1841 21.8723 57.3141 21.7849C57.4452 21.6975 57.5832 21.624 57.7292 21.5634C57.8742 21.5028 58.0241 21.4571 58.179 21.4263C58.334 21.3965 58.4899 21.3806 58.6468 21.3806Z" fill="#8C52FF"/>
<path d="M58.6467 37.0838C58.317 37.0848 57.9883 37.1116 57.6626 37.1642C57.3369 37.2169 57.0162 37.2944 56.7024 37.3977C56.3886 37.5 56.0848 37.6271 55.7918 37.7771C55.4979 37.9281 55.2169 38.101 54.9507 38.2957C54.6836 38.4904 54.4334 38.7039 54.2 38.9384C53.9667 39.1718 53.7532 39.4231 53.5596 39.6903C53.3659 39.9576 53.1941 40.2387 53.0442 40.5327C52.8942 40.8267 52.7681 41.1317 52.6668 41.4456H45.4477V36.9089C45.4477 36.7808 45.4358 36.6526 45.41 36.5265C45.3852 36.4003 45.3484 36.2772 45.2988 36.158C45.2491 36.0387 45.1885 35.9255 45.117 35.8192C45.0455 35.7119 44.9641 35.6126 44.8738 35.5212C44.7824 35.4298 44.6831 35.3484 44.5759 35.2768C44.4686 35.2053 44.3554 35.1447 44.2372 35.096C44.1181 35.0464 43.995 35.0096 43.8688 34.9838C43.7427 34.959 43.6146 34.9461 43.4855 34.9461L34.6647 34.9023C34.5366 34.9033 34.4085 34.9153 34.2824 34.9411C34.1563 34.9659 34.0341 35.0037 33.915 35.0533C33.7958 35.102 33.6826 35.1626 33.5764 35.2341C33.4691 35.3056 33.3698 35.3871 33.2795 35.4785C33.1881 35.5699 33.1067 35.6692 33.0352 35.7755C32.9637 35.8828 32.9041 35.996 32.8545 36.1152C32.8048 36.2344 32.7681 36.3566 32.7432 36.4828C32.7184 36.6089 32.7055 36.7371 32.7055 36.8652C32.7055 36.9944 32.7184 37.1215 32.7432 37.2487C32.7681 37.3748 32.8048 37.497 32.8545 37.6162C32.9041 37.7354 32.9637 37.8486 33.0352 37.9549C33.1067 38.0622 33.1881 38.1616 33.2795 38.2529C33.3698 38.3433 33.4691 38.4248 33.5764 38.4963C33.6826 38.5688 33.7958 38.6284 33.915 38.6781C34.0341 38.7278 34.1563 38.7655 34.2824 38.7904C34.4085 38.8152 34.5366 38.8281 34.6647 38.8281L41.5323 38.8609V43.4085C41.5323 43.5376 41.5452 43.6648 41.57 43.7919C41.5949 43.9181 41.6326 44.0403 41.6822 44.1595C41.7309 44.2787 41.7915 44.3919 41.863 44.4992C41.9345 44.6065 42.0159 44.7058 42.1073 44.7962C42.1986 44.8876 42.2969 44.9691 42.4042 45.0406C42.5114 45.1121 42.6246 45.1727 42.7438 45.2224C42.8629 45.271 42.9851 45.3088 43.1122 45.3336C43.2383 45.3585 43.3654 45.3714 43.4945 45.3714H52.6758C52.7354 45.5541 52.8039 45.7349 52.8813 45.9118C52.9578 46.0886 53.0432 46.2614 53.1355 46.4303C53.2279 46.5992 53.3282 46.7641 53.4364 46.924C53.5437 47.0839 53.6589 47.2389 53.781 47.3879C53.9031 47.5369 54.0312 47.6809 54.1663 47.818C54.3013 47.9561 54.4423 48.0872 54.5903 48.2114C54.7373 48.3365 54.8892 48.4538 55.0471 48.565C55.205 48.6753 55.3678 48.7786 55.5356 48.874C55.7025 48.9703 55.8742 49.0577 56.049 49.1382C56.2248 49.2177 56.4035 49.2902 56.5852 49.3537C56.7679 49.4173 56.9526 49.472 57.1393 49.5186C57.326 49.5663 57.5147 49.6041 57.7053 49.6329C57.896 49.6627 58.0876 49.6835 58.2803 49.6955C58.4729 49.7074 58.6656 49.7104 58.8582 49.7044C59.0509 49.6984 59.2425 49.6835 59.4342 49.6607C59.6258 49.6369 59.8155 49.6051 60.0041 49.5643C60.1918 49.5236 60.3785 49.4739 60.5622 49.4163C60.7459 49.3577 60.9266 49.2922 61.1044 49.2177C61.2831 49.1432 61.4569 49.0607 61.6267 48.9693C61.7975 48.8789 61.9633 48.7816 62.1242 48.6753C62.2861 48.57 62.442 48.4567 62.5929 48.3375C62.7438 48.2173 62.8888 48.0902 63.0278 47.9571C63.1678 47.824 63.3009 47.6849 63.427 47.5389C63.5541 47.3938 63.6733 47.2429 63.7865 47.0859C63.8987 46.9299 64.004 46.768 64.1023 46.6021C64.1996 46.4362 64.2899 46.2654 64.3724 46.0915C64.4548 45.9167 64.5293 45.7389 64.5948 45.5581C64.6613 45.3763 64.7189 45.1926 64.7676 45.0068C64.8172 44.82 64.8579 44.6313 64.8897 44.4416C64.9215 44.2509 64.9453 44.0601 64.9592 43.8674C64.9741 43.6757 64.9791 43.483 64.9761 43.2903C64.9731 43.0966 64.9612 42.9049 64.9404 42.7131C64.9195 42.5214 64.8897 42.3307 64.851 42.142C64.8133 41.9532 64.7666 41.7655 64.711 41.5807C64.6554 41.3969 64.5918 41.2142 64.5193 41.0353C64.4478 40.8565 64.3674 40.6817 64.279 40.5099C64.1906 40.339 64.0953 40.1711 63.992 40.0082C63.8888 39.8463 63.7775 39.6884 63.6594 39.5354C63.5422 39.3834 63.4171 39.2364 63.286 39.0953C63.1549 38.9543 63.0169 38.8192 62.8729 38.69C62.7299 38.5619 62.58 38.4397 62.4251 38.3255C62.2702 38.2102 62.1103 38.1029 61.9455 38.0026C61.7816 37.9023 61.6118 37.8099 61.439 37.7255C61.2662 37.64 61.0895 37.5636 60.9088 37.495C60.729 37.4265 60.5453 37.3669 60.3596 37.3152C60.1739 37.2636 59.9863 37.2199 59.7966 37.1861C59.6069 37.1513 59.4163 37.1255 59.2236 37.1086C59.032 37.0917 58.8393 37.0828 58.6467 37.0838ZM58.6467 45.8074C58.4898 45.8074 58.3339 45.7925 58.179 45.7618C58.0241 45.731 57.8741 45.6853 57.7292 45.6247C57.5832 45.5651 57.4452 45.4906 57.3141 45.4032C57.184 45.3157 57.0629 45.2164 56.9507 45.1051C56.8394 44.9939 56.7401 44.8727 56.6528 44.7416C56.5654 44.6105 56.4919 44.4724 56.4313 44.3263C56.3707 44.1813 56.3251 44.0313 56.2943 43.8764C56.2645 43.7224 56.2486 43.5664 56.2486 43.4085C56.2486 43.2505 56.2645 43.0946 56.2943 42.9406C56.3251 42.7856 56.3707 42.6357 56.4313 42.4906C56.4919 42.3446 56.5654 42.2065 56.6528 42.0754C56.7401 41.9443 56.8394 41.8231 56.9507 41.7118C57.0629 41.6006 57.184 41.5012 57.3141 41.4138C57.4452 41.3264 57.5832 41.2519 57.7292 41.1923C57.8741 41.1317 58.0241 41.086 58.179 41.0552C58.3339 41.0244 58.4898 41.0095 58.6467 41.0095C58.8046 41.0095 58.9605 41.0244 59.1144 41.0552C59.2693 41.086 59.4193 41.1317 59.5642 41.1923C59.7102 41.2519 59.8482 41.3264 59.9793 41.4138C60.1104 41.5012 60.2315 41.6006 60.3428 41.7118C60.454 41.8231 60.5533 41.9443 60.6407 42.0754C60.728 42.2065 60.8025 42.3446 60.8621 42.4906C60.9227 42.6357 60.9683 42.7856 60.9991 42.9406C61.0299 43.0946 61.0448 43.2505 61.0448 43.4085C61.0448 43.5664 61.0299 43.7224 60.9991 43.8764C60.9683 44.0313 60.9227 44.1813 60.8621 44.3263C60.8025 44.4724 60.728 44.6105 60.6407 44.7416C60.5533 44.8727 60.454 44.9939 60.3428 45.1051C60.2315 45.2164 60.1104 45.3157 59.9793 45.4032C59.8482 45.4906 59.7102 45.5651 59.5642 45.6247C59.4193 45.6853 59.2693 45.731 59.1144 45.7618C58.9605 45.7925 58.8046 45.8074 58.6467 45.8074Z" fill="#8C52FF"/>
<path d="M51.8516 52.3505C51.2459 52.3515 50.654 52.4379 50.0741 52.6107C49.4942 52.7836 48.951 53.0349 48.4436 53.3647L44.694 50.5595C44.3445 50.2992 43.9523 50.1691 43.5163 50.1691H34.6647C34.5366 50.1691 34.4085 50.182 34.2824 50.2078C34.1563 50.2326 34.0341 50.2704 33.915 50.3191C33.7958 50.3687 33.6826 50.4293 33.5764 50.5008C33.4691 50.5724 33.3698 50.6538 33.2795 50.7452C33.1881 50.8366 33.1067 50.9349 33.0352 51.0422C32.9637 51.1495 32.9041 51.2628 32.8545 51.382C32.8048 51.5002 32.7681 51.6233 32.7432 51.7495C32.7184 51.8757 32.7055 52.0038 32.7055 52.1319C32.7055 52.2611 32.7184 52.3882 32.7432 52.5144C32.7681 52.6415 32.8048 52.7637 32.8545 52.8829C32.9041 53.0021 32.9637 53.1144 33.0352 53.2217C33.1067 53.3289 33.1881 53.4283 33.2795 53.5187C33.3698 53.6101 33.4691 53.6915 33.5764 53.763C33.6826 53.8346 33.7958 53.8952 33.915 53.9448C34.0341 53.9945 34.1563 54.0313 34.2824 54.0571C34.4085 54.0819 34.5366 54.0948 34.6647 54.0948H42.8729L45.9651 56.4113C45.6781 57.1385 45.5321 57.8934 45.5291 58.6752C45.5291 58.8818 45.5391 59.0884 45.5589 59.2951C45.5798 59.5007 45.6096 59.7053 45.6503 59.909C45.691 60.1126 45.7407 60.3133 45.8012 60.5109C45.8608 60.7096 45.9303 60.9043 46.0098 61.095C46.0892 61.2868 46.1776 61.4735 46.2749 61.6563C46.3732 61.8391 46.4794 62.0169 46.5946 62.1887C46.7088 62.3616 46.833 62.5275 46.964 62.6874C47.0951 62.8473 47.2341 63.0013 47.3801 63.1473C47.5271 63.2943 47.68 63.4324 47.8399 63.5645C48.0007 63.6957 48.1666 63.8188 48.3383 63.9341C48.5111 64.0493 48.6879 64.1556 48.8706 64.2529C49.0533 64.3503 49.24 64.4387 49.4316 64.5182C49.6233 64.5976 49.8179 64.6672 50.0155 64.7278C50.2141 64.7874 50.4147 64.838 50.6173 64.8787C50.8209 64.9185 51.0254 64.9493 51.232 64.9691C51.4375 64.99 51.6441 64.9999 51.8516 64.9999C52.0581 64.9999 52.2647 64.99 52.4712 64.9691C52.6768 64.9493 52.8813 64.9185 53.0849 64.8787C53.2875 64.838 53.4881 64.7874 53.6867 64.7278C53.8843 64.6672 54.0799 64.5976 54.2705 64.5182C54.4622 64.4387 54.6489 64.3503 54.8316 64.2529C55.0143 64.1556 55.1921 64.0493 55.3638 63.9341C55.5356 63.8188 55.7025 63.6957 55.8623 63.5645C56.0222 63.4324 56.1751 63.2943 56.3221 63.1473C56.4681 63.0013 56.6071 62.8473 56.7382 62.6874C56.8702 62.5275 56.9934 62.3616 57.1085 62.1887C57.2237 62.0169 57.33 61.8391 57.4273 61.6563C57.5246 61.4735 57.613 61.2868 57.6924 61.095C57.7719 60.9043 57.8414 60.7096 57.902 60.5109C57.9615 60.3133 58.0122 60.1126 58.0519 59.909C58.0926 59.7053 58.1234 59.5007 58.1433 59.2951C58.1631 59.0884 58.174 58.8818 58.174 58.6752C58.174 58.4676 58.1631 58.261 58.1433 58.0554C58.1234 57.8487 58.0926 57.6441 58.0519 57.4415C58.0122 57.2378 57.9615 57.0372 57.902 56.8395C57.8414 56.6408 57.7719 56.4461 57.6924 56.2544C57.613 56.0637 57.5246 55.8759 57.4273 55.6931C57.33 55.5114 57.2237 55.3335 57.1085 55.1607C56.9934 54.9889 56.8702 54.823 56.7382 54.663C56.6071 54.5021 56.4681 54.3491 56.3221 54.2031C56.1751 54.0561 56.0222 53.917 55.8623 53.7859C55.7025 53.6548 55.5356 53.5316 55.3638 53.4164C55.1921 53.3011 55.0143 53.1948 54.8316 53.0975C54.6489 52.9991 54.4622 52.9107 54.2705 52.8313C54.0799 52.7528 53.8843 52.6823 53.6867 52.6227C53.4881 52.5621 53.2875 52.5124 53.0849 52.4717C52.8813 52.4309 52.6768 52.4011 52.4712 52.3803C52.2647 52.3604 52.0581 52.3505 51.8516 52.3505ZM51.8516 61.0742C51.6937 61.0742 51.5378 61.0583 51.3829 61.0285C51.229 60.9977 51.079 60.952 50.9331 60.8914C50.7881 60.8308 50.6501 60.7573 50.519 60.6699C50.3879 60.5825 50.2668 60.4831 50.1555 60.3719C50.0443 60.2596 49.945 60.1384 49.8576 60.0083C49.7693 59.8772 49.6958 59.7391 49.6352 59.5931C49.5756 59.448 49.5299 59.298 49.4992 59.1431C49.4684 58.9881 49.4535 58.8322 49.4535 58.6752C49.4535 58.5173 49.4684 58.3613 49.4992 58.2073C49.5299 58.0524 49.5756 57.9024 49.6352 57.7573C49.6958 57.6113 49.7693 57.4732 49.8576 57.3421C49.945 57.211 50.0443 57.0898 50.1555 56.9785C50.2668 56.8673 50.3879 56.768 50.519 56.6805C50.6501 56.5931 50.7881 56.5186 50.9331 56.459C51.079 56.3984 51.229 56.3527 51.3829 56.3219C51.5378 56.2911 51.6937 56.2762 51.8516 56.2762C52.0085 56.2762 52.1644 56.2911 52.3193 56.3219C52.4732 56.3527 52.6232 56.3984 52.7691 56.459C52.9141 56.5186 53.0531 56.5931 53.1832 56.6805C53.3143 56.768 53.4354 56.8673 53.5466 56.9785C53.6589 57.0898 53.7582 57.211 53.8455 57.3421C53.9329 57.4732 54.0064 57.6113 54.067 57.7573C54.1276 57.9024 54.1722 58.0524 54.203 58.2073C54.2338 58.3613 54.2497 58.5173 54.2497 58.6752C54.2497 58.8322 54.2338 58.9881 54.203 59.1431C54.1722 59.298 54.1276 59.448 54.067 59.5931C54.0064 59.7391 53.9329 59.8772 53.8455 60.0083C53.7582 60.1384 53.6589 60.2596 53.5466 60.3719C53.4354 60.4831 53.3143 60.5825 53.1832 60.6699C53.0531 60.7573 52.9141 60.8308 52.7691 60.8914C52.6232 60.952 52.4732 60.9977 52.3193 61.0285C52.1644 61.0583 52.0085 61.0742 51.8516 61.0742Z" fill="#8C52FF"/>
<path d="M32.7026 12.8744C32.7026 13.0035 32.7155 13.1317 32.7403 13.2578C32.7651 13.384 32.8029 13.5072 32.8525 13.6264C32.9012 13.7446 32.9617 13.8578 33.0332 13.9651C33.1047 14.0724 33.1862 14.1717 33.2775 14.2631C33.3689 14.3535 33.4672 14.435 33.5744 14.5065C33.6817 14.578 33.7949 14.6386 33.914 14.6883C34.0332 14.7379 34.1553 14.7747 34.2824 14.7995C34.4086 14.8253 34.5357 14.8373 34.6647 14.8373H43.3853C43.8093 14.8383 44.1936 14.7131 44.5372 14.4648L48.5479 11.5532C48.7416 11.6843 48.9411 11.8045 49.1467 11.9138C49.3532 12.0231 49.5648 12.1214 49.7822 12.2069C49.9997 12.2923 50.2201 12.3668 50.4455 12.4274C50.671 12.489 50.8993 12.5376 51.1297 12.5734C51.3601 12.6102 51.5925 12.633 51.8248 12.6439C52.0582 12.6539 52.2915 12.6509 52.5249 12.636C52.7573 12.6201 52.9886 12.5923 53.219 12.5515C53.4484 12.5098 53.6748 12.4562 53.8992 12.3906C54.1226 12.3241 54.3421 12.2456 54.5576 12.1552C54.7731 12.0648 54.9826 11.9625 55.1861 11.8483C55.3897 11.735 55.5873 11.6098 55.777 11.4747C55.9666 11.3387 56.1494 11.1936 56.3231 11.0377C56.4969 10.8817 56.6617 10.7168 56.8176 10.543C56.9735 10.3691 57.1185 10.1874 57.2546 9.99663C57.3896 9.8069 57.5147 9.60922 57.6279 9.40558C57.7421 9.20194 57.8444 8.99234 57.9348 8.77678C58.0251 8.56122 58.1036 8.34169 58.1691 8.11818C58.2357 7.89468 58.2893 7.6672 58.33 7.43773C58.3717 7.20727 58.3995 6.97582 58.4154 6.74337C58.4303 6.50993 58.4333 6.27649 58.4223 6.04405C58.4124 5.81061 58.3886 5.57816 58.3528 5.3477C58.3171 5.11724 58.2684 4.88877 58.2069 4.66328C58.1453 4.43779 58.0718 4.21726 57.9864 3.99971C57.9 3.78316 57.8027 3.57058 57.6935 3.36496C57.5842 3.15834 57.4641 2.95867 57.333 2.76596C57.2009 2.57226 57.0599 2.38749 56.908 2.20968C56.7561 2.03286 56.5942 1.86399 56.4244 1.70505C56.2536 1.54512 56.0749 1.39612 55.8882 1.25605C55.7005 1.11599 55.5069 0.987846 55.3053 0.869636C55.1037 0.751427 54.8962 0.644144 54.6837 0.549775C54.4702 0.454412 54.2527 0.37097 54.0303 0.300441C53.8079 0.228919 53.5824 0.170311 53.3531 0.124616C53.1247 0.0779285 52.8933 0.0451476 52.6609 0.0242871C52.4286 0.00441993 52.1952 -0.00352689 51.9619 0.00143985C51.7285 0.00740014 51.4961 0.0252804 51.2648 0.0560746C51.0334 0.0878622 50.805 0.13157 50.5786 0.187198C50.3522 0.24382 50.1288 0.312361 49.9103 0.393817C49.6909 0.475272 49.4774 0.567655 49.2688 0.672951C49.0603 0.777254 48.8577 0.893477 48.6621 1.02063C48.4665 1.14778 48.2788 1.28585 48.0981 1.43386C47.9174 1.58188 47.7456 1.73883 47.5827 1.9067C47.4199 2.07359 47.266 2.24941 47.123 2.43319C46.979 2.61696 46.8459 2.80868 46.7238 3.00735C46.6006 3.20602 46.4894 3.41164 46.3901 3.62224C46.2908 3.83382 46.2024 4.04938 46.127 4.26991C46.0505 4.49143 45.988 4.71593 45.9363 4.94341C45.8857 5.17089 45.847 5.40134 45.8221 5.63379C45.7963 5.86524 45.7834 6.09868 45.7834 6.33212C45.7903 7.0533 45.9194 7.75263 46.1697 8.4301L42.7488 10.9115H34.6647C34.5357 10.9115 34.4086 10.9244 34.2824 10.9493C34.1553 10.9751 34.0332 11.0118 33.914 11.0615C33.7949 11.1112 33.6817 11.1708 33.5744 11.2423C33.4672 11.3148 33.3689 11.3953 33.2775 11.4867C33.1862 11.5781 33.1047 11.6774 33.0332 11.7847C32.9617 11.892 32.9012 12.0042 32.8525 12.1234C32.8029 12.2426 32.7651 12.3658 32.7403 12.4919C32.7155 12.6181 32.7026 12.7462 32.7026 12.8744ZM52.1068 3.93316C52.2637 3.93316 52.4196 3.94806 52.5745 3.97885C52.7285 4.00965 52.8784 4.05534 53.0244 4.11594C53.1694 4.17554 53.3074 4.25004 53.4385 4.33746C53.5695 4.42487 53.6907 4.52421 53.8019 4.63546C53.9131 4.74672 54.0124 4.86791 54.1008 4.99903C54.1882 5.13016 54.2617 5.26823 54.3222 5.41426C54.3818 5.55929 54.4275 5.70929 54.4583 5.86425C54.4891 6.01822 54.5049 6.17418 54.5049 6.33212C54.5049 6.48907 54.4891 6.64503 54.4583 6.8C54.4275 6.95397 54.3818 7.10496 54.3222 7.24999C54.2617 7.39601 54.1882 7.53409 54.1008 7.66521C54.0124 7.79534 53.9131 7.91653 53.8019 8.02878C53.6907 8.14004 53.5695 8.23937 53.4385 8.32679C53.3074 8.4142 53.1694 8.48771 53.0244 8.54831C52.8784 8.6089 52.7285 8.6546 52.5745 8.6844C52.4196 8.71519 52.2637 8.73109 52.1068 8.73109C51.949 8.73109 51.793 8.71519 51.6381 8.6844C51.4842 8.6546 51.3343 8.6089 51.1883 8.54831C51.0433 8.48771 50.9053 8.4142 50.7742 8.32679C50.6432 8.23937 50.522 8.14004 50.4108 8.02878C50.2996 7.91653 50.2003 7.79534 50.1119 7.66521C50.0245 7.53409 49.951 7.39601 49.8905 7.24999C49.8309 7.10496 49.7852 6.95397 49.7544 6.8C49.7236 6.64503 49.7077 6.48907 49.7077 6.33212C49.7077 6.17418 49.7236 6.01822 49.7544 5.86425C49.7852 5.70929 49.8309 5.55929 49.8905 5.41426C49.951 5.26823 50.0245 5.13016 50.1119 4.99903C50.2003 4.86791 50.2996 4.74672 50.4108 4.63546C50.522 4.52421 50.6432 4.42487 50.7742 4.33746C50.9053 4.25004 51.0433 4.17554 51.1883 4.11594C51.3343 4.05534 51.4842 4.00965 51.6381 3.97885C51.793 3.94806 51.949 3.93316 52.1068 3.93316Z" fill="#8C52FF"/>
<path d="M32.4851 61.0739H29.8248L29.0423 55.5866C29.0145 55.3899 28.9579 55.2021 28.8725 55.0233C28.7881 54.8435 28.6779 54.6816 28.5439 54.5356C28.4098 54.3896 28.2569 54.2664 28.0851 54.1671C27.9133 54.0667 27.7316 53.9952 27.538 53.9505C25.1438 53.3992 22.9066 52.4704 20.8253 51.1631C20.6574 51.0588 20.4777 50.9804 20.2861 50.9297C20.0944 50.879 19.8998 50.8582 19.7022 50.8671C19.5046 50.8751 19.3119 50.9128 19.1252 50.9794C18.9385 51.0459 18.7668 51.1383 18.6079 51.2575L14.1711 54.5853L10.4106 50.8234L13.7352 46.3851C13.8544 46.2261 13.9467 46.0533 14.0133 45.8665C14.0808 45.6798 14.1175 45.4881 14.1265 45.2894C14.1344 45.0917 14.1135 44.896 14.0629 44.7043C14.0123 44.5126 13.9338 44.3328 13.8286 44.1649C12.5228 42.0828 11.5943 39.8448 11.0422 37.4498C10.9985 37.2561 10.926 37.0743 10.8267 36.9025C10.7264 36.7316 10.6043 36.5786 10.4583 36.4445C10.3123 36.3104 10.1495 36.2011 9.97074 36.1157C9.79101 36.0313 9.60333 35.9747 9.40771 35.9468L3.92435 35.1621V29.8446L9.40969 29.0599C9.60631 29.0311 9.79399 28.9754 9.97273 28.89C10.1515 28.8056 10.3143 28.6963 10.4603 28.5622C10.6063 28.4281 10.7284 28.2751 10.8287 28.1033C10.928 27.9324 11.0005 27.7496 11.0452 27.5569C11.5963 25.1619 12.5257 22.9239 13.8315 20.8418C13.9358 20.6729 14.0142 20.4931 14.0649 20.3014C14.1145 20.1097 14.1364 19.915 14.1274 19.7163C14.1185 19.5187 14.0808 19.3259 14.0142 19.1392C13.9477 18.9524 13.8544 18.7796 13.7352 18.6217L10.4106 14.1833L14.1711 10.4205L18.6079 13.7472C18.7668 13.8654 18.9385 13.9588 19.1252 14.0254C19.3119 14.0919 19.5046 14.1287 19.7022 14.1376C19.8998 14.1456 20.0944 14.1247 20.2861 14.0741C20.4777 14.0234 20.6574 13.9459 20.8253 13.8406C22.9066 12.5343 25.1438 11.6056 27.538 11.0532C27.7316 11.0095 27.9133 10.937 28.0851 10.8377C28.2569 10.7383 28.4098 10.6152 28.5439 10.4691C28.6779 10.3231 28.7881 10.1602 28.8725 9.98141C28.9579 9.80161 29.0145 9.61386 29.0423 9.41718L29.8248 3.93284H32.4851C32.6132 3.93284 32.7413 3.91993 32.8674 3.89509C32.9935 3.86926 33.1166 3.83251 33.2358 3.78284C33.354 3.73317 33.4672 3.67258 33.5744 3.60106C33.6817 3.52953 33.781 3.44808 33.8713 3.35768C33.9627 3.26629 34.0441 3.16696 34.1156 3.05968C34.1871 2.95239 34.2477 2.83915 34.2963 2.72094C34.346 2.60174 34.3827 2.47856 34.4085 2.3524C34.4334 2.22625 34.4463 2.0981 34.4463 1.96996C34.4463 1.84082 34.4334 1.71367 34.4085 1.58652C34.3827 1.46037 34.346 1.33818 34.2963 1.21898C34.2477 1.09978 34.1871 0.986533 34.1156 0.87925C34.0441 0.771967 33.9627 0.673625 33.8713 0.582236C33.781 0.490846 33.6817 0.409391 33.5744 0.337869C33.4672 0.266347 33.354 0.205752 33.2358 0.156084C33.1166 0.10741 32.9935 0.0696617 32.8674 0.0448278C32.7413 0.0190003 32.6132 0.00708008 32.4851 0.00708008H28.1248C28.0076 0.00708008 27.8915 0.0170137 27.7753 0.0378742C27.6601 0.0587347 27.5479 0.0895288 27.4377 0.13125C27.3284 0.171978 27.2232 0.222639 27.1219 0.282241C27.0216 0.341842 26.9273 0.410384 26.8389 0.486873C26.7495 0.563362 26.6691 0.647797 26.5956 0.739186C26.5221 0.830576 26.4576 0.927925 26.401 1.03024C26.3454 1.13355 26.2987 1.24083 26.2619 1.35209C26.2252 1.46335 26.1984 1.57659 26.1815 1.69281L25.3444 7.56854C23.4478 8.11091 21.6375 8.86189 19.9137 9.82148L15.1632 6.2573C15.0698 6.18677 14.9705 6.12518 14.8652 6.07353C14.761 6.02088 14.6518 5.97717 14.5395 5.94439C14.4273 5.91161 14.3121 5.88877 14.196 5.87585C14.0798 5.86294 13.9626 5.86095 13.8454 5.86989C13.7293 5.87784 13.6141 5.89671 13.4999 5.92552C13.3867 5.95433 13.2764 5.99307 13.1702 6.04274C13.063 6.09141 12.9617 6.14903 12.8653 6.21558C12.769 6.28313 12.6797 6.35763 12.5972 6.44107L6.43168 12.6088C6.34827 12.6913 6.27379 12.7807 6.20726 12.8771C6.13974 12.9734 6.08214 13.0747 6.03348 13.182C5.98483 13.2883 5.9461 13.3986 5.9173 13.5118C5.88851 13.626 5.86964 13.7413 5.86169 13.8585C5.85375 13.9747 5.85574 14.0919 5.86865 14.2082C5.88155 14.3254 5.90439 14.4396 5.93716 14.5519C5.97093 14.6641 6.01362 14.7734 6.06625 14.8777C6.11888 14.982 6.18045 15.0813 6.25095 15.1757L9.81087 19.9279C8.84964 21.6514 8.09794 23.4613 7.55476 25.3586L1.68115 26.198C1.56497 26.2149 1.45177 26.2417 1.34055 26.2785C1.22934 26.3162 1.12309 26.3629 1.02081 26.4185C0.917534 26.4752 0.821213 26.5397 0.729857 26.6132C0.638501 26.6867 0.555088 26.7682 0.478627 26.8566C0.402166 26.945 0.333649 27.0394 0.274069 27.1397C0.214489 27.241 0.163846 27.3463 0.123132 27.4556C0.0824193 27.5649 0.0516361 27.6781 0.0307831 27.7933C0.00993009 27.9086 0 28.0238 0 28.141V36.8647C0 36.9819 0.00993009 37.0982 0.0307831 37.2144C0.0516361 37.3296 0.083412 37.4419 0.124125 37.5521C0.164838 37.6614 0.215482 37.7667 0.275062 37.867C0.334642 37.9683 0.403159 38.0627 0.47962 38.1511C0.557075 38.2395 0.640487 38.321 0.731843 38.3945C0.823199 38.468 0.920513 38.5326 1.02379 38.5892C1.12607 38.6448 1.23331 38.6915 1.34453 38.7283C1.45574 38.765 1.56894 38.7918 1.68513 38.8087L7.55874 39.6481C8.10092 41.5444 8.85163 43.3553 9.81087 45.0788L6.25095 49.831C6.18045 49.9244 6.11888 50.0238 6.06625 50.129C6.01362 50.2334 5.97093 50.3416 5.93716 50.4549C5.90439 50.5671 5.88155 50.6814 5.86865 50.7976C5.85574 50.9148 5.85375 51.031 5.86169 51.1482C5.86964 51.2655 5.88851 51.3807 5.9173 51.4939C5.9461 51.6082 5.98483 51.7174 6.03348 51.8247C6.08214 51.931 6.13974 52.0323 6.20726 52.1287C6.27379 52.225 6.34827 52.3154 6.43168 52.3979L12.5972 58.5657C12.6797 58.6491 12.769 58.7236 12.8653 58.7902C12.9617 58.8577 13.063 58.9153 13.1702 58.964C13.2764 59.0127 13.3867 59.0514 13.4999 59.0802C13.6141 59.11 13.7293 59.1279 13.8464 59.1368C13.9626 59.1448 14.0798 59.1428 14.196 59.1299C14.3121 59.118 14.4273 59.0951 14.5395 59.0623C14.6518 59.0286 14.761 58.9858 14.8652 58.9332C14.9705 58.8806 15.0698 58.819 15.1632 58.7494L19.9137 55.1853C21.6375 56.1458 23.4478 56.8968 25.3444 57.4402L26.1815 63.3159C26.1984 63.4321 26.2252 63.5454 26.2619 63.6566C26.2997 63.7679 26.3454 63.8742 26.402 63.9775C26.4576 64.0798 26.5231 64.1771 26.5966 64.2685C26.6701 64.3599 26.7505 64.4434 26.8389 64.5199C26.9273 64.5973 27.0226 64.6649 27.1229 64.7245C27.2232 64.7851 27.3284 64.8348 27.4387 64.8755C27.5479 64.9172 27.6611 64.948 27.7763 64.9689C27.8915 64.9897 28.0076 64.9996 28.1248 64.9996H32.4851C32.6132 64.9996 32.7413 64.9867 32.8674 64.9619C32.9935 64.9371 33.1166 64.8993 33.2358 64.8506C33.355 64.801 33.4682 64.7404 33.5744 64.6689C33.6817 64.5973 33.781 64.5159 33.8723 64.4245C33.9637 64.3331 34.0451 64.2348 34.1166 64.1275C34.1881 64.0202 34.2487 63.907 34.2973 63.7878C34.347 63.6685 34.3837 63.5464 34.4095 63.4192C34.4344 63.2931 34.4473 63.1659 34.4473 63.0368C34.4473 62.9076 34.4344 62.7805 34.4095 62.6533C34.3837 62.5272 34.347 62.405 34.2973 62.2858C34.2487 62.1666 34.1881 62.0533 34.1166 61.9461C34.0451 61.8388 33.9637 61.7394 33.8723 61.649C33.781 61.5577 33.6817 61.4762 33.5744 61.4047C33.4682 61.3332 33.355 61.2726 33.2358 61.2229C33.1166 61.1742 32.9935 61.1365 32.8674 61.1116C32.7413 61.0868 32.6132 61.0739 32.4851 61.0739Z" fill="#8C52FF"/>
<path d="M32.4851 21.3806C32.6132 21.3806 32.7413 21.3677 32.8674 21.3428C32.9935 21.318 33.1166 21.2803 33.2358 21.2316C33.355 21.1819 33.4682 21.1213 33.5744 21.0498C33.6817 20.9783 33.781 20.8968 33.8723 20.8054C33.9637 20.715 34.0451 20.6157 34.1166 20.5084C34.1881 20.4011 34.2487 20.2879 34.2973 20.1687C34.347 20.0495 34.3837 19.9273 34.4095 19.8012C34.4344 19.674 34.4473 19.5469 34.4473 19.4177C34.4473 19.2886 34.4344 19.1614 34.4095 19.0353C34.3837 18.9081 34.347 18.7859 34.2973 18.6667C34.2487 18.5475 34.1881 18.4343 34.1166 18.327C34.0451 18.2197 33.9637 18.1214 33.8723 18.03C33.781 17.9386 33.6817 17.8571 33.5744 17.7856C33.4682 17.7141 33.355 17.6535 33.2358 17.6038C33.1166 17.5552 32.9935 17.5174 32.8674 17.4926C32.7413 17.4677 32.6132 17.4548 32.4851 17.4548C31.9916 17.4548 31.501 17.4787 31.0105 17.5273C30.5199 17.576 30.0334 17.6475 29.5498 17.7439C29.0672 17.8403 28.5895 17.9595 28.1179 18.1025C27.6462 18.2455 27.1834 18.4114 26.7277 18.6002C26.2729 18.7889 25.828 18.9995 25.3931 19.232C24.9591 19.4644 24.5371 19.7177 24.127 19.9909C23.7179 20.265 23.3227 20.5581 22.9413 20.871C22.56 21.1839 22.1956 21.5137 21.8471 21.8624C21.4995 22.211 21.1688 22.5756 20.856 22.9571C20.5432 23.3375 20.2503 23.7329 19.9762 24.1431C19.7032 24.5524 19.4499 24.9746 19.2176 25.4097C18.9852 25.8448 18.7747 26.2898 18.587 26.7447C18.3984 27.1997 18.2325 27.6636 18.0895 28.1354C17.9465 28.6073 17.8264 29.0841 17.7301 29.5679C17.6347 30.0506 17.5622 30.5384 17.5136 31.0281C17.4659 31.5188 17.4411 32.0105 17.4411 32.5032C17.4411 32.996 17.4659 33.4877 17.5136 33.9784C17.5622 34.4691 17.6347 34.9559 17.7301 35.4396C17.8264 35.9224 17.9465 36.4002 18.0895 36.872C18.2325 37.3439 18.3984 37.8068 18.587 38.2627C18.7747 38.7177 18.9852 39.1627 19.2176 39.5978C19.4499 40.0319 19.7032 40.4541 19.9762 40.8644C20.2503 41.2736 20.5432 41.669 20.856 42.0504C21.1688 42.4309 21.4995 42.7964 21.8471 43.1441C22.1956 43.4928 22.56 43.8236 22.9413 44.1365C23.3227 44.4494 23.7179 44.7424 24.127 45.0156C24.5371 45.2898 24.9591 45.5431 25.3931 45.7755C25.828 46.008 26.2729 46.2186 26.7277 46.4063C27.1834 46.5951 27.6462 46.7609 28.1179 46.904C28.5895 47.047 29.0672 47.1672 29.5498 47.2626C30.0334 47.3589 30.5199 47.4315 31.0105 47.4801C31.501 47.5278 31.9916 47.5527 32.4851 47.5527C32.6132 47.5527 32.7413 47.5397 32.8674 47.5149C32.9935 47.4891 33.1166 47.4523 33.2358 47.4027C33.355 47.354 33.4682 47.2934 33.5744 47.2219C33.6817 47.1493 33.781 47.0689 33.8723 46.9775C33.9637 46.8861 34.0451 46.7868 34.1166 46.6795C34.1881 46.5732 34.2487 46.46 34.2973 46.3408C34.347 46.2215 34.3837 46.0984 34.4095 45.9722C34.4344 45.8461 34.4473 45.7179 34.4473 45.5898C34.4473 45.4606 34.4344 45.3325 34.4095 45.2063C34.3837 45.0802 34.347 44.957 34.2973 44.8378C34.2487 44.7196 34.1881 44.6063 34.1166 44.4991C34.0451 44.3918 33.9637 44.2924 33.8723 44.2011C33.781 44.1107 33.6817 44.0292 33.5744 43.9577C33.4682 43.8862 33.355 43.8256 33.2358 43.7759C33.1166 43.7262 32.9935 43.6895 32.8674 43.6646C32.7413 43.6388 32.6132 43.6269 32.4851 43.6269C32.1207 43.6269 31.7572 43.609 31.3948 43.5732C31.0323 43.5375 30.6729 43.4838 30.3154 43.4123C29.9579 43.3418 29.6054 43.2534 29.2568 43.1471C28.9083 43.0418 28.5657 42.9196 28.2301 42.7796C27.8934 42.6405 27.5648 42.4845 27.243 42.3127C26.9223 42.1418 26.6105 41.9541 26.3076 41.7524C26.0048 41.5498 25.7128 41.3332 25.4308 41.1018C25.1498 40.8703 24.8797 40.626 24.6225 40.3687C24.3653 40.1114 24.121 39.8412 23.8897 39.5601C23.6583 39.278 23.4418 38.9859 23.2392 38.6829C23.0377 38.38 22.85 38.068 22.6792 37.7472C22.5074 37.4253 22.3515 37.0965 22.2125 36.7598C22.0725 36.424 21.9503 36.0813 21.8441 35.7327C21.7388 35.384 21.6504 35.0304 21.5789 34.6737C21.5084 34.3161 21.4548 33.9565 21.4191 33.594C21.3833 33.2314 21.3654 32.8678 21.3654 32.5032C21.3654 32.1397 21.3833 31.7761 21.4191 31.4135C21.4548 31.051 21.5084 30.6914 21.5789 30.3337C21.6504 29.9761 21.7388 29.6235 21.8441 29.2748C21.9503 28.9262 22.0725 28.5834 22.2125 28.2467C22.3515 27.9109 22.5074 27.5811 22.6792 27.2603C22.85 26.9394 23.0377 26.6265 23.2392 26.3236C23.4418 26.0216 23.6583 25.7285 23.8897 25.4474C24.121 25.1653 24.3653 24.8961 24.6225 24.6388C24.8797 24.3805 25.1498 24.1362 25.4308 23.9057C25.7128 23.6743 26.0048 23.4577 26.3076 23.2551C26.6105 23.0524 26.9223 22.8657 27.243 22.6938C27.5648 22.522 27.8934 22.367 28.2301 22.2269C28.5657 22.0879 28.9083 21.9657 29.2568 21.8594C29.6054 21.7541 29.9579 21.6657 30.3154 21.5942C30.6729 21.5236 31.0323 21.47 31.3948 21.4342C31.7572 21.3985 32.1207 21.3806 32.4851 21.3806Z" fill="#8C52FF"/>
</svg>
