<svg width="500" height="500" viewBox="0 0 500 500" fill="none" xmlns="http://www.w3.org/2000/svg">
<mask id="mask0_377_324" style="mask-type:luminance" maskUnits="userSpaceOnUse" x="102" y="68" width="296" height="364">
<path d="M102 68H397.194V431.224H102V68Z" fill="white"/>
</mask>
<g mask="url(#mask0_377_324)">
<path d="M128.536 223.534V315.055C128.536 321.722 126.955 328.415 123.972 334.389L103.511 375.314C102.171 377.995 102.311 381.188 103.893 383.729C105.461 386.269 108.242 387.837 111.234 387.837H198.493C202.628 412.323 223.938 431.066 249.597 431.066C263.395 431.066 276.426 425.696 286.356 415.871C294.039 408.1 298.95 398.359 300.715 387.837H387.943C390.953 387.837 393.734 386.269 395.302 383.729C396.883 381.188 397.024 377.995 395.683 375.314L375.223 334.389C372.24 328.415 370.659 321.722 370.659 315.055V223.534C370.659 191.225 358.066 160.835 335.174 137.961C320.785 123.555 303.133 113.108 283.645 107.343C283.868 105.736 284.179 104.137 284.179 102.472C284.179 83.4096 268.673 67.8904 249.597 67.8904C230.521 67.8904 215.015 83.4096 215.015 102.472C215.015 104.155 215.326 105.749 215.55 107.374C164.629 122.328 128.536 169.762 128.536 223.534ZM274.127 403.654C267.53 410.177 258.805 413.777 249.597 413.777C233.513 413.777 219.956 402.735 216.102 387.837H283.106C281.582 393.755 278.52 399.204 274.127 403.654ZM249.597 85.188C259.129 85.188 266.895 92.9411 266.895 102.472C266.895 102.884 266.882 103.292 266.856 103.703C265.809 103.546 264.762 103.489 263.732 103.362C262.773 103.248 261.827 103.151 260.881 103.064C257.109 102.713 253.338 102.472 249.597 102.472C245.839 102.472 242.055 102.713 238.288 103.064C237.368 103.151 236.452 103.248 235.532 103.362C234.472 103.476 233.399 103.546 232.339 103.703C232.313 103.292 232.3 102.884 232.3 102.472C232.3 92.9411 240.066 85.188 249.597 85.188ZM227.906 122.017C238.708 119.788 249.654 119.236 260.456 120.335C264.07 120.716 267.675 121.268 271.258 122.004C290.903 126.253 308.766 135.999 322.945 150.173C342.559 169.788 353.361 195.842 353.361 223.534V315.055C353.361 324.407 355.578 333.767 359.743 342.129L373.966 370.54H125.229L139.451 342.129C143.617 333.767 145.833 324.407 145.833 315.055V223.534C145.833 174.817 180.376 132.114 227.906 122.017Z" fill="#8C52FF"/>
</g>
<circle cx="250" cy="250" r="249.5" stroke="#8C52FF"/>
</svg>
