<svg width="25" height="27" viewBox="0 0 25 27" fill="none" xmlns="http://www.w3.org/2000/svg">
<mask id="mask0_2128_725" style="mask-type:luminance" maskUnits="userSpaceOnUse" x="0" y="1" width="25" height="26">
<path d="M0 1.49573H25V27H0V1.49573Z" fill="white"/>
</mask>
<g mask="url(#mask0_2128_725)">
<path d="M24.9205 4.65605V23.8693C24.9205 24.7719 24.5411 25.5834 23.937 26.1475C23.3977 26.6516 22.6785 26.9591 21.8883 26.9591H3.03225C2.19561 26.9591 1.4371 26.6138 0.888425 26.0538C0.340191 25.4947 0 24.7232 0 23.8693V4.65605C0 3.80218 0.340191 3.03065 0.888425 2.47156C1.4371 1.91156 2.19561 1.56628 3.03225 1.56628H21.8883C22.7258 1.56628 23.4843 1.91156 24.033 2.47156C24.5817 3.03065 24.9205 3.80218 24.9205 4.65605Z" fill="white"/>
</g>
<path d="M21.8883 25.8536H3.03223C2.51168 25.8536 2.02282 25.6475 1.65629 25.2727C1.28752 24.8969 1.08484 24.3988 1.08484 23.8693V10.256H1.39467V23.8693C1.39467 24.3146 1.56521 24.7336 1.87639 25.0493C2.18399 25.3641 2.59516 25.5379 3.03312 25.5379H21.8883C22.2994 25.5379 22.6919 25.3823 22.9946 25.1003C23.3374 24.78 23.5258 24.3433 23.5258 23.8693V10.5781H23.8357V23.8706C23.8357 24.4338 23.6115 24.9538 23.2044 25.3336C22.845 25.6693 22.378 25.855 21.8883 25.855V25.8536Z" fill="#8C52FF"/>
<mask id="mask1_2128_725" style="mask-type:luminance" maskUnits="userSpaceOnUse" x="0" y="1" width="25" height="11">
<path d="M0 1.49573H25V11.6276H0V1.49573Z" fill="white"/>
</mask>
<g mask="url(#mask1_2128_725)">
<path d="M24.9205 4.65605V11.5371H0V4.65605C0 3.80218 0.340191 3.03065 0.888425 2.47156C1.4371 1.91156 2.19561 1.56628 3.03225 1.56628H21.8883C22.7258 1.56628 23.4843 1.91156 24.033 2.47156C24.5817 3.03065 24.9205 3.80218 24.9205 4.65605Z" fill="#8C52FF"/>
</g>
<path d="M5.69123 4.33339C5.69123 4.41937 5.68319 4.50398 5.66667 4.58769C5.6506 4.67184 5.62604 4.75327 5.5939 4.83243C5.56176 4.91158 5.52247 4.98664 5.47559 5.05761C5.42916 5.12858 5.37604 5.19454 5.31666 5.25504C5.25728 5.31555 5.19255 5.36968 5.1229 5.41699C5.05326 5.46476 4.97959 5.50479 4.90191 5.53754C4.82423 5.5703 4.74432 5.59486 4.66172 5.61169C4.57958 5.62853 4.49654 5.63671 4.41261 5.63671C4.32823 5.63671 4.24519 5.62853 4.16305 5.61169C4.08045 5.59486 4.00054 5.5703 3.92286 5.53754C3.84518 5.50479 3.77151 5.46476 3.70187 5.41699C3.63222 5.36968 3.56749 5.31555 3.50811 5.25504C3.44873 5.19454 3.39561 5.12858 3.34918 5.05761C3.3023 4.98664 3.26301 4.91158 3.23087 4.83243C3.19873 4.75327 3.17417 4.67184 3.1581 4.58769C3.14158 4.50398 3.13354 4.41937 3.13354 4.33339C3.13354 4.24786 3.14158 4.16325 3.1581 4.07955C3.17417 3.99539 3.19873 3.91396 3.23087 3.8348C3.26301 3.75565 3.3023 3.68059 3.34918 3.60962C3.39561 3.5382 3.44873 3.47269 3.50811 3.41219C3.56749 3.35169 3.63222 3.29755 3.70187 3.24979C3.77151 3.20247 3.84518 3.16244 3.92286 3.12969C4.00054 3.09693 4.08045 3.07191 4.16305 3.05554C4.24519 3.03871 4.32823 3.03052 4.41261 3.03052C4.49654 3.03052 4.57958 3.03871 4.66172 3.05554C4.74432 3.07191 4.82423 3.09693 4.90191 3.12969C4.97959 3.16244 5.05326 3.20247 5.1229 3.24979C5.19255 3.29755 5.25728 3.35169 5.31666 3.41219C5.37604 3.47269 5.42916 3.5382 5.47559 3.60962C5.52247 3.68059 5.56176 3.75565 5.5939 3.8348C5.62604 3.91396 5.6506 3.99539 5.66667 4.07955C5.68319 4.16325 5.69123 4.24786 5.69123 4.33339Z" fill="white"/>
<mask id="mask2_2128_725" style="mask-type:luminance" maskUnits="userSpaceOnUse" x="3" y="0" width="3" height="6">
<path d="M3.66174 0H5.14751V5.10594H3.66174V0Z" fill="white"/>
</mask>
<g mask="url(#mask2_2128_725)">
<path d="M4.41271 0.0123291C3.76179 0.0136939 3.70777 0.71244 3.75554 1.22103C3.75331 1.65047 3.75331 2.07991 3.75554 2.50935C3.75331 2.93878 3.75331 3.36822 3.75554 3.79812C3.70777 4.30534 3.76268 5.00636 4.4136 5.00636C5.06452 5.00546 5.11809 4.30625 5.07077 3.79812C5.07255 3.36822 5.07255 2.93878 5.07077 2.50935C5.07255 2.07991 5.07255 1.65047 5.07077 1.22103C5.11809 0.71335 5.06318 0.0123291 4.41271 0.0123291Z" fill="#3D4C52"/>
</g>
<path d="M11.0571 4.33339C11.0571 4.41937 11.049 4.50398 11.0325 4.58769C11.0164 4.67184 10.9919 4.75327 10.9597 4.83243C10.9276 4.91158 10.8883 4.98664 10.8419 5.05761C10.795 5.12858 10.7419 5.19454 10.6825 5.25504C10.6231 5.31555 10.5588 5.36968 10.4887 5.41699C10.4191 5.46476 10.3454 5.50479 10.2678 5.53754C10.1901 5.5703 10.1102 5.59486 10.028 5.61169C9.94542 5.62853 9.86238 5.63671 9.77845 5.63671C9.69452 5.63671 9.61104 5.62853 9.52889 5.61169C9.4463 5.59486 9.36638 5.5703 9.2887 5.53754C9.21147 5.50479 9.13736 5.46476 9.06771 5.41699C8.99807 5.36968 8.93333 5.31555 8.87396 5.25504C8.81458 5.19454 8.76145 5.12858 8.71502 5.05761C8.66815 4.98664 8.62886 4.91158 8.59671 4.83243C8.56457 4.75327 8.54046 4.67184 8.52394 4.58769C8.50743 4.50398 8.49939 4.41937 8.49939 4.33339C8.49939 4.24786 8.50743 4.16325 8.52394 4.07955C8.54046 3.99539 8.56457 3.91396 8.59671 3.8348C8.62886 3.75565 8.66815 3.68059 8.71502 3.60962C8.76145 3.5382 8.81458 3.47269 8.87396 3.41219C8.93333 3.35169 8.99807 3.29755 9.06771 3.24979C9.13736 3.20247 9.21147 3.16244 9.2887 3.12969C9.36638 3.09693 9.4463 3.07191 9.52889 3.05554C9.61104 3.03871 9.69452 3.03052 9.77845 3.03052C9.86238 3.03052 9.94542 3.03871 10.028 3.05554C10.1102 3.07191 10.1901 3.09693 10.2678 3.12969C10.3454 3.16244 10.4191 3.20247 10.4887 3.24979C10.5588 3.29755 10.6231 3.35169 10.6825 3.41219C10.7419 3.47269 10.795 3.5382 10.8419 3.60962C10.8883 3.68059 10.9276 3.75565 10.9597 3.8348C10.9919 3.91396 11.0164 3.99539 11.0325 4.07955C11.049 4.16325 11.0571 4.24786 11.0571 4.33339Z" fill="white"/>
<mask id="mask3_2128_725" style="mask-type:luminance" maskUnits="userSpaceOnUse" x="9" y="0" width="2" height="6">
<path d="M9.03333 0H10.5191V5.10594H9.03333V0Z" fill="white"/>
</mask>
<g mask="url(#mask3_2128_725)">
<path d="M9.77716 0.0123291C9.12625 0.0136939 9.07267 0.71244 9.12044 1.22103C9.11821 1.65047 9.11821 2.07991 9.12044 2.50935C9.11821 2.93878 9.11821 3.36822 9.12044 3.79812C9.07267 4.30534 9.12759 5.00636 9.7785 5.00636C10.429 5.00546 10.483 4.30625 10.4352 3.79812C10.4375 3.36822 10.4375 2.93878 10.4352 2.50935C10.4375 2.07991 10.4375 1.65047 10.4352 1.22103C10.483 0.71335 10.4281 0.0123291 9.77716 0.0123291Z" fill="#3D4C52"/>
</g>
<path d="M16.4221 4.33339C16.4221 4.41937 16.414 4.50398 16.3975 4.58769C16.381 4.67184 16.3569 4.75327 16.3247 4.83243C16.2926 4.91158 16.2533 4.98664 16.2064 5.05761C16.16 5.12858 16.1069 5.19454 16.0475 5.25504C15.9881 5.31555 15.9234 5.36968 15.8537 5.41699C15.7841 5.46476 15.7104 5.50479 15.6327 5.53754C15.5551 5.5703 15.4752 5.59486 15.3926 5.61169C15.3104 5.62853 15.2274 5.63671 15.143 5.63671C15.0591 5.63671 14.976 5.62853 14.8939 5.61169C14.8113 5.59486 14.7314 5.5703 14.6537 5.53754C14.576 5.50479 14.5023 5.46476 14.4327 5.41699C14.3626 5.36968 14.2983 5.31555 14.2389 5.25504C14.1796 5.19454 14.1264 5.12858 14.0796 5.05761C14.0331 4.98664 13.9938 4.91158 13.9617 4.83243C13.9296 4.75327 13.905 4.67184 13.8889 4.58769C13.8724 4.50398 13.8644 4.41937 13.8644 4.33339C13.8644 4.24786 13.8724 4.16325 13.8889 4.07955C13.905 3.99539 13.9296 3.91396 13.9617 3.8348C13.9938 3.75565 14.0331 3.68059 14.0796 3.60962C14.1264 3.5382 14.1796 3.47269 14.2389 3.41219C14.2983 3.35169 14.3626 3.29755 14.4327 3.24979C14.5023 3.20247 14.576 3.16244 14.6537 3.12969C14.7314 3.09693 14.8113 3.07191 14.8939 3.05554C14.976 3.03871 15.0591 3.03052 15.143 3.03052C15.2274 3.03052 15.3104 3.03871 15.3926 3.05554C15.4752 3.07191 15.5551 3.09693 15.6327 3.12969C15.7104 3.16244 15.7841 3.20247 15.8537 3.24979C15.9234 3.29755 15.9881 3.35169 16.0475 3.41219C16.1069 3.47269 16.16 3.5382 16.2064 3.60962C16.2533 3.68059 16.2926 3.75565 16.3247 3.8348C16.3569 3.91396 16.381 3.99539 16.3975 4.07955C16.414 4.16325 16.4221 4.24786 16.4221 4.33339Z" fill="white"/>
<mask id="mask4_2128_725" style="mask-type:luminance" maskUnits="userSpaceOnUse" x="14" y="0" width="2" height="6">
<path d="M14.405 0H15.8908V5.10594H14.405V0Z" fill="white"/>
</mask>
<g mask="url(#mask4_2128_725)">
<path d="M15.142 0.0123291C14.4911 0.0136939 14.4376 0.71244 14.4849 1.22103C14.4831 1.65047 14.4831 2.07991 14.4849 2.50935C14.4831 2.93878 14.4831 3.36822 14.4849 3.79812C14.4376 4.30534 14.4925 5.00636 15.1429 5.00636C15.7939 5.00546 15.8479 4.30625 15.8001 3.79812C15.8023 3.36822 15.8023 2.93878 15.8001 2.50935C15.8023 2.07991 15.8023 1.65047 15.8001 1.22103C15.8479 0.71335 15.793 0.0123291 15.142 0.0123291Z" fill="#3D4C52"/>
</g>
<path d="M21.787 4.33339C21.787 4.41937 21.779 4.50398 21.7625 4.58769C21.7459 4.67184 21.7218 4.75327 21.6897 4.83243C21.6575 4.91158 21.6183 4.98664 21.5714 5.05761C21.5249 5.12858 21.4718 5.19454 21.4124 5.25504C21.3531 5.31555 21.2883 5.36968 21.2187 5.41699C21.1486 5.46476 21.0749 5.50479 20.9977 5.53754C20.92 5.5703 20.8401 5.59486 20.7575 5.61169C20.6754 5.62853 20.5919 5.63671 20.5079 5.63671C20.424 5.63671 20.341 5.62853 20.2584 5.61169C20.1762 5.59486 20.0963 5.5703 20.0186 5.53754C19.941 5.50479 19.8673 5.46476 19.7977 5.41699C19.7276 5.36968 19.6633 5.31555 19.6039 5.25504C19.5445 5.19454 19.4914 5.12858 19.4445 5.05761C19.3981 4.98664 19.3588 4.91158 19.3267 4.83243C19.2945 4.75327 19.27 4.67184 19.2539 4.58769C19.2374 4.50398 19.2289 4.41937 19.2289 4.33339C19.2289 4.24786 19.2374 4.16325 19.2539 4.07955C19.27 3.99539 19.2945 3.91396 19.3267 3.8348C19.3588 3.75565 19.3981 3.68059 19.4445 3.60962C19.4914 3.5382 19.5445 3.47269 19.6039 3.41219C19.6633 3.35169 19.7276 3.29755 19.7977 3.24979C19.8673 3.20247 19.941 3.16244 20.0186 3.12969C20.0963 3.09693 20.1762 3.07191 20.2584 3.05554C20.341 3.03871 20.424 3.03052 20.5079 3.03052C20.5919 3.03052 20.6754 3.03871 20.7575 3.05554C20.8401 3.07191 20.92 3.09693 20.9977 3.12969C21.0749 3.16244 21.1486 3.20247 21.2187 3.24979C21.2883 3.29755 21.3531 3.35169 21.4124 3.41219C21.4718 3.47269 21.5249 3.5382 21.5714 3.60962C21.6183 3.68059 21.6575 3.75565 21.6897 3.8348C21.7218 3.91396 21.7459 3.99539 21.7625 4.07955C21.779 4.16325 21.787 4.24786 21.787 4.33339Z" fill="white"/>
<mask id="mask5_2128_725" style="mask-type:luminance" maskUnits="userSpaceOnUse" x="19" y="0" width="3" height="6">
<path d="M19.7766 0H21.2624V5.10594H19.7766V0Z" fill="white"/>
</mask>
<g mask="url(#mask5_2128_725)">
<path d="M20.507 0.0123291C19.8561 0.0136939 19.8025 0.71244 19.8499 1.22103C19.8481 1.65047 19.8481 2.07991 19.8499 2.50935C19.8481 2.93878 19.8481 3.36822 19.8499 3.79812C19.8025 4.30534 19.857 5.00636 20.5079 5.00636C21.1588 5.00546 21.2124 4.30625 21.1651 3.79812C21.1673 3.36822 21.1673 2.93878 21.1651 2.50935C21.1673 2.07991 21.1673 1.65047 21.1651 1.22103C21.2124 0.71335 21.158 0.0123291 20.507 0.0123291Z" fill="#3D4C52"/>
</g>
<path d="M6.58899 22.2621V20.992H8.42834V16.159L8.30869 16.1263C8.04797 16.2536 7.79126 16.3551 7.53902 16.4301C7.28768 16.5043 7.00016 16.5625 6.67649 16.6048V15.2929C7.52161 15.1123 8.20512 14.8466 8.72657 14.4958H9.91947V20.992H11.5624V22.2621H6.58899Z" fill="#8C52FF"/>
<path d="M15.4541 22.373C14.88 22.373 14.3684 22.2393 13.9183 21.9709C13.4683 21.7016 13.1112 21.274 12.8469 20.688C12.5826 20.1012 12.4504 19.356 12.4504 18.4535C12.4504 17.5328 12.5888 16.7685 12.8665 16.1607C13.1451 15.553 13.5246 15.1049 14.0059 14.816C14.488 14.5276 15.0398 14.3829 15.6613 14.3829C16.1791 14.3829 16.6247 14.4594 16.9988 14.6122C17.3725 14.7651 17.6636 14.9902 17.8721 15.2873L17.1327 16.2535H17.0024C16.6854 15.8678 16.2385 15.6749 15.6613 15.6749C14.5777 15.6749 14.0237 16.4842 13.9987 18.1023L14.1076 18.1405C14.2849 17.8071 14.5188 17.5528 14.8095 17.3781C15.0996 17.2025 15.4657 17.1142 15.9077 17.1142C16.38 17.1142 16.7885 17.2161 17.1327 17.4199C17.4765 17.6237 17.7404 17.9158 17.9238 18.2952C18.1082 18.6737 18.2006 19.1231 18.2006 19.6435C18.2006 20.2104 18.0899 20.6989 17.8685 21.1102C17.6479 21.5205 17.3314 21.8335 16.9185 22.0491C16.505 22.2648 16.0171 22.373 15.4541 22.373ZM15.422 21.0611C15.8148 21.0611 16.1224 20.9437 16.3452 20.708C16.5676 20.4729 16.6792 20.143 16.6792 19.7182C16.6792 19.2924 16.5676 18.9621 16.3452 18.7264C16.1224 18.4913 15.8148 18.3734 15.422 18.3734C15.1648 18.3734 14.9398 18.4289 14.7469 18.539C14.5541 18.6482 14.405 18.8042 14.3005 19.0067C14.1969 19.2082 14.1451 19.4452 14.1451 19.7182C14.1451 20.1321 14.2585 20.4597 14.4862 20.7008C14.7135 20.941 15.0255 21.0611 15.422 21.0611Z" fill="#8C52FF"/>
<path d="M9.67315 9.42225C9.46109 9.42225 9.28474 9.38176 9.14456 9.30033C9.00393 9.218 8.90169 9.10745 8.8374 8.96916L9.11598 8.62342H9.15884C9.20527 8.73533 9.27001 8.82313 9.35349 8.88727C9.43787 8.95187 9.53564 8.98372 9.64636 8.98372C9.77002 8.98372 9.86244 8.94687 9.92316 8.87272C9.98387 8.79902 10.0142 8.67892 10.0142 8.51242V6.83289H10.5089V8.52152C10.5089 8.82995 10.4397 9.05741 10.3017 9.20389C10.1633 9.34947 9.95396 9.42225 9.67315 9.42225Z" fill="white"/>
<path d="M11.6845 9.42216C11.4711 9.42216 11.314 9.36347 11.2131 9.24565C11.1117 9.12692 11.0613 8.95724 11.0613 8.73615V7.46057H11.5363V8.67428C11.5363 8.7921 11.5604 8.87808 11.6095 8.93267C11.6595 8.98726 11.7367 9.01455 11.8417 9.01455C11.9725 9.01455 12.0743 8.97088 12.147 8.88354C12.2207 8.79529 12.2578 8.65608 12.2578 8.46684V7.46057H12.7328V9.38576H12.2774V9.10372L12.2399 9.09462C12.1801 9.20516 12.1064 9.2875 12.0185 9.34209C11.9314 9.39532 11.8202 9.42216 11.6845 9.42216Z" fill="white"/>
<path d="M13.789 9.42219C13.6184 9.42219 13.489 9.37579 13.3997 9.28208C13.3104 9.18882 13.2657 9.04644 13.2657 8.85446V6.68726H13.7408V8.83627C13.7408 8.95409 13.7881 9.01277 13.8836 9.01277C13.9109 9.01277 13.9399 9.00822 13.9711 8.99821L13.9961 9.00549L14.039 9.3767C14.0113 9.39126 13.9765 9.40218 13.9336 9.40946C13.8908 9.41764 13.8426 9.42219 13.789 9.42219Z" fill="white"/>
<path d="M14.5093 10.2028C14.428 10.2028 14.3548 10.196 14.2896 10.1828C14.224 10.1705 14.1704 10.1541 14.1289 10.1336L14.2039 9.74241L14.2361 9.7315C14.2646 9.74605 14.2994 9.75788 14.3414 9.76789C14.3843 9.77744 14.4276 9.78245 14.4718 9.78245C14.5477 9.78245 14.6115 9.77198 14.6629 9.75151C14.7137 9.73059 14.7566 9.69692 14.7914 9.64961C14.8271 9.60321 14.8584 9.5377 14.8861 9.45309L14.1325 7.46057H14.6289L15.0986 8.79984H15.1397L15.5968 7.46057H16.0808L15.3218 9.50586C15.2611 9.67054 15.1941 9.80337 15.1218 9.90436C15.049 10.0049 14.9633 10.0795 14.8646 10.1282C14.7655 10.1778 14.6472 10.2028 14.5093 10.2028Z" fill="white"/>
</svg>
