<svg width="102" height="103" viewBox="0 0 102 103" fill="none" xmlns="http://www.w3.org/2000/svg">
<mask id="mask0_2482_15749" style="mask-type:luminance" maskUnits="userSpaceOnUse" x="0" y="0" width="53" height="66">
<path d="M0.96875 0.551758H52.6667V65.9997H0.96875V0.551758Z" fill="white"/>
</mask>
<g mask="url(#mask0_2482_15749)">
<path d="M52.4062 0.572632V51.932H14.5208V58.2185C14.5208 60.8018 12.9531 63.1351 10.5573 64.1195L8.59896 64.9216H7.78125C7.52083 64.9216 7.27083 64.906 7.02083 64.8747C6.02083 64.7653 5.08333 64.4424 4.26042 63.9424C2.29167 62.7549 0.96875 60.5987 0.96875 58.1299V0.572632H52.4062Z" fill="#E0ECE4"/>
</g>
<path d="M8.59888 31.4688H17.7447V45.8333H8.59888V31.4688Z" fill="#04585E"/>
<path d="M17.7449 24.7764H26.8855V45.8337H17.7449V24.7764Z" fill="#E03B53"/>
<path d="M26.8855 33.6982H36.0261V45.8337H26.8855V33.6982Z" fill="#E5A525"/>
<path d="M36.0261 27.3389H45.172V45.8337H36.0261V27.3389Z" fill="#57AAA8"/>
<path d="M17.7448 31.4688V43.5938H14.7396C12.5885 43.5938 10.8438 41.8542 10.8438 39.7083V31.4688H17.7448Z" fill="#056674"/>
<path d="M26.8854 24.7764V43.5941H23.875C21.7292 43.5941 19.9844 41.8597 19.9844 39.7139V24.7764H26.8854Z" fill="#FF4B5C"/>
<path d="M36.026 33.6982V43.5941H33.4062C31.0416 43.5941 29.1301 41.6878 29.1301 39.3337V33.6982H36.026Z" fill="#FFC12D"/>
<path d="M45.1718 27.3389V43.5941H42.9843C40.3801 43.5941 38.2708 41.4899 38.2708 38.8962V27.3389H45.1718Z" fill="#66BFBF"/>
<path d="M53.4895 64.1826C53.4895 64.4274 53.4947 64.6774 53.5051 64.9222H8.59888L10.5572 64.1201C12.953 63.1357 14.5208 60.8024 14.5208 58.2191V51.9326H58.026C55.1978 55.2295 53.4895 59.5055 53.4895 64.1826Z" fill="#C8D6CC"/>
<path d="M64.6407 52.0107V55.1149C64.6407 59.4378 61.8282 63.1097 57.9324 64.4118C57.9324 64.3337 57.9324 64.2555 57.9324 64.1826C57.9324 59.0628 60.6042 54.5732 64.6407 52.0107Z" fill="#C8D6CC"/>
<path d="M45.1718 8.66699H8.59888C8.15096 8.66699 7.78638 8.30762 7.78638 7.85449C7.78638 7.40658 8.15096 7.04199 8.59888 7.04199H45.1718C45.6197 7.04199 45.9843 7.40658 45.9843 7.85449C45.9843 8.30762 45.6197 8.66699 45.1718 8.66699Z" fill="#2D2D2D"/>
<path d="M45.1718 12.5049H8.59888C8.15096 12.5049 7.78638 12.1403 7.78638 11.6924C7.78638 11.2445 8.15096 10.8799 8.59888 10.8799H45.1718C45.6197 10.8799 45.9843 11.2445 45.9843 11.6924C45.9843 12.1403 45.6197 12.5049 45.1718 12.5049Z" fill="#2D2D2D"/>
<path d="M45.1718 16.3438H8.59888C8.15096 16.3438 7.78638 15.9792 7.78638 15.5312C7.78638 15.0833 8.15096 14.7188 8.59888 14.7188H45.1718C45.6197 14.7188 45.9843 15.0833 45.9843 15.5312C45.9843 15.9792 45.6197 16.3438 45.1718 16.3438Z" fill="#2D2D2D"/>
<path d="M45.1718 20.182H8.59888C8.15096 20.182 7.78638 19.8174 7.78638 19.3643C7.78638 18.9163 8.15096 18.5518 8.59888 18.5518H45.1718C45.6197 18.5518 45.9843 18.9163 45.9843 19.3643C45.9843 19.8174 45.6197 20.182 45.1718 20.182Z" fill="#2D2D2D"/>
<path d="M70.9062 38.6507C70.9062 41.1247 68.8958 43.1247 66.4167 43.1247C65.4687 43.1247 64.5885 42.833 63.8646 42.333C62.6875 41.5257 61.9219 40.1768 61.9219 38.6507C61.9219 36.1768 63.9375 34.1768 66.4167 34.1768C67.9479 34.1768 69.2969 34.9372 70.1042 36.1038C70.6094 36.8278 70.9062 37.708 70.9062 38.6507Z" fill="#C8D6CC"/>
<path d="M86.8385 36.6094H74.1094C73.6615 36.6094 73.2969 36.2448 73.2969 35.7969C73.2969 35.349 73.6615 34.9844 74.1094 34.9844H86.8385C87.2865 34.9844 87.651 35.349 87.651 35.7969C87.651 36.2448 87.2865 36.6094 86.8385 36.6094Z" fill="#2D2D2D"/>
<path d="M82.9271 41.8232H74.1094C73.6615 41.8232 73.2969 41.4639 73.2969 41.0107C73.2969 40.5628 73.6615 40.1982 74.1094 40.1982H82.9271C83.375 40.1982 83.7396 40.5628 83.7396 41.0107C83.7396 41.4639 83.375 41.8232 82.9271 41.8232Z" fill="#2D2D2D"/>
<path d="M70.9062 64.182C70.9062 66.6559 68.8958 68.6611 66.4167 68.6611C65.4687 68.6611 64.5937 68.3695 63.8698 67.8695C62.6927 67.0622 61.9219 65.7132 61.9219 64.182C61.9219 61.708 63.9375 59.708 66.4167 59.708C67.9479 59.708 69.3021 60.4736 70.1146 61.6403C70.6146 62.3643 70.9062 63.234 70.9062 64.182Z" fill="#C8D6CC"/>
<path d="M70.9062 38.6514C70.9062 41.1253 68.8958 43.1253 66.4167 43.1253C65.4687 43.1253 64.5885 42.8337 63.8646 42.3337C63.3646 41.6097 63.0781 40.7399 63.0781 39.8024C63.0781 37.3232 65.0833 35.3232 67.5677 35.3232C68.5104 35.3232 69.3854 35.6097 70.1042 36.1045C70.6094 36.8285 70.9062 37.7087 70.9062 38.6514Z" fill="#E0ECE4"/>
<path d="M70.9062 64.1826C70.9062 66.6566 68.8958 68.6618 66.4167 68.6618C65.4687 68.6618 64.5937 68.3701 63.8698 67.8701C63.3698 67.1462 63.0781 66.2764 63.0781 65.3285C63.0781 62.8597 65.0833 60.8545 67.5677 60.8545C68.5156 60.8545 69.3906 61.1462 70.1146 61.641C70.6146 62.3649 70.9062 63.2347 70.9062 64.1826Z" fill="#E0ECE4"/>
<path d="M86.6927 62.1406H74.1094C73.6615 62.1406 73.2969 61.7813 73.2969 61.3281C73.2969 60.8802 73.6615 60.5156 74.1094 60.5156H86.3646C86.5052 61.0469 86.6146 61.5885 86.6927 62.1406Z" fill="#2D2D2D"/>
<path d="M82.9271 67.3597H74.1094C73.6615 67.3597 73.2969 66.9951 73.2969 66.542C73.2969 66.0941 73.6615 65.7295 74.1094 65.7295H82.9271C83.375 65.7295 83.7396 66.0941 83.7396 66.542C83.7396 66.9951 83.375 67.3597 82.9271 67.3597Z" fill="#2D2D2D"/>
<path d="M89.3072 55.7969C86.2135 49.599 79.7968 45.3438 72.3853 45.3438C66.6405 45.3438 61.4895 47.901 58.026 51.9323C55.1978 55.2292 53.4895 59.5052 53.4895 64.1823C53.4895 64.4271 53.4947 64.6771 53.5051 64.9219C53.6249 68.0365 54.5051 70.9635 55.9635 73.5104C56.7499 74.8906 57.7083 76.1563 58.8124 77.2865C59.2343 77.724 59.6822 78.1458 60.151 78.5469C63.453 81.3333 67.7187 83.026 72.3853 83.026C75.2239 83.026 77.9218 82.3958 80.3333 81.2812C82.4478 80.2969 84.3541 78.9375 85.9583 77.2865C85.9999 77.2448 86.0416 77.2031 86.078 77.1615C87.1249 76.0625 88.0416 74.8385 88.802 73.5104C88.9791 73.2031 89.1458 72.8906 89.3072 72.5729C90.5676 70.0469 91.276 67.1927 91.276 64.1823C91.276 61.1667 90.5676 58.3229 89.3072 55.7969ZM83.401 73.5104C82.0416 75.1042 80.3437 76.4063 78.4114 77.2865C76.578 78.1302 74.5364 78.599 72.3853 78.599C70.2343 78.599 68.1978 78.1302 66.3645 77.2865C64.453 76.4115 62.7708 75.1354 61.4166 73.5677C61.401 73.5469 61.3853 73.5313 61.3697 73.5104C59.2708 71.0521 57.9843 67.8802 57.9322 64.4115C57.9322 64.3333 57.9322 64.2552 57.9322 64.1823C57.9322 59.0625 60.6041 54.5677 64.6405 52.0104C66.8749 50.5938 69.5364 49.7708 72.3853 49.7708C79.0937 49.7708 84.7395 54.3333 86.3645 60.5156C86.5051 61.0469 86.6145 61.5885 86.6926 62.1406C86.7916 62.8073 86.8385 63.4896 86.8385 64.1823C86.8385 67.7396 85.5468 70.9948 83.401 73.5104Z" fill="#FFC12D"/>
<path d="M89.2916 82.0101L84.9947 85.0257L84.9478 85.057L83.6614 85.958L83.0208 85.057L80.3333 81.2809C80.7343 81.0934 81.1249 80.9007 81.5051 80.6872C81.6041 80.6299 81.7083 80.5726 81.8124 80.5101C82.0833 80.3538 82.3541 80.1924 82.6197 80.0205C82.7395 79.9424 82.8593 79.8643 82.9843 79.7809C83.0989 79.7028 83.2187 79.6195 83.3385 79.5309C83.5312 79.3955 83.7239 79.2549 83.9114 79.109C83.9791 79.057 84.0468 79.0049 84.1093 78.9528C84.1145 78.9528 84.1197 78.9528 84.1197 78.9476C84.3176 78.7913 84.5155 78.6299 84.703 78.4684C84.9218 78.2809 85.1353 78.0882 85.3437 77.8903C85.5416 77.7028 85.7447 77.5049 85.9374 77.307C85.9478 77.3018 85.9478 77.2913 85.9583 77.2861H86.1614L86.8593 78.333L89.2916 82.0101Z" fill="#E03B53"/>
<path d="M86.1614 77.2861H85.9583C85.9999 77.2445 86.0416 77.2028 86.078 77.1611L86.1614 77.2861Z" fill="#E03B53"/>
<path d="M89.2917 82.0101L84.9948 85.0257L83.6667 83.1611C82.9896 82.2028 83.25 80.8643 84.25 80.2497C85.1771 79.6872 86.0469 79.0413 86.8594 78.333L89.2917 82.0101Z" fill="#FF4B5C"/>
<mask id="mask1_2482_15749" style="mask-type:luminance" maskUnits="userSpaceOnUse" x="82" y="80" width="20" height="23">
<path d="M82 80.667H101.917V102.5H82V80.667Z" fill="white"/>
</mask>
<g mask="url(#mask1_2482_15749)">
<path d="M99.0729 101.526C98.4635 101.959 97.7916 102.24 97.1094 102.37C96.776 102.448 96.4375 102.479 96.1041 102.479C94.5 102.479 92.9219 101.724 91.9166 100.323L82.3333 86.8909L83.6614 85.9586L84.9479 85.0576L89.2916 82.0107L90.7552 80.9899L92.2031 83.0315L92.6094 83.6045L100.281 94.4013C101.922 96.7034 101.38 99.8961 99.0729 101.526Z" fill="#E5A525"/>
</g>
<mask id="mask2_2482_15749" style="mask-type:luminance" maskUnits="userSpaceOnUse" x="86" y="82" width="16" height="21">
<path d="M86 82H101.917V102.5H86V82Z" fill="white"/>
</mask>
<g mask="url(#mask2_2482_15749)">
<path d="M99.0729 101.526C98.4635 101.958 97.7917 102.24 97.1094 102.37C96.4792 102.016 95.9167 101.521 95.4688 100.896L87.9531 90.3646C86.8125 88.7656 87.1927 86.5417 88.8073 85.4167L92.2031 83.0312L100.286 94.401C101.922 96.7031 101.38 99.8958 99.0729 101.526Z" fill="#FFC12D"/>
</g>
<path d="M89.3073 23.9583V30.0938H52.4062V20.5156H85.8542C85.9479 20.5156 86.0469 20.5208 86.1354 20.526C86.1771 20.5313 86.2083 20.5365 86.2448 20.5417C86.3073 20.5417 86.3698 20.5573 86.4323 20.5677C86.474 20.5729 86.5052 20.5781 86.5469 20.5885C86.6458 20.6042 86.7448 20.6302 86.8385 20.6562C86.9063 20.6771 86.974 20.7031 87.0365 20.724C87.0885 20.7448 87.1406 20.7656 87.1927 20.7865C87.2656 20.8177 87.3333 20.849 87.401 20.8802C87.5 20.9323 87.599 20.9896 87.6927 21.0469C87.7656 21.0937 87.8385 21.1406 87.9062 21.1979C87.9219 21.2031 87.9323 21.2135 87.9427 21.224C88.0208 21.2813 88.0938 21.3437 88.1667 21.4062L88.1719 21.4115C88.3958 21.6198 88.599 21.8542 88.7656 22.1094C88.8177 22.1979 88.8698 22.2865 88.9167 22.3802C89.0625 22.651 89.1667 22.9479 89.2344 23.2656C89.2344 23.2656 89.2292 23.2656 89.2344 23.2708C89.2552 23.375 89.2708 23.4792 89.2812 23.5885C89.2969 23.7135 89.3073 23.8333 89.3073 23.9583Z" fill="#04585E"/>
<path d="M89.3074 23.958V30.0934H55.4636C55.4636 26.4893 58.3959 23.5674 62.0053 23.5674H88.9115C89.0365 23.5674 89.1615 23.5726 89.2813 23.5882C89.297 23.7132 89.3074 23.833 89.3074 23.958Z" fill="#056674"/>
<path d="M76.4427 25.3021C76.4427 25.5417 76.401 25.7708 76.3073 25.9948C76.2135 26.2135 76.0833 26.4115 75.9167 26.5781C75.7448 26.75 75.5521 26.8802 75.3281 26.9688C75.1094 27.0625 74.875 27.1094 74.6354 27.1094C74.3958 27.1094 74.1667 27.0625 73.9427 26.9688C73.724 26.8802 73.526 26.75 73.3594 26.5781C73.1875 26.4115 73.0573 26.2135 72.9688 25.9948C72.875 25.7708 72.8281 25.5417 72.8281 25.3021C72.8281 25.0625 72.875 24.8333 72.9688 24.6146C73.0573 24.3906 73.1875 24.1979 73.3594 24.0312C73.526 23.8594 73.724 23.7292 73.9427 23.6354C74.1667 23.5469 74.3958 23.5 74.6354 23.5C74.875 23.5 75.1094 23.5469 75.3281 23.6354C75.5521 23.7292 75.7448 23.8594 75.9167 24.0312C76.0833 24.1979 76.2135 24.3906 76.3073 24.6146C76.401 24.8333 76.4427 25.0625 76.4427 25.3021Z" fill="#FF4B5C"/>
<path d="M81.8697 25.3021C81.8697 25.5417 81.828 25.7708 81.7343 25.9948C81.6405 26.2135 81.5103 26.4115 81.3437 26.5781C81.1718 26.75 80.9791 26.8802 80.7551 26.9688C80.5364 27.0625 80.302 27.1094 80.0624 27.1094C79.8228 27.1094 79.5937 27.0625 79.3697 26.9688C79.151 26.8802 78.953 26.75 78.7864 26.5781C78.6145 26.4115 78.4843 26.2135 78.3905 25.9948C78.302 25.7708 78.2551 25.5417 78.2551 25.3021C78.2551 25.0625 78.302 24.8333 78.3905 24.6146C78.4843 24.3906 78.6145 24.1979 78.7864 24.0312C78.953 23.8594 79.151 23.7292 79.3697 23.6354C79.5937 23.5469 79.8228 23.5 80.0624 23.5C80.302 23.5 80.5364 23.5469 80.7551 23.6354C80.9791 23.7292 81.1718 23.8594 81.3437 24.0312C81.5103 24.1979 81.6405 24.3906 81.7343 24.6146C81.828 24.8333 81.8697 25.0625 81.8697 25.3021Z" fill="#FFC12D"/>
<path d="M87.297 25.3021C87.297 25.5417 87.2501 25.7708 87.1615 25.9948C87.0678 26.2135 86.9376 26.4115 86.7709 26.5781C86.599 26.75 86.4011 26.8802 86.1824 26.9688C85.9584 27.0625 85.7292 27.1094 85.4897 27.1094C85.2501 27.1094 85.0209 27.0625 84.797 26.9688C84.5782 26.8802 84.3803 26.75 84.2136 26.5781C84.0417 26.4115 83.9115 26.2135 83.8178 25.9948C83.7292 25.7708 83.6824 25.5417 83.6824 25.3021C83.6824 25.0625 83.7292 24.8333 83.8178 24.6146C83.9115 24.3906 84.0417 24.1979 84.2136 24.0312C84.3803 23.8594 84.5782 23.7292 84.797 23.6354C85.0209 23.5469 85.2501 23.5 85.4897 23.5C85.7292 23.5 85.9584 23.5469 86.1824 23.6354C86.4011 23.7292 86.599 23.8594 86.7709 24.0312C86.9376 24.1979 87.0678 24.3906 87.1615 24.6146C87.2501 24.8333 87.297 25.0625 87.297 25.3021Z" fill="#FF4B5C"/>
<path d="M65.5624 40.9066C65.3437 40.9066 65.1353 40.8232 64.9843 40.667L63.5364 39.2243C63.2187 38.9066 63.2187 38.3962 63.5364 38.0785C63.8541 37.7607 64.3697 37.7607 64.6874 38.0785L65.5624 38.943L68.1249 36.3857C68.4426 36.068 68.9583 36.068 69.276 36.3857C69.5937 36.7035 69.5937 37.2191 69.276 37.5368L66.1353 40.667C65.9843 40.8232 65.776 40.9066 65.5624 40.9066Z" fill="#2D2D2D"/>
<path d="M65.5624 66.4378C65.3437 66.4378 65.1353 66.3545 64.9843 66.2035L63.5364 64.7555C63.2187 64.4378 63.2187 63.9274 63.5364 63.6097C63.8541 63.292 64.3697 63.292 64.6874 63.6097L65.5624 64.4743L68.1249 61.917C68.4426 61.5993 68.9583 61.5993 69.276 61.917C69.5937 62.2347 69.5937 62.7503 69.276 63.068L66.1353 66.2035C65.9843 66.3545 65.776 66.4378 65.5624 66.4378Z" fill="#2D2D2D"/>
</svg>
