<svg width="48" height="48" viewBox="0 0 48 48" fill="none" xmlns="http://www.w3.org/2000/svg">
<mask id="mask0_2482_10277" style="mask-type:luminance" maskUnits="userSpaceOnUse" x="0" y="0" width="48" height="48">
<path d="M0.145874 0H47.1459V47.5938H0.145874V0Z" fill="white"/>
</mask>
<g mask="url(#mask0_2482_10277)">
<path d="M0.510387 44.8542L4.46351 27.724C4.61976 26.9948 5.24476 26.4219 6.02601 26.3178L28.1562 24.0261C28.7812 23.974 28.7812 23.0365 28.1562 22.9323L6.02601 20.8021C5.24476 20.75 4.61976 20.1771 4.46351 19.448L0.510387 2.36984C0.145805 0.911506 1.7031 -0.286411 3.05726 0.390673L46.3281 22.0521C47.6302 22.724 47.6302 24.599 46.3281 25.2761L3.05726 46.8334C1.7031 47.5105 0.145805 46.3125 0.510387 44.8542Z" fill="#8C52FF"/>
</g>
</svg>
