<svg width="35" height="23" viewBox="0 0 35 23" fill="none" xmlns="http://www.w3.org/2000/svg">
<mask id="mask0_2482_10319" style="mask-type:luminance" maskUnits="userSpaceOnUse" x="0" y="0" width="35" height="23">
<path d="M0.807373 0.807251H34.8074V22.8073H0.807373V0.807251Z" fill="white"/>
</mask>
<g mask="url(#mask0_2482_10319)">
<path d="M34.6876 6.27081C34.6824 6.07289 34.6095 5.88539 34.4688 5.74477L29.9584 1.19789C29.6616 0.906226 29.1876 0.901018 28.8907 1.19268L18.0626 11.9323L7.32302 1.10935C7.02614 0.807269 6.54697 0.807268 6.25531 1.09893L1.70843 5.60935C1.41156 5.90623 1.40635 6.38539 1.70322 6.67706L17.4845 22.5885C17.7813 22.8854 18.2553 22.8854 18.5522 22.5937L34.4636 6.81248C34.6095 6.67185 34.6876 6.47394 34.6876 6.27081Z" fill="white"/>
</g>
</svg>
