<svg width="50" height="50" viewBox="0 0 48 48" fill="none" xmlns="http://www.w3.org/2000/svg">
<mask id="mask0_2482_10282" style="mask-type:luminance" maskUnits="userSpaceOnUse" x="0" y="0" width="48" height="48">
<path d="M0.380188 0.052124H47.3802V47.0521H0.380188V0.052124Z" fill="white"/>
</mask>
<g mask="url(#mask0_2482_10282)">
<path d="M23.9375 0.052124C10.9844 0.052124 0.380188 10.6511 0.380188 23.6042C0.380188 36.5625 10.9844 47.1615 23.9375 47.1615C36.8906 47.1615 47.4896 36.5625 47.4896 23.6042C47.4896 10.6511 36.8906 0.052124 23.9375 0.052124ZM33.3594 25.9584H26.2916V33.0261C26.2916 34.4427 25.3489 35.3802 23.9375 35.3802C22.526 35.3802 21.5833 34.4427 21.5833 33.0261V25.9584H14.5156C13.1041 25.9584 12.1614 25.0209 12.1614 23.6042C12.1614 22.1927 13.1041 21.25 14.5156 21.25H21.5833V14.1823C21.5833 12.7709 22.526 11.8282 23.9375 11.8282C25.3489 11.8282 26.2916 12.7709 26.2916 14.1823V21.25H33.3594C34.7708 21.25 35.7135 22.1927 35.7135 23.6042C35.7135 25.0209 34.7708 25.9584 33.3594 25.9584Z" fill="#A6A6A6"/>
</g>
</svg>
