<svg width="20" height="20" viewBox="0 0 20 20" fill="none" xmlns="http://www.w3.org/2000/svg">
<path d="M15.5521 16.724L17.5938 18.7656C17.8333 19.0052 18.151 19.1354 18.4844 19.1354C18.8177 19.1354 19.1354 19.0052 19.375 18.7656C19.8646 18.2761 19.8646 17.4792 19.375 16.9844L17.3281 14.9375C17.2135 14.8281 17.0312 14.8177 16.9115 14.9167L15.8333 13.8386C16.3125 13.099 16.599 12.2188 16.599 11.2708V4.34897C16.599 3.58855 16.0521 2.94793 15.3385 2.80209V1.19793C15.3385 0.682302 14.9115 0.255219 14.3958 0.255219H3.0625C2.54687 0.255219 2.11979 0.682302 2.11979 1.19793V2.80209C1.40625 2.94793 0.859375 3.58855 0.859375 4.34897V13.7865C0.859375 14.6563 1.56771 15.3594 2.4375 15.3594H6.75521L6.28125 17.25H5.26562C4.39583 17.25 3.69271 17.9531 3.69271 18.8229C3.69271 18.9948 3.83333 19.1354 4.01042 19.1354H13.4479C13.625 19.1354 13.7656 18.9948 13.7656 18.8229C13.7656 17.9531 13.0625 17.25 12.1927 17.25H11.1771L10.8333 15.8698C11.1667 15.9479 11.5156 15.9896 11.875 15.9896C12.8229 15.9896 13.7031 15.7083 14.4427 15.2292L15.5208 16.3021C15.4271 16.4323 15.4375 16.6094 15.5521 16.724ZM17.1094 15.6094L18.9271 17.4271C19.1719 17.6719 19.1719 18.0729 18.9271 18.3177C18.8125 18.4375 18.6563 18.5052 18.4844 18.5052C18.3177 18.5052 18.1563 18.4375 18.0417 18.3177L16.2188 16.5L17.1094 15.6094ZM15.3385 3.45834C15.7031 3.58855 15.9688 3.93751 15.9688 4.34897V8.91668C15.7917 8.60939 15.5781 8.32293 15.3385 8.06251V3.45834ZM2.75 1.19793C2.75 1.02605 2.89063 0.885427 3.0625 0.885427H14.3958C14.5677 0.885427 14.7083 1.02605 14.7083 1.19793V2.77084H2.75V1.19793ZM8.09896 7.17709H9.52604C9.21875 7.35418 8.93229 7.56772 8.67188 7.8073H8.09896C7.92708 7.8073 7.78646 7.94793 7.78646 8.12501C7.78646 8.29689 7.92708 8.43751 8.09896 8.43751H8.10417C7.81771 8.81251 7.58854 9.23959 7.42708 9.69793H6.83854C6.66667 9.69793 6.52604 9.83855 6.52604 10.0104C6.52604 10.1823 6.66667 10.3229 6.83854 10.3229H7.25C7.20833 10.5313 7.17708 10.7448 7.16667 10.9531H4.64062V3.40105H14.7083V7.4948C13.9167 6.90105 12.9375 6.54689 11.875 6.54689C11.3229 6.54689 10.7969 6.64584 10.2969 6.82293C10.2813 6.66668 10.1458 6.54689 9.98958 6.54689H8.09896C7.92708 6.54689 7.78646 6.69272 7.78646 6.86459C7.78646 7.03647 7.92708 7.17709 8.09896 7.17709ZM2.75 3.40105H4.01042V10.9531H3.0625C2.89063 10.9531 2.75 10.8125 2.75 10.6406V3.40105ZM1.48958 4.34897C1.48958 3.93751 1.75521 3.58855 2.11979 3.45834V10.6406C2.11979 11.1615 2.54687 11.5833 3.0625 11.5833H7.16667C7.18229 11.7969 7.20833 12.0104 7.25 12.2136H1.48958V4.34897ZM2.4375 14.7292C1.91667 14.7292 1.48958 14.3073 1.48958 13.7865V12.8438H7.42708C7.6875 13.5729 8.11458 14.2136 8.67188 14.7292H2.4375ZM9.52604 15.3594C9.71875 15.474 9.92188 15.5729 10.1302 15.6563L10.526 17.25H6.92708L7.40104 15.3594H9.52604ZM12.1927 17.8802C12.599 17.8802 12.9479 18.1406 13.0781 18.5052H4.38021C4.51042 18.1406 4.85937 17.8802 5.26562 17.8802H12.1927ZM11.875 15.3594C9.61979 15.3594 7.78646 13.5261 7.78646 11.2708C7.78646 9.01564 9.61979 7.17709 11.875 7.17709C14.1302 7.17709 15.9688 9.01564 15.9688 11.2708C15.9688 13.5261 14.1302 15.3594 11.875 15.3594ZM14.9531 14.8438C15.1302 14.6927 15.2969 14.5261 15.4531 14.3438L16.4688 15.3594L15.9688 15.8594L14.9531 14.8438Z" fill="white"/>
</svg>
