<svg width="157" height="146" viewBox="0 0 157 146" fill="none" xmlns="http://www.w3.org/2000/svg">
<path d="M67.4948 87.057C67.4948 87.057 75.0938 94.5882 73.8125 100.703L55.1458 105.338L47.7656 96.7132C47.7656 96.7445 64.9271 86.5414 67.4948 87.057Z" fill="#FCD8C3"/>
<path d="M123.396 84.547C123.396 84.547 128.047 93.2033 126.667 99.0314L113.354 100.61L108.932 90.922C108.963 90.922 121.63 83.6147 123.396 84.547Z" fill="#FCD8C3"/>
<path d="M96.745 69.1982C96.745 69.1982 116.146 92.3701 115.281 128.032C115.281 128.032 96.4533 132.761 62.4897 126.386C62.4897 126.386 65.0887 85.0003 78.7814 70.8076C78.7814 70.8076 87.0262 73.443 96.745 69.1982Z" fill="#727FD3"/>
<path d="M96.87 69.5157C96.87 69.5157 113.771 62.2136 124.198 85.1927C124.198 85.1927 115.25 88.2188 109.349 93.0105C109.349 93.0469 94.4013 77.2396 96.87 69.5157Z" fill="#7989D8"/>
<path d="M86.3175 70.0989C86.3175 70.0989 68.7134 64.6562 60.854 88.6354C60.854 88.6354 70.0884 90.6927 76.4738 94.8489C76.4425 94.8125 89.5884 77.5 86.3175 70.0989Z" fill="#727FD3"/>
<path d="M123.266 105.084C123.266 105.084 105.885 110.136 78.0469 101.318L82.5 93.9482C82.5 93.9482 110.599 99.0003 125.927 91.792C125.896 91.8232 129.745 99.3545 123.266 105.084Z" fill="#FCD8C3"/>
<path d="M79.3283 101.542C79.3283 101.542 67.8752 102.891 70.4116 99.7086C70.4116 99.7086 77.6252 98.7086 81.2189 99.193L79.3283 101.542Z" fill="#FCD8C3"/>
<path d="M79.9688 99.3857C79.9688 99.3857 66.5938 98.7712 70.2188 95.5889C70.2188 95.5889 78.6876 95.8128 82.6303 97.068L79.9688 99.3857Z" fill="#FCD8C3"/>
<path d="M80.4168 96.7764C80.4168 96.7764 63.4845 94.266 70.6668 92.9795C70.6668 92.9795 79.1355 93.2035 83.0782 94.4587L80.4168 96.7764Z" fill="#FCD8C3"/>
<path d="M80.1927 95.234C80.1927 95.234 67.3021 91.9476 71.6302 89.5674C71.6302 89.5674 79.8073 91.4684 83.3698 93.4945L80.1927 95.234Z" fill="#FCD8C3"/>
<path d="M84.7135 94.4951C84.7135 94.4951 81.1874 89.8597 79.6458 88.1514C79.6458 88.1514 77.4999 88.3128 79.9374 93.6878C79.9374 93.6878 79.6822 95.266 84.7135 94.4951Z" fill="#FCD8C3"/>
<path d="M99.8231 69.9689C99.8231 69.9689 115.505 67.5522 121.729 83.7137L110.469 88.7658C110.469 88.7658 106.844 86.0939 105.276 81.9741L108 77.6304C108 77.6304 103.511 78.6564 102.839 81.0418L95.4897 79.0783L99.5002 74.1512L99.8231 69.9689Z" fill="#727FD3"/>
<path d="M85.229 67.2347L85.7394 74.667C85.8696 76.2764 89.6873 77.3076 94.3071 76.9847C98.9217 76.6618 102.578 75.0837 102.453 73.5107L101.937 66.0732L85.229 67.2347Z" fill="#FAC09F"/>
<path d="M17.5575 13.5156H36.3804C39.4637 13.5156 41.9325 16.026 41.9325 19.0833V35.0469C41.9325 38.1354 39.4272 40.6146 36.3804 40.6146H33.9116C33.0783 40.6146 32.4064 41.2917 32.4064 42.1302V46.151C32.4064 47.0521 31.3491 47.5052 30.7033 46.8594L24.771 41.0365C24.4845 40.776 24.1304 40.6146 23.7137 40.6146H17.5575C14.4793 40.6146 12.0054 38.1042 12.0054 35.0469V19.1146C12.0054 16.026 14.5106 13.5156 17.5575 13.5156Z" fill="#FCEC45"/>
<path d="M16.9165 28.7087V27.7764L24.1613 24.1045V25.3285L18.2603 28.2243V28.2555L24.1613 31.1566V32.3753L16.9165 28.7087Z" fill="#231F20"/>
<path d="M26.3438 32.9893H25.1875L29.0677 21.7549H30.224L26.3438 32.9893Z" fill="#231F20"/>
<path d="M38.401 27.7087V28.7399L31.1562 32.3753V31.1566L37.1823 28.2555V28.2243L31.1562 25.3285V24.1045L38.401 27.7087Z" fill="#231F20"/>
<mask id="mask0_2482_10363" style="mask-type:luminance" maskUnits="userSpaceOnUse" x="0" y="107" width="157" height="12">
<path d="M0.333496 107.667H156.302V118.334H0.333496V107.667Z" fill="white"/>
</mask>
<g mask="url(#mask0_2482_10363)">
<path d="M145.396 107.912L155.854 117.891H0.781494L6.01066 108.881L145.396 107.912Z" fill="#AF9877"/>
</g>
<mask id="mask1_2482_10363" style="mask-type:luminance" maskUnits="userSpaceOnUse" x="3" y="118" width="146" height="28">
<path d="M3 118.333H148.333V145.479H3V118.333Z" fill="white"/>
</mask>
<g mask="url(#mask1_2482_10363)">
<path d="M147.839 145.343H3.60938V119.177H147.839V145.343Z" fill="#776C68"/>
</g>
<mask id="mask2_2482_10363" style="mask-type:luminance" maskUnits="userSpaceOnUse" x="0" y="117" width="157" height="4">
<path d="M0.302246 117H156.302V121H0.302246V117Z" fill="white"/>
</mask>
<g mask="url(#mask2_2482_10363)">
<path d="M1.5835 120.531H155.016C155.724 120.531 156.302 119.953 156.302 119.245V119.177C156.302 118.469 155.724 117.891 155.016 117.891H1.5835C0.880371 117.891 0.302246 118.469 0.302246 119.177V119.245C0.302246 119.953 0.880371 120.531 1.5835 120.531Z" fill="#807976"/>
</g>
<path d="M113.422 59.8281C113.422 59.8281 115.474 60.2188 118.266 57.0938C121.052 53.974 115.089 51.0781 115.089 51.0781L113.422 59.8281Z" fill="#FCD8C3"/>
<path d="M75.4479 53.1667C75.4479 53.6198 75.4062 54.0625 75.3229 54.5052C75.2448 54.9479 75.125 55.375 74.9635 55.7917C74.8073 56.2083 74.6146 56.6042 74.3802 56.9792C74.151 57.349 73.8906 57.6979 73.5938 58.0156C73.3021 58.3333 72.9844 58.6198 72.6406 58.8698C72.2917 59.1198 71.9271 59.3281 71.5469 59.5C71.1615 59.6719 70.7656 59.8021 70.3594 59.8906C69.9531 59.9792 69.5417 60.0208 69.1302 60.0208C68.7135 60.0208 68.3021 59.9792 67.8958 59.8906C67.4896 59.8021 67.0937 59.6719 66.7083 59.5C66.3281 59.3281 65.9635 59.1198 65.6198 58.8698C65.2708 58.6198 64.9531 58.3333 64.6615 58.0156C64.3698 57.6979 64.1042 57.349 63.875 56.9792C63.6458 56.6042 63.4479 56.2083 63.2917 55.7917C63.1302 55.375 63.0104 54.9479 62.9323 54.5052C62.849 54.0625 62.8125 53.6198 62.8125 53.1667C62.8125 52.7187 62.849 52.2708 62.9323 51.8281C63.0104 51.3906 63.1302 50.9583 63.2917 50.5469C63.4479 50.1302 63.6458 49.7344 63.875 49.3594C64.1042 48.9844 64.3698 48.6406 64.6615 48.3229C64.9531 48 65.2708 47.7188 65.6198 47.4688C65.9635 47.2188 66.3281 47.0052 66.7083 46.8333C67.0937 46.6615 67.4896 46.5313 67.8958 46.4427C68.3021 46.3542 68.7135 46.3125 69.1302 46.3125C69.5417 46.3125 69.9531 46.3542 70.3594 46.4427C70.7656 46.5313 71.1615 46.6615 71.5469 46.8333C71.9271 47.0052 72.2917 47.2188 72.6406 47.4688C72.9844 47.7188 73.3021 48 73.5938 48.3229C73.8906 48.6406 74.151 48.9844 74.3802 49.3594C74.6146 49.7344 74.8073 50.1302 74.9635 50.5469C75.125 50.9583 75.2448 51.3906 75.3229 51.8281C75.4062 52.2708 75.4479 52.7187 75.4479 53.1667Z" fill="#EEC6B5"/>
<path d="M126.057 49.0156C126.057 53.2656 122.339 57.5468 118.807 57.5468C115.25 57.5468 112.396 54.0989 112.396 49.8541C112.396 45.6041 115.281 42.1614 118.807 42.1614C122.37 42.1302 126.057 44.7656 126.057 49.0156Z" fill="#EEC6B5"/>
<path d="M115.057 59.2188C117.141 56.7083 116.37 52.1719 116.531 47.2135C116.594 45.3125 117.557 43.6094 118.807 42.1302C118.583 27.1615 108.516 16.125 91.8333 16.125C75 16.125 67.7812 26.3281 67.7812 41.5156C67.7812 49.724 68.7448 62.1458 70.4427 63.5938C78.5885 70.4531 82.8854 70.4531 90.6146 70.4531C100.625 70.4531 109.505 66.1042 115.089 59.3802C115.026 59.3177 115.057 59.2813 115.057 59.2188Z" fill="#FCD8C3"/>
<path d="M115.057 59.3802C115.057 59.3177 115.057 59.2812 115.057 59.2188C115.057 59.2812 115.026 59.3177 115.057 59.3802Z" stroke="#FCD8C3" stroke-width="0.321284" stroke-miterlimit="10"/>
<path d="M79.8384 35.7865C79.8384 35.7865 79.7759 35.7552 79.6821 35.724C79.5832 35.6927 79.4217 35.625 79.1978 35.5625C79.005 35.4687 78.7498 35.3698 78.4946 35.2396C78.2342 35.1146 77.9478 34.9844 77.6248 34.8229C77.3071 34.6615 76.9842 34.5 76.6353 34.3698C76.4738 34.276 76.2811 34.2135 76.0884 34.1458C75.9894 34.1146 75.8957 34.0833 75.7967 34.0521C75.703 34.0208 75.6092 33.9844 75.5103 33.9531C75.1248 33.8229 74.7707 33.7604 74.3905 33.7292C74.2915 33.7292 74.1978 33.7292 74.0988 33.6979C74.005 33.6979 73.9061 33.6979 73.8123 33.6979C73.7134 33.6979 73.6196 33.7292 73.5207 33.7292H73.3644C73.3644 33.7292 73.4269 33.7292 73.3957 33.7292H73.3644L73.2655 33.7604H73.1353C73.104 33.7604 73.0728 33.7604 73.0415 33.7917L72.9113 33.8229L72.7863 33.8594C72.6248 33.9219 72.4634 34.0208 72.3019 34.1146C71.9842 34.3073 71.6613 34.5313 71.3748 34.7917C70.7967 35.3073 70.3175 35.9167 69.9634 36.4635C69.7707 36.7552 69.6405 37.0104 69.5155 37.2708C69.3853 37.526 69.3228 37.75 69.2238 37.9427C69.1613 38.1354 69.13 38.2969 69.0988 38.3958C69.0623 38.526 69.0623 38.5573 69.0623 38.5573C69.0623 38.5573 69.0311 38.4896 68.9998 38.3958C68.9686 38.2969 68.9061 38.1042 68.8696 37.9115C68.8384 37.6875 68.8071 37.4323 68.8071 37.1094C68.8071 36.7865 68.8696 36.4323 68.9686 36.0469C69.0623 35.6615 69.1925 35.276 69.4165 34.8542C69.6092 34.4375 69.8644 34.0521 70.1873 33.6667C70.505 33.276 70.8905 32.8906 71.3436 32.6042C71.7915 32.2813 72.3332 32.0208 72.9425 31.8958H73.1717L73.3957 31.8594L73.6196 31.8281C73.6509 31.8281 73.6821 31.8281 73.7134 31.8281H73.8123C73.9373 31.8281 74.0988 31.8281 74.229 31.8281C74.354 31.8281 74.5155 31.8594 74.6457 31.8958C75.1925 31.9896 75.703 32.151 76.1509 32.375C76.2811 32.4427 76.3748 32.474 76.4738 32.5365C76.5675 32.6042 76.6978 32.6667 76.7915 32.7292C76.9842 32.8594 77.1769 32.9896 77.3384 33.1146C77.6925 33.375 77.979 33.6667 78.2394 33.9219C78.3644 34.0521 78.4946 34.1771 78.5884 34.3073C78.6873 34.4375 78.8123 34.5313 78.9113 34.6615C79.104 34.8854 79.2655 35.0781 79.3905 35.2396C79.5207 35.401 79.6144 35.5313 79.7134 35.625C79.7759 35.7552 79.8384 35.7865 79.8384 35.7865Z" fill="#443F4F"/>
<path d="M93.6981 33.3745C93.6981 33.3745 93.6981 33.312 93.6616 33.2131C93.6616 33.1818 93.6304 33.1141 93.6304 33.0516C93.6304 33.0204 93.6304 32.9891 93.6304 32.9579C93.6304 32.9214 93.6304 32.8589 93.6304 32.8277C93.6304 32.7287 93.6304 32.635 93.6304 32.5047C93.6304 32.411 93.6616 32.2808 93.6981 32.1506C93.7293 32.0204 93.7606 31.8954 93.7918 31.7652C93.8231 31.635 93.922 31.4735 93.9845 31.3485C94.146 31.0568 94.3075 30.7339 94.5627 30.4787C94.8179 30.187 95.1095 29.9318 95.4272 29.6714C95.7502 29.4162 96.1356 29.2235 96.5158 29.062C96.9012 28.9006 97.3543 28.7704 97.771 28.7079C98.1877 28.6454 98.6356 28.6089 99.0522 28.6454C99.4689 28.6766 99.8856 28.7391 100.302 28.8693C100.688 28.9995 101.073 29.1558 101.391 29.3485C101.552 29.4475 101.714 29.5464 101.844 29.6714C101.906 29.7391 101.969 29.8016 102.037 29.8329C102.099 29.9006 102.162 29.9631 102.229 29.9943C102.323 30.1245 102.453 30.2183 102.516 30.3485C102.61 30.4787 102.677 30.5725 102.74 30.7027C102.802 30.8329 102.87 30.9266 102.901 31.0256C102.932 31.1193 102.964 31.2183 102.995 31.312C102.995 31.3485 103.031 31.411 103.031 31.4422C103.031 31.4735 103.063 31.51 103.063 31.5412C103.063 31.6037 103.094 31.6662 103.094 31.7027C103.094 31.7964 103.125 31.8589 103.125 31.8589C103.125 31.8589 103.094 31.8277 102.995 31.7652C102.932 31.7027 102.839 31.6037 102.677 31.51C102.61 31.4735 102.547 31.411 102.453 31.3485C102.354 31.2808 102.292 31.2495 102.193 31.187C102.099 31.1193 102 31.0881 101.906 31.0256C101.813 30.9579 101.682 30.9266 101.583 30.8641C101.458 30.8329 101.328 30.7652 101.203 30.7339C101.073 30.7027 100.943 30.6402 100.818 30.6402C100.557 30.5725 100.24 30.5412 99.9481 30.51C99.6616 30.4787 99.3387 30.4787 99.021 30.4787C98.6981 30.4787 98.3804 30.5412 98.0575 30.5725C97.7345 30.6402 97.4168 30.7027 97.1252 30.8016C97.0627 30.8329 96.9689 30.8641 96.9012 30.8641L96.7762 30.8954L96.6772 30.9266C96.6147 30.9579 96.5158 30.9943 96.4533 31.0256C96.3908 31.0568 96.3283 31.0881 96.2293 31.1193C95.9429 31.2495 95.6825 31.3797 95.4585 31.5412C95.2033 31.7027 95.0106 31.8589 94.8179 32.0204C94.7241 32.1193 94.6252 32.1818 94.5627 32.2808C94.4637 32.3745 94.4012 32.4422 94.3387 32.536C94.271 32.635 94.2085 32.6975 94.146 32.7652C94.0783 32.8277 94.047 32.9214 93.9845 32.9891C93.922 33.0516 93.8908 33.1141 93.8543 33.1818C93.8231 33.2443 93.7918 33.2756 93.7606 33.3433C93.7293 33.312 93.6981 33.3745 93.6981 33.3745Z" fill="#443F4F"/>
<path d="M65.8228 53.7451C65.8228 53.7451 65.8905 53.7451 65.9842 53.7451C66.0155 53.7451 66.0832 53.7451 66.1457 53.7816C66.1769 53.7816 66.2082 53.8128 66.2394 53.8128C66.2759 53.8128 66.3071 53.8441 66.3696 53.8441C66.4321 53.8753 66.5311 53.9066 66.6248 53.943C66.7238 53.9743 66.7863 54.0368 66.8853 54.0993C66.979 54.167 67.0415 54.2295 67.1405 54.2972C67.2342 54.3597 67.3019 54.4535 67.3644 54.5212C67.4269 54.5837 67.5259 54.6826 67.5884 54.7451C67.6509 54.8076 67.7186 54.9066 67.7811 54.9691C67.9113 55.1305 68.005 55.292 68.0675 55.4222C68.1665 55.5524 68.229 55.6774 68.2603 55.7451C68.2967 55.8389 68.328 55.8701 68.328 55.8701C68.328 55.8701 68.2603 55.8389 68.1978 55.8076C68.104 55.7764 68.005 55.7087 67.8436 55.6149C67.5884 55.4222 67.2655 55.1305 66.979 54.8441C66.9165 54.7764 66.8488 54.6826 66.7863 54.6149C66.7238 54.5524 66.6561 54.4899 66.5936 54.391C66.5311 54.3285 66.4686 54.2607 66.4009 54.1982C66.3384 54.1357 66.2759 54.068 66.2394 54.0368C66.1769 53.9743 66.1457 53.943 66.0832 53.9066C66.0467 53.8753 65.9842 53.8128 65.953 53.7816C65.8592 53.7816 65.8228 53.7451 65.8228 53.7451Z" fill="#F48A8B"/>
<path d="M120.25 49.0781C120.25 49.0781 120.187 49.1458 120.057 49.2396C119.995 49.276 119.932 49.3385 119.864 49.401C119.833 49.4323 119.802 49.4687 119.739 49.5C119.708 49.5313 119.64 49.5625 119.609 49.6302C119.515 49.6927 119.417 49.7865 119.323 49.8854C119.224 49.9792 119.13 50.0781 119 50.1771C118.937 50.2396 118.906 50.2708 118.838 50.3333C118.776 50.401 118.745 50.4323 118.682 50.4948C118.614 50.5625 118.583 50.5937 118.521 50.6562C118.453 50.724 118.422 50.7865 118.359 50.8177C118.265 50.9479 118.167 51.0417 118.073 51.1719C117.974 51.3021 117.88 51.4323 117.812 51.526C117.75 51.6563 117.656 51.75 117.588 51.8802C117.557 51.9427 117.526 52.0104 117.495 52.0417C117.463 52.1042 117.427 52.1406 117.396 52.2031C117.333 52.2969 117.302 52.3958 117.234 52.4896C117.203 52.526 117.203 52.5885 117.172 52.6198C117.14 52.651 117.14 52.6875 117.109 52.7188C117.047 52.8438 117.01 52.9115 117.01 52.9115C117.01 52.9115 117.01 52.8125 117.01 52.6875C117.01 52.651 117.01 52.6198 117.01 52.5573C117.01 52.526 117.01 52.4583 117.047 52.4271C117.047 52.3646 117.078 52.3333 117.078 52.2656C117.078 52.2031 117.109 52.1406 117.109 52.0729C117.14 52.0104 117.14 51.9427 117.172 51.8802C117.203 51.8177 117.203 51.75 117.239 51.6875C117.271 51.5573 117.364 51.3958 117.427 51.2708C117.463 51.2031 117.495 51.1406 117.557 51.0417C117.588 50.9792 117.656 50.9167 117.687 50.8177C117.781 50.6875 117.88 50.5313 118.005 50.401C118.135 50.2708 118.229 50.1406 118.359 50.0469C118.489 49.9167 118.614 49.8229 118.745 49.724C118.807 49.6615 118.875 49.6302 118.937 49.5938C119 49.5625 119.068 49.5 119.13 49.4688C119.255 49.401 119.385 49.3385 119.484 49.276C119.547 49.2396 119.609 49.2083 119.64 49.2083C119.708 49.1771 119.739 49.1771 119.802 49.1458C119.901 49.1146 119.995 49.0781 120.057 49.0469C120.187 49.0781 120.25 49.0781 120.25 49.0781Z" fill="#F48A8B"/>
<mask id="mask3_2482_10363" style="mask-type:luminance" maskUnits="userSpaceOnUse" x="55" y="0" width="72" height="54">
<path d="M55 0.479492H127V53.0003H55V0.479492Z" fill="white"/>
</mask>
<g mask="url(#mask3_2482_10363)">
<path d="M126.188 23.1723C126.057 21.115 125.063 19.3442 123.589 17.9587C122.078 16.5733 120.542 16.8025 121.375 14.7087C122.24 12.615 122.912 10.365 122.531 8.14103C122.177 5.92228 120.474 3.76603 118.229 3.54207C118.136 3.54207 118.005 3.54207 117.943 3.60457C117.88 3.66707 117.88 3.76603 117.912 3.85978C118.037 5.08374 118.229 6.33895 118.167 7.56291C118.136 8.07853 117.141 10.9744 117.302 11.1983C116.307 9.71916 115.151 8.3702 113.87 7.17749C109.859 3.44312 104.474 1.15666 98.573 1.15666C97.8334 1.15666 97.0939 1.19312 96.3907 1.25562C94.8491 0.901449 93.2814 0.73999 91.6407 0.73999C83.5939 0.73999 76.2189 5.3077 72.4011 12.3598C73.1355 11.0056 67.0105 13.0994 66.5939 13.391C64.2553 14.8702 62.3595 16.865 60.3386 18.7296C58.7345 20.2452 56.3647 21.5317 55.5939 23.7192C54.3751 27.1619 56.0418 32.6358 56.7501 36.0785C58.0314 42.3858 60.6303 45.9275 65.6303 49.8233C66.948 50.8494 67.6511 51.9796 68.5834 51.7869C68.5834 51.2348 68.3907 48.339 68.3595 47.7921C68.0678 44.9952 68.0366 42.1931 68.0366 39.3598C68.0366 36.7556 68.7136 34.3077 69.8647 32.1827C70.9897 35.0785 72.6251 38.0733 74.8699 39.0733C74.8699 39.0733 74.422 37.5265 74.0053 35.4015C74.0366 35.4327 74.0678 35.5004 74.0991 35.5317C73.9376 34.9848 73.8439 34.4067 73.8439 33.8233C73.8126 33.6983 73.8126 33.5369 73.8439 33.4067C73.172 30.3806 72.8491 26.4223 75.0939 24.266C79.0366 20.5317 85.6772 22.5942 91.6772 20.9535C97.7032 19.2764 101.203 18.6671 101.203 18.6671C101.203 18.6671 99.7553 36.9796 113.839 39.9067L113.901 43.0317L114.031 49.4692L115.474 49.8858C115.474 49.8858 116.245 45.4744 117.813 43.0942C119 42.9327 120.057 42.5785 121.021 42.0317C121.313 41.3546 121.599 40.7139 121.886 40.0369C121.984 39.8442 122.146 39.714 122.302 39.6515C123.396 36.5317 126.443 27.391 126.188 23.1723Z" fill="#5E606D"/>
</g>
<path d="M73.9062 25.651C73.9062 25.651 73.9375 25.5208 74.0365 25.3281C74.0677 25.2344 74.1302 25.1042 74.1615 24.9427C74.1979 24.7813 74.2917 24.6198 74.3906 24.3958C74.4219 24.2969 74.4844 24.2031 74.5156 24.0729C74.5781 23.9792 74.6146 23.849 74.6771 23.7188C74.7396 23.5885 74.7708 23.4948 74.8385 23.3646C74.901 23.2344 74.9635 23.1094 75.0312 22.9792C75.3177 22.4323 75.6406 21.8542 76.0885 21.2396C76.5052 20.6302 77.0156 19.9844 77.625 19.375C78.2344 18.7604 78.9115 18.151 79.6823 17.6354C79.875 17.5052 80.0625 17.3802 80.2917 17.25C80.4844 17.1198 80.7083 16.9948 80.901 16.8958C81.3177 16.6719 81.7656 16.4479 82.2135 16.25C82.6615 16.0573 83.1458 15.901 83.625 15.7396C83.849 15.6719 84.1042 15.6094 84.3281 15.5469L84.6823 15.4479L85.0365 15.3854C86.0313 15.1927 87.026 15.0625 87.9844 15.0312C88.2448 15.0312 88.4687 15.0312 88.724 15.0312C88.9792 15.0312 89.2031 15.0312 89.4635 15.0312C89.9427 15.0312 90.4219 15.0937 90.875 15.125C91.8021 15.224 92.6719 15.349 93.5052 15.5469C94.3385 15.7031 95.1094 15.9323 95.8125 16.125C96.5156 16.349 97.1615 16.5729 97.7031 16.7656C98.25 16.9948 98.7292 17.1875 99.1146 17.3802C99.5 17.5417 99.8229 17.7031 100.016 17.7969C100.208 17.8958 100.333 17.9583 100.333 17.9583C100.333 17.9583 100.208 17.9271 100.016 17.8281C99.7917 17.7656 99.4688 17.6354 99.0833 17.5052C98.6667 17.3802 98.1875 17.2187 97.6094 17.0573C97.0313 16.8958 96.3906 16.7344 95.6823 16.5729C95.3333 16.4792 94.9479 16.4115 94.5625 16.349C94.1771 16.2865 93.7917 16.1875 93.375 16.125C92.5417 15.9948 91.6771 15.901 90.776 15.8333C89.8802 15.7708 88.9479 15.7708 88.0208 15.8021C87.0885 15.8646 86.125 15.9635 85.1979 16.1562C84.2656 16.349 83.3385 16.6042 82.4688 16.9583C81.6042 17.3125 80.7708 17.7344 80.0312 18.2135C79.2969 18.6979 78.5885 19.2448 78.0104 19.7917C77.724 20.0833 77.4375 20.3698 77.1771 20.6302C77.0521 20.7604 76.9219 20.9167 76.7917 21.0469C76.6667 21.1771 76.5677 21.3385 76.4427 21.4688C75.9896 22.0469 75.6094 22.5625 75.2865 23.0781C75.224 23.2031 75.125 23.3333 75.0625 23.4271C75 23.5573 74.9323 23.6562 74.8698 23.7812C74.8073 23.8802 74.7396 24.0104 74.6771 24.1042C74.6146 24.2031 74.5781 24.2969 74.5156 24.3958C74.4219 24.5885 74.3229 24.75 74.2604 24.9115C74.1979 25.0729 74.1302 25.1979 74.0677 25.2969C73.9687 25.5521 73.9062 25.651 73.9062 25.651Z" fill="#2F365B"/>
<path d="M96.6146 10.9743C96.6146 10.9743 96.4531 10.9118 96.1354 10.8128C95.8125 10.7191 95.3333 10.5889 94.724 10.4274C94.1146 10.266 93.375 10.0732 92.5417 9.88053C91.6771 9.68783 90.7135 9.46387 89.6562 9.27116C88.599 9.07324 87.4427 8.91699 86.224 8.78678C85.0052 8.65658 83.7188 8.59408 82.375 8.59408C81.0573 8.59408 79.6823 8.71907 78.3333 8.97949C76.9844 9.27116 75.6406 9.71907 74.4844 10.4587C73.9063 10.8128 73.3594 11.2295 72.8802 11.7451C72.401 12.2295 71.9844 12.7764 71.6615 13.3545L71.5312 13.5837L71.5 13.6462V13.6774L71.4375 13.8076C71.375 13.9691 71.276 14.1305 71.2135 14.292C71.0521 14.6097 70.8906 14.9014 70.7344 15.2243C70.5729 15.5472 70.4427 15.8337 70.2812 16.1566C70.1562 16.4795 69.9948 16.766 69.8646 17.0576C69.7396 17.3493 69.6094 17.667 69.4792 17.9899C69.4167 18.1514 69.3542 18.2816 69.2865 18.443C69.2552 18.5055 69.224 18.6045 69.1927 18.667C69.1615 18.7295 69.1302 18.8285 69.0938 18.891C68.8698 19.5055 68.6458 20.0837 68.4844 20.6618C68.4531 20.8232 68.3906 20.9535 68.3594 21.1149C68.3281 21.1774 68.3281 21.2399 68.2969 21.3389C68.2604 21.4014 68.2604 21.5003 68.2292 21.5628C68.1667 21.8545 68.1042 22.141 68.0365 22.4014C68.0052 22.5264 67.974 22.6878 67.9427 22.818C67.9115 22.9482 67.875 23.1097 67.875 23.2347C67.8437 23.3649 67.8125 23.4951 67.8125 23.6566C67.8125 23.7816 67.7812 23.9118 67.7812 24.042C67.7812 24.1722 67.75 24.2972 67.75 24.4274C67.75 24.4899 67.75 24.5576 67.7188 24.6201C67.7188 24.6826 67.7188 24.7503 67.7188 24.8128C67.7188 25.0732 67.6875 25.3285 67.6875 25.5524C67.6875 25.8128 67.6875 26.0368 67.6875 26.2607C67.6875 26.3285 67.6875 26.391 67.6875 26.4222C67.6875 26.4899 67.6875 26.5524 67.6875 26.5837C67.6875 26.6826 67.7188 26.8076 67.7188 26.9066C67.7188 27.0003 67.75 27.1305 67.75 27.2295C67.75 27.3232 67.7812 27.4222 67.7812 27.5472C67.8125 27.7451 67.8125 27.9378 67.8438 28.1305C67.9115 28.516 67.9427 28.8389 68.0052 29.1566C68.1042 29.7712 68.1979 30.2555 68.2604 30.6045C68.3281 30.9274 68.3594 31.1201 68.3594 31.1201C68.3594 31.1201 68.3281 30.9587 68.2292 30.6045C68.1667 30.2868 68.0052 29.8024 67.875 29.193C67.7813 28.9014 67.7187 28.5472 67.6198 28.1618C67.5885 27.9691 67.5573 27.7764 67.4948 27.5837C67.4583 27.4847 67.4583 27.391 67.4271 27.2607C67.4271 27.1618 67.3958 27.0368 67.3958 26.9378C67.3958 26.8441 67.3646 26.7139 67.3646 26.6149C67.3646 26.5524 67.3646 26.4899 67.3333 26.4535C67.3333 26.391 67.3333 26.3285 67.3333 26.292C67.3021 26.068 67.3021 25.8128 67.2656 25.5524C67.2656 25.2972 67.2656 25.0368 67.2656 24.7816C67.2656 24.7191 67.2656 24.6514 67.2656 24.5889C67.2656 24.5264 67.2656 24.4587 67.2656 24.3962C67.2656 24.266 67.3021 24.1357 67.3021 23.9795C67.3021 23.8493 67.3333 23.6878 67.3333 23.5576C67.3333 23.4274 67.3646 23.2712 67.3958 23.141C67.4271 23.0107 67.4271 22.8493 67.4583 22.7243C67.4948 22.5941 67.4948 22.4326 67.526 22.2712C67.5885 21.9795 67.651 21.693 67.7188 21.4014C67.7188 21.3389 67.75 21.2399 67.75 21.1774C67.7813 21.1149 67.7813 21.016 67.8125 20.9535C67.8437 20.792 67.875 20.6618 67.9427 20.5003C68.1042 19.891 68.2969 19.2764 68.5208 18.667C68.5521 18.6045 68.5833 18.5055 68.5833 18.443C68.6146 18.3753 68.6458 18.2816 68.6771 18.2139C68.7448 18.0576 68.8073 17.8962 68.8698 17.766C69 17.443 69.1302 17.1201 69.2552 16.8337C69.3854 16.5107 69.5469 16.1878 69.6719 15.9014C69.8021 15.5785 69.9635 15.2555 70.0885 14.9326C70.25 14.6097 70.4115 14.3232 70.5417 14.0003C70.6042 13.8389 70.6979 13.6774 70.7656 13.516L70.8281 13.391L70.8594 13.3545L70.8906 13.3232L70.9271 13.2607L71.0521 13.0003C71.4063 12.3597 71.8542 11.7451 72.401 11.1982C72.9115 10.6514 73.5208 10.2035 74.1615 9.78158C75.4479 9.01074 76.8906 8.52637 78.3021 8.23991C79.0052 8.1097 79.7135 8.01595 80.4167 7.94824C81.125 7.88574 81.8281 7.88574 82.5 7.88574C83.8802 7.88574 85.1979 8.01595 86.4167 8.20866C87.6354 8.37012 88.7865 8.59407 89.849 8.84928C90.9063 9.07324 91.8698 9.36491 92.7031 9.58887C93.5365 9.84928 94.2708 10.0732 94.849 10.2972C95.4583 10.4899 95.9063 10.6826 96.2292 10.8128C96.4531 10.9118 96.6146 10.9743 96.6146 10.9743Z" fill="#443F4F"/>
<path d="M67.6873 15.224C67.5884 15.1927 67.4269 15.125 67.3019 15.0938C67.1405 15.0313 66.979 14.9635 66.7863 14.901C66.5936 14.8385 66.4009 14.7396 66.1769 14.6771C65.953 14.6094 65.729 14.5469 65.4738 14.4844C64.9582 14.7708 64.479 15.0313 63.9634 15.349L64.0936 15.3177H64.1561L64.255 15.2865C64.38 15.2552 64.479 15.2552 64.604 15.224C64.828 15.1927 65.0884 15.1927 65.3123 15.224C65.7915 15.2552 66.2394 15.349 66.6561 15.3854C66.755 15.3854 66.8488 15.4167 66.9478 15.4167C67.0415 15.4167 67.1405 15.4167 67.203 15.4479C67.3644 15.4479 67.5259 15.4479 67.6509 15.4479C67.7811 15.4479 67.8748 15.4167 67.9425 15.4167C68.005 15.4167 68.0363 15.4167 68.0363 15.4167C68.0363 15.4167 68.005 15.4167 67.9425 15.3854C67.9113 15.3177 67.8123 15.2865 67.6873 15.224Z" fill="#443F4F"/>
<mask id="mask4_2482_10363" style="mask-type:luminance" maskUnits="userSpaceOnUse" x="84" y="0" width="28" height="14">
<path d="M84.3335 0.479492H111V13.0003H84.3335V0.479492Z" fill="white"/>
</mask>
<g mask="url(#mask4_2482_10363)">
<path d="M110.307 12.5837C110.307 12.5837 110.245 12.4847 110.083 12.3285C110.021 12.2608 109.922 12.1358 109.828 12.0368C109.735 11.9066 109.604 11.7816 109.474 11.6202C109.412 11.5524 109.349 11.4587 109.281 11.3597C109.219 11.266 109.156 11.167 109.057 11.0733C108.896 10.8806 108.74 10.6514 108.578 10.4275C108.255 9.97433 107.87 9.46391 107.453 8.94828C107.36 8.81807 107.229 8.68787 107.104 8.56287C107.037 8.49516 106.974 8.43266 106.943 8.37016C106.875 8.30245 106.813 8.23995 106.75 8.17224C106.62 8.04724 106.495 7.91703 106.365 7.78682C106.235 7.66182 106.078 7.53162 105.917 7.40141C105.849 7.33891 105.755 7.2712 105.693 7.2087C105.625 7.1462 105.531 7.07849 105.469 7.01599C105.307 6.88578 105.146 6.76078 104.985 6.63057C104.823 6.50037 104.667 6.37016 104.505 6.24516C104.344 6.11495 104.151 5.98474 103.99 5.85974C103.287 5.37537 102.547 4.89099 101.776 4.47432C101.583 4.37537 101.391 4.28162 101.167 4.15141C100.974 4.05245 100.75 3.9587 100.557 3.82849C100.365 3.73474 100.141 3.60453 99.9481 3.50557L99.3387 3.18787C98.5366 2.73474 97.7345 2.31807 96.9377 1.99516C96.5158 1.8337 96.1356 1.70349 95.7189 1.60974C95.62 1.57849 95.5262 1.54203 95.396 1.54203C95.297 1.51078 95.2033 1.51078 95.0731 1.47953C94.9793 1.44828 94.8804 1.44828 94.7554 1.44828L94.5939 1.41703H94.5627H94.4325C94.3387 1.41703 94.2085 1.38578 94.1147 1.38578H93.9533C93.8908 1.38578 93.8543 1.38578 93.7918 1.38578C93.6981 1.38578 93.5991 1.38578 93.5054 1.38578H93.1825C92.9897 1.38578 92.797 1.38578 92.6043 1.41703C92.4116 1.44828 92.2189 1.44828 92.0262 1.47953C91.8335 1.51078 91.6408 1.54203 91.4845 1.57849C91.2918 1.60974 91.1304 1.67224 90.9377 1.70349C90.5835 1.80245 90.2345 1.8962 89.9116 1.99516C89.271 2.21912 88.6616 2.44828 88.146 2.64099C87.6356 2.8337 87.1512 3.02641 86.8022 3.15141C86.4168 3.28162 86.1252 3.38057 85.9012 3.44307C85.7085 3.50557 85.5835 3.54203 85.5835 3.54203C85.5835 3.54203 85.6772 3.47432 85.87 3.41182C86.0627 3.31287 86.3491 3.18787 86.7033 2.99516C87.0575 2.79724 87.5054 2.57328 88.021 2.34932C88.5314 2.09412 89.1095 1.80245 89.7502 1.54203C90.3908 1.28682 91.1304 1.03162 91.9012 0.838908C92.0939 0.7712 92.3179 0.7712 92.5106 0.7087C92.7033 0.677449 92.9272 0.640991 93.1512 0.640991L93.3127 0.609741H93.4689C93.5679 0.609741 93.6981 0.609741 93.7918 0.609741C93.922 0.609741 94.0158 0.609741 94.1147 0.609741C94.2085 0.609741 94.3387 0.609741 94.4325 0.609741H94.6252L94.7866 0.640991C94.9168 0.640991 95.0106 0.67745 95.1408 0.67745C95.2658 0.7087 95.3647 0.708699 95.4897 0.73995C95.62 0.771199 95.7189 0.7712 95.8439 0.80245C96.2918 0.901408 96.745 1.03162 97.1929 1.19307C98.0575 1.51078 98.8908 1.96391 99.7241 2.41182L100.333 2.73474C100.526 2.8337 100.719 2.9587 100.943 3.05766L101.266 3.21912L101.583 3.38057C101.776 3.47433 102 3.60453 102.193 3.70349C102.995 4.15141 103.766 4.66703 104.474 5.18266C104.63 5.30766 104.823 5.43787 104.985 5.56807C105.146 5.69828 105.307 5.85974 105.469 5.98474C105.625 6.11495 105.787 6.27641 105.948 6.40662C106.011 6.46912 106.11 6.53162 106.172 6.63057C106.235 6.69307 106.302 6.76078 106.396 6.85453C106.526 6.98474 106.688 7.1462 106.813 7.2712C106.943 7.43266 107.068 7.56287 107.198 7.72432C107.261 7.78682 107.328 7.85453 107.391 7.94828C107.453 8.01599 107.521 8.10974 107.552 8.17224C107.646 8.3337 107.776 8.46391 107.87 8.59412C108.287 9.17224 108.61 9.71912 108.896 10.2035C109.057 10.4274 109.188 10.6514 109.313 10.8806C109.38 10.9743 109.443 11.0733 109.505 11.167C109.573 11.266 109.636 11.3597 109.667 11.4275C109.766 11.5837 109.86 11.7452 109.958 11.8754C110.052 12.0056 110.115 12.0993 110.182 12.1983C110.245 12.4847 110.307 12.5837 110.307 12.5837Z" fill="#443F4F"/>
</g>
<path d="M109.057 23.2031C109.057 23.2031 109.057 23.2708 109.057 23.3958C109.057 23.526 109.057 23.7187 109.089 23.9792C109.089 24.2031 109.156 24.4896 109.219 24.8438C109.281 25.1667 109.412 25.5208 109.573 25.9062C109.604 26.0052 109.636 26.099 109.698 26.1979C109.734 26.2917 109.797 26.3906 109.859 26.4896C109.958 26.6823 110.083 26.875 110.182 27.0677C110.438 27.4531 110.693 27.8698 111.047 28.2552C111.208 28.4479 111.401 28.6458 111.563 28.8385C111.656 28.9323 111.75 29.0313 111.849 29.125L111.979 29.2552L112.136 29.3854C112.234 29.4792 112.328 29.5781 112.427 29.6719C112.521 29.7708 112.62 29.8333 112.745 29.9323C112.844 30.026 112.938 30.0937 113.068 30.1875C113.162 30.2865 113.292 30.349 113.391 30.4479C113.615 30.6042 113.839 30.7656 114.063 30.9271C114.287 31.0885 114.511 31.2188 114.734 31.3802C114.833 31.4427 114.958 31.5104 115.089 31.6042C115.219 31.6667 115.313 31.7344 115.443 31.7969C115.667 31.9271 115.891 32.0573 116.115 32.1823C116.563 32.4427 117.011 32.6354 117.464 32.8281C117.688 32.9219 117.88 33.0208 118.104 33.0833C118.297 33.151 118.521 33.2448 118.714 33.3125C118.807 33.3438 118.906 33.375 119 33.4062C119.099 33.4375 119.193 33.4688 119.292 33.4688C119.484 33.5365 119.641 33.5677 119.802 33.599C119.901 33.6302 119.964 33.6302 120.026 33.6667C120.094 33.6667 120.188 33.6979 120.25 33.6979C120.318 33.6979 120.38 33.7292 120.443 33.7292C120.511 33.7292 120.573 33.7604 120.636 33.7604C120.766 33.7917 120.859 33.7917 120.958 33.7917C121.052 33.7917 121.12 33.7917 121.182 33.8229C121.313 33.8229 121.375 33.8594 121.375 33.8594C121.375 33.8594 121.313 33.8594 121.182 33.8906C121.12 33.8906 121.021 33.9219 120.927 33.9219C120.828 33.9219 120.734 33.9219 120.604 33.9531C120.542 33.9531 120.474 33.9531 120.412 33.9531C120.349 33.9531 120.287 33.9531 120.188 33.9531C120.026 33.9531 119.865 33.9531 119.708 33.9219C119.547 33.9219 119.354 33.8906 119.162 33.8594C119.068 33.8594 118.969 33.8229 118.875 33.8229C118.776 33.7917 118.682 33.7917 118.552 33.7604C118.136 33.6979 117.688 33.5677 117.203 33.4062C116.724 33.2448 116.245 33.0833 115.761 32.8594C115.281 32.6354 114.766 32.375 114.287 32.0885C113.807 31.7969 113.323 31.474 112.875 31.1198C112.427 30.7656 111.979 30.3802 111.594 29.9948L111.432 29.8333L111.302 29.6719C111.208 29.5781 111.109 29.4792 111.016 29.349C110.823 29.125 110.662 28.9323 110.5 28.7083C110.182 28.2917 109.891 27.8073 109.667 27.3906C109.573 27.1615 109.443 26.9375 109.38 26.7135C109.349 26.6146 109.281 26.4896 109.25 26.3906C109.219 26.2917 109.188 26.1667 109.156 26.0677C109.089 25.875 109.057 25.651 109.026 25.4583C108.995 25.3594 108.995 25.2656 108.995 25.1667C108.995 25.0729 108.964 24.974 108.964 24.9115C108.932 24.5573 108.964 24.2656 108.995 24.0104C109.026 23.75 109.057 23.5573 109.089 23.4271C109.026 23.2708 109.057 23.2031 109.057 23.2031Z" fill="#443F4F"/>
<path d="M122.948 29.4479C123.042 29.4479 123.141 29.4479 123.235 29.4167C123.427 29.3854 123.589 29.349 123.75 29.3177C123.781 29.3177 123.781 29.3177 123.813 29.3177C123.844 29.1927 123.844 29.0625 123.875 28.9323C123.813 28.9323 123.75 28.9323 123.682 28.9323C123.521 28.9323 123.365 28.9323 123.203 28.9323C122.88 28.901 122.495 28.901 122.146 28.8021C121.953 28.7708 121.761 28.7083 121.568 28.6771C121.469 28.6458 121.375 28.6094 121.276 28.5781C121.182 28.5469 121.083 28.5156 120.99 28.4844C120.604 28.3229 120.219 28.1302 119.833 27.9375C119.448 27.7083 119.099 27.4531 118.714 27.1927C118.36 26.9375 118.005 26.6458 117.688 26.3281C117.365 26.0052 117.047 25.7135 116.787 25.3906C116.63 25.2344 116.5 25.0729 116.37 24.9115C116.245 24.75 116.115 24.5885 115.985 24.4271C115.922 24.3646 115.86 24.2656 115.828 24.2031C115.761 24.1354 115.729 24.0417 115.667 23.9792C115.568 23.8177 115.474 23.6875 115.375 23.526C115.182 23.2344 115.026 22.9792 114.896 22.724C114.766 22.4635 114.641 22.2708 114.542 22.0781C114.448 21.8854 114.38 21.7552 114.349 21.6615C114.318 21.5625 114.287 21.5 114.287 21.5C114.287 21.5 114.287 21.5625 114.318 21.6615C114.349 21.7552 114.349 21.9167 114.417 22.1406C114.448 22.3333 114.542 22.5937 114.641 22.849C114.735 23.1094 114.865 23.4271 115.026 23.75C115.089 23.9115 115.182 24.0729 115.281 24.2344C115.313 24.3333 115.375 24.3958 115.412 24.4896C115.474 24.5885 115.505 24.651 115.568 24.75C115.667 24.9427 115.792 25.1042 115.922 25.2656C115.985 25.3594 116.052 25.4271 116.115 25.5208C116.177 25.6198 116.245 25.7135 116.307 25.7812C116.37 25.875 116.438 25.9375 116.531 26.0365C116.594 26.1354 116.693 26.1979 116.755 26.2917C116.917 26.4896 117.078 26.6458 117.24 26.8073C117.589 27.1302 117.943 27.4531 118.328 27.7448C118.714 28.0313 119.13 28.2917 119.547 28.5156C119.641 28.5781 119.771 28.6094 119.865 28.6771C119.964 28.7396 120.094 28.7708 120.188 28.8385C120.287 28.8698 120.412 28.9323 120.511 28.9635C120.604 29 120.735 29.0313 120.828 29.0625C120.927 29.0937 121.052 29.125 121.151 29.1562C121.245 29.1927 121.375 29.224 121.469 29.224C121.693 29.2552 121.886 29.3177 122.115 29.3177C122.302 29.349 122.531 29.349 122.724 29.349C122.755 29.4792 122.849 29.4792 122.948 29.4479Z" fill="#443F4F"/>
<path d="M123.266 23.3018C123.49 23.5883 123.682 23.8799 123.875 24.1351C124.068 24.4268 124.26 24.7185 124.453 24.9737C124.453 25.0049 124.484 25.0049 124.484 25.0362C124.516 24.9112 124.547 24.781 124.547 24.6195C124.583 24.4268 124.615 24.2029 124.646 24.0101C124.646 23.9789 124.677 23.9424 124.677 23.8799C124.646 23.8174 124.583 23.7185 124.547 23.656C124.359 23.3331 124.13 23.0414 123.938 22.7549C123.714 22.4633 123.49 22.1716 123.234 21.9164C123.104 21.7862 122.979 21.6612 122.849 21.531C122.719 21.4008 122.594 21.2706 122.464 21.1768C122.208 20.9529 121.922 20.7237 121.661 20.5674C121.406 20.3695 121.12 20.2445 120.859 20.1456C120.604 20.0518 120.318 19.9841 120.094 19.9529C119.865 19.9216 119.641 19.9841 119.484 20.0154C119.323 20.0518 119.224 20.1456 119.13 20.1768C119.063 20.2445 119.031 20.2445 119.031 20.2445C119.031 20.2445 119.062 20.2445 119.161 20.2133C119.255 20.1768 119.354 20.1768 119.516 20.1768C119.672 20.1768 119.833 20.2133 120.026 20.2758C120.219 20.3383 120.443 20.4372 120.635 20.5674C121.052 20.8226 121.5 21.2393 121.953 21.7237C122.177 21.9476 122.401 22.2081 122.625 22.4633C122.818 22.7549 123.042 23.0101 123.266 23.3018Z" fill="#443F4F"/>
<path d="M65.6978 21.5313C65.6978 21.5313 65.63 21.5625 65.505 21.625C65.3748 21.6927 65.1821 21.7865 64.9582 21.9167C64.828 21.9792 64.703 22.0469 64.5728 22.1406C64.4478 22.2396 64.2863 22.3333 64.1248 22.4323C63.9634 22.526 63.8019 22.6563 63.6457 22.7552C63.4842 22.8802 63.2915 23.0104 63.13 23.1406C62.9686 23.2708 62.7759 23.4271 62.5832 23.5885C62.3905 23.75 62.203 23.9115 62.0415 24.1042C61.6561 24.4583 61.3019 24.8802 60.9478 25.2969C60.5988 25.7135 60.2446 26.1979 59.9217 26.6823C59.604 27.1615 59.3123 27.6771 59.0259 28.224C58.7342 28.7396 58.5103 29.2865 58.2863 29.8333C58.0623 30.3802 57.8696 30.9271 57.7082 31.474C57.5519 32.0208 57.3905 32.5365 57.2915 33.0521C57.1665 33.5677 57.0988 34.0521 57.005 34.5C56.9738 34.724 56.9425 34.9531 56.9061 35.1458C56.8748 35.3385 56.8748 35.5625 56.8436 35.724C56.8436 35.9167 56.8123 36.0781 56.8123 36.2396C56.8123 36.401 56.7811 36.5625 56.7811 36.6875C56.7498 36.9479 56.7498 37.1719 56.7498 37.3021C56.7498 37.4323 56.7498 37.526 56.7498 37.526C56.7498 37.526 56.7498 37.4635 56.7186 37.3021C56.6821 37.1719 56.6509 36.9479 56.6196 36.6875C56.6196 36.5625 56.5884 36.401 56.5884 36.2396C56.5884 36.0781 56.5571 35.8854 56.5571 35.724C56.5571 35.5313 56.5571 35.3385 56.5571 35.1146C56.5571 34.8854 56.5571 34.6615 56.5571 34.4375C56.5571 34.2135 56.5884 33.9531 56.5884 33.6979C56.6196 33.4375 56.6509 33.1823 56.6821 32.9219C56.7498 32.375 56.8748 31.8281 57.005 31.25C57.0675 30.9583 57.1665 30.6719 57.229 30.3802C57.328 30.0938 57.4217 29.8021 57.5155 29.5104C57.7446 28.9323 57.9998 28.3542 58.2863 27.8073C58.578 27.2604 58.8957 26.7135 59.2498 26.1979C59.4425 25.9375 59.604 25.6823 59.7967 25.4583C59.8905 25.3281 59.9894 25.2344 60.0832 25.1042C60.1821 25.0052 60.2759 24.8802 60.3748 24.7813C60.7915 24.3646 61.1717 23.9427 61.5936 23.625C61.7811 23.4635 62.0103 23.3021 62.203 23.1406C62.3905 22.9792 62.6196 22.849 62.8123 22.724C62.9998 22.5937 63.1925 22.4948 63.3853 22.3698C63.578 22.2708 63.7394 22.1719 63.9321 22.0781C64.0936 22.0156 64.255 21.9167 64.4113 21.8542C64.5728 21.7865 64.703 21.7552 64.828 21.6927C64.8957 21.6615 64.9582 21.6615 65.0207 21.625C65.0884 21.5937 65.1196 21.5937 65.1821 21.5625C65.2811 21.5313 65.3748 21.5 65.4373 21.5C65.63 21.5625 65.6978 21.5313 65.6978 21.5313Z" fill="#443F4F"/>
<path d="M100.141 18.8279C97.9637 19.8227 95.7814 20.8227 93.4689 21.531C91.4168 22.1716 89.3022 22.5935 87.0575 22.5623C83.8491 22.5623 81.0575 22.7237 78.271 23.3331C77.0835 23.5883 75.8647 23.9425 74.646 24.3956C76.3439 19.1821 82.245 15.9633 87.2814 15.1925C91.87 14.4841 97.2241 16.7654 101.167 19.2446" fill="#443F4F"/>
<path d="M121.568 40.9684C121.599 40.9372 121.63 40.8747 121.63 40.8434C119.062 40.9059 115.922 40.5518 114.031 39.0361L113.614 39.458C113.005 40.7757 113.739 42.8695 114.031 44.2549C114.349 45.9268 114.318 47.9215 114.927 49.432C116.948 48.4997 116.083 44.9632 117.719 43.3851C118.359 42.7393 120.026 41.8695 121.437 41.2913C121.5 41.1299 121.536 41.0361 121.568 40.9684Z" fill="#443F4F"/>
<path d="M122.208 39.9744C122.239 39.8755 122.271 39.7453 122.302 39.6515C121.568 39.589 116.693 38.9432 114.031 35.6932C113.099 34.5682 116.531 40.2609 113.838 41.5161C112.328 42.2244 119.031 41.9015 120.474 41.3234C121.406 40.938 121.953 40.3286 122.208 39.9744Z" fill="#443F4F"/>
<path d="M64.5103 27C64.5103 27 64.4478 27.0677 64.3175 27.2292C64.255 27.2917 64.1873 27.3906 64.1248 27.4844C64.0623 27.5833 63.9634 27.7083 63.8696 27.8698C63.7082 28.1615 63.5155 28.5156 63.3228 28.9635C63.13 29.4167 62.9686 29.901 62.8436 30.4792C62.6821 31.026 62.5832 31.6667 62.4894 32.3125C62.3905 32.9583 62.328 33.6667 62.2967 34.4062C62.2655 34.7604 62.2655 35.1458 62.2655 35.5C62.2655 35.8854 62.2655 36.2396 62.2967 36.625C62.328 37.3958 62.3905 38.1719 62.4582 38.9115C62.5519 39.6823 62.6509 40.4531 62.7759 41.1979C62.9061 41.9375 63.0675 42.6771 63.2603 43.3854C63.453 44.0938 63.6457 44.7656 63.8696 45.3802C64.0936 45.9896 64.3488 46.5677 64.604 47.0833C64.8644 47.599 65.1196 48.0521 65.4061 48.4375C65.6665 48.8229 65.9217 49.1458 66.1769 49.401C66.3071 49.5313 66.4009 49.6302 66.4998 49.724C66.5936 49.8229 66.6925 49.8854 66.755 49.9479C66.9165 50.0781 66.979 50.1094 66.979 50.1094C66.979 50.1094 66.8853 50.0781 66.7238 49.9792C66.5623 49.8854 66.3384 49.7552 66.0467 49.5312C65.7915 49.3073 65.4738 49.0156 65.1509 48.6615C64.828 48.3073 64.5103 47.8594 64.1873 47.3438C63.8696 46.8281 63.578 46.25 63.2915 45.6354C62.9998 45.026 62.7759 44.3177 62.5519 43.6094C62.4582 43.2552 62.328 42.901 62.2342 42.5156C62.1353 42.1302 62.0415 41.776 61.9738 41.3906C61.8175 40.6146 61.6873 39.8437 61.6248 39.0365C61.5259 38.2344 61.4946 37.4635 61.4634 36.6562C61.4634 35.8854 61.4634 35.1146 61.5259 34.3698C61.5936 33.6302 61.6873 32.9219 61.8175 32.25C61.88 31.9271 61.9738 31.5729 62.0415 31.2812C62.1353 30.9583 62.2342 30.6719 62.328 30.3802C62.5207 29.8021 62.7446 29.3177 62.9998 28.901C63.229 28.4844 63.4842 28.1302 63.7082 27.8385C63.8019 27.7083 63.9321 27.5833 63.9946 27.4844C64.0936 27.3906 64.1561 27.2917 64.255 27.2604C64.4478 27.0677 64.5103 27 64.5103 27Z" fill="#443F4F"/>
<path d="M112.588 39.974C113.005 40.1354 113.323 40.3906 113.614 40.7448C113.677 40.4219 113.771 40.1354 113.901 39.875L112.588 39.974Z" fill="#674696" fill-opacity="0.4"/>
<path d="M116.948 57.3545C117.078 57.5785 117.271 57.7712 117.495 57.9014C117.526 57.8649 117.557 57.8337 117.588 57.8024C117.656 57.7087 117.271 57.5107 116.948 57.3545Z" fill="#674696" fill-opacity="0.4"/>
<path d="M98.6666 55.7446C98.9895 59.281 95.3645 62.531 90.552 62.9842C85.7395 63.4321 81.5728 59.5102 81.2499 57.3852C80.6718 53.3279 85.2291 54.6821 90.0051 53.9738C94.7864 53.2967 98.3124 52.2029 98.6666 55.7446Z" fill="#4C1211"/>
<path d="M89.9738 53.8128C87.5363 54.1669 85.13 54.0055 83.4321 54.2971C84.3644 55.6461 86.9946 56.4534 89.9425 56.1617C92.8957 55.8701 95.3332 54.6149 96.005 53.1357C94.4998 53.0419 92.38 53.4899 89.9738 53.8128Z" fill="white"/>
<path d="M91.8022 59.1873C88.8231 59.3488 86.2866 60.4113 85.1304 61.7915C86.7033 62.6613 88.5627 63.2082 90.5835 63.0467C93.3127 62.7915 95.6512 61.6665 97.1616 60.0884C95.7814 59.4425 93.8908 59.0884 91.8022 59.1873Z" fill="#E17974"/>
<path d="M80.3854 54.9689C80.5469 56.87 78.0781 58.6096 74.8698 58.9273C71.6615 59.2189 68.9063 57.9325 68.7448 56.0627C68.5833 54.1669 71.0521 52.4273 74.2604 52.1044C77.4688 51.8179 80.1927 53.1044 80.3854 54.9689Z" fill="#E8C1AC"/>
<path d="M112.427 52.6199C112.62 54.8074 109.766 56.8699 106.01 57.1928C102.292 57.547 99.0833 56.0313 98.8906 53.8438C98.6978 51.6563 101.552 49.5938 105.307 49.2761C109.057 48.922 112.234 50.4324 112.427 52.6199Z" fill="#E8C1AC"/>
<path d="M101.427 49.9163C101.328 49.9163 101.234 49.9163 101.135 49.9163C99.6928 49.8538 98.3438 49.208 97.3542 48.1143C96.3594 47.0205 95.8751 45.6351 95.9428 44.1559C96.0678 41.2288 98.474 38.9424 101.396 38.9424C101.49 38.9424 101.583 38.9424 101.682 38.9424C104.698 39.1038 107.005 41.6768 106.88 44.7028C106.719 47.6299 104.344 49.9163 101.427 49.9163Z" fill="white"/>
<path d="M101.391 39.0361C101.49 39.0361 101.584 39.0361 101.651 39.0361C104.63 39.1976 106.912 41.708 106.781 44.7028C106.651 47.5986 104.25 49.8538 101.391 49.8538C101.297 49.8538 101.203 49.8538 101.136 49.8538C98.1565 49.6924 95.8752 47.182 96.0054 44.1872C96.1669 41.2913 98.5367 39.0361 101.391 39.0361ZM101.391 38.8799C98.4429 38.8799 96.0054 41.1976 95.8752 44.1559C95.8127 45.6351 96.3283 47.0518 97.3179 48.1455C98.3127 49.2393 99.6617 49.8851 101.136 49.9788C101.235 49.9788 101.328 49.9788 101.427 49.9788C104.375 49.9788 106.813 47.6663 106.943 44.7028C107.005 43.2236 106.495 41.807 105.5 40.7132C104.505 39.6195 103.156 38.9736 101.682 38.8799C101.584 38.8799 101.49 38.8799 101.391 38.8799Z" fill="#6D6E70"/>
<path d="M104.599 41.9997C103.865 42.0622 103.573 42.2549 103.479 42.708C103.38 43.0934 103.573 43.5101 103.927 43.7392C104.375 43.9944 104.698 43.9007 105.24 43.4163C105.24 43.4476 105.276 43.4788 105.276 43.5101C105.401 44.0257 105.5 44.5101 105.401 45.0257C105.083 46.5361 104.214 48.083 102.193 48.5309C99.6614 49.0778 97.5781 47.5049 97.1614 45.1872C97.0937 44.8955 97.1614 44.609 97.1614 44.3174C97.125 43.4788 97.3854 42.708 97.8646 42.0309C98.7291 40.8747 99.8541 40.2913 101.328 40.3278C102.609 40.359 103.604 40.8747 104.437 41.8069C104.505 41.8694 104.568 41.9372 104.599 41.9997Z" fill="#404041"/>
<path d="M75.7344 51.5257C75.6407 51.5257 75.5417 51.5257 75.448 51.5257C74.0052 51.4632 72.6563 50.8174 71.6615 49.7236C70.6667 48.6299 70.1875 47.2445 70.25 45.7653C70.3803 42.8382 72.7865 40.5518 75.7032 40.5518C75.7969 40.5518 75.8959 40.5518 75.9896 40.5518C79.0052 40.7132 81.3177 43.2861 81.1875 46.3122C81.0261 49.2393 78.6563 51.5257 75.7344 51.5257Z" fill="white"/>
<path d="M75.7034 40.6455C75.7971 40.6455 75.8961 40.6455 75.9586 40.6455C78.943 40.807 81.219 43.3174 81.094 46.3122C80.9638 49.208 78.5575 51.4632 75.7034 51.4632C75.6096 51.4632 75.5107 51.4632 75.4482 51.4632C72.4638 51.3018 70.1877 48.7913 70.3127 45.7965C70.4742 42.9007 72.8492 40.6455 75.7034 40.6455ZM75.7034 40.4893C72.7502 40.4893 70.3127 42.8018 70.1877 45.7653C70.1252 47.2445 70.6357 48.6611 71.6305 49.7549C72.6252 50.8486 73.969 51.4945 75.4482 51.5882C75.5419 51.5882 75.6409 51.5882 75.7346 51.5882C78.6877 51.5882 81.1252 49.2757 81.2502 46.3122C81.318 44.833 80.8023 43.4163 79.8075 42.3226C78.8127 41.2288 77.469 40.583 75.9898 40.4893C75.8961 40.4893 75.7971 40.4893 75.7034 40.4893Z" fill="#6D6E70"/>
<path d="M79.2654 43.609C78.5258 43.6715 78.2342 43.8642 78.1404 44.3174C78.0467 44.7028 78.2342 45.1194 78.5883 45.3486C79.0362 45.6038 79.3592 45.5101 79.906 45.0257C79.906 45.0569 79.9373 45.0882 79.9373 45.1194C80.0623 45.6351 80.1612 46.1194 80.0623 46.6351C79.7446 48.1455 78.88 49.6924 76.8592 50.1403C74.3227 50.6872 72.2394 49.1142 71.8227 46.7965C71.7602 46.5049 71.8227 46.2184 71.8227 45.9267C71.7914 45.0882 72.0467 44.3174 72.5258 43.6403C73.3956 42.484 74.5154 41.9007 75.9894 41.9372C77.2758 41.9684 78.2706 42.484 79.104 43.4163C79.1665 43.4476 79.1977 43.5465 79.2654 43.609Z" fill="#404041"/>
<path d="M56.2967 114.417C56.2342 114.417 56.203 114.417 56.1405 114.38L32.0207 107.88C31.6978 107.786 31.5051 107.495 31.5415 107.172C31.5728 106.854 31.8592 106.625 32.1821 106.625H71.4686C71.7603 106.625 72.0467 106.854 72.1092 107.141C72.1769 107.432 72.0155 107.755 71.7238 107.849L56.5571 114.349C56.4894 114.38 56.3957 114.417 56.2967 114.417Z" fill="#C4C6CA"/>
<path d="M71.469 107.24L56.2971 113.74L32.1825 107.24H71.469ZM71.469 105.948H32.2138C31.5731 105.948 31.0263 106.433 30.9325 107.078C30.8336 107.719 31.2502 108.334 31.8596 108.495L55.9794 114.995C56.0731 115.026 56.2033 115.026 56.2971 115.026C56.4586 115.026 56.6513 114.995 56.8127 114.933L71.9533 108.427C72.4325 108.235 72.7502 107.787 72.7502 107.24C72.7502 106.532 72.2086 105.948 71.469 105.948Z" fill="#4F4F59"/>
<path d="M13.8333 109.62L54.8542 114.578C57.5833 114.896 59.474 112.739 58.9948 109.781L51.8438 63.1456C51.4583 60.5727 49.0833 58.5102 46.6146 58.5727L9.18751 59.3175C7.19792 59.3487 5.75522 61.2445 5.94792 63.531L9.50522 104.469C9.72917 107.01 11.6563 109.359 13.8333 109.62Z" fill="#5E606D"/>
<path d="M13.7394 109.105L53.5103 113.87C56.1405 114.188 57.9686 112.131 57.5155 109.297L50.5884 64.6879C50.203 62.2452 47.9269 60.2816 45.5207 60.3129L9.21862 61.0212C7.29153 61.0525 5.88007 62.8545 6.07278 65.042L9.53632 104.146C9.76028 106.625 11.6561 108.849 13.7394 109.105Z" fill="#C5C7CB"/>
<path d="M34.9531 86.1981C35.0989 86.6147 35.2031 87.0418 35.2708 87.4793C35.3385 87.9168 35.3697 88.3543 35.3593 88.7918C35.3437 89.2293 35.2968 89.6616 35.2031 90.0835C35.1145 90.5054 34.9843 90.9116 34.8176 91.3022C34.651 91.6929 34.4531 92.0575 34.2135 92.4012C33.9791 92.745 33.7135 93.0575 33.4166 93.3387C33.1249 93.62 32.802 93.87 32.4583 94.0783C32.1145 94.2918 31.7499 94.4637 31.3697 94.5939C30.9895 94.7293 30.5989 94.8179 30.1979 94.8647C29.7968 94.9116 29.3958 94.9168 28.9895 94.8804C28.5833 94.8387 28.1822 94.7606 27.7812 94.6356C27.3854 94.5158 27.0051 94.3491 26.6301 94.146C26.2604 93.9429 25.9114 93.7033 25.5781 93.4325C25.2447 93.1564 24.9426 92.8491 24.6614 92.5106C24.3854 92.1772 24.1354 91.8127 23.9166 91.4272C23.7031 91.0418 23.5208 90.6408 23.3801 90.2189C23.2343 89.8022 23.1249 89.3752 23.0572 88.9377C22.9895 88.5002 22.9635 88.0627 22.9739 87.6252C22.9843 87.1877 23.0364 86.7554 23.1301 86.3335C23.2187 85.9116 23.3489 85.5054 23.5156 85.1147C23.6822 84.7241 23.8801 84.3595 24.1145 84.0158C24.3541 83.672 24.6197 83.3595 24.9114 83.0783C25.2083 82.797 25.5312 82.547 25.8749 82.3387C26.2187 82.1252 26.5833 81.9533 26.9635 81.8231C27.3437 81.6929 27.7291 81.5991 28.1301 81.5522C28.5312 81.5054 28.9374 81.5002 29.3437 81.5366C29.7499 81.5783 30.151 81.6564 30.5468 81.7814C30.9426 81.9064 31.3281 82.0679 31.6979 82.271C32.0729 82.4741 32.4218 82.7137 32.7551 82.9897C33.0833 83.2606 33.3906 83.5679 33.6718 83.9064C33.9479 84.245 34.1979 84.6043 34.4114 84.9897C34.6301 85.3752 34.8072 85.7762 34.9531 86.1981Z" fill="white"/>
</svg>
