<svg width="256" height="398" viewBox="0 0 256 398" fill="none" xmlns="http://www.w3.org/2000/svg">
<path d="M112.286 268.302C114.286 269.604 115.479 271.734 115.479 274.01V314.51C107.703 307.495 101.745 298.719 98.1458 288.76C97.552 287.125 95.7499 286.271 94.1145 286.87C92.4739 287.458 91.6249 289.266 92.2187 290.901C96.7968 303.573 104.844 314.516 115.479 322.713V324.849C115.479 331.776 120.656 337.469 127.255 337.797C127.484 337.807 127.713 337.812 127.937 337.812C131.141 337.812 134.161 336.614 136.5 334.396C138.963 332.062 140.375 328.776 140.375 325.38V301.245C149.432 293.245 155 283.078 156.854 270.953C157.12 269.234 155.937 267.625 154.219 267.359C152.516 267.104 150.891 268.276 150.625 270C149.286 278.755 145.891 286.12 140.375 292.375V274.01C140.375 271.734 141.521 269.609 143.385 268.448C151.844 263.094 156.891 253.943 156.891 243.974C156.891 235.724 153.365 227.838 147.213 222.349C141.073 216.864 132.818 214.239 124.578 215.187C111.448 216.682 100.766 227.26 99.1718 240.349C97.8228 251.552 102.854 262.266 112.286 268.302Z" fill="#8C52FF"/>
<mask id="mask0_402_431" style="mask-type:luminance" maskUnits="userSpaceOnUse" x="0" y="0" width="257" height="398">
<path d="M0.197998 0.4375H256V397.438H0.197998V0.4375Z" fill="white"/>
</mask>
<g mask="url(#mask0_402_431)">
<path d="M255.516 345.234V179.365C255.516 162.839 242.88 149.219 226.771 147.63V99.276C226.771 44.776 182.432 0.4375 127.932 0.4375C101.521 0.4375 76.698 10.7135 58.0313 29.3802C39.3698 48.0417 29.0886 72.8646 29.0886 99.276V147.682C18.448 148.724 9.05733 154.922 4.0365 164.5C3.95317 164.625 3.87504 164.75 3.80733 164.885C1.54692 169.349 0.348999 174.354 0.348999 179.365V365.667C0.348999 383.25 14.6563 397.562 32.2448 397.562H223.62C241.208 397.562 255.516 383.25 255.516 365.667V345.24V345.234ZM249.214 179.365V194.255C232.537 186.594 223.047 173.292 220.313 153.771H223.62C237.729 153.771 249.214 165.25 249.214 179.365ZM59.823 147.469V96.9115C59.823 78.7292 66.9011 61.6354 79.7605 48.776C92.625 35.9167 109.729 28.8333 127.932 28.8333C165.49 28.8333 196.042 59.375 196.042 96.9115V147.469H59.823ZM32.2448 153.771H34.0157C39.9115 158.01 44.1355 163.526 46.8177 170.672C47.2917 171.932 48.4896 172.714 49.7657 172.714C50.1355 172.714 50.5105 172.651 50.875 172.516C52.5052 171.901 53.3334 170.083 52.7188 168.453C50.5938 162.797 47.5313 157.896 43.6146 153.771H78.4896C57.9323 172.818 48.0417 197.078 49.1355 226.036C49.2032 227.734 50.599 229.068 52.2865 229.068C52.3282 229.068 52.3646 229.068 52.4063 229.062C54.1459 229 55.5 227.536 55.4375 225.797C54.323 196.391 65.323 172.172 88.0938 153.771H189.563C195.219 159.984 200.26 167.281 205.339 176.641C205.911 177.698 206.995 178.292 208.115 178.292C208.62 178.292 209.135 178.167 209.615 177.911C211.141 177.078 211.714 175.167 210.88 173.635C206.656 165.849 202.438 159.401 197.885 153.771H213.964C216.964 176.797 228.813 192.703 249.208 201.109V227.359C234.63 222.073 227.349 207.031 219.042 189.797L219.016 189.755C218.26 188.188 216.385 187.547 214.818 188.307C213.25 189.062 212.604 190.969 213.359 192.536C222.281 211.047 230.76 228.542 249.208 233.984V295.667C241.615 333.245 217.604 367.151 181.531 391.266H164.156C171.651 373.911 181 363.26 190.068 352.943C191.422 351.401 192.776 349.865 194.109 348.312C195.245 346.995 195.099 345.005 193.781 343.87C192.464 342.734 190.474 342.88 189.333 344.198C188.016 345.729 186.672 347.255 185.328 348.786C175.505 359.958 165.365 371.531 157.323 391.266H148.151C145.839 388.792 139.214 380.719 139.214 369.266C139.214 360.51 143.755 350.719 149.5 338.318C158.693 318.479 170.135 293.786 170.135 258.292C170.135 221.068 151.198 190.786 127.932 190.786C117.885 190.786 108.172 196.443 100.589 206.719C99.5573 208.12 99.8542 210.094 101.255 211.125C102.656 212.156 104.625 211.859 105.661 210.464C110.167 204.359 117.682 197.083 127.927 197.083C147.724 197.083 163.828 224.542 163.828 258.292C163.828 292.391 152.708 316.385 143.776 335.661C137.943 348.25 132.906 359.115 132.906 369.266C132.906 378.99 136.755 386.547 140.063 391.266H101.521C73.9636 365.745 59.073 333.667 57.2969 295.87C57.2136 294.125 55.6771 292.724 54 292.87C52.2605 292.948 50.9167 294.427 51 296.167C52.75 333.417 66.6875 365.37 92.4271 391.266H76.7344C50.2969 369.646 38.7396 339.01 42.4375 300.161C42.6042 298.427 41.3334 296.891 39.599 296.724C37.8698 296.516 36.3282 297.833 36.1615 299.562C32.5209 337.823 42.974 368.615 67.1823 391.266H53.1511C41.5313 384.609 38.698 371.365 35.724 357.349C34.2605 350.458 32.75 343.339 30.1198 336.875C23.5105 320.604 11.8177 314.995 6.65108 313.24V308.495C8.0365 308.578 9.40108 308.625 10.724 308.625C17.6094 308.625 23.6667 307.521 29.0938 305.292C30.7032 304.63 31.4688 302.786 30.8073 301.172C30.1511 299.568 28.3073 298.802 26.698 299.458C21.0469 301.786 14.4115 302.609 6.65108 302.115V291.484C10.3907 293.26 14.5573 294.177 19.1198 294.177C19.8282 294.177 20.5469 294.156 21.2709 294.109C23.0105 294.01 24.3334 292.516 24.2292 290.776C24.125 289.036 22.5938 287.698 20.9011 287.818C15.3021 288.167 10.6407 286.901 6.65108 284.161V264.24C14.974 268.005 21.1875 274.927 25.5521 285.318C26.0625 286.526 27.2292 287.25 28.4584 287.25C28.8646 287.25 29.2813 287.172 29.6823 287.005C31.2865 286.328 32.0417 284.479 31.3646 282.875C25.9896 270.083 17.6615 261.589 6.65108 257.484V239.823C23.5052 242.875 37.5834 255.37 48.5313 277.01C49.0834 278.109 50.1927 278.74 51.3438 278.74C51.823 278.74 52.3125 278.63 52.7657 278.401C54.323 277.615 54.9427 275.719 54.1563 274.167C42.0157 250.172 26.0417 236.51 6.65108 233.448V225.234L22.5938 227.521C22.7448 227.547 22.8959 227.552 23.0469 227.552C24.5886 227.552 25.9375 226.422 26.1615 224.849C26.4063 223.13 25.2136 221.531 23.4896 221.281L6.65108 218.865V201.745C11.625 203.021 16.1563 205.651 20.1511 209.646C20.7657 210.26 21.573 210.568 22.375 210.568C23.1823 210.568 23.9896 210.26 24.6042 209.646C25.8386 208.411 25.8386 206.422 24.6042 205.188C19.375 199.958 13.3438 196.625 6.65108 195.255V179.365C6.65108 176.047 7.33858 172.745 8.58858 169.677C15.4584 170.568 20.9792 174.224 25.3907 180.885C25.9948 181.802 27 182.297 28.0209 182.297C28.6146 182.297 29.2188 182.125 29.7552 181.771C31.2084 180.807 31.6042 178.854 30.6407 177.401C25.7761 170.052 19.5 165.562 11.9115 163.896C16.6823 157.583 24.1094 153.771 32.2448 153.771ZM6.65108 365.667V320C11.349 322.078 19.3959 327.224 24.2813 339.245C26.7032 345.193 28.1563 352.036 29.5573 358.651C32.0834 370.552 34.698 382.75 42.9532 391.26H32.2448C18.1302 391.255 6.65108 379.776 6.65108 365.667ZM223.62 391.255H192.474C219.13 371.568 238.682 346.411 249.214 318.417V344.516C243.938 356.521 237.297 366 228.901 373.453C227.599 374.609 227.484 376.604 228.641 377.901C229.26 378.604 230.125 378.964 231 378.964C231.74 378.964 232.49 378.703 233.089 378.167C239.333 372.625 244.656 366.052 249.214 358.333V365.661C249.214 379.776 237.729 391.255 223.62 391.255Z" fill="#8C52FF"/>
</g>
<path d="M129.635 174.354C123.979 174.354 118.365 175.589 112.953 178.032C111.37 178.75 110.661 180.62 111.38 182.203C112.094 183.787 113.963 184.49 115.547 183.782C120.141 181.703 124.875 180.657 129.63 180.657C157.141 180.657 177.885 215.969 177.885 262.792C177.885 290.047 169.766 309.068 162.609 325.844C156.427 340.328 150.588 354.011 150.588 370.677C150.588 372.422 152 373.828 153.74 373.828C155.479 373.828 156.891 372.422 156.891 370.677C156.891 355.297 162.229 342.792 168.406 328.318C175.802 310.985 184.187 291.339 184.187 262.792C184.193 212.37 160.734 174.354 129.635 174.354Z" fill="#8C52FF"/>
<path d="M100.766 185.912C87.5624 200.839 83.5728 215.537 81.651 233.016C80.1406 247.021 82.7864 264.084 88.9062 279.818C89.3906 281.068 90.5833 281.834 91.8437 281.834C92.2239 281.834 92.6145 281.766 92.9895 281.615C94.6093 280.985 95.4114 279.162 94.7812 277.537C89.0156 262.714 86.5156 246.735 87.9166 233.704C89.7083 217.422 93.3853 203.776 105.49 190.094C106.646 188.787 106.521 186.797 105.219 185.641C103.906 184.485 101.917 184.61 100.766 185.912Z" fill="#8C52FF"/>
<path d="M83.5521 318.813C83.1979 316.401 82.8438 314.006 82.474 311.631C82.2032 309.912 80.6042 308.756 78.8698 309C77.1511 309.271 75.9792 310.886 76.2448 312.605C76.6146 314.964 76.9636 317.344 77.3125 319.73C79.9167 337.469 82.6094 355.813 93.9219 370.349C94.5417 371.146 95.474 371.568 96.4115 371.568C97.0886 371.568 97.7709 371.349 98.349 370.901C99.724 369.834 99.9688 367.849 98.9011 366.48C88.6042 353.245 86.0365 335.74 83.5521 318.813Z" fill="#8C52FF"/>
<path d="M34.3126 229.281C32.7397 230.036 32.0834 231.917 32.8334 233.489C37.0105 242.167 42.4845 248.614 48.2761 255.437C53.8491 262.01 59.6199 268.802 64.5626 278.125C67.172 283.083 68.2345 287.901 68.2345 294.745C68.2345 296.489 69.6459 297.901 71.3855 297.901C73.1303 297.901 74.5418 296.489 74.5418 294.745C74.5418 286.901 73.2241 281.047 70.1355 275.177C64.8699 265.245 58.8803 258.182 53.0834 251.354C47.5626 244.849 42.3439 238.703 38.5157 230.755C37.7657 229.187 35.8803 228.526 34.3126 229.281Z" fill="#8C52FF"/>
<path d="M30.7187 221.359C31.0052 222.875 32.3281 223.927 33.8177 223.927C34.0052 223.927 34.2083 223.911 34.401 223.875C36.1093 223.552 37.2395 221.901 36.9166 220.192C31.6718 192.317 43.1406 181.286 43.6822 180.786C44.9687 179.625 45.0781 177.64 43.9218 176.349C42.7656 175.047 40.7708 174.932 39.4739 176.093C38.8697 176.635 24.7552 189.656 30.7187 221.359Z" fill="#8C52FF"/>
<path d="M94.4478 307.907C93.9999 306.224 92.276 305.214 90.5937 305.667C88.9114 306.115 87.9114 307.834 88.3541 309.521C91.4062 321.058 98.0051 330.219 104.385 339.084C113.031 351.099 121.203 362.448 120.276 378.917C120.177 380.657 121.505 382.141 123.245 382.24C123.302 382.245 123.365 382.245 123.422 382.245C125.083 382.245 126.474 380.953 126.568 379.276C127.62 360.573 118.411 347.782 109.5 335.401C103.177 326.615 97.203 318.318 94.4478 307.907Z" fill="#8C52FF"/>
<path d="M130.12 164.63C138.995 163.135 148.151 163.583 156.865 165.922C157.141 165.995 157.411 166.036 157.682 166.036C159.073 166.036 160.349 165.109 160.724 163.698C161.177 162.021 160.182 160.286 158.495 159.839C148.911 157.26 138.839 156.776 129.073 158.417C127.359 158.708 126.203 160.328 126.49 162.047C126.776 163.76 128.406 164.911 130.12 164.63Z" fill="#8C52FF"/>
<path d="M65.5624 236.473C65.7186 236.494 65.8749 236.51 66.0311 236.51C67.5624 236.51 68.9113 235.39 69.1457 233.822C73.5416 204.515 91.0884 179.755 114.927 169.197C116.521 168.494 117.234 166.635 116.536 165.041C115.823 163.447 113.963 162.729 112.375 163.432C86.5832 174.859 67.6301 201.468 62.9113 232.89C62.6561 234.609 63.8384 236.213 65.5624 236.473Z" fill="#8C52FF"/>
<path d="M83.8853 299.505C84.2291 300.958 85.526 301.937 86.953 301.937C87.1926 301.937 87.4322 301.906 87.677 301.854C89.3697 301.458 90.427 299.765 90.026 298.067C86.7499 284.052 81.1301 273.927 76.6145 265.791C72.4635 258.317 69.1822 252.411 69.1822 246.375C69.1822 244.63 67.7708 243.224 66.0312 243.224C64.2916 243.224 62.8801 244.63 62.8801 246.375C62.8801 254.041 66.6874 260.901 71.0989 268.854C75.651 277.052 80.8124 286.338 83.8853 299.505Z" fill="#8C52FF"/>
<path d="M167.391 170.37C167.885 170.646 217.125 198.417 217.125 256.802C217.125 283.964 213.599 303.995 206.026 319.833C205.276 321.406 205.943 323.286 207.51 324.036C207.948 324.245 208.412 324.344 208.87 324.344C210.047 324.344 211.172 323.682 211.714 322.557C219.708 305.833 223.432 284.938 223.432 256.807C223.432 194.609 170.948 165.141 170.422 164.844C168.896 164.01 166.979 164.568 166.146 166.094C165.307 167.615 165.865 169.531 167.391 170.37Z" fill="#8C52FF"/>
<path d="M192.859 311.984C191.24 311.354 189.411 312.166 188.781 313.791C183.885 326.484 178.713 332.557 178.667 332.609C177.521 333.922 177.651 335.911 178.963 337.057C179.562 337.578 180.302 337.833 181.036 337.833C181.917 337.833 182.792 337.474 183.411 336.755C183.651 336.484 189.323 329.906 194.661 316.057C195.292 314.432 194.479 312.609 192.859 311.984Z" fill="#8C52FF"/>
<path d="M196.625 299.094C196.844 299.146 197.057 299.162 197.271 299.162C198.734 299.162 200.042 298.146 200.354 296.657C202.724 285.37 203.922 273.245 203.922 260.615C203.922 208.104 173.172 181.292 171.865 180.177C170.542 179.052 168.557 179.203 167.427 180.532C166.297 181.849 166.448 183.839 167.771 184.974C168.068 185.229 197.615 211.141 197.615 260.615C197.615 272.813 196.464 284.506 194.187 295.365C193.828 297.068 194.917 298.74 196.625 299.094Z" fill="#8C52FF"/>
<path d="M185.651 371.765C184.328 372.89 184.156 374.88 185.281 376.208C185.906 376.948 186.792 377.323 187.687 377.323C188.406 377.323 189.13 377.083 189.724 376.578C191.062 375.453 222.63 348.463 231.349 312.859C239.927 277.672 234.364 234.745 234.12 232.937C233.891 231.208 232.297 230.005 230.583 230.229C228.859 230.458 227.646 232.047 227.875 233.771C227.932 234.203 233.521 277.354 225.224 311.364C217.005 344.948 185.969 371.5 185.651 371.765Z" fill="#8C52FF"/>
</svg>
