<svg width="32" height="20" viewBox="0 0 32 20" fill="none" xmlns="http://www.w3.org/2000/svg">
<path d="M11.4974 14.9901C11.2222 14.9901 10.9974 15.2152 10.9974 15.4899C10.9974 15.7646 11.2222 15.9897 11.4974 15.9897H15.4964C15.7712 15.9897 15.9961 15.7646 15.9961 15.4899C15.9961 15.2152 15.7712 14.9901 15.4964 14.9901H11.4974Z" fill="#8C52FF"/>
<path d="M4.52403 15.34C4.52403 15.368 4.5214 15.3956 4.51581 15.4229C4.51055 15.4501 4.50233 15.4767 4.49181 15.5027C4.48096 15.5283 4.46781 15.5526 4.45236 15.576C4.43691 15.5993 4.41949 15.6207 4.39976 15.6404C4.38004 15.6601 4.35834 15.6775 4.33533 15.6933C4.31199 15.7087 4.28767 15.7219 4.2617 15.7324C4.23606 15.7429 4.20943 15.7511 4.18214 15.7567C4.15453 15.762 4.12692 15.7646 4.0993 15.7646C4.07136 15.7646 4.04375 15.762 4.01614 15.7567C3.98885 15.7511 3.96222 15.7429 3.93658 15.7324C3.91094 15.7219 3.88629 15.7087 3.86295 15.6933C3.83994 15.6775 3.81857 15.6601 3.79884 15.6404C3.77912 15.6207 3.76137 15.5993 3.74592 15.576C3.73047 15.5526 3.71732 15.5283 3.70647 15.5027C3.69595 15.4767 3.68773 15.4501 3.68247 15.4229C3.67689 15.3956 3.67426 15.368 3.67426 15.34C3.67426 15.3121 3.67689 15.2845 3.68247 15.2572C3.68773 15.2296 3.69595 15.2033 3.70647 15.1774C3.71732 15.1518 3.73047 15.1271 3.74592 15.1041C3.76137 15.0808 3.77912 15.0594 3.79884 15.0397C3.81857 15.02 3.83994 15.0022 3.86295 14.9868C3.88629 14.9714 3.91094 14.9582 3.93658 14.9477C3.96222 14.9368 3.98885 14.929 4.01614 14.9234C4.04375 14.9181 4.07136 14.9152 4.0993 14.9152C4.12692 14.9152 4.15453 14.9181 4.18214 14.9234C4.20943 14.929 4.23606 14.9368 4.2617 14.9477C4.28767 14.9582 4.31199 14.9714 4.33533 14.9868C4.35834 15.0022 4.38004 15.02 4.39976 15.0397C4.41949 15.0594 4.43691 15.0808 4.45236 15.1041C4.46781 15.1271 4.48096 15.1518 4.49181 15.1774C4.50233 15.2033 4.51055 15.2296 4.51581 15.2572C4.5214 15.2845 4.52403 15.3121 4.52403 15.34Z" fill="#8C52FF"/>
<path d="M2.84946 15.34C2.84946 15.368 2.84683 15.3956 2.84125 15.4229C2.83599 15.4501 2.82777 15.4767 2.81725 15.5027C2.8064 15.5283 2.79325 15.5526 2.7778 15.576C2.76235 15.5993 2.7446 15.6207 2.72488 15.6404C2.70515 15.6601 2.68378 15.6775 2.66077 15.6933C2.63743 15.7087 2.61311 15.7219 2.58714 15.7324C2.5615 15.7429 2.53487 15.7511 2.50758 15.7567C2.47997 15.762 2.45236 15.7646 2.42442 15.7646C2.3968 15.7646 2.36919 15.762 2.34158 15.7567C2.31429 15.7511 2.28766 15.7429 2.26202 15.7324C2.23605 15.7219 2.21173 15.7087 2.18839 15.6933C2.16538 15.6775 2.14401 15.6601 2.12428 15.6404C2.10456 15.6207 2.08681 15.5993 2.07136 15.576C2.05591 15.5526 2.04276 15.5283 2.03191 15.5027C2.02139 15.4767 2.01317 15.4501 2.00791 15.4229C2.00232 15.3956 1.99969 15.368 1.99969 15.34C1.99969 15.3121 2.00232 15.2845 2.00791 15.2572C2.01317 15.2296 2.02139 15.2033 2.03191 15.1774C2.04276 15.1518 2.05591 15.1271 2.07136 15.1041C2.08681 15.0808 2.10456 15.0594 2.12428 15.0397C2.14401 15.02 2.16538 15.0022 2.18839 14.9868C2.21173 14.9714 2.23605 14.9582 2.26202 14.9477C2.28766 14.9368 2.31429 14.929 2.34158 14.9234C2.36919 14.9181 2.3968 14.9152 2.42442 14.9152C2.45236 14.9152 2.47997 14.9181 2.50758 14.9234C2.53487 14.929 2.5615 14.9368 2.58714 14.9477C2.61311 14.9582 2.63743 14.9714 2.66077 14.9868C2.68378 15.0022 2.70515 15.02 2.72488 15.0397C2.7446 15.0594 2.76235 15.0808 2.7778 15.1041C2.79325 15.1271 2.8064 15.1518 2.81725 15.1774C2.82777 15.2033 2.83599 15.2296 2.84125 15.2572C2.84683 15.2845 2.84946 15.3121 2.84946 15.34Z" fill="#8C52FF"/>
<path d="M11.1722 3.9725C11.0223 3.74741 10.6976 3.67248 10.4727 3.82233L5.97369 6.82049C5.82379 6.92038 5.74884 7.07055 5.74884 7.24537C5.74884 7.42018 5.82379 7.57003 5.97369 7.66992L10.4727 10.6681C10.6976 10.8179 11.0223 10.768 11.1722 10.5182C11.3225 10.2935 11.2725 9.96849 11.0223 9.81865L7.14825 7.24537L11.0223 4.67209C11.2475 4.52192 11.3225 4.19726 11.1722 3.9725Z" fill="#8C52FF"/>
<path d="M15.8212 10.5182C15.9711 10.743 16.2962 10.8179 16.5211 10.6681L21.0201 7.6699C21.17 7.57001 21.2449 7.42016 21.2449 7.24535C21.2449 7.07053 21.17 6.92036 21.0201 6.82047L16.5211 3.82231C16.2962 3.67246 15.9711 3.72241 15.8212 3.97248C15.6713 4.19724 15.7213 4.5219 15.9711 4.67207L19.8452 7.24535L15.9711 9.81863C15.7462 9.96847 15.6713 10.2935 15.8212 10.5182Z" fill="#8C52FF"/>
<path d="M14.0217 3.37282L12.022 10.8679C11.947 11.1429 12.1223 11.4176 12.3721 11.4676C12.4221 11.4676 12.447 11.4926 12.497 11.4926C12.7219 11.4926 12.9221 11.3427 12.972 11.118L14.9714 3.62255C15.0463 3.34784 14.8714 3.07313 14.6216 3.02286C14.3714 2.94794 14.0966 3.09811 14.0217 3.37282Z" fill="#8C52FF"/>
<mask id="mask0_2128_392" style="mask-type:luminance" maskUnits="userSpaceOnUse" x="0" y="0" width="28" height="20">
<path d="M0 0H27.0513V20H0V0Z" fill="white"/>
</mask>
<g mask="url(#mask0_2128_392)">
<path d="M11.4974 18.9876H9.9977C9.72288 18.9876 9.4977 19.2127 9.4977 19.4874C9.4977 19.7621 9.72288 19.9872 9.9977 19.9872H16.9961C17.2709 19.9872 17.4957 19.7621 17.4957 19.4874C17.4957 19.2127 17.2709 18.9876 16.9961 18.9876H15.4964V17.4888H25.4938C26.1437 17.4888 26.6936 17.0639 26.8935 16.4892H26.3685C26.1437 16.4892 25.9438 16.4642 25.7439 16.3893C25.669 16.4393 25.5687 16.4892 25.4688 16.4892H1.49967C1.22485 16.4892 1 16.2645 1 15.9897V14.4907H22.1446L22.0697 14.4157C21.8199 14.1657 21.6197 13.841 21.5197 13.4914H1V1.49908C1 1.22404 1.22485 0.999277 1.49967 0.999277H25.4938C25.7689 0.999277 25.9938 1.22404 25.9938 1.49908V4.04738C26.1187 4.02241 26.2436 3.99744 26.3935 3.99744H26.9934V1.49908C26.9934 0.674619 26.3185 0 25.4938 0H1.49967C0.674885 0 0 0.674619 0 1.49908V15.9897C0 16.8142 0.674885 17.4888 1.49967 17.4888H11.4974V18.9876ZM12.497 17.4888H14.4967V18.9876H12.497V17.4888Z" fill="#8C52FF"/>
</g>
<mask id="mask1_2128_392" style="mask-type:luminance" maskUnits="userSpaceOnUse" x="21" y="4" width="11" height="12">
<path d="M21.4971 4.979H32V15.4943H21.4971V4.979Z" fill="white"/>
</mask>
<g mask="url(#mask1_2128_392)">
<path d="M31.0175 8.66948C30.9675 8.54429 30.9175 8.44439 30.8676 8.31952C31.1923 7.84469 31.1424 7.19538 30.7177 6.77049L30.2177 6.27102C29.9928 6.04593 29.668 5.92106 29.3429 5.92106C29.0931 5.92106 28.8682 5.99598 28.668 6.12085C28.5681 6.0709 28.4432 6.02095 28.3182 5.97101C28.1933 5.39628 27.6933 4.9967 27.1184 4.9967H26.4185C25.8189 4.9967 25.3189 5.42126 25.219 5.97101C25.094 6.02095 24.9941 6.0709 24.8692 6.12085C24.669 5.99598 24.4441 5.92106 24.1943 5.92106C23.8692 5.92106 23.5444 6.04593 23.3196 6.27102L22.8196 6.77049C22.3945 7.19538 22.3445 7.84469 22.6697 8.31952C22.6197 8.41942 22.5697 8.54429 22.5198 8.66948C21.9448 8.79435 21.5447 9.29383 21.5447 9.86855V10.5681C21.5447 11.1678 21.9698 11.6673 22.5198 11.7672C22.5697 11.8924 22.6197 11.9923 22.6697 12.1172C22.5447 12.317 22.4698 12.5417 22.4698 12.7918C22.4698 13.1164 22.5947 13.4411 22.8196 13.6662L23.3196 14.1657C23.5444 14.3908 23.8692 14.5156 24.1943 14.5156C24.4441 14.5156 24.669 14.4407 24.8692 14.3158C24.9691 14.3658 25.094 14.4157 25.219 14.4657C25.3439 15.0401 25.8439 15.44 26.4185 15.44H27.1184C27.7183 15.44 28.2183 15.0151 28.3182 14.4657C28.4432 14.4157 28.5431 14.3658 28.668 14.3158C28.8682 14.4407 29.0931 14.5156 29.3429 14.5156C29.668 14.5156 29.9928 14.3908 30.2177 14.1657L30.7177 13.6662C30.9425 13.4411 31.0674 13.1164 31.0674 12.7918C31.0674 12.5417 30.9925 12.317 30.8676 12.1172C30.9175 12.0173 30.9675 11.8924 31.0175 11.7672C31.5924 11.6423 31.9921 11.1429 31.9921 10.5681V9.86855C31.9921 9.29383 31.5674 8.79435 31.0175 8.66948ZM30.9925 10.5931C30.9925 10.718 30.8925 10.8179 30.7676 10.8179H30.2426C30.1427 11.3676 29.9428 11.8421 29.643 12.267L30.0178 12.6419C30.1177 12.7418 30.1177 12.8917 30.0178 12.9666L29.5178 13.4664C29.4678 13.5164 29.4178 13.5413 29.3429 13.5413C29.2679 13.5413 29.218 13.5164 29.168 13.4664L28.7929 13.0915C28.3682 13.3912 27.8682 13.6163 27.3436 13.6912V14.2156C27.3436 14.3408 27.2436 14.4407 27.1184 14.4407H26.4185C26.2936 14.4407 26.1937 14.3408 26.1937 14.2156V13.7411C25.644 13.6412 25.169 13.4411 24.7439 13.1414L24.3192 13.4914C24.2693 13.5413 24.2193 13.5663 24.1443 13.5663C24.0694 13.5663 24.0444 13.5413 23.9941 13.4914L23.4944 12.9916C23.3945 12.8917 23.3945 12.7418 23.4944 12.6669L23.8692 12.292C23.5694 11.8674 23.3445 11.3676 23.2696 10.8429H22.7446C22.6197 10.8429 22.5198 10.743 22.5198 10.6181V9.9185C22.5198 9.79363 22.6197 9.69373 22.7446 9.69373H23.2446C23.3445 9.14398 23.5444 8.66948 23.8442 8.2446L23.4944 7.81972C23.3945 7.71982 23.3945 7.56998 23.4944 7.49506L23.9941 6.99526C24.0444 6.94531 24.0944 6.92034 24.1693 6.92034C24.2443 6.92034 24.2942 6.94531 24.3442 6.99526L24.719 7.37019C25.144 7.07051 25.644 6.84542 26.1687 6.77049V6.24572C26.1687 6.12085 26.2686 6.02095 26.3935 6.02095H27.0934C27.2183 6.02095 27.3186 6.12085 27.3186 6.24572V6.74552C27.8682 6.84542 28.3432 7.04521 28.7679 7.34522L29.143 6.97028C29.193 6.92034 29.243 6.89536 29.3179 6.89536C29.3929 6.89536 29.4428 6.92034 29.4928 6.97028L29.9928 7.47009C30.0927 7.56998 30.0927 7.71982 29.9928 7.79475L29.6177 8.16968C29.9178 8.59423 30.1427 9.09404 30.2177 9.61881H30.7426C30.8676 9.61881 30.9675 9.71871 30.9675 9.84358V10.5931H30.9925Z" fill="#8C52FF"/>
</g>
<path d="M26.7436 8.24463C25.644 8.24463 24.7439 9.14401 24.7439 10.2432C24.7439 11.3427 25.644 12.2421 26.7436 12.2421C27.8432 12.2421 28.7429 11.3427 28.7429 10.2432C28.7429 9.14401 27.8432 8.24463 26.7436 8.24463ZM26.7436 11.2428C26.1936 11.2428 25.7439 10.7929 25.7439 10.2432C25.7439 9.69376 26.1936 9.24391 26.7436 9.24391C27.2935 9.24391 27.7432 9.69376 27.7432 10.2432C27.7432 10.7929 27.2935 11.2428 26.7436 11.2428Z" fill="#8C52FF"/>
</svg>
