<svg width="18" height="26" viewBox="0 0 18 26" fill="none" xmlns="http://www.w3.org/2000/svg">
<path fill-rule="evenodd" clip-rule="evenodd" d="M9.45375 3.91003V4.83628C9.45375 4.86252 9.4725 4.88503 9.49875 4.88503C11.3513 5.04253 12.9563 6.20503 13.6988 7.88877C13.7063 7.90753 13.725 7.91878 13.7438 7.91878H15.8813C16.35 7.91878 16.7325 8.30502 16.7325 8.77378V12.0888C16.7325 12.115 16.71 12.1413 16.6838 12.1413H16.0238C15.9938 12.1413 15.9713 12.115 15.9713 12.0888V10.12C15.9713 10.0938 15.9488 10.0713 15.9188 10.0713H13.8713C13.845 10.0713 13.8225 10.0938 13.8225 10.12V11.0763C13.8225 11.2863 13.65 11.4588 13.44 11.4588C13.23 11.4588 13.0575 11.2863 13.0575 11.0763V10.12C13.0575 10.0938 13.035 10.0713 13.0088 10.0713H10.9613C10.9313 10.0713 10.9088 10.0938 10.9088 10.12V11.0763C10.9088 11.2863 10.74 11.4588 10.5263 11.4588C10.3163 11.4588 10.1475 11.2863 10.1475 11.0763V10.12C10.1475 10.0938 10.125 10.0713 10.095 10.0713H8.0475C8.02125 10.0713 7.99875 10.0938 7.99875 10.12V11.0763C7.99875 11.2863 7.82625 11.4588 7.61625 11.4588C7.40625 11.4588 7.23375 11.2863 7.23375 11.0763V10.12C7.23375 10.0938 7.21125 10.0713 7.185 10.0713H5.1375C5.1075 10.0713 5.085 10.0938 5.085 10.12V11.0763C5.085 11.2863 4.9125 11.4588 4.7025 11.4588C4.4925 11.4588 4.32 11.2863 4.32 11.0763V10.12C4.32 10.0938 4.2975 10.0713 4.27125 10.0713H2.22375C2.19375 10.0713 2.17125 10.0938 2.17125 10.12V12.0888C2.17125 12.115 2.14875 12.1413 2.1225 12.1413H1.45875C1.4325 12.1413 1.41 12.115 1.41 12.0888V8.77378C1.41 8.30502 1.7925 7.91878 2.265 7.91878H4.39875C4.42125 7.91878 4.43625 7.90753 4.4475 7.88877C5.18625 6.20503 6.795 5.04253 8.64375 4.88503C8.67 4.88503 8.68875 4.86252 8.68875 4.83628V1.13502C8.68875 0.876275 8.95125 0.662525 9.24375 0.793775C9.24375 0.793775 9.24375 0.793775 9.2475 0.793775L12.3338 2.02377C12.6525 2.15127 12.6488 2.60128 12.3338 2.72878L9.48375 3.86127C9.465 3.86877 9.45375 3.88753 9.45375 3.91003ZM6.29625 19.7163C6.29625 19.2813 5.77125 19.0788 5.475 19.375L4.1625 20.6838C3.86625 20.9838 4.06875 21.5088 4.50375 21.5088C4.6275 21.5088 4.75125 21.46 4.845 21.3663L6.1575 20.0575C6.2475 19.9638 6.29625 19.84 6.29625 19.7163ZM6.69375 20.5975C6.7875 20.5038 6.91125 20.455 7.035 20.455C7.47 20.455 7.67625 20.98 7.37625 21.28L6.0675 22.5888C5.97375 22.6825 5.85 22.7275 5.72625 22.7275C5.29125 22.7275 5.08875 22.2025 5.385 21.9063L6.69375 20.5975ZM7.91625 21.82L6.6075 23.1288C6.31125 23.425 6.51375 23.95 6.94875 23.95C7.0725 23.95 7.19625 23.905 7.29 23.8113L8.59875 22.5025C8.895 22.2025 8.6925 21.6775 8.2575 21.6775C8.13375 21.6775 8.01 21.7263 7.91625 21.82ZM9.13875 23.0388C9.435 22.7425 9.96 22.945 9.96 23.38H9.96375C9.96375 23.5038 9.915 23.6275 9.82125 23.7213L8.5125 25.0338C8.41875 25.1275 8.295 25.1725 8.17125 25.1725C7.73625 25.1725 7.53 24.6475 7.83 24.3513L9.13875 23.0388ZM7.44375 16.5513C7.09125 17.0088 7.125 17.6463 7.5225 18.0663C8.1675 18.7488 8.83875 19.5213 9.48 19.6113C9.78 19.6525 10.05 19.5625 10.2825 19.3413C10.95 18.7075 10.68 17.965 10.2188 17.3875C10.2038 17.3688 10.2075 17.335 10.2263 17.32L10.4963 17.0875C10.5075 17.0763 10.5225 17.0725 10.5375 17.0763L12 17.3538C12.0075 17.3575 12.015 17.3613 12.0225 17.365L14.2763 19.4688C14.295 19.4875 14.3175 19.5025 14.3363 19.5138L14.745 19.8625C15.0788 20.1513 14.8463 20.8 14.3325 20.8C14.2538 20.8 14.175 20.785 14.1 20.7513C13.9838 20.6988 13.8525 20.7213 13.7588 20.815C13.6538 20.92 13.53 21.0363 13.62 21.235C13.83 21.7038 13.35 22.1838 12.8813 21.9738C12.7613 21.9213 12.63 21.9438 12.54 22.0338C12.4313 22.1425 12.3075 22.2588 12.3975 22.4538C12.5588 22.8213 12.3 23.245 11.8875 23.245C11.8088 23.245 11.73 23.2263 11.6588 23.1963C11.5388 23.14 11.4075 23.1663 11.3175 23.2563C11.2088 23.365 11.085 23.4775 11.175 23.6763C11.3363 24.04 11.0775 24.6588 10.3763 24.3438C10.3425 24.3288 10.335 24.2875 10.3613 24.2613C10.6013 24.0213 10.7213 23.7025 10.7213 23.38H10.725C10.725 22.7163 10.2075 22.1763 9.5475 22.1388C9.52125 22.1388 9.5025 22.1163 9.5025 22.09C9.465 21.4563 8.9625 20.95 8.32875 20.9163C8.3025 20.9163 8.28 20.8938 8.28 20.8675C8.24625 20.2338 7.74 19.7313 7.10625 19.6938C7.08 19.6938 7.0575 19.675 7.0575 19.6488C7.00125 18.5763 5.6925 18.0775 4.935 18.835L4.095 19.675C4.07625 19.6938 4.0425 19.6938 4.02375 19.675L2.97375 18.655C2.9625 18.6438 2.95875 18.6325 2.95875 18.6175V13.5138C2.95875 13.4875 2.98125 13.465 3.0075 13.465H6.42375C6.84375 13.465 7.19625 13.5813 7.53 13.8363C7.93875 14.1513 8.35125 14.455 8.76375 14.7588C8.78625 14.7775 8.79 14.8075 8.77125 14.83L7.44375 16.5513ZM10.5675 13.7538L8.0475 17.0163C7.92375 17.1738 7.93125 17.395 8.07375 17.5413C8.56125 18.0588 9.34875 18.9513 9.66375 18.8538C9.69 18.8463 9.72375 18.8238 9.7575 18.79C9.93 18.6288 9.9375 18.4413 9.87 18.2688C9.77625 18.025 9.5625 17.7775 9.37125 17.59C9.21375 17.4288 9.2175 17.185 9.41625 17.0125L10.1588 16.375C10.2488 16.2963 10.365 16.27 10.4775 16.2888L12.2625 16.63C12.3375 16.6413 12.4013 16.6788 12.45 16.7238L14.5388 18.67C14.5538 18.6888 14.58 18.6888 14.6025 18.6775C14.7975 18.5388 14.9775 18.4263 15.1613 18.31C15.1763 18.2988 15.1875 18.2838 15.1875 18.265V13.54C15.1875 13.51 15.1613 13.4875 15.135 13.4875L11.565 13.5363C11.3175 13.54 10.7325 13.54 10.5675 13.7538ZM15.9488 13.2025V18.6513C15.9488 18.775 16.05 18.8725 16.17 18.8725H17.9213C18.045 18.8725 18.1425 18.775 18.1425 18.6513V13.2025C18.1425 13.0825 18.045 12.9813 17.9213 12.9813C17.34 12.9813 16.755 12.9813 16.17 12.9813C16.05 12.9813 15.9488 13.0825 15.9488 13.2025ZM2.19375 18.6513V13.2025C2.19375 13.0825 2.09625 12.9813 1.9725 12.9813H0.22125C0.10125 12.9813 0 13.0825 0 13.2025V18.6513C0 18.775 0.10125 18.8725 0.22125 18.8725H1.9725C2.09625 18.8725 2.19375 18.775 2.19375 18.6513ZM15.8813 8.68377H2.265C2.2125 8.68377 2.17125 8.72502 2.17125 8.77378V9.25753C2.17125 9.28378 2.19375 9.30628 2.22375 9.30628C6.7875 9.30628 11.355 9.30628 15.9188 9.30628C15.9488 9.30628 15.9713 9.28378 15.9713 9.25753V8.77378C15.9713 8.72502 15.93 8.68377 15.8813 8.68377ZM10.4925 2.64252L11.0438 2.42127C11.0888 2.40627 11.0888 2.34627 11.0438 2.32752L9.52125 1.72377C9.49125 1.70877 9.45375 1.73503 9.45375 1.76877V2.98003C9.45375 3.01753 9.49125 3.04003 9.52125 3.02877L10.4925 2.64252Z" fill="#8C52FF"/>
</svg>
