<svg width="122" height="107" viewBox="0 0 122 107" fill="none" xmlns="http://www.w3.org/2000/svg">
<path d="M89.5936 92.9117L81.9946 91.7919C81.9946 91.7919 76.1092 90.4534 72.9634 90.8127C69.8175 91.1721 67.578 90.9273 65.7394 92.4117C63.9009 93.8909 64.4998 95.4169 64.4998 95.4169C64.4998 95.4169 63.0519 96.8961 63.2394 97.5159C63.4269 98.1305 63.1925 100.406 63.7811 100.953C64.3748 101.5 64.6144 101.526 64.6144 101.526C64.8905 102.042 65.4061 102.391 65.979 102.433C66.9582 102.505 70.1769 101.021 71.1509 101.052C72.13 101.078 76.6092 101.453 78.9217 101.136C81.2342 100.823 82.4686 100 82.4686 100L92.0207 103.005C92.0207 103.005 91.6925 95.7294 89.5936 92.9117Z" fill="#FEC3AA"/>
<path d="M35.9322 45.6043C35.328 44.8438 34.6666 44.1251 33.9478 43.4636C32.9322 42.599 32.0416 40.2397 33.0885 39.6355C34.1353 39.0313 37.8853 42.3126 39.151 43.9376C40.4114 45.5626 43.6041 50.2084 44.552 52.8074C45.4999 55.4115 44.7239 56.7501 45.052 57.3647L47.651 62.4428C47.651 62.4428 45.4114 64.0678 42.9582 65.073C40.4999 66.0834 39.4062 66.1251 39.4062 66.1251C39.4062 66.1251 36.8801 61.2345 36.4791 60.9897C36.078 60.7449 34.3801 59.9428 33.7655 58.9636C33.3749 58.3178 33.0885 57.6251 32.901 56.8907C32.901 56.8907 30.9895 56.4584 30.1874 54.9376C29.3801 53.4115 28.9218 52.1928 29.2082 51.1824C29.4947 50.1772 30.0416 49.6147 30.802 49.3699C31.078 48.6095 31.578 47.948 32.2551 47.4897C33.3332 46.797 33.4062 46.9428 33.5207 46.9845C33.6353 47.0261 33.9478 45.3178 35.9322 45.6043Z" fill="#FEC3AA"/>
<mask id="mask0_2482_12093" style="mask-type:luminance" maskUnits="userSpaceOnUse" x="38" y="46" width="84" height="61">
<path d="M38.3335 46.6664H121.693V106.646H38.3335V46.6664Z" fill="white"/>
</mask>
<g mask="url(#mask0_2482_12093)">
<path d="M39.3647 66.2394C39.2085 66.2394 46.7189 88.7446 50.1824 92.0519C53.6407 95.3592 61.646 91.604 63.2657 90.2654C64.8907 88.9321 71.8126 81.8123 71.8126 81.8123C71.8126 81.8123 73.5366 84.9894 74.0418 86.8592C74.5418 88.729 75.7657 90.4685 75.6616 90.6248C75.5626 90.7862 84.1668 92.1508 85.8907 92.2967C87.1407 92.4217 88.3751 92.6404 89.5939 92.9112C89.5939 92.9112 92.4272 99.4842 92.021 103.005C92.021 103.005 102.339 105.698 108.453 106.14C114.573 106.588 119.083 103.969 120.261 100.807C121.443 97.6456 121.151 92.005 120.912 90.7133C120.667 89.4165 117.891 64.3696 117.891 64.3696C117.891 64.3696 116.167 57.7394 111.182 56.1612C106.198 54.5779 101.156 51.4581 100.511 50.2758C99.8647 49.0987 100.453 48.3383 99.7657 47.9894C99.0782 47.6456 88.2189 46.8123 88.2189 46.8123C88.2189 46.8123 87.271 46.854 87.3282 47.5467C87.3855 48.2342 87.0262 49.3279 86.2345 49.63C85.4428 49.9321 80.0157 50.5206 78.1928 50.5206C76.3647 50.5206 71.6147 51.8019 69.8335 54.3175C68.0522 56.8331 64.3022 65.6925 63.021 67.7185C61.7449 69.7498 55.3074 77.2237 55.3074 77.2237L47.7553 62.4842C47.7553 62.4842 41.0887 66.2394 39.3647 66.2394Z" fill="#A3DFBE"/>
</g>
<path d="M85.1979 22.8545C85.1979 22.8545 80.3021 23.5629 79.3386 26.7399C78.375 29.917 79.4271 32.3754 79.4271 33.5681C79.4271 34.7608 79.6406 39.7087 80.0417 40.8024C80.4479 41.8962 82.6875 45.7035 85.3281 46.4535C87.974 47.1983 89.9531 47.0733 89.9531 47.0733L99.1615 47.7764C99.1615 47.7764 98.2865 43.4483 98.8021 40.8441C98.8021 40.8441 98.5886 40.8441 99.7344 39.6514C100.885 38.4587 101.719 37.0629 101.589 35.5108C101.458 33.9587 100.354 33.3962 99.5625 33.5264C98.7761 33.6566 97.7969 34.4014 97.7969 34.4014C97.7969 34.4014 95.0677 33.8441 93.474 29.0681C91.8802 24.292 90.1146 21.1618 87.5261 21.0889C85.8177 21.042 85.1979 22.8545 85.1979 22.8545Z" fill="#FEC3AA"/>
<path d="M79.3229 32.8232C79.3229 32.8232 76.4687 30.8232 77.2864 26.6097C78.1041 22.3962 81.1666 18.7712 82.9427 17.5628C84.7239 16.3545 88.2187 14.8493 93.8593 14.9899C99.5052 15.1357 101.359 17.3753 102.453 18.6566C103.542 19.9378 105.01 21.891 105.01 21.891C105.01 21.891 106.474 19.8649 108.396 20.542C110.323 21.2191 112.995 22.4951 114.302 25.7451C115.609 28.9951 114.646 34.516 113.786 36.3024C112.922 38.0837 111.901 42.6982 112.391 44.9274C112.88 47.1566 114.302 48.6514 114.417 48.5837C114.531 48.5107 112.995 49.6722 110.021 48.6514C107.047 47.6305 104.75 43.0732 104.292 41.1201C104.016 39.9691 103.943 38.7868 104.062 37.6097C104.062 37.6097 100.266 41.1618 99.6666 41.766C99.0625 42.3701 98.7604 44.068 98.7604 44.068L98.8021 40.8441C98.8021 40.8441 101.156 38.6305 101.505 36.818C101.849 35.0055 101.391 33.8857 100.37 33.542C99.3489 33.193 97.7968 34.4014 97.7968 34.4014C97.7968 34.4014 95.2135 33.2816 93.8177 29.818C92.4271 26.3493 91.6354 23.0264 90.125 22.7972C88.6198 22.568 86.7396 23.2607 86.7396 23.2607C86.7396 23.2607 85.1302 22.542 84.1093 22.7243C83.0885 22.9118 80.5312 24.0785 79.7708 26.0055C79.0104 27.9326 78.7656 30.1878 79.3229 32.8232Z" fill="#734C4C"/>
<path d="M104.953 66.7139C104.995 73.6462 105.771 80.5733 106.417 87.4796C106.589 89.2608 106.76 91.0577 106.917 92.8546C106.964 93.3441 107.724 93.3441 107.682 92.8546C107.089 85.9535 106.286 79.0525 105.901 72.1202C105.797 70.3233 105.724 68.5264 105.714 66.7139C105.714 66.2243 104.953 66.2243 104.953 66.7139Z" fill="black"/>
<path d="M39.5677 53.2969C38.776 51.7709 37.2968 50.8542 36.25 49.5573C35.9895 49.2448 35.6718 48.823 35.7031 48.4063C35.7291 47.9896 36.1927 47.7605 36.5781 47.7448C36.9687 47.7344 37.526 47.9219 37.9583 48.0938C38.375 48.25 38.776 48.4375 39.1666 48.6407C40.0677 49.099 40.8854 49.7292 41.5625 50.4948C41.8802 50.8698 42.4114 50.323 42.0937 49.948C41.4166 49.1719 40.5989 48.5209 39.6979 48.0469C39.2343 47.8021 38.75 47.5886 38.2604 47.4011C37.7552 47.198 37.2395 47 36.6927 46.9844C35.6718 46.9428 34.7395 47.7344 34.9843 48.8125C35.2291 49.8907 36.0625 50.5365 36.7343 51.1823C37.4114 51.8282 38.3906 52.6771 38.9062 53.6875C39.1197 54.1146 39.7812 53.7292 39.5677 53.2969Z" fill="black"/>
<path d="M36.9376 46.0781C36.2501 44.6406 34.8699 43.849 33.8907 42.6563C33.3907 42.0521 32.8439 41.1042 33.0887 40.2865C33.2345 39.8073 33.6928 40.0104 34.021 40.1667C34.3074 40.3125 34.5835 40.4688 34.8543 40.6458C37.3126 42.151 39.3491 44.5104 40.9324 46.901C42.0105 48.5833 42.9585 50.349 43.7449 52.1927C44.2501 53.3281 44.7085 54.5469 44.6095 55.8125C44.5522 56.2031 44.5366 56.6042 44.5939 57.0052C44.6668 57.3802 44.8803 57.6823 45.0522 58.0156C45.8282 59.4688 46.547 60.9635 47.323 62.4115C48.3126 64.3125 49.3647 66.1667 50.4532 68.0052C50.698 68.4375 51.3595 68.0521 51.0991 67.6354C50.0782 65.8958 49.0887 64.1406 48.1407 62.3542C47.3491 60.875 46.6355 59.349 45.8439 57.8698C45.6564 57.5417 45.3855 57.1823 45.3282 56.8073C45.271 56.4323 45.3699 55.9427 45.3855 55.5C45.4116 54.1302 44.8543 52.8073 44.2918 51.5729C43.4012 49.5729 42.3543 47.5625 41.073 45.776C40.1564 44.4844 39.1199 43.276 37.9741 42.1667C36.9532 41.1771 35.8022 40.2135 34.5105 39.5625C33.8907 39.2604 32.9897 38.9479 32.5262 39.6823C32.0678 40.4115 32.3126 41.4219 32.6564 42.125C33.4897 43.8802 35.4428 44.7135 36.2762 46.4531C36.4949 46.901 37.1407 46.5104 36.9376 46.0781Z" fill="black"/>
<path d="M30.8905 49.068C29.7863 48.8857 29.1092 50.0472 28.9061 50.9847C28.6196 52.2347 29.0103 53.443 29.5988 54.5368C29.854 55.0107 30.1144 55.568 30.4738 55.9743C30.6457 56.1461 30.8176 56.2868 31.0207 56.4326C31.6248 56.8909 32.4426 57.3545 33.2186 57.1097C33.9946 56.8649 34.4217 55.9743 34.1092 55.1253C33.9478 54.6618 33.203 54.8649 33.3748 55.3232C33.4634 55.542 33.5467 55.8128 33.4478 56.042C33.3488 56.2764 32.9009 56.4482 32.5988 56.4014C32.0519 56.3024 31.4061 55.8857 31.0363 55.4534C30.6613 55.0211 30.5311 54.6618 30.3176 54.2764C30.0155 53.7555 29.7863 53.1982 29.6405 52.6097C29.5103 52.0055 29.5415 51.3857 29.7394 50.8076C29.8696 50.4482 30.2134 49.7295 30.6873 49.818C31.1613 49.9066 31.38 49.1566 30.8905 49.068Z" fill="black"/>
<path d="M33.3908 46.7134C32.271 46.7707 31.3804 47.4582 30.9325 48.4634C30.4897 49.4738 30.62 50.8227 31.1043 51.9165C31.6095 52.9686 32.2554 53.9425 33.0314 54.8227C33.547 55.4269 34.2085 56.203 35.0731 56.0571C35.672 55.9582 36.2033 55.6977 36.4637 55.0936C36.7241 54.4894 36.6356 53.9165 36.2606 53.5832C35.8908 53.255 35.3595 53.7863 35.7189 54.1144C36.0783 54.4477 35.646 55.1509 35.2137 55.2655C34.7814 55.38 34.7554 55.3696 34.4793 55.1821C33.6356 54.5936 33.0002 53.6144 32.4585 52.7655C31.9116 51.9165 31.1772 50.5675 31.4377 49.3592C31.6356 48.38 32.3439 47.5155 33.3908 47.4738C33.8804 47.4425 33.8804 46.6821 33.3908 46.7134Z" fill="black"/>
<path d="M37.8437 52.9789C37.8594 53.3539 37.7396 53.8435 37.2969 53.8747C36.4792 53.9424 35.8021 53.0258 35.401 52.432C34.5104 51.1664 33.5885 49.6143 33.7187 48.0206C33.776 47.3435 34.0625 46.4216 34.7396 46.1195C35.1875 45.9216 35.6875 45.9633 36.1042 46.2081C36.5052 46.4945 36.8802 45.8331 36.4948 45.5466C36.1042 45.2601 35.4427 45.2133 34.9114 45.2862C34.3802 45.3591 33.6614 45.9216 33.3489 46.5831C32.7552 47.7914 32.875 49.2706 33.4062 50.4633C33.7656 51.2706 34.2083 52.0466 34.7135 52.781C35.3021 53.6299 36.0885 54.6039 37.2083 54.6351C38.3333 54.6612 38.6302 53.8279 38.6042 52.9789C38.5885 52.4893 37.8281 52.4893 37.8437 52.9789Z" fill="black"/>
<path d="M32.6876 56.922C33.3334 58.7761 34.2813 60.7605 36.3751 61.2345L36.1459 61.0626C37.3126 63.0626 38.4741 65.047 39.3803 67.172C39.5678 67.6355 40.2293 67.2449 40.0418 66.8022C39.1772 64.7709 38.0886 62.9011 36.9949 61.0053C36.8647 60.7605 36.7918 60.573 36.5209 60.4897C36.0209 60.3282 35.547 60.0678 35.1407 59.7397C34.2084 58.948 33.8074 57.8438 33.4168 56.7188C33.2605 56.2605 32.5261 56.4584 32.6876 56.922Z" fill="black"/>
<path d="M68.6978 91.9377C67.7342 92.3075 66.828 92.8283 65.9946 93.4429C65.2342 94.0471 64.5571 94.7398 63.9582 95.5002C63.2394 96.4221 62.479 97.7866 63.453 98.8231C63.7811 99.1825 64.3176 98.6356 63.9842 98.2762C63.2655 97.5314 64.2446 96.3804 64.6873 95.8023C65.7967 94.4064 67.2446 93.3283 68.8957 92.6669C69.3592 92.4794 69.1561 91.7502 68.6978 91.9377Z" fill="black"/>
<path d="M69.8593 94.0784C68.8697 94.4795 67.9374 94.9847 67.0728 95.6045C66.2239 96.1461 65.4218 96.7503 64.6614 97.4013C63.828 98.1461 63.0103 99.2242 63.2499 100.433C63.4114 101.198 64.0416 101.641 64.7759 101.813C65.2499 101.917 65.4478 101.183 64.9739 101.078C64.4999 100.979 63.9426 100.563 63.9686 99.8857C63.9999 99.469 64.2447 99.0107 64.5311 98.6357C65.177 97.818 66.0989 97.2138 66.9426 96.6253C67.7916 96.0315 68.9426 95.2555 70.0624 94.8232C70.5051 94.6409 70.3176 93.9065 69.8593 94.0784Z" fill="black"/>
<path d="M71.3804 96.8697C70.0471 97.1666 68.8127 97.802 67.6929 98.5937C67.1304 98.9791 66.5836 99.4114 66.0679 99.8593L65.2919 100.536C65.0784 100.734 64.6877 100.979 64.5471 101.255C64.4013 101.526 64.5159 102.031 64.719 102.276C65.1929 102.922 66.1409 102.823 66.844 102.693C67.9065 102.49 68.9429 102.088 69.9742 101.74C70.4794 101.557 71.0107 101.453 71.5523 101.453C73.2086 101.437 74.8596 101.599 76.5263 101.557C77.6617 101.557 78.7919 101.437 79.9169 101.255C80.8648 101.078 81.8544 100.792 82.6304 100.203C83.0159 99.9166 82.6461 99.2552 82.2398 99.5416C80.9065 100.562 78.9534 100.693 77.3284 100.766C75.7086 100.838 73.995 100.776 72.3179 100.708C71.8127 100.677 71.2971 100.693 70.7919 100.75C70.2502 100.823 69.7294 101.021 69.2138 101.198C68.2086 101.557 67.0471 102.042 65.9534 102.031C65.7398 102.031 65.4638 102 65.3075 101.812C65.2659 101.74 65.2346 101.656 65.2502 101.568C65.2346 101.453 65.2659 101.526 65.2346 101.542L65.2659 101.615L65.495 101.396L65.9534 100.979C66.5107 100.474 67.0888 99.9739 67.6929 99.526C68.87 98.651 70.1461 97.9322 71.5836 97.5989C72.0732 97.4999 71.87 96.7656 71.3804 96.8697Z" fill="black"/>
<path d="M64.7762 94.9117C64.4897 94.2815 64.6877 93.5471 65.1043 93.0263C65.521 92.5106 65.797 92.5106 66.1668 92.3388C67.047 91.9221 67.9481 91.5784 68.8856 91.3336C69.4168 91.2034 69.9585 91.1461 70.5054 91.1461C71.3699 91.0992 72.2293 91.0992 73.0783 91.1304C75.0731 91.1721 77.0835 91.3179 79.0679 91.5784C79.8856 91.6773 80.7033 91.8336 81.5106 92.0211C81.896 92.12 82.271 92.2815 82.672 92.3388C85.7606 92.7398 88.8752 93.0992 91.9949 93.4013C96.3595 93.8336 100.755 94.0211 105.136 93.9638C108.828 93.9065 112.537 93.7763 116.224 93.5888H116.427C116.917 93.5627 116.917 92.7971 116.427 92.8284C113.141 92.9846 109.833 93.0992 106.547 93.1721C104.188 93.2294 101.833 93.2711 99.4793 93.1877C97.1199 93.0992 95.0835 92.9273 92.8856 92.7138C89.5106 92.4117 86.1356 92.0211 82.7606 91.5888L82.5314 91.5627C82.5991 91.5784 82.3543 91.4742 82.297 91.4481L81.797 91.3179C80.9637 91.1148 80.1147 90.9586 79.2658 90.844C77.2293 90.5679 75.1877 90.4117 73.1356 90.37C71.7137 90.3388 70.1199 90.2242 68.7241 90.5836C67.8074 90.8284 66.9168 91.1565 66.0522 91.5471C65.0887 91.9794 64.2866 92.5106 63.9689 93.5888C63.8127 94.1513 63.8699 94.7554 64.1147 95.2867C64.3179 95.7294 64.9741 95.344 64.7762 94.9117Z" fill="black"/>
<path d="M53.3437 70.9275C53.3437 70.9275 52.3802 68.9691 51.8021 68.5681C51.2604 68.1827 49.1771 67.9066 49.1771 67.9066C45.6302 67.8233 3.29684 67.7764 3.29684 67.7764C3.29684 67.7764 0.927049 67.8493 1.53122 70.365C2.13538 72.8806 10.5208 98.6775 10.7656 99.4848C11.0104 100.292 12.3021 101.224 14.5468 101.136C16.7864 101.052 63.9843 100.547 63.9843 100.547C60.8698 90.5264 57.3177 80.6618 53.3437 70.9275Z" fill="#6293F1"/>
<path d="M64.3596 100.448C62.3909 94.1352 60.2659 87.88 57.9534 81.6977C56.7867 78.5779 55.5836 75.4685 54.3336 72.38C53.844 71.156 53.5002 69.7498 52.5367 68.8123C50.969 67.3019 48.7138 67.5206 46.7034 67.505L39.4065 67.4633H29.469L18.969 67.4321H4.22941C2.97941 67.4321 1.51587 67.531 1.13045 69.0258C0.901282 69.9477 1.25545 70.9112 1.51587 71.7914L2.50545 74.9946C3.48462 78.13 4.48982 81.281 5.49503 84.4164C6.50024 87.5467 7.57837 90.8852 8.62524 94.1196L10.3648 99.4425C11.0523 101.583 13.6982 101.541 15.5784 101.5L21.1252 101.427L29.8127 101.312L40.0107 101.198L50.1252 101.078L58.4273 100.995L63.3232 100.937H63.9846C64.4742 100.937 64.4742 100.177 63.9846 100.177L61.4117 100.203L54.719 100.276L45.5002 100.39L35.3023 100.505L25.7034 100.62L18.2919 100.719L14.6148 100.776C13.4377 100.807 11.5263 100.62 11.0992 99.2706C10.9117 98.6664 10.7086 98.0727 10.5211 97.4685C9.67732 94.8383 8.81274 92.2237 7.96378 89.5935C6.90128 86.2706 5.82837 82.9321 4.77628 79.6092C3.94295 77.0258 3.12524 74.4477 2.3492 71.8592C2.13566 71.1404 1.77628 70.2914 1.81795 69.531C1.85962 68.7706 2.63566 68.1821 3.32837 68.1664C4.46378 68.1508 5.59399 68.1821 6.72941 68.1821H14.344L24.2711 68.2081H34.5679L43.3284 68.2498C45.1096 68.2498 46.8752 68.2498 48.6565 68.281C49.8961 68.2967 51.1304 68.4842 52.0471 69.4164C52.4377 69.8071 52.7398 70.2654 52.9117 70.781C53.1982 71.6612 53.5732 72.4946 53.9169 73.3435C56.344 79.3956 58.6148 85.4946 60.6982 91.6612C61.7138 94.6508 62.6773 97.6456 63.6252 100.651C63.7711 101.109 64.5002 100.906 64.3596 100.448Z" fill="black"/>
<path d="M73.7657 58.4894C74.7136 63.2029 74.198 68.1092 72.2605 72.5102C71.4116 74.4217 70.422 76.2446 70.5939 78.4061C70.6511 79.4269 70.8647 80.4165 71.2084 81.38C71.5105 82.229 71.9428 83.0206 72.3439 83.8123C73.4532 86.0415 74.4689 88.3123 75.1043 90.729C75.2345 91.2029 75.9636 90.9998 75.8334 90.5259C75.2761 88.3852 74.4116 86.3279 73.4376 84.3279C72.573 82.5467 71.5991 80.8488 71.3803 78.8331C71.2553 77.8019 71.3543 76.7654 71.6824 75.7706C72.0314 74.7394 72.547 73.7602 72.9793 72.7654C74.9584 68.2081 75.4897 63.1613 74.5001 58.2863C74.4011 57.8123 73.6668 58.0154 73.7657 58.4894Z" fill="black"/>
<path d="M56.3125 76.6928C60.2813 72.6251 63.5677 67.7762 66.099 62.7032C67.2292 60.4272 67.9792 57.9428 69.3698 55.8126C70.7657 53.6876 72.573 52.2189 74.8438 51.4012C76.6563 50.7397 78.5365 50.8803 80.4323 50.8387C81.7084 50.797 82.974 50.6824 84.2396 50.4949C85.1875 50.3491 86.3646 50.1772 87.1094 49.5314C87.5 49.2137 87.6146 48.7814 87.6563 48.2918C87.6719 48.047 87.573 47.5314 87.8438 47.4324C88.1146 47.3282 88.6927 47.4324 89.0209 47.4324C90.573 47.4585 92.1407 47.5314 93.7032 47.6303C95.2813 47.6876 96.8646 47.8491 98.4271 48.0782C98.6875 48.1043 98.9323 48.1616 99.1771 48.2241C99.3177 48.2501 99.5521 48.3647 99.6094 48.3647C99.6667 48.3647 99.5938 48.422 99.6094 48.3491C99.6198 48.2814 99.5365 48.1512 99.5365 48.1512C99.5365 48.1512 99.5521 48.4533 99.5521 48.4637C99.5782 48.896 99.6667 49.3126 99.7813 49.7293C99.9219 50.2189 100.182 50.6668 100.526 51.0418C100.87 51.4012 101.401 50.8543 101.057 50.5053C100.427 49.8595 100.411 49.0001 100.297 48.1616C100.24 47.7449 99.8386 47.6043 99.4636 47.5001C98.1302 47.1407 96.6615 47.0835 95.2813 46.9689C93.5625 46.8387 91.8386 46.7553 90.1146 46.698L88.3438 46.6668C87.9167 46.6668 87.3959 46.6251 87.1094 47.0262C86.823 47.4324 86.9532 47.9793 86.8646 48.4376C86.7813 48.896 86.3646 49.1564 85.8907 49.3282C84.7396 49.7293 83.4636 49.8595 82.2552 49.9637C80.2136 50.146 78.1042 49.9064 76.0625 50.2762C74.0261 50.6512 71.7709 51.9012 70.2344 53.5157C68.698 55.1251 67.5313 57.5678 66.573 59.8543C64.3177 65.2345 61.0105 70.323 57.1459 74.6824C56.7032 75.1824 56.2448 75.672 55.7813 76.1616C55.323 76.6512 55.9688 77.0522 56.3125 76.6928Z" fill="black"/>
<path d="M61.4687 91.3746C61.9582 92.3382 63.3072 90.6976 63.7135 90.3538C64.6041 89.5778 65.5051 88.8121 66.3957 88.0101C68.4114 86.2132 70.3645 84.2705 71.8124 81.984C72.0728 81.5673 71.4114 81.1767 71.151 81.5934C69.8749 83.6246 68.1666 85.3642 66.3957 86.9892C65.578 87.734 64.7447 88.4528 63.9114 89.1715L62.8801 90.0778L62.3905 90.5101L62.177 90.7132L62.0728 90.8121C61.9582 90.8851 61.9739 90.9423 62.1301 90.984C61.9166 90.5517 61.2551 90.9423 61.4687 91.3746Z" fill="black"/>
<mask id="mask1_2482_12093" style="mask-type:luminance" maskUnits="userSpaceOnUse" x="81" y="49" width="41" height="58">
<path d="M81 49.3329H121.693V106.645H81V49.3329Z" fill="white"/>
</mask>
<g mask="url(#mask1_2482_12093)">
<path d="M101 51.0673C102.839 52.6767 104.891 53.8589 107.135 54.7912C109.375 55.7287 111.917 56.4579 113.828 58.1454C115.51 59.6402 116.844 61.7235 117.26 63.9527C117.333 64.3537 117.375 64.76 117.432 65.161C117.792 67.5621 118.135 69.9631 118.469 72.3642C118.943 75.8589 119.401 79.3381 119.802 82.8329C120.203 86.3277 120.552 89.4631 120.75 92.7808C120.911 95.3433 121.052 97.9735 120.047 100.39C118.51 104.114 114.63 105.421 110.896 105.708C107.521 105.968 104.161 105.322 100.859 104.645C97.1198 103.854 93.4167 102.906 89.7396 101.901C87.4271 101.255 85.1146 100.593 82.8281 99.9006L82.4844 99.786C82.0104 99.6402 81.8125 100.375 82.2865 100.52C83.9636 101.052 85.6719 101.541 87.3698 102.031C90.9896 103.052 94.6354 104.026 98.3021 104.864C101.677 105.625 105.151 106.416 108.63 106.531C112.104 106.645 116.714 105.984 119.286 103.052C121.24 100.822 121.682 97.8433 121.615 94.9683C121.542 92.0933 121.224 88.8017 120.896 85.7392C120.505 82.0829 120.047 78.4319 119.557 74.7965C119.172 71.9319 118.771 69.0725 118.354 66.2235C118.25 65.5048 118.151 64.8017 118.036 64.0829C117.833 62.8589 117.406 61.6819 116.786 60.6037C115.578 58.4579 113.714 56.7496 111.474 55.7392C109.219 54.7496 106.833 53.9996 104.677 52.7808C103.557 52.1298 102.51 51.385 101.531 50.536C101.172 50.2079 100.625 50.7496 101 51.0673Z" fill="black"/>
</g>
<path d="M71.0938 76.1198C71.4375 72.9531 69.5573 82.2865 68.4219 85.25L71.7552 81.3229C71.7552 81.3229 70.8073 78.7656 71.0938 76.1198Z" fill="black"/>
<path d="M105.813 76.1454C105.813 76.1454 106.558 88.5569 104.547 90.984C103.344 92.411 101.589 93.26 99.7242 93.3017C99.7242 93.3017 99.3648 93.7183 103.099 93.5152C106.834 93.3173 107.74 94.8225 107.021 89.8798C106.302 84.9319 105.813 76.1454 105.813 76.1454Z" fill="black"/>
<path d="M88.6616 50.3334C91.2189 50.6511 93.8022 50.5678 96.3491 50.1199C96.8335 50.0313 96.6356 49.3022 96.146 49.3855C93.6772 49.8178 91.146 49.8751 88.6616 49.573C88.172 49.5157 88.172 50.2761 88.6616 50.3334Z" fill="black"/>
<path d="M84.9272 59.0469C90.7293 58.9219 96.5314 58.4323 102.281 57.5834C102.755 57.5105 102.552 56.7605 102.078 56.8334C96.4064 57.6823 90.672 58.1719 84.9272 58.2865C84.4377 58.3021 84.4377 59.0626 84.9272 59.0469Z" fill="black"/>
<path d="M89.1929 93.1715C90.4013 96.1611 91.2346 99.2809 91.6773 102.474C91.7346 102.963 92.469 102.76 92.4117 102.276C91.9638 99.083 91.1304 95.9632 89.9273 92.9684C89.7554 92.5257 89.0054 92.7132 89.1929 93.1715Z" fill="black"/>
<path d="M39.8696 66.8434C40.3123 66.3226 41.1613 66.2549 41.7759 66.0517C42.4946 65.8069 43.2134 65.5361 43.9061 65.2184C45.3123 64.5726 46.6353 63.7496 47.854 62.7861C48.2394 62.484 47.7082 61.9528 47.3228 62.2549C46.0728 63.234 44.7238 64.0361 43.2707 64.6715C42.5676 64.9736 41.8488 65.234 41.1196 65.4476C40.4686 65.6351 39.7811 65.7653 39.3384 66.3121C38.8905 66.859 39.5519 67.2184 39.8696 66.8434Z" fill="black"/>
<path d="M36.2606 55.3702C37.4689 55.3806 38.6616 55.615 39.7814 56.0577C39.9845 56.115 40.1981 56.0004 40.2398 55.7868C40.2866 55.5681 40.1825 55.3702 39.9689 55.3233C38.7762 54.865 37.5262 54.6202 36.2502 54.6046C35.7762 54.6046 35.7762 55.3702 36.2606 55.3702Z" fill="black"/>
<path d="M78.4376 29.3124C78.7084 30.8489 78.8959 32.4062 78.9949 33.9687C79.0834 35.4947 78.9949 37.0364 79.1251 38.5416C79.2813 40.526 80.1459 42.5676 81.5678 43.9635C82.9897 45.3593 84.2813 46.6562 86.0053 47.1718C88.1615 47.8176 90.198 47.0156 91.9949 45.7916C93.1459 45.0312 94.1928 44.1249 95.1251 43.1041C95.4844 42.7291 95.8022 42.3124 96.0574 41.8645C96.2917 41.4478 95.6303 41.0624 95.4011 41.4895C94.7501 42.6562 93.5886 43.6353 92.5522 44.4374C90.8751 45.7499 88.8074 47.0572 86.5782 46.5364C84.9011 46.1353 83.5053 44.7968 82.2969 43.6197C81.8959 43.2291 81.5522 42.901 81.2813 42.4426C80.5886 41.2447 80.0157 40.0416 79.8855 38.6301C79.7553 37.2187 79.8594 35.526 79.7553 33.9687C79.6563 32.3489 79.4532 30.7239 79.1667 29.1093C79.0834 28.6353 78.349 28.8385 78.4376 29.3124Z" fill="black"/>
<path d="M98.1146 34.9062C98.5885 34.2031 99.5781 33.1927 100.484 33.8697C101.391 34.5468 101.359 35.5833 101.26 36.4322C101.115 37.3802 100.672 38.2552 99.9948 38.9322C99.3177 39.6249 98.4271 40.4114 97.4375 40.5416C96.9479 40.5989 96.9479 41.3645 97.4375 41.3072C98.7187 41.1458 99.8646 40.2239 100.698 39.2916C101.531 38.3697 102.021 37.1927 102.047 35.9531C102.047 34.8645 101.604 33.4114 100.469 33.0104C99.3333 32.6041 98.1146 33.5416 97.4687 34.5156C97.1927 34.9322 97.8542 35.3072 98.1146 34.9062Z" fill="black"/>
<path d="M100.443 34.9326C99.7344 34.693 99.1198 35.3232 98.7188 35.8128C98.3021 36.3284 97.9844 36.9066 97.7708 37.5212C97.7136 37.7243 97.8386 37.9274 98.0261 37.9847C98.0261 37.9847 98.0261 37.9847 98.0417 37.9847C98.2292 38.042 98.4271 37.9378 98.4844 37.7555C98.4844 37.7399 98.4844 37.7399 98.5 37.7243C98.5313 37.6514 98.5469 37.5941 98.5729 37.5368L98.6146 37.4222C98.6042 37.4639 98.6146 37.4222 98.6302 37.4066L98.8021 37.0472L99.0052 36.7034L99.1354 36.5316L99.1771 36.4743C99.1771 36.4743 99.25 36.3753 99.2031 36.417C99.3646 36.2139 99.5521 36.0159 99.7344 35.8389L99.8229 35.7555C99.7917 35.7816 99.8386 35.7555 99.849 35.7555L99.9531 35.6826H99.9792L100.083 35.6566H100.198C100.141 35.6566 100.224 35.667 100.24 35.6826C100.443 35.7399 100.656 35.6253 100.698 35.4222C100.755 35.2243 100.641 35.0055 100.443 34.9482V34.9326Z" fill="black"/>
<path d="M98.7032 36.875C98.6615 36.849 98.7761 36.9063 98.7032 36.875L98.7449 36.9063C98.7032 36.875 98.7292 36.875 98.7449 36.9063V36.9323C98.7761 36.948 98.7605 36.948 98.7292 36.9063L98.8022 37.0209C98.8022 37.0365 98.8178 37.0625 98.8178 37.0782C98.8178 37.0938 98.8334 37.1615 98.8438 37.2084V37.3959C98.8438 37.4063 98.8334 37.4948 98.8438 37.4219C98.8594 37.349 98.8334 37.4532 98.8334 37.4636C98.8178 37.5521 98.7865 37.625 98.7605 37.7084L98.7292 37.7657L98.6719 37.8698L98.6303 37.9271L98.5469 38.0261L98.5001 38.0573L98.474 38.0834H98.4428L98.3855 38.125C98.198 38.2292 98.1407 38.4584 98.2449 38.6303C98.2449 38.6303 98.2449 38.6303 98.2449 38.6459C98.3594 38.8178 98.573 38.875 98.7605 38.7865C99.2032 38.5313 99.5053 38.0834 99.5782 37.5678C99.6667 37.0209 99.4949 36.3021 98.8907 36.1303C98.6876 36.073 98.4844 36.1719 98.4167 36.375V36.3855C98.3594 36.5886 98.474 36.8021 98.6719 36.875C98.6876 36.875 98.6876 36.875 98.7032 36.875Z" fill="black"/>
<path d="M81.3801 30.7913L81.578 30.6767L81.6405 30.6507C81.6822 30.6194 81.5676 30.6767 81.6249 30.6507L81.7239 30.6194L81.9374 30.5622C81.9947 30.5465 81.9374 30.5778 81.927 30.5622H82.3541L82.4687 30.5934L82.5728 30.6351C82.6301 30.6507 82.5728 30.6351 82.5572 30.6194L82.6145 30.6507L82.828 30.7653C83.0051 30.8799 83.2343 30.8226 83.3489 30.6351C83.4322 30.4476 83.3749 30.2184 83.203 30.1038C82.5312 29.6715 81.6666 29.6715 81.0051 30.1194C80.8176 30.234 80.7603 30.4632 80.8645 30.6507C80.9635 30.8226 81.1926 30.8955 81.3801 30.7913C81.3801 30.7809 81.3801 30.7809 81.3801 30.7809V30.7913Z" fill="black"/>
<path d="M82.2709 33.6095C82.3543 33.698 82.4115 33.8126 82.4428 33.9272C82.5313 34.172 82.5574 34.448 82.5418 34.7032C82.5418 34.8178 82.5157 34.9324 82.4584 35.0365C82.4115 35.1355 82.3126 35.224 82.198 35.2345C82.0261 35.2345 81.8803 35.1511 81.797 35.0053C81.6824 34.8334 81.6251 34.6199 81.6407 34.4167C81.6407 34.2136 81.6824 34.0001 81.7553 33.8126C81.7657 33.7397 81.797 33.672 81.8543 33.6251C81.9115 33.5678 81.9949 33.5261 82.0834 33.5261C82.1563 33.5261 82.2136 33.5678 82.2709 33.6095Z" fill="black"/>
<path d="M82.0676 33.8124L82.1145 33.8853L82.1562 33.9582H82.1405C82.1562 33.9686 82.1562 33.9842 82.1562 33.9999C82.1822 34.0415 82.1978 34.0988 82.2134 34.1561C82.2291 34.2134 82.2395 34.2863 82.2395 34.3436C82.2551 34.4738 82.2707 34.604 82.2551 34.7342V34.7759C82.2395 34.8072 82.2395 34.8332 82.2291 34.8644V34.9061C82.2395 34.8644 82.2134 34.9061 82.2134 34.9217V34.9478C82.1978 34.979 82.2395 34.9322 82.2134 34.9478L82.1822 34.979C82.1822 34.979 82.2291 34.9478 82.1978 34.9634L82.1562 34.9947C82.1718 34.979 82.1978 34.979 82.1718 34.979C82.1405 34.9634 82.1405 34.979 82.1718 34.979H82.1145L82.0676 34.9322C82.052 34.9217 82.0676 34.9322 82.0676 34.9478C82.0676 34.9634 82.052 34.9217 82.052 34.9061C82.0259 34.8749 82.0103 34.8488 81.9947 34.8176C81.9947 34.8176 81.9843 34.7915 81.9947 34.8072C82.0103 34.8176 81.9843 34.7915 81.9843 34.7915C81.9843 34.7915 81.9687 34.7342 81.9687 34.703C81.9687 34.6769 81.953 34.6457 81.9374 34.6197V34.3905C81.9374 34.3749 81.953 34.3019 81.9374 34.3332C81.927 34.3592 81.953 34.2603 81.9687 34.229C81.9843 34.1561 81.9947 34.0728 82.0259 33.9999C82.0259 33.9686 82.0416 33.9269 82.052 33.9009C82.0676 33.8697 82.052 33.9009 82.052 33.9113C82.052 33.9269 82.0676 33.8697 82.0416 33.9009C82.0103 33.9269 82.0676 33.8853 82.0676 33.8697C82.0676 33.854 82.0416 33.9113 82.0676 33.8853C82.0676 33.8697 82.0676 33.8697 82.0832 33.8697C82.0259 33.9009 82.0832 33.8853 82.0989 33.8697C82.1145 33.854 82.0416 33.8853 82.052 33.854L82.1405 33.9113C82.2707 33.9999 82.4426 33.9582 82.5155 33.828L82.5312 33.8124C82.5989 33.6822 82.5572 33.5103 82.427 33.4269C82.2551 33.2811 82.0103 33.2655 81.8124 33.3697C81.6405 33.4686 81.5103 33.6249 81.4791 33.828C81.3384 34.1874 81.3228 34.5728 81.4374 34.9322C81.552 35.2915 81.8801 35.6665 82.3124 35.5676C82.7447 35.4686 82.8437 34.979 82.8437 34.604C82.8437 34.3905 82.8176 34.1717 82.7603 33.9686C82.7134 33.7863 82.6145 33.6092 82.4843 33.4686C82.3697 33.354 82.1978 33.354 82.0832 33.4686C81.9947 33.5676 81.9947 33.7134 82.0676 33.8124Z" fill="black"/>
<path d="M89.8543 32.9791C89.9429 33.0677 90.0002 33.1666 90.0262 33.2812C90.1147 33.526 90.1408 33.7968 90.1252 34.0573C90.1252 34.1718 90.0991 34.2864 90.0418 34.3906C90.0002 34.4896 89.896 34.5729 89.7814 34.5885C89.6252 34.6041 89.4689 34.5156 89.3804 34.375C89.2658 34.2031 89.2241 33.9843 89.2241 33.7864C89.2241 33.5677 89.2658 33.3698 89.3387 33.1666C89.3491 33.0937 89.3804 33.0208 89.4377 32.9791C89.495 32.9218 89.5835 32.8906 89.6668 32.8906C89.7397 32.8906 89.797 32.9375 89.8543 32.9791Z" fill="black"/>
<path d="M89.6508 33.1826L89.6977 33.2399L89.7393 33.3076C89.755 33.3388 89.7237 33.3076 89.7237 33.2972C89.7393 33.3076 89.7393 33.3232 89.7393 33.3388C89.7654 33.3961 89.781 33.4534 89.7966 33.5107C89.8122 33.568 89.8227 33.6253 89.8227 33.6826C89.8383 33.8128 89.8539 33.943 89.8383 34.0732V34.1149C89.8227 34.1461 89.8227 34.1722 89.8122 34.2034V34.2451C89.8122 34.2034 89.7966 34.2451 89.7966 34.2451C89.7966 34.2607 89.7966 34.2607 89.781 34.2711C89.7654 34.318 89.8122 34.2607 89.781 34.2711L89.755 34.3024C89.755 34.3024 89.781 34.2867 89.7654 34.3024H89.7393L89.6977 34.2711C89.682 34.2711 89.6508 34.2451 89.682 34.2607L89.6404 34.2294C89.6404 34.2138 89.6247 34.2138 89.6247 34.2034L89.5675 34.1149C89.5675 34.1149 89.5518 34.0732 89.5675 34.0992V34.0732C89.5675 34.0419 89.5518 34.0315 89.5518 34.0003C89.5362 33.969 89.5362 33.9274 89.5258 33.9013V33.6722C89.5258 33.6565 89.5362 33.5836 89.5258 33.6253C89.5362 33.5836 89.5362 33.5524 89.5362 33.5107C89.5675 33.4378 89.5831 33.3701 89.6091 33.2972C89.6091 33.2659 89.6247 33.2242 89.6508 33.1826C89.6404 33.1669 89.6404 33.193 89.6247 33.193C89.6091 33.193 89.6508 33.1669 89.6247 33.1826H89.6508C89.682 33.1513 89.6247 33.2086 89.6508 33.1826C89.6508 33.1513 89.6664 33.1826 89.6664 33.1669C89.6664 33.1513 89.6664 33.1826 89.682 33.1826C89.6977 33.1826 89.6247 33.1826 89.6404 33.1669L89.7237 33.2242C89.8539 33.2972 90.0258 33.2503 90.1143 33.1253C90.182 32.9794 90.1404 32.8076 90.0102 32.719C89.8227 32.5888 89.5935 32.5784 89.3956 32.6774C89.2237 32.7659 89.1091 32.9378 89.0622 33.1253C88.9372 33.4847 88.9216 33.8701 89.0206 34.2294C89.1352 34.5888 89.4685 34.9794 89.8956 34.8649C90.3279 34.7503 90.4268 34.2867 90.4268 33.9013C90.4268 33.6826 90.4008 33.469 90.3279 33.2659C90.3018 33.0784 90.1977 32.9065 90.0675 32.7763C89.9685 32.6461 89.7966 32.6201 89.6664 32.719C89.5362 32.8232 89.5102 32.9951 89.6091 33.1253C89.6247 33.1513 89.6404 33.1669 89.6664 33.1826H89.6508Z" fill="black"/>
<path d="M90.2396 29.5574C89.4688 29.2137 88.5782 29.2241 87.8282 29.6147C87.6563 29.7137 87.5834 29.9428 87.6979 30.1303C87.8125 30.3022 88.0469 30.3647 88.2188 30.2605L88.3334 30.2033C88.2604 30.2449 88.375 30.1876 88.3907 30.1876L88.6354 30.1199H88.7917L89.0209 30.0887H89.2657C89.2813 30.0887 89.4219 30.1043 89.3229 30.0887H89.4219L89.6511 30.146L89.7813 30.1876L89.8542 30.2189C90.0417 30.3178 90.2709 30.2449 90.3698 30.073C90.4584 29.9168 90.4271 29.6408 90.2396 29.5574Z" fill="black"/>
<path d="M84.1929 34.9952C84.0679 35.292 83.8804 35.5681 83.6616 35.8129C83.4168 36.0837 83.2345 36.4014 83.0887 36.7348C82.7866 37.4796 83.12 38.1723 83.4898 38.8025C83.8648 39.4379 84.4116 38.8441 84.1512 38.4275C83.9793 38.1723 83.8491 37.8806 83.7502 37.5941C83.6929 37.3389 83.7502 37.0473 83.8804 36.8181C84.1929 36.2452 84.6981 35.8129 84.9429 35.1931C85.0002 34.9952 84.87 34.7764 84.6668 34.7191C84.4689 34.6775 84.2502 34.792 84.1929 34.9952Z" fill="black"/>
<path d="M85.5312 41.6352C86.8385 41.7081 88.1042 41.2446 89.0781 40.3852C89.224 40.2237 89.224 39.9946 89.0781 39.8383C88.9219 39.7081 88.7031 39.7081 88.5469 39.8383C87.7135 40.5727 86.6354 40.9477 85.5312 40.8748C85.3177 40.8748 85.1563 41.031 85.1406 41.2446C85.1563 41.4633 85.3177 41.6196 85.5312 41.6352Z" fill="black"/>
<path d="M79.2238 29.3285C79.1093 26.0316 81.6405 23.2451 84.9113 23.0264C85.4009 23.0003 85.4166 22.2399 84.9113 22.266C81.2238 22.4951 78.3645 25.6149 78.4634 29.3285C78.4791 29.8181 79.2395 29.8181 79.2238 29.3285Z" fill="black"/>
<path d="M85.9897 22.4534C86.4636 20.7868 88.6772 21.3024 89.6511 22.1253C90.9324 23.1722 91.5209 24.8545 92.0782 26.3493C92.6407 27.8441 93.2449 29.5732 94.0209 31.1097C94.6668 32.3909 95.5157 33.6826 96.8803 34.2868C97.323 34.4899 97.7136 33.8284 97.2657 33.6253C96.0001 33.0784 95.2709 31.9014 94.6668 30.7243C94.0626 29.542 93.4584 27.8597 92.9116 26.3961C92.0522 24.1201 90.948 21.0316 88.1616 20.6149C86.9532 20.443 85.6043 21.0159 85.2449 22.2503C85.1147 22.7243 85.8491 22.9274 85.9897 22.4534Z" fill="black"/>
<path d="M87.2552 23.3753C88.4323 22.641 89.9688 22.8701 90.9011 23.891C91.2344 24.266 91.7656 23.7191 91.4479 23.3597C90.3281 22.0941 88.3021 21.8076 86.8646 22.7139C86.4636 22.9691 86.8386 23.6305 87.2552 23.3753Z" fill="black"/>
<path d="M85.0832 20.9014C86.3801 18.5576 88.8905 17.3753 91.2915 16.4847C91.7499 16.3128 91.5467 15.5785 91.0884 15.7503C88.5051 16.7139 85.8176 17.9951 84.4269 20.5264C84.1926 20.943 84.854 21.3337 85.0832 20.9014Z" fill="black"/>
<path d="M99.1199 43.7087C99.1199 43.0733 99.2033 42.4275 99.6512 41.9379C100.094 41.4483 100.682 41.1775 101.203 40.8181C103.354 39.3806 104.833 37.2764 105.943 34.9483C107.38 31.9275 107.208 28.3181 106.302 25.1723C105.781 23.4587 105.068 21.8233 104.146 20.2973C103.401 19.0473 102.552 17.7504 101.36 16.8754C99.1929 15.266 96.1616 14.5889 93.5054 14.5733C92.9845 14.5733 92.4845 14.615 91.9793 14.615C91.4324 14.6046 90.8908 14.6306 90.3439 14.6723C86.0314 15.0629 81.7397 16.9014 79.4272 20.7139C78.5783 22.1098 77.9481 23.7035 77.4741 25.2556C77.1304 26.4066 76.8699 27.6306 76.9116 28.8233C76.9689 30.2348 77.4585 31.5577 78.521 32.49C78.6929 32.6462 78.8804 32.7921 79.0835 32.9379C79.4689 33.2243 79.8595 32.5629 79.4533 32.2764C78.5939 31.6566 78.0054 30.7504 77.7762 29.7139C77.271 27.24 78.4064 24.5108 79.4272 22.3233C80.4585 20.0941 82.1824 18.2816 84.3543 17.1358C86.0314 16.2712 87.8699 15.7087 89.7554 15.5108C90.6147 15.391 91.4793 15.4066 92.3387 15.3806C93.5627 15.3493 94.7241 15.3493 95.9429 15.5681C97.1668 15.7816 98.6877 16.2296 99.922 16.8754C101.156 17.5212 101.979 18.4118 102.755 19.5473C103.729 20.9587 104.537 22.4848 105.136 24.0941C106.229 27.0421 106.735 30.6514 105.667 33.6723C105.11 35.2087 104.292 36.6462 103.255 37.9275C102.641 38.7035 101.906 39.391 101.089 39.9691C100.068 40.6879 98.8022 41.2452 98.4741 42.5681C98.3856 42.9431 98.3595 43.3181 98.3595 43.7087C98.3699 44.1931 99.1356 44.1931 99.1199 43.7087Z" fill="black"/>
<path d="M104.963 22.339C105.427 21.464 106.318 20.9588 107.276 20.8442C108.239 20.7296 109.401 21.115 110.292 21.6775C112.219 22.9015 113.682 24.8286 114.203 27.0578C115.323 31.8598 112.792 36.5005 112.13 41.1619C111.818 43.4171 111.802 45.8911 113.396 47.688C113.729 48.0473 114.26 47.5161 113.927 47.1411C112.307 45.3182 112.62 42.5421 113.052 40.313C113.542 37.7088 114.458 35.2244 114.932 32.6203C115.333 30.3755 115.422 27.9744 114.63 25.8025C113.797 23.6203 112.203 21.8234 110.151 20.714C108.213 19.7088 105.437 19.8078 104.302 21.9484C104.088 22.3807 104.734 22.7713 104.963 22.339Z" fill="black"/>
<path d="M104.834 22.2499C105.813 22.1249 106.688 23.2603 107.162 23.979C107.636 24.6978 108.011 25.5467 108.068 26.3957C108.11 27.1145 107.995 27.8332 107.74 28.5051C107.537 29.0415 107.209 29.7707 106.615 29.9582C106.026 30.1457 106.344 30.8384 106.818 30.6926C107.594 30.4478 108.052 29.7134 108.339 29.0103C108.63 28.3072 108.917 27.1978 108.828 26.2915C108.745 25.3853 108.255 24.177 107.636 23.3176C107.021 22.453 106 21.3332 104.834 21.4895C104.36 21.5467 104.349 22.3072 104.834 22.2499Z" fill="black"/>
<path d="M103.542 38.2554C103.588 40.9169 104.463 43.5054 106.042 45.646C107.609 47.7346 109.948 49.6617 112.677 49.7189C113.167 49.7294 113.167 48.9689 112.677 48.9533C110.151 48.896 107.922 46.9846 106.531 45.0158C105.125 43.0471 104.349 40.6877 104.302 38.2554C104.292 37.7658 103.531 37.7658 103.542 38.2554Z" fill="black"/>
<path d="M108.453 43.0574C108.974 44.4845 109.646 45.8907 110.708 47.0001C111.776 48.1043 113.036 48.7397 114.49 48.7814C114.979 48.797 114.979 48.0366 114.49 48.0209C111.672 47.9324 110.052 45.2136 109.187 42.8595C109.016 42.4116 108.281 42.5991 108.453 43.0574Z" fill="black"/>
<path d="M94.4634 43.2608C94.4634 43.2608 91.3332 46.8285 87.3957 48.4379L86.979 47.0264C86.979 47.0264 90.4738 46.3546 90.9165 46.0785C92.0675 45.3441 94.4634 43.2608 94.4634 43.2608Z" fill="black"/>
<path d="M99.0624 40.7134V40.6718L98.8749 41.0051L98.9166 40.9739L98.6301 41.0155H98.6874L98.4582 40.8436C98.4166 40.7707 98.401 41.1301 98.3853 41.203C98.3853 41.3332 98.3697 41.4634 98.3593 41.5936C98.328 41.8801 98.302 42.1822 98.2864 42.4686C98.2447 43.0311 98.2135 43.578 98.2135 44.1353C98.1978 45.2759 98.302 46.4218 98.4843 47.5468C98.5728 48.0364 99.3072 47.8332 99.2187 47.3436C98.9895 45.9218 98.9166 44.4686 99.0051 43.0311C99.0468 42.3124 99.1353 41.5936 99.1926 40.8749C99.203 40.6145 99.1197 40.328 98.8332 40.2707C98.5885 40.2239 98.3593 40.3853 98.3124 40.6145C98.3124 40.6457 98.302 40.6718 98.302 40.703C98.2707 41.1874 99.0312 41.1874 99.0624 40.703V40.7134Z" fill="black"/>
<path d="M98.8332 46.3956C97.2238 46.3956 95.9165 44.7133 95.9165 42.6716C95.9165 41.1768 96.5884 39.8383 97.6561 39.2498C97.8384 39.1456 98.0728 39.2185 98.1717 39.3904C98.2707 39.5623 98.2134 39.7966 98.0415 39.9112C98.0415 39.9112 98.0415 39.9112 98.0259 39.9112C97.2082 40.3696 96.6769 41.4477 96.6769 42.6716C96.6769 44.2966 97.6405 45.6352 98.8332 45.6352C100.026 45.6352 100.984 44.2966 100.984 42.6716C100.984 41.4477 100.453 40.3696 99.6353 39.9112C99.4478 39.8071 99.3748 39.5779 99.479 39.3904C99.5936 39.2185 99.8071 39.1612 99.9946 39.2498C101.057 39.8383 101.75 41.1768 101.75 42.6716C101.75 44.7133 100.443 46.3956 98.8332 46.3956Z" fill="black"/>
<path d="M80.8179 46.396C79.2554 46.396 77.9741 44.7554 77.9741 42.7554C77.9741 41.5471 78.4481 40.4117 79.2397 39.7398L79.5106 40.0106L79.7554 40.2971C79.1095 40.8439 78.7345 41.7658 78.7345 42.7554C78.7345 44.3387 79.672 45.6356 80.8179 45.6356C81.495 45.6356 82.1408 45.1721 82.5314 44.396L83.2033 44.7554C82.6877 45.7762 81.797 46.396 80.8179 46.396Z" fill="black"/>
<path d="M80.4322 85.536C84.8853 85.2652 89.3644 85.6246 93.7186 86.5985C94.1926 86.7131 94.3957 85.9839 93.9165 85.8641C89.4947 84.8746 84.9582 84.4996 80.4322 84.7756C79.9426 84.8016 79.9269 85.5621 80.4322 85.536Z" fill="black"/>
<path d="M68.9116 43.2763C68.9116 43.7555 68.8647 44.2294 68.771 44.6982C68.6772 45.1721 68.5418 45.6253 68.3543 46.068C68.172 46.5159 67.9481 46.9326 67.6825 47.3336C67.4168 47.7346 67.1147 48.0992 66.7762 48.4378C66.4377 48.7815 66.0679 49.0836 65.6668 49.3492C65.271 49.6149 64.8491 49.8388 64.4064 50.0263C63.9637 50.2086 63.5106 50.344 63.0366 50.4378C62.5679 50.5315 62.0939 50.5784 61.6147 50.5784C61.1356 50.5784 60.6616 50.5315 60.1929 50.4378C59.7241 50.344 59.2658 50.2086 58.8231 50.0263C58.3804 49.8388 57.9585 49.6149 57.5627 49.3492C57.1616 49.0836 56.7918 48.7815 56.4533 48.4378C56.1147 48.0992 55.8127 47.7346 55.547 47.3336C55.2814 46.9326 55.0575 46.5159 54.8752 46.068C54.6877 45.6253 54.5522 45.1721 54.4585 44.6982C54.3647 44.2294 54.3179 43.7555 54.3179 43.2763C54.3179 42.7971 54.3647 42.318 54.4585 41.8492C54.5522 41.3805 54.6877 40.9221 54.8752 40.4794C55.0575 40.0367 55.2814 39.6149 55.547 39.219C55.8127 38.818 56.1147 38.4482 56.4533 38.1096C56.7918 37.7711 57.1616 37.469 57.5627 37.2034C57.9585 36.9326 58.3804 36.7086 58.8231 36.5263C59.2658 36.344 59.7241 36.2034 60.1929 36.1096C60.6616 36.0159 61.1356 35.969 61.6147 35.969C62.0939 35.969 62.5679 36.0159 63.0366 36.1096C63.5106 36.2034 63.9637 36.344 64.4064 36.5263C64.8491 36.7086 65.271 36.9326 65.6668 37.2034C66.0679 37.469 66.4377 37.7711 66.7762 38.1096C67.1147 38.4482 67.4168 38.818 67.6825 39.219C67.9481 39.6149 68.172 40.0367 68.3543 40.4794C68.5418 40.9221 68.6772 41.3805 68.771 41.8492C68.8647 42.318 68.9116 42.7971 68.9116 43.2763Z" fill="#FFE397"/>
<path d="M61.6144 50.9686C57.3748 50.9686 53.9321 47.5155 53.9321 43.2759C53.9321 39.0311 57.3748 35.5832 61.6144 35.5832C65.854 35.5832 69.3019 39.0311 69.3019 43.2759C69.3019 47.5155 65.854 50.9686 61.6144 50.9686ZM61.6144 36.3593C57.7915 36.3593 54.6925 39.4634 54.6925 43.2916C54.6925 47.1145 57.7915 50.2186 61.6144 50.2186C65.4373 50.2186 68.5363 47.1145 68.5363 43.2916V43.2759C68.5259 39.4478 65.4373 36.3593 61.6144 36.3593Z" fill="black"/>
<path d="M63.6251 40.63C62.8803 39.9113 61.8595 39.4217 60.8699 39.9842C59.8751 40.5415 59.6199 41.479 60.0366 42.328C60.4532 43.1717 61.4845 43.229 62.3022 43.5467C62.6616 43.6925 62.9376 44.0207 62.9949 44.4113C63.0678 44.7967 62.8907 45.0884 62.6043 45.3592C62.3178 45.6353 61.9011 45.7186 61.4428 45.5884C60.9376 45.4478 60.4949 45.1457 60.1668 44.7394C59.8751 44.354 59.2136 44.729 59.5157 45.1144C60.0626 45.8644 60.9532 46.4113 61.9011 46.4217C62.8491 46.4373 63.6251 45.6769 63.7553 44.8436C63.8699 43.9373 63.323 43.0884 62.4636 42.8019C61.8178 42.5832 60.4949 42.4998 60.6407 41.505C60.7241 41.0311 61.0678 40.6561 61.5313 40.5259C62.1459 40.3696 62.6772 40.7602 63.0938 41.1613C63.5105 41.5623 63.9845 40.9582 63.6251 40.63Z" fill="black"/>
<path d="M61.4009 39.0777V39.7965C61.4009 39.8954 61.4425 39.9944 61.4998 40.0673C61.5728 40.1402 61.6717 40.1662 61.7707 40.1662C61.8748 40.1662 61.9738 40.1402 62.0467 40.0673C62.1196 39.9944 62.1613 39.8954 62.1613 39.7965V39.0777C62.1613 38.9735 62.1196 38.8746 62.0467 38.8017C61.8853 38.6715 61.6561 38.6715 61.4998 38.8017C61.4425 38.8746 61.4009 38.9735 61.4009 39.0777Z" fill="black"/>
<path d="M61.4009 46.2393V47.4893C61.354 47.7028 61.4999 47.906 61.703 47.9476C61.9165 47.9893 62.1197 47.8487 62.1613 47.6455C62.1769 47.6039 62.1769 47.5466 62.1613 47.4997V46.2497C62.1197 46.0362 61.9165 45.906 61.703 45.9476C61.5572 45.9632 61.4269 46.0778 61.4009 46.2393Z" fill="black"/>
<path d="M73.6095 17.7237C73.6095 18.3019 73.5002 18.8644 73.2762 19.4008C73.0522 19.9373 72.7345 20.4112 72.3283 20.8227C71.9168 21.2342 71.4429 21.5519 70.9064 21.7758C70.37 21.9946 69.8075 22.1092 69.2293 22.1092C68.646 22.1092 68.0887 21.9946 67.5522 21.7758C67.0158 21.5519 66.5418 21.2342 66.1304 20.8227C65.7189 20.4112 65.4012 19.9373 65.1825 19.4008C64.9585 18.8644 64.8491 18.3019 64.8491 17.7237C64.8491 17.1404 64.9585 16.5831 65.1825 16.0414C65.4012 15.505 65.7189 15.031 66.1304 14.6196C66.5418 14.2081 67.0158 13.8904 67.5522 13.6717C68.0887 13.4477 68.646 13.3383 69.2293 13.3383C69.8075 13.3383 70.37 13.4477 70.9064 13.6717C71.4429 13.8904 71.9168 14.2081 72.3283 14.6196C72.7345 15.031 73.0522 15.505 73.2762 16.0414C73.5002 16.5831 73.6095 17.1404 73.6095 17.7237Z" fill="#FFE397"/>
<path d="M69.2293 22.4848C66.5991 22.4848 64.4585 20.3389 64.4585 17.7087C64.4585 15.0785 66.5991 12.9327 69.2293 12.9327C71.8543 12.9327 73.995 15.0785 73.995 17.7087V17.7243C73.9845 20.3546 71.8543 22.4848 69.2293 22.4848ZM69.2293 13.7087C67.0158 13.7087 65.2189 15.5108 65.2189 17.7243C65.2189 19.9379 67.0158 21.7348 69.2293 21.7348C71.4377 21.7348 73.2345 19.9379 73.2345 17.7243C73.2345 15.5108 71.4377 13.7087 69.2293 13.7087Z" fill="black"/>
<path d="M70.5471 16.0102C70.0471 15.5362 69.3596 15.2341 68.6981 15.6091C68.0366 15.9841 67.8648 16.6456 68.1512 17.2185C68.2918 17.4945 68.5366 17.6924 68.8231 17.7966C69.0835 17.8956 69.3596 17.9216 69.5991 18.0258C69.7606 18.1091 69.8908 18.2549 69.9168 18.4424C69.9325 18.4997 69.9168 18.3851 69.9168 18.4581V18.5414C69.9168 18.5987 69.9325 18.4841 69.9168 18.557C69.9012 18.6299 69.9012 18.5987 69.9012 18.6299C69.8908 18.656 69.8752 18.6872 69.8439 18.7133L69.7137 18.8591L69.5887 18.9581H69.5575C69.5418 18.9737 69.4273 18.9893 69.5002 18.9893C69.3856 18.9997 69.271 18.9893 69.1721 18.9424C68.896 18.8747 68.6668 18.7133 68.495 18.4997C68.3804 18.3279 68.1512 18.2706 67.9793 18.3695C67.7918 18.4685 67.7346 18.6977 67.8335 18.8747C67.8335 18.8747 67.8335 18.8747 67.8335 18.8852C68.2085 19.406 68.7814 19.7185 69.4168 19.7497C69.9741 19.7497 70.5783 19.2445 70.6668 18.6872C70.7502 18.0674 70.3752 17.4633 69.7866 17.2602C69.5314 17.2029 69.2866 17.1351 69.0418 17.0466C68.9689 17.0154 68.896 16.9737 68.8543 16.9008C68.8231 16.8747 68.7971 16.8331 68.7971 16.7862V16.6872C68.8231 16.4581 69.0002 16.2549 69.2293 16.1977C69.5314 16.1247 69.8023 16.3279 70.0054 16.5414C70.2033 16.7601 70.9064 16.3435 70.5471 16.0102Z" fill="black"/>
<path d="M68.9429 15.1926V15.6249C68.9429 15.6822 68.9533 15.7238 68.9845 15.7655C69.0002 15.8124 69.0262 15.8697 69.0575 15.8957C69.0835 15.9374 69.1408 15.953 69.1825 15.9686C69.2293 15.9947 69.271 16.0103 69.3283 16.0103C69.4272 15.9947 69.5314 15.9686 69.5991 15.8957C69.6564 15.8228 69.7033 15.7238 69.7033 15.6249V15.1926C69.7137 15.1509 69.7033 15.0884 69.672 15.0468C69.6564 15.0051 69.6304 14.9634 69.5991 14.9322C69.5575 14.8905 69.5158 14.8593 69.4741 14.8488C69.4272 14.8176 69.37 14.8176 69.3283 14.8176C69.2293 14.8176 69.1252 14.8593 69.0575 14.9322C68.9845 15.0051 68.9429 15.0884 68.9429 15.1926Z" fill="black"/>
<path d="M68.9429 19.49V20.24C68.9429 20.4535 69.1147 20.6254 69.3283 20.6254C69.4272 20.6254 69.5314 20.5837 69.5991 20.5108C69.672 20.4431 69.7033 20.3389 69.7033 20.24V19.49C69.6877 19.2764 69.5158 19.1202 69.3022 19.1202C69.2137 19.1202 69.1252 19.1618 69.0575 19.2191C68.9845 19.2921 68.9429 19.391 68.9429 19.49Z" fill="black"/>
<mask id="mask2_2482_12093" style="mask-type:luminance" maskUnits="userSpaceOnUse" x="10" y="0" width="48" height="34">
<path d="M10.3335 0.698303H57.0002V33.3337H10.3335V0.698303Z" fill="white"/>
</mask>
<g mask="url(#mask2_2482_12093)">
<path d="M55.1356 33.3077H12.3022C11.3439 33.3077 10.5679 32.5316 10.5679 31.5681V2.43789C10.5783 1.47435 11.3439 0.713927 12.3022 0.698303H55.1356C56.0991 0.713927 56.8595 1.47435 56.8752 2.43789V31.5681C56.8752 32.5316 56.0991 33.3077 55.1356 33.3077ZM12.3022 1.45872C11.771 1.47435 11.3439 1.90664 11.3283 2.43789V31.5681C11.3283 32.115 11.7554 32.5473 12.3022 32.5473H55.1356C55.6825 32.5473 56.1147 32.115 56.1147 31.5681V2.43789C56.0991 1.90664 55.6668 1.47435 55.1356 1.45872H12.3022Z" fill="black"/>
</g>
<path d="M17.3594 10.9216H20.1042V16.7601H17.3594V10.9216Z" fill="#6293F1"/>
<path d="M20.4793 17.1354H16.9741V10.5312H20.4793V17.1354ZM17.7345 16.3698H19.7137V11.2969H17.7345V16.3698Z" fill="black"/>
<path d="M22.9897 8.10455H25.7345V16.7608H22.9897V8.10455Z" fill="#6293F1"/>
<path d="M26.12 17.1358H22.6147V7.72955H26.12V17.1358ZM23.3804 16.3702H25.3595V8.48997H23.3804V16.3702Z" fill="black"/>
<path d="M28.6353 6.16104H31.38V16.76H28.6353V6.16104Z" fill="#6293F1"/>
<path d="M31.75 17.135H28.25V5.78604H31.75V17.135ZM29.0104 16.3694H30.9896V6.55167H29.0104V16.3694Z" fill="black"/>
<path d="M34.2656 10.8648H37.0104V16.7606H34.2656V10.8648Z" fill="#6293F1"/>
<path d="M37.396 17.135H33.8804V10.4735H37.396V17.135ZM34.6408 16.3694H36.6356V11.2392H34.6408V16.3694Z" fill="black"/>
<path d="M42.2656 9.92728H51.6875V10.6929H42.2656V9.92728Z" fill="black"/>
<path d="M42.2656 12.4738H51.6875V13.2343H42.2656V12.4738Z" fill="black"/>
<path d="M42.2656 15.0204H51.6875V15.7808H42.2656V15.0204Z" fill="black"/>
<path d="M46.8908 22.4534L41.3022 22.943L33.3752 25.7034L25.1877 24.3805L18.5939 27.3701L16.9741 28.0159H51.5158V20.6409L46.8908 22.4534Z" fill="#A3DFBE"/>
<path d="M51.5155 28.406H16.9738C16.7863 28.406 16.6249 28.2758 16.5988 28.0883C16.5572 27.9164 16.6561 27.7289 16.828 27.6716L18.453 27.0258L25.0311 24.0362C25.1041 24.0049 25.1874 23.9893 25.2603 24.0049L33.3488 25.3122L41.177 22.583H41.2603L46.7916 22.0935L51.3749 20.2966C51.4895 20.2549 51.6301 20.2653 51.7343 20.3383C51.8332 20.4112 51.8905 20.5258 51.8905 20.656V28.031C51.8749 28.2341 51.7186 28.3903 51.5155 28.406ZM18.927 27.6455H51.1301V21.2028L47.0207 22.8122L46.9218 22.8435L41.3749 23.3174L33.5051 26.0622C33.4478 26.0935 33.3749 26.0935 33.3176 26.0778L25.2447 24.781L18.927 27.6455Z" fill="black"/>
<path d="M17.0417 27.9894C16.8438 27.9894 16.6719 27.8175 16.6719 27.6144V20.8592C16.625 20.6405 16.7709 20.4425 16.974 20.3957C17.1875 20.354 17.3906 20.4998 17.4323 20.6977C17.4479 20.7394 17.4479 20.8019 17.4323 20.8436V27.5988C17.4167 27.8332 17.2604 27.9894 17.0417 27.9894Z" fill="black"/>
<path d="M9.38563 40.3122C8.81271 40.3122 8.22417 40.3695 7.66688 40.4841L9.4325 48.5934L1.31792 46.8278C1.19813 47.4007 1.13042 47.9789 1.13042 48.5674C1.1148 53.1403 4.8075 56.833 9.37521 56.8487C13.9429 56.8643 17.6304 53.1664 17.646 48.5934C17.6617 44.0205 13.969 40.3278 9.38563 40.3122Z" fill="#A3DFBE"/>
<mask id="mask3_2482_12093" style="mask-type:luminance" maskUnits="userSpaceOnUse" x="0" y="38" width="19" height="20">
<path d="M0.75 38.6671H18.3333V57.3337H0.75V38.6671Z" fill="white"/>
</mask>
<g mask="url(#mask3_2482_12093)">
<path d="M9.38534 57.2244C4.61971 57.2087 0.755127 53.3389 0.755127 48.5681C0.755127 47.9483 0.812419 47.3441 0.958252 46.74C0.968668 46.641 1.02596 46.5525 1.1145 46.4952C1.19784 46.4535 1.302 46.4223 1.40096 46.4535L8.927 48.0941L7.30721 40.5733C7.27596 40.4691 7.29159 40.3702 7.34888 40.2869C7.40617 40.1983 7.4895 40.141 7.59367 40.1254C8.18221 39.9952 8.78638 39.9223 9.38534 39.9223C14.1562 40.1254 17.8749 44.1514 17.677 48.9275C17.4895 53.4275 13.8853 57.0369 9.38534 57.2244ZM1.6145 47.3025C1.54679 47.7191 1.51554 48.1358 1.51554 48.5681C1.51554 52.8233 4.96346 56.2608 9.20304 56.2608C13.4374 56.2608 16.8853 52.8077 16.8853 48.5681C16.8853 44.3129 13.4374 40.8754 9.20304 40.8754C8.78638 40.8754 8.38013 40.9171 7.96346 40.9744L9.60409 48.5108C9.64575 48.7087 9.53117 48.8962 9.32804 48.9431C9.27075 48.9535 9.21346 48.9535 9.15617 48.9431L1.6145 47.3025Z" fill="black"/>
</g>
<path d="M7.66683 40.469C4.48975 41.1461 1.98975 43.6357 1.30225 46.8128L9.43246 48.594L7.66683 40.469Z" fill="#6293F1"/>
<mask id="mask4_2482_12093" style="mask-type:luminance" maskUnits="userSpaceOnUse" x="0" y="40" width="11" height="10">
<path d="M0.75 40.0003H10.3333V49.3336H0.75V40.0003Z" fill="white"/>
</mask>
<g mask="url(#mask4_2482_12093)">
<path d="M9.43229 48.969H9.34375L1.21354 47.1878C1.01563 47.1409 0.885417 46.943 0.927084 46.7398C1.64583 43.4065 4.26042 40.8023 7.59375 40.0992C7.79167 40.0523 7.99479 40.1826 8.03646 40.3857L9.80208 48.5107C9.83333 48.6409 9.79167 48.7659 9.70313 48.8544C9.63021 48.9273 9.53125 48.969 9.43229 48.969ZM1.76042 46.5263L8.92708 48.094L7.375 40.9326C4.63542 41.6513 2.49479 43.7919 1.76042 46.5263Z" fill="black"/>
</g>
<path d="M1.31771 46.8278L1.17188 48.0049C1.17188 48.0049 7.92188 48.4945 8.79688 48.6091L1.31771 46.8278Z" fill="black"/>
<path d="M8.79688 48.6091L8.88542 48.6403C8.88542 48.6403 8.85417 48.6247 8.79688 48.6091Z" fill="black"/>
<path d="M33.2968 80.4632C33.8021 80.8122 34.2291 81.2288 34.5781 81.7184C34.9323 82.208 35.1771 82.734 35.3229 83.2913C35.4635 83.8434 35.4948 84.3903 35.4062 84.932C35.3229 85.4684 35.1302 85.958 34.8281 86.3955C34.526 86.833 34.1406 87.1872 33.6666 87.458C33.1927 87.7288 32.6718 87.8955 32.1041 87.958C31.5312 88.0205 30.9583 87.9788 30.375 87.8226C29.7916 87.6663 29.25 87.4163 28.7448 87.0674C28.2396 86.7184 27.8125 86.3018 27.4635 85.8122C27.1093 85.3226 26.8646 84.7965 26.7187 84.2393C26.5781 83.6872 26.5468 83.1403 26.6302 82.5986C26.7187 82.0622 26.9114 81.5726 27.2135 81.1351C27.5156 80.6976 27.901 80.3434 28.375 80.0726C28.8437 79.8018 29.3646 79.6351 29.9375 79.5726C30.5052 79.5101 31.0833 79.5518 31.6666 79.708C32.25 79.8643 32.7916 80.1143 33.2968 80.4632Z" fill="white"/>
<path d="M31.5939 88.4531C28.9793 88.4531 26.5835 86.401 26.2241 83.8958C26.0626 82.6771 26.3803 81.526 27.1408 80.6458C27.9741 79.7292 29.1668 79.2083 30.4168 79.2396C33.0314 79.2396 35.4272 81.2812 35.7762 83.7969C35.9637 84.9635 35.6147 86.1406 34.8543 87.0312C34.0626 87.9531 32.9012 88.4531 31.5939 88.4531ZM30.4168 80C29.323 80 28.3647 80.401 27.7137 81.151C27.0991 81.8854 26.8283 82.849 26.9845 83.7969C27.2866 85.9375 29.3543 87.6927 31.5939 87.6927C32.6876 87.6927 33.6355 87.276 34.2814 86.526C34.9116 85.8073 35.1876 84.8437 35.0262 83.8958C34.7241 81.7396 32.6564 80 30.4168 80Z" fill="black"/>
</svg>
