<svg width="57" height="58" viewBox="0 0 57 58" fill="none" xmlns="http://www.w3.org/2000/svg">
<mask id="mask0_2482_10324" style="mask-type:luminance" maskUnits="userSpaceOnUse" x="0" y="0" width="58" height="58">
<path d="M0.286621 0.926758H57.0002V57.333H0.286621V0.926758Z" fill="white"/>
</mask>
<g mask="url(#mask0_2482_10324)">
<path d="M54.9116 49.7497C54.8074 49.6455 54.7032 49.5466 54.5782 49.4528L43.7918 40.4424C46.3335 36.3174 46.3647 31.0934 43.8699 26.9528V13.1351C43.8699 13.1247 43.8699 13.1195 43.8699 13.1195C43.8699 13.0882 43.8491 13.0622 43.8491 13.0205C43.8491 12.9997 43.8387 12.9736 43.8387 12.9632C43.8022 12.7445 43.7137 12.5413 43.5522 12.3955L32.3751 1.20801C32.1928 1.03613 31.9428 0.926758 31.6824 0.926758H5.4845C2.82825 0.926758 0.671997 3.08822 0.671997 5.74447V51.9528C0.671997 54.6091 2.82825 56.7653 5.4845 56.7653H39.0574C41.7137 56.7653 43.8699 54.6091 43.8699 51.9528V49.8643L48.547 55.458C52.448 59.9424 58.9376 54.1091 54.9116 49.7497ZM43.8126 33.6351C43.8126 36.5778 42.6668 39.3538 40.5782 41.432C38.4897 43.5101 35.7241 44.6663 32.7814 44.6663C29.8335 44.6663 27.0626 43.5205 24.9793 41.432C20.6772 37.1299 20.6772 30.1299 24.9793 25.833C27.0626 23.7549 29.8335 22.5986 32.7814 22.5986C35.7241 22.5986 38.5001 23.7445 40.5782 25.833C42.6564 27.9268 43.8126 30.6872 43.8126 33.6351ZM41.9428 51.9528C41.9428 53.5413 40.646 54.8434 39.0574 54.8434H5.4845C3.89596 54.8434 2.59908 53.5413 2.59908 51.9528V5.74447C2.59908 4.15592 3.89596 2.85384 5.4845 2.85384H30.7189V13.1195C30.7189 13.6455 31.1512 14.0778 31.6824 14.0778H41.9428V24.4788C39.5001 22.0309 36.2449 20.682 32.7866 20.682C29.4793 20.682 26.3595 21.9268 23.9532 24.1768H9.23971C8.70846 24.1768 8.27616 24.6143 8.27616 25.1403C8.27616 25.6715 8.70846 26.1038 9.23971 26.1038H22.2657C21.2866 27.4788 20.5991 29.0049 20.2137 30.5934H9.23971C8.70846 30.5934 8.27616 31.0257 8.27616 31.5518C8.27616 32.083 8.70846 32.5153 9.23971 32.5153H19.8907C19.7657 34.0205 19.896 35.5309 20.2814 36.9945H9.23971C8.70846 36.9945 8.27616 37.4268 8.27616 37.958C8.27616 38.4841 8.70846 38.9163 9.23971 38.9163H20.9741C21.6043 40.3226 22.4793 41.6455 23.6355 42.7966C23.8439 43.0101 24.0782 43.2132 24.3074 43.4059H9.23971C8.70846 43.4059 8.27616 43.8382 8.27616 44.3695C8.27616 44.8955 8.70846 45.333 9.23971 45.333H27.2449C28.9949 46.1559 30.8803 46.583 32.7866 46.583C35.1355 46.583 37.4689 45.9372 39.5366 44.6768L41.9428 47.557V51.9528Z" fill="white"/>
</g>
<path d="M9.23991 19.6927H22.266C22.7972 19.6927 23.2295 19.2604 23.2295 18.7292C23.2295 18.2031 22.7972 17.7656 22.266 17.7656H9.23991C8.70866 17.7656 8.27637 18.2031 8.27637 18.7292C8.27637 19.2604 8.70866 19.6927 9.23991 19.6927Z" fill="white"/>
</svg>
