<svg width="98" height="98" viewBox="0 0 98 98" fill="none" xmlns="http://www.w3.org/2000/svg">
<mask id="mask0_2640_523" style="mask-type:luminance" maskUnits="userSpaceOnUse" x="0" y="0" width="98" height="98">
<path d="M0.989563 0.78125H97.6771V97.474H0.989563V0.78125Z" fill="white"/>
</mask>
<g mask="url(#mask0_2640_523)">
<mask id="mask1_2640_523" style="mask-type:luminance" maskUnits="userSpaceOnUse" x="0" y="0" width="98" height="98">
<path d="M49.3333 0.78125C22.6354 0.78125 0.989563 22.4271 0.989563 49.125C0.989563 75.8281 22.6354 97.474 49.3333 97.474C76.0312 97.474 97.6771 75.8281 97.6771 49.125C97.6771 22.4271 76.0312 0.78125 49.3333 0.78125Z" fill="white"/>
</mask>
<g mask="url(#mask1_2640_523)">
<path d="M0.989563 0.78125H97.6771V97.474H0.989563V0.78125Z" fill="white"/>
</g>
</g>
<mask id="mask2_2640_523" style="mask-type:luminance" maskUnits="userSpaceOnUse" x="24" y="28" width="48" height="48">
<path d="M24.6511 28.9844H71.6511V75.9844H24.6511V28.9844Z" fill="white"/>
</mask>
<g mask="url(#mask2_2640_523)">
<path d="M66.5938 28.9844H29.7136C26.9219 28.9844 24.6511 31.2552 24.6511 34.0469V63.5521C24.6511 66.3438 26.9219 68.6146 29.7136 68.6146H43.5469V70.4583H42.625C40.0834 70.4583 38.0156 72.5208 38.0156 75.0625C38.0156 75.5729 38.4271 75.9844 38.9375 75.9844H57.3698C57.875 75.9844 58.2917 75.5729 58.2917 75.0625C58.2917 72.5208 56.224 70.4583 53.6823 70.4583H52.7604V68.6146H66.5938C69.3802 68.6146 71.6511 66.3438 71.6511 63.5521V34.0469C71.6511 31.2552 69.3802 28.9844 66.5938 28.9844ZM29.7136 30.8281H66.5938C68.3646 30.8281 69.8073 32.2708 69.8073 34.0469V59.3958H26.4948V34.0469C26.4948 32.2708 27.9375 30.8281 29.7136 30.8281ZM56.2865 74.1406H40.0156C40.3959 73.0677 41.4219 72.2969 42.625 72.2969H53.6823C54.8854 72.2969 55.9063 73.0677 56.2865 74.1406ZM50.9167 70.4583H45.3854V68.6146H50.9167V70.4583ZM66.5938 66.7708H29.7136C27.9375 66.7708 26.4948 65.3281 26.4948 63.5521V61.2396H69.8073V63.5521C69.8073 65.3281 68.3646 66.7708 66.5938 66.7708Z" fill="black"/>
</g>
</svg>
