<svg width="27" height="27" viewBox="0 0 27 27" fill="none" xmlns="http://www.w3.org/2000/svg">
<path d="M13.6513 15.4213C13.6262 15.4213 13.5885 15.4213 13.5634 15.4213C13.5257 15.4213 13.4755 15.4213 13.4378 15.4213C10.5871 15.3334 8.45221 13.1106 8.45221 10.3729C8.45221 7.58504 10.7252 5.31201 13.5132 5.31201C16.3011 5.31201 18.5741 7.58504 18.5741 10.3729C18.5616 13.1232 16.4141 15.3334 13.689 15.4213C13.6639 15.4213 13.6639 15.4213 13.6513 15.4213ZM13.5006 7.18317C11.7425 7.18317 10.3234 8.6148 10.3234 10.3604C10.3234 12.0809 11.6671 13.4748 13.375 13.5376C13.4127 13.5251 13.5383 13.5251 13.6639 13.5376C15.3467 13.4497 16.6653 12.0683 16.6778 10.3604C16.6778 8.6148 15.2588 7.18317 13.5006 7.18317Z" fill="#8C52FF"/>
<path d="M13.501 27.0001C10.1229 27.0001 6.89542 25.7443 4.39635 23.4587C4.1703 23.2578 4.06984 22.9564 4.09495 22.6675C4.25821 21.1731 5.18751 19.7792 6.73216 18.7494C10.4745 16.2629 16.5401 16.2629 20.2698 18.7494C21.8145 19.7917 22.7438 21.1731 22.907 22.6675C22.9447 22.9689 22.8317 23.2578 22.6056 23.4587C20.1066 25.7443 16.8791 27.0001 13.501 27.0001ZM6.06658 22.4164C8.15123 24.162 10.7759 25.1164 13.501 25.1164C16.2261 25.1164 18.8508 24.162 20.9354 22.4164C20.7094 21.6503 20.1066 20.9094 19.2149 20.3066C16.1256 18.2471 10.8889 18.2471 7.77449 20.3066C6.88286 20.9094 6.29263 21.6503 6.06658 22.4164Z" fill="#8C52FF"/>
<path d="M13.5 27C6.05302 27 0 20.947 0 13.5C0 6.05302 6.05302 0 13.5 0C20.947 0 27 6.05302 27 13.5C27 20.947 20.947 27 13.5 27ZM13.5 1.88372C7.09535 1.88372 1.88372 7.09535 1.88372 13.5C1.88372 19.9047 7.09535 25.1163 13.5 25.1163C19.9047 25.1163 25.1163 19.9047 25.1163 13.5C25.1163 7.09535 19.9047 1.88372 13.5 1.88372Z" fill="#8C52FF"/>
</svg>
