<svg width="261" height="192" viewBox="0 0 261 192" fill="none" xmlns="http://www.w3.org/2000/svg">
<mask id="mask0_2482_10353" style="mask-type:luminance" maskUnits="userSpaceOnUse" x="0" y="0" width="261" height="192">
<path d="M0.525879 0.421875H260.76V191.307H0.525879V0.421875Z" fill="white"/>
</mask>
<g mask="url(#mask0_2482_10353)">
<mask id="mask1_2482_10353" style="mask-type:luminance" maskUnits="userSpaceOnUse" x="0" y="0" width="261" height="192">
<path d="M11.5259 0.421875H249.755C252.672 0.421875 255.469 1.57812 257.531 3.64062C259.594 5.70312 260.755 8.50521 260.755 11.4219V180.307C260.755 183.224 259.594 186.026 257.531 188.089C255.469 190.151 252.672 191.307 249.755 191.307H11.5259C8.60921 191.307 5.81234 190.151 3.74984 188.089C1.68734 186.026 0.525879 183.224 0.525879 180.307V11.4219C0.525879 8.50521 1.68734 5.70312 3.74984 3.64062C5.81234 1.57812 8.60921 0.421875 11.5259 0.421875Z" fill="white"/>
</mask>
<g mask="url(#mask1_2482_10353)">
<path d="M0.525879 0.421875H260.76V191.307H0.525879V0.421875Z" fill="#FFA500"/>
</g>
</g>
<path d="M149.495 133.057C149.495 133.057 157.094 140.588 155.812 146.703L137.146 151.338L129.766 142.713C129.766 142.744 146.927 132.541 149.495 133.057Z" fill="#FCD8C3"/>
<path d="M205.396 130.547C205.396 130.547 210.047 139.203 208.667 145.031L195.354 146.61L190.932 136.922C190.963 136.922 203.63 129.615 205.396 130.547Z" fill="#FCD8C3"/>
<path d="M178.745 115.198C178.745 115.198 198.146 138.37 197.281 174.032C197.281 174.032 178.453 178.761 144.49 172.386C144.49 172.386 147.089 131 160.781 116.808C160.781 116.808 169.026 119.443 178.745 115.198Z" fill="#727FD3"/>
<path d="M178.87 115.516C178.87 115.516 195.771 108.214 206.198 131.193C206.198 131.193 197.25 134.219 191.349 139.01C191.349 139.047 176.401 123.24 178.87 115.516Z" fill="#7989D8"/>
<path d="M168.318 116.099C168.318 116.099 150.713 110.656 142.854 134.635C142.854 134.635 152.088 136.693 158.474 140.849C158.443 140.812 171.588 123.5 168.318 116.099Z" fill="#727FD3"/>
<path d="M205.266 151.084C205.266 151.084 187.885 156.136 160.047 147.318L164.5 139.948C164.5 139.948 192.599 145 207.927 137.792C207.896 137.823 211.745 145.354 205.266 151.084Z" fill="#FCD8C3"/>
<path d="M161.328 147.542C161.328 147.542 149.875 148.891 152.412 145.709C152.412 145.709 159.625 144.709 163.219 145.193L161.328 147.542Z" fill="#FCD8C3"/>
<path d="M161.969 145.386C161.969 145.386 148.594 144.771 152.219 141.589C152.219 141.589 160.688 141.813 164.63 143.068L161.969 145.386Z" fill="#FCD8C3"/>
<path d="M162.417 142.776C162.417 142.776 145.484 140.266 152.667 138.979C152.667 138.979 161.136 139.203 165.078 140.459L162.417 142.776Z" fill="#FCD8C3"/>
<path d="M162.193 141.234C162.193 141.234 149.302 137.948 153.63 135.567C153.63 135.567 161.807 137.468 165.37 139.494L162.193 141.234Z" fill="#FCD8C3"/>
<path d="M166.713 140.495C166.713 140.495 163.187 135.86 161.646 134.151C161.646 134.151 159.5 134.313 161.937 139.688C161.937 139.688 161.682 141.266 166.713 140.495Z" fill="#FCD8C3"/>
<path d="M181.823 115.969C181.823 115.969 197.505 113.552 203.729 129.714L192.469 134.766C192.469 134.766 188.844 132.094 187.276 127.974L190 123.63C190 123.63 185.511 124.656 184.839 127.042L177.49 125.078L181.5 120.151L181.823 115.969Z" fill="#727FD3"/>
<path d="M167.229 113.235L167.739 120.667C167.87 122.276 171.687 123.308 176.307 122.985C180.922 122.662 184.578 121.084 184.453 119.511L183.937 112.073L167.229 113.235Z" fill="#FAC09F"/>
<path d="M99.5575 59.5156H118.38C121.464 59.5156 123.932 62.026 123.932 65.0833V81.0469C123.932 84.1354 121.427 86.6146 118.38 86.6146H115.912C115.078 86.6146 114.406 87.2917 114.406 88.1302V92.151C114.406 93.0521 113.349 93.5052 112.703 92.8594L106.771 87.0365C106.485 86.776 106.13 86.6146 105.714 86.6146H99.5575C96.4793 86.6146 94.0054 84.1042 94.0054 81.0469V65.1146C94.0054 62.026 96.5106 59.5156 99.5575 59.5156Z" fill="#FCEC45"/>
<path d="M98.9165 74.7087V73.7764L106.161 70.1045V71.3285L100.26 74.2243V74.2555L106.161 77.1566V78.3753L98.9165 74.7087Z" fill="#231F20"/>
<path d="M108.344 78.9893H107.188L111.068 67.7549H112.224L108.344 78.9893Z" fill="#231F20"/>
<path d="M120.401 73.7087V74.7399L113.156 78.3753V77.1566L119.182 74.2555V74.2243L113.156 71.3285V70.1045L120.401 73.7087Z" fill="#231F20"/>
<mask id="mask2_2482_10353" style="mask-type:luminance" maskUnits="userSpaceOnUse" x="82" y="153" width="157" height="12">
<path d="M82.3335 153.667H238.302V164.334H82.3335V153.667Z" fill="white"/>
</mask>
<g mask="url(#mask2_2482_10353)">
<path d="M227.396 153.912L237.854 163.891H82.7815L88.0107 154.881L227.396 153.912Z" fill="#AF9877"/>
</g>
<mask id="mask3_2482_10353" style="mask-type:luminance" maskUnits="userSpaceOnUse" x="85" y="164" width="146" height="28">
<path d="M85 164.333H230.333V191.479H85V164.333Z" fill="white"/>
</mask>
<g mask="url(#mask3_2482_10353)">
<path d="M229.839 191.343H85.6094V165.177H229.839V191.343Z" fill="#776C68"/>
</g>
<mask id="mask4_2482_10353" style="mask-type:luminance" maskUnits="userSpaceOnUse" x="82" y="163" width="157" height="4">
<path d="M82.3022 163H238.302V167H82.3022V163Z" fill="white"/>
</mask>
<g mask="url(#mask4_2482_10353)">
<path d="M83.5835 166.531H237.016C237.724 166.531 238.302 165.953 238.302 165.245V165.177C238.302 164.469 237.724 163.891 237.016 163.891H83.5835C82.8804 163.891 82.3022 164.469 82.3022 165.177V165.245C82.3022 165.953 82.8804 166.531 83.5835 166.531Z" fill="#807976"/>
</g>
<path d="M195.422 105.828C195.422 105.828 197.474 106.219 200.266 103.094C203.052 99.974 197.089 97.0781 197.089 97.0781L195.422 105.828Z" fill="#FCD8C3"/>
<path d="M157.448 99.1667C157.448 99.6198 157.406 100.063 157.323 100.505C157.245 100.948 157.125 101.375 156.964 101.792C156.807 102.208 156.615 102.604 156.38 102.979C156.151 103.349 155.891 103.698 155.594 104.016C155.302 104.333 154.984 104.62 154.641 104.87C154.292 105.12 153.927 105.328 153.547 105.5C153.161 105.672 152.766 105.802 152.359 105.891C151.953 105.979 151.542 106.021 151.13 106.021C150.714 106.021 150.302 105.979 149.896 105.891C149.49 105.802 149.094 105.672 148.708 105.5C148.328 105.328 147.964 105.12 147.62 104.87C147.271 104.62 146.953 104.333 146.661 104.016C146.37 103.698 146.104 103.349 145.875 102.979C145.646 102.604 145.448 102.208 145.292 101.792C145.13 101.375 145.01 100.948 144.932 100.505C144.849 100.063 144.812 99.6198 144.812 99.1667C144.812 98.7187 144.849 98.2708 144.932 97.8281C145.01 97.3906 145.13 96.9583 145.292 96.5469C145.448 96.1302 145.646 95.7344 145.875 95.3594C146.104 94.9844 146.37 94.6406 146.661 94.3229C146.953 94 147.271 93.7188 147.62 93.4688C147.964 93.2188 148.328 93.0052 148.708 92.8333C149.094 92.6615 149.49 92.5313 149.896 92.4427C150.302 92.3542 150.714 92.3125 151.13 92.3125C151.542 92.3125 151.953 92.3542 152.359 92.4427C152.766 92.5313 153.161 92.6615 153.547 92.8333C153.927 93.0052 154.292 93.2188 154.641 93.4688C154.984 93.7188 155.302 94 155.594 94.3229C155.891 94.6406 156.151 94.9844 156.38 95.3594C156.615 95.7344 156.807 96.1302 156.964 96.5469C157.125 96.9583 157.245 97.3906 157.323 97.8281C157.406 98.2708 157.448 98.7187 157.448 99.1667Z" fill="#EEC6B5"/>
<path d="M208.057 95.0156C208.057 99.2656 204.339 103.547 200.807 103.547C197.25 103.547 194.396 100.099 194.396 95.8541C194.396 91.6041 197.281 88.1614 200.807 88.1614C204.37 88.1302 208.057 90.7656 208.057 95.0156Z" fill="#EEC6B5"/>
<path d="M197.057 105.219C199.141 102.708 198.37 98.1719 198.531 93.2135C198.594 91.3125 199.557 89.6094 200.807 88.1302C200.583 73.1615 190.516 62.125 173.833 62.125C157 62.125 149.781 72.3281 149.781 87.5156C149.781 95.724 150.745 108.146 152.443 109.594C160.589 116.453 164.885 116.453 172.615 116.453C182.625 116.453 191.505 112.104 197.089 105.38C197.026 105.318 197.057 105.281 197.057 105.219Z" fill="#FCD8C3"/>
<path d="M197.057 105.38C197.057 105.318 197.057 105.281 197.057 105.219C197.057 105.281 197.026 105.318 197.057 105.38Z" stroke="#FCD8C3" stroke-width="0.321284" stroke-miterlimit="10"/>
<path d="M161.838 81.7865C161.838 81.7865 161.776 81.7552 161.682 81.724C161.583 81.6927 161.422 81.625 161.198 81.5625C161.005 81.4687 160.75 81.3698 160.495 81.2396C160.234 81.1146 159.948 80.9844 159.625 80.8229C159.307 80.6615 158.984 80.5 158.635 80.3698C158.474 80.276 158.281 80.2135 158.088 80.1458C157.989 80.1146 157.896 80.0833 157.797 80.0521C157.703 80.0208 157.609 79.9844 157.51 79.9531C157.125 79.8229 156.771 79.7604 156.39 79.7292C156.292 79.7292 156.198 79.7292 156.099 79.6979C156.005 79.6979 155.906 79.6979 155.812 79.6979C155.713 79.6979 155.62 79.7292 155.521 79.7292H155.364C155.364 79.7292 155.427 79.7292 155.396 79.7292H155.364L155.265 79.7604H155.135C155.104 79.7604 155.073 79.7604 155.042 79.7917L154.911 79.8229L154.786 79.8594C154.625 79.9219 154.463 80.0208 154.302 80.1146C153.984 80.3073 153.661 80.5313 153.375 80.7917C152.797 81.3073 152.318 81.9167 151.963 82.4635C151.771 82.7552 151.64 83.0104 151.515 83.2708C151.385 83.526 151.323 83.75 151.224 83.9427C151.161 84.1354 151.13 84.2969 151.099 84.3958C151.062 84.526 151.062 84.5573 151.062 84.5573C151.062 84.5573 151.031 84.4896 151 84.3958C150.969 84.2969 150.906 84.1042 150.87 83.9115C150.838 83.6875 150.807 83.4323 150.807 83.1094C150.807 82.7865 150.87 82.4323 150.969 82.0469C151.062 81.6615 151.193 81.276 151.417 80.8542C151.609 80.4375 151.864 80.0521 152.187 79.6667C152.505 79.276 152.89 78.8906 153.344 78.6042C153.792 78.2813 154.333 78.0208 154.943 77.8958H155.172L155.396 77.8594L155.62 77.8281C155.651 77.8281 155.682 77.8281 155.713 77.8281H155.812C155.937 77.8281 156.099 77.8281 156.229 77.8281C156.354 77.8281 156.515 77.8594 156.646 77.8958C157.193 77.9896 157.703 78.151 158.151 78.375C158.281 78.4427 158.375 78.474 158.474 78.5365C158.568 78.6042 158.698 78.6667 158.792 78.7292C158.984 78.8594 159.177 78.9896 159.338 79.1146C159.693 79.375 159.979 79.6667 160.239 79.9219C160.364 80.0521 160.495 80.1771 160.588 80.3073C160.687 80.4375 160.812 80.5313 160.911 80.6615C161.104 80.8854 161.265 81.0781 161.39 81.2396C161.521 81.401 161.614 81.5313 161.713 81.625C161.776 81.7552 161.838 81.7865 161.838 81.7865Z" fill="#443F4F"/>
<path d="M175.698 79.3745C175.698 79.3745 175.698 79.312 175.662 79.2131C175.662 79.1818 175.63 79.1141 175.63 79.0516C175.63 79.0204 175.63 78.9891 175.63 78.9579C175.63 78.9214 175.63 78.8589 175.63 78.8277C175.63 78.7287 175.63 78.635 175.63 78.5047C175.63 78.411 175.662 78.2808 175.698 78.1506C175.729 78.0204 175.761 77.8954 175.792 77.7652C175.823 77.635 175.922 77.4735 175.985 77.3485C176.146 77.0568 176.307 76.7339 176.563 76.4787C176.818 76.187 177.11 75.9318 177.427 75.6714C177.75 75.4162 178.136 75.2235 178.516 75.062C178.901 74.9006 179.354 74.7704 179.771 74.7079C180.188 74.6454 180.636 74.6089 181.052 74.6454C181.469 74.6766 181.886 74.7391 182.302 74.8693C182.688 74.9995 183.073 75.1558 183.391 75.3485C183.552 75.4475 183.714 75.5464 183.844 75.6714C183.906 75.7391 183.969 75.8016 184.037 75.8329C184.099 75.9006 184.162 75.9631 184.229 75.9943C184.323 76.1245 184.453 76.2183 184.516 76.3485C184.61 76.4787 184.677 76.5725 184.74 76.7027C184.802 76.8329 184.87 76.9266 184.901 77.0256C184.932 77.1193 184.964 77.2183 184.995 77.312C184.995 77.3485 185.031 77.411 185.031 77.4422C185.031 77.4735 185.063 77.51 185.063 77.5412C185.063 77.6037 185.094 77.6662 185.094 77.7027C185.094 77.7964 185.125 77.8589 185.125 77.8589C185.125 77.8589 185.094 77.8277 184.995 77.7652C184.932 77.7027 184.839 77.6037 184.677 77.51C184.61 77.4735 184.547 77.411 184.453 77.3485C184.354 77.2808 184.292 77.2495 184.193 77.187C184.099 77.1193 184 77.0881 183.906 77.0256C183.813 76.9579 183.682 76.9266 183.583 76.8641C183.458 76.8329 183.328 76.7652 183.203 76.7339C183.073 76.7027 182.943 76.6402 182.818 76.6402C182.557 76.5725 182.24 76.5412 181.948 76.51C181.662 76.4787 181.339 76.4787 181.021 76.4787C180.698 76.4787 180.38 76.5412 180.057 76.5725C179.735 76.6402 179.417 76.7027 179.125 76.8016C179.063 76.8329 178.969 76.8641 178.901 76.8641L178.776 76.8954L178.677 76.9266C178.615 76.9579 178.516 76.9943 178.453 77.0256C178.391 77.0568 178.328 77.0881 178.229 77.1193C177.943 77.2495 177.682 77.3797 177.458 77.5412C177.203 77.7027 177.011 77.8589 176.818 78.0204C176.724 78.1193 176.625 78.1818 176.563 78.2808C176.464 78.3745 176.401 78.4422 176.339 78.536C176.271 78.635 176.208 78.6975 176.146 78.7652C176.078 78.8277 176.047 78.9214 175.985 78.9891C175.922 79.0516 175.891 79.1141 175.854 79.1818C175.823 79.2443 175.792 79.2756 175.761 79.3433C175.729 79.312 175.698 79.3745 175.698 79.3745Z" fill="#443F4F"/>
<path d="M147.823 99.7451C147.823 99.7451 147.89 99.7451 147.984 99.7451C148.015 99.7451 148.083 99.7451 148.146 99.7816C148.177 99.7816 148.208 99.8128 148.239 99.8128C148.276 99.8128 148.307 99.8441 148.37 99.8441C148.432 99.8753 148.531 99.9066 148.625 99.943C148.724 99.9743 148.786 100.037 148.885 100.099C148.979 100.167 149.042 100.229 149.14 100.297C149.234 100.36 149.302 100.453 149.364 100.521C149.427 100.584 149.526 100.683 149.588 100.745C149.651 100.808 149.719 100.907 149.781 100.969C149.911 101.131 150.005 101.292 150.068 101.422C150.167 101.552 150.229 101.677 150.26 101.745C150.297 101.839 150.328 101.87 150.328 101.87C150.328 101.87 150.26 101.839 150.198 101.808C150.104 101.776 150.005 101.709 149.844 101.615C149.588 101.422 149.265 101.131 148.979 100.844C148.917 100.776 148.849 100.683 148.786 100.615C148.724 100.552 148.656 100.49 148.594 100.391C148.531 100.328 148.469 100.261 148.401 100.198C148.338 100.136 148.276 100.068 148.239 100.037C148.177 99.9743 148.146 99.943 148.083 99.9066C148.047 99.8753 147.984 99.8128 147.953 99.7816C147.859 99.7816 147.823 99.7451 147.823 99.7451Z" fill="#F48A8B"/>
<path d="M202.25 95.0781C202.25 95.0781 202.187 95.1458 202.057 95.2396C201.995 95.276 201.932 95.3385 201.864 95.401C201.833 95.4323 201.802 95.4687 201.739 95.5C201.708 95.5313 201.64 95.5625 201.609 95.6302C201.515 95.6927 201.417 95.7865 201.323 95.8854C201.224 95.9792 201.13 96.0781 201 96.1771C200.937 96.2396 200.906 96.2708 200.838 96.3333C200.776 96.401 200.745 96.4323 200.682 96.4948C200.614 96.5625 200.583 96.5937 200.521 96.6562C200.453 96.724 200.422 96.7865 200.359 96.8177C200.265 96.9479 200.167 97.0417 200.073 97.1719C199.974 97.3021 199.88 97.4323 199.812 97.526C199.75 97.6563 199.656 97.75 199.588 97.8802C199.557 97.9427 199.526 98.0104 199.495 98.0417C199.463 98.1042 199.427 98.1406 199.396 98.2031C199.333 98.2969 199.302 98.3958 199.234 98.4896C199.203 98.526 199.203 98.5885 199.172 98.6198C199.14 98.651 199.14 98.6875 199.109 98.7188C199.047 98.8438 199.01 98.9115 199.01 98.9115C199.01 98.9115 199.01 98.8125 199.01 98.6875C199.01 98.651 199.01 98.6198 199.01 98.5573C199.01 98.526 199.01 98.4583 199.047 98.4271C199.047 98.3646 199.078 98.3333 199.078 98.2656C199.078 98.2031 199.109 98.1406 199.109 98.0729C199.14 98.0104 199.14 97.9427 199.172 97.8802C199.203 97.8177 199.203 97.75 199.239 97.6875C199.271 97.5573 199.364 97.3958 199.427 97.2708C199.463 97.2031 199.495 97.1406 199.557 97.0417C199.588 96.9792 199.656 96.9167 199.687 96.8177C199.781 96.6875 199.88 96.5313 200.005 96.401C200.135 96.2708 200.229 96.1406 200.359 96.0469C200.489 95.9167 200.614 95.8229 200.745 95.724C200.807 95.6615 200.875 95.6302 200.937 95.5938C201 95.5625 201.068 95.5 201.13 95.4688C201.255 95.401 201.385 95.3385 201.484 95.276C201.547 95.2396 201.609 95.2083 201.64 95.2083C201.708 95.1771 201.739 95.1771 201.802 95.1458C201.901 95.1146 201.995 95.0781 202.057 95.0469C202.187 95.0781 202.25 95.0781 202.25 95.0781Z" fill="#F48A8B"/>
<mask id="mask5_2482_10353" style="mask-type:luminance" maskUnits="userSpaceOnUse" x="137" y="46" width="72" height="54">
<path d="M137 46.4795H209V99.0003H137V46.4795Z" fill="white"/>
</mask>
<g mask="url(#mask5_2482_10353)">
<path d="M208.188 69.1723C208.057 67.115 207.063 65.3442 205.589 63.9587C204.078 62.5733 202.542 62.8025 203.375 60.7087C204.24 58.615 204.912 56.365 204.531 54.141C204.177 51.9223 202.474 49.766 200.229 49.5421C200.136 49.5421 200.005 49.5421 199.943 49.6046C199.88 49.6671 199.88 49.766 199.912 49.8598C200.037 51.0837 200.229 52.3389 200.167 53.5629C200.136 54.0785 199.141 56.9744 199.302 57.1983C198.307 55.7192 197.151 54.3702 195.87 53.1775C191.859 49.4431 186.474 47.1567 180.573 47.1567C179.833 47.1567 179.094 47.1931 178.391 47.2556C176.849 46.9014 175.281 46.74 173.641 46.74C165.594 46.74 158.219 51.3077 154.401 58.3598C155.136 57.0056 149.011 59.0994 148.594 59.391C146.255 60.8702 144.359 62.865 142.339 64.7296C140.734 66.2452 138.365 67.5317 137.594 69.7192C136.375 73.1619 138.042 78.6358 138.75 82.0785C140.031 88.3858 142.63 91.9275 147.63 95.8233C148.948 96.8494 149.651 97.9796 150.583 97.7869C150.583 97.2348 150.391 94.339 150.359 93.7921C150.068 90.9952 150.037 88.1931 150.037 85.3598C150.037 82.7556 150.714 80.3077 151.865 78.1827C152.99 81.0785 154.625 84.0733 156.87 85.0733C156.87 85.0733 156.422 83.5265 156.005 81.4015C156.037 81.4327 156.068 81.5004 156.099 81.5317C155.938 80.9848 155.844 80.4067 155.844 79.8233C155.813 79.6983 155.813 79.5369 155.844 79.4067C155.172 76.3806 154.849 72.4223 157.094 70.266C161.037 66.5317 167.677 68.5942 173.677 66.9535C179.703 65.2764 183.203 64.6671 183.203 64.6671C183.203 64.6671 181.755 82.9796 195.839 85.9067L195.901 89.0317L196.031 95.4692L197.474 95.8858C197.474 95.8858 198.245 91.4744 199.813 89.0942C201 88.9327 202.057 88.5785 203.021 88.0317C203.313 87.3546 203.599 86.7139 203.886 86.0369C203.984 85.8442 204.146 85.714 204.302 85.6515C205.396 82.5317 208.443 73.391 208.188 69.1723Z" fill="#5E606D"/>
</g>
<path d="M155.906 71.651C155.906 71.651 155.937 71.5208 156.036 71.3281C156.068 71.2344 156.13 71.1042 156.161 70.9427C156.198 70.7813 156.292 70.6198 156.391 70.3958C156.422 70.2969 156.484 70.2031 156.516 70.0729C156.578 69.9792 156.615 69.849 156.677 69.7188C156.74 69.5885 156.771 69.4948 156.839 69.3646C156.901 69.2344 156.964 69.1094 157.031 68.9792C157.318 68.4323 157.641 67.8542 158.089 67.2396C158.505 66.6302 159.016 65.9844 159.625 65.375C160.234 64.7604 160.911 64.151 161.682 63.6354C161.875 63.5052 162.062 63.3802 162.292 63.25C162.484 63.1198 162.708 62.9948 162.901 62.8958C163.318 62.6719 163.766 62.4479 164.214 62.25C164.661 62.0573 165.146 61.901 165.625 61.7396C165.849 61.6719 166.104 61.6094 166.328 61.5469L166.682 61.4479L167.036 61.3854C168.031 61.1927 169.026 61.0625 169.984 61.0312C170.245 61.0312 170.469 61.0312 170.724 61.0312C170.979 61.0312 171.203 61.0312 171.464 61.0312C171.943 61.0312 172.422 61.0937 172.875 61.125C173.802 61.224 174.672 61.349 175.505 61.5469C176.339 61.7031 177.109 61.9323 177.812 62.125C178.516 62.349 179.161 62.5729 179.703 62.7656C180.25 62.9948 180.729 63.1875 181.115 63.3802C181.5 63.5417 181.823 63.7031 182.016 63.7969C182.208 63.8958 182.333 63.9583 182.333 63.9583C182.333 63.9583 182.208 63.9271 182.016 63.8281C181.792 63.7656 181.469 63.6354 181.083 63.5052C180.667 63.3802 180.188 63.2187 179.609 63.0573C179.031 62.8958 178.391 62.7344 177.682 62.5729C177.333 62.4792 176.948 62.4115 176.562 62.349C176.177 62.2865 175.792 62.1875 175.375 62.125C174.542 61.9948 173.677 61.901 172.776 61.8333C171.88 61.7708 170.948 61.7708 170.021 61.8021C169.089 61.8646 168.125 61.9635 167.198 62.1562C166.266 62.349 165.339 62.6042 164.469 62.9583C163.604 63.3125 162.771 63.7344 162.031 64.2135C161.297 64.6979 160.589 65.2448 160.01 65.7917C159.724 66.0833 159.438 66.3698 159.177 66.6302C159.052 66.7604 158.922 66.9167 158.792 67.0469C158.667 67.1771 158.568 67.3385 158.443 67.4688C157.99 68.0469 157.609 68.5625 157.286 69.0781C157.224 69.2031 157.125 69.3333 157.062 69.4271C157 69.5573 156.932 69.6562 156.87 69.7812C156.807 69.8802 156.74 70.0104 156.677 70.1042C156.615 70.2031 156.578 70.2969 156.516 70.3958C156.422 70.5885 156.323 70.75 156.26 70.9115C156.198 71.0729 156.13 71.1979 156.068 71.2969C155.969 71.5521 155.906 71.651 155.906 71.651Z" fill="#2F365B"/>
<path d="M178.615 56.9743C178.615 56.9743 178.453 56.9118 178.135 56.8128C177.813 56.7191 177.333 56.5889 176.724 56.4274C176.115 56.266 175.375 56.0732 174.542 55.8805C173.677 55.6878 172.714 55.4639 171.656 55.2712C170.599 55.0732 169.443 54.917 168.224 54.7868C167.005 54.6566 165.719 54.5941 164.375 54.5941C163.057 54.5941 161.682 54.7191 160.333 54.9795C158.984 55.2712 157.641 55.7191 156.484 56.4587C155.906 56.8128 155.359 57.2295 154.88 57.7451C154.401 58.2295 153.984 58.7764 153.661 59.3545L153.531 59.5837L153.5 59.6462V59.6774L153.438 59.8076C153.375 59.9691 153.276 60.1305 153.214 60.292C153.052 60.6097 152.891 60.9014 152.734 61.2243C152.573 61.5472 152.443 61.8337 152.281 62.1566C152.156 62.4795 151.995 62.766 151.865 63.0576C151.74 63.3493 151.609 63.667 151.479 63.9899C151.417 64.1514 151.354 64.2816 151.286 64.443C151.255 64.5055 151.224 64.6045 151.193 64.667C151.161 64.7295 151.13 64.8285 151.094 64.891C150.87 65.5055 150.646 66.0837 150.484 66.6618C150.453 66.8232 150.391 66.9535 150.359 67.1149C150.328 67.1774 150.328 67.2399 150.297 67.3389C150.26 67.4014 150.26 67.5003 150.229 67.5628C150.167 67.8545 150.104 68.141 150.036 68.4014C150.005 68.5264 149.974 68.6878 149.943 68.818C149.911 68.9482 149.875 69.1097 149.875 69.2347C149.844 69.3649 149.812 69.4951 149.812 69.6566C149.812 69.7816 149.781 69.9118 149.781 70.042C149.781 70.1722 149.75 70.2972 149.75 70.4274C149.75 70.4899 149.75 70.5576 149.719 70.6201C149.719 70.6826 149.719 70.7503 149.719 70.8128C149.719 71.0732 149.688 71.3285 149.688 71.5524C149.688 71.8128 149.688 72.0368 149.688 72.2607C149.688 72.3285 149.688 72.391 149.688 72.4222C149.688 72.4899 149.688 72.5524 149.688 72.5837C149.688 72.6826 149.719 72.8076 149.719 72.9066C149.719 73.0003 149.75 73.1305 149.75 73.2295C149.75 73.3232 149.781 73.4222 149.781 73.5472C149.812 73.7451 149.813 73.9378 149.844 74.1305C149.911 74.516 149.943 74.8389 150.005 75.1566C150.104 75.7712 150.198 76.2555 150.26 76.6045C150.328 76.9274 150.359 77.1201 150.359 77.1201C150.359 77.1201 150.328 76.9587 150.229 76.6045C150.167 76.2868 150.005 75.8024 149.875 75.193C149.781 74.9014 149.719 74.5472 149.62 74.1618C149.589 73.9691 149.557 73.7764 149.495 73.5837C149.458 73.4847 149.458 73.391 149.427 73.2607C149.427 73.1618 149.396 73.0368 149.396 72.9378C149.396 72.8441 149.365 72.7139 149.365 72.6149C149.365 72.5524 149.365 72.4899 149.333 72.4535C149.333 72.391 149.333 72.3285 149.333 72.292C149.302 72.068 149.302 71.8128 149.266 71.5524C149.266 71.2972 149.266 71.0368 149.266 70.7816C149.266 70.7191 149.266 70.6514 149.266 70.5889C149.266 70.5264 149.266 70.4587 149.266 70.3962C149.266 70.266 149.302 70.1357 149.302 69.9795C149.302 69.8493 149.333 69.6878 149.333 69.5576C149.333 69.4274 149.365 69.2712 149.396 69.141C149.427 69.0107 149.427 68.8493 149.458 68.7243C149.495 68.5941 149.495 68.4326 149.526 68.2712C149.589 67.9795 149.651 67.693 149.719 67.4014C149.719 67.3389 149.75 67.2399 149.75 67.1774C149.781 67.1149 149.781 67.016 149.812 66.9535C149.844 66.792 149.875 66.6618 149.943 66.5003C150.104 65.891 150.297 65.2764 150.521 64.667C150.552 64.6045 150.583 64.5055 150.583 64.443C150.615 64.3753 150.646 64.2816 150.677 64.2139C150.745 64.0576 150.807 63.8962 150.87 63.766C151 63.443 151.13 63.1201 151.255 62.8337C151.385 62.5107 151.547 62.1878 151.672 61.9014C151.802 61.5785 151.964 61.2555 152.089 60.9326C152.25 60.6097 152.411 60.3232 152.542 60.0003C152.604 59.8389 152.698 59.6774 152.766 59.516L152.828 59.391L152.859 59.3545L152.891 59.3232L152.927 59.2607L153.052 59.0003C153.406 58.3597 153.854 57.7451 154.401 57.1982C154.911 56.6514 155.521 56.2035 156.161 55.7816C157.448 55.0107 158.891 54.5264 160.302 54.2399C161.005 54.1097 161.714 54.016 162.417 53.9482C163.125 53.8857 163.828 53.8857 164.5 53.8857C165.88 53.8857 167.198 54.016 168.417 54.2087C169.635 54.3701 170.786 54.5941 171.849 54.8493C172.906 55.0732 173.87 55.3649 174.703 55.5889C175.536 55.8493 176.271 56.0732 176.849 56.2972C177.458 56.4899 177.906 56.6826 178.229 56.8128C178.453 56.9118 178.615 56.9743 178.615 56.9743Z" fill="#443F4F"/>
<path d="M149.687 61.224C149.588 61.1927 149.427 61.125 149.302 61.0938C149.14 61.0313 148.979 60.9635 148.786 60.901C148.594 60.8385 148.401 60.7396 148.177 60.6771C147.953 60.6094 147.729 60.5469 147.474 60.4844C146.958 60.7708 146.479 61.0313 145.963 61.349L146.094 61.3177H146.156L146.255 61.2865C146.38 61.2552 146.479 61.2552 146.604 61.224C146.828 61.1927 147.088 61.1927 147.312 61.224C147.792 61.2552 148.239 61.349 148.656 61.3854C148.755 61.3854 148.849 61.4167 148.948 61.4167C149.042 61.4167 149.14 61.4167 149.203 61.4479C149.364 61.4479 149.526 61.4479 149.651 61.4479C149.781 61.4479 149.875 61.4167 149.943 61.4167C150.005 61.4167 150.036 61.4167 150.036 61.4167C150.036 61.4167 150.005 61.4167 149.943 61.3854C149.911 61.3177 149.812 61.2865 149.687 61.224Z" fill="#443F4F"/>
<mask id="mask6_2482_10353" style="mask-type:luminance" maskUnits="userSpaceOnUse" x="166" y="46" width="28" height="14">
<path d="M166.333 46.4795H193V59.0003H166.333V46.4795Z" fill="white"/>
</mask>
<g mask="url(#mask6_2482_10353)">
<path d="M192.307 58.5837C192.307 58.5837 192.245 58.4847 192.083 58.3285C192.021 58.2608 191.922 58.1358 191.828 58.0368C191.735 57.9066 191.604 57.7816 191.474 57.6202C191.412 57.5524 191.349 57.4587 191.281 57.3597C191.219 57.266 191.156 57.167 191.057 57.0733C190.896 56.8806 190.74 56.6514 190.578 56.4275C190.255 55.9743 189.87 55.4639 189.453 54.9483C189.36 54.8181 189.229 54.6879 189.104 54.5629C189.037 54.4952 188.974 54.4327 188.943 54.3702C188.875 54.3024 188.813 54.24 188.75 54.1722C188.62 54.0472 188.495 53.917 188.365 53.7868C188.235 53.6618 188.078 53.5316 187.917 53.4014C187.849 53.3389 187.755 53.2712 187.693 53.2087C187.625 53.1462 187.531 53.0785 187.469 53.016C187.307 52.8858 187.146 52.7608 186.985 52.6306C186.823 52.5004 186.667 52.3702 186.505 52.2452C186.344 52.115 186.151 51.9847 185.99 51.8597C185.287 51.3754 184.547 50.891 183.776 50.4743C183.583 50.3754 183.391 50.2816 183.167 50.1514C182.974 50.0524 182.75 49.9587 182.557 49.8285C182.365 49.7347 182.141 49.6045 181.948 49.5056L181.339 49.1879C180.537 48.7347 179.735 48.3181 178.938 47.9952C178.516 47.8337 178.136 47.7035 177.719 47.6097C177.62 47.5785 177.526 47.542 177.396 47.542C177.297 47.5108 177.203 47.5108 177.073 47.4795C176.979 47.4483 176.88 47.4483 176.755 47.4483L176.594 47.417H176.563H176.432C176.339 47.417 176.208 47.3858 176.115 47.3858H175.953C175.891 47.3858 175.854 47.3858 175.792 47.3858C175.698 47.3858 175.599 47.3858 175.505 47.3858H175.182C174.99 47.3858 174.797 47.3858 174.604 47.417C174.412 47.4483 174.219 47.4483 174.026 47.4795C173.833 47.5108 173.641 47.542 173.485 47.5785C173.292 47.6097 173.13 47.6722 172.938 47.7035C172.583 47.8024 172.235 47.8962 171.912 47.9952C171.271 48.2191 170.662 48.4483 170.146 48.641C169.636 48.8337 169.151 49.0264 168.802 49.1514C168.417 49.2816 168.125 49.3806 167.901 49.4431C167.708 49.5056 167.583 49.542 167.583 49.542C167.583 49.542 167.677 49.4743 167.87 49.4118C168.063 49.3129 168.349 49.1879 168.703 48.9952C169.057 48.7972 169.505 48.5733 170.021 48.3493C170.531 48.0941 171.11 47.8024 171.75 47.542C172.391 47.2868 173.13 47.0316 173.901 46.8389C174.094 46.7712 174.318 46.7712 174.511 46.7087C174.703 46.6774 174.927 46.641 175.151 46.641L175.313 46.6097H175.469C175.568 46.6097 175.698 46.6097 175.792 46.6097C175.922 46.6097 176.016 46.6097 176.115 46.6097C176.208 46.6097 176.339 46.6097 176.432 46.6097H176.625L176.787 46.641C176.917 46.641 177.011 46.6774 177.141 46.6774C177.266 46.7087 177.365 46.7087 177.49 46.7399C177.62 46.7712 177.719 46.7712 177.844 46.8024C178.292 46.9014 178.745 47.0316 179.193 47.1931C180.057 47.5108 180.891 47.9639 181.724 48.4118L182.333 48.7347C182.526 48.8337 182.719 48.9587 182.943 49.0577L183.266 49.2191L183.583 49.3806C183.776 49.4743 184 49.6045 184.193 49.7035C184.995 50.1514 185.766 50.667 186.474 51.1827C186.63 51.3077 186.823 51.4379 186.985 51.5681C187.146 51.6983 187.307 51.8597 187.469 51.9847C187.625 52.115 187.787 52.2764 187.948 52.4066C188.011 52.4691 188.11 52.5316 188.172 52.6306C188.235 52.6931 188.302 52.7608 188.396 52.8545C188.526 52.9847 188.688 53.1462 188.813 53.2712C188.943 53.4327 189.068 53.5629 189.198 53.7243C189.261 53.7868 189.328 53.8545 189.391 53.9483C189.453 54.016 189.521 54.1097 189.552 54.1722C189.646 54.3337 189.776 54.4639 189.87 54.5941C190.287 55.1722 190.61 55.7191 190.896 56.2035C191.057 56.4274 191.188 56.6514 191.313 56.8806C191.38 56.9743 191.443 57.0733 191.505 57.167C191.573 57.266 191.636 57.3597 191.667 57.4275C191.766 57.5837 191.86 57.7452 191.958 57.8754C192.052 58.0056 192.115 58.0993 192.182 58.1983C192.245 58.4847 192.307 58.5837 192.307 58.5837Z" fill="#443F4F"/>
</g>
<path d="M191.057 69.2031C191.057 69.2031 191.057 69.2708 191.057 69.3958C191.057 69.526 191.057 69.7187 191.089 69.9792C191.089 70.2031 191.156 70.4896 191.219 70.8438C191.281 71.1667 191.412 71.5208 191.573 71.9062C191.604 72.0052 191.636 72.099 191.698 72.1979C191.734 72.2917 191.797 72.3906 191.859 72.4896C191.958 72.6823 192.083 72.875 192.182 73.0677C192.438 73.4531 192.693 73.8698 193.047 74.2552C193.208 74.4479 193.401 74.6458 193.563 74.8385C193.656 74.9323 193.75 75.0313 193.849 75.125L193.979 75.2552L194.136 75.3854C194.234 75.4792 194.328 75.5781 194.427 75.6719C194.521 75.7708 194.62 75.8333 194.745 75.9323C194.844 76.026 194.938 76.0937 195.068 76.1875C195.162 76.2865 195.292 76.349 195.391 76.4479C195.615 76.6042 195.839 76.7656 196.063 76.9271C196.287 77.0885 196.511 77.2188 196.734 77.3802C196.833 77.4427 196.958 77.5104 197.089 77.6042C197.219 77.6667 197.313 77.7344 197.443 77.7969C197.667 77.9271 197.891 78.0573 198.115 78.1823C198.563 78.4427 199.011 78.6354 199.464 78.8281C199.688 78.9219 199.88 79.0208 200.104 79.0833C200.297 79.151 200.521 79.2448 200.714 79.3125C200.807 79.3438 200.906 79.375 201 79.4062C201.099 79.4375 201.193 79.4688 201.292 79.4688C201.484 79.5365 201.641 79.5677 201.802 79.599C201.901 79.6302 201.964 79.6302 202.026 79.6667C202.094 79.6667 202.188 79.6979 202.25 79.6979C202.318 79.6979 202.38 79.7292 202.443 79.7292C202.511 79.7292 202.573 79.7604 202.636 79.7604C202.766 79.7917 202.859 79.7917 202.958 79.7917C203.052 79.7917 203.12 79.7917 203.182 79.8229C203.313 79.8229 203.375 79.8594 203.375 79.8594C203.375 79.8594 203.313 79.8594 203.182 79.8906C203.12 79.8906 203.021 79.9219 202.927 79.9219C202.828 79.9219 202.734 79.9219 202.604 79.9531C202.542 79.9531 202.474 79.9531 202.412 79.9531C202.349 79.9531 202.287 79.9531 202.188 79.9531C202.026 79.9531 201.865 79.9531 201.708 79.9219C201.547 79.9219 201.354 79.8906 201.162 79.8594C201.068 79.8594 200.969 79.8229 200.875 79.8229C200.776 79.7917 200.682 79.7917 200.552 79.7604C200.136 79.6979 199.688 79.5677 199.203 79.4062C198.724 79.2448 198.245 79.0833 197.761 78.8594C197.281 78.6354 196.766 78.375 196.287 78.0885C195.807 77.7969 195.323 77.474 194.875 77.1198C194.427 76.7656 193.979 76.3802 193.594 75.9948L193.432 75.8333L193.302 75.6719C193.208 75.5781 193.109 75.4792 193.016 75.349C192.823 75.125 192.662 74.9323 192.5 74.7083C192.182 74.2917 191.891 73.8073 191.667 73.3906C191.573 73.1615 191.443 72.9375 191.38 72.7135C191.349 72.6146 191.281 72.4896 191.25 72.3906C191.219 72.2917 191.188 72.1667 191.156 72.0677C191.089 71.875 191.057 71.651 191.026 71.4583C190.995 71.3594 190.995 71.2656 190.995 71.1667C190.995 71.0729 190.964 70.974 190.964 70.9115C190.932 70.5573 190.964 70.2656 190.995 70.0104C191.026 69.75 191.057 69.5573 191.089 69.4271C191.026 69.2708 191.057 69.2031 191.057 69.2031Z" fill="#443F4F"/>
<path d="M204.948 75.4479C205.042 75.4479 205.141 75.4479 205.235 75.4167C205.427 75.3854 205.589 75.349 205.75 75.3177C205.781 75.3177 205.781 75.3177 205.813 75.3177C205.844 75.1927 205.844 75.0625 205.875 74.9323C205.813 74.9323 205.75 74.9323 205.682 74.9323C205.521 74.9323 205.365 74.9323 205.203 74.9323C204.88 74.901 204.495 74.901 204.146 74.8021C203.953 74.7708 203.761 74.7083 203.568 74.6771C203.469 74.6458 203.375 74.6094 203.276 74.5781C203.182 74.5469 203.083 74.5156 202.99 74.4844C202.604 74.3229 202.219 74.1302 201.833 73.9375C201.448 73.7083 201.099 73.4531 200.714 73.1927C200.36 72.9375 200.005 72.6458 199.688 72.3281C199.365 72.0052 199.047 71.7135 198.787 71.3906C198.63 71.2344 198.5 71.0729 198.37 70.9115C198.245 70.75 198.115 70.5885 197.985 70.4271C197.922 70.3646 197.86 70.2656 197.828 70.2031C197.761 70.1354 197.729 70.0417 197.667 69.9792C197.568 69.8177 197.474 69.6875 197.375 69.526C197.182 69.2344 197.026 68.9792 196.896 68.724C196.766 68.4635 196.641 68.2708 196.542 68.0781C196.448 67.8854 196.38 67.7552 196.349 67.6615C196.318 67.5625 196.287 67.5 196.287 67.5C196.287 67.5 196.287 67.5625 196.318 67.6615C196.349 67.7552 196.349 67.9167 196.417 68.1406C196.448 68.3333 196.542 68.5937 196.641 68.849C196.735 69.1094 196.865 69.4271 197.026 69.75C197.089 69.9115 197.182 70.0729 197.281 70.2344C197.313 70.3333 197.375 70.3958 197.412 70.4896C197.474 70.5885 197.505 70.651 197.568 70.75C197.667 70.9427 197.792 71.1042 197.922 71.2656C197.985 71.3594 198.052 71.4271 198.115 71.5208C198.177 71.6198 198.245 71.7135 198.307 71.7812C198.37 71.875 198.438 71.9375 198.531 72.0365C198.594 72.1354 198.693 72.1979 198.755 72.2917C198.917 72.4896 199.078 72.6458 199.24 72.8073C199.589 73.1302 199.943 73.4531 200.328 73.7448C200.714 74.0313 201.13 74.2917 201.547 74.5156C201.641 74.5781 201.771 74.6094 201.865 74.6771C201.964 74.7396 202.094 74.7708 202.188 74.8385C202.287 74.8698 202.412 74.9323 202.511 74.9635C202.604 75 202.735 75.0313 202.828 75.0625C202.927 75.0937 203.052 75.125 203.151 75.1562C203.245 75.1927 203.375 75.224 203.469 75.224C203.693 75.2552 203.886 75.3177 204.115 75.3177C204.302 75.349 204.531 75.349 204.724 75.349C204.755 75.4792 204.849 75.4792 204.948 75.4479Z" fill="#443F4F"/>
<path d="M205.266 69.3018C205.49 69.5883 205.682 69.8799 205.875 70.1351C206.068 70.4268 206.26 70.7185 206.453 70.9737C206.453 71.0049 206.484 71.0049 206.484 71.0362C206.516 70.9112 206.547 70.781 206.547 70.6195C206.583 70.4268 206.615 70.2029 206.646 70.0101C206.646 69.9789 206.677 69.9424 206.677 69.8799C206.646 69.8174 206.583 69.7185 206.547 69.656C206.359 69.3331 206.13 69.0414 205.938 68.7549C205.714 68.4633 205.49 68.1716 205.234 67.9164C205.104 67.7862 204.979 67.6612 204.849 67.531C204.719 67.4008 204.594 67.2706 204.464 67.1768C204.208 66.9529 203.922 66.7237 203.661 66.5674C203.406 66.3695 203.12 66.2445 202.859 66.1456C202.604 66.0518 202.318 65.9841 202.094 65.9529C201.865 65.9216 201.641 65.9841 201.484 66.0154C201.323 66.0518 201.224 66.1456 201.13 66.1768C201.063 66.2445 201.031 66.2445 201.031 66.2445C201.031 66.2445 201.062 66.2445 201.161 66.2133C201.255 66.1768 201.354 66.1768 201.516 66.1768C201.672 66.1768 201.833 66.2133 202.026 66.2758C202.219 66.3383 202.443 66.4372 202.635 66.5674C203.052 66.8226 203.5 67.2393 203.953 67.7237C204.177 67.9476 204.401 68.2081 204.625 68.4633C204.818 68.7549 205.042 69.0101 205.266 69.3018Z" fill="#443F4F"/>
<path d="M147.698 67.5313C147.698 67.5313 147.63 67.5625 147.505 67.625C147.375 67.6927 147.182 67.7865 146.958 67.9167C146.828 67.9792 146.703 68.0469 146.573 68.1406C146.448 68.2396 146.286 68.3333 146.125 68.4323C145.963 68.526 145.802 68.6563 145.646 68.7552C145.484 68.8802 145.292 69.0104 145.13 69.1406C144.969 69.2708 144.776 69.4271 144.583 69.5885C144.39 69.75 144.203 69.9115 144.042 70.1042C143.656 70.4583 143.302 70.8802 142.948 71.2969C142.599 71.7135 142.245 72.1979 141.922 72.6823C141.604 73.1615 141.312 73.6771 141.026 74.224C140.734 74.7396 140.51 75.2865 140.286 75.8333C140.062 76.3802 139.87 76.9271 139.708 77.474C139.552 78.0208 139.39 78.5365 139.292 79.0521C139.167 79.5677 139.099 80.0521 139.005 80.5C138.974 80.724 138.943 80.9531 138.906 81.1458C138.875 81.3385 138.875 81.5625 138.844 81.724C138.844 81.9167 138.812 82.0781 138.812 82.2396C138.812 82.401 138.781 82.5625 138.781 82.6875C138.75 82.9479 138.75 83.1719 138.75 83.3021C138.75 83.4323 138.75 83.526 138.75 83.526C138.75 83.526 138.75 83.4635 138.719 83.3021C138.682 83.1719 138.651 82.9479 138.62 82.6875C138.62 82.5625 138.588 82.401 138.588 82.2396C138.588 82.0781 138.557 81.8854 138.557 81.724C138.557 81.5313 138.557 81.3385 138.557 81.1146C138.557 80.8854 138.557 80.6615 138.557 80.4375C138.557 80.2135 138.588 79.9531 138.588 79.6979C138.62 79.4375 138.651 79.1823 138.682 78.9219C138.75 78.375 138.875 77.8281 139.005 77.25C139.068 76.9583 139.167 76.6719 139.229 76.3802C139.328 76.0938 139.422 75.8021 139.515 75.5104C139.745 74.9323 140 74.3542 140.286 73.8073C140.578 73.2604 140.896 72.7135 141.25 72.1979C141.443 71.9375 141.604 71.6823 141.797 71.4583C141.89 71.3281 141.989 71.2344 142.083 71.1042C142.182 71.0052 142.276 70.8802 142.375 70.7813C142.792 70.3646 143.172 69.9427 143.594 69.625C143.781 69.4635 144.01 69.3021 144.203 69.1406C144.39 68.9792 144.62 68.849 144.812 68.724C145 68.5937 145.193 68.4948 145.385 68.3698C145.578 68.2708 145.739 68.1719 145.932 68.0781C146.094 68.0156 146.255 67.9167 146.411 67.8542C146.573 67.7865 146.703 67.7552 146.828 67.6927C146.896 67.6615 146.958 67.6615 147.021 67.625C147.088 67.5937 147.12 67.5937 147.182 67.5625C147.281 67.5313 147.375 67.5 147.437 67.5C147.63 67.5625 147.698 67.5313 147.698 67.5313Z" fill="#443F4F"/>
<path d="M182.141 64.8279C179.964 65.8227 177.781 66.8227 175.469 67.531C173.417 68.1716 171.302 68.5935 169.057 68.5623C165.849 68.5623 163.057 68.7237 160.271 69.3331C159.083 69.5883 157.865 69.9425 156.646 70.3956C158.344 65.1821 164.245 61.9633 169.281 61.1925C173.87 60.4841 179.224 62.7654 183.167 65.2446" fill="#443F4F"/>
<path d="M203.568 86.9684C203.599 86.9372 203.63 86.8747 203.63 86.8434C201.062 86.9059 197.922 86.5518 196.031 85.0361L195.614 85.458C195.005 86.7757 195.739 88.8695 196.031 90.2549C196.349 91.9268 196.318 93.9215 196.927 95.432C198.948 94.4997 198.083 90.9632 199.719 89.3851C200.359 88.7393 202.026 87.8695 203.437 87.2913C203.5 87.1299 203.536 87.0361 203.568 86.9684Z" fill="#443F4F"/>
<path d="M204.208 85.9744C204.239 85.8755 204.271 85.7453 204.302 85.6515C203.568 85.589 198.693 84.9432 196.031 81.6932C195.099 80.5682 198.531 86.2609 195.838 87.5161C194.328 88.2244 201.031 87.9015 202.474 87.3234C203.406 86.938 203.953 86.3286 204.208 85.9744Z" fill="#443F4F"/>
<path d="M146.51 73C146.51 73 146.448 73.0677 146.318 73.2292C146.255 73.2917 146.187 73.3906 146.125 73.4844C146.062 73.5833 145.963 73.7083 145.87 73.8698C145.708 74.1615 145.515 74.5156 145.323 74.9635C145.13 75.4167 144.969 75.901 144.844 76.4792C144.682 77.026 144.583 77.6667 144.489 78.3125C144.39 78.9583 144.328 79.6667 144.297 80.4062C144.265 80.7604 144.265 81.1458 144.265 81.5C144.265 81.8854 144.265 82.2396 144.297 82.625C144.328 83.3958 144.39 84.1719 144.458 84.9115C144.552 85.6823 144.651 86.4531 144.776 87.1979C144.906 87.9375 145.068 88.6771 145.26 89.3854C145.453 90.0938 145.646 90.7656 145.87 91.3802C146.094 91.9896 146.349 92.5677 146.604 93.0833C146.864 93.599 147.12 94.0521 147.406 94.4375C147.667 94.8229 147.922 95.1458 148.177 95.401C148.307 95.5313 148.401 95.6302 148.5 95.724C148.594 95.8229 148.693 95.8854 148.755 95.9479C148.917 96.0781 148.979 96.1094 148.979 96.1094C148.979 96.1094 148.885 96.0781 148.724 95.9792C148.562 95.8854 148.338 95.7552 148.047 95.5312C147.792 95.3073 147.474 95.0156 147.151 94.6615C146.828 94.3073 146.51 93.8594 146.187 93.3438C145.87 92.8281 145.578 92.25 145.292 91.6354C145 91.026 144.776 90.3177 144.552 89.6094C144.458 89.2552 144.328 88.901 144.234 88.5156C144.135 88.1302 144.042 87.776 143.974 87.3906C143.818 86.6146 143.687 85.8437 143.625 85.0365C143.526 84.2344 143.495 83.4635 143.463 82.6562C143.463 81.8854 143.463 81.1146 143.526 80.3698C143.594 79.6302 143.687 78.9219 143.818 78.25C143.88 77.9271 143.974 77.5729 144.042 77.2812C144.135 76.9583 144.234 76.6719 144.328 76.3802C144.521 75.8021 144.745 75.3177 145 74.901C145.229 74.4844 145.484 74.1302 145.708 73.8385C145.802 73.7083 145.932 73.5833 145.995 73.4844C146.094 73.3906 146.156 73.2917 146.255 73.2604C146.448 73.0677 146.51 73 146.51 73Z" fill="#443F4F"/>
<path d="M194.588 85.974C195.005 86.1354 195.323 86.3906 195.614 86.7448C195.677 86.4219 195.771 86.1354 195.901 85.875L194.588 85.974Z" fill="#674696" fill-opacity="0.4"/>
<path d="M198.948 103.354C199.078 103.578 199.271 103.771 199.495 103.901C199.526 103.865 199.557 103.834 199.588 103.802C199.656 103.709 199.271 103.511 198.948 103.354Z" fill="#674696" fill-opacity="0.4"/>
<path d="M180.667 101.745C180.99 105.281 177.365 108.531 172.552 108.984C167.74 109.432 163.573 105.51 163.25 103.385C162.672 99.3279 167.229 100.682 172.005 99.9738C176.786 99.2967 180.312 98.2029 180.667 101.745Z" fill="#4C1211"/>
<path d="M171.974 99.8128C169.536 100.167 167.13 100.005 165.432 100.297C166.364 101.646 168.995 102.453 171.943 102.162C174.896 101.87 177.333 100.615 178.005 99.1357C176.5 99.0419 174.38 99.4899 171.974 99.8128Z" fill="white"/>
<path d="M173.802 105.187C170.823 105.349 168.287 106.411 167.13 107.791C168.703 108.661 170.563 109.208 172.583 109.047C175.313 108.791 177.651 107.666 179.162 106.088C177.781 105.443 175.891 105.088 173.802 105.187Z" fill="#E17974"/>
<path d="M162.385 100.969C162.547 102.87 160.078 104.61 156.87 104.927C153.661 105.219 150.906 103.932 150.745 102.063C150.583 100.167 153.052 98.4273 156.26 98.1044C159.469 97.8179 162.193 99.1044 162.385 100.969Z" fill="#E8C1AC"/>
<path d="M194.427 98.6199C194.62 100.807 191.766 102.87 188.01 103.193C184.292 103.547 181.083 102.031 180.891 99.8438C180.698 97.6563 183.552 95.5938 187.307 95.2761C191.057 94.922 194.234 96.4324 194.427 98.6199Z" fill="#E8C1AC"/>
<path d="M183.427 95.9163C183.328 95.9163 183.234 95.9163 183.135 95.9163C181.693 95.8538 180.344 95.208 179.354 94.1143C178.359 93.0205 177.875 91.6351 177.943 90.1559C178.068 87.2288 180.474 84.9424 183.396 84.9424C183.49 84.9424 183.583 84.9424 183.682 84.9424C186.698 85.1038 189.005 87.6768 188.88 90.7028C188.719 93.6299 186.344 95.9163 183.427 95.9163Z" fill="white"/>
<path d="M183.391 85.0361C183.49 85.0361 183.584 85.0361 183.651 85.0361C186.63 85.1976 188.912 87.708 188.781 90.7028C188.651 93.5986 186.25 95.8538 183.391 95.8538C183.297 95.8538 183.203 95.8538 183.136 95.8538C180.156 95.6924 177.875 93.182 178.005 90.1872C178.167 87.2913 180.537 85.0361 183.391 85.0361ZM183.391 84.8799C180.443 84.8799 178.005 87.1976 177.875 90.1559C177.813 91.6351 178.328 93.0518 179.318 94.1455C180.313 95.2393 181.662 95.8851 183.136 95.9788C183.235 95.9788 183.328 95.9788 183.427 95.9788C186.375 95.9788 188.813 93.6663 188.943 90.7028C189.005 89.2236 188.495 87.807 187.5 86.7132C186.505 85.6195 185.156 84.9736 183.682 84.8799C183.584 84.8799 183.49 84.8799 183.391 84.8799Z" fill="#6D6E70"/>
<path d="M186.599 87.9997C185.865 88.0622 185.573 88.2549 185.479 88.708C185.38 89.0934 185.573 89.5101 185.927 89.7392C186.375 89.9944 186.698 89.9007 187.24 89.4163C187.24 89.4476 187.276 89.4788 187.276 89.5101C187.401 90.0257 187.5 90.5101 187.401 91.0257C187.083 92.5361 186.214 94.083 184.193 94.5309C181.661 95.0778 179.578 93.5049 179.161 91.1872C179.094 90.8955 179.161 90.609 179.161 90.3174C179.125 89.4788 179.385 88.708 179.865 88.0309C180.729 86.8747 181.854 86.2913 183.328 86.3278C184.609 86.359 185.604 86.8747 186.437 87.8069C186.505 87.8694 186.568 87.9372 186.599 87.9997Z" fill="#404041"/>
<path d="M157.734 97.5257C157.641 97.5257 157.542 97.5257 157.448 97.5257C156.005 97.4632 154.656 96.8174 153.662 95.7236C152.667 94.6299 152.188 93.2445 152.25 91.7653C152.38 88.8382 154.787 86.5518 157.703 86.5518C157.797 86.5518 157.896 86.5518 157.99 86.5518C161.005 86.7132 163.318 89.2861 163.188 92.3122C163.026 95.2393 160.656 97.5257 157.734 97.5257Z" fill="white"/>
<path d="M157.703 86.6455C157.797 86.6455 157.896 86.6455 157.959 86.6455C160.943 86.807 163.219 89.3174 163.094 92.3122C162.964 95.208 160.558 97.4632 157.703 97.4632C157.61 97.4632 157.511 97.4632 157.448 97.4632C154.464 97.3018 152.188 94.7913 152.313 91.7965C152.474 88.9007 154.849 86.6455 157.703 86.6455ZM157.703 86.4893C154.75 86.4893 152.313 88.8018 152.188 91.7653C152.125 93.2445 152.636 94.6611 153.63 95.7549C154.625 96.8486 155.969 97.4945 157.448 97.5882C157.542 97.5882 157.641 97.5882 157.735 97.5882C160.688 97.5882 163.125 95.2757 163.25 92.3122C163.318 90.833 162.802 89.4163 161.808 88.3226C160.813 87.2288 159.469 86.583 157.99 86.4893C157.896 86.4893 157.797 86.4893 157.703 86.4893Z" fill="#6D6E70"/>
<path d="M161.265 89.609C160.526 89.6715 160.234 89.8642 160.14 90.3174C160.047 90.7028 160.234 91.1194 160.588 91.3486C161.036 91.6038 161.359 91.5101 161.906 91.0257C161.906 91.0569 161.937 91.0882 161.937 91.1194C162.062 91.6351 162.161 92.1194 162.062 92.6351C161.745 94.1455 160.88 95.6924 158.859 96.1403C156.323 96.6872 154.239 95.1142 153.823 92.7965C153.76 92.5049 153.823 92.2184 153.823 91.9267C153.791 91.0882 154.047 90.3174 154.526 89.6403C155.396 88.484 156.515 87.9007 157.989 87.9372C159.276 87.9684 160.271 88.484 161.104 89.4163C161.166 89.4476 161.198 89.5465 161.265 89.609Z" fill="#404041"/>
<path d="M138.297 160.417C138.234 160.417 138.203 160.417 138.14 160.38L114.021 153.88C113.698 153.786 113.505 153.495 113.542 153.172C113.573 152.854 113.859 152.625 114.182 152.625H153.469C153.76 152.625 154.047 152.854 154.109 153.141C154.177 153.432 154.015 153.755 153.724 153.849L138.557 160.349C138.489 160.38 138.396 160.417 138.297 160.417Z" fill="#C4C6CA"/>
<path d="M153.469 153.24L138.297 159.74L114.183 153.24H153.469ZM153.469 151.948H114.214C113.573 151.948 113.026 152.433 112.933 153.078C112.834 153.719 113.25 154.334 113.86 154.495L137.979 160.995C138.073 161.026 138.203 161.026 138.297 161.026C138.459 161.026 138.651 160.995 138.813 160.933L153.953 154.427C154.433 154.235 154.75 153.787 154.75 153.24C154.75 152.532 154.209 151.948 153.469 151.948Z" fill="#4F4F59"/>
<path d="M95.8333 155.62L136.854 160.578C139.583 160.896 141.474 158.739 140.995 155.781L133.844 109.146C133.458 106.573 131.083 104.51 128.615 104.573L91.1875 105.317C89.1979 105.349 87.7552 107.245 87.9479 109.531L91.5052 150.469C91.7292 153.01 93.6563 155.359 95.8333 155.62Z" fill="#5E606D"/>
<path d="M95.7394 155.105L135.51 159.87C138.14 160.188 139.969 158.131 139.515 155.297L132.588 110.688C132.203 108.245 129.927 106.282 127.521 106.313L91.2186 107.021C89.2915 107.052 87.8801 108.855 88.0728 111.042L91.5363 150.146C91.7603 152.625 93.6561 154.849 95.7394 155.105Z" fill="#C5C7CB"/>
<path d="M116.953 132.198C117.099 132.615 117.203 133.042 117.271 133.479C117.338 133.917 117.37 134.354 117.359 134.792C117.344 135.229 117.297 135.662 117.203 136.083C117.115 136.505 116.984 136.912 116.818 137.302C116.651 137.693 116.453 138.057 116.213 138.401C115.979 138.745 115.713 139.057 115.417 139.339C115.125 139.62 114.802 139.87 114.458 140.078C114.115 140.292 113.75 140.464 113.37 140.594C112.99 140.729 112.599 140.818 112.198 140.865C111.797 140.912 111.396 140.917 110.99 140.88C110.583 140.839 110.182 140.761 109.781 140.636C109.385 140.516 109.005 140.349 108.63 140.146C108.26 139.943 107.911 139.703 107.578 139.432C107.245 139.156 106.943 138.849 106.661 138.511C106.385 138.177 106.135 137.813 105.917 137.427C105.703 137.042 105.521 136.641 105.38 136.219C105.234 135.802 105.125 135.375 105.057 134.938C104.99 134.5 104.963 134.063 104.974 133.625C104.984 133.188 105.036 132.755 105.13 132.333C105.219 131.912 105.349 131.505 105.516 131.115C105.682 130.724 105.88 130.36 106.115 130.016C106.354 129.672 106.62 129.36 106.911 129.078C107.208 128.797 107.531 128.547 107.875 128.339C108.219 128.125 108.583 127.953 108.963 127.823C109.344 127.693 109.729 127.599 110.13 127.552C110.531 127.505 110.937 127.5 111.344 127.537C111.75 127.578 112.151 127.656 112.547 127.781C112.943 127.906 113.328 128.068 113.698 128.271C114.073 128.474 114.422 128.714 114.755 128.99C115.083 129.261 115.391 129.568 115.672 129.906C115.948 130.245 116.198 130.604 116.411 130.99C116.63 131.375 116.807 131.776 116.953 132.198Z" fill="white"/>
</svg>
