<svg width="17" height="17" viewBox="0 0 17 17" fill="none" xmlns="http://www.w3.org/2000/svg">
<mask id="mask0_2226_628" style="mask-type:luminance" maskUnits="userSpaceOnUse" x="0" y="0" width="17" height="17">
<path d="M0 0.5H17V16.5H0V0.5Z" fill="white"/>
</mask>
<g mask="url(#mask0_2226_628)">
<mask id="mask1_2226_628" style="mask-type:luminance" maskUnits="userSpaceOnUse" x="0" y="0" width="17" height="17">
<path d="M0.262411 0.5H16.731C16.8005 0.5 16.8672 0.526571 16.9166 0.574003C16.9658 0.621435 16.9934 0.685776 16.9934 0.752971V16.247C16.9934 16.3142 16.9658 16.3786 16.9166 16.426C16.8672 16.4734 16.8005 16.5 16.731 16.5H0.262411C0.192708 16.5 0.125966 16.4734 0.0767644 16.426C0.0275623 16.3786 0 16.3142 0 16.247V0.752971C0 0.685776 0.0275623 0.621435 0.0767644 0.574003C0.125966 0.526571 0.192708 0.5 0.262411 0.5Z" fill="white"/>
</mask>
<g mask="url(#mask1_2226_628)">
<path d="M0 0.5H16.9861V16.5H0V0.5Z" fill="black"/>
</g>
</g>
<mask id="mask2_2226_628" style="mask-type:luminance" maskUnits="userSpaceOnUse" x="3" y="3" width="11" height="11">
<path d="M3.29199 3.48242H13.701V13.517H3.29199V3.48242Z" fill="white"/>
</mask>
<g mask="url(#mask2_2226_628)">
<path d="M8.49648 3.48242C8.41129 3.48242 8.32609 3.4844 8.2409 3.48835C8.15594 3.49252 8.07097 3.49845 7.98623 3.50658C7.9015 3.51448 7.81699 3.52458 7.73271 3.53666C7.64843 3.54874 7.5646 3.56279 7.481 3.57882C7.3974 3.59485 7.31449 3.61286 7.2318 3.63262C7.14912 3.65261 7.06711 3.67457 6.98556 3.69828C6.90402 3.72222 6.82315 3.74791 6.74297 3.77558C6.66279 3.80325 6.58329 3.83289 6.50471 3.86429C6.42612 3.8957 6.34822 3.92885 6.27122 3.96399C6.19423 3.99912 6.11815 4.03602 6.04298 4.07488C5.96781 4.11353 5.89378 4.15394 5.82066 4.1961C5.74777 4.23848 5.67579 4.2824 5.60495 4.32786C5.5341 4.37353 5.4644 4.42074 5.39606 4.46971C5.32773 4.51868 5.26053 4.56919 5.1947 4.62123C5.12887 4.67328 5.06441 4.72686 5.00131 4.78197C4.93821 4.83731 4.87648 4.89375 4.81635 4.95194C4.75598 5.00991 4.69721 5.06942 4.64004 5.13025C4.58286 5.19108 4.52728 5.25322 4.4733 5.31668C4.41931 5.38015 4.36692 5.44493 4.31612 5.5108C4.26533 5.57668 4.21635 5.64388 4.16897 5.71217C4.12159 5.78046 4.07604 5.84986 4.0323 5.92013C3.98857 5.99062 3.94665 6.06198 3.90633 6.13445C3.86624 6.20691 3.82798 6.28026 3.79153 6.35448C3.75508 6.4287 3.72069 6.5038 3.68811 6.57956C3.65554 6.65554 3.62479 6.73196 3.59609 6.80926C3.56739 6.88656 3.54074 6.96451 3.51591 7.04313C3.49131 7.12174 3.46853 7.20079 3.4478 7.28051C3.42707 7.36022 3.40839 7.44037 3.39199 7.52074C3.37536 7.60133 3.36078 7.68214 3.34826 7.76339C3.33573 7.84464 3.32525 7.92611 3.31705 8.0078C3.30862 8.08949 3.30224 8.1714 3.29814 8.25352C3.29404 8.33543 3.29199 8.41756 3.29199 8.49969C3.29199 8.58181 3.29404 8.66372 3.29814 8.74585C3.30224 8.82776 3.30862 8.90967 3.31705 8.99136C3.32525 9.07304 3.33573 9.15451 3.34826 9.23576C3.36078 9.31701 3.37536 9.39782 3.39199 9.47841C3.40839 9.559 3.42707 9.63916 3.4478 9.71865C3.46853 9.79836 3.49131 9.87741 3.51591 9.95603C3.54074 10.0346 3.56739 10.1126 3.59609 10.1899C3.62479 10.2672 3.65554 10.3438 3.68811 10.4196C3.72069 10.4956 3.75508 10.5705 3.79153 10.6447C3.82798 10.7189 3.86624 10.7922 3.90633 10.8647C3.94665 10.9372 3.98857 11.0085 4.0323 11.079C4.07604 11.1495 4.12159 11.2187 4.16897 11.287C4.21635 11.3553 4.26533 11.4225 4.31612 11.4883C4.36692 11.5544 4.41931 11.619 4.4733 11.6825C4.52728 11.7459 4.58286 11.8081 4.64004 11.8689C4.69721 11.93 4.75598 11.9892 4.81635 12.0474C4.87648 12.1054 4.93821 12.1621 5.00131 12.2172C5.06441 12.2723 5.12887 12.3259 5.1947 12.3779C5.26053 12.4302 5.32773 12.4807 5.39606 12.5294C5.4644 12.5784 5.5341 12.6256 5.60495 12.6713C5.67579 12.717 5.74777 12.7609 5.82066 12.8031C5.89378 12.8452 5.96781 12.8858 6.04298 12.9245C6.11815 12.9631 6.19423 13 6.27122 13.0352C6.34822 13.0703 6.42612 13.1035 6.50471 13.1349C6.58329 13.1665 6.66279 13.1959 6.74297 13.2236C6.82315 13.2512 6.90402 13.2769 6.98556 13.3009C7.06711 13.3246 7.14912 13.3465 7.2318 13.3665C7.31449 13.3865 7.3974 13.4045 7.481 13.4206C7.5646 13.4366 7.64843 13.4506 7.73271 13.4625C7.81699 13.4746 7.9015 13.4847 7.98623 13.4928C8.07097 13.5007 8.15594 13.5069 8.2409 13.5108C8.32609 13.5148 8.41129 13.517 8.49648 13.517C8.58144 13.517 8.66664 13.5148 8.75183 13.5108C8.83679 13.5069 8.92176 13.5007 9.00649 13.4928C9.09123 13.4847 9.17574 13.4746 9.26002 13.4625C9.3443 13.4504 9.42813 13.4366 9.51173 13.4206C9.59532 13.4045 9.67824 13.3865 9.76093 13.3665C9.84361 13.3465 9.92562 13.3246 10.0072 13.3009C10.0887 13.2769 10.1696 13.2512 10.2498 13.2236C10.3299 13.1959 10.4094 13.1665 10.488 13.1349C10.5668 13.1035 10.6445 13.0703 10.7215 13.0352C10.7985 13 10.8746 12.9631 10.9497 12.9245C11.0249 12.8858 11.0989 12.8452 11.1721 12.8031C11.245 12.7609 11.3169 12.717 11.3878 12.6713C11.4586 12.6256 11.5283 12.5784 11.5967 12.5294C11.665 12.4807 11.7322 12.4302 11.798 12.3779C11.8639 12.3259 11.9283 12.2723 11.9914 12.2172C12.0545 12.1621 12.1162 12.1054 12.1764 12.0474C12.2367 11.9892 12.2955 11.93 12.3527 11.8689C12.4099 11.8081 12.4654 11.7459 12.5194 11.6825C12.5734 11.619 12.6258 11.5544 12.6766 11.4883C12.7274 11.4225 12.7764 11.3553 12.8238 11.287C12.8711 11.2187 12.9167 11.1495 12.9604 11.079C13.0042 11.0085 13.0461 10.9372 13.0864 10.8647C13.1265 10.7922 13.1648 10.7189 13.2012 10.6447C13.2376 10.5705 13.272 10.4956 13.3046 10.4196C13.3372 10.3438 13.3679 10.2672 13.3966 10.1899C13.4253 10.1126 13.452 10.0346 13.4768 9.95603C13.5014 9.87741 13.5242 9.79836 13.5449 9.71865C13.5657 9.63916 13.5843 9.559 13.6007 9.47841C13.6174 9.39782 13.6319 9.31701 13.6445 9.23576C13.657 9.15451 13.6675 9.07304 13.6759 8.99136C13.6841 8.90967 13.6905 8.82776 13.6946 8.74585C13.6987 8.66372 13.701 8.58181 13.701 8.49969C13.7007 8.41756 13.6987 8.33543 13.6946 8.25352C13.6903 8.1714 13.6841 8.08949 13.6757 8.0078C13.6675 7.92611 13.657 7.84464 13.6445 7.76339C13.6319 7.68214 13.6174 7.60133 13.6007 7.52074C13.5841 7.44037 13.5654 7.36022 13.5447 7.28051C13.524 7.20101 13.5014 7.12174 13.4766 7.04334C13.4518 6.96473 13.4251 6.88678 13.3964 6.80948C13.3677 6.73218 13.3372 6.65554 13.3046 6.57978C13.2718 6.5038 13.2374 6.4287 13.201 6.35448C13.1645 6.28026 13.1263 6.20713 13.0862 6.13467C13.0461 6.0622 13.0039 5.99083 12.9602 5.92035C12.9165 5.84986 12.8709 5.78068 12.8235 5.71239C12.7761 5.6441 12.7272 5.5769 12.6764 5.51102C12.6258 5.44515 12.5734 5.38037 12.5192 5.3169C12.4652 5.25344 12.4096 5.1913 12.3525 5.13047C12.2953 5.06964 12.2365 5.01013 12.1764 4.95216C12.116 4.89397 12.0545 4.83731 11.9912 4.78219C11.9281 4.72708 11.8636 4.6735 11.7978 4.62145C11.732 4.56941 11.665 4.5189 11.5964 4.46993C11.5281 4.42096 11.4584 4.37375 11.3878 4.32808C11.3169 4.2824 11.245 4.23848 11.1718 4.19632C11.0987 4.15416 11.0247 4.11375 10.9495 4.07488C10.8746 4.03624 10.7985 3.99934 10.7215 3.96421C10.6445 3.92907 10.5666 3.89592 10.488 3.86451C10.4092 3.83311 10.3297 3.80347 10.2495 3.7758C10.1693 3.74813 10.0885 3.72244 10.0072 3.6985C9.92562 3.67479 9.84361 3.65283 9.76093 3.63284C9.67824 3.61286 9.5951 3.59485 9.51173 3.57882C9.42813 3.56279 9.3443 3.54874 9.26002 3.53666C9.17574 3.52458 9.09123 3.5147 9.00649 3.50658C8.92176 3.49845 8.83679 3.49252 8.75183 3.48835C8.66664 3.4844 8.58144 3.48242 8.49648 3.48242ZM7.18397 11.4113H5.24367V7.67028C5.24367 7.64854 5.24572 7.62702 5.25028 7.60572C5.25461 7.58442 5.26099 7.56378 5.26964 7.54358C5.2783 7.5236 5.289 7.50449 5.30153 7.48648C5.31383 7.46826 5.32818 7.45157 5.34413 7.4362C5.36007 7.42083 5.37739 7.40721 5.39606 7.39513C5.41474 7.38306 5.43456 7.37295 5.45552 7.36461C5.47625 7.35627 5.49766 7.3499 5.51975 7.34572C5.54185 7.34155 5.56417 7.33936 5.58672 7.33936H6.84069C6.86324 7.33936 6.88557 7.34155 6.90766 7.34572C6.92976 7.3499 6.95117 7.35627 6.9719 7.36461C6.99285 7.37295 7.01267 7.38306 7.03135 7.39513C7.05003 7.40721 7.06734 7.42083 7.08329 7.4362C7.09923 7.45157 7.11358 7.46826 7.12611 7.48648C7.13864 7.50449 7.14912 7.5236 7.15777 7.54358C7.16643 7.56378 7.17281 7.58442 7.17736 7.60572C7.18169 7.62702 7.18397 7.64854 7.18397 7.67028V11.4113ZM9.46571 11.4113H7.52702V5.91881C7.52702 5.89729 7.52907 5.87577 7.53339 5.85447C7.53772 5.83317 7.5441 5.81253 7.55275 5.79232C7.56118 5.77234 7.57166 5.75324 7.58419 5.73523C7.59649 5.71722 7.61061 5.70053 7.62656 5.68516C7.6425 5.66979 7.65981 5.65596 7.67849 5.64388C7.69717 5.6318 7.71676 5.6217 7.73749 5.61335C7.75822 5.60501 7.77963 5.59864 7.80173 5.59447C7.82382 5.5903 7.84615 5.5881 7.86847 5.5881H9.12426C9.14658 5.5881 9.16891 5.5903 9.191 5.59447C9.2131 5.59864 9.23451 5.60501 9.25524 5.61335C9.27597 5.6217 9.29578 5.6318 9.31423 5.64388C9.33291 5.65596 9.35022 5.66979 9.36617 5.68516C9.38212 5.70053 9.39624 5.71722 9.40854 5.73523C9.42107 5.75324 9.43155 5.77234 9.4402 5.79232C9.44863 5.81253 9.45501 5.83317 9.45934 5.85447C9.46366 5.87577 9.46571 5.89729 9.46571 5.91881V11.4113ZM11.7493 11.4113H9.80899V6.78906C9.80899 6.76732 9.81104 6.7458 9.81559 6.72472C9.81992 6.70341 9.82653 6.68277 9.83518 6.66279C9.84384 6.64281 9.85432 6.6237 9.86685 6.6057C9.87937 6.58769 9.89373 6.571 9.90967 6.55585C9.92562 6.54048 9.94293 6.52686 9.96161 6.51478C9.98029 6.50293 10.0001 6.49261 10.0208 6.48448C10.0418 6.47614 10.0632 6.46999 10.0853 6.46581C10.1074 6.46164 10.1295 6.45967 10.152 6.45989H11.406C11.4286 6.45967 11.4509 6.46164 11.4727 6.46581C11.4948 6.46999 11.5163 6.47614 11.5372 6.48448C11.5579 6.49261 11.5778 6.50293 11.5964 6.51478C11.6151 6.52686 11.6324 6.54048 11.6484 6.55585C11.6643 6.571 11.6787 6.58769 11.6912 6.6057C11.7037 6.6237 11.7142 6.64281 11.7229 6.66279C11.7315 6.68277 11.7381 6.70341 11.7424 6.72472C11.747 6.7458 11.7491 6.76732 11.7493 6.78906V11.4113Z" fill="white"/>
</g>
</svg>
