<svg width="78" height="109" viewBox="0 0 78 109" fill="none" xmlns="http://www.w3.org/2000/svg">
<path d="M32.0521 44.1405L30.1823 45.0155L26.5781 50.328C26.5781 50.328 24.9167 56.4738 24.9427 56.7291C24.9687 56.9895 22.75 63.7343 22.75 63.7343L23.0781 71.9426L25.6094 74.0884L29.0417 73.6613L28.849 72.4061L29.3958 70.4374L30.375 68.7916C30.375 68.7916 31.7813 67.9426 31.8385 67.9738C31.901 67.9999 33.8281 67.8176 33.8385 67.8384C33.8438 67.8645 35.4115 68.7395 35.4115 68.7395L33.599 70.3072L33.6406 71.7968L34.1458 72.5416C34.1458 72.5416 35.1198 72.9322 35.1042 72.8749C35.0938 72.8228 36.3177 72.2811 36.3177 72.2811L37.3125 71.1666L38.0521 69.7499L38.5781 70.4791L38.8594 71.9426V73.2603L38.4792 74.453L42.7604 73.9218L45.9062 73.2343L47.0156 72.6822L47.9062 72.2603L50.0677 71.7186L50.625 69.1041L54.5104 55.3072L57.974 48.5936L58.5781 46.1145L56.0469 45.5103L54.0885 43.7707L50.4844 43.9113L38.5677 44.1405H32.0521Z" fill="#F4F4F4"/>
<mask id="mask0_2482_12202" style="mask-type:luminance" maskUnits="userSpaceOnUse" x="0" y="44" width="26" height="51">
<path d="M0.275879 44.3332H25.3332V94.9999H0.275879V44.3332Z" fill="white"/>
</mask>
<g mask="url(#mask0_2482_12202)">
<path d="M23.531 45.578L19.9738 46.6665L15.6769 48.5936L12.4842 51.3436L9.85396 55.8905L7.35396 60.979L3.505 70.479L1.53105 76.677L0.755005 82.5207V87.8332L1.8175 91.7134L3.03625 93.9061L5.57792 91.4478L9.73417 88.7238L13.3123 86.1978L15.3852 85.354L15.1404 82.3593L16.3435 78.6822L17.4894 76.8801L19.5415 73.0884L21.7758 65.2499C21.7758 65.2499 23.7185 48.3176 23.8592 48.3176C23.9946 48.3176 24.9738 47.2811 24.9738 47.2811V45.578H23.531Z" fill="#F4F4F4"/>
</g>
<mask id="mask1_2482_12202" style="mask-type:luminance" maskUnits="userSpaceOnUse" x="52" y="46" width="26" height="59">
<path d="M52 46.9997H77.2396V104.333H52V46.9997Z" fill="white"/>
</mask>
<g mask="url(#mask1_2482_12202)">
<path d="M56.3958 90.9059L56.7291 92.2132L56.3958 93.7445L56.4322 95.5622L56.3958 97.4841L55.6405 100.5L55.1978 103.244H57.2395L62.1353 103.521L67.2239 102.968L71.3697 101.744L73.7812 100.052L75.1718 97.4632L76.2239 91.5934L76.6978 81.2184L76.2239 72.6507L75.3072 65.8018L74.1978 59.3278L72.5364 55.4736L69.6249 51.3434L66.5728 49.1403L64.0937 47.7861L62.1353 47.2132L58.8072 49.2809L55.8124 55.1664L53.703 63.5674L53.177 67.7184L56.1145 75.5309L56.6718 78.5101L58.7655 82.3591L60.5989 84.1872L61.578 81.0778L62.828 77.2236L63.2447 79.8434L63.453 83.2757L63.1093 85.5309L62.1978 87.4997L61.2812 88.8382L59.7499 89.932L57.953 90.4424L56.3958 90.9059Z" fill="#F4F4F4"/>
</g>
<path d="M55.0627 20.234L53.8127 21.0569L52.1512 21.3329L50.4845 21.0569L46.6772 19.6298L41.8856 19.1298L36.7554 19.6819L32.422 20.234L31.3439 20.6194L30.9533 22.984L29.6147 22.661L28.5731 23.2183L28.021 24.4996V26.9058L28.9897 28.9058L30.0991 29.7288L31.4168 30.4006L32.422 33.8694L34.2606 36.7496L35.422 38.5517L35.0939 40.3329L34.396 41.8433L32.6825 43.4527L32.5679 45.0152C32.5679 45.0152 33.4272 51.484 41.1929 52.0308C41.1929 52.0308 50.9012 52.9944 53.9533 43.635L52.7502 41.0256L52.2866 38.2652L52.0106 36.0621L52.8491 34.2288C52.8491 34.2288 53.9533 31.6506 54.2293 29.8642L55.0627 29.9631L56.7554 29.3329L57.422 28.3538L57.8335 26.0152V24.3329L57.6356 22.984L56.3387 22.661L54.8075 22.984L55.0627 20.234Z" fill="#FACFB5"/>
<path d="M24.0156 66.1095L22.526 65.6929H17.3698L16.7969 66.1929L16.6406 74.5002L17.3385 75.297H23.6354L24.0156 74.2085V71.9429L24.276 68.2762L24.0156 66.1095Z" fill="#FFD247"/>
<path d="M50.2498 75.8538L48.2655 75.7132L47.9686 74.7965L47.9998 73.3382L48.1717 72.6507L47.8384 72.1611L47.9894 68.9684L48.2655 66.7653L48.6561 66.109C48.6561 66.109 51.203 66.1455 51.4009 66.109C51.5936 66.0725 54.8123 66.4736 54.8123 66.4736L55.3384 66.9007L55.479 68.2757L55.0884 75.4632L53.2811 75.8538L51.8696 74.1975L50.7603 73.234L50.2498 75.8538Z" fill="#FFD247"/>
<path d="M30.1821 45.0156C30.1821 45.0156 24.7394 56.2396 23.5363 65.974L18.1196 65.6927C18.1196 65.6927 19.9738 52.3385 24.2759 45.5104L26.8905 45.0156H30.1821Z" fill="#6092BB"/>
<path d="M63.1092 47.3749L61.0363 49.8593L58.2707 55.1666L56.1144 61.0884L54.6144 66.3488L49.3853 65.9738L49.9321 62.6353L51.6769 57.1978L54.3644 51.3853L56.2446 47.7863L57.2811 46.1145C57.2811 46.1145 60.4686 46.6666 60.6092 46.6666C60.7498 46.6666 63.1092 47.3749 63.1092 47.3749Z" fill="#6092BB"/>
<path d="M26.8542 92.8017C26.8542 92.8017 24.4271 91.1924 19.9115 91.984L18.7188 91.4059L17.4115 89.5465L16.8646 87.6351L16.5781 86.1924L15.9948 85.5309L15.0312 85.5413L13.3125 86.1976C13.3125 86.1976 10.8229 87.9632 10.6823 88.1038C10.5469 88.2392 5.94792 91.0934 5.94792 91.0934L3.60938 93.333L2.71875 94.8174L3.75 96.6351L5.98438 98.3538L9.29688 100.354L11.0625 101.744L12.4844 103.932L14.151 106.547L15.4948 107.854L18.5312 108.14L22.3333 106.963L24.9427 105.078L27.6406 102.739L28.0521 102.021L26.974 100.5L25.1615 97.734V95.708L25.5156 94.0309L26.2656 93.2705L26.8542 92.8017Z" fill="#FF8355"/>
<path d="M44.7033 87.9373C44.7033 87.9373 45.4064 90.3748 45.172 91.1664C45.172 91.1664 47.2606 90.4581 47.2762 90.5206C47.297 90.5779 49.9585 90.5206 49.9585 90.5206H52.646L55.1252 90.4425C55.1252 90.4425 56.0575 90.4373 56.1147 90.4425C56.172 90.4425 56.5314 91.1664 56.5314 91.1664V92.7706L56.4481 95.1248L56.3908 96.8123L55.9012 99.4164L54.7918 104.021L52.9793 104.526L49.9585 104.104L47.8491 103.521L44.8283 102.021L42.922 101.39L40.3595 101.182L37.1616 101.031L34.8595 100.375L31.8439 98.3539L30.7918 97.0519L30.0418 94.406L29.5679 90.3071L30.4741 89.4269L30.8804 88.2862L31.3595 87.5362L32.2397 87.4998L33.0522 87.0154L33.4585 86.4269L34.5627 85.9008H35.2866L36.4637 85.3071L37.4637 85.0414L38.396 85.3071L39.3647 86.1977L40.3387 88.2862L41.7189 89.0727L42.922 88.9633L43.7814 88.4737L44.7033 87.9373Z" fill="#FF8355"/>
<path d="M47.8175 74.9741C47.8488 75.0262 48.453 75.7241 48.453 75.7241L49.9373 75.8543L49.6353 77.6929L47.2759 76.6564L47.8175 74.9741Z" fill="#6092BB"/>
<path d="M24.1356 73.5102L28.5679 74.031L29.5679 75.7237L30.0991 76.6925L27.2397 82.6873L23.5262 91.406L21.8231 91.7133L19.672 91.5935L18.8647 89.0675L17.7397 82.5206L17.4897 75.2967H23.4168L24.0158 74.7967L24.1356 73.5102Z" fill="#6092BB"/>
<path d="M56.2085 76.3335L57.5262 80.6043L59.4116 83.2762L60.5991 84.4325L59.37 89.7189L56.672 90.8856L55.6147 90.3022L52.37 90.521L48.9064 90.4429L46.7918 90.521L45.172 91.297L45.0835 89.547L44.5366 87.8075L45.9325 86.7293L46.4533 85.9012L46.3387 84.9845L45.9012 84.1408L47.0158 83.2814L49.3752 83.146L51.4429 82.2033L52.8804 80.6043L53.797 79.0522L53.9116 78.2658L55.5887 77.0522L56.2085 76.3335Z" fill="#6092BB"/>
<path d="M46.172 73.0883L43.521 73.7914L40.4481 74.3019H38.6668L37.5835 75.8539L35.4793 77.6925L34.4429 78.2446L32.6877 81.7914L30.4741 87.6352L31.771 87.5206L32.8752 87.4112L33.3387 86.4685C33.3387 86.4685 33.8908 85.8487 34.0731 85.8071C34.2606 85.7602 35.4533 84.6977 35.4533 84.6977L37.5418 82.2914L38.5314 82.531L39.2502 81.4946L40.9168 79.2914L39.3804 78.781L39.6668 77.4998L39.9429 76.3748L41.4689 76.4008C41.4689 76.4008 41.6929 74.8435 41.7189 74.7967C41.7502 74.7498 44.2033 75.6717 44.2033 75.6717L45.6304 74.0623L46.12 73.1821L46.172 73.0883Z" fill="#6092BB"/>
<path d="M38.0781 69.6666C38.0781 69.6666 36.6615 73.0832 35.1823 73.0207C35.1823 73.0207 33.0052 72.6249 33.3542 71.1405C33.3542 71.1405 34.2708 69.0364 35.375 68.8645C35.375 68.8645 32.6563 66.4635 30.474 68.6093C30.474 68.6093 26.9115 72.078 30.0312 76.4426L29.1927 78.5937L23.5312 91.1666L25.2969 91.9843L27.2031 92.6145L29.0521 91.203L29.7448 89.1614L30.6406 86.6353L34.4427 78.2447L36.2031 77.2239L38.151 75.2968L38.974 73.2343L38.8385 71.4426L38.5573 69.9322L38.151 69.5624L38.0781 69.6666Z" fill="#B5B9DB"/>
<path d="M34.2344 85.5315C34.3958 85.4846 37.7083 82.3596 37.7083 82.3596L40.2188 82.8649L41.9271 84.5315L42.1771 86.2294L40.4427 88.344L38.9323 85.8024L37.7083 85.0367L35.8177 85.4274L34.9531 86.0367L34.2708 85.9013L34.2344 85.5315Z" fill="#FF707B"/>
<path d="M29.4845 90.7602L25.1616 94.9112V97.3383C25.1616 97.3383 26.12 99.2133 26.0991 99.1664C26.0783 99.1144 27.4377 101.073 27.4377 101.073L27.8387 102.39L28.5418 102.021L30.4741 99.9217L31.6304 98.3539L30.7918 97.0519L30.0054 94.0519L29.4845 90.7602Z" fill="#FF707B"/>
<path d="M38.6981 82.1821L40.3543 80.1664L41.3127 78.4112L41.6304 76.0206L41.6772 75.0154L45.5783 76.3331L49.6668 77.505L50.1147 76.0206L50.8075 73.4164L51.87 74.1977L53.5991 76.755L53.745 78.3852L52.9377 80.5102L51.2345 82.3592L49.2502 83.1508L47.2345 83.3123H45.7554L44.2814 83.8175L42.271 85.2185L41.0575 83.4217L39.3908 82.7342L38.5054 82.3592L38.6981 82.1821Z" fill="#B5B9DB"/>
<path d="M44.2811 75.3903L47.4373 72.359L48.1665 72.5413L47.1353 76.9476L44.6144 75.8538L44.2446 75.2965L44.2811 75.3903Z" fill="#9FA4C1"/>
<path d="M40.7656 79.1146L39.4375 78.5104L39.9427 76.375H41.6094L41.1927 78.75L40.7656 79.1146Z" fill="#9FA4C1"/>
<path d="M45.6302 78.7397C45.6302 79.5002 45.0104 80.1147 44.2448 80.1147C43.4792 80.1147 42.8594 79.5002 42.8594 78.7397C42.8594 77.9793 43.4792 77.3647 44.2448 77.3647C45.0104 77.3647 45.6302 77.9793 45.6302 78.7397Z" fill="#4F768C"/>
<path d="M53.8333 78.1195L56.6719 76.333L58.9479 75.4632L59.75 73.7184L58.9479 72.359L57.0677 73.2028L55.9167 74.7809L53.7031 76.682L53.8333 78.1195Z" fill="#B2B7C3"/>
<path d="M44.9113 83.5468L45.9321 84.5312L46.453 85.4271L46.0207 86.5885L43.8696 88.3437L42.4373 89.2396L40.8696 88.7239L40.5259 88.0677L41.7186 86.8698L42.1769 86.0885L42.2863 85.0416L43.6144 84.1875L44.4165 83.7708L44.9113 83.5468Z" fill="#B0744F"/>
<path d="M56.3384 18.1772C56.3384 18.1772 54.7864 22.573 50.4843 21.0574L48.0311 20.1355L44.4426 19.1303L39.1041 19.4272L35.0624 19.8959L31.8072 20.4532L30.5728 20.9584C30.5728 20.9584 26.7811 20.224 30.1718 15.9584C30.1718 15.9584 27.7447 7.33341 34.8124 3.73446L39.3593 2.80737H44.0051L48.3489 3.34383L51.6405 4.45321L54.7864 6.46362L56.7551 9.2605L57.5832 11.4376V14.0105L57.3332 16.3438L56.3384 18.1772Z" fill="#6092BB"/>
<path d="M41.6094 2.6096C41.6094 2.6096 43.9687 -0.281024 46.3229 2.88564L44.75 2.90127L41.6094 2.6096Z" fill="#FFD247"/>
<path d="M45.198 79.3853C45.1772 79.4165 45.1563 79.4478 45.1355 79.479C45.1355 79.479 45.1303 79.479 45.1303 79.4842C44.599 80.0623 43.6303 79.9738 43.2865 79.2446C42.9428 78.5207 43.5105 77.6613 44.3178 77.6873C45.1667 77.7186 45.6615 78.6821 45.198 79.3853ZM45.7292 79.9165C45.7865 79.8488 45.8334 79.7759 45.8751 79.7082C46.2397 79.078 46.198 78.2551 45.7553 77.6717C45.3334 77.1248 44.6042 76.8436 43.9272 76.9842C43.2709 77.1196 42.7136 77.6092 42.5157 78.2446C42.3074 78.9165 42.5313 79.6769 43.0574 80.1457C43.6355 80.6613 44.474 80.7498 45.1615 80.3853C45.3334 80.2915 45.6147 80.1248 45.7292 79.9165Z" fill="#330B24"/>
<mask id="mask2_2482_12202" style="mask-type:luminance" maskUnits="userSpaceOnUse" x="0" y="0" width="78" height="109">
<path d="M0.275879 0.979248H77.2342V108.615H0.275879V0.979248Z" fill="white"/>
</mask>
<g mask="url(#mask2_2482_12202)">
<path d="M75.729 92.8282C75.5675 93.8543 75.3748 94.8751 75.1352 95.8803C74.8905 96.9168 74.6509 97.9845 74.0936 98.9064C73.2394 100.323 71.8227 101.136 70.3227 101.719C66.8175 103.083 62.9321 103.318 59.2082 103.136C58.0102 103.073 56.8123 102.964 55.6196 102.818C55.6405 102.724 55.6561 102.636 55.6769 102.547C55.8123 101.922 55.9425 101.297 56.078 100.677C56.2134 100.042 56.3488 99.4064 56.4842 98.7709C56.6196 98.1459 56.7498 97.5209 56.8019 96.8855C56.8592 96.2553 56.7707 95.6355 56.7602 95.0053C56.7498 94.4741 56.8384 93.948 56.9165 93.422C56.9998 92.8751 57.0884 92.3178 57.0311 91.7657C57.0155 91.6199 56.9946 91.4689 56.9582 91.3178C58.8332 91.0053 60.6717 90.2449 61.9373 88.797C62.0675 88.6459 62.1873 88.4949 62.3019 88.3386C63.229 88.2866 64.1561 88.4168 65.0519 88.6303C65.5259 88.7449 66.005 88.8803 66.4634 89.0522C66.6717 89.1303 66.9165 88.9636 66.9738 88.7605C67.0363 88.5314 66.8957 88.3334 66.6821 88.2553C66.2082 88.0782 65.7186 87.9428 65.229 87.823C64.6405 87.6876 64.0363 87.5782 63.4269 87.5314C64.7863 87.0314 66.2602 86.8491 67.703 86.9584C67.7967 86.9636 67.8905 86.9741 67.979 86.9845C68.0311 86.9897 68.0363 86.9897 68.0259 86.9897C68.2342 87.0105 68.4373 86.9168 68.4998 86.698C68.5519 86.5001 68.4321 86.2241 68.2082 86.1876C66.8644 85.9793 65.4217 86.1251 64.1144 86.4584C63.8019 86.5366 63.4946 86.6303 63.1925 86.7397C63.5415 85.8907 63.7498 84.9845 63.854 84.0626C64.0467 82.3282 63.8748 80.5574 63.5519 78.8491C63.4269 78.1928 63.2759 77.5366 63.104 76.8907C63.104 76.8595 63.0936 76.8282 63.0832 76.797C62.8748 76.0314 62.6405 75.2657 62.3748 74.5157C62.2134 74.047 62.0415 73.5834 61.854 73.1251C61.755 72.8699 61.6613 72.6095 61.5363 72.3647C61.5311 72.3595 61.5259 72.3491 61.5207 72.3386C61.4321 72.1355 61.1352 72.0834 60.953 72.1876C60.7446 72.3126 60.7134 72.5522 60.8071 72.7553C60.8227 72.7918 60.8384 72.8334 60.854 72.8699C60.8644 72.8959 60.8748 72.9168 60.8852 72.9428C60.8852 72.9324 60.8905 72.9532 60.9061 72.9897C60.9113 72.9949 60.9113 73.0053 60.9165 73.0105C60.9113 73.0053 60.9113 73.0001 60.9113 72.9949V73.0001C60.9269 73.0366 60.9425 73.0782 60.9582 73.1147C61.1248 73.5157 61.2811 73.922 61.4321 74.3282C61.7394 75.1876 62.0207 76.0574 62.2602 76.9428C61.9946 77.8178 61.7446 78.698 61.4998 79.5834C61.1092 80.9636 60.7394 82.3543 60.3852 83.7449C59.3384 82.8959 58.5467 81.7553 57.9477 80.5157C57.8696 80.3543 57.7915 80.1876 57.7186 80.0209C57.7134 80.0105 57.6873 79.948 57.6821 79.9376C57.6717 79.9116 57.6561 79.8803 57.6457 79.8491C57.6144 79.7709 57.578 79.6876 57.5467 79.6043C57.4269 79.3022 57.3227 79.0001 57.2238 78.6928C57.0727 78.2136 56.9425 77.7293 56.8332 77.2397C56.7915 77.0366 56.7498 76.8334 56.7186 76.6251C56.9061 76.547 57.0936 76.4689 57.2863 76.3907C57.7602 76.198 58.2342 76.0001 58.7134 75.8074C58.8696 75.7397 59.0467 75.6876 59.1665 75.5626C59.328 75.3959 59.4217 75.1459 59.5259 74.948C59.6352 74.7501 59.7394 74.5522 59.8488 74.3595C59.953 74.1668 60.1092 73.9532 60.1509 73.7397C60.1925 73.5678 60.1248 73.4324 60.0259 73.2918C59.8852 73.0939 59.7342 72.8959 59.5936 72.698C59.4894 72.5574 59.3957 72.3751 59.2602 72.2605C59.1196 72.1459 58.9477 72.1407 58.7811 72.1876C58.5467 72.2501 58.3227 72.3543 58.0988 72.4376C57.8644 72.5261 57.63 72.6199 57.3957 72.7084C57.1977 72.7814 56.9634 72.8334 56.7967 72.9636C56.6352 73.0834 56.5311 73.2761 56.4165 73.4376C56.1509 73.8074 55.88 74.1772 55.6144 74.547C55.6248 74.2657 55.6352 73.9845 55.6457 73.7084C55.703 72.3074 55.7655 70.9116 55.8227 69.5105C55.8436 68.948 55.8696 68.3855 55.8905 67.823C55.9061 67.5105 55.953 67.172 55.88 66.8699C55.8019 66.547 55.5988 66.2918 55.3384 66.1303C55.8332 63.7293 56.4477 61.3491 57.2186 59.0209C57.5415 58.0626 57.8852 57.1147 58.2655 56.172C58.5832 55.3907 58.9061 54.6459 59.2915 53.8439C59.8696 52.6407 60.5102 51.4636 61.2394 50.3386C61.4998 49.9376 61.7707 49.5418 62.0571 49.1564C62.1196 49.073 62.1769 48.9949 62.2394 48.9168C62.2446 48.9116 62.2498 48.9064 62.2498 48.9011C62.255 48.8959 62.2602 48.8907 62.2707 48.8803C62.2967 48.8386 62.328 48.8022 62.3592 48.7657C62.4582 48.6407 62.5571 48.5157 62.6613 48.3959C62.8175 48.2136 62.9842 48.0418 63.1457 47.8699C63.5207 48.0157 63.8852 48.1668 64.2446 48.3282C67.0363 49.6043 69.5571 51.5001 71.328 54.0157C72.4113 55.5626 73.1977 57.2918 73.6925 59.1095C73.9009 59.8699 74.0467 60.6459 74.1977 61.4168C74.6405 63.6668 75.005 65.9376 75.3123 68.2084C75.8384 72.0522 76.1977 75.9272 76.3384 79.8022C76.4998 84.1459 76.4061 88.5314 75.729 92.8282ZM54.88 102.292C54.8175 102.583 54.7602 102.87 54.6925 103.162C54.6457 103.365 54.5988 103.557 54.4998 103.724C54.2967 104.052 53.6457 104.042 53.2602 104.073C52.1405 104.156 51.0155 104.083 49.9269 103.839C48.8488 103.599 47.8488 103.188 46.8644 102.703C45.8852 102.219 44.9165 101.703 43.88 101.349C42.8384 100.99 41.7394 100.875 40.6405 100.839C39.5571 100.802 38.4686 100.844 37.3852 100.74C36.3227 100.636 35.328 100.344 34.4113 99.8022C33.9373 99.5157 33.4842 99.198 33.0363 98.8751C32.6092 98.5782 32.1873 98.2709 31.828 97.8907C31.1144 97.1564 30.8332 96.172 30.6144 95.198C30.3592 94.0834 30.0988 92.9532 30.0415 91.8074C30.0102 91.2553 30.0155 90.6824 30.1248 90.1407C30.13 90.1043 30.1352 90.073 30.1457 90.0418C30.3905 91.5209 31.0415 92.9116 32.0363 94.0522C32.1821 94.2189 32.4738 94.198 32.6248 94.0522C32.7915 93.8855 32.7707 93.6355 32.6248 93.4689C31.5832 92.2709 30.9582 90.7241 30.8748 89.1459C30.8852 89.1303 30.8905 89.1199 30.8957 89.1095C30.9946 88.9272 31.0675 88.7345 31.1352 88.5418C31.1665 88.4532 31.1977 88.3647 31.229 88.2814C31.2342 88.2761 31.2342 88.2709 31.2342 88.2709C31.2446 88.2501 31.255 88.2293 31.2602 88.2136C31.2811 88.172 31.3019 88.1303 31.328 88.0886C31.3332 88.0782 31.3748 88.0261 31.3748 88.0157C31.3905 88.0001 31.4061 87.9845 31.4269 87.9689C31.4321 87.9636 31.4634 87.9376 31.479 87.9272C31.4842 87.922 31.4894 87.922 31.4946 87.9168C31.5259 87.9064 31.5571 87.8959 31.5832 87.8907C31.7238 87.8647 31.9165 87.8907 32.0936 87.9011C32.3852 89.6407 33.0675 91.3178 34.0832 92.7605C34.2082 92.948 34.4477 93.0314 34.6509 92.9116C34.8332 92.8074 34.9269 92.5314 34.8019 92.3439C33.8227 90.9532 33.1769 89.3699 32.9009 87.698C32.9321 87.672 32.9634 87.6459 32.9946 87.6199C33.1769 87.4428 33.255 87.2136 33.3696 86.9949C33.5311 86.6824 33.8123 86.4689 34.1405 86.3699C34.3332 86.3126 34.4217 86.3022 34.63 86.3126C34.6405 86.3126 34.7238 86.3178 34.7342 86.3178C34.7707 86.3282 34.8123 86.3334 34.8488 86.3439C34.8748 86.3543 34.9009 86.3595 34.9217 86.3647C34.9998 88.2657 35.6925 90.0939 36.8748 91.5886C37.0155 91.7657 37.3175 91.7345 37.4634 91.5886C37.6405 91.4168 37.604 91.1824 37.4634 91.0053C36.38 89.6355 35.7811 87.9064 35.7446 86.1668C36.1092 85.7345 36.7186 85.5105 37.3071 85.5261C37.604 85.5366 37.9217 85.6199 38.1925 85.7814C38.3436 85.8647 38.4269 85.9376 38.5623 86.0834C38.6977 86.2241 38.7967 86.3647 38.9061 86.5418C39.328 87.2449 39.5832 88.0418 40.1352 88.6668C40.6821 89.2866 41.505 89.5834 42.3227 89.5209C43.1092 89.4584 43.8748 89.1303 44.453 88.5991C44.8071 89.4011 44.8905 90.3126 44.6665 91.172C44.5727 91.5418 44.9582 91.7918 45.2759 91.6407C47.1561 90.7397 49.3332 90.9584 51.354 91.047C52.4217 91.0939 53.4946 91.1095 54.5623 90.9689C54.8332 90.9324 55.104 90.8855 55.3696 90.8282C55.5415 90.7866 55.7342 90.7189 55.8592 90.8595C56.1405 91.1876 56.2134 91.6772 56.2186 92.0886C56.2238 93.1407 55.88 94.1564 55.9321 95.2084C55.9634 95.8074 56.0207 96.3907 55.9634 96.9845C55.9061 97.5678 55.7707 98.1459 55.6457 98.7189C55.3905 99.9064 55.1352 101.099 54.88 102.292ZM29.5207 100.427C29.0884 100.912 28.6561 101.391 28.2186 101.87C28.1092 101.234 27.6925 100.672 27.3019 100.172C26.9165 99.6772 26.4998 99.2136 26.1769 98.672C25.8592 98.1407 25.6248 97.5626 25.505 96.9532C25.3748 96.2657 25.4373 95.5886 25.6561 94.948C26.729 93.8595 27.7967 92.7709 28.8696 91.6824C28.8748 91.6824 28.8748 91.6772 28.8748 91.6772C28.9842 91.5678 29.0884 91.4584 29.1977 91.3491C29.1977 91.3803 29.1925 91.4116 29.1925 91.4428C29.203 92.0782 29.2811 92.7032 29.3852 93.3282C29.4894 93.9324 29.6196 94.5366 29.7498 95.1355C29.8644 95.6616 29.9842 96.1928 30.1717 96.698C30.3696 97.2501 30.63 97.7553 31.005 98.2136C31.078 98.3022 31.1613 98.3959 31.2446 98.4793C30.6717 99.1303 30.0988 99.7814 29.5207 100.427ZM28.2394 102.005V102.011C28.2394 102.005 28.2394 102.005 28.2394 102C28.2394 102 28.2394 102 28.2394 102.005ZM27.4165 102.193C27.3957 102.438 27.1769 102.625 27.005 102.781C26.5832 103.156 26.1561 103.521 25.729 103.891C25.7082 103.865 25.6821 103.844 25.6561 103.828C23.9009 102.63 22.5259 100.886 21.7811 98.9011C21.703 98.6928 21.4998 98.5522 21.2707 98.6147C21.0675 98.672 20.9009 98.9116 20.979 99.1251C21.7811 101.266 23.2186 103.12 25.0936 104.438C24.4738 104.974 23.854 105.511 23.1821 105.984C23.1561 105.958 23.13 105.938 23.0988 105.917C22.1405 105.339 21.3019 104.589 20.578 103.745C19.8696 102.922 19.2602 101.979 18.854 100.969C18.7655 100.761 18.5727 100.615 18.3384 100.682C18.1405 100.734 17.9634 100.979 18.0519 101.188C18.9113 103.318 20.4842 105.224 22.4321 106.474C22.3644 106.516 22.2967 106.557 22.2238 106.594C21.4582 107.026 20.6196 107.349 19.755 107.547C19.7394 107.531 19.7238 107.521 19.7082 107.505C18.1717 106.396 16.9738 104.813 16.3175 103.042C16.2394 102.833 16.0363 102.693 15.8019 102.755C15.5988 102.807 15.4373 103.052 15.5155 103.261C16.1613 105.005 17.2498 106.542 18.6665 107.734C18.6457 107.734 18.6196 107.74 18.5988 107.745C17.9686 107.807 17.3123 107.828 16.6925 107.682C16.1457 107.563 15.6561 107.302 15.2342 106.938C14.3384 106.151 13.7967 105.078 13.2498 104.047C12.6561 102.943 11.9946 101.906 11.0155 101.104C10.1092 100.359 9.07795 99.8074 8.05712 99.2501C7.01024 98.6772 5.99462 98.0678 5.10399 97.2709C4.64045 96.8543 4.20816 96.4011 3.81753 95.9168C3.4842 95.5001 3.07274 95.0314 3.31233 94.4741C3.41649 94.2345 3.58837 94.0209 3.74983 93.8178C3.94774 93.5782 4.15087 93.3439 4.3592 93.1199C4.78108 92.6772 5.22899 92.2657 5.69774 91.8855C6.64566 91.1095 7.68212 90.4532 8.7342 89.8386C9.84879 89.1824 11.0155 88.6043 12.0832 87.8751C12.604 87.5209 13.0832 87.1199 13.5727 86.7293C13.9946 86.3959 14.453 86.073 14.9686 85.922C15.1144 85.8803 15.2655 85.8491 15.4217 85.8386C15.4425 85.8439 15.4634 85.8386 15.4842 85.8386C15.5623 85.8386 15.6457 85.8439 15.729 85.8647C15.828 85.8855 15.953 85.9428 16.005 85.9845C15.9998 85.9845 16.0623 86.0418 16.0884 86.0678C16.0936 86.073 16.0988 86.0782 16.0988 86.0834C16.1196 86.1147 16.1405 86.1407 16.1561 86.172C16.3644 86.5261 16.3748 87.0053 16.4165 87.4532C16.5259 88.6772 16.979 89.8178 17.7446 90.7866C18.1196 91.2501 18.578 91.7084 19.1092 91.9949C19.2082 92.047 19.3123 92.0939 19.4165 92.1303C19.4582 92.1564 19.5102 92.172 19.5623 92.1772C20.0727 92.3334 20.6092 92.323 21.1509 92.297C22.4165 92.2345 23.7082 92.2084 24.9582 92.4428C25.3384 92.5157 25.7134 92.6095 26.0832 92.7345C25.4738 93.2918 25.0571 94.0782 24.8175 94.8439C24.453 96.0157 24.5988 97.2397 25.0832 98.3595C25.3384 98.9428 25.6873 99.4689 26.0832 99.9741C26.453 100.443 26.8644 100.896 27.1613 101.422C27.2863 101.646 27.4425 101.927 27.4165 102.193ZM1.14566 86.3491C0.978993 83.422 1.32795 80.4793 1.92691 77.6147C2.55191 74.5939 3.45816 71.6355 4.52066 68.7397C5.49983 66.073 6.61441 63.4584 7.82795 60.8855C8.76545 58.9064 9.76024 56.9584 10.8123 55.0366C11.3227 54.1095 11.8384 53.1824 12.3905 52.2761C13.7655 50.0314 16.1977 48.4949 18.5832 47.4949C19.9738 46.9116 21.4321 46.4793 22.9061 46.1564C23.1925 46.0939 23.4842 46.0314 23.7655 45.9793C23.7238 46.0626 23.6769 46.1459 23.63 46.2345C23.1457 47.1511 22.6925 48.0834 22.2602 49.0261C21.6196 50.4376 21.0311 51.8751 20.505 53.3282C19.8696 55.073 19.3227 56.8439 18.8748 58.6407C18.3696 60.6564 17.9946 62.7032 17.7759 64.7657C17.7655 64.8907 17.755 65.0209 17.7394 65.1459C17.0727 65.1928 16.5675 65.7084 16.5363 66.3959C16.5207 66.7293 16.5102 67.0626 16.4946 67.3959C16.4373 68.7605 16.38 70.1303 16.3227 71.5001C16.2863 72.4272 16.2342 73.3543 16.2082 74.2814C16.1977 74.7241 16.4061 75.1355 16.7759 75.3803C16.854 75.4376 16.9373 75.4741 17.0259 75.5053C17.0259 75.8491 17.0259 76.1876 17.0311 76.5314C16.6821 76.9741 16.3852 77.4689 16.13 77.9689C15.9269 78.3751 15.7446 78.7918 15.5884 79.2136C15.4634 78.7449 15.3592 78.2709 15.2759 77.797C15.2498 77.6407 15.2238 77.4845 15.203 77.3282C15.1977 77.3126 15.1977 77.297 15.1977 77.2814C15.1925 77.2501 15.1873 77.2189 15.1821 77.1876C15.1769 77.1251 15.1665 77.0574 15.1613 76.9949C15.1457 76.8022 15.13 76.6043 15.1248 76.4116C15.1196 76.3178 15.1196 76.2189 15.1196 76.1251C15.1248 75.5939 14.2915 75.5939 14.2915 76.1251C14.2863 77.0991 14.4582 78.073 14.6821 79.0209C14.8123 79.5782 14.9738 80.1303 15.1457 80.6772C15.0259 81.1876 14.9373 81.7032 14.8852 82.2293C14.7915 83.1772 14.8227 84.1303 14.9582 85.073C14.8488 85.0939 14.7446 85.1251 14.6457 85.1564C14.0519 85.3543 13.5415 85.7136 13.0519 86.0939C12.5675 86.4741 12.0988 86.8699 11.5884 87.2136C11.0259 87.5886 10.4321 87.922 9.84358 88.2553C7.62483 89.4949 5.36441 90.7918 3.63524 92.6824C3.41649 92.922 3.19253 93.1668 2.99462 93.4324C1.82274 91.2553 1.28628 88.8022 1.14566 86.3491ZM24.8175 45.797C25.2759 45.7293 25.729 45.6668 26.1769 45.6199C27.3123 45.5001 28.4321 45.4324 29.5415 45.1824C29.4894 45.297 29.4373 45.4116 29.3852 45.5209C28.9009 46.5939 28.4373 47.672 27.9946 48.7605C27.3748 50.2814 26.7863 51.8178 26.2446 53.3699C25.5988 55.2084 25.0102 57.0626 24.4998 58.9428C23.9634 60.9116 23.5102 62.9064 23.1925 64.9272C23.1717 65.0678 23.1509 65.2136 23.13 65.3543C22.5623 65.3334 21.9946 65.3074 21.4269 65.2866C20.479 65.2449 19.5259 65.2032 18.5727 65.1668C18.755 63.2709 19.078 61.3855 19.5155 59.5261C19.9425 57.7032 20.4738 55.9064 21.0936 54.1407C21.3696 53.3595 21.6613 52.5834 21.9686 51.8126C22.2498 51.1043 22.4946 50.5314 22.7967 49.8491C23.2446 48.8491 23.7186 47.8595 24.2238 46.8907C24.4165 46.5209 24.6196 46.1616 24.8175 45.797ZM30.5936 44.8907C31.0936 44.7241 31.5884 44.5261 32.0571 44.2814C32.078 46.1511 32.9217 47.9584 34.2082 49.3074C35.6248 50.7918 37.5623 51.7189 39.5519 52.1616C41.6248 52.6251 43.8123 52.5991 45.8696 52.0678C47.8488 51.5522 49.6665 50.5522 51.1405 49.1459C52.5155 47.8282 53.604 46.172 54.1613 44.3491C54.4061 44.6303 54.6769 44.8907 54.9686 45.1251C55.4686 45.5314 56.0155 45.8595 56.604 46.1147C56.4738 46.3334 56.3436 46.5574 56.2186 46.7761C55.6665 47.7345 55.1405 48.7084 54.6352 49.698C53.9113 51.1147 53.229 52.5522 52.5988 54.0157C51.8488 55.7553 51.1613 57.5261 50.578 59.3282C49.9634 61.2189 49.4477 63.1407 49.0988 65.0991C49.0623 65.297 49.0311 65.4949 48.9998 65.6928C48.3019 65.7189 47.7759 66.2397 47.7394 66.948C47.7238 67.2814 47.7134 67.6147 47.6977 67.948C47.6405 69.297 47.5832 70.6511 47.5311 72.0053C47.2446 72.1147 46.979 72.3439 46.755 72.5209C46.6665 72.5939 46.578 72.6668 46.4894 72.7397C45.7915 72.948 45.0832 73.1251 44.3696 73.2761C43.4217 73.4689 42.4738 73.6147 41.5467 73.7241C40.703 73.8178 39.854 73.8855 39.005 73.9324C39.0102 73.9116 39.0155 73.8959 39.0207 73.8751C39.328 72.7449 39.2446 71.547 38.9269 70.4272C38.854 70.1668 38.7759 69.8959 38.6665 69.6407C38.5832 69.4584 38.4425 69.323 38.2394 69.2866C38.0675 69.2553 37.8905 69.3022 37.7602 69.4168C37.5936 69.573 37.5415 69.8386 37.4582 70.047C37.2082 70.6564 36.9009 71.2501 36.4946 71.7709C36.3019 72.0209 36.078 72.2605 35.8123 72.4376C35.6821 72.5314 35.5363 72.5939 35.38 72.6355C35.2915 72.6564 35.1977 72.6564 35.104 72.672C34.9894 72.6668 34.8748 72.6564 34.7655 72.6303C34.6509 72.5939 34.5415 72.547 34.4373 72.4949C34.1873 72.3386 33.9894 72.1303 33.88 71.8595C33.7446 71.5366 33.7863 71.1876 33.8644 70.8543C33.9061 70.7345 33.9425 70.6147 33.9946 70.5001C34.0207 70.448 34.0519 70.4011 34.078 70.3491C34.3384 69.9376 34.6873 69.6147 35.1092 69.3699C35.2498 69.2866 35.4165 69.2293 35.5259 69.0991C35.63 68.9741 35.6561 68.7918 35.5988 68.6407C35.5363 68.4689 35.38 68.3803 35.2342 68.2866C35.0207 68.1511 34.7967 68.0261 34.5675 67.9116C34.13 67.7032 33.6613 67.547 33.1769 67.4741C32.2863 67.3439 31.3696 67.547 30.6352 68.0782C29.953 68.573 29.453 69.2866 29.078 70.0314C28.6509 70.8855 28.4686 71.9011 28.4634 72.8491C28.4582 73.1043 28.4738 73.3595 28.505 73.6095C27.755 73.5314 27.0102 73.448 26.2602 73.3491C26.2342 73.3439 26.203 73.3439 26.1769 73.3386C26.1769 73.3386 26.1769 73.3386 26.1717 73.3386C26.1717 73.3386 26.1665 73.3386 26.1613 73.3386C26.0988 73.3282 26.0363 73.3178 25.979 73.3126C25.8696 73.297 25.7602 73.2814 25.6509 73.2657C25.4738 73.2397 25.2967 73.2136 25.1196 73.1876C24.9373 73.1616 24.7498 73.1303 24.5623 73.0991C24.5571 73.0991 24.5467 73.0991 24.5415 73.0939C24.5102 73.0886 24.479 73.0886 24.4477 73.0886C24.505 71.7136 24.5623 70.3386 24.6196 68.9636C24.6405 68.3959 24.6665 67.8334 24.6873 67.2709C24.703 66.9636 24.7498 66.6199 24.6769 66.3178C24.5832 65.9272 24.3019 65.6303 23.9477 65.4793C24.229 63.6095 24.6248 61.7553 25.0988 59.922C25.5936 58.0261 26.1665 56.1511 26.8019 54.2918C27.3488 52.6876 27.9425 51.0991 28.578 49.5261C28.7082 49.1928 28.8436 48.8647 28.979 48.5314C29.0467 48.3803 29.1092 48.2241 29.1769 48.0678C29.2082 47.9949 29.2394 47.922 29.2707 47.8491C29.2707 47.8386 29.2915 47.797 29.2967 47.7814C29.3071 47.7605 29.328 47.7136 29.3332 47.698C29.5415 47.2032 29.755 46.7136 29.979 46.2241C30.1769 45.7761 30.3852 45.3334 30.5936 44.8907ZM32.9009 43.7918C33.2759 43.5366 33.6352 43.2553 33.9582 42.9376C35.0467 41.8803 35.7655 40.4324 35.9269 38.9272C37.4842 40.0261 39.3227 40.6511 41.2082 40.9168C43.0259 41.1668 44.8852 41.0105 46.6144 40.4116C48.3019 39.8282 49.8488 38.8647 51.104 37.6043C51.2915 37.4168 51.4686 37.2241 51.6457 37.0209C51.6821 38.4949 51.9634 40.0001 52.4477 41.3543C52.7186 42.1095 53.0727 42.8491 53.5207 43.5209C53.13 45.2084 52.2446 46.7605 51.0623 48.0366C49.7915 49.4116 48.1977 50.4532 46.4165 51.0418C44.5467 51.6616 42.5155 51.823 40.5727 51.5157C38.703 51.2241 36.8384 50.5261 35.3957 49.2866C33.9946 48.0886 32.9842 46.3647 32.8957 44.5053C32.8852 44.2761 32.8852 44.0418 32.9009 43.8126C32.9009 43.8074 32.9009 43.797 32.9009 43.7918ZM33.4842 35.0678C32.5259 33.4116 32.104 31.4845 31.8019 29.5939C31.5102 27.7814 31.38 25.9428 31.3488 24.1043C31.3436 23.7397 31.3384 23.3803 31.3436 23.0157C31.3436 23.0001 31.3436 22.9897 31.3436 22.9741C31.3436 22.3699 31.3592 21.7709 31.3957 21.1668C31.729 21.0782 32.0675 20.9949 32.4061 20.9116C33.3436 20.6876 34.2811 20.4949 35.2238 20.323C36.3748 20.1147 37.4373 19.9637 38.578 19.8491C39.8175 19.7241 41.0623 19.6564 42.3019 19.6668C44.6977 19.6876 47.1873 19.9897 49.354 20.9637C49.9165 21.2189 50.4477 21.5105 51.0623 21.6512C51.6509 21.7814 52.255 21.8126 52.854 21.7345C53.4998 21.6459 54.13 21.4324 54.6925 21.1043C54.6925 23.0157 54.5884 24.9324 54.3592 26.8334C54.1613 28.4272 53.8592 30.0626 53.4425 31.6407C53.2498 32.3907 53.0155 33.1616 52.7082 33.8386C52.3592 34.6095 51.8905 35.3907 51.3957 36.0261C50.3436 37.3751 49.0311 38.4272 47.4946 39.1616C45.9894 39.8855 44.2863 40.2501 42.5988 40.2084C41.5884 40.1824 40.6457 40.0157 39.6561 39.7553C38.7655 39.5209 37.953 39.1928 37.1561 38.7345C35.63 37.8543 34.3644 36.5834 33.4842 35.0678ZM30.9165 20.4376C30.9113 20.4428 30.9061 20.4428 30.9009 20.4428C30.8175 20.4637 30.7342 20.4793 30.6613 20.4845C30.4009 20.5001 30.1665 20.4428 29.9477 20.3074C29.7498 20.1876 29.5988 20.0262 29.4998 19.7918C29.479 19.7449 29.4321 19.5574 29.4269 19.4949C29.4061 19.3178 29.4009 19.1459 29.4113 18.9689C29.4477 17.9689 29.8436 17.0366 30.4061 16.2137C30.4113 16.2032 30.4165 16.198 30.4217 16.1876C32.979 15.1355 35.6873 14.3959 38.4321 14.0991C39.6613 13.9689 40.9009 13.922 42.1352 13.9584C43.2446 13.9949 44.3696 14.0991 45.4113 14.2605C47.3019 14.5626 49.1665 15.0626 50.9477 15.7553C51.1405 15.8282 51.328 15.9012 51.5155 15.9793C51.5207 15.9845 51.5259 15.9845 51.5363 15.9897C51.5519 15.9949 51.5832 16.0105 51.5832 16.0105C51.6248 16.0262 51.6665 16.047 51.703 16.0626C51.7967 16.1043 51.8905 16.1407 51.9842 16.1824C52.3175 16.3334 52.6457 16.4845 52.9686 16.6459C53.5155 16.922 54.0519 17.2137 54.5727 17.5314C54.9321 17.7501 55.2863 17.9845 55.6248 18.2345C55.63 18.2397 55.6352 18.2449 55.6405 18.2501C55.6665 18.2709 55.6977 18.2918 55.7238 18.3126C55.7707 18.3491 55.8123 18.3907 55.8592 18.4272C55.8592 18.4272 55.8592 18.4324 55.8644 18.4324C55.505 19.4064 54.8332 20.1616 53.8592 20.6043C53.7915 20.6355 53.8019 20.6303 53.755 20.6512C53.6925 20.6772 53.6352 20.698 53.5727 20.7189C53.4373 20.7657 53.3019 20.8074 53.1665 20.8387C53.0363 20.8699 52.9061 20.8959 52.7759 20.9168C52.7707 20.9168 52.7498 20.922 52.7342 20.922C52.7134 20.922 52.6873 20.9272 52.6613 20.9272C52.5832 20.9376 52.4998 20.9428 52.4165 20.948C51.8436 20.9741 51.38 20.9116 50.8332 20.7293C50.3123 20.5574 49.7811 20.2449 49.2446 20.0262C48.7082 19.8074 48.1561 19.6303 47.5988 19.4845C46.4113 19.1668 45.1873 18.9949 43.9634 18.9064C41.5311 18.7293 39.0884 18.9116 36.6769 19.2553C34.828 19.5209 32.9946 19.8959 31.1873 20.3647C31.0988 20.3907 31.005 20.4168 30.9165 20.4376ZM29.5623 29.0366C29.0415 28.5574 28.7498 27.922 28.5936 27.2397C28.4269 26.4949 28.4113 25.7137 28.4477 24.9532C28.479 24.3126 28.6352 23.5834 29.1717 23.1876C29.3175 23.0834 29.3957 23.047 29.5623 23.0105C29.6665 22.9845 29.8123 22.9793 29.979 22.9897C30.0727 23.0001 30.0519 22.9949 30.1405 23.0157C30.2238 23.0314 30.3071 23.0574 30.3905 23.0887C30.3957 23.0939 30.4009 23.0939 30.4113 23.1043C30.4477 23.1199 30.479 23.1355 30.5102 23.1564C30.505 24.922 30.5936 26.6876 30.8071 28.4428C30.854 28.8387 30.9061 29.2397 30.9634 29.6355C30.4425 29.6251 29.9634 29.4012 29.5623 29.0366ZM30.3748 11.9116C30.3957 11.6303 30.4269 11.3491 30.4634 11.073C30.4634 11.0626 30.4634 11.0626 30.4634 11.0574C30.4634 11.0522 30.4634 11.0522 30.4634 11.0522C30.4686 11.0157 30.4738 10.9793 30.479 10.948C30.4894 10.8699 30.4998 10.797 30.5155 10.7189C30.5363 10.573 30.5675 10.422 30.5936 10.2762C30.7134 9.6824 30.8748 9.09386 31.0936 8.52095C31.1196 8.44803 31.1457 8.38032 31.1769 8.3074C31.1873 8.27095 31.203 8.23449 31.2186 8.20324C31.2186 8.19803 31.2186 8.19803 31.2186 8.19803C31.2238 8.1824 31.2342 8.16678 31.2394 8.15115C31.3019 8.00532 31.3696 7.8647 31.4425 7.71886C31.5832 7.43761 31.7394 7.16157 31.9165 6.89074C32.005 6.75532 32.0988 6.6199 32.1977 6.4897C32.2186 6.45845 32.2446 6.4272 32.2655 6.39074C32.2707 6.39074 32.2707 6.39074 32.2707 6.39074C32.2759 6.38032 32.2863 6.3699 32.2967 6.35949C32.3436 6.29699 32.3957 6.23449 32.4477 6.17199C32.6665 5.91157 32.9061 5.66678 33.1613 5.44282C33.2863 5.32824 33.4165 5.21886 33.5519 5.1147C33.5675 5.10428 33.578 5.09386 33.5936 5.08345C33.63 5.0574 33.6665 5.03136 33.703 5.00532C33.7759 4.94803 33.854 4.89595 33.9321 4.84386C34.2394 4.64074 34.5623 4.45845 34.8957 4.29699C34.9842 4.25532 35.0727 4.21365 35.1561 4.1772C35.1717 4.17199 35.2394 4.14074 35.2498 4.14074C35.2915 4.1199 35.3384 4.10428 35.38 4.08345C35.5727 4.01053 35.7707 3.94282 35.9686 3.88032C36.3852 3.74491 36.8123 3.64074 37.2446 3.56261C37.4634 3.52095 37.7342 3.47928 37.8905 3.45845C38.0102 3.44282 38.1352 3.4324 38.255 3.41678C38.2186 3.42199 38.1457 3.43241 38.1769 3.4272C38.2811 3.41678 38.3852 3.40115 38.4894 3.39074C39.0259 3.33345 39.5623 3.29178 40.0988 3.26574C42.0415 3.16157 43.9998 3.21365 45.9321 3.45324C47.078 3.59386 48.2602 3.82303 49.3905 4.14074C50.5102 4.45324 51.6248 4.84386 52.6405 5.4272C54.4477 6.46886 55.9373 8.10949 56.7186 10.0105C57.5623 12.0574 57.63 14.3022 56.8696 16.3803C56.703 16.8334 56.4946 17.2657 56.2498 17.6824C55.9686 17.4584 55.6717 17.2501 55.3696 17.0574C54.229 16.3126 52.9946 15.7084 51.7394 15.1876C49.953 14.4428 48.0832 13.8959 46.1769 13.5574C43.7707 13.1251 41.3175 13.0105 38.88 13.2293C35.9946 13.4897 33.1613 14.198 30.479 15.2762C30.479 15.2762 30.479 15.2762 30.479 15.2709C30.4738 15.2397 30.4686 15.2137 30.4634 15.1824C30.4425 15.0209 30.4269 14.8595 30.4113 14.698C30.3227 13.7709 30.3123 12.8387 30.3748 11.9116ZM31.2238 8.19282C31.229 8.1772 31.2394 8.14595 31.2238 8.19282V8.19282ZM32.2707 6.39074C32.2811 6.37511 32.3071 6.34386 32.2707 6.39074V6.39074ZM43.0467 1.97407C43.38 1.83345 43.7915 1.77615 44.1248 1.81782C44.6769 1.88553 45.1665 2.16678 45.5155 2.57824C44.4842 2.46365 43.4425 2.40636 42.4009 2.39595C42.5884 2.21886 42.8071 2.07824 43.0467 1.97407ZM55.5102 23.2293C55.6352 23.0887 55.8644 23.0053 56.0675 22.9845C56.1352 22.9793 56.203 22.9793 56.2759 22.9793C56.3123 22.9793 56.3488 22.9793 56.3852 22.9845C56.3957 22.9845 56.4373 22.9897 56.4477 22.9897C56.505 22.9949 56.5623 23.0105 56.6144 23.0262C56.6509 23.0314 56.6821 23.0418 56.7134 23.0522C56.7238 23.0574 56.729 23.0574 56.7342 23.0626C56.7446 23.0626 56.7498 23.073 56.7655 23.0782C57.3227 23.422 57.5571 24.0209 57.604 24.672C57.6561 25.4272 57.604 26.2293 57.4477 26.9741C57.3071 27.6407 57.0571 28.3074 56.578 28.8074C56.1092 29.297 55.4269 29.6616 54.7655 29.5782C54.8436 29.1772 54.9113 28.7814 54.9738 28.3803C55.2446 26.6824 55.4061 24.9741 55.479 23.2553C55.4894 23.2449 55.4998 23.2397 55.5102 23.2293ZM55.0832 67.2136C55.0832 67.2241 55.0832 67.2345 55.0832 67.2397C55.0832 67.2814 55.078 67.3178 55.078 67.3595C55.0623 67.7553 55.0467 68.1511 55.0311 68.547C54.9738 69.8907 54.9165 71.2345 54.8592 72.5782C54.828 73.4324 54.8019 74.2866 54.755 75.1407C54.7446 75.3751 54.5415 75.5522 54.2863 75.547C53.9946 75.5366 53.703 75.5261 53.4113 75.5105C53.1717 75.0991 52.88 74.7189 52.5623 74.3595C52.1196 73.8595 51.6144 73.3491 51.0415 72.9949C50.8592 72.8855 50.6248 72.8907 50.4946 73.0782C50.4113 73.2084 50.3905 73.3855 50.3488 73.5366C50.2967 73.7345 50.2446 73.9272 50.1925 74.1251C50.0832 74.5418 49.9738 74.9532 49.8644 75.3647C49.7238 75.3595 49.5832 75.3543 49.4425 75.3491L48.8332 75.323C48.7811 75.323 48.729 75.323 48.6769 75.3178C48.5988 75.3126 48.5988 75.3178 48.5207 75.2918C48.3384 75.2293 48.2394 75.047 48.2446 74.823C48.2498 74.7189 48.255 74.6147 48.255 74.5105C48.2655 74.3491 48.2707 74.1876 48.2759 74.0261C48.354 73.7293 48.4321 73.4324 48.4998 73.1355C48.578 72.8074 48.578 72.4116 48.354 72.1668C48.4009 71.1095 48.4425 70.0522 48.4842 68.9949C48.5102 68.4741 48.5311 67.9532 48.5519 67.4376L48.5675 67.0105C48.5675 66.9793 48.5727 66.9532 48.5727 66.922C48.5727 66.9168 48.5727 66.9168 48.5727 66.9116C48.578 66.8543 48.5727 66.8803 48.5936 66.8126C48.5988 66.797 48.5988 66.7918 48.5988 66.7866C48.5988 66.7866 48.5988 66.7866 48.604 66.7814C48.6144 66.7501 48.6352 66.7136 48.6561 66.6876C48.7342 66.5782 48.88 66.5105 49.0415 66.5157C49.0623 66.5157 49.0884 66.5157 49.1092 66.5157C49.2707 66.5261 49.4269 66.5314 49.5832 66.5366C50.1977 66.5626 50.8071 66.5886 51.4165 66.6095C52.4946 66.6564 53.5727 66.6928 54.6509 66.7449C54.7238 66.7501 54.7446 66.7449 54.8019 66.7709C54.8123 66.7709 54.88 66.8074 54.9113 66.8282C54.8957 66.8178 54.979 66.8855 54.9998 66.9116C54.979 66.8855 55.0363 66.9793 55.0519 67.0105C55.0519 67.0105 55.0571 67.0157 55.0571 67.0209C55.0675 67.0522 55.078 67.0886 55.0832 67.1251C55.0832 67.1199 55.0832 67.198 55.0832 67.2136ZM56.1561 76.2449C55.854 76.4011 55.5884 76.6095 55.3123 76.8074C54.9113 77.0939 54.5102 77.3803 54.1092 77.6668C54.0884 77.3647 54.0311 77.0574 53.9477 76.7605L54.4269 76.4168C54.7967 76.1511 55.1925 75.9064 55.5207 75.5939C55.8332 75.2918 56.0727 74.9064 56.328 74.5574C56.5988 74.1824 56.854 73.7709 57.1561 73.4168C57.4269 73.2866 57.7342 73.198 58.0155 73.0939C58.2915 72.9845 58.5727 72.8803 58.8488 72.7761C58.9477 72.8959 59.0675 73.0886 59.1665 73.2189C59.2811 73.3803 59.4269 73.5418 59.5259 73.7136C59.4686 73.8386 59.3852 73.9636 59.3175 74.0834C59.2446 74.2241 59.1665 74.3699 59.0884 74.5105C58.9738 74.7241 58.8332 74.9428 58.729 75.1668C58.6509 75.1928 58.5727 75.2345 58.505 75.2657C58.3436 75.3334 58.1769 75.4011 58.0102 75.4689C57.6821 75.6043 57.3488 75.7397 57.0207 75.8751C56.729 75.9949 56.4373 76.1043 56.1561 76.2449ZM43.5311 87.3439C43.6925 87.2293 43.854 87.1147 44.0155 86.9949C44.6457 86.547 45.2707 86.0939 45.9009 85.6459C45.9373 85.6147 45.979 85.5886 46.0207 85.5626C46.0207 85.8386 45.9217 86.1199 45.7602 86.3491C45.4998 86.7189 45.0884 86.9584 44.7238 87.2136C44.4009 87.448 44.0832 87.6772 43.7602 87.9064L43.4113 87.4324C43.453 87.4011 43.4894 87.3751 43.5311 87.3439ZM43.0727 86.9636L42.7498 86.5261C43.6717 85.8647 44.5936 85.2032 45.5155 84.5418L45.5519 84.5939C45.6457 84.7189 45.755 84.8439 45.8384 84.9793C45.2915 85.3751 44.7446 85.7657 44.1925 86.1616C43.8905 86.3803 43.5832 86.5991 43.2811 86.8178C43.2134 86.8647 43.1405 86.9116 43.0727 86.9636ZM41.6248 87.5991C41.7759 87.422 41.9217 87.2501 42.0727 87.073C42.1196 87.0157 42.1717 86.9636 42.2238 86.9064C42.3488 87.0834 42.479 87.2553 42.604 87.4324C42.7759 87.672 42.953 87.9064 43.1196 88.1459C43.1509 88.1876 43.1821 88.2397 43.2186 88.297L42.7915 88.5991C42.6144 88.6511 42.4321 88.6876 42.2759 88.698C41.7863 88.7293 41.354 88.6043 40.9998 88.3334C41.2082 88.0886 41.4165 87.8439 41.6248 87.5991ZM37.4582 82.9636C37.5155 82.9011 37.5832 82.8022 37.6561 82.7553C37.6769 82.7449 37.6977 82.7345 37.7186 82.7345C39.4946 82.9272 41.7863 83.7553 41.7967 85.8543C41.7967 85.9584 41.8019 86.073 41.7811 86.1772C41.7602 86.323 41.6717 86.4011 41.578 86.5105C41.4009 86.7189 41.229 86.922 41.0519 87.1303C40.8696 87.3439 40.6821 87.5626 40.4998 87.7761C40.0623 87.0991 39.8175 86.3178 39.3071 85.6824C38.8071 85.0522 38.0519 84.7032 37.2394 84.698C36.453 84.698 35.6873 85.0105 35.1613 85.5834C35.0832 85.5574 35.0102 85.5418 34.9321 85.5261C35.7707 84.672 36.6144 83.8178 37.4582 82.9636ZM47.755 73.073C47.7186 73.2136 47.6717 73.3543 47.6405 73.4949C47.5571 73.823 47.4738 74.1511 47.3905 74.4793C47.2342 75.0939 47.0832 75.7032 46.9269 76.3178C46.4894 76.1616 46.0519 76.0105 45.6196 75.8595C45.3227 75.7553 45.0311 75.6511 44.7342 75.547C45.13 75.0626 45.5467 74.5991 45.9946 74.1616C46.2655 73.9011 46.5467 73.6459 46.8384 73.4064C47.1248 73.1616 47.4113 72.8959 47.7446 72.7136C47.7655 72.7032 47.7915 72.698 47.8123 72.6876C47.8384 72.8074 47.7811 72.9689 47.755 73.073ZM49.5988 76.3647C49.5259 76.6355 49.453 76.9064 49.3852 77.1772C48.8019 76.9689 48.2186 76.7657 47.6352 76.5626C47.6457 76.5105 47.6561 76.4584 47.6665 76.4116C47.7082 76.2501 47.7498 76.0834 47.7915 75.922C47.8019 75.8803 47.8123 75.8439 47.8227 75.8074C47.8696 75.8543 47.9217 75.8959 47.979 75.9324C48.2082 76.0886 48.4738 76.1355 48.7446 76.1459L49.6457 76.1824C49.63 76.2449 49.6144 76.3022 49.5988 76.3647ZM40.5259 78.6928C40.3957 78.6564 40.2759 78.6199 40.1509 78.573C40.0623 78.5418 39.8644 78.5105 39.7967 78.4428C39.7238 78.3647 39.854 78.0834 39.8748 77.9741C39.9373 77.7084 39.9946 77.4428 40.0571 77.1772C40.0832 77.0574 40.1092 76.9324 40.1405 76.8126C40.1509 76.7761 40.1561 76.7189 40.1769 76.6876C40.2238 76.6303 40.3227 76.6564 40.3852 76.6668C40.6405 76.7032 40.8957 76.7501 41.1509 76.7918C41.0832 77.2293 40.9842 77.6564 40.854 78.0834C40.7863 78.3022 40.7082 78.5157 40.6196 78.7241C40.5884 78.7136 40.5571 78.7032 40.5259 78.6928ZM45.1769 84.0782L44.604 84.4845C43.9425 84.9636 43.2759 85.4428 42.6144 85.9168C42.5936 85.9324 42.5727 85.948 42.5467 85.9584C42.5467 85.8491 42.5415 85.7397 42.5311 85.6355C42.5311 85.6199 42.5311 85.6043 42.5311 85.5886C42.5884 85.5209 42.6509 85.4428 42.7134 85.3751C42.8227 85.2657 42.9373 85.1564 43.0571 85.0522C43.2967 84.8803 43.5363 84.7084 43.7759 84.5366C43.7863 84.5314 43.7967 84.5261 43.8071 84.5209C44.2134 84.2814 44.6405 84.0939 45.0884 83.9532L45.1248 84.0001L45.1769 84.0782ZM43.3905 83.9064C43.0259 84.1251 42.6509 84.3855 42.328 84.6928C42.2082 84.3803 42.0415 84.0834 41.8227 83.8178C41.1561 83.0053 40.1509 82.5209 39.13 82.2449C40.5727 80.8074 41.5519 78.9741 41.8852 76.9584C41.9686 76.4376 42.0207 75.9064 42.0155 75.3751C43.5884 75.9272 45.1613 76.4793 46.7394 77.0314C47.1769 77.1824 47.6196 77.3386 48.0623 77.4949C48.2811 77.5678 48.4998 77.6459 48.7134 77.7241C48.9165 77.7918 49.1248 77.8907 49.3384 77.9272C49.6248 77.9689 49.9165 77.8439 50.0363 77.573C50.1144 77.4011 50.1405 77.2032 50.1925 77.0261C50.2498 76.8022 50.3123 76.573 50.3696 76.3491C50.5884 75.5314 50.8019 74.7189 51.0207 73.9011C51.354 74.172 51.6561 74.4689 51.9477 74.7814C52.328 75.198 52.6717 75.6616 52.9217 76.1668C53.0988 76.5105 53.229 76.8751 53.3123 77.2501C53.3644 77.5626 53.3957 77.8595 53.3905 78.1772C53.3696 78.3074 53.3696 78.448 53.3488 78.5834C53.3175 78.7709 53.2707 78.9584 53.2186 79.1407C53.0727 79.5418 52.8957 79.9168 52.6717 80.2814C51.9061 81.4324 50.8332 82.3386 49.4738 82.7032C49.1352 82.797 48.7915 82.8491 48.4425 82.8751C48.0832 82.8959 47.729 82.8699 47.3696 82.8751C46.6352 82.8855 45.8957 82.9689 45.1821 83.1564C44.5571 83.323 43.9477 83.5678 43.3905 83.9064ZM32.354 83.7136C32.8332 82.5886 33.3123 81.4584 33.7863 80.3282C34.0259 79.7657 34.2602 79.2032 34.4998 78.6459C34.5311 78.5834 34.5675 78.5105 34.5988 78.4324C35.6144 78.0366 36.5727 77.3959 37.3436 76.6459C37.9009 76.1043 38.3644 75.4689 38.6873 74.7709C39.4217 74.7397 40.1561 74.6876 40.8852 74.6199C42.3227 74.4793 43.7655 74.2709 45.1717 73.9428C44.755 74.3699 44.3592 74.8178 43.9946 75.2866C43.8748 75.2501 43.7602 75.2084 43.6457 75.1668C43.3175 75.0522 42.9894 74.9376 42.6613 74.823C42.505 74.7657 42.3436 74.7136 42.1873 74.6564C42.0519 74.6095 41.9165 74.547 41.7759 74.5418C41.5571 74.5314 41.354 74.6616 41.2863 74.8699C41.2342 75.0261 41.2707 75.198 41.2707 75.3543C41.2707 75.5053 41.2707 75.6616 41.2655 75.8126C41.2602 75.8959 41.2498 75.9793 41.2446 76.0626C41.0832 76.0314 40.9217 76.0053 40.755 75.9793C40.5259 75.9428 40.2759 75.8907 40.0415 75.9376C39.578 76.0209 39.453 76.4741 39.3592 76.8699C39.3019 77.1251 39.2498 77.3751 39.1925 77.6303C39.1457 77.8386 39.0832 78.047 39.0519 78.2553C38.9946 78.6668 39.1613 78.9793 39.5519 79.1407C39.7759 79.2345 40.0102 79.3074 40.2446 79.3803C40.2655 79.3855 40.2915 79.3959 40.3123 79.4011C40.0363 79.948 39.7082 80.4636 39.3227 80.9428C39.1509 81.1564 38.9738 81.3595 38.7863 81.5522C38.6196 81.7293 38.4269 81.8855 38.255 82.0574C38.0884 82.0261 37.88 81.9741 37.6977 81.9949C37.6665 81.9897 37.6352 81.9949 37.5988 81.9949C37.3123 82.0314 37.0884 82.2553 36.9009 82.4584C36.63 82.7449 36.3592 83.0209 36.0832 83.3022L33.8123 85.6095C33.4634 85.7241 33.1457 85.9324 32.9009 86.2136C32.7394 86.4064 32.6405 86.6095 32.5311 86.8282C32.505 86.8907 32.4738 86.9584 32.4373 87.0053L32.4165 87.0261C32.4061 87.0366 32.3957 87.047 32.3852 87.0522C32.38 87.0574 32.3436 87.0626 32.328 87.0678C32.3019 87.0782 32.2498 87.0782 32.1873 87.0782C31.9165 87.0782 31.6613 87.0418 31.3905 87.0939C31.1613 87.1355 30.9425 87.2657 30.7863 87.4376C30.7811 87.4376 30.7811 87.4428 30.7759 87.448C31.3019 86.2032 31.828 84.9584 32.354 83.7136ZM24.005 91.0157C24.1196 90.7553 24.2342 90.4949 24.354 90.2345C24.5988 89.6876 24.8436 89.1407 25.0884 88.5939C26.0832 86.3647 27.078 84.1407 28.0727 81.9116C28.5727 80.7918 29.0727 79.672 29.5727 78.5574C29.8175 78.0105 30.0571 77.4689 30.3019 76.9272C30.3071 76.9168 30.3123 76.9064 30.3175 76.8959C30.3332 76.9011 30.3488 76.9064 30.3592 76.9116C30.6092 77.0157 30.8592 77.1147 31.1092 77.2189C32.0415 77.5991 32.979 77.9845 33.9113 78.3647C33.0155 80.4845 32.1196 82.5991 31.2238 84.7189C30.354 86.7761 29.4842 88.8282 28.6144 90.8855C28.1457 91.3647 27.6769 91.8386 27.203 92.3178C27.1821 92.297 27.1561 92.2814 27.13 92.2657C26.3905 91.9324 25.6196 91.7189 24.828 91.5939L23.9269 91.2032C23.953 91.1355 23.979 91.073 24.005 91.0157ZM33.1717 71.7605C33.3019 72.448 33.8436 73.0209 34.5155 73.2293C34.9373 73.3595 35.4061 73.3439 35.8175 73.172C36.203 73.0105 36.5207 72.7241 36.7967 72.4168C37.4061 71.7449 37.7967 70.9376 38.13 70.1095C38.1665 70.2032 38.2082 70.3022 38.2394 70.4011C38.3071 70.6147 38.3644 70.8334 38.4165 71.0574C38.4686 71.3022 38.5102 71.5522 38.5363 71.8022C38.5519 71.9793 38.5415 72.1668 38.5675 72.3439C38.5363 72.5522 38.5519 72.7761 38.5311 72.9897C38.4998 73.2293 38.453 73.4636 38.3957 73.698C38.2759 74.1303 38.104 74.5418 37.88 74.9272C37.6144 75.3751 37.2915 75.7657 36.9321 76.1407C36.6665 76.3907 36.3957 76.6355 36.0936 76.8543C35.854 77.0314 35.5988 77.1824 35.3488 77.3439C35.13 77.4689 34.9061 77.5886 34.6821 77.6928C34.5675 77.7449 34.453 77.797 34.3436 77.8439C34.3384 77.8386 34.3332 77.8386 34.328 77.8386C34.0623 77.7293 33.7967 77.6199 33.5311 77.5105C32.4686 77.073 31.4061 76.6407 30.3436 76.2084C29.755 75.5418 29.354 74.7553 29.1977 73.8803C29.0363 72.9845 29.1196 72.0782 29.3436 71.2032C29.6613 70.1199 30.2707 69.047 31.2602 68.4428C31.4582 68.3282 31.6665 68.2501 31.8852 68.1772C32.1196 68.1251 32.354 68.0834 32.5988 68.0782C32.9009 68.0939 33.1873 68.1303 33.4842 68.198C33.8957 68.3178 34.2811 68.4845 34.6561 68.6876C34.7082 68.7241 34.7655 68.7605 34.8175 68.7918C34.7394 68.8386 34.6665 68.8855 34.5936 68.9324C34.3071 69.1199 34.0519 69.3334 33.828 69.5886C33.3227 70.172 33.0259 70.9897 33.1717 71.7605ZM18.578 85.8959C18.4738 85.198 18.3905 84.5522 18.3123 83.8126C18.0519 81.422 17.9165 79.0209 17.8696 76.6199C17.8592 76.2814 17.8592 75.948 17.854 75.6095C18.229 75.6251 18.604 75.6407 18.9738 75.6564C20.2602 75.7084 21.5415 75.7605 22.828 75.8126C22.9113 75.8178 22.9998 75.8178 23.0832 75.823C23.7186 75.8334 24.2759 75.3803 24.3696 74.7501C24.38 74.6459 24.3852 74.5418 24.3905 74.4324C24.3957 74.2605 24.4061 74.0834 24.4113 73.9064C24.8644 73.9845 25.3227 74.047 25.7759 74.1095C26.7394 74.2449 27.703 74.3543 28.6665 74.4532C28.7655 74.8282 28.9061 75.1928 29.0884 75.5418C29.2707 75.8907 29.4998 76.2397 29.7655 76.5366C28.8071 78.672 27.854 80.8074 26.9009 82.9428C25.9061 85.1616 24.9165 87.3751 23.9269 89.5939C23.6977 90.1095 23.4269 90.6199 23.229 91.1511C23.1405 91.1876 23.0571 91.2241 22.9686 91.2605C22.854 91.3126 22.7342 91.3751 22.6196 91.4324C22.1405 91.4324 21.6613 91.4428 21.1821 91.4689C20.7498 91.4897 20.3332 91.5105 19.9321 91.4168C19.9113 91.3595 19.8905 91.3022 19.8644 91.2449C19.8071 91.0991 19.755 90.9532 19.703 90.8074C19.604 90.5209 19.5102 90.2293 19.4269 89.9376C19.2394 89.297 19.0832 88.6459 18.9477 87.9897C18.8071 87.297 18.6821 86.5991 18.578 85.8959ZM23.7967 66.3647C23.7759 66.3386 23.8332 66.4272 23.8488 66.4584C23.8488 66.4636 23.854 66.4637 23.854 66.4689C23.8644 66.5053 23.8748 66.5366 23.88 66.573C23.88 66.573 23.88 66.6459 23.88 66.6616C23.88 66.672 23.88 66.6824 23.88 66.6928C23.88 66.7293 23.8748 66.7657 23.8748 66.8074C23.8592 67.2032 23.8436 67.5991 23.828 68.0001C23.7707 69.3439 23.7134 70.6876 23.6561 72.0261C23.6248 72.8803 23.5988 73.7397 23.5519 74.5886C23.5415 74.823 23.3384 75.0001 23.0832 75.0001C22.1196 74.9584 21.1561 74.9168 20.1925 74.8803C19.5415 74.8543 18.8905 74.8282 18.2394 74.797C18.0363 74.7918 17.8332 74.7814 17.63 74.7761C17.578 74.7709 17.5259 74.7709 17.4738 74.7657C17.3957 74.7657 17.3957 74.7657 17.3175 74.7397C17.1352 74.6772 17.0363 74.4949 17.0415 74.2709C17.0467 74.1668 17.0519 74.0626 17.0519 73.9584C17.0727 73.4845 17.0936 73.0053 17.1144 72.5314C17.1717 71.1668 17.229 69.8074 17.2811 68.4428C17.3071 67.9272 17.328 67.4064 17.3488 66.8855C17.354 66.7449 17.3592 66.6043 17.3644 66.4584C17.3644 66.4324 17.3696 66.4011 17.3696 66.3699C17.3696 66.3699 17.3696 66.3647 17.3696 66.3595C17.3748 66.3022 17.3696 66.3282 17.3905 66.2605C17.3957 66.2449 17.3957 66.2397 17.3957 66.2397C17.3957 66.2345 17.3957 66.2345 17.4009 66.2345C17.4113 66.198 17.4321 66.1668 17.453 66.1355C17.5311 66.0262 17.6769 65.9636 17.8384 65.9636C17.8592 65.9636 17.8852 65.9637 17.9061 65.9689C17.979 65.9689 18.0467 65.9741 18.1196 65.9741C18.2082 65.9793 18.2967 65.9845 18.38 65.9845C18.9946 66.0105 19.604 66.0366 20.2134 66.0626C21.2915 66.1043 22.3696 66.1407 23.4477 66.1928C23.5207 66.198 23.5415 66.198 23.5988 66.2189C23.6092 66.2189 23.6821 66.2553 23.7082 66.2814C23.6925 66.2657 23.7759 66.3386 23.7967 66.3647ZM16.104 86.0834C16.1144 86.0991 16.13 86.1199 16.104 86.0834V86.0834ZM15.7863 85.0418C15.5467 83.4272 15.6509 81.8126 16.1092 80.2605C16.203 79.9376 16.3123 79.6199 16.4373 79.3074C16.4634 79.2293 16.4946 79.1564 16.5259 79.0782C16.5311 79.073 16.5311 79.0678 16.5311 79.0626C16.5363 79.0574 16.5363 79.0522 16.5415 79.047C16.5571 79.0053 16.5727 78.9689 16.5936 78.9324C16.6509 78.8022 16.7082 78.672 16.7707 78.547C16.8644 78.3543 16.9686 78.1616 17.0727 77.9741C17.0884 78.4428 17.1092 78.9064 17.1352 79.3699C17.2759 82.172 17.5207 84.9897 18.0571 87.7501C18.2498 88.7605 18.4894 89.7657 18.8123 90.7449C18.1352 90.1043 17.6509 89.2241 17.4113 88.3543C17.2707 87.8386 17.255 87.323 17.1821 86.797C17.1144 86.2553 16.9634 85.6876 16.5102 85.3386C16.2967 85.172 16.0467 85.0782 15.7863 85.0418ZM59.854 85.8803C59.5311 87.2136 59.229 88.5574 58.9634 89.9064C58.9425 89.9168 58.9321 89.922 58.9321 89.922C58.88 89.9428 58.8227 89.9636 58.7707 89.9845C58.2811 90.172 57.7759 90.3178 57.2602 90.422C57.0571 90.4636 56.854 90.5001 56.6457 90.5314C56.578 90.4272 56.4998 90.3282 56.4113 90.2397C55.9113 89.7657 55.2759 90.0209 54.6873 90.1199C54.1561 90.2084 53.6248 90.2397 53.0884 90.2501C50.8644 90.297 48.5988 89.8855 46.4009 90.3855C46.13 90.448 45.8644 90.5261 45.5988 90.6199C45.6873 89.6303 45.4634 88.6199 44.953 87.7605C45.1457 87.6251 45.3332 87.4845 45.5259 87.3491C46.1509 86.9011 46.6717 86.2657 46.6509 85.4636C46.6457 85.2814 46.6092 85.1199 46.5467 84.9689C46.5415 84.922 46.5259 84.8855 46.4998 84.8543C46.4165 84.672 46.2967 84.5053 46.1717 84.3282C46.13 84.2761 46.0884 84.2189 46.0467 84.1616C46.2967 83.9845 46.5415 83.8074 46.7915 83.6303C46.9634 83.6147 47.1405 83.6043 47.3123 83.6043C47.6196 83.5991 47.9217 83.6199 48.229 83.6199C48.5936 83.6147 48.9582 83.573 49.3175 83.5001C49.9998 83.3595 50.6509 83.1043 51.2342 82.7345C52.3071 82.0678 53.2134 81.0366 53.7238 79.8855C53.9373 79.3959 54.0675 78.8907 54.1092 78.3803C54.3384 78.2136 54.5675 78.0522 54.7967 77.8855C55.1821 77.6095 55.5623 77.3334 55.9477 77.0574C56.0467 77.6355 56.203 78.2084 56.3748 78.7657C56.8123 80.1772 57.4321 81.5522 58.3123 82.7397C58.8436 83.4532 59.453 84.0834 60.1665 84.6095C60.0623 85.0366 59.953 85.4584 59.854 85.8803ZM62.9998 84.2501C62.9946 84.2761 62.9894 84.297 62.9894 84.323C62.979 84.3855 62.9686 84.4428 62.9582 84.5053C62.8957 84.9064 62.8071 85.297 62.6925 85.6876C62.6352 85.8803 62.5727 86.073 62.4998 86.2657C62.4686 86.3491 62.4321 86.4376 62.3957 86.5209C62.3905 86.5418 62.3696 86.5834 62.3644 86.5991C62.3384 86.6511 62.3175 86.7032 62.2915 86.7501C62.1196 87.1147 61.9165 87.4636 61.6821 87.797C61.6561 87.8334 61.6248 87.8699 61.5988 87.9064C61.5936 87.9168 61.5519 87.9636 61.5415 87.9845C61.479 88.0574 61.4217 88.1303 61.3592 88.2032C61.2238 88.3543 61.0832 88.5001 60.9373 88.6407C60.7915 88.7814 60.6352 88.9116 60.479 89.0366C60.4582 89.047 60.3957 89.0939 60.3852 89.1043C60.3384 89.1355 60.2915 89.1668 60.2498 89.2032C60.1561 89.2657 60.0623 89.323 59.9686 89.3855C59.9477 89.3959 59.9269 89.4064 59.9113 89.422C60.3488 87.3022 60.8592 85.2032 61.4061 83.1147C61.8019 81.5939 62.2186 80.0834 62.6509 78.573C62.7186 78.9168 62.7863 79.2605 62.8436 79.6043C62.88 79.8074 62.9061 80.0105 62.9373 80.2136C62.9373 80.2397 62.9477 80.2814 62.9477 80.297C62.953 80.3491 62.9582 80.3959 62.9634 80.4428C62.979 80.5522 62.9894 80.6668 63.005 80.7761C63.0936 81.6251 63.1248 82.4793 63.078 83.3334C63.0675 83.5418 63.0519 83.7553 63.0311 83.9636C63.0207 84.0574 63.0102 84.1564 62.9998 84.2501C62.9946 84.2553 62.9946 84.2605 62.9946 84.2709C62.9946 84.2657 62.9946 84.2605 62.9998 84.2501ZM57.4061 46.4064C57.703 46.4897 57.9946 46.547 58.3019 46.5886C58.2967 46.5886 58.2967 46.5886 58.3227 46.5939C58.3488 46.5939 58.3748 46.5991 58.4009 46.6043C58.4582 46.6095 58.5207 46.6199 58.5832 46.6303C59.8384 46.823 61.0884 47.1355 62.2967 47.5522C62.2655 47.5939 62.229 47.6303 62.1977 47.672C61.6665 48.2761 61.1873 48.922 60.7394 49.5886C60.0207 50.6564 59.3905 51.7761 58.8175 52.9272C57.9946 54.573 57.2967 56.2814 56.6873 58.0157C55.8905 60.2866 55.255 62.6043 54.7394 64.948C54.6665 65.2709 54.5988 65.5939 54.5311 65.9116C54.479 65.9116 54.4217 65.9064 54.3644 65.9064C53.7863 65.8803 53.2082 65.8595 52.63 65.8334C51.6977 65.797 50.7655 65.7553 49.8332 65.7189C50.1405 63.8751 50.5936 62.0574 51.1457 60.2761C51.7082 58.4689 52.3644 56.6928 53.0988 54.948C53.7238 53.4584 54.4061 51.9897 55.1352 50.547C55.6613 49.5001 56.2082 48.4689 56.7863 47.4532C56.9894 47.0991 57.203 46.7553 57.4061 46.4064ZM76.5259 71.2866C76.1977 68.3595 75.7811 65.4324 75.2498 62.5314C74.8852 60.5001 74.4998 58.4636 73.6821 56.5522C72.328 53.3959 70.005 50.7814 67.1092 48.9376C65.0102 47.6043 62.6509 46.6668 60.229 46.1095C59.5832 45.9584 58.9321 45.8543 58.2759 45.7605C56.6925 45.5366 55.2446 44.5209 54.3332 43.2397C52.9165 41.2449 52.453 38.6459 52.4842 36.2449C52.4894 36.1355 52.4894 36.0209 52.4946 35.9116C53.104 35.0105 53.5884 34.0261 53.9217 32.9897C54.203 32.1355 54.4217 31.2657 54.6092 30.3803C55.453 30.4793 56.2446 30.1876 56.8957 29.6459C57.5727 29.0782 57.9842 28.2657 58.1977 27.422C58.4165 26.547 58.4998 25.573 58.4373 24.672C58.3696 23.8022 58.0571 22.9012 57.2759 22.4168C56.7967 22.1251 56.0832 22.0574 55.5102 22.2657C55.5102 22.2032 55.5155 22.1407 55.5155 22.0782C55.5259 21.547 55.5259 21.0105 55.5155 20.4741C55.63 20.3647 55.7394 20.2501 55.8436 20.1251C56.2394 19.6459 56.5155 19.1095 56.7082 18.5209C58.0832 16.422 58.5415 13.823 58.0155 11.3803C57.5519 9.22928 56.328 7.25011 54.6405 5.82824C52.7811 4.26053 50.4321 3.45324 48.0727 2.97407C47.578 2.8699 47.0832 2.78657 46.5832 2.71365C46.1613 1.77095 45.2082 1.11991 44.1873 1.00011C43.1144 0.875113 42.0415 1.39595 41.4321 2.26574C41.4061 2.3022 41.3905 2.34907 41.38 2.39595C40.3123 2.41157 39.2394 2.46365 38.1821 2.59907C38.1561 2.60428 38.1352 2.60428 38.1092 2.60949C38.0884 2.62511 37.9113 2.63032 37.8905 2.63553C37.6196 2.66678 37.354 2.70324 37.0832 2.75532C36.6457 2.83345 36.2082 2.93761 35.7811 3.06782C34.9998 3.31261 34.2394 3.65636 33.5519 4.10428C32.3592 4.88553 31.4009 5.97407 30.755 7.2397C30.1717 8.38032 29.828 9.61991 29.6561 10.8855C29.5102 11.9532 29.4686 13.0314 29.5363 14.1095C29.5675 14.6564 29.6248 15.2084 29.7134 15.7553C29.6509 15.8439 29.5884 15.9376 29.5311 16.0314C29.255 16.4793 29.0311 16.9637 28.8644 17.4637C28.6457 18.0991 28.5311 18.7918 28.5884 19.4637C28.6509 20.1355 28.9946 20.7397 29.604 21.0626C29.8957 21.2189 30.2238 21.3074 30.5519 21.3126C30.5363 21.6251 30.5259 21.9376 30.5207 22.2501C30.0832 22.1147 29.5727 22.1199 29.1873 22.2553C28.354 22.5522 27.854 23.3803 27.6977 24.2137C27.5311 25.1303 27.5727 26.1251 27.7134 27.047C27.8488 27.922 28.1769 28.7814 28.7915 29.4376C29.3748 30.0678 30.2238 30.5053 31.0988 30.4637C31.3384 31.8282 31.6821 33.1824 32.2342 34.4376C32.8905 35.9272 33.8905 37.2501 35.13 38.3074C35.13 38.3386 35.13 38.3751 35.13 38.4116C35.1248 38.5209 35.1196 38.6355 35.1092 38.7501C35.104 38.8126 35.0936 38.8803 35.0884 38.9428C35.0884 38.9532 35.0884 38.9584 35.0884 38.9636C35.0884 38.9689 35.0884 38.9689 35.0832 38.9741C35.078 39.0157 35.0727 39.0626 35.0675 39.1043C34.9165 39.9793 34.6457 40.672 34.1717 41.3959C32.604 43.7657 29.5623 44.5209 26.8436 44.7345C24.4634 44.922 22.0727 45.3855 19.8123 46.1511C16.703 47.2032 13.604 48.9272 11.7602 51.7189C11.328 52.3803 10.9477 53.0834 10.5623 53.7709C9.57795 55.5209 8.65087 57.3022 7.76545 59.1043C6.54149 61.6043 5.41128 64.1511 4.39045 66.7397C3.27066 69.6095 2.28628 72.5366 1.5467 75.5314C0.822744 78.4636 0.317534 81.4741 0.275868 84.5001C0.23941 87.2293 0.588367 90.0209 1.65608 92.5522C1.90608 93.1407 2.18733 93.7136 2.51024 94.2657C2.50503 94.2709 2.50503 94.2761 2.49983 94.2814C2.24462 94.9636 2.53628 95.5939 2.94774 96.1355C3.74462 97.1876 4.69774 98.1043 5.78628 98.8543C7.68212 100.167 10.1144 100.912 11.5311 102.823C12.3019 103.854 12.7707 105.063 13.479 106.136C14.1509 107.156 15.0467 108.078 16.2602 108.427C16.9269 108.62 17.6352 108.641 18.3227 108.594C19.005 108.547 19.6873 108.432 20.3488 108.25C21.6769 107.886 22.8957 107.245 23.9894 106.417C25.1352 105.552 26.1977 104.573 27.2811 103.636C27.5571 103.391 27.8436 103.146 28.0311 102.844C28.2655 102.656 28.6821 102.318 28.6925 102.302C29.255 101.688 29.8071 101.063 30.3592 100.443C30.8644 99.9376 31.354 99.4428 31.7863 98.9741C31.9477 99.1043 32.1092 99.2241 32.2759 99.3491C33.2186 100.037 34.1821 100.734 35.2915 101.136C36.3748 101.521 37.5467 101.609 38.6873 101.636C39.8227 101.662 40.9686 101.615 42.0988 101.771C43.203 101.922 44.229 102.323 45.2238 102.807C46.2602 103.313 47.2707 103.865 48.3644 104.25C49.505 104.651 50.7134 104.875 51.9217 104.922C52.5155 104.948 53.1144 104.922 53.703 104.854C54.2967 104.787 54.8748 104.688 55.2186 104.141C55.3123 103.979 55.3852 103.807 55.4425 103.625C59.7811 104.167 64.3175 104.281 68.5727 103.151C69.8227 102.823 71.0519 102.375 72.1925 101.766C73.1352 101.266 73.9425 100.573 74.5623 99.7032C75.2186 98.7761 75.5311 97.7084 75.8071 96.6251C76.8696 92.4428 77.1977 88.0834 77.2342 83.7814C77.2655 79.6095 76.9894 75.4376 76.5259 71.2866Z" fill="#330B24"/>
</g>
<path d="M60.9061 72.9905C60.9009 72.9744 60.8957 72.9583 60.8853 72.9423C60.8905 72.9476 60.8957 72.9637 60.9113 72.9958C60.9061 72.9958 60.9061 72.9905 60.9061 72.9905Z" fill="#330B24"/>
<path d="M62.9948 84.2707C62.9844 84.3384 62.9896 84.302 62.9948 84.2707V84.2707Z" fill="#330B24"/>
<path d="M38.0519 2.61961C38.0727 2.61434 38.0883 2.61434 38.1092 2.60907H38.1144C38.1144 2.60907 38.0362 2.61961 38.0519 2.61961Z" fill="#330B24"/>
<path d="M41.6042 30.0732C42.2031 30.4274 42.9427 30.4743 43.6094 30.3076C43.8542 30.2503 43.9896 29.9743 43.9219 29.7451C43.849 29.5055 43.5885 29.3857 43.3437 29.443C42.7812 29.5836 42.1562 29.4743 41.7708 29.0524C41.4844 28.7347 41.401 28.3024 41.5781 27.917C41.8281 27.3805 42.3125 26.9743 42.6354 26.4847C43.3177 25.4482 43.5312 24.1826 43.3125 22.9847C43.2708 22.7399 42.9531 22.6149 42.7396 22.6826C42.4792 22.7555 42.3854 23.0003 42.4271 23.2399C42.5469 23.9066 42.4687 24.6045 42.2396 25.2399C42.0312 25.818 41.6615 26.2763 41.276 26.7451C40.849 27.2659 40.474 27.8701 40.5781 28.5628C40.6667 29.193 41.0469 29.7451 41.6042 30.0732Z" fill="#330B24"/>
<path d="M48.1148 25.0881C48.62 25.062 49.0002 24.4006 48.9586 23.6141C48.9117 22.8276 48.4638 22.2079 47.9534 22.2391C47.4429 22.2651 47.0679 22.9214 47.1096 23.7131C47.1513 24.4995 47.5992 25.1141 48.1148 25.0881Z" fill="#330B24"/>
<path d="M37.979 25.0102C38.4895 24.9841 38.8645 24.3279 38.8228 23.5362C38.7811 22.7498 38.328 22.1352 37.8228 22.1612C37.3124 22.1873 36.9322 22.8487 36.9738 23.6352C37.0207 24.4216 37.4686 25.0414 37.979 25.0102Z" fill="#330B24"/>
<path d="M38.6249 32.3749C38.4999 32.5833 38.5937 32.8072 38.776 32.9374C40.4895 34.2083 42.802 34.5729 44.8281 33.8958C45.4114 33.6979 45.9687 33.4322 46.4739 33.0833C46.6614 32.9583 46.7447 32.7239 46.625 32.5208C46.5156 32.3385 46.2395 32.2447 46.0572 32.3749C45.0312 33.0676 43.8124 33.4426 42.5729 33.4114C41.3489 33.3801 40.1718 32.9479 39.1927 32.2239C39.0156 32.0937 38.7291 32.1979 38.6249 32.3749Z" fill="#330B24"/>
</svg>
