<svg width="24" height="23" viewBox="0 0 24 23" fill="none" xmlns="http://www.w3.org/2000/svg">
<path d="M1.65674 1.64087H2.48478V2.46162H1.65674V1.64087Z" fill="#8C52FF"/>
<path d="M3.3125 1.64087H4.14055V2.46162H3.3125V1.64087Z" fill="#8C52FF"/>
<path d="M4.96826 1.64087H5.79599V2.46162H4.96826V1.64087Z" fill="#8C52FF"/>
<mask id="mask0_2128_836" style="mask-type:luminance" maskUnits="userSpaceOnUse" x="0" y="0" width="24" height="23">
<path d="M0 0H24V23H0V0Z" fill="white"/>
</mask>
<g mask="url(#mask0_2128_836)">
<path d="M22.3528 0H1.65674C1.6028 0 1.54855 0.00251574 1.49462 0.00786163C1.44069 0.0132076 1.38707 0.0210692 1.33409 0.031761C1.28079 0.0421383 1.22844 0.0553459 1.17641 0.0710692C1.1247 0.086478 1.07362 0.104717 1.02349 0.125157C0.973363 0.145912 0.924505 0.168868 0.876916 0.19434C0.82901 0.219497 0.78269 0.24717 0.737322 0.277044C0.692272 0.306918 0.648807 0.338994 0.606929 0.372956C0.565051 0.406918 0.525076 0.443082 0.486688 0.481132C0.448299 0.519182 0.412132 0.558805 0.377551 0.600314C0.343287 0.641824 0.310926 0.684906 0.280787 0.72956C0.250647 0.774214 0.222728 0.82044 0.197348 0.86761C0.17165 0.915094 0.14849 0.963522 0.127868 1.01321C0.106929 1.06289 0.0885279 1.11352 0.0729822 1.16478C0.0571193 1.21635 0.0437944 1.26824 0.0333249 1.32107C0.0228554 1.37358 0.0146067 1.42673 0.00921321 1.48019C0.00381983 1.53365 0.00128174 1.58711 0.00128174 1.64088V18.0519C0.00128174 18.1057 0.00381983 18.1594 0.00921321 18.2129C0.0146067 18.2664 0.0228554 18.3195 0.0333249 18.372C0.0437944 18.4248 0.0571193 18.4767 0.0729822 18.5283C0.0885279 18.5796 0.106929 18.6302 0.127868 18.6799C0.14849 18.7292 0.17165 18.778 0.197348 18.8252C0.222728 18.8726 0.250647 18.9186 0.280787 18.9632C0.310926 19.0079 0.343287 19.0513 0.377551 19.0928C0.412132 19.1343 0.448299 19.1739 0.486688 19.212C0.525076 19.25 0.565051 19.2858 0.606929 19.3201C0.648807 19.3541 0.692272 19.3862 0.737322 19.416C0.78269 19.4459 0.82901 19.4736 0.876916 19.4987C0.924505 19.5242 0.973363 19.5472 1.02349 19.5676C1.07362 19.5884 1.1247 19.6063 1.17641 19.622C1.22844 19.6377 1.28079 19.6506 1.33409 19.6613C1.38707 19.6717 1.44069 19.6799 1.49462 19.6849C1.54855 19.6903 1.6028 19.6931 1.65674 19.6931H8.95528L8.72939 22.1547H7.45179V22.9755H16.5581V22.1547H15.2805L15.0546 19.6931H22.3528C22.4071 19.6931 22.4613 19.6903 22.5152 19.6849C22.5692 19.6799 22.6228 19.6717 22.6758 19.6613C22.7291 19.6506 22.7814 19.6377 22.8335 19.622C22.8852 19.6063 22.9362 19.5884 22.9864 19.5676C23.0362 19.5472 23.0854 19.5242 23.1329 19.4987C23.1808 19.4736 23.2272 19.4459 23.2722 19.416C23.3173 19.3862 23.3607 19.3541 23.4029 19.3201C23.4448 19.2858 23.4848 19.25 23.5232 19.212C23.5616 19.1739 23.5977 19.1343 23.6323 19.0928C23.6666 19.0513 23.6989 19.0079 23.7291 18.9632C23.7592 18.9186 23.7871 18.8726 23.8125 18.8252C23.8382 18.778 23.8614 18.7292 23.882 18.6799C23.9029 18.6302 23.921 18.5796 23.9369 18.5283C23.9527 18.4767 23.9657 18.4248 23.9765 18.372C23.987 18.3195 23.9953 18.2664 24.0003 18.2129C24.0057 18.1594 24.0086 18.1057 24.0086 18.0519V1.64088C24.0086 1.58711 24.0057 1.53365 24.0003 1.48019C23.9953 1.42673 23.987 1.37358 23.9765 1.32107C23.9657 1.26824 23.9527 1.21635 23.9369 1.16478C23.921 1.11352 23.9029 1.06289 23.882 1.01321C23.8614 0.963522 23.8382 0.915094 23.8125 0.86761C23.7871 0.82044 23.7592 0.774214 23.7291 0.72956C23.6989 0.684906 23.6666 0.641824 23.6323 0.600314C23.5977 0.558805 23.5616 0.519182 23.5232 0.481132C23.4848 0.443082 23.4448 0.406918 23.4029 0.372956C23.3607 0.338994 23.3173 0.306918 23.2722 0.277044C23.2272 0.24717 23.1808 0.219497 23.1329 0.19434C23.0854 0.168868 23.0362 0.145912 22.9864 0.125157C22.9362 0.104717 22.8852 0.086478 22.8335 0.0710692C22.7814 0.0553459 22.7291 0.0421383 22.6758 0.031761C22.6228 0.0210692 22.5692 0.0132076 22.5152 0.00786163C22.4613 0.00251574 22.4071 0 22.3528 0ZM1.65674 0.82044H22.3528C22.4074 0.82044 22.461 0.825786 22.5143 0.836478C22.5676 0.846855 22.6193 0.862579 22.6694 0.883019C22.7199 0.903774 22.7675 0.928931 22.8125 0.959119C22.8579 0.988994 22.8994 1.02296 22.9381 1.06101C22.9765 1.09906 23.0108 1.14057 23.0409 1.18522C23.0711 1.23019 23.0968 1.27736 23.1174 1.32704C23.1383 1.37673 23.1542 1.4283 23.1647 1.48082C23.1755 1.53365 23.1808 1.58711 23.1808 1.64088V3.28208H0.82901V1.64088C0.82901 1.58711 0.834404 1.53365 0.84519 1.48082C0.85566 1.4283 0.871523 1.37673 0.892462 1.32704C0.913084 1.27736 0.938782 1.23019 0.968921 1.18522C0.999061 1.14057 1.03332 1.09906 1.07171 1.06101C1.1101 1.02296 1.15198 0.988994 1.19735 0.959119C1.2424 0.928931 1.28999 0.903774 1.34011 0.883019C1.39056 0.862579 1.44227 0.846855 1.49557 0.836478C1.54887 0.825786 1.60249 0.82044 1.65674 0.82044ZM23.1808 4.10252V15.5903H0.82901V4.10252H23.1808ZM14.4493 22.1547H9.56061L9.7865 19.6931H14.2234L14.4493 22.1547ZM22.3528 18.8726H1.65674C1.60249 18.8726 1.54887 18.8673 1.49557 18.8566C1.44227 18.8462 1.39056 18.8305 1.34011 18.8097C1.28999 18.7893 1.2424 18.7638 1.19735 18.734C1.15198 18.7041 1.1101 18.6701 1.07171 18.6321C1.03332 18.594 0.999061 18.5525 0.968921 18.5075C0.938782 18.4629 0.913084 18.4157 0.892462 18.366C0.871523 18.316 0.85566 18.2648 0.84519 18.212C0.834404 18.1591 0.82901 18.106 0.82901 18.0519V16.411H23.1808V18.0519C23.1808 18.106 23.1755 18.1591 23.1647 18.212C23.1542 18.2648 23.1383 18.316 23.1174 18.366C23.0968 18.4157 23.0711 18.4629 23.0409 18.5075C23.0108 18.5525 22.9765 18.594 22.9381 18.6321C22.8994 18.6701 22.8579 18.7041 22.8125 18.734C22.7675 18.7638 22.7199 18.7893 22.6694 18.8097C22.6193 18.8305 22.5676 18.8462 22.5143 18.8566C22.461 18.8673 22.4074 18.8726 22.3528 18.8726Z" fill="#8C52FF"/>
</g>
<path d="M11.5911 17.2314H12.4188V18.0519H11.5911V17.2314Z" fill="#8C52FF"/>
<path d="M2.07074 8.61572H2.89847V9.43616H2.07074V8.61572Z" fill="#8C52FF"/>
<path d="M3.7265 8.61572H9.93526V9.43616H3.7265V8.61572Z" fill="#8C52FF"/>
<path d="M2.07074 10.257H2.89847V11.0774H2.07074V10.257Z" fill="#8C52FF"/>
<path d="M3.7265 10.257H14.4882V11.0774H3.7265V10.257Z" fill="#8C52FF"/>
<path d="M2.07074 11.8977H2.89847V12.7185H2.07074V11.8977Z" fill="#8C52FF"/>
<path d="M3.7265 11.8977H11.591V12.7185H3.7265V11.8977Z" fill="#8C52FF"/>
<path d="M2.07074 13.5389H2.89847V14.3594H2.07074V13.5389Z" fill="#8C52FF"/>
<path d="M3.7265 13.5389H15.7303V14.3594H3.7265V13.5389Z" fill="#8C52FF"/>
<path d="M2.19193 6.85436L3.01998 7.6748L3.60532 7.09462L3.07011 6.56411L3.60532 6.03392L3.01998 5.45374L2.19193 6.27418C2.1729 6.29304 2.15577 6.3138 2.14054 6.33644C2.12531 6.35877 2.11262 6.38235 2.10215 6.40719C2.092 6.43204 2.08406 6.45782 2.07867 6.48424C2.07328 6.51065 2.07074 6.53738 2.07074 6.56411C2.07074 6.59116 2.07328 6.61789 2.07867 6.6443C2.08406 6.67072 2.092 6.6965 2.10215 6.72135C2.11262 6.74619 2.12531 6.76977 2.14054 6.7921C2.15577 6.81474 2.1729 6.83518 2.19193 6.85436Z" fill="#8C52FF"/>
<path d="M6.33124 7.09462L6.91658 7.6748L7.74463 6.85436C7.76366 6.83518 7.78079 6.81474 7.79602 6.7921C7.81093 6.76977 7.82394 6.74619 7.83409 6.72135C7.84456 6.6965 7.85249 6.67072 7.85789 6.6443C7.86296 6.61789 7.86582 6.59116 7.86582 6.56411C7.86582 6.53738 7.86296 6.51065 7.85789 6.48424C7.85249 6.45782 7.84456 6.43204 7.83409 6.40719C7.82394 6.38235 7.81093 6.35877 7.79602 6.33644C7.78079 6.3138 7.76366 6.29304 7.74463 6.27418L6.91658 5.45374L6.33124 6.03392L6.86645 6.56411L6.33124 7.09462Z" fill="#8C52FF"/>
<path d="M4.1615 7.66537L4.98954 5.20374L5.77476 5.46317L4.94703 7.9248L4.1615 7.66537Z" fill="#8C52FF"/>
<path d="M15.3163 10.257H17.7998V11.0774H15.3163V10.257Z" fill="#8C52FF"/>
<path d="M16.558 13.5389H17.3858V14.3594H16.558V13.5389Z" fill="#8C52FF"/>
<path d="M18.2139 13.5389H19.0416V14.3594H18.2139V13.5389Z" fill="#8C52FF"/>
<path d="M10.763 8.61572H11.591V9.43616H10.763V8.61572Z" fill="#8C52FF"/>
</svg>
