<svg width="100" height="30" viewBox="0 0 100 30" fill="none" xmlns="http://www.w3.org/2000/svg">
<mask id="mask0_490_3755" style="mask-type:luminance" maskUnits="userSpaceOnUse" x="0" y="0" width="100" height="30">
<path d="M0 0H100V30H0V0Z" fill="white"/>
</mask>
<g mask="url(#mask0_490_3755)">
<mask id="mask1_490_3755" style="mask-type:luminance" maskUnits="userSpaceOnUse" x="0" y="0" width="100" height="30">
<path d="M84.671 30H15.3448C11.2781 30 7.37823 28.417 4.50405 25.6048C1.62987 22.7927 0.0119019 18.9771 0.0119019 15.0019C0.0119019 11.0229 1.62987 7.20731 4.50405 4.39518C7.37823 1.58304 11.2781 0 15.3448 0H84.671C88.7338 0 92.6336 1.58304 95.5078 4.39518C98.386 7.20731 100 11.0229 100 15.0019C100 18.9771 98.386 22.7927 95.5078 25.6048C92.6336 28.417 88.7338 30 84.671 30Z" fill="white"/>
</mask>
<g mask="url(#mask1_490_3755)">
<path d="M99.9999 30H-6.10352e-05V0H99.9999V30Z" fill="#0166C8"/>
</g>
</g>
<mask id="mask2_490_3755" style="mask-type:luminance" maskUnits="userSpaceOnUse" x="0" y="0" width="100" height="30">
<path d="M0.0119629 0.128418H99.9881V30.0001H0.0119629V0.128418Z" fill="white"/>
</mask>
<g mask="url(#mask2_490_3755)">
<mask id="mask3_490_3755" style="mask-type:luminance" maskUnits="userSpaceOnUse" x="0" y="0" width="100" height="30">
<path d="M84.6632 30H15.3568C11.294 30 7.39421 28.4209 4.52003 25.6088C1.64585 22.7966 0.0318604 18.981 0.0318604 15.0059C0.0318604 11.0269 1.64585 7.21514 4.52003 4.40301C7.39421 1.59087 11.294 0.0117188 15.3568 0.0117188H84.6632C88.7299 0.0117188 92.6258 1.59087 95.5 4.40301C98.3741 7.21514 99.9881 11.0269 99.9881 15.0059C99.9881 18.981 98.3741 22.7966 95.5 25.6088C92.6258 28.4209 88.7299 30 84.6632 30Z" fill="white"/>
</mask>
<g mask="url(#mask3_490_3755)">
<path d="M84.6631 30H15.3568C11.2939 30 7.39412 28.4208 4.51994 25.6087C1.64576 22.7966 0.031764 18.9809 0.031764 15.0058C0.031764 11.0268 1.64576 7.21509 4.51994 4.40295C7.39412 1.59082 11.2939 0.0116637 15.3568 0.0116637H84.6631C88.7298 0.0116637 92.6257 1.59082 95.4999 4.40295C98.374 7.21509 99.988 11.0268 99.988 15.0058C99.988 18.9809 98.374 22.7966 95.4999 25.6087C92.6257 28.4208 88.7298 30 84.6631 30Z" stroke="#0166C8" stroke-width="4"/>
</g>
</g>
<path d="M15.8951 18.3818H14.782V12.6875H16.0859L18.4234 16.3592L18.5347 16.3437V12.6875H19.6319V18.3818H18.4552L15.9905 14.4611L15.8951 14.4767V18.3818Z" fill="white"/>
<path d="M22.9356 18.4594C22.5103 18.4594 22.1326 18.3777 21.8066 18.2105C21.4886 18.0354 21.2382 17.7826 21.0593 17.4481C20.8764 17.1175 20.7889 16.713 20.7889 16.2346C20.7889 15.7678 20.8764 15.3711 21.0593 15.0366C21.2382 14.6943 21.4886 14.4415 21.8066 14.2743C22.1326 14.0992 22.5103 14.0098 22.9356 14.0098C23.3689 14.0098 23.7466 14.0992 24.0646 14.2743C24.3906 14.4415 24.645 14.6943 24.8279 15.0366C25.0068 15.3711 25.0982 15.7678 25.0982 16.2346C25.0982 16.713 25.0068 17.1175 24.8279 17.4481C24.645 17.7826 24.3906 18.0354 24.0646 18.2105C23.7466 18.3777 23.3689 18.4594 22.9356 18.4594ZM22.9356 17.5415C23.6234 17.5415 23.9692 17.1058 23.9692 16.2346C23.9692 15.7795 23.8778 15.4489 23.6989 15.2389C23.528 15.0327 23.2735 14.9277 22.9356 14.9277C22.2558 14.9277 21.9179 15.3633 21.9179 16.2346C21.9179 17.1058 22.2558 17.5415 22.9356 17.5415Z" fill="white"/>
<path d="M28.5093 17.3549L28.7955 18.1484C28.6763 18.2534 28.5292 18.3312 28.3503 18.3817C28.1674 18.4323 27.9686 18.4595 27.746 18.4595C27.269 18.4595 26.9032 18.3351 26.6488 18.0861C26.4024 17.8294 26.2831 17.4599 26.2831 16.9815V14.9434H25.6152V14.0877H26.2831V13.2476L27.3962 13.0764V14.0877H28.6365V14.9434H27.3962V16.9037C27.3962 17.1138 27.4359 17.2693 27.5234 17.3705C27.6188 17.4638 27.75 17.5105 27.9209 17.5105C28.1118 17.5105 28.2787 17.4599 28.4298 17.3549H28.5093Z" fill="white"/>
<path d="M32.8665 18.4594C32.5684 18.4594 32.2941 18.4283 32.0397 18.366C31.7932 18.296 31.5825 18.2027 31.4036 18.086C31.2327 17.9615 31.1055 17.8215 31.022 17.6659L31.6262 17.0125H31.7057C31.8528 17.2109 32.0277 17.3548 32.2305 17.4481C32.4292 17.5415 32.6479 17.5881 32.8824 17.5881C33.0931 17.5881 33.2521 17.5531 33.3595 17.4792C33.4628 17.4092 33.5185 17.3003 33.5185 17.1525C33.5185 17.0514 33.4787 16.9619 33.4072 16.888C33.3317 16.8063 33.2044 16.7441 33.0256 16.7013L32.4531 16.5769C32.0158 16.4757 31.6978 16.3202 31.499 16.1101C31.2963 15.904 31.1969 15.6395 31.1969 15.3167C31.1969 15.0483 31.2645 14.8149 31.4036 14.6165C31.5388 14.4221 31.7375 14.2704 31.992 14.1653C32.2464 14.0642 32.5406 14.0098 32.8824 14.0098C33.272 14.0098 33.598 14.0681 33.8524 14.1809C34.1148 14.2859 34.3215 14.4298 34.4726 14.6165L33.8842 15.2389H33.8047C33.6775 15.1066 33.5344 15.0055 33.3754 14.9433C33.2243 14.881 33.0613 14.8499 32.8824 14.8499C32.4451 14.8499 32.2305 14.986 32.2305 15.2544C32.2305 15.3711 32.2663 15.4645 32.3418 15.5345C32.4253 15.5967 32.5684 15.6511 32.7711 15.69L33.3118 15.8145C33.757 15.9079 34.079 16.0596 34.2818 16.2657C34.4925 16.4757 34.5998 16.748 34.5998 17.0903C34.5998 17.3625 34.5282 17.5998 34.3931 17.806C34.2539 18.016 34.0512 18.1755 33.7888 18.2883C33.5344 18.4011 33.2243 18.4594 32.8665 18.4594Z" fill="white"/>
<path d="M37.8795 17.3549L38.1658 18.1484C38.0465 18.2534 37.8994 18.3312 37.7205 18.3817C37.5376 18.4323 37.3389 18.4595 37.1163 18.4595C36.6392 18.4595 36.2735 18.3351 36.0191 18.0861C35.7726 17.8294 35.6533 17.4599 35.6533 16.9815V14.9434H34.9855V14.0877H35.6533V13.2476L36.7664 13.0764V14.0877H38.0067V14.9434H36.7664V16.9037C36.7664 17.1138 36.8062 17.2693 36.8936 17.3705C36.9891 17.4638 37.1202 17.5105 37.2912 17.5105C37.482 17.5105 37.649 17.4599 37.8 17.3549H37.8795Z" fill="white"/>
<path d="M39.9825 18.4594C39.6963 18.4594 39.4459 18.4127 39.2352 18.3194C39.0324 18.2182 38.8734 18.0666 38.7581 17.8682C38.6508 17.6737 38.5991 17.4326 38.5991 17.1525C38.5991 16.9036 38.6508 16.6974 38.7581 16.5302C38.8734 16.3552 39.0483 16.2112 39.2829 16.0946C39.5135 15.9818 39.8235 15.9001 40.2052 15.8456C40.4596 15.8067 40.6544 15.7601 40.7935 15.7056C40.9287 15.655 41.0201 15.5967 41.0638 15.5345C41.1155 15.4722 41.1433 15.3944 41.1433 15.3011C41.1433 15.1688 41.0956 15.0638 41.0002 14.9899C40.9048 14.9199 40.7379 14.881 40.5073 14.881C40.2608 14.881 40.0302 14.9355 39.8076 15.0366C39.593 15.1416 39.4021 15.2816 39.2352 15.4567H39.1557L38.6945 14.7721C38.9171 14.5349 39.1875 14.3482 39.5055 14.212C39.8315 14.0798 40.1893 14.0098 40.5709 14.0098C41.1433 14.0098 41.5568 14.1303 41.8112 14.3676C42.0736 14.6088 42.2087 14.951 42.2087 15.3944V17.2614C42.2087 17.4481 42.2962 17.5415 42.4791 17.5415C42.5427 17.5415 42.6063 17.5337 42.6699 17.5103L42.7176 17.5259L42.7971 18.2727C42.7414 18.3155 42.658 18.3505 42.5427 18.3816C42.4353 18.4011 42.3201 18.4127 42.1928 18.4127C41.9265 18.4127 41.7198 18.366 41.5727 18.2727C41.4216 18.1716 41.3183 18.016 41.2547 17.806L41.1751 17.7904C40.9605 18.2377 40.5629 18.4594 39.9825 18.4594ZM40.3324 17.6504C40.5868 17.6504 40.7856 17.5687 40.9366 17.4014C41.0837 17.2381 41.1592 17.0047 41.1592 16.7013V16.2657L41.0956 16.2501C41.0201 16.3046 40.9287 16.3513 40.8253 16.3902C40.718 16.4213 40.5629 16.4524 40.3642 16.4835C40.1296 16.5263 39.9587 16.5924 39.8553 16.6858C39.748 16.7791 39.6963 16.9153 39.6963 17.0903C39.6963 17.277 39.748 17.417 39.8553 17.5103C39.9706 17.6037 40.1296 17.6504 40.3324 17.6504Z" fill="white"/>
<path d="M43.5247 18.3816V14.0875H44.5901V14.7254L44.6696 14.741C44.7729 14.5037 44.9121 14.3326 45.083 14.2275C45.2619 14.1147 45.4726 14.0564 45.7191 14.0564C45.9735 14.0564 46.1643 14.0992 46.2915 14.1809L46.1007 15.0988L46.0212 15.1144C45.9456 15.0949 45.8781 15.0793 45.8145 15.0677C45.7509 15.0482 45.6713 15.0366 45.5759 15.0366C45.2659 15.0366 45.0273 15.1455 44.8604 15.3633C44.7014 15.5733 44.6219 15.9078 44.6219 16.3746V18.3816H43.5247Z" fill="white"/>
<path d="M49.3488 17.3549L49.635 18.1484C49.5157 18.2534 49.3686 18.3312 49.1898 18.3817C49.0069 18.4323 48.8081 18.4595 48.5855 18.4595C48.1085 18.4595 47.7427 18.3351 47.4883 18.0861C47.2418 17.8294 47.1226 17.4599 47.1226 16.9815V14.9434H46.4547V14.0877H47.1226V13.2476L48.2357 13.0764V14.0877H49.476V14.9434H48.2357V16.9037C48.2357 17.1138 48.2754 17.2693 48.3629 17.3705C48.4583 17.4638 48.5895 17.5105 48.7604 17.5105C48.9512 17.5105 49.1182 17.4599 49.2693 17.3549H49.3488Z" fill="white"/>
<path d="M54.0755 16.4835H51.2451C51.2769 16.8569 51.3802 17.1292 51.5631 17.2925C51.7539 17.4598 52.0123 17.5415 52.3423 17.5415C52.5848 17.5415 52.7875 17.5026 52.9465 17.417C53.1055 17.3237 53.2327 17.1836 53.3281 16.9969H53.4076L54.1391 17.4481C54 17.7515 53.7813 17.9927 53.4872 18.1793C53.2009 18.366 52.8193 18.4594 52.3423 18.4594C51.8851 18.4594 51.4915 18.3777 51.1655 18.2105C50.8356 18.0471 50.5812 17.7982 50.4023 17.4637C50.2194 17.1214 50.132 16.713 50.132 16.2346C50.132 15.7484 50.2194 15.34 50.4023 15.0055C50.5931 14.6749 50.8475 14.4259 51.1655 14.2587C51.4915 14.0953 51.8573 14.0098 52.2627 14.0098C52.875 14.0098 53.348 14.1731 53.678 14.4921C54.004 14.8149 54.1709 15.2855 54.1709 15.9079C54.1709 16.1373 54.163 16.3124 54.155 16.4368L54.0755 16.4835ZM53.1214 15.7834C53.1095 15.4528 53.03 15.2155 52.8829 15.0677C52.7438 14.9238 52.537 14.8499 52.2627 14.8499C51.6982 14.8499 51.3723 15.1611 51.2769 15.7834H53.1214Z" fill="white"/>
<path d="M56.6637 18.4594C56.3218 18.4594 56.0157 18.3777 55.7414 18.2105C55.475 18.0471 55.2683 17.7982 55.1212 17.4637C54.9702 17.1331 54.8986 16.7247 54.8986 16.2346C54.8986 15.7484 54.9702 15.34 55.1212 15.0055C55.2803 14.6749 55.4949 14.4259 55.7732 14.2587C56.0475 14.0953 56.3655 14.0098 56.7273 14.0098C57.0016 14.0098 57.2361 14.0564 57.4269 14.1498C57.6257 14.2431 57.7967 14.3832 57.9358 14.5699L58.0312 14.5543V12.3606H59.1284V18.3816H58.0312V17.8215L57.9358 17.8059C57.8165 18.016 57.6535 18.1755 57.4428 18.2883C57.2282 18.401 56.9698 18.4594 56.6637 18.4594ZM57.0294 17.5415C57.3355 17.5415 57.578 17.4403 57.7609 17.2303C57.9398 17.0125 58.0312 16.6819 58.0312 16.2346C58.0312 15.7989 57.9398 15.4722 57.7609 15.2544C57.578 15.0366 57.3355 14.9277 57.0294 14.9277C56.6995 14.9277 56.449 15.0327 56.282 15.2389C56.1111 15.4489 56.0276 15.7795 56.0276 16.2346C56.0276 16.6935 56.1111 17.0242 56.282 17.2303C56.449 17.4403 56.6995 17.5415 57.0294 17.5415Z" fill="white"/>
<path d="M61.5376 16.4992H60.5358L60.4563 12.6875H61.6171L61.5376 16.4992ZM61.0287 18.4285C60.8896 18.4285 60.7664 18.4012 60.663 18.3507C60.5676 18.2884 60.4881 18.2106 60.4245 18.1173C60.3688 18.0162 60.345 17.9073 60.345 17.7906C60.345 17.6661 60.3688 17.5572 60.4245 17.4639C60.4881 17.3627 60.5676 17.2849 60.663 17.2305C60.7664 17.1799 60.8896 17.1527 61.0287 17.1527C61.2394 17.1527 61.4104 17.2149 61.5376 17.3394C61.6648 17.4561 61.7284 17.6039 61.7284 17.7906C61.7284 17.9695 61.6648 18.1173 61.5376 18.2418C61.4104 18.3662 61.2394 18.4285 61.0287 18.4285Z" fill="white"/>
<path d="M81.8488 7.47949C77.631 7.47949 74.2122 10.8634 74.2122 15.0019C74.2122 19.1442 77.631 22.5281 81.8488 22.5281C86.0627 22.5281 89.4815 19.1442 89.4815 15.0019C89.4815 10.8634 86.0627 7.47949 81.8488 7.47949ZM81.8488 21.8358C78.0205 21.8358 74.9158 18.7669 74.9158 15.0019C74.9158 11.2407 78.0205 8.17183 81.8488 8.17183C85.6731 8.17183 88.7779 11.2407 88.7779 15.0019C88.7779 18.7669 85.6731 21.8358 81.8488 21.8358Z" fill="white"/>
<mask id="mask4_490_3755" style="mask-type:luminance" maskUnits="userSpaceOnUse" x="72" y="5" width="20" height="20">
<path d="M72.3517 5.68652H91.6878V24.3563H72.3517V5.68652Z" fill="white"/>
</mask>
<g mask="url(#mask4_490_3755)">
<path d="M81.8488 5.68652C76.6292 5.68652 72.3755 9.86389 72.3755 15.002C72.3755 20.1439 76.6292 24.3213 81.8488 24.3213C87.0685 24.3213 91.3181 20.1439 91.3181 15.002C91.3181 9.86389 87.0685 5.68652 81.8488 5.68652ZM81.8488 23.6328C77.0148 23.6328 73.0832 19.7667 73.0832 15.002C73.0832 10.2412 77.0148 6.37497 81.8488 6.37497C86.6789 6.37497 90.6105 10.2412 90.6105 15.002C90.6105 19.7667 86.6789 23.6328 81.8488 23.6328Z" fill="white"/>
</g>
<path d="M91.7752 9.70808C91.6878 9.53305 91.4771 9.48248 91.2982 9.56805C91.1233 9.65362 91.0716 9.86366 91.159 10.0348C91.1948 10.0854 91.2107 10.1398 91.2306 10.1709C91.2982 10.2915 91.4214 10.3615 91.5447 10.3615C91.6003 10.3615 91.652 10.346 91.7037 10.3265C91.8826 10.2409 91.9541 10.0348 91.8627 9.86366C91.8269 9.80921 91.7951 9.75864 91.7752 9.70808Z" fill="white"/>
<path d="M90.7695 21.2329C90.6105 21.1123 90.3998 21.1473 90.2765 21.3029C90.2408 21.3535 90.205 21.3885 90.1692 21.4391C90.046 21.5946 90.0817 21.8008 90.2249 21.9214C90.2964 21.9758 90.364 21.9914 90.4356 21.9914C90.5429 21.9914 90.6462 21.9408 90.7178 21.8552C90.7536 21.8008 90.7894 21.7658 90.8251 21.7152C90.9643 21.5596 90.9285 21.3379 90.7695 21.2329Z" fill="white"/>
<path d="M90.3996 8.29241C90.2406 8.41299 90.2048 8.61913 90.328 8.77471C90.3638 8.82528 90.3996 8.86028 90.4353 8.91474C90.5069 9.00031 90.6103 9.05087 90.7176 9.05087C90.7892 9.05087 90.8567 9.03531 90.9283 8.98086C91.0873 8.87973 91.1231 8.65414 91.0157 8.49856C90.9839 8.44799 90.9482 8.39354 90.9124 8.36242C90.7892 8.20684 90.5586 8.18739 90.3996 8.29241Z" fill="white"/>
<mask id="mask5_490_3755" style="mask-type:luminance" maskUnits="userSpaceOnUse" x="91" y="12" width="3" height="3">
<path d="M91.6875 12.1626H93.4565V14.154H91.6875V12.1626Z" fill="white"/>
</mask>
<g mask="url(#mask5_490_3755)">
<path d="M92.2004 12.8315C92.2163 12.8821 92.2163 12.9326 92.2322 12.9832C92.268 13.1582 92.4111 13.2593 92.5861 13.2593C92.6059 13.2593 92.6417 13.2593 92.6576 13.2593C92.8524 13.2282 92.9756 13.0376 92.9399 12.8626C92.924 12.812 92.924 12.742 92.9041 12.6915C92.8683 12.5009 92.6735 12.3803 92.4827 12.4348C92.268 12.4503 92.1647 12.6409 92.2004 12.8315Z" fill="white"/>
</g>
<path d="M92.4471 11.1551C92.3755 10.984 92.1807 10.879 91.986 10.949C91.811 11.019 91.7037 11.2096 91.7753 11.3963C91.7951 11.4507 91.811 11.5013 91.8269 11.5518C91.8826 11.6919 92.0217 11.7774 92.1648 11.7774C92.2006 11.7774 92.2324 11.7774 92.2881 11.7619C92.463 11.6919 92.5703 11.5013 92.4988 11.3301C92.4829 11.2601 92.463 11.2096 92.4471 11.1551Z" fill="white"/>
<mask id="mask6_490_3755" style="mask-type:luminance" maskUnits="userSpaceOnUse" x="91" y="15" width="3" height="3">
<path d="M91.6875 15.1497H93.4565V17.1411H91.6875V15.1497Z" fill="white"/>
</mask>
<g mask="url(#mask6_490_3755)">
<path d="M92.7808 15.4687C92.586 15.4532 92.4111 15.5893 92.4111 15.7799C92.4111 15.8305 92.3913 15.8849 92.3913 15.951C92.3754 16.1416 92.5145 16.3167 92.7093 16.3322C92.7292 16.3322 92.7292 16.3322 92.7451 16.3322C92.9239 16.3322 93.079 16.1961 93.0989 16.0211C93.0989 15.9705 93.1148 15.9005 93.1148 15.8499C93.1148 15.6593 92.9756 15.4882 92.7808 15.4687Z" fill="white"/>
</g>
<mask id="mask7_490_3755" style="mask-type:luminance" maskUnits="userSpaceOnUse" x="91" y="13" width="3" height="3">
<path d="M91.6875 13.1582H93.4565V15.1496H91.6875V13.1582Z" fill="white"/>
</mask>
<g mask="url(#mask7_490_3755)">
<path d="M92.7291 13.9322C92.5343 13.9517 92.3912 14.1073 92.3912 14.2978C92.3912 14.3484 92.3912 14.399 92.4111 14.469C92.427 14.6596 92.5701 14.7957 92.7649 14.7957H92.7808C92.9756 14.7801 93.1346 14.6246 93.1147 14.434C93.1147 14.3834 93.1147 14.3134 93.0988 14.2628C93.0988 14.0722 92.9239 13.9167 92.7291 13.9322Z" fill="white"/>
</g>
<mask id="mask8_490_3755" style="mask-type:luminance" maskUnits="userSpaceOnUse" x="91" y="16" width="3" height="3">
<path d="M91.6875 16.1453H93.4565V18.1367H91.6875V16.1453Z" fill="white"/>
</mask>
<g mask="url(#mask8_490_3755)">
<path d="M92.6059 17.005C92.4111 16.97 92.2322 17.075 92.1805 17.2656C92.1646 17.3161 92.1646 17.3667 92.1447 17.4211C92.0931 17.6078 92.2163 17.7984 92.4111 17.8334C92.4469 17.8334 92.4628 17.849 92.4985 17.849C92.6576 17.849 92.7967 17.7479 92.8325 17.5923C92.8524 17.5417 92.8683 17.4717 92.8683 17.4211C92.904 17.2306 92.7808 17.04 92.6059 17.005Z" fill="white"/>
</g>
<path d="M91.5805 19.9028C91.4056 19.8172 91.1949 19.8678 91.1075 20.0428C91.0717 20.0934 91.0518 20.1439 91.016 20.1789C90.9286 20.354 90.9842 20.5601 91.1393 20.6457C91.1949 20.6807 91.2665 20.6962 91.3182 20.6962C91.4414 20.6962 91.5646 20.6301 91.6163 20.5251C91.6521 20.4745 91.672 20.4201 91.7038 20.3695C91.827 20.2139 91.7594 20.0078 91.5805 19.9028Z" fill="white"/>
<path d="M92.2004 18.4908C92.0215 18.4208 91.8108 18.5064 91.7393 18.6969C91.7234 18.7475 91.7035 18.7981 91.6876 18.8525C91.616 19.0237 91.7035 19.2298 91.8824 19.2998C91.9181 19.3193 91.9698 19.3193 92.0056 19.3193C92.1447 19.3193 92.2879 19.2298 92.3395 19.0937C92.3594 19.0431 92.3753 18.9887 92.4111 18.9186C92.4826 18.7475 92.3753 18.5569 92.2004 18.4908Z" fill="white"/>
<mask id="mask9_490_3755" style="mask-type:luminance" maskUnits="userSpaceOnUse" x="70" y="13" width="2" height="3">
<path d="M70.5587 13.1582H71.3339V15.1496H70.5587V13.1582Z" fill="white"/>
</mask>
<g mask="url(#mask9_490_3755)">
<path d="M70.6144 13.9865C70.6144 14.0371 70.5945 14.1071 70.5945 14.1577C70.5786 14.3483 70.7177 14.5194 70.9125 14.5194C70.9324 14.5194 70.9324 14.5194 70.9483 14.5194C71.1232 14.5194 71.2822 14.3833 71.3021 14.1927C71.3021 14.1421 71.318 14.0877 71.318 14.0216C71.3379 13.831 71.1948 13.6559 71 13.6404C70.7893 13.6559 70.6303 13.796 70.6144 13.9865Z" fill="white"/>
</g>
<mask id="mask10_490_3755" style="mask-type:luminance" maskUnits="userSpaceOnUse" x="70" y="11" width="3" height="3">
<path d="M70.5587 11.1667H72.3516V13.1582H70.5587V11.1667Z" fill="white"/>
</mask>
<g mask="url(#mask10_490_3755)">
<path d="M70.8608 12.4154C70.8409 12.4659 70.825 12.5359 70.825 12.5865C70.7893 12.7771 70.9125 12.9677 71.0914 13.0027C71.1073 13.0027 71.1431 13.0027 71.159 13.0027C71.318 13.0027 71.4611 12.8977 71.5128 12.7265C71.5287 12.676 71.5287 12.6215 71.5486 12.5709C71.6002 12.3804 71.477 12.1898 71.2822 12.1587C71.1073 12.1236 70.9125 12.2442 70.8608 12.4154Z" fill="white"/>
</g>
<mask id="mask11_490_3755" style="mask-type:luminance" maskUnits="userSpaceOnUse" x="70" y="16" width="3" height="3">
<path d="M70.5587 16.1453H72.3516V18.1367H70.5587V16.1453Z" fill="white"/>
</mask>
<g mask="url(#mask11_490_3755)">
<path d="M71.4969 17.1761C71.477 17.1255 71.477 17.0749 71.4611 17.0244C71.4253 16.8338 71.2305 16.7132 71.0556 16.7482C70.8608 16.7793 70.7376 16.9699 70.7734 17.145C70.7893 17.1955 70.7893 17.2655 70.8092 17.3161C70.841 17.4717 70.9841 17.5923 71.159 17.5923C71.1789 17.5923 71.2146 17.5923 71.2305 17.5923C71.4253 17.5572 71.5287 17.3667 71.4969 17.1761Z" fill="white"/>
</g>
<mask id="mask12_490_3755" style="mask-type:luminance" maskUnits="userSpaceOnUse" x="70" y="18" width="3" height="2">
<path d="M70.5587 18.137H72.3516V19.1327H70.5587V18.137Z" fill="white"/>
</mask>
<g mask="url(#mask12_490_3755)">
<path d="M71.9182 18.6114C71.9023 18.5569 71.8824 18.5063 71.8665 18.4558C71.795 18.2807 71.6002 18.1796 71.4253 18.2457C71.2504 18.3157 71.143 18.5063 71.2146 18.6775C71.2305 18.7319 71.2504 18.7825 71.2663 18.8525C71.318 18.9886 71.4611 19.0742 71.6002 19.0742C71.636 19.0742 71.6877 19.0742 71.7234 19.0586C71.8825 18.9886 71.9898 18.7981 71.9182 18.6114Z" fill="white"/>
</g>
<mask id="mask13_490_3755" style="mask-type:luminance" maskUnits="userSpaceOnUse" x="70" y="10" width="3" height="3">
<path d="M70.5587 10.1709H72.3516V12.1623H70.5587V10.1709Z" fill="white"/>
</mask>
<g mask="url(#mask13_490_3755)">
<path d="M71.3538 10.914C71.3379 10.9645 71.318 11.019 71.2823 11.0851C71.2147 11.2601 71.3021 11.4663 71.4969 11.5363C71.5287 11.5519 71.5844 11.5519 71.6202 11.5519C71.7593 11.5519 71.9024 11.4663 71.9541 11.3302C71.97 11.2601 71.9899 11.2096 72.0058 11.1551C72.0773 10.984 71.9899 10.7778 71.811 10.7078C71.6361 10.6378 71.4254 10.7234 71.3538 10.914Z" fill="white"/>
</g>
<path d="M72.4667 19.8366C72.3753 19.6616 72.1646 19.5916 71.9897 19.681C71.8108 19.7666 71.7432 19.9727 71.8306 20.1439C71.8664 20.1983 71.8823 20.2489 71.9181 20.2995C71.9897 20.42 72.1129 20.4745 72.2361 20.4745C72.2878 20.4745 72.3435 20.455 72.3951 20.4395C72.5701 20.3539 72.6257 20.1439 72.5343 19.9727C72.5184 19.9222 72.4826 19.8677 72.4667 19.8366Z" fill="white"/>
<path d="M72.0613 9.48268C72.0255 9.53324 72.0056 9.58769 71.9699 9.63826C71.8824 9.8094 71.9381 10.0155 72.113 10.105C72.1647 10.14 72.2203 10.14 72.2879 10.14C72.4111 10.14 72.5344 10.07 72.6059 9.96498C72.6417 9.91442 72.6576 9.86385 72.6934 9.82885C72.7808 9.65382 72.7292 9.44767 72.5701 9.3621C72.3595 9.25708 72.1488 9.31154 72.0613 9.48268Z" fill="white"/>
<mask id="mask14_490_3755" style="mask-type:luminance" maskUnits="userSpaceOnUse" x="70" y="15" width="2" height="2">
<path d="M70.5587 15.1497H71.3339V16.1454H70.5587V15.1497Z" fill="white"/>
</mask>
<g mask="url(#mask14_490_3755)">
<path d="M70.9681 16.0753C71.1589 16.0559 71.302 15.9003 71.302 15.7097C71.302 15.6591 71.302 15.6086 71.2822 15.5386C71.2663 15.348 71.1072 15.1924 70.9124 15.2119C70.7177 15.2274 70.5626 15.383 70.5785 15.5736C70.5785 15.6241 70.5785 15.6942 70.5944 15.7447C70.6143 15.9353 70.7534 16.0753 70.9482 16.0753C70.9482 16.0753 70.9482 16.0753 70.9681 16.0753Z" fill="white"/>
</g>
<path d="M73.2578 21.0929C73.1545 20.9412 72.9239 20.9062 72.7649 21.0073C72.6059 21.1123 72.5701 21.3379 72.6774 21.4896C72.7132 21.5441 72.749 21.5947 72.7808 21.6297C72.8523 21.7152 72.9597 21.7658 73.063 21.7658C73.1346 21.7658 73.2062 21.7502 73.2777 21.6997C73.4367 21.5791 73.4685 21.3691 73.3453 21.2135C73.3294 21.1824 73.2936 21.1474 73.2578 21.0929Z" fill="white"/>
<path d="M72.924 8.77475C72.9955 8.82531 73.0631 8.84476 73.1347 8.84476C73.242 8.84476 73.3453 8.7903 73.4169 8.70473C73.4527 8.65417 73.4885 8.61916 73.5242 8.5686C73.6475 8.41302 73.6117 8.20687 73.4686 8.0863C73.3135 7.96572 73.0989 7.99684 72.9756 8.13686C72.9399 8.18742 72.9081 8.22243 72.8723 8.273C72.7292 8.44802 72.7649 8.66973 72.924 8.77475Z" fill="white"/>
<path d="M77.9489 14.7802C77.8773 14.7102 77.8097 14.6596 77.7024 14.6051C77.6149 14.5546 77.5076 14.504 77.3844 14.469L77.1896 14.3834C77.122 14.3484 77.0504 14.329 76.9988 14.2784C76.9431 14.2434 76.9113 14.1773 76.9113 14.1073C76.9113 14.0567 76.9272 14.0217 76.9431 13.9867C76.963 13.9517 76.9988 13.9323 77.0147 13.9167C77.0504 13.9011 77.0862 13.8817 77.122 13.8817C77.1578 13.8817 77.2095 13.8661 77.2452 13.8661C77.3844 13.8661 77.5076 13.8817 77.6149 13.9167C77.7223 13.9517 77.7899 13.9867 77.8773 14.0217C77.933 13.9323 77.9687 13.8311 77.9847 13.7261C78.0204 13.625 78.0363 13.52 78.0363 13.4344C77.8773 13.3799 77.7382 13.3488 77.6149 13.3138C77.4718 13.2788 77.3486 13.2788 77.1896 13.2788C77.0345 13.2788 76.8914 13.2944 76.7523 13.3294C76.6291 13.3644 76.5018 13.4344 76.4144 13.5044C76.3269 13.59 76.2554 13.6755 76.2037 13.7961C76.152 13.9167 76.1321 14.0373 76.1321 14.1773C76.1321 14.2979 76.152 14.399 76.1878 14.4846C76.2236 14.574 76.2554 14.6596 76.3269 14.7296C76.3985 14.7957 76.4502 14.8502 76.5376 14.9007C76.6291 14.9513 76.7165 14.9863 76.8199 15.0213L77.0504 15.1069C77.0862 15.1263 77.122 15.1419 77.1578 15.1575C77.1896 15.1769 77.2254 15.1925 77.2452 15.2119C77.2611 15.2275 77.2969 15.2625 77.3168 15.2975C77.3327 15.3325 77.3327 15.3675 77.3327 15.4181C77.3327 15.5231 77.2969 15.5892 77.2095 15.6436C77.122 15.6748 77.0147 15.7098 76.8755 15.7098C76.6807 15.7098 76.4502 15.6592 76.2037 15.5386C76.1679 15.6592 76.1321 15.7642 76.0964 15.8654C76.0646 15.9704 76.0447 16.0754 76.0447 16.1765C76.2037 16.2271 76.3468 16.2815 76.4859 16.2971C76.6291 16.3321 76.7682 16.3321 76.9431 16.3321C77.1379 16.3321 77.2969 16.3165 77.4559 16.2621C77.599 16.2115 77.7223 16.161 77.8256 16.0754C77.933 15.9859 78.0045 15.8848 78.0562 15.7798C78.1079 15.6748 78.1437 15.5231 78.1437 15.3675C78.1437 15.2275 78.1278 15.1263 78.092 15.0213C78.0562 14.9358 78.0045 14.8502 77.9489 14.7802Z" fill="white"/>
<path d="M80.505 13.625C80.505 13.5706 80.505 13.52 80.505 13.4695C80.505 13.415 80.4891 13.3644 80.4891 13.2944H78.3185C78.3026 13.415 78.2867 13.52 78.2867 13.6056C78.2867 13.7106 78.3026 13.8117 78.3185 13.9323H79.0262V16.2466C79.1653 16.2622 79.2885 16.2816 79.3959 16.2816C79.5032 16.2816 79.6264 16.2622 79.7656 16.2466V13.9518H80.4732C80.505 13.8312 80.505 13.7106 80.505 13.625Z" fill="white"/>
<path d="M81.7253 13.2944C81.6537 13.2944 81.602 13.2944 81.5464 13.2944C81.4748 13.2944 81.4232 13.2944 81.3516 13.2944C81.284 13.2944 81.2284 13.3139 81.1409 13.3139L80.1908 16.2622C80.2783 16.2816 80.3498 16.2816 80.4174 16.2972C80.4889 16.2972 80.5406 16.3166 80.5963 16.3166C80.648 16.3166 80.6996 16.3166 80.7553 16.3166C80.807 16.3166 80.8587 16.2972 80.9302 16.2972L81.0892 15.7293C81.1608 15.7448 81.2284 15.7643 81.2999 15.7798C81.3715 15.7993 81.443 15.7993 81.4947 15.7993C81.5663 15.7993 81.6338 15.7993 81.7054 15.7798C81.777 15.7643 81.8485 15.7448 81.936 15.7293L82.095 16.2972C82.1626 16.3166 82.2182 16.3166 82.2699 16.3166C82.3216 16.3166 82.3772 16.3166 82.4448 16.3166C82.572 16.3166 82.7112 16.2972 82.8702 16.2816L81.936 13.3294C81.8644 13.3139 81.7929 13.2944 81.7253 13.2944ZM81.6537 15.177C81.602 15.177 81.5663 15.1925 81.5106 15.1925C81.4589 15.1925 81.4232 15.1925 81.3874 15.177C81.3516 15.1575 81.2999 15.1575 81.2482 15.142L81.5305 14.0879L81.7929 15.1575C81.7571 15.1575 81.7054 15.177 81.6537 15.177Z" fill="white"/>
<path d="M84.9335 14.8658C84.9852 14.8152 85.021 14.7607 85.0568 14.6946C85.0926 14.6246 85.1283 14.5546 85.1442 14.469C85.1641 14.3835 85.18 14.2979 85.18 14.1929C85.18 14.0023 85.1442 13.8467 85.0727 13.7261C85.0051 13.6056 84.8978 13.5044 84.7745 13.4344C84.6513 13.3644 84.5082 13.3138 84.369 13.2788C84.21 13.2438 84.051 13.2283 83.9119 13.2283C83.7886 13.2283 83.6654 13.2283 83.5382 13.2438C83.415 13.2594 83.2917 13.2594 83.1526 13.2788V16.2271C83.2917 16.2466 83.415 16.2621 83.5223 16.2621C83.6098 16.2621 83.733 16.2466 83.892 16.2271V13.9012C83.892 13.9012 83.9119 13.9012 83.9278 13.9012C83.9477 13.9012 83.9636 13.9012 83.9993 13.9012C84.1226 13.9012 84.21 13.9323 84.2975 14.0023C84.3849 14.0723 84.4207 14.1579 84.4207 14.2979C84.4207 14.364 84.4048 14.434 84.3849 14.504C84.369 14.5741 84.3333 14.6246 84.2975 14.6752C84.2617 14.7296 84.2259 14.7802 84.1941 14.8152C84.1584 14.8502 84.1226 14.8813 84.0868 14.9008L84.051 14.9163L84.6513 16.2621C84.703 16.2816 84.7745 16.2816 84.8461 16.2816C84.9176 16.2816 84.9852 16.2816 85.0409 16.2816C85.1085 16.2816 85.18 16.2816 85.2516 16.2816C85.339 16.2816 85.4106 16.2621 85.4782 16.2621L84.8262 14.9863C84.8461 14.9513 84.8978 14.9163 84.9335 14.8658Z" fill="white"/>
<path d="M87.6844 13.4851C87.6844 13.4345 87.6685 13.3801 87.6685 13.314H85.4979C85.4781 13.4345 85.4622 13.5357 85.4622 13.6251C85.4622 13.7263 85.4781 13.8313 85.4979 13.9518H86.2016V16.2622C86.3447 16.2817 86.4679 16.2972 86.5753 16.2972C86.6786 16.2972 86.8019 16.2817 86.945 16.2622V13.9518H87.6486C87.6685 13.8313 87.6844 13.7107 87.6844 13.6251C87.6844 13.5707 87.6844 13.5357 87.6844 13.4851Z" fill="white"/>
</svg>
