<svg width="373" height="373" viewBox="0 0 373 373" fill="none" xmlns="http://www.w3.org/2000/svg">
<mask id="mask0_484_2430" style="mask-type:luminance" maskUnits="userSpaceOnUse" x="0" y="0" width="373" height="373">
<path d="M0.244873 0.0991211H372.677V372.531H0.244873V0.0991211Z" fill="white"/>
</mask>
<g mask="url(#mask0_484_2430)">
<mask id="mask1_484_2430" style="mask-type:luminance" maskUnits="userSpaceOnUse" x="0" y="0" width="373" height="373">
<path d="M186.464 0.0991211C83.6147 0.0991211 0.244873 83.4689 0.244873 186.313C0.244873 289.162 83.6147 372.531 186.464 372.531C289.307 372.531 372.677 289.162 372.677 186.313C372.677 83.4689 289.307 0.0991211 186.464 0.0991211Z" fill="white"/>
</mask>
<g mask="url(#mask1_484_2430)">
<path d="M0.244873 0.0991211H372.677V372.531H0.244873V0.0991211Z" fill="#8C52FF"/>
</g>
</g>
<mask id="mask2_484_2430" style="mask-type:luminance" maskUnits="userSpaceOnUse" x="150" y="134" width="90" height="104">
<path d="M150.958 134.656H239.536V238H150.958V134.656Z" fill="white"/>
</mask>
<g mask="url(#mask2_484_2430)">
<path d="M238.203 180.896L160.557 136.068C158.583 134.932 156.161 134.932 154.193 136.068C152.219 137.203 151.005 139.307 151.005 141.578V231.245C151.005 233.521 152.219 235.62 154.193 236.755C155.177 237.333 156.276 237.61 157.375 237.61C158.474 237.61 159.573 237.323 160.557 236.755L238.203 191.927C240.182 190.792 241.385 188.688 241.385 186.417C241.385 184.141 240.177 182.037 238.203 180.896Z" fill="white"/>
</g>
</svg>
