<svg width="507" height="507" viewBox="0 0 507 507" fill="none" xmlns="http://www.w3.org/2000/svg">
<mask id="mask0_65_165" style="mask-type:luminance" maskUnits="userSpaceOnUse" x="0" y="0" width="507" height="507">
<path d="M0 0H506.76V506.762H0V0Z" fill="white"/>
</mask>
<g mask="url(#mask0_65_165)">
<mask id="mask1_65_165" style="mask-type:luminance" maskUnits="userSpaceOnUse" x="-53" y="-56" width="615" height="615">
<path d="M65.6478 558.632L-52.5273 63.1164L442.982 -55.059L561.157 440.457L65.6478 558.632Z" fill="white"/>
</mask>
<g mask="url(#mask1_65_165)">
<mask id="mask2_65_165" style="mask-type:luminance" maskUnits="userSpaceOnUse" x="-53" y="-56" width="615" height="615">
<path d="M65.6478 558.632L-52.5273 63.1164L442.982 -55.059L561.157 440.457L65.6478 558.632Z" fill="white"/>
</mask>
<g mask="url(#mask2_65_165)">
<path d="M194.76 7.67445C198.789 6.71453 202.837 5.85407 206.906 5.0931C210.974 4.33212 215.063 3.67061 219.166 3.10858C223.264 2.54656 227.377 2.084 231.506 1.72589C235.629 1.36779 239.762 1.10915 243.895 0.954967C248.033 0.795809 252.171 0.741097 256.314 0.790835C260.453 0.835598 264.591 0.98481 268.724 1.2335C272.857 1.48715 276.98 1.83531 281.093 2.28792C285.212 2.74053 289.315 3.29261 293.403 3.94914C297.492 4.6007 301.56 5.3567 305.609 6.20721C309.662 7.06269 313.691 8.01764 317.695 9.06709C321.699 10.1165 325.678 11.2655 329.622 12.5139C333.571 13.7623 337.485 15.1052 341.37 16.5426C345.249 17.98 349.094 19.5119 352.904 21.1433C356.708 22.7697 360.474 24.4906 364.199 26.301C367.919 28.1164 371.595 30.0164 375.226 32.0108C378.851 34.0053 382.432 36.0843 385.959 38.2528C389.485 40.4214 392.957 42.6745 396.374 45.0121C399.791 47.3547 403.148 49.7769 406.445 52.2787C409.743 54.7805 412.976 57.3668 416.144 60.0278C419.317 62.6887 422.421 65.4292 425.455 68.2443C428.494 71.0594 431.458 73.9492 434.353 76.9085C437.248 79.8679 440.068 82.8969 442.813 85.9955C445.559 89.0991 448.224 92.2624 450.816 95.4903C453.407 98.7232 455.914 102.011 458.341 105.368C460.773 108.72 463.116 112.132 465.379 115.599C467.637 119.066 469.815 122.587 471.904 126.163C473.988 129.739 475.988 133.365 477.898 137.036C479.807 140.711 481.628 144.427 483.359 148.192C485.085 151.952 486.721 155.757 488.258 159.597C489.8 163.441 491.247 167.321 492.595 171.235C493.948 175.149 495.201 179.093 496.36 183.067C497.514 187.041 498.573 191.045 499.533 195.074C500.493 199.098 501.358 203.146 502.119 207.215C502.88 211.288 503.542 215.372 504.104 219.475C504.661 223.578 505.124 227.692 505.482 231.815C505.84 235.938 506.098 240.071 506.258 244.209C506.412 248.347 506.466 252.486 506.422 256.624C506.372 260.767 506.223 264.9 505.974 269.033C505.725 273.166 505.372 277.289 504.92 281.408C504.467 285.521 503.915 289.624 503.263 293.713C502.607 297.801 501.856 301.87 501 305.923C500.145 309.972 499.195 314 498.145 318.004C497.091 322.008 495.942 325.987 494.694 329.936C493.45 333.885 492.107 337.8 490.67 341.679C489.228 345.564 487.696 349.408 486.069 353.213C484.443 357.023 482.722 360.788 480.907 364.509C479.096 368.229 477.191 371.909 475.202 375.535C473.207 379.166 471.128 382.742 468.96 386.268C466.791 389.795 464.533 393.267 462.196 396.683C459.858 400.1 457.436 403.458 454.934 406.755C452.427 410.053 449.846 413.286 447.18 416.459C444.519 419.627 441.779 422.731 438.963 425.77C436.148 428.804 433.264 431.768 430.304 434.663C427.34 437.557 424.311 440.378 421.212 443.123C418.114 445.868 414.95 448.534 411.718 451.126C408.49 453.717 405.197 456.229 401.845 458.656C398.492 461.083 395.081 463.431 391.614 465.689C388.142 467.952 384.621 470.125 381.045 472.214C377.474 474.303 373.848 476.303 370.172 478.213C366.502 480.122 362.781 481.943 359.021 483.669C355.256 485.395 351.456 487.031 347.612 488.573C343.767 490.115 339.892 491.557 335.978 492.91C332.064 494.258 328.12 495.511 324.141 496.67C320.167 497.829 316.168 498.888 312.139 499.848C308.11 500.808 304.062 501.669 299.993 502.43C295.925 503.191 291.837 503.852 287.738 504.414C283.635 504.976 279.522 505.434 275.393 505.797C271.27 506.155 267.142 506.414 263.004 506.568C258.866 506.722 254.728 506.777 250.585 506.732C246.447 506.687 242.308 506.538 238.175 506.289C234.042 506.036 229.919 505.687 225.806 505.235C221.688 504.782 217.589 504.23 213.501 503.574C209.412 502.922 205.339 502.166 201.29 501.31C197.237 500.46 193.208 499.505 189.204 498.456C185.2 497.406 181.227 496.252 177.277 495.009C173.328 493.76 169.414 492.417 165.53 490.98C161.65 489.543 157.805 488.006 153.996 486.379C150.191 484.753 146.426 483.032 142.7 481.222C138.98 479.406 135.304 477.506 131.674 475.512C128.048 473.517 124.467 471.438 120.94 469.27C117.414 467.101 113.942 464.848 110.525 462.506C107.108 460.168 103.751 457.746 100.454 455.244C97.1561 452.737 93.9232 450.156 90.755 447.495C87.5817 444.829 84.4781 442.093 81.4442 439.278C78.4053 436.463 75.4409 433.573 72.5462 430.614C69.6516 427.655 66.8315 424.626 64.086 421.522C61.3405 418.424 58.6746 415.26 56.0833 412.032C53.492 408.799 50.9853 405.507 48.5581 402.155C46.126 398.802 43.7834 395.39 41.5203 391.924C39.2623 388.457 37.0838 384.936 34.9998 381.359C32.9109 377.783 30.9114 374.158 29.0015 370.487C27.0916 366.811 25.2713 363.096 23.5454 359.331C21.8145 355.571 20.1832 351.766 18.6413 347.921C17.0995 344.081 15.6521 340.202 14.3043 336.288C12.9514 332.373 11.698 328.429 10.5392 324.455C9.38528 320.481 8.32588 316.477 7.36596 312.449C6.40603 308.425 5.54559 304.376 4.77964 300.303C4.01866 296.234 3.35716 292.151 2.79513 288.048C2.23808 283.944 1.77552 279.831 1.41742 275.708C1.05931 271.58 0.800678 267.451 0.64152 263.313C0.487335 259.175 0.432625 255.037 0.477388 250.899C0.527124 246.756 0.676336 242.623 0.92502 238.49C1.17371 234.356 1.52684 230.233 1.97944 226.115C2.43205 222.002 2.98413 217.898 3.63569 213.81C4.29221 209.722 5.04324 205.653 5.89872 201.6C6.75419 197.551 7.70417 193.522 8.75859 189.518C9.80804 185.51 10.957 181.536 12.2054 177.586C13.4488 173.637 14.7917 169.723 16.2341 165.843C17.6715 161.959 19.2034 158.114 20.8298 154.309C22.4611 150.5 24.1771 146.734 25.9925 143.014C27.8029 139.289 29.7078 135.613 31.7023 131.987C33.6917 128.357 35.7757 124.781 37.9442 121.254C40.1128 117.723 42.3659 114.251 44.7035 110.839C47.0411 107.422 49.4633 104.065 51.9701 100.767C54.4718 97.4699 57.0532 94.237 59.7191 91.0637C62.38 87.8955 65.1205 84.7919 67.9356 81.7529C70.7507 78.719 73.6355 75.7546 76.5998 72.8599C79.5592 69.9652 82.5881 67.1451 85.6868 64.3996C88.7854 61.6542 91.9486 58.9833 95.1815 56.3969C98.4095 53.8056 101.702 51.2939 105.054 48.8667C108.407 46.4396 111.819 44.092 115.29 41.8339C118.757 39.5709 122.278 37.3974 125.854 35.3084C129.43 33.2194 133.051 31.22 136.727 29.3101C140.397 27.4002 144.118 25.5798 147.878 23.8539C151.643 22.1281 155.443 20.4917 159.288 18.9499C163.132 17.408 167.007 15.9656 170.921 14.6128C174.835 13.2599 178.779 12.0066 182.758 10.8527C186.732 9.69378 190.731 8.63438 194.76 7.67445Z" fill="#F1EAFF"/>
</g>
</g>
</g>
<mask id="mask3_65_165" style="mask-type:luminance" maskUnits="userSpaceOnUse" x="263" y="195" width="34" height="115">
<path d="M263.566 195.338H296.91V309.698H263.566V195.338Z" fill="white"/>
</mask>
<g mask="url(#mask3_65_165)">
<path d="M273.126 195.338H288.4C289.002 195.338 289.593 195.397 290.185 195.517C290.777 195.631 291.349 195.805 291.906 196.034C292.458 196.268 292.99 196.546 293.488 196.884C293.99 197.218 294.453 197.596 294.875 198.023C295.303 198.446 295.681 198.909 296.014 199.411C296.353 199.908 296.631 200.441 296.865 200.993C297.094 201.55 297.268 202.122 297.382 202.714C297.502 203.305 297.561 203.897 297.561 204.499V302.238C297.561 302.839 297.502 303.436 297.382 304.028C297.268 304.615 297.094 305.187 296.865 305.744C296.631 306.301 296.353 306.828 296.014 307.331C295.681 307.828 295.303 308.291 294.875 308.718C294.453 309.141 293.99 309.524 293.488 309.857C292.99 310.19 292.458 310.474 291.906 310.703C291.349 310.932 290.777 311.106 290.185 311.225C289.593 311.344 289.002 311.399 288.4 311.399H273.126C272.524 311.399 271.927 311.344 271.34 311.225C270.748 311.106 270.176 310.932 269.619 310.703C269.062 310.474 268.535 310.19 268.037 309.857C267.535 309.524 267.073 309.141 266.65 308.718C266.222 308.291 265.844 307.828 265.506 307.331C265.173 306.828 264.889 306.301 264.66 305.744C264.431 305.187 264.257 304.615 264.138 304.028C264.024 303.436 263.964 302.839 263.964 302.238V204.499C263.964 203.897 264.024 203.305 264.138 202.714C264.257 202.122 264.431 201.55 264.66 200.993C264.889 200.441 265.173 199.908 265.506 199.411C265.844 198.909 266.222 198.446 266.65 198.023C267.073 197.596 267.535 197.218 268.037 196.884C268.535 196.546 269.062 196.268 269.619 196.034C270.176 195.805 270.748 195.631 271.34 195.517C271.927 195.397 272.524 195.338 273.126 195.338Z" fill="white"/>
</g>
<mask id="mask4_65_165" style="mask-type:luminance" maskUnits="userSpaceOnUse" x="208" y="195" width="36" height="115">
<path d="M208.816 195.338H243.194V309.698H208.816V195.338Z" fill="white"/>
</mask>
<g mask="url(#mask4_65_165)">
<path d="M218.151 195.338H233.42C234.022 195.338 234.619 195.397 235.206 195.517C235.798 195.631 236.37 195.805 236.927 196.034C237.484 196.268 238.011 196.546 238.514 196.884C239.011 197.218 239.473 197.596 239.901 198.023C240.324 198.446 240.707 198.909 241.04 199.411C241.373 199.908 241.657 200.441 241.886 200.993C242.115 201.55 242.289 202.122 242.408 202.714C242.527 203.305 242.582 203.897 242.582 204.499V302.238C242.582 302.839 242.527 303.436 242.408 304.028C242.289 304.615 242.115 305.187 241.886 305.744C241.657 306.301 241.373 306.828 241.04 307.331C240.707 307.828 240.324 308.291 239.901 308.718C239.473 309.141 239.011 309.524 238.514 309.857C238.011 310.19 237.484 310.474 236.927 310.703C236.37 310.932 235.798 311.106 235.206 311.225C234.619 311.344 234.022 311.399 233.42 311.399H218.151C217.549 311.399 216.953 311.344 216.361 311.225C215.774 311.106 215.197 310.932 214.645 310.703C214.088 310.474 213.561 310.19 213.058 309.857C212.561 309.524 212.093 309.141 211.671 308.718C211.243 308.291 210.865 307.828 210.532 307.331C210.198 306.828 209.915 306.301 209.686 305.744C209.452 305.187 209.278 304.615 209.164 304.028C209.044 303.436 208.985 302.839 208.985 302.238V204.499C208.985 203.897 209.044 203.305 209.164 202.714C209.278 202.122 209.452 201.55 209.686 200.993C209.915 200.441 210.198 199.908 210.532 199.411C210.865 198.909 211.243 198.446 211.671 198.023C212.093 197.596 212.561 197.218 213.058 196.884C213.561 196.546 214.088 196.268 214.645 196.034C215.197 195.805 215.774 195.631 216.361 195.517C216.953 195.397 217.549 195.338 218.151 195.338Z" fill="white"/>
</g>
</svg>
