<svg width="101" height="101" viewBox="0 0 101 101" fill="none" xmlns="http://www.w3.org/2000/svg">
<mask id="mask0_2482_15798" style="mask-type:luminance" maskUnits="userSpaceOnUse" x="51" y="42" width="50" height="35">
<path d="M51.3333 42H100.786V76.6667H51.3333V42Z" fill="white"/>
</mask>
<g mask="url(#mask0_2482_15798)">
<path d="M89.7187 43.2396L100.771 59.7708L89.6666 64.4948L62.4739 76.0677L51.6198 59.7864L89.7187 43.2396Z" fill="#E48E66"/>
</g>
<path d="M99.927 41.4632L89.3333 42.9632L63.1093 29.7132L63.0833 29.6924C63.1093 29.6663 63.1353 29.6455 63.1562 29.6195C64.7187 27.9684 65.9322 26.0205 66.7291 23.8955L66.8333 23.932L99.927 41.4632Z" fill="#E48E66"/>
<path d="M89.7188 43.2393L51.6198 59.7861L51.3958 59.8799L51.1771 59.7861L13.0781 43.2393L13.1042 43.1976L13.0156 43.1872L38.9271 30.0986C39 30.1768 39.0729 30.2445 39.1458 30.3122C41.75 32.8278 42.9896 36.432 42.4844 40.0153L42.2969 41.4684C42.2552 41.6663 42.4115 41.8486 42.6094 41.8434H43.2344V49.7288C43.2344 50.6455 43.599 51.5257 44.25 52.1716C44.8958 52.8226 45.776 53.1872 46.6927 53.1872H54.8958C55.8177 53.1872 56.6927 52.8226 57.3438 52.1716C57.9896 51.5257 58.3542 50.6455 58.3542 49.7288V41.8434H58.8229C59.0625 41.8382 59.25 41.6403 59.2448 41.4059L59.1198 39.0101C58.9323 35.734 60.125 32.5205 62.4583 30.3122C62.6719 30.109 62.8802 29.9007 63.0833 29.6924L63.1094 29.7132L89.3333 42.9632L89.8125 43.1976L89.7188 43.2393Z" fill="#F8EC7D"/>
<mask id="mask1_2482_15798" style="mask-type:luminance" maskUnits="userSpaceOnUse" x="51" y="59" width="39" height="42">
<path d="M51.3333 59.333H89.9999V100.505H51.3333V59.333Z" fill="white"/>
</mask>
<g mask="url(#mask1_2482_15798)">
<path d="M89.6926 64.5622V78.7809L51.3958 100.505V59.8799L51.6197 59.7861L62.4739 76.0674L89.6666 64.4945L89.6926 64.5622Z" fill="#E48E66"/>
</g>
<path d="M50.7968 29.9791C51.9895 29.9791 53.0676 29.2604 53.5208 28.1562C53.9791 27.0521 53.7291 25.7812 52.8853 24.9375C52.0364 24.0937 50.7708 23.8385 49.6614 24.2969C48.5624 24.7552 47.8385 25.8281 47.8385 27.026C47.8385 28.6562 49.1614 29.9791 50.7968 29.9791ZM34.7239 23.5052C34.0208 21.4844 33.7031 19.3489 33.7916 17.2083C34.1041 8.5781 41.0989 1.45831 49.7291 0.8906C55.4895 0.541641 61.0364 3.13539 64.4687 7.77602C67.901 12.4166 68.7551 18.4791 66.7343 23.8854C66.7343 23.8854 66.7343 23.8906 66.7291 23.8958C65.9322 26.0208 64.7187 27.9687 63.1562 29.6198C63.1353 29.6458 63.1093 29.6666 63.0833 29.6927C62.8801 29.901 62.6718 30.1094 62.4583 30.3125C60.1249 32.5208 58.9322 35.7344 59.1197 39.0104L59.2447 41.4062C59.2499 41.6406 59.0624 41.8385 58.8229 41.8437H42.6093C42.4114 41.8489 42.2551 41.6666 42.2968 41.4687L42.4843 40.0156C42.9895 36.4323 41.7499 32.8281 39.1458 30.3125C39.0729 30.2448 38.9999 30.1771 38.927 30.0989C37.0312 28.2552 35.5937 26 34.7239 23.5052Z" fill="#6FE3FF"/>
<path d="M58.3542 41.8438V49.7292C58.3542 50.6458 57.9896 51.526 57.3438 52.1719C56.6927 52.8229 55.8177 53.1875 54.8958 53.1875H46.6927C45.776 53.1875 44.8958 52.8229 44.25 52.1719C43.599 51.526 43.2344 50.6458 43.2344 49.7292V41.8438H58.3542Z" fill="#2561A1"/>
<path d="M53.7501 27.0264C53.7501 28.6566 52.4272 29.9795 50.797 29.9795C49.1615 29.9795 47.8386 28.6566 47.8386 27.0264C47.8386 25.3962 49.1615 24.0732 50.797 24.0732C52.4272 24.0732 53.7501 25.3962 53.7501 27.0264Z" fill="#6FE3FF"/>
<mask id="mask2_2482_15798" style="mask-type:luminance" maskUnits="userSpaceOnUse" x="12" y="59" width="41" height="42">
<path d="M12.6667 59.333H52.6667V100.505H12.6667V59.333Z" fill="white"/>
</mask>
<g mask="url(#mask2_2482_15798)">
<path d="M51.3959 59.8799V100.505L13.1042 78.7809V64.4788L40.323 76.0674L51.1772 59.7861L51.3959 59.8799Z" fill="#AF593C"/>
</g>
<path d="M51.1772 59.7861L40.323 76.0674L13.1042 64.4788L2.02612 59.7705L13.0782 43.2393L51.1772 59.7861Z" fill="#AF593C"/>
<mask id="mask3_2482_15798" style="mask-type:luminance" maskUnits="userSpaceOnUse" x="0" y="23" width="40" height="21">
<path d="M0.833252 23.333H39.3333V43.333H0.833252V23.333Z" fill="white"/>
</mask>
<g mask="url(#mask3_2482_15798)">
<path d="M38.927 30.0986L13.0156 43.1872L0.822876 41.4632L34.7239 23.5049C35.5937 25.9997 37.0312 28.2549 38.927 30.0986Z" fill="#E48E66"/>
</g>
<path d="M50.797 31.2447C49.0886 31.2447 47.5522 30.2187 46.8959 28.6405C46.2449 27.0624 46.6042 25.2499 47.8126 24.0416C49.0157 22.8333 50.8334 22.4739 52.4115 23.1249C53.9845 23.7812 55.0157 25.3176 55.0157 27.026C55.0105 29.3541 53.1251 31.2447 50.797 31.2447ZM50.797 25.3385C50.1147 25.3385 49.4949 25.7499 49.2345 26.3801C48.974 27.0103 49.1199 27.7343 49.599 28.2187C50.0834 28.703 50.8126 28.8437 51.4428 28.5833C52.073 28.3228 52.4845 27.7083 52.4845 27.026C52.4793 26.0937 51.724 25.3385 50.797 25.3385Z" fill="#2561A1"/>
<path d="M49.5312 41.792H52.0625V29.9795H49.5312V41.792Z" fill="#2561A1"/>
</svg>
