<svg width="100" height="100" viewBox="0 0 59 59" fill="none" xmlns="http://www.w3.org/2000/svg">
<mask id="mask0_462_1947" style="mask-type:luminance" maskUnits="userSpaceOnUse" x="0" y="0" width="59" height="59">
<path d="M0 0H59V59H0V0Z" fill="white"/>
</mask>
<g mask="url(#mask0_462_1947)">
<path d="M29.5185 57.1202C14.2996 57.1202 1.91682 44.738 1.91682 29.5185C1.91682 14.2981 14.2996 1.91732 29.5185 1.91732C44.7375 1.91732 57.1202 14.2981 57.1202 29.5185C57.1202 44.738 44.7375 57.1202 29.5185 57.1202ZM29.5185 0C13.2416 0 0 13.2421 0 29.5185C0 45.7955 13.2416 59.0375 29.5185 59.0375C45.7955 59.0375 59.0375 45.7955 59.0375 29.5185C59.0375 13.2421 45.7955 0 29.5185 0Z" fill="white"/>
</g>
<path d="M41.0155 31.3357C40.7618 31.145 40.954 30.8162 40.7218 30.5794C40.3514 31.15 40.2623 32.0278 39.8319 32.3626C39.4766 32.0784 39.352 31.6955 39.1693 31.3542C38.9786 30.9978 38.8295 30.6225 38.7554 30.1811C38.4621 30.3918 38.3295 30.2611 38.2099 30.0074C38.0823 29.7402 38.0067 29.4464 37.8716 29.1836C37.767 28.9819 37.5012 28.9329 37.3335 29.085C36.8371 29.54 36.5123 30.2752 36.5568 30.9763C36.6124 31.8507 37.0768 32.5118 37.6684 33.1514C37.7394 33.23 37.8671 33.2069 37.9071 33.1114C37.9576 32.9947 37.9977 32.8997 38.0377 32.8041C38.1223 33.3866 38.1388 33.9126 38.4696 34.3936C39.0632 35.2564 39.7949 36.0371 40.0226 37.1212C40.482 36.7678 40.931 35.922 41.0215 35.2994C41.1001 34.7644 41.0711 34.2229 41.1046 33.6849C41.1246 33.3931 41.1141 33.0853 41.3198 32.8211C41.3709 33.0148 41.4014 33.1439 41.4369 33.2945C41.4755 33.4527 41.5015 33.6358 41.6662 33.6899C41.8613 33.7545 41.9409 33.5603 42.0195 33.4312C42.3653 32.8596 42.6866 32.2721 42.8868 31.6309C43.2326 30.5274 42.7837 29.3433 41.8168 28.8008C41.7953 28.7867 41.7673 28.7762 41.7382 28.7682C41.546 28.7177 41.3709 28.8989 41.4339 29.088C41.4369 29.096 41.4384 29.102 41.4414 29.1066C41.6922 29.6571 41.6411 30.2782 41.4184 30.8532C41.3429 31.0469 41.2538 31.2561 41.0155 31.3357Z" fill="white"/>
<path d="M49.9619 35.381C49.5065 34.5922 48.7518 34.3615 47.8264 34.7564C47.3714 34.9486 41.589 37.8623 39.3103 38.9969C38.9244 39.1891 38.5511 39.4073 38.1852 39.6365C37.6207 39.9883 37.0486 40.1915 36.3615 40.193C34.2645 40.1945 28.476 40.2071 27.6798 40.2116C27.3369 40.2116 26.9451 40.1835 26.937 39.7701C26.928 39.3227 27.2999 39.3122 27.6382 39.3122C27.7859 39.3122 33.6925 39.3337 36.4986 39.3107C37.6407 39.3012 38.3989 38.5925 38.3664 37.5856C38.3359 36.6247 37.5821 36.0051 36.4676 35.9956C35.1684 35.982 33.8681 35.9665 32.5704 36.0051C31.9708 36.0221 31.5139 35.8544 31.0515 35.4656C29.497 34.1603 27.7473 33.1779 25.7274 32.8396C23.3812 32.4472 21.0119 32.6809 18.5886 32.6444V42.3146C20.028 43.1233 25.7304 46.2753 29.008 47.2142C29.8058 47.4434 30.7071 47.5956 31.4003 47.4064C32.8241 47.019 34.234 46.4995 35.5868 45.8524C39.575 43.9426 48.6286 38.1206 49.4159 37.5485C50.2031 36.9765 50.3968 36.1297 49.9619 35.381Z" fill="white"/>
<path d="M15.2805 41.998L13.8306 42.8343L12.3807 41.998V40.3239L13.8306 39.4876L15.2805 40.3239V41.998ZM16.7899 31.4189H10.8693C10.6221 31.4189 10.4219 31.6191 10.4219 31.8664V43.7046C10.4219 43.9508 10.6221 44.152 10.8693 44.152H16.7899C17.0377 44.152 17.2373 43.9508 17.2373 43.7046V31.8664C17.2373 31.6191 17.0377 31.4189 16.7899 31.4189Z" fill="white"/>
<path d="M39.7776 15.0208C40.7771 15.0208 41.5874 15.831 41.5874 16.83C41.5874 17.8294 40.7771 18.6397 39.7776 18.6397C38.7782 18.6397 37.9679 17.8294 37.9679 16.83C37.9679 15.831 38.7782 15.0208 39.7776 15.0208ZM33.82 29.6431C33.8941 29.6476 33.9691 29.6276 34.0322 29.5896C34.0402 29.5831 34.0477 29.5771 34.0552 29.5726C34.0602 29.5681 34.1893 29.468 34.2489 29.4174C34.841 28.9174 35.4375 28.4255 36.0231 27.9195C36.1972 27.7689 36.3709 27.7123 36.6016 27.7138C37.6606 27.7183 41.8961 27.7183 42.9557 27.7138C43.1879 27.7123 43.3615 27.7689 43.5352 27.9195C44.1193 28.4255 44.7158 28.9174 45.3079 29.4174C45.3709 29.471 45.5171 29.5741 45.5261 29.5801C45.5371 29.5861 45.5476 29.5926 45.5586 29.5986C45.6047 29.6216 45.6552 29.6311 45.7078 29.6311C45.903 29.6341 46.0396 29.557 46.1041 29.3924C46.1167 29.3604 46.1257 29.3248 46.1337 29.2848C46.1442 29.2232 46.1442 29.1607 46.1382 29.0991C46.1352 29.0576 46.1302 29.0175 46.1242 28.97C46.0996 28.7548 45.975 28.1842 45.9615 28.1197C45.5386 26.2744 44.7083 24.6174 43.4416 23.166C43.2785 22.9798 43.2064 22.8001 43.2079 22.5539C43.2139 21.1491 43.1984 16.838 43.1999 16.6888C43.2524 16.1293 43.1353 15.6078 42.8651 15.1158C42.0118 13.5584 41.1584 11.9994 40.3051 10.4424C40.1945 10.2422 40.1145 10.0025 39.8517 9.97646C39.7686 9.96846 39.7836 9.96846 39.7056 9.97646C39.4443 10.004 39.3627 10.2422 39.2521 10.4424C38.3988 11.9994 37.547 13.5584 36.6922 15.1158C36.4215 15.6078 36.3048 16.1293 36.3569 16.6888C36.3599 16.838 36.3479 22.2236 36.3494 22.5539C36.3509 22.8001 36.2783 22.9798 36.1172 23.166C34.8485 24.6174 34.0187 26.2744 33.5958 28.1197C33.5818 28.1842 33.4666 28.7563 33.4326 28.97C33.4236 29.0331 33.4141 29.0976 33.4126 29.1587C33.4141 29.2498 33.4281 29.3278 33.4526 29.3924C33.5142 29.5495 33.6388 29.6371 33.82 29.6431Z" fill="white"/>
</svg>
