<svg width="190" height="121" viewBox="0 0 190 121" fill="none" xmlns="http://www.w3.org/2000/svg">
<rect y="25" width="190" height="96" rx="6" fill="#8C52FF"/>
<circle cx="95.5" cy="25.5" r="22.5" fill="#8C52FF"/>
<path d="M120 25C120 38.8071 108.807 50 95 50C81.1929 50 70 38.8071 70 25C70 11.1929 81.1929 0 95 0C108.807 0 120 11.1929 120 25ZM73.75 25C73.75 36.7361 83.2639 46.25 95 46.25C106.736 46.25 116.25 36.7361 116.25 25C116.25 13.2639 106.736 3.75 95 3.75C83.2639 3.75 73.75 13.2639 73.75 25Z" fill="#D9D9D9"/>
</svg>
