<svg width="107" height="97" viewBox="0 0 107 97" fill="none" xmlns="http://www.w3.org/2000/svg">
<path fill-rule="evenodd" clip-rule="evenodd" d="M19.2085 13.3124H100.667C102.198 13.3124 103.453 14.5572 103.453 16.0833V90.0416C103.453 91.5676 102.198 92.8124 100.667 92.8124H19.2085C17.6772 92.8124 16.4272 91.5676 16.4272 90.0416V16.0833C16.4272 14.5572 17.6772 13.3124 19.2085 13.3124Z" fill="#437DB2"/>
<path d="M103.735 15.9735V90.0412C103.735 91.7027 102.37 93.0933 100.667 93.0933H19.2085C17.5939 93.0933 16.2606 91.8433 16.146 90.2339C16.3439 90.26 16.5106 90.2339 16.7033 90.2079C16.7866 91.51 17.9012 92.536 19.2085 92.536H100.667C102.031 92.536 103.177 91.4266 103.177 90.0412V16.3641C103.396 16.2808 103.594 16.1402 103.735 15.9735Z" fill="#1D272A"/>
<path fill-rule="evenodd" clip-rule="evenodd" d="M16.8177 10.8957H98.276C99.8073 10.8957 101.057 12.1457 101.057 13.6717V87.6249C101.057 89.1509 99.8073 90.4009 98.276 90.4009H16.8177C15.2865 90.4009 14.0312 89.1509 14.0312 87.6249V13.6717C14.0312 12.1457 15.2865 10.8957 16.8177 10.8957Z" fill="#EEEEEE"/>
<path d="M16.8177 10.6199H98.276C99.1094 10.6199 99.8906 10.9532 100.448 11.5105C101.005 12.0626 101.339 12.8126 101.339 13.672V87.6251C101.339 88.4584 101.005 89.2345 100.448 89.7917C99.8906 90.3438 99.1354 90.6772 98.276 90.6772H16.8177C15.9792 90.6772 15.1979 90.3438 14.6458 89.7917C14.0885 89.2345 13.75 88.4845 13.75 87.6251V13.672C13.75 12.8386 14.0885 12.0626 14.6458 11.5105L14.6719 11.4792C15.2292 10.9532 15.9792 10.6199 16.8177 10.6199ZM98.276 11.1772H16.8177C16.1198 11.1772 15.5052 11.4532 15.0625 11.8959V11.922C14.6146 12.3699 14.3385 13.0053 14.3385 13.698V87.6563C14.3385 88.349 14.6146 88.9584 15.0625 89.4324C15.5052 89.8751 16.1458 90.1511 16.8438 90.1511H98.3021C99 90.1511 99.6094 89.8751 100.083 89.4324C100.531 88.9845 100.807 88.349 100.807 87.6563V13.672C100.807 12.9792 100.531 12.3699 100.083 11.8959C99.5833 11.4532 98.9688 11.1772 98.276 11.1772Z" fill="#1D272A"/>
<path fill-rule="evenodd" clip-rule="evenodd" d="M16.8177 10.8957H98.276C99.8073 10.8957 101.057 12.1457 101.057 13.6717V26.6249H14.0312V13.6717C14.0312 12.1457 15.2865 10.8957 16.8177 10.8957Z" fill="#FE7C97"/>
<path d="M16.8177 10.6199H98.276C99.1094 10.6199 99.8906 10.9532 100.448 11.5105C101.005 12.0626 101.339 12.8126 101.339 13.672V26.6251C101.339 26.7917 101.224 26.9063 101.057 26.9063H14.0312C13.8646 26.9063 13.75 26.7917 13.75 26.6251V13.672C13.75 12.8386 14.0885 12.0626 14.6458 11.5105L14.6719 11.4792C15.2292 10.9532 15.9792 10.6199 16.8177 10.6199ZM98.276 11.1772H16.8177C16.1198 11.1772 15.5052 11.4532 15.0625 11.8959V11.922C14.6146 12.3699 14.3385 13.0053 14.3385 13.698V26.3751H100.807V13.672C100.807 12.9792 100.531 12.3699 100.083 11.8959C99.5833 11.4532 98.9688 11.1772 98.276 11.1772Z" fill="#1D272A"/>
<path d="M25.4218 33.1196H91.0312C91.7864 33.1196 92.4791 33.3696 92.9843 33.781C93.4843 34.1977 93.8177 34.8071 93.8177 35.4737V45.4894C93.8177 46.156 93.5104 46.7394 92.9843 47.1821C92.4791 47.5987 91.7864 47.8487 91.0312 47.8487H27.4531C26.7031 47.8487 26.0052 47.5987 25.5052 47.1821C25.0052 46.7654 24.6666 46.156 24.6666 45.4894V38.8592C24.4739 38.7185 24.2812 38.5519 24.0833 38.4164C23.302 37.8331 22.526 37.2237 22.1093 36.4477C21.9375 36.1664 21.8541 35.8644 21.8281 35.5571C21.7708 35.1404 21.8541 34.7237 22.0208 34.3644C22.2187 34.005 22.4947 33.6717 22.9166 33.4477C23.1927 33.2862 23.526 33.2029 23.9427 33.1456C24.3645 33.0883 24.7812 33.0883 25.2552 33.0883L25.4218 33.1196ZM28.677 33.6717H25.2552C24.8072 33.6717 24.3906 33.6717 24 33.7289C23.6666 33.755 23.4166 33.8383 23.1927 33.9789C22.8854 34.1456 22.6614 34.3644 22.526 34.6456C22.3854 34.9217 22.3281 35.2237 22.3854 35.531C22.4114 35.755 22.4947 35.9998 22.6093 36.2237C22.9687 36.8904 23.7239 37.4737 24.4479 37.9998C24.6666 38.1664 24.9218 38.3592 25.1406 38.5258C25.2239 38.5831 25.2552 38.6664 25.2552 38.7498V45.5154C25.2552 46.0154 25.5052 46.4581 25.8958 46.7914C26.2864 47.1248 26.8697 47.3487 27.4791 47.3487H91.0625C91.6718 47.3487 92.2291 47.1248 92.6458 46.7914C93.0364 46.4581 93.2864 46.0154 93.2864 45.5154V35.505C93.2864 35.005 93.0364 34.5623 92.6458 34.2289C92.2604 33.8956 91.6718 33.6717 91.0625 33.6717H28.677Z" fill="#1D272A"/>
<path d="M25.4218 50.4011H91.0312C91.7864 50.4011 92.4791 50.6511 92.9843 51.0678C93.4843 51.4792 93.8177 52.0938 93.8177 52.7553V62.7709C93.8177 63.4376 93.5104 64.0209 92.9843 64.4636C92.4791 64.8803 91.7864 65.1303 91.0312 65.1303H27.4531C26.7031 65.1303 26.0052 64.8803 25.5052 64.4636C25.0052 64.047 24.6666 63.4376 24.6666 62.7709V56.1407C24.5 56.0053 24.2812 55.8386 24.0833 55.698L24.0572 55.672C23.302 55.0886 22.4947 54.4792 22.1093 53.7292C21.9375 53.4532 21.8541 53.1459 21.8281 52.8386C21.7708 52.4272 21.8541 52.0105 22.0208 51.6459C22.2187 51.2865 22.4947 50.9532 22.9166 50.7345C23.1927 50.5678 23.526 50.4845 23.9427 50.4272C24.3333 50.3699 24.7812 50.3699 25.2552 50.3699L25.4218 50.4011ZM28.677 50.9532H25.2552C24.8072 50.9532 24.3906 50.9532 24 51.0105C23.6666 51.0365 23.4166 51.1199 23.1927 51.2605C22.8854 51.4272 22.6614 51.6459 22.526 51.9272C22.3854 52.2032 22.3281 52.5105 22.3854 52.8126C22.4114 53.0365 22.4947 53.2865 22.6093 53.5053C22.9687 54.172 23.6927 54.7292 24.4166 55.2813H24.4479C24.6666 55.448 24.8906 55.6407 25.1406 55.8074C25.2239 55.8647 25.2552 55.948 25.2552 56.0313V62.8022C25.2552 63.297 25.5052 63.7449 25.8958 64.0782C26.2864 64.4063 26.8697 64.6303 27.4791 64.6303H91.0625C91.6718 64.6303 92.2291 64.4063 92.6458 64.0782C93.0364 63.7449 93.2864 63.297 93.2864 62.8022V52.7865C93.2864 52.2865 93.0364 51.8438 92.6458 51.5105C92.2604 51.1772 91.6718 50.9532 91.0625 50.9532H28.677Z" fill="#1D272A"/>
<path d="M25.4218 67.6819H91.0312C91.7864 67.6819 92.4791 67.9319 92.9843 68.3486C93.4843 68.7653 93.8177 69.3746 93.8177 70.0413V80.0517C93.8177 80.7184 93.5104 81.3017 92.9843 81.7444C92.4791 82.1611 91.7864 82.4111 91.0312 82.4111H27.4531C26.7031 82.4111 26.0052 82.1611 25.5052 81.7444C25.0052 81.3278 24.6666 80.7184 24.6666 80.0517V73.4215C24.4739 73.2861 24.2812 73.1194 24.0833 72.9788C23.302 72.3955 22.526 71.7861 22.1093 71.0101C21.9375 70.734 21.8541 70.4267 21.8281 70.1246C21.7708 69.708 21.8541 69.2913 22.0208 68.9319C22.2187 68.5673 22.4947 68.234 22.9166 68.0153C23.1927 67.8486 23.526 67.7653 23.9427 67.708C24.3645 67.6559 24.7812 67.6559 25.2552 67.6559L25.4218 67.6819ZM28.677 68.234H25.2552C24.8072 68.234 24.3906 68.234 24 68.2913C23.6666 68.3173 23.4166 68.4007 23.1927 68.5413C22.8854 68.708 22.6614 68.9319 22.526 69.208C22.3854 69.484 22.3281 69.7913 22.3854 70.0934C22.4114 70.3173 22.4947 70.5673 22.6093 70.7861C22.9687 71.4528 23.7239 72.0361 24.4479 72.5621C24.6666 72.7288 24.9218 72.9267 25.1406 73.0882C25.2239 73.1455 25.2552 73.2288 25.2552 73.3121V80.083C25.2552 80.583 25.5052 81.0257 25.8958 81.359C26.2864 81.6923 26.8697 81.9111 27.4791 81.9111H91.0625C91.6718 81.9111 92.2291 81.6923 92.6458 81.359C93.0364 81.0257 93.2864 80.583 93.2864 80.083V70.0673C93.2864 69.5673 93.0364 69.1246 92.6458 68.7913C92.2604 68.458 91.6718 68.234 91.0625 68.234H28.677Z" fill="#1D272A"/>
<path d="M31.3802 38.0259C30.6823 38.0259 30.0729 38.3071 29.625 38.7499C29.1823 39.1926 28.901 39.8019 28.901 40.4946C28.901 41.1874 29.1823 41.8019 29.625 42.2446C30.0729 42.6874 30.6823 42.9634 31.3802 42.9634C32.0781 42.9634 32.6875 42.6874 33.1354 42.2446C33.5781 41.8019 33.8594 41.1874 33.8594 40.4946C33.8594 39.8019 33.5781 39.1926 33.1354 38.7499C32.6615 38.3071 32.0469 38.0259 31.3802 38.0259ZM29.2344 38.3592C29.7917 37.8071 30.5469 37.4738 31.3802 37.4738C32.2135 37.4738 32.9688 37.8071 33.526 38.3592C34.0833 38.9165 34.4167 39.6665 34.4167 40.4946C34.4167 41.328 34.0833 42.078 33.526 42.6301C32.9688 43.1874 32.2135 43.5207 31.3802 43.5207C30.5469 43.5207 29.7917 43.1874 29.2344 42.6301C28.6771 42.078 28.3438 41.328 28.3438 40.4946C28.3438 39.6665 28.6771 38.8853 29.2344 38.3592ZM30.1823 39.6926C30.0729 39.5832 30.0729 39.4165 30.1823 39.3019C30.2969 39.1926 30.4635 39.1926 30.5729 39.3019L32.5781 41.3019C32.6875 41.4113 32.6875 41.578 32.5781 41.6874C32.4687 41.8019 32.3021 41.8019 32.1875 41.6874L30.1823 39.6926ZM32.1615 39.3019C32.2708 39.1926 32.4375 39.1926 32.5521 39.3019C32.6615 39.4165 32.6615 39.5832 32.5521 39.6926L30.5469 41.6874C30.4323 41.8019 30.2656 41.8019 30.1562 41.6874C30.0417 41.578 30.0417 41.4113 30.1562 41.3019L32.1615 39.3019ZM31.3802 72.7863C30.6823 72.7863 30.0729 73.0624 29.625 73.5051C29.1823 73.953 28.901 74.5624 28.901 75.2551C28.901 75.9478 29.1823 76.5572 29.625 76.9999C30.0729 77.4478 30.6823 77.7238 31.3802 77.7238C32.0781 77.7238 32.6875 77.4478 33.1354 76.9999C33.5781 76.5572 33.8594 75.9478 33.8594 75.2551C33.8594 74.5624 33.5781 73.953 33.1354 73.5051C32.6615 73.0624 32.0469 72.7863 31.3802 72.7863ZM29.2344 73.1197C29.7917 72.5624 30.5469 72.229 31.3802 72.229C32.2135 72.229 32.9688 72.5624 33.526 73.1197C34.0833 73.6717 34.4167 74.4217 34.4167 75.2551C34.4167 76.0884 34.0833 76.8384 33.526 77.3905C32.9688 77.9478 32.2135 78.2759 31.3802 78.2759C30.5469 78.2759 29.7917 77.9478 29.2344 77.3905C28.6771 76.8384 28.3438 76.0884 28.3438 75.2551C28.3438 74.4217 28.6771 73.6457 29.2344 73.1197ZM30.1823 74.4478C30.0729 74.3384 30.0729 74.1717 30.1823 74.0624C30.2969 73.953 30.4635 73.953 30.5729 74.0624L32.5781 76.0572C32.6875 76.1717 32.6875 76.3384 32.5781 76.4478C32.4687 76.5572 32.3021 76.5572 32.1875 76.4478L30.1823 74.4478ZM32.1615 74.0624C32.2708 73.953 32.4375 73.953 32.5521 74.0624C32.6615 74.1717 32.6615 74.3384 32.5521 74.4478L30.5469 76.4478C30.4323 76.5572 30.2656 76.5572 30.1562 76.4478C30.0417 76.3384 30.0417 76.1717 30.1562 76.0572L32.1615 74.0624Z" fill="#FE7C97"/>
<path d="M31.3802 55.3075C30.6823 55.3075 30.0729 55.5887 29.625 56.0314C29.1823 56.4741 28.901 57.0835 28.901 57.7762C28.901 58.4741 29.1823 59.0835 29.625 59.5262C30.0729 59.9689 30.6823 60.2502 31.3802 60.2502C32.0781 60.2502 32.6875 59.9689 33.1354 59.5262C33.5781 59.0835 33.8594 58.4741 33.8594 57.7762C33.8594 57.0835 33.5781 56.4741 33.1354 56.0314C32.6615 55.5887 32.0469 55.3075 31.3802 55.3075ZM29.2344 55.6408C29.7917 55.0887 30.5469 54.7554 31.3802 54.7554C32.2135 54.7554 32.9688 55.0887 33.526 55.6408C34.0833 56.1981 34.4167 56.9481 34.4167 57.7762C34.4167 58.6095 34.0833 59.3595 33.526 59.9168C32.9688 60.4689 32.2135 60.8022 31.3802 60.8022C30.5469 60.8022 29.7917 60.4689 29.2344 59.9168C28.6771 59.3595 28.3438 58.6095 28.3438 57.7762C28.3438 56.9481 28.6771 56.172 29.2344 55.6408ZM32.3854 56.6668C32.4948 56.5575 32.6615 56.5575 32.7708 56.6668C32.8854 56.7814 32.8854 56.9481 32.7708 57.0575L30.9635 58.8595C30.849 58.9741 30.6823 58.9741 30.5729 58.8595L29.9062 58.1929C29.7917 58.0835 29.7917 57.9168 29.9062 57.8075C30.0156 57.6981 30.1823 57.6981 30.2969 57.8075L30.7396 58.2502L32.3854 56.6668Z" fill="#437DB2"/>
<mask id="mask0_2482_12543" style="mask-type:luminance" maskUnits="userSpaceOnUse" x="86" y="2" width="21" height="30">
<path d="M86.6665 2.00024H106.495V31.3336H86.6665V2.00024Z" fill="white"/>
</mask>
<g mask="url(#mask0_2482_12543)">
<path d="M99.0259 23.8232H94.5676C94.5676 23.1305 94.5415 22.7138 94.5415 22.5471C94.5415 20.9951 94.7915 19.693 95.2655 18.693C95.7395 17.693 96.6874 16.5576 98.1353 15.2815C99.5832 14.0315 100.417 13.1982 100.698 12.8128C101.141 12.2034 101.338 11.5107 101.338 10.7607C101.338 9.73464 100.948 8.84401 100.193 8.12526C99.4426 7.37526 98.4113 7.01589 97.104 7.01589C95.8488 7.01589 94.8228 7.40131 93.9582 8.17735C93.1197 8.9586 92.5363 10.1201 92.229 11.7034L87.7186 11.094C87.8593 8.81797 88.7499 6.9013 90.3905 5.32318C92.0363 3.73985 94.2082 2.96381 96.9113 2.96381C99.7238 2.96381 101.979 3.7711 103.651 5.34922C105.318 6.9586 106.156 8.79193 106.156 10.9273C106.156 12.0888 105.849 13.1982 105.234 14.2555C104.625 15.3076 103.312 16.7242 101.307 18.5263C100.281 19.469 99.6405 20.219 99.3853 20.7711C99.1093 21.3544 98.9999 22.3805 99.0259 23.8232ZM94.5676 30.9794V25.6565H99.0259V30.9534H94.5676V30.9794Z" fill="#EEEEEE"/>
<path d="M99.0259 24.1044H94.5415C94.3748 24.1044 94.2655 23.9898 94.2655 23.8231C94.2915 23.4065 94.2655 22.9638 94.2342 22.5471C94.2342 21.745 94.2915 21.0211 94.4321 20.3596C94.5415 19.6929 94.7342 19.0836 94.9894 18.5523C95.2394 18.0263 95.5988 17.4742 96.0988 16.8909C96.5728 16.3075 97.1873 15.6981 97.9113 15.0575C98.6353 14.4221 99.1925 13.8961 99.6092 13.5054C100.026 13.1148 100.307 12.8127 100.417 12.62C100.614 12.3388 100.781 12.0367 100.864 11.7294C100.974 11.4273 101.005 11.094 101.005 10.7294C101.005 10.2606 100.922 9.81793 100.75 9.40127C100.583 8.9846 100.307 8.62522 99.9425 8.29189C99.5832 7.95856 99.1665 7.70856 98.6925 7.51585C98.2186 7.34918 97.6613 7.26585 97.0467 7.26585C96.4634 7.26585 95.9061 7.34918 95.4321 7.54189C94.9321 7.70856 94.5155 7.9846 94.0936 8.34397C93.7082 8.70856 93.3696 9.17731 93.0936 9.70335C92.8175 10.2606 92.5936 10.9273 92.453 11.7034C92.4269 11.8388 92.2863 11.9534 92.1196 11.9221L87.6353 11.3127C87.4946 11.2867 87.3853 11.1773 87.3853 11.0367C87.4425 9.87002 87.7186 8.79189 88.1665 7.79189C88.6092 6.79189 89.2759 5.90647 90.1405 5.07314C91.005 4.26585 91.979 3.63043 93.0936 3.23981H93.1196C94.2342 2.82314 95.4894 2.63043 96.854 2.63043C98.3019 2.63043 99.6092 2.82314 100.75 3.23981C101.922 3.65647 102.922 4.26585 103.786 5.09918C104.651 5.93252 105.292 6.81793 105.739 7.76585C106.182 8.7346 106.38 9.76064 106.38 10.87C106.38 11.4794 106.292 12.0627 106.125 12.6721C105.958 13.2554 105.739 13.8127 105.401 14.3648C105.099 14.8909 104.594 15.5315 103.927 16.2815C103.26 17.0002 102.453 17.8075 101.422 18.719C100.922 19.1669 100.5 19.5784 100.193 19.9429C99.8905 20.3023 99.6665 20.6096 99.5571 20.8544C99.4425 21.1044 99.3592 21.495 99.3019 21.9638C99.2498 22.4638 99.2186 23.0784 99.2498 23.7971C99.3019 23.9898 99.1925 24.1044 99.0259 24.1044ZM94.8488 23.5471H98.7446C98.7446 22.9117 98.7759 22.3804 98.828 21.9377C98.8853 21.4117 98.9998 20.969 99.1353 20.6617C99.2759 20.3596 99.5259 19.995 99.8592 19.6096C100.193 19.219 100.614 18.8023 101.14 18.3336C102.146 17.4429 102.953 16.6409 103.594 15.9169C104.234 15.2242 104.708 14.6148 105.015 14.1148C105.318 13.6148 105.542 13.0888 105.682 12.5627C105.823 12.0367 105.906 11.4794 105.906 10.9273C105.906 9.90127 105.708 8.95856 105.292 8.04189C104.901 7.15127 104.286 6.32314 103.479 5.54189C102.672 4.76585 101.729 4.18252 100.64 3.7971C99.5571 3.40647 98.3019 3.21377 96.9373 3.21377C95.63 3.21377 94.4582 3.40647 93.4009 3.7971C92.3436 4.18252 91.4217 4.73981 90.6405 5.51585C89.8332 6.29189 89.2238 7.12522 88.8071 8.06793C88.4165 8.92731 88.1665 9.84397 88.0832 10.844L92.0623 11.3961C92.229 10.7034 92.4269 10.0679 92.703 9.51064C93.0103 8.90127 93.3696 8.40127 93.8175 7.9846L93.8436 7.95856C94.2915 7.54189 94.7915 7.2346 95.3488 7.04189C95.9061 6.84918 96.5207 6.7346 97.1613 6.7346C97.828 6.7346 98.4425 6.84918 98.9998 7.04189C99.5571 7.2346 100.026 7.54189 100.448 7.92731C100.864 8.31793 101.172 8.76064 101.364 9.2346C101.557 9.70335 101.672 10.2346 101.672 10.7867C101.672 11.1773 101.614 11.5627 101.505 11.9534C101.39 12.3127 101.224 12.6721 100.974 13.0054C100.833 13.2294 100.531 13.5315 100.083 13.9794C99.6405 14.3909 99.0832 14.9221 98.3592 15.5575C97.6613 16.1669 97.078 16.7763 96.604 17.3336C96.13 17.8909 95.7967 18.4169 95.5728 18.8856C95.3488 19.3856 95.1561 19.9117 95.0415 20.5523C94.9321 21.1877 94.8748 21.8856 94.8748 22.6304V23.0471L94.8488 23.5471ZM94.2915 30.9794V25.6565C94.2915 25.4898 94.4009 25.3804 94.5675 25.3804H99.0259C99.1925 25.3804 99.3019 25.4898 99.3019 25.6565V30.9534C99.3019 31.12 99.1925 31.2294 99.0259 31.2294H94.5675C94.4009 31.2606 94.2915 31.12 94.2915 30.9794ZM94.8488 25.9325V30.6773H98.7446V25.9325H94.8488Z" fill="#1D272A"/>
</g>
<mask id="mask1_2482_12543" style="mask-type:luminance" maskUnits="userSpaceOnUse" x="85" y="0" width="21" height="29">
<path d="M85.3335 0.270386H105.333V28.6662H85.3335V0.270386Z" fill="white"/>
</mask>
<g mask="url(#mask1_2482_12543)">
<path d="M96.9637 21.4683H92.4793C92.4793 20.7704 92.4533 20.3589 92.4533 20.1923C92.4533 18.635 92.7033 17.3329 93.1772 16.3329C93.6512 15.3381 94.5991 14.1975 96.047 12.9214C97.495 11.6714 98.3283 10.8433 98.6095 10.4527C99.0522 9.84332 99.2502 9.15061 99.2502 8.40061C99.2502 7.37457 98.8595 6.48916 98.1043 5.7652C97.3543 5.0152 96.3231 4.65582 95.0158 4.65582C93.7606 4.65582 92.7293 5.04645 91.87 5.82249C91.0314 6.59853 90.4481 7.7652 90.1408 9.34332L85.6304 8.73395C85.771 6.45791 86.6616 4.54645 88.3022 2.96311C90.0002 1.35374 92.1772 0.577698 94.8491 0.577698C97.6616 0.577698 99.9168 1.38499 101.589 2.96311C103.261 4.57249 104.094 6.40582 104.094 8.54124C104.094 9.7027 103.787 10.8121 103.177 11.8694C102.563 12.9214 101.255 14.3381 99.2502 16.1402C98.2189 17.0829 97.5783 17.8329 97.3283 18.385C97.0783 18.9996 96.9377 19.9944 96.9637 21.4683ZM92.5106 28.5933V23.2964H96.995V28.5933H92.5106Z" fill="#FFF458"/>
</g>
<mask id="mask2_2482_12543" style="mask-type:luminance" maskUnits="userSpaceOnUse" x="84" y="0" width="22" height="30">
<path d="M84 0.270386H105.333V29.9996H84V0.270386Z" fill="white"/>
</mask>
<g mask="url(#mask2_2482_12543)">
<path d="M96.9635 21.7443H92.4791C92.3125 21.7443 92.2031 21.635 92.2031 21.4683C92.2291 21.0516 92.2031 20.6089 92.177 20.1923C92.177 19.385 92.2291 18.6662 92.3698 17.9996C92.4791 17.3329 92.677 16.7235 92.927 16.1975C93.177 15.6662 93.5416 15.1141 94.0416 14.5308C94.5156 13.9475 95.125 13.3381 95.8489 12.7027C96.5729 12.0621 97.1302 11.536 97.552 11.1454C97.9687 10.76 98.2448 10.4527 98.3593 10.26C98.552 9.98393 98.7187 9.67664 98.802 9.36934C98.9166 9.06726 98.9427 8.73393 98.9427 8.37455C98.9427 7.90059 98.8593 7.45789 98.6927 7.04122C98.526 6.62455 98.2448 6.26518 97.8854 5.93184C97.5208 5.59851 97.1041 5.34851 96.6302 5.1558C96.1562 4.98914 95.5989 4.9058 94.9895 4.9058C94.401 4.9058 93.8437 4.98914 93.3698 5.18184C92.8698 5.34851 92.4531 5.62455 92.0364 5.98914C91.6458 6.34851 91.3125 6.81726 91.0312 7.34851C90.7552 7.90059 90.5312 8.56726 90.3906 9.3433C90.3645 9.48393 90.2239 9.5933 90.0573 9.56726L85.5729 8.95789C85.4375 8.92664 85.3229 8.81726 85.3229 8.67664C85.3802 7.51518 85.6562 6.43184 86.1041 5.43184C86.5468 4.43184 87.2187 3.54643 88.0833 2.71309C88.9427 1.91101 89.9166 1.27039 91.0312 0.884969H91.0625C92.177 0.468302 93.427 0.270386 94.7916 0.270386C96.2395 0.270386 97.552 0.468302 98.6927 0.884969C99.8593 1.30164 100.865 1.91101 101.729 2.73914C102.589 3.57247 103.229 4.46309 103.677 5.4058C104.12 6.37455 104.318 7.4006 104.318 8.50997C104.318 9.11935 104.234 9.70268 104.068 10.3173C103.901 10.8954 103.677 11.4527 103.344 12.0048C103.036 12.536 102.536 13.1714 101.865 13.9214C101.198 14.6402 100.391 15.4475 99.3593 16.3641C98.8593 16.8068 98.4427 17.2235 98.1354 17.5829C97.8281 17.9423 97.6041 18.2496 97.4948 18.4996C97.3802 18.7496 97.2968 19.135 97.2448 19.6089C97.1875 20.1089 97.1614 20.7183 97.1875 21.4371C97.2448 21.635 97.1302 21.7443 96.9635 21.7443ZM92.7864 21.1871H96.7135C96.7135 20.5516 96.7395 20.0256 96.7968 19.5777C96.8541 19.0516 96.9635 18.6089 97.1041 18.3016C97.2448 17.9996 97.4948 17.6402 97.8281 17.2496C98.1614 16.8589 98.5781 16.4475 99.1093 15.9735C100.109 15.0881 100.922 14.2808 101.557 13.5621C102.198 12.8693 102.672 12.2548 102.979 11.7548C103.286 11.26 103.51 10.7287 103.651 10.2027C103.786 9.67664 103.87 9.11935 103.87 8.56726C103.87 7.54122 103.677 6.59851 103.26 5.68184C102.87 4.79643 102.255 3.96309 101.448 3.18705C100.641 2.41101 99.6927 1.82768 98.6093 1.43705C97.4635 1.05164 96.2135 0.853719 94.8489 0.853719C93.5416 0.853719 92.3698 1.05164 91.3125 1.43705C90.2552 1.82768 89.3333 2.37976 88.552 3.1558C87.7448 3.93705 87.1354 4.76518 86.7187 5.70789C86.3281 6.56726 86.0781 7.48393 85.9948 8.48393L89.9739 9.04122C90.1406 8.3433 90.3385 7.70789 90.6145 7.15059C90.9218 6.54122 91.2812 6.04122 91.7291 5.62455L91.7552 5.59851C92.2031 5.18184 92.7031 4.87976 93.2604 4.68184C93.8177 4.48914 94.4323 4.37976 95.0729 4.37976C95.7395 4.37976 96.3541 4.48914 96.9114 4.68184C97.4635 4.87976 97.9375 5.18184 98.3593 5.57247C98.776 5.95789 99.0833 6.4058 99.276 6.87455C99.4687 7.34851 99.5833 7.87455 99.5833 8.42664C99.5833 8.81726 99.526 9.20268 99.4166 9.5933C99.302 9.95268 99.1354 10.3173 98.8854 10.6454C98.7448 10.8693 98.4427 11.1766 97.9948 11.6193C97.552 12.036 96.9948 12.5621 96.2708 13.1975C95.5729 13.8121 94.9895 14.4214 94.5156 14.9735C94.0416 15.5308 93.7083 16.0568 93.4843 16.5308C93.2604 17.0256 93.0677 17.5568 92.9531 18.1923C92.8437 18.8329 92.7864 19.5256 92.7864 20.2756V21.1871ZM92.2291 28.5933V23.2964C92.2291 23.1298 92.3437 23.0204 92.5104 23.0204H96.9948C97.1614 23.0204 97.2708 23.1298 97.2708 23.2964V28.5933C97.2708 28.76 97.1614 28.8746 96.9948 28.8746H92.5104C92.3437 28.8746 92.2291 28.76 92.2291 28.5933ZM92.7864 23.5725V28.3173H96.7135V23.5725H92.7864Z" fill="#1D272A"/>
</g>
<mask id="mask3_2482_12543" style="mask-type:luminance" maskUnits="userSpaceOnUse" x="1" y="72" width="22" height="25">
<path d="M1.3335 72.6671H22.6668V96.2243H1.3335V72.6671Z" fill="white"/>
</mask>
<g mask="url(#mask3_2482_12543)">
<path fill-rule="evenodd" clip-rule="evenodd" d="M17.2606 73.2296C17.9585 74.7296 18.1825 75.891 17.9585 76.7556C18.7918 76.391 19.9897 76.5056 21.6043 77.0316C20.4064 78.141 19.3491 78.7243 18.4585 78.7764C19.0418 79.4431 19.3231 80.6358 19.3231 82.3285C17.8752 81.5264 17.0106 80.7191 16.6772 79.8858C16.2033 80.6671 15.172 81.3025 13.5575 81.8025C13.8908 80.1931 14.3908 79.1098 15.0627 78.5264C14.172 78.3337 13.2502 77.5316 12.2762 76.1723C13.922 75.9743 15.1147 76.115 15.87 76.5889C15.7866 75.6983 16.2606 74.5889 17.2606 73.2296ZM15.5054 85.1566C16.7606 86.6306 17.3752 87.8754 17.4012 88.9014C18.2345 88.24 19.6304 87.99 21.5783 88.0993C20.5731 89.7348 19.5731 90.7087 18.5679 91.0368C19.4325 91.6202 20.1304 92.8441 20.6304 94.7556C18.7658 94.3129 17.5106 93.6462 16.9012 92.8441C16.62 93.8389 15.646 94.8962 14.0054 95.9483C13.8647 94.0368 14.0887 92.6462 14.672 91.8181C13.6147 91.8702 12.3335 91.2608 10.8022 90.0108C12.5835 89.2921 13.9741 89.0681 14.9793 89.3754C14.6147 88.4066 14.7814 86.99 15.5054 85.1566ZM4.92204 81.3025C4.86996 82.8025 5.06266 83.8806 5.56266 84.5212C4.72933 84.5212 3.75537 85.0212 2.5835 86.016C4.00537 86.5473 5.09391 86.6827 5.84391 86.4066C5.59391 87.1827 5.76058 88.266 6.34391 89.6827C7.29183 88.516 7.73454 87.516 7.73454 86.7139C8.40641 87.2087 9.48975 87.3754 11.021 87.24C10.1877 85.99 9.38037 85.24 8.59912 84.99C9.271 84.5212 9.771 83.5212 10.1304 82.0264C8.68246 82.4379 7.73454 82.9691 7.26579 83.6306C7.04183 82.8858 6.26058 82.1046 4.92204 81.3025Z" fill="#FE7C97"/>
<path d="M17.5106 73.1202C17.8752 73.8962 18.0991 74.5629 18.2345 75.1722C18.3179 75.6149 18.3491 76.0056 18.3179 76.3649C18.6824 76.2816 19.0991 76.2556 19.547 76.2816C20.1877 76.3389 20.9116 76.5056 21.7189 76.7816C21.8543 76.8389 21.9377 76.9743 21.8856 77.1149C21.8543 77.167 21.8283 77.1983 21.8022 77.2243C21.1877 77.8077 20.6043 78.2243 20.047 78.5264C19.6564 78.7504 19.2918 78.891 18.9585 78.9743C19.1564 79.2764 19.2918 79.667 19.4064 80.0837C19.547 80.6931 19.6304 81.4431 19.5991 82.3024C19.5991 82.4379 19.4897 82.5785 19.3231 82.5785C19.2658 82.5785 19.2085 82.5785 19.1824 82.5524C18.4585 82.1358 17.8439 81.7191 17.4012 81.3024C17.0679 80.9952 16.8179 80.6931 16.6199 80.3858C16.3699 80.667 16.0627 80.9118 15.672 81.1618C15.146 81.4952 14.4481 81.8024 13.6147 82.0524C13.4741 82.1045 13.3074 82.0264 13.2814 81.8858C13.2814 81.8285 13.2814 81.8024 13.2814 81.7452C13.4481 80.9118 13.6668 80.2191 13.922 79.667C14.1147 79.2764 14.3074 78.917 14.5574 78.667C14.2241 78.5264 13.8908 78.3077 13.5314 78.0004C13.0574 77.5837 12.5574 77.0316 12.0522 76.3389C11.9689 76.2243 12.0002 76.0577 12.1095 75.9483C12.1668 75.9222 12.2189 75.891 12.2502 75.891C13.0835 75.7816 13.8074 75.7816 14.422 75.8649C14.8647 75.9222 15.2293 76.0056 15.5627 76.141C15.5887 75.7816 15.7033 75.3962 15.8699 74.9795C16.1199 74.3962 16.4793 73.7556 17.0106 73.0629C17.0939 72.9535 17.2606 72.9274 17.4012 73.0108C17.4585 73.0368 17.4845 73.0629 17.5106 73.1202ZM17.6772 75.2816C17.5939 74.8389 17.4272 74.3129 17.1772 73.7556C16.8179 74.2556 16.5627 74.7295 16.3699 75.1722C16.146 75.6983 16.0627 76.141 16.0939 76.5577C16.0939 76.6149 16.0939 76.6722 16.0366 76.7243C15.9533 76.8649 15.7866 76.891 15.646 76.8077C15.3127 76.5889 14.8387 76.4483 14.2814 76.391C13.8335 76.3389 13.3074 76.3389 12.7241 76.391C13.1095 76.891 13.4741 77.2816 13.8074 77.5837C14.2241 77.9483 14.646 78.167 15.0627 78.2764C15.1147 78.2764 15.172 78.3337 15.1981 78.3597C15.2866 78.4743 15.2866 78.641 15.146 78.7504C14.8387 79.0004 14.5574 79.391 14.3387 79.8858C14.1408 80.3024 13.9741 80.8024 13.8335 81.4118C14.422 81.2191 14.922 80.9691 15.3387 80.7504C15.8127 80.4431 16.1772 80.1358 16.3699 79.8024C16.396 79.7504 16.4533 79.7191 16.5106 79.6931C16.6512 79.6358 16.8179 79.6931 16.8699 79.8337C17.0106 80.2191 17.2866 80.5837 17.7085 80.9691C18.0418 81.2764 18.4585 81.6097 18.9897 81.9118C18.9585 81.3024 18.9064 80.7764 18.7918 80.3337C18.6512 79.7764 18.4585 79.3597 18.1824 79.0577C18.1512 79.0004 18.1252 78.9431 18.1252 78.891C18.1252 78.7504 18.2345 78.6097 18.4012 78.6097C18.7918 78.5837 19.2397 78.4431 19.7397 78.167C20.1304 77.9483 20.5731 77.641 21.021 77.2504C20.4064 77.0837 19.8804 76.9743 19.4064 76.917C18.8491 76.8649 18.3752 76.917 18.0158 77.0837C17.9585 77.1149 17.9012 77.1149 17.8439 77.1149C17.7085 77.0837 17.6252 76.9483 17.6512 76.7816C17.7918 76.3077 17.7918 75.8389 17.6772 75.2816ZM15.7293 84.9899C16.3699 85.7399 16.8439 86.4327 17.1512 87.0733C17.4012 87.542 17.5418 88.016 17.6252 88.4327C18.0158 88.2087 18.4845 88.042 19.0158 87.9327C19.7397 87.792 20.6043 87.7399 21.6043 87.792C21.7449 87.792 21.8543 87.9327 21.8543 88.0733C21.8543 88.1254 21.8283 88.1566 21.8283 88.1827C21.297 89.016 20.797 89.6827 20.271 90.2087C19.8804 90.5941 19.5158 90.8754 19.1252 91.0681C19.4637 91.3702 19.7397 91.7608 20.0158 92.2347C20.3804 92.8702 20.6877 93.6722 20.9377 94.6462C20.9637 94.7868 20.8804 94.9483 20.7449 94.9795C20.6877 95.0056 20.6304 95.0056 20.6043 94.9795C19.6564 94.7556 18.8491 94.4535 18.2085 94.1462C17.7345 93.8962 17.3439 93.6202 17.0366 93.3129C16.8439 93.7035 16.5627 94.1202 16.2033 94.5056C15.7033 95.0316 15.0314 95.5889 14.172 96.141C14.0314 96.2243 13.8647 96.1983 13.8074 96.0629C13.7814 96.0316 13.7814 95.9795 13.7814 95.9483C13.6981 94.9795 13.7241 94.1202 13.8335 93.4274C13.922 92.8962 14.0574 92.4274 14.2554 92.0368C13.8074 91.9847 13.3335 91.8441 12.8335 91.6202C12.1668 91.3181 11.4429 90.8441 10.6616 90.2087C10.5522 90.1254 10.521 89.9274 10.6356 89.8181C10.6616 89.792 10.7189 89.7608 10.7449 89.7347C11.6616 89.3754 12.4689 89.1254 13.1668 89.016C13.6981 88.9327 14.172 88.9327 14.5887 88.9847C14.5054 88.5681 14.5054 88.0733 14.5574 87.542C14.646 86.8233 14.8647 85.9899 15.2293 85.0472C15.2866 84.9066 15.4533 84.8233 15.5887 84.8806C15.646 84.9066 15.7033 84.9379 15.7293 84.9899ZM16.6512 87.3233C16.396 86.8233 16.0366 86.266 15.5627 85.6879C15.3127 86.4066 15.146 87.0472 15.0887 87.5993C15.0054 88.266 15.0627 88.8181 15.2293 89.266C15.2554 89.3181 15.2554 89.3754 15.2293 89.4587C15.172 89.5993 15.0314 89.6827 14.896 89.6514C14.4481 89.516 13.8908 89.4847 13.2241 89.5993C12.6668 89.6827 12.0522 89.8441 11.3595 90.0941C11.9689 90.5681 12.5262 90.9014 13.0574 91.1514C13.6668 91.4274 14.1981 91.5681 14.6981 91.5368C14.7554 91.5368 14.8127 91.5368 14.8647 91.5941C14.9793 91.6774 15.0054 91.8441 14.922 91.9847C14.646 92.3702 14.4481 92.8962 14.3647 93.5368C14.2814 94.0889 14.2554 94.7556 14.2814 95.4795C14.922 95.0316 15.422 94.6202 15.8127 94.2035C16.2606 93.7295 16.5366 93.2608 16.6772 92.8129C16.6772 92.7608 16.7345 92.7035 16.7866 92.6462C16.9012 92.5629 17.0679 92.5629 17.1772 92.6774C17.4585 93.0629 17.9012 93.3962 18.4845 93.7035C18.9897 93.9535 19.5991 94.1722 20.297 94.3702C20.0731 93.6462 19.8231 93.0368 19.547 92.5368C19.2085 91.9535 18.8491 91.5368 18.4585 91.2608C18.4012 91.2347 18.3752 91.1774 18.3491 91.1202C18.2918 90.9847 18.3752 90.8181 18.5418 90.7608C18.9897 90.5941 19.4637 90.292 19.9324 89.8441C20.3231 89.4587 20.7449 88.9587 21.1616 88.3233C20.3804 88.292 19.7137 88.3493 19.1564 88.4587C18.5158 88.5993 17.9845 88.792 17.6252 89.0993C17.5679 89.1254 17.5106 89.1514 17.4585 89.1514C17.3179 89.1514 17.1772 89.042 17.1772 88.9014C17.1199 88.4327 16.9533 87.9066 16.6512 87.3233ZM4.78661 83.3024C4.67203 82.7452 4.64599 82.0785 4.67203 81.3285C4.67203 81.2764 4.67203 81.2191 4.72932 81.1618C4.81265 81.0264 4.97932 80.9952 5.0939 81.0524C5.76057 81.4691 6.31786 81.8597 6.73453 82.2712C7.01057 82.5524 7.23453 82.8545 7.40119 83.1358C7.62515 82.9118 7.93244 82.6879 8.26578 82.4952C8.76578 82.2191 9.38036 81.9691 10.1304 81.7764C10.1616 81.7764 10.2137 81.7764 10.2449 81.7764C10.3804 81.8024 10.4637 81.9431 10.4377 82.0785C10.271 82.8545 10.047 83.4952 9.77099 84.0212C9.57307 84.3806 9.38036 84.6566 9.1564 84.9066C9.43765 85.0472 9.73974 85.2712 10.021 85.5212C10.4377 85.9066 10.8543 86.4066 11.3022 87.0733C11.3283 87.0993 11.3283 87.1566 11.3595 87.2087C11.3595 87.3493 11.2449 87.4899 11.1043 87.516C10.3283 87.5733 9.63036 87.5733 9.07307 87.4899C8.68244 87.4327 8.32307 87.3233 8.04182 87.1827C7.98974 87.4899 7.87515 87.8233 7.70849 88.1827C7.45849 88.6827 7.12515 89.266 6.62515 89.8441C6.5939 89.8754 6.56786 89.9274 6.51057 89.9274C6.36994 89.9847 6.20328 89.9274 6.15119 89.792C5.8439 89.0681 5.64598 88.4066 5.53661 87.8493C5.47932 87.4587 5.45328 87.0733 5.51057 86.766C5.17724 86.8233 4.83869 86.8233 4.42203 86.766C3.86474 86.7139 3.19807 86.516 2.47411 86.266C2.44807 86.2399 2.39078 86.2399 2.36474 86.1827C2.27619 86.0733 2.27619 85.9066 2.39078 85.7972C3.00015 85.2712 3.55744 84.8806 4.06265 84.6306C4.42203 84.4639 4.75536 84.3285 5.06265 84.2712C4.97932 84.0212 4.86994 83.6879 4.78661 83.3024ZM5.31265 83.1879C5.42723 83.6879 5.56265 84.0785 5.78661 84.3806C5.86994 84.4952 5.8439 84.6566 5.72932 84.7712C5.67723 84.7972 5.61994 84.8233 5.56265 84.8233C5.20328 84.8233 4.78661 84.9379 4.33869 85.1566C3.97932 85.3545 3.55744 85.6045 3.14078 85.9327C3.64078 86.0993 4.11474 86.2139 4.50536 86.266C5.00536 86.3233 5.42723 86.2972 5.78661 86.1827C5.92723 86.1306 6.0939 86.2139 6.11994 86.3493C6.15119 86.4066 6.15119 86.4639 6.11994 86.516C6.01057 86.8493 5.98453 87.292 6.06786 87.792C6.11994 88.2087 6.26057 88.6827 6.45849 89.1827C6.76057 88.766 7.01057 88.3493 7.18244 87.9899C7.40119 87.542 7.48453 87.1306 7.48453 86.766C7.48453 86.6306 7.59911 86.4899 7.76578 86.4899C7.82307 86.4899 7.9064 86.516 7.93244 86.5472C8.23974 86.766 8.63036 86.9066 9.13036 86.9899C9.54703 87.0472 10.021 87.0733 10.5522 87.0472C10.2449 86.6306 9.93765 86.266 9.63036 85.9899C9.27099 85.6566 8.9064 85.4066 8.54703 85.2972C8.4064 85.2399 8.32307 85.1045 8.37515 84.9639C8.4064 84.9066 8.43244 84.8545 8.48974 84.8233C8.79703 84.6045 9.04703 84.2972 9.29703 83.8285C9.48974 83.4639 9.6564 82.9952 9.79703 82.4691C9.29703 82.6358 8.84911 82.8024 8.48974 83.0212C8.04182 83.2712 7.70848 83.5472 7.51578 83.8285C7.43244 83.9379 7.26578 83.9952 7.12515 83.9118C7.06786 83.8806 7.04182 83.8285 7.01057 83.7712C6.90119 83.4118 6.67723 83.0785 6.31786 82.6879C6.01057 82.3858 5.64598 82.1045 5.20328 81.8024L5.31265 83.1879Z" fill="#1D272A"/>
</g>
<mask id="mask4_2482_12543" style="mask-type:luminance" maskUnits="userSpaceOnUse" x="0" y="72" width="20" height="25">
<path d="M0.546875 72.6671H20V96.2243H0.546875V72.6671Z" fill="white"/>
</mask>
<g mask="url(#mask4_2482_12543)">
<path fill-rule="evenodd" clip-rule="evenodd" d="M15.6458 72.8441C16.3437 74.3389 16.5625 75.5056 16.3437 76.3649C17.177 76.0056 18.375 76.1149 19.9895 76.641C18.7916 77.7504 17.7343 78.3337 16.8437 78.391C17.427 79.0577 17.7083 80.2504 17.7083 81.9431C16.2604 81.1358 15.3958 80.3337 15.0625 79.5004C14.5885 80.2764 13.5573 80.9118 11.9427 81.4118C12.276 79.8024 12.776 78.7243 13.4479 78.141C12.5573 77.9483 11.6354 77.141 10.6614 75.7816C12.302 75.5889 13.5 75.7243 14.2552 76.1983C14.1718 75.3129 14.6458 74.1722 15.6458 72.8441ZM13.8906 84.74C15.1458 86.2139 15.7552 87.4587 15.7864 88.4847C16.6198 87.8233 18.0156 87.5733 19.9635 87.6827C18.9583 89.3181 17.9583 90.292 16.9531 90.6254C17.8177 91.2035 18.5156 92.4275 19.0156 94.3389C17.151 93.8962 15.8958 93.2295 15.2864 92.4275C15.0052 93.4275 14.0312 94.4795 12.3854 95.5316C12.25 93.6202 12.4687 92.2347 13.0573 91.4014C12 91.4535 10.7187 90.8441 9.18746 89.5993C10.9687 88.8754 12.3593 88.6514 13.3645 88.9587C13 87.99 13.1666 86.5733 13.8906 84.74ZM3.3385 80.9118C3.28121 82.4118 3.47392 83.4952 3.97913 84.1306C3.14058 84.1306 2.16663 84.6306 0.994751 85.6306C2.41663 86.1566 3.50517 86.2972 4.25517 86.016C4.00517 86.7972 4.17183 87.8754 4.75517 89.292C5.70308 88.1254 6.151 87.1306 6.151 86.3233C6.81767 86.8233 7.90621 86.99 9.43746 86.8493C8.59892 85.6045 7.79163 84.8545 7.01038 84.6045C7.68225 84.1306 8.18225 83.1358 8.54683 81.6358C7.09371 82.0525 6.151 82.5785 5.67704 83.2452C5.45309 82.4952 4.64579 81.6931 3.3385 80.9118Z" fill="#FFF458"/>
</g>
<mask id="mask5_2482_12543" style="mask-type:luminance" maskUnits="userSpaceOnUse" x="0" y="71" width="22" height="26">
<path d="M0.546875 71.3329H21.3333V96.2235H0.546875V71.3329Z" fill="white"/>
</mask>
<g mask="url(#mask5_2482_12543)">
<path d="M15.8959 72.7027C16.2605 73.4788 16.4792 74.1454 16.6198 74.7548C16.7032 75.1975 16.7344 75.5881 16.7032 75.9475C17.0678 75.8642 17.4844 75.8381 17.9271 75.8642C18.5678 75.9215 19.2917 76.0881 20.1042 76.3642C20.2396 76.4215 20.323 76.5569 20.2709 76.6975C20.2396 76.7548 20.2136 76.7809 20.1876 76.8069C19.573 77.3902 18.9896 77.8069 18.4324 78.1142C18.0417 78.3329 17.6771 78.4736 17.3438 78.5569C17.5417 78.859 17.6771 79.2496 17.7917 79.6663C17.9271 80.2756 18.0157 81.0256 17.9844 81.885C17.9844 82.0256 17.8751 82.1611 17.7084 82.1611C17.6511 82.1611 17.5938 82.1611 17.5678 82.135C16.8438 81.7184 16.2292 81.3017 15.7865 80.885C15.4532 80.5829 15.198 80.2756 15.0053 79.9684C14.7553 80.2496 14.448 80.4996 14.0573 80.7496C13.5313 81.0777 12.8334 81.385 12.0001 81.635C11.8594 81.6923 11.6928 81.609 11.6615 81.4684C11.6615 81.4111 11.6615 81.385 11.6615 81.3277C11.8282 80.4996 12.0521 79.8017 12.3021 79.2496C12.5001 78.859 12.6928 78.4996 12.9428 78.2496C12.6094 78.1142 12.2761 77.8902 11.9167 77.5829C11.4428 77.1663 10.9376 76.6142 10.4376 75.9215C10.3542 75.8069 10.3803 75.6402 10.4948 75.5309C10.5521 75.5048 10.6042 75.4788 10.6355 75.4788C11.4688 75.3642 12.1928 75.3642 12.8073 75.4475C13.2501 75.5048 13.6146 75.5881 13.948 75.7236C13.974 75.3642 14.0886 74.9788 14.2553 74.5621C14.5053 73.9788 14.8646 73.3381 15.3959 72.6454C15.4792 72.5361 15.6459 72.51 15.7865 72.5934C15.8386 72.6454 15.8698 72.6767 15.8959 72.7027ZM16.0938 74.8954C16.0105 74.4475 15.8386 73.9215 15.5886 73.3694C15.2292 73.8694 14.9792 74.3381 14.7813 74.7809C14.5573 75.3121 14.474 75.7548 14.5053 76.1715C14.5053 76.2236 14.5053 76.2809 14.448 76.3381C14.3646 76.4736 14.198 76.5048 14.0573 76.4215C13.724 76.1975 13.2813 76.0569 12.6928 76.0048C12.2501 75.9475 11.7188 75.9475 11.1355 76.0048C11.5261 76.5048 11.8855 76.8902 12.2188 77.1975C12.6407 77.5569 13.0573 77.7809 13.474 77.8902C13.5313 77.8902 13.5834 77.9475 13.6146 77.9736C13.698 78.0829 13.698 78.2496 13.5573 78.359C13.2501 78.609 12.974 78.9996 12.7501 79.4996C12.5573 79.9163 12.3855 80.4163 12.2501 81.0256C12.8334 80.8277 13.3334 80.5829 13.7501 80.359C14.224 80.0517 14.5886 79.7496 14.7813 79.4163C14.8126 79.359 14.8646 79.3329 14.9219 79.3069C15.0626 79.2496 15.2292 79.3069 15.2865 79.4423C15.4219 79.8329 15.7032 80.1923 16.1198 80.5829C16.4532 80.885 16.8699 81.2184 17.4011 81.5256C17.3751 80.9111 17.3178 80.385 17.2032 79.9423C17.0678 79.3902 16.8699 78.9736 16.5938 78.6663C16.5626 78.609 16.5365 78.5569 16.5365 78.4996C16.5365 78.359 16.6511 78.2236 16.8178 78.2236C17.2032 78.1923 17.6511 78.0569 18.1511 77.7809C18.5417 77.5569 18.9896 77.2496 19.4324 76.8642C18.823 76.6975 18.2917 76.5881 17.8178 76.5309C17.2605 76.4736 16.7865 76.5309 16.4271 76.6975C16.3699 76.7236 16.3126 76.7236 16.2605 76.7236C16.1199 76.6975 16.0365 76.5569 16.0626 76.3902C16.2032 75.9215 16.1771 75.4475 16.0938 74.8954ZM14.1146 84.5777C14.7553 85.3225 15.2292 86.0152 15.5365 86.6559C15.7865 87.1298 15.9219 87.5986 16.0105 88.0152C16.3959 87.7913 16.8699 87.6246 17.4011 87.5152C18.1251 87.3746 18.9896 87.3225 19.9896 87.3746C20.1303 87.3746 20.2396 87.5152 20.2396 87.6559C20.2396 87.7079 20.2136 87.7392 20.2136 87.7652C19.6824 88.5986 19.1824 89.2652 18.6511 89.7913C18.2657 90.1767 17.9011 90.4579 17.5105 90.6506C17.8438 90.9579 18.1251 91.3434 18.4011 91.8173C18.7657 92.4527 19.073 93.26 19.323 94.2288C19.349 94.3694 19.2657 94.5361 19.1251 94.5621C19.073 94.5881 19.0157 94.5881 18.9896 94.5621C18.0417 94.3381 17.2344 94.0361 16.5938 93.7288C16.1199 93.4788 15.7292 93.2027 15.4219 92.8954C15.2292 93.2861 14.948 93.7027 14.5886 94.0881C14.0886 94.6194 13.4167 95.1715 12.5573 95.7288C12.4167 95.8121 12.2501 95.7809 12.1928 95.6454C12.1667 95.6142 12.1667 95.5621 12.1667 95.5309C12.0834 94.5621 12.1094 93.7027 12.2188 93.01C12.3021 92.4788 12.4428 92.01 12.6407 91.6194C12.1928 91.5673 11.7188 91.4267 11.2188 91.2027C10.5521 90.9006 9.82298 90.4267 9.04693 89.7913C8.93235 89.7079 8.90631 89.5152 9.01568 89.4006C9.04693 89.3746 9.09902 89.3486 9.13027 89.3173C10.0469 88.9579 10.8542 88.7079 11.5521 88.5986C12.0834 88.5152 12.5573 88.5152 12.974 88.5673C12.8907 88.1559 12.8907 87.6559 12.9428 87.1298C13.0261 86.4059 13.2501 85.5725 13.6146 84.6298C13.6667 84.4944 13.8334 84.4111 13.974 84.4631C14.0573 84.5204 14.0886 84.5465 14.1146 84.5777ZM15.0626 86.9059C14.8126 86.4059 14.448 85.8538 13.974 85.2704C13.724 85.9892 13.5573 86.6298 13.5001 87.1819C13.4167 87.8486 13.474 88.4059 13.6407 88.8486C13.6667 88.9006 13.6667 88.9579 13.6407 89.0413C13.5834 89.1819 13.448 89.2652 13.3073 89.234C12.8594 89.0986 12.2761 89.0673 11.6355 89.1819C11.0782 89.2652 10.4636 89.4319 9.77089 89.6819C10.3803 90.1506 10.9376 90.484 11.4688 90.734C12.0834 91.01 12.6094 91.1506 13.1094 91.1194C13.1667 91.1194 13.224 91.1194 13.2813 91.1767C13.3907 91.26 13.4167 91.4267 13.3334 91.5673C13.0573 91.9527 12.8594 92.4788 12.7761 93.1194C12.6928 93.6715 12.6667 94.3381 12.6928 95.0621C13.3334 94.6194 13.8334 94.2027 14.224 93.7861C14.6719 93.3121 14.948 92.8434 15.0886 92.3954C15.0886 92.3434 15.1459 92.2861 15.198 92.234C15.3126 92.1506 15.4792 92.1506 15.5886 92.26C15.8699 92.6454 16.3126 92.9788 16.9011 93.2861C17.4011 93.5361 18.0157 93.7548 18.7084 93.9527C18.4844 93.2288 18.2344 92.6194 17.9584 92.1194C17.6251 91.5361 17.2605 91.1194 16.8699 90.8434C16.8178 90.8173 16.7865 90.76 16.7605 90.7079C16.7032 90.5673 16.7865 90.4006 16.9532 90.3434C17.4011 90.1767 17.8751 89.8746 18.349 89.4319C18.7396 89.0413 19.1563 88.5413 19.573 87.9059C18.7917 87.8746 18.1251 87.9319 17.5678 88.0413C16.9271 88.1819 16.3959 88.3746 16.0365 88.6819C15.9792 88.7079 15.9219 88.734 15.8698 88.734C15.7292 88.734 15.5886 88.6246 15.5886 88.484C15.5053 88.0413 15.3698 87.5152 15.0626 86.9059ZM3.17193 82.885C3.05735 82.3277 3.03131 81.6611 3.05735 80.9111C3.05735 80.859 3.05735 80.8017 3.11464 80.7496C3.19797 80.609 3.36464 80.5829 3.47402 80.635C4.14589 81.0517 4.70318 81.4423 5.11985 81.859C5.39589 82.135 5.61985 82.4371 5.78652 82.7184C6.01047 82.4944 6.31777 82.2704 6.6511 82.0777C7.1511 81.8017 7.76568 81.5517 8.51568 81.359C8.54693 81.359 8.59902 81.359 8.63027 81.359C8.76568 81.385 8.84902 81.5256 8.82297 81.6611C8.65631 82.4371 8.43235 83.0777 8.15631 83.6038C7.95839 83.9631 7.76568 84.2444 7.54172 84.4944C7.82297 84.6298 8.12506 84.8538 8.40631 85.1038C8.82297 85.4892 9.23964 85.9892 9.68756 86.6559C9.7136 86.6819 9.7136 86.7392 9.73964 86.7965C9.73964 86.9319 9.63027 87.0725 9.48964 87.0986C8.7136 87.1559 8.01568 87.1559 7.45839 87.0725C7.06777 87.0152 6.70839 86.9059 6.42714 86.7652C6.36985 87.0725 6.26047 87.4059 6.09381 87.7652C5.84381 88.2652 5.51047 88.8486 5.00527 89.4319C4.97922 89.4579 4.95318 89.5152 4.89589 89.5152C4.75527 89.5673 4.5886 89.5152 4.53652 89.3746C4.22922 88.6506 4.03131 87.9892 3.92193 87.4319C3.86464 87.0465 3.8386 86.6559 3.89589 86.3486C3.55735 86.4059 3.22402 86.4059 2.80735 86.3486C2.25006 86.2965 1.58339 86.0986 0.859432 85.8538C0.828183 85.8225 0.776098 85.8225 0.744849 85.7704C0.661516 85.6559 0.661516 85.4892 0.776099 85.3798C1.38547 84.8538 1.94276 84.4631 2.44797 84.2131C2.80735 84.0465 3.14068 83.9111 3.44797 83.8538C3.36464 83.6038 3.25527 83.2704 3.17193 82.885ZM3.69797 82.7704C3.81256 83.2704 3.94798 83.6611 4.17193 83.9631C4.25527 84.0777 4.22922 84.2444 4.11464 84.3538C4.06256 84.3798 4.00526 84.4111 3.94797 84.4111C3.5886 84.4111 3.17193 84.5204 2.72402 84.7392C2.36464 84.9371 1.94277 85.1871 1.5261 85.5204C2.0261 85.6871 2.50006 85.7965 2.89068 85.8538C3.39068 85.9059 3.81256 85.8798 4.17193 85.7704C4.31256 85.7131 4.47922 85.7965 4.50527 85.9319C4.53652 85.9892 4.53652 86.0465 4.50527 86.0986C4.39589 86.4319 4.36464 86.8798 4.45318 87.3746C4.50527 87.7913 4.64589 88.2652 4.8386 88.7652C5.14589 88.3486 5.39589 87.9319 5.56256 87.5725C5.78652 87.1298 5.86985 86.7131 5.86985 86.3486C5.86985 86.2131 5.98443 86.0725 6.1511 86.0725C6.20318 86.0725 6.28652 86.0986 6.31777 86.1298C6.62506 86.3486 7.01047 86.4892 7.51568 86.5725C7.93235 86.6298 8.40631 86.6559 8.93235 86.6298C8.63027 86.2131 8.32297 85.8538 8.01568 85.5725C7.6511 85.2392 7.29172 84.9892 6.92714 84.8798C6.79172 84.8225 6.70839 84.6871 6.76047 84.5465C6.79172 84.4944 6.81777 84.4371 6.87506 84.4111C7.18235 84.1871 7.43235 83.8798 7.68235 83.4111C7.87506 83.0517 8.04172 82.5777 8.18235 82.0517C7.68235 82.2184 7.23443 82.385 6.87506 82.6038C6.42714 82.8538 6.09381 83.135 5.9011 83.4111C5.81777 83.5204 5.64589 83.5777 5.51047 83.4944C5.45318 83.4631 5.42714 83.4111 5.39589 83.3538C5.28652 82.9944 5.06256 82.6611 4.70318 82.2704C4.39589 81.9684 4.03131 81.6923 3.5886 81.385L3.69797 82.7704Z" fill="#1D272A"/>
</g>
<path d="M74.4063 24.2707C74.2969 24.38 74.1302 24.38 74.0469 24.2707C73.9636 24.1561 73.9636 23.9894 74.0729 23.88L75.9688 22.0467L73.8229 20.7186C73.7083 20.6352 73.6823 20.4686 73.7656 20.3592C73.849 20.2186 74.0156 20.1925 74.1302 20.2759L76.3854 21.6613L78.25 19.8592C78.3594 19.7446 78.5313 19.7446 78.6146 19.8592C78.6979 19.9686 78.6979 20.1352 78.5833 20.2446L76.8021 21.9634L78.5573 23.0467C78.6667 23.13 78.6979 23.2967 78.6146 23.4061C78.5313 23.5467 78.3594 23.5727 78.25 23.4894L76.3854 22.3279L74.4063 24.2707ZM86.5781 14.6404C86.4636 14.5571 86.4636 14.3904 86.5781 14.255C86.6875 14.1457 86.8542 14.1144 86.9375 14.1977L88.0833 15.1977L89.5833 13.8123C89.6979 13.6977 89.8646 13.6977 89.9479 13.8123C90.0313 13.9217 90.0313 14.0884 89.9167 14.1977L88.4688 15.5311L89.724 16.6144C89.8333 16.6977 89.8333 16.8592 89.724 16.9998C89.6146 17.1092 89.4479 17.1404 89.3646 17.0571L88.0521 15.9165L86.6042 17.2238C86.4948 17.3332 86.3281 17.3332 86.2448 17.2238C86.1615 17.1092 86.1615 16.9425 86.2708 16.8332L87.6615 15.5571L86.5781 14.6404ZM87.1042 20.7186C86.9948 20.6352 86.9948 20.4686 87.1042 20.3279C87.2188 20.2186 87.3854 20.1925 87.4688 20.3019L88.9427 21.6352L90.2552 20.0519C90.3646 19.9425 90.5313 19.9113 90.6146 19.9946C90.7292 20.0779 90.7292 20.2446 90.6406 20.3852L89.3073 21.9634L90.7292 23.2394C90.8386 23.3227 90.8386 23.4894 90.7292 23.63C90.6146 23.7394 90.4479 23.7707 90.3646 23.6561L88.9427 22.38L87.9688 23.5467C87.8594 23.6561 87.6927 23.6873 87.6094 23.604C87.4948 23.5207 87.4948 23.354 87.5781 23.2134L88.5521 22.0467L87.1042 20.7186ZM79.9792 14.255C79.8646 14.1457 79.8646 13.979 79.9792 13.8644C80.0886 13.755 80.2552 13.755 80.3386 13.8384L81.5625 15.005L82.8438 13.6717C82.9583 13.5623 83.125 13.5623 83.2083 13.6457C83.3177 13.755 83.2917 13.9217 83.2083 14.0311L81.9271 15.3644L83.2917 16.6665C83.4011 16.7759 83.4011 16.9425 83.2917 17.0571C83.1771 17.1665 83.0104 17.1665 82.9271 17.0832L81.5625 15.7811L80.3646 16.9998C80.2552 17.1092 80.0886 17.1092 80.0052 17.0259C79.8958 16.9165 79.9219 16.7498 80.0052 16.6404L81.2031 15.4217L79.9792 14.255ZM80.5365 20.9686C80.4219 20.8852 80.4219 20.7186 80.5052 20.6092C80.5886 20.4946 80.7552 20.4686 80.8698 20.5519L82.3698 21.7446L83.5417 20.3279C83.625 20.2186 83.7917 20.1925 83.9011 20.2759C84.0156 20.3592 84.0156 20.5259 83.9323 20.6613L82.7604 22.0779L84.4063 23.38C84.5156 23.4634 84.5156 23.63 84.4323 23.7394C84.349 23.854 84.1823 23.88 84.0729 23.7967L82.4011 22.4946L81.4271 23.6873C81.3438 23.7967 81.1719 23.8227 81.0625 23.7394C80.9531 23.6561 80.9531 23.4894 81.0365 23.354L82.0104 22.1613L80.5365 20.9686ZM74.9375 13.3957C74.8542 13.2811 74.8802 13.1144 75.0208 13.005C75.1302 12.9217 75.2969 12.9217 75.3802 13.0623L76.4688 14.6144L77.7188 13.5884C77.8333 13.479 78 13.505 78.0833 13.6144C78.1667 13.729 78.1406 13.8957 78.0261 14.005L76.7448 15.0571L77.7761 16.5311C77.8594 16.6404 77.8333 16.8071 77.6927 16.9165C77.5833 16.9998 77.4167 16.9998 77.3333 16.8592L76.3021 15.3904L74.349 16.9998C74.2396 17.1092 74.0729 17.0832 73.9896 16.9738C73.9063 16.8592 73.9323 16.6977 74.0469 16.5832L76.0208 14.9477L74.9375 13.3957Z" fill="#FFF458"/>
</svg>
