<svg width="18" height="17" viewBox="0 0 18 17" fill="none" xmlns="http://www.w3.org/2000/svg">
<mask id="mask0_403_1267" style="mask-type:luminance" maskUnits="userSpaceOnUse" x="0" y="0" width="18" height="17">
<path d="M0 0H18V17H0V0Z" fill="white"/>
</mask>
<g mask="url(#mask0_403_1267)">
<mask id="mask1_403_1267" style="mask-type:luminance" maskUnits="userSpaceOnUse" x="0" y="0" width="18" height="17">
<path d="M0.251773 0H17.7325C17.8715 0 17.9843 0.109148 17.9843 0.243679V16.7563C17.9843 16.8911 17.8715 17 17.7325 17H0.251773C0.112773 17 0 16.8911 0 16.7563V0.243679C0 0.109148 0.112773 0 0.251773 0Z" fill="white"/>
</mask>
<g mask="url(#mask1_403_1267)">
<path d="M0 0H17.9764V17H0V0Z" fill="black"/>
</g>
</g>
<mask id="mask2_403_1267" style="mask-type:luminance" maskUnits="userSpaceOnUse" x="3" y="3" width="12" height="12">
<path d="M3.31061 3.00122H14.6823V14.0074H3.31061V3.00122Z" fill="white"/>
</mask>
<g mask="url(#mask2_403_1267)">
<path fill-rule="evenodd" clip-rule="evenodd" d="M8.99189 3.00122C12.1165 3.00122 14.6732 5.47566 14.6732 8.49986C14.6732 11.5243 12.1165 13.9985 8.99189 13.9985C5.86724 13.9985 3.31061 11.5243 3.31061 8.49986C3.31061 5.47566 5.86724 3.00122 8.99189 3.00122ZM8.99189 3.61042C6.21321 3.61042 3.93982 5.81072 3.93982 8.49986C3.93982 11.1892 6.21321 13.3895 8.99189 13.3895C11.7706 13.3895 14.0439 11.1892 14.0439 8.49986C14.0439 5.81072 11.7706 3.61042 8.99189 3.61042Z" fill="white"/>
</g>
<path d="M8.99189 6.6929H7.3958C7.33788 6.6929 7.29089 6.64742 7.29089 6.59137V6.0397C7.29089 5.98365 7.33788 5.93817 7.3958 5.93817C7.39886 5.93817 7.4017 5.93838 7.40476 5.93859C7.43929 5.93817 7.5772 5.93394 7.68779 5.88867C7.82744 5.83177 7.81345 5.6543 7.80121 5.4965C7.79728 5.44616 7.79335 5.39751 7.79335 5.35288C7.79335 5.29682 7.84034 5.25134 7.89825 5.25134H10.0855C10.1434 5.25134 10.1904 5.29682 10.1904 5.35288C10.1904 5.39751 10.1865 5.44616 10.1828 5.4965C10.1703 5.6543 10.1563 5.83177 10.296 5.88867C10.421 5.93965 10.581 5.93859 10.5871 5.93859V5.93817C10.645 5.93775 10.6924 5.98259 10.6929 6.03865V6.59137C10.6929 6.64742 10.6461 6.6929 10.588 6.6929H8.99189Z" fill="white"/>
<path fill-rule="evenodd" clip-rule="evenodd" d="M7.53479 8.48958C7.49677 8.44748 7.50092 8.38339 7.54441 8.34637C7.58768 8.30936 7.65391 8.31337 7.69215 8.35547L7.82044 8.49656L8.2051 8.14119C8.24684 8.10269 8.31306 8.10417 8.35284 8.14479C8.39283 8.18519 8.39108 8.24928 8.34934 8.28778L7.89169 8.71083C7.88885 8.71358 7.88623 8.71633 7.88317 8.71887C7.83968 8.75589 7.77345 8.75187 7.73521 8.70978V8.70956L7.53479 8.48958ZM8.2051 9.20411C8.24684 9.16562 8.31306 9.1671 8.35284 9.2075C8.39283 9.24811 8.39108 9.3122 8.34934 9.3507L7.89169 9.77376C7.88885 9.77651 7.88623 9.77926 7.88317 9.78179C7.83968 9.81881 7.77345 9.81479 7.73521 9.7727L7.53479 9.5525C7.49677 9.51041 7.50092 9.44631 7.54441 9.4093C7.58768 9.37228 7.65391 9.3763 7.69215 9.41839L7.82044 9.55948L8.2051 9.20411ZM9.32234 10.5545C9.32234 10.4982 9.36933 10.453 9.42702 10.453H10.3703C10.4282 10.453 10.475 10.4982 10.475 10.5545C10.475 10.6106 10.4282 10.656 10.3703 10.656H9.42702C9.36933 10.656 9.32234 10.6106 9.32234 10.5545ZM7.54441 10.4722C7.58768 10.4352 7.65391 10.4394 7.69215 10.4813L7.82044 10.6224L8.2051 10.267C8.24684 10.2285 8.31306 10.23 8.35284 10.2706C8.39283 10.311 8.39108 10.3751 8.34934 10.4136L7.89169 10.8367C7.88885 10.8394 7.88623 10.8422 7.88317 10.8447C7.83968 10.8817 7.77345 10.8777 7.73521 10.8356L7.53479 10.6154C7.49677 10.5733 7.50092 10.5092 7.54441 10.4722ZM9.32234 9.49158C9.32234 9.43552 9.36933 9.39005 9.42702 9.39005H10.3703C10.4282 9.39005 10.475 9.43552 10.475 9.49158C10.475 9.54763 10.4282 9.59311 10.3703 9.59311H9.42702C9.36933 9.59311 9.32234 9.54763 9.32234 9.49158ZM9.32234 8.42866C9.32234 8.3726 9.36933 8.32712 9.42702 8.32712H10.3703C10.4282 8.32712 10.475 8.3726 10.475 8.42866C10.475 8.48471 10.4282 8.53019 10.3703 8.53019H9.42702C9.36933 8.53019 9.32234 8.48471 9.32234 8.42866ZM7.18598 6.17188H7.04196C6.88635 6.17188 6.74495 6.23343 6.64266 6.33242C6.54016 6.43163 6.47656 6.56828 6.47656 6.71888V11.2011C6.47656 11.3517 6.54016 11.4886 6.64266 11.5876C6.74495 11.6868 6.88635 11.7484 7.04196 11.7484H10.9418C11.0974 11.7484 11.2388 11.6868 11.3411 11.5876C11.4436 11.4886 11.5072 11.3517 11.5072 11.2011V6.71888C11.5072 6.56828 11.4436 6.43163 11.3411 6.33242C11.2388 6.23343 11.0974 6.17188 10.9418 6.17188H10.7978V6.59133C10.7978 6.70344 10.7038 6.7944 10.588 6.7944H7.3958C7.27996 6.7944 7.18598 6.70344 7.18598 6.59133V6.17188ZM9.32234 7.36573C9.32234 7.30968 9.36933 7.2642 9.42702 7.2642H10.3703C10.4282 7.2642 10.475 7.30968 10.475 7.36573C10.475 7.42179 10.4282 7.46727 10.3703 7.46727H9.42702C9.36933 7.46727 9.32234 7.42179 9.32234 7.36573ZM7.53479 7.42665C7.49677 7.38456 7.50092 7.32047 7.54441 7.28345C7.58768 7.24643 7.65391 7.25045 7.69215 7.29254L7.82044 7.43363L8.2051 7.07827C8.24684 7.03956 8.31306 7.04125 8.35284 7.08186C8.39283 7.12227 8.39108 7.18636 8.34934 7.22486L7.89169 7.64791C7.88885 7.65066 7.88623 7.65341 7.88317 7.65595C7.83968 7.69297 7.77345 7.68895 7.73521 7.64685L7.53479 7.42665Z" fill="white"/>
</svg>
