<svg width="38" height="38" viewBox="0 0 38 38" fill="none" xmlns="http://www.w3.org/2000/svg">
<mask id="mask0_2482_10030" style="mask-type:luminance" maskUnits="userSpaceOnUse" x="0" y="0" width="38" height="38">
<path d="M0.46875 0.15625H37.4688V37.1562H0.46875V0.15625Z" fill="white"/>
</mask>
<g mask="url(#mask0_2482_10030)">
<path d="M15.599 0.224C7.20838 0.312541 0.479217 7.19275 0.567758 15.5834C0.661509 23.974 7.54172 30.7032 15.9323 30.6094C19.0313 30.5782 22.0469 29.5938 24.573 27.7969L33.2501 36.474C34.2448 37.4584 35.8438 37.448 36.8282 36.4532C37.7969 35.4688 37.7969 33.8855 36.8282 32.9011L28.1459 24.224C33.0105 17.3855 31.4115 7.89587 24.573 3.03129C21.9532 1.17192 18.8125 0.187541 15.599 0.224ZM15.4167 2.85421C22.3438 2.65629 28.1198 8.11983 28.3126 15.0521C28.3178 15.1719 28.3178 15.2917 28.3178 15.4167C28.323 22.349 22.7032 27.9688 15.7709 27.974C8.83859 27.9792 3.21359 22.3594 3.21359 15.4271C3.21359 15.4219 3.21359 15.4219 3.21359 15.4167C3.20318 8.61463 8.61463 3.04171 15.4167 2.85421Z" fill="#8C52FF"/>
</g>
<path d="M12.375 6.1042C13.0625 5.85941 13.8177 6.21878 14.0677 6.90629C14.3125 7.58858 13.9583 8.33858 13.2813 8.58858C10.4115 9.63545 8.5 12.3646 8.5 15.4167C8.5 16.1459 7.90625 16.7396 7.17708 16.7396C6.44792 16.7396 5.85938 16.1459 5.85938 15.4167C5.85938 11.25 8.46354 7.53129 12.375 6.1042Z" fill="#8C52FF"/>
</svg>
