<svg width="85" height="85" viewBox="0 0 85 85" fill="none" xmlns="http://www.w3.org/2000/svg">
<circle cx="42.5" cy="42.5" r="42.5" fill="#8C52FF"/>
<circle cx="41.5" cy="41.5" r="27" stroke="white"/>
<mask id="path-3-inside-1_462_2502" fill="white">
<path d="M38 30C38 29.3434 37.8707 28.6932 37.6194 28.0866C37.3681 27.48 36.9998 26.9288 36.5355 26.4645C36.0712 26.0002 35.52 25.6319 34.9134 25.3806C34.3068 25.1293 33.6566 25 33 25C32.3434 25 31.6932 25.1293 31.0866 25.3806C30.48 25.6319 29.9288 26.0002 29.4645 26.4645C29.0002 26.9288 28.6319 27.48 28.3806 28.0866C28.1293 28.6932 28 29.3434 28 30H28.7779C28.7779 29.4455 28.8871 28.8965 29.0993 28.3843C29.3114 27.872 29.6224 27.4066 30.0145 27.0145C30.4066 26.6224 30.872 26.3114 31.3843 26.0993C31.8965 25.8871 32.4455 25.7779 33 25.7779C33.5545 25.7779 34.1035 25.8871 34.6157 26.0993C35.128 26.3114 35.5934 26.6224 35.9855 27.0145C36.3776 27.4066 36.6886 27.872 36.9007 28.3843C37.1129 28.8965 37.2221 29.4455 37.2221 30H38Z"/>
</mask>
<path d="M38 30C38 29.3434 37.8707 28.6932 37.6194 28.0866C37.3681 27.48 36.9998 26.9288 36.5355 26.4645C36.0712 26.0002 35.52 25.6319 34.9134 25.3806C34.3068 25.1293 33.6566 25 33 25C32.3434 25 31.6932 25.1293 31.0866 25.3806C30.48 25.6319 29.9288 26.0002 29.4645 26.4645C29.0002 26.9288 28.6319 27.48 28.3806 28.0866C28.1293 28.6932 28 29.3434 28 30H28.7779C28.7779 29.4455 28.8871 28.8965 29.0993 28.3843C29.3114 27.872 29.6224 27.4066 30.0145 27.0145C30.4066 26.6224 30.872 26.3114 31.3843 26.0993C31.8965 25.8871 32.4455 25.7779 33 25.7779C33.5545 25.7779 34.1035 25.8871 34.6157 26.0993C35.128 26.3114 35.5934 26.6224 35.9855 27.0145C36.3776 27.4066 36.6886 27.872 36.9007 28.3843C37.1129 28.8965 37.2221 29.4455 37.2221 30H38Z" stroke="white" stroke-width="2" mask="url(#path-3-inside-1_462_2502)"/>
<mask id="path-4-inside-2_462_2502" fill="white">
<path d="M53 30C53 29.3434 52.8707 28.6932 52.6194 28.0866C52.3681 27.48 51.9998 26.9288 51.5355 26.4645C51.0712 26.0002 50.52 25.6319 49.9134 25.3806C49.3068 25.1293 48.6566 25 48 25C47.3434 25 46.6932 25.1293 46.0866 25.3806C45.48 25.6319 44.9288 26.0002 44.4645 26.4645C44.0002 26.9288 43.6319 27.48 43.3806 28.0866C43.1293 28.6932 43 29.3434 43 30H43.776C43.776 29.4453 43.8853 28.896 44.0975 28.3836C44.3098 27.8711 44.621 27.4054 45.0132 27.0132C45.4054 26.621 45.8711 26.3098 46.3836 26.0975C46.896 25.8853 47.4453 25.776 48 25.776C48.5547 25.776 49.104 25.8853 49.6164 26.0975C50.1289 26.3098 50.5946 26.621 50.9868 27.0132C51.379 27.4054 51.6902 27.8711 51.9025 28.3836C52.1147 28.896 52.224 29.4453 52.224 30H53Z"/>
</mask>
<path d="M53 30C53 29.3434 52.8707 28.6932 52.6194 28.0866C52.3681 27.48 51.9998 26.9288 51.5355 26.4645C51.0712 26.0002 50.52 25.6319 49.9134 25.3806C49.3068 25.1293 48.6566 25 48 25C47.3434 25 46.6932 25.1293 46.0866 25.3806C45.48 25.6319 44.9288 26.0002 44.4645 26.4645C44.0002 26.9288 43.6319 27.48 43.3806 28.0866C43.1293 28.6932 43 29.3434 43 30H43.776C43.776 29.4453 43.8853 28.896 44.0975 28.3836C44.3098 27.8711 44.621 27.4054 45.0132 27.0132C45.4054 26.621 45.8711 26.3098 46.3836 26.0975C46.896 25.8853 47.4453 25.776 48 25.776C48.5547 25.776 49.104 25.8853 49.6164 26.0975C50.1289 26.3098 50.5946 26.621 50.9868 27.0132C51.379 27.4054 51.6902 27.8711 51.9025 28.3836C52.1147 28.896 52.224 29.4453 52.224 30H53Z" stroke="white" stroke-width="4" mask="url(#path-4-inside-2_462_2502)"/>
<mask id="path-5-inside-3_462_2502" fill="white">
<path d="M58 36.5C58 41.1413 56.1563 45.5925 52.8744 48.8744C49.5925 52.1563 45.1413 54 40.5 54C35.8587 54 31.4075 52.1563 28.1256 48.8744C24.8437 45.5925 23 41.1413 23 36.5H24.0458C24.0458 40.8639 25.7794 45.0491 28.8651 48.1349C31.9509 51.2206 36.1361 52.9542 40.5 52.9542C44.8639 52.9542 49.0491 51.2206 52.1349 48.1349C55.2206 45.0491 56.9542 40.8639 56.9542 36.5H58Z"/>
</mask>
<path d="M58 36.5C58 41.1413 56.1563 45.5925 52.8744 48.8744C49.5925 52.1563 45.1413 54 40.5 54C35.8587 54 31.4075 52.1563 28.1256 48.8744C24.8437 45.5925 23 41.1413 23 36.5H24.0458C24.0458 40.8639 25.7794 45.0491 28.8651 48.1349C31.9509 51.2206 36.1361 52.9542 40.5 52.9542C44.8639 52.9542 49.0491 51.2206 52.1349 48.1349C55.2206 45.0491 56.9542 40.8639 56.9542 36.5H58Z" stroke="white" stroke-width="2" mask="url(#path-5-inside-3_462_2502)"/>
</svg>
