<svg width="31" height="31" viewBox="0 0 31 31" fill="none" xmlns="http://www.w3.org/2000/svg">
<path d="M30.8491 15.7812C30.8491 24.0678 24.1318 30.7812 15.8491 30.7812C7.56255 30.7812 0.849121 24.0678 0.849121 15.7812C0.849121 7.49861 7.56255 0.78125 15.8491 0.78125C24.1318 0.78125 30.8491 7.49861 30.8491 15.7812Z" fill="white"/>
<path fill-rule="evenodd" clip-rule="evenodd" d="M11.8491 5.78392C11.4204 5.78392 10.9918 6.2126 10.9918 6.64129V9.49656C10.9918 9.92524 11.4204 10.3539 11.8491 10.3539C12.2778 10.3539 12.7065 9.92524 12.7065 9.49656V8.49761C13.1352 8.78471 13.2768 9.21339 13.2768 9.63814C13.2768 10.4955 12.561 11.0697 11.8491 11.0697C10.9918 11.0697 10.4176 10.3539 10.4176 9.63814V7.21156H9.13544C7.42071 7.21156 6.41782 8.49761 6.41782 10.0668L5.56046 23.356C5.56046 23.9263 5.70597 24.4966 5.98914 25.0668C6.41782 25.4955 6.99202 25.7826 7.56229 25.7826H23.1326C25.276 25.7826 25.9918 24.9252 25.8462 22.4987L24.9889 9.21339C24.9889 8.63919 24.7057 8.06892 24.277 7.78182C23.8483 7.49866 23.2781 7.35314 22.7039 7.35314H20.9891V6.64129C20.9891 6.2126 20.5605 5.78392 20.1318 5.78392C19.7031 5.78392 19.2744 6.2126 19.2744 6.64129V9.63814C19.2744 10.0668 19.7031 10.4955 20.1318 10.4955C20.5605 10.4955 20.9891 10.0668 20.9891 9.63814V8.63919C21.4178 8.92629 21.5633 9.35497 21.5633 9.78366C21.5633 10.641 20.8476 11.2113 20.1318 11.2113C19.2744 11.2113 18.7041 10.4955 18.7041 9.78366V7.35314H12.7065V6.64129C12.7065 6.06709 12.4194 5.78392 11.8491 5.78392ZM8.13256 12.2102H23.9899L24.5602 22.6402C24.5602 22.9273 24.5602 23.2105 24.4186 23.356C24.277 23.4976 24.1315 23.6392 23.7028 23.6392H8.41966C7.70387 23.6392 7.56229 23.0689 7.56229 22.6402L8.13256 12.2102ZM10.276 14.3537H12.4194C12.7065 14.3537 12.9897 14.6408 12.9897 14.9239V16.4971C12.9897 16.7842 12.7065 17.0673 12.4194 17.0673H10.276C9.98888 17.0673 9.70571 16.7842 9.70571 16.4971V14.9239C9.84729 14.6408 9.98888 14.3537 10.276 14.3537ZM14.9915 14.3537H17.1349C17.4181 14.3537 17.7052 14.6408 17.7052 14.9239V16.4971C17.7052 16.7842 17.4181 17.0673 17.1349 17.0673H14.9915C14.7044 17.0673 14.4173 16.7842 14.4173 16.4971V14.9239C14.4173 14.6408 14.7044 14.3537 14.9915 14.3537ZM19.5615 14.3537H21.7049C21.992 14.3537 22.2752 14.6408 22.2752 14.9239V16.4971C22.2752 16.7842 21.992 17.0673 21.7049 17.0673H19.5615C19.2744 17.0673 18.9912 16.7842 18.9912 16.4971V14.9239C19.1328 14.6408 19.2744 14.3537 19.5615 14.3537ZM10.276 18.7821H12.4194C12.7065 18.7821 12.9897 19.0692 12.9897 19.3524V20.9255C12.9897 21.2126 12.7065 21.4958 12.4194 21.4958H10.276C9.98888 21.4958 9.70571 21.2126 9.70571 20.9255V19.3524C9.84729 19.0692 9.98888 18.7821 10.276 18.7821ZM14.9915 18.7821H17.1349C17.4181 18.7821 17.7052 19.0692 17.7052 19.3524V20.9255C17.7052 21.2126 17.4181 21.4958 17.1349 21.4958H14.9915C14.7044 21.4958 14.4173 21.2126 14.4173 20.9255V19.3524C14.4173 19.0692 14.7044 18.7821 14.9915 18.7821ZM19.5615 18.7821H21.7049C21.992 18.7821 22.2752 19.0692 22.2752 19.3524V20.9255C22.2752 21.2126 21.992 21.4958 21.7049 21.4958H19.5615C19.2744 21.4958 18.9912 21.2126 18.9912 20.9255V19.3524C19.1328 19.0692 19.2744 18.7821 19.5615 18.7821Z" fill="#8C52FF"/>
</svg>
