<svg width="100" height="30" viewBox="0 0 100 30" fill="none" xmlns="http://www.w3.org/2000/svg">
<mask id="mask0_490_3879" style="mask-type:luminance" maskUnits="userSpaceOnUse" x="0" y="0" width="100" height="30">
<path d="M0 0H100V29.9999H0V0Z" fill="white"/>
</mask>
<g mask="url(#mask0_490_3879)">
<mask id="mask1_490_3879" style="mask-type:luminance" maskUnits="userSpaceOnUse" x="0" y="0" width="100" height="30">
<path d="M84.671 29.9999H15.3448C11.2781 29.9999 7.37823 28.4206 4.50405 25.6081C1.62987 22.7956 0.0119019 18.9795 0.0119019 15C0.0119019 11.0244 1.62987 7.20823 4.50405 4.39574C7.37823 1.58324 11.2781 0 15.3448 0H84.671C88.7338 0 92.6336 1.58324 95.5078 4.39574C98.386 7.20823 100 11.0244 100 15C100 18.9795 98.386 22.7956 95.5078 25.6081C92.6336 28.4206 88.7338 29.9999 84.671 29.9999Z" fill="white"/>
</mask>
<g mask="url(#mask1_490_3879)">
<path d="M99.9999 29.9999H-6.10352e-05V0H99.9999V29.9999Z" fill="#FF3131"/>
</g>
</g>
<mask id="mask2_490_3879" style="mask-type:luminance" maskUnits="userSpaceOnUse" x="0" y="0" width="100" height="30">
<path d="M0.0119629 0.124512H99.9881V30H0.0119629V0.124512Z" fill="white"/>
</mask>
<g mask="url(#mask2_490_3879)">
<mask id="mask3_490_3879" style="mask-type:luminance" maskUnits="userSpaceOnUse" x="0" y="0" width="100" height="30">
<path d="M84.6632 30H15.3568C11.294 30 7.39421 28.4206 4.52003 25.6081C1.64585 22.7956 0.0318604 18.9834 0.0318604 15.0039C0.0318604 11.0283 1.64585 7.21604 4.52003 4.40355C7.39421 1.59106 11.294 0.0078125 15.3568 0.0078125H84.6632C88.7299 0.0078125 92.6258 1.59106 95.5 4.40355C98.3741 7.21604 99.9881 11.0283 99.9881 15.0039C99.9881 18.9834 98.3741 22.7956 95.5 25.6081C92.6258 28.4206 88.7299 30 84.6632 30Z" fill="white"/>
</mask>
<g mask="url(#mask3_490_3879)">
<path d="M84.6631 30H15.3568C11.2939 30 7.39412 28.4206 4.51994 25.6082C1.64576 22.7957 0.031764 18.9834 0.031764 15.0039C0.031764 11.0283 1.64576 7.21607 4.51994 4.40358C7.39412 1.59108 11.2939 0.00783647 15.3568 0.00783647H84.6631C88.7298 0.00783647 92.6257 1.59108 95.4999 4.40358C98.374 7.21607 99.988 11.0283 99.988 15.0039C99.988 18.9834 98.374 22.7957 95.4999 25.6082C92.6257 28.4206 88.7298 30 84.6631 30Z" stroke="#FF3131" stroke-width="4"/>
</g>
</g>
<mask id="mask4_490_3879" style="mask-type:luminance" maskUnits="userSpaceOnUse" x="72" y="6" width="19" height="19">
<path d="M72.3715 6.10742H90.67V24.0327H72.3715V6.10742Z" fill="white"/>
</mask>
<g mask="url(#mask4_490_3879)">
<path d="M89.863 6.10742H73.0632C72.8724 6.10742 72.7094 6.17355 72.5742 6.30581C72.439 6.43807 72.3715 6.59757 72.3715 6.78429V23.2236C72.3715 23.4103 72.439 23.5698 72.5742 23.702C72.7094 23.8343 72.8724 23.9043 73.0632 23.9043H89.863C90.0538 23.9043 90.2168 23.8382 90.356 23.702C90.4911 23.5698 90.5587 23.4103 90.5587 23.2236V6.78429C90.5587 6.59757 90.4911 6.43807 90.352 6.30192C90.2168 6.16966 90.0538 6.10742 89.863 6.10742ZM89.1673 22.5428H73.7589V7.46504H89.1673V22.5428ZM76.0606 19.3296L80.4812 15L76.0606 10.6782C75.9413 10.5421 75.8857 10.3865 75.8936 10.2075C75.8976 10.0286 75.9652 9.87686 76.0964 9.74849C76.2276 9.62401 76.3826 9.55788 76.5655 9.5501C76.7483 9.54621 76.9073 9.60067 77.0465 9.71737L81.4631 14.0431L85.8837 9.71737C86.0228 9.60067 86.1818 9.54621 86.3647 9.5501C86.5476 9.55788 86.7026 9.62401 86.8338 9.74849C86.961 9.87686 87.0286 10.0286 87.0365 10.2075C87.0445 10.3865 86.9849 10.5421 86.8656 10.6782L82.449 15L86.8656 19.3296C87.0008 19.4619 87.0683 19.6214 87.0683 19.8081C87.0683 19.9948 87.0008 20.1543 86.8656 20.2866C86.7344 20.4227 86.5714 20.4889 86.3766 20.4889C86.1818 20.4889 86.0188 20.4227 85.8837 20.2866L81.4631 15.9648L77.0465 20.2866C76.9113 20.4227 76.7443 20.4889 76.5535 20.4889C76.3587 20.4889 76.1957 20.4227 76.0606 20.2866C75.9254 20.1543 75.8578 19.9948 75.8578 19.8081C75.8578 19.6214 75.9254 19.4619 76.0606 19.3296Z" fill="white"/>
</g>
<path d="M18.678 11.9414V12.8906H17.0083V17.6364H15.8634V12.8906H14.1779V11.9414H18.678Z" fill="white"/>
<path d="M19.4731 17.6363V13.3417H20.5385V13.9796L20.618 13.9952C20.7214 13.7579 20.8605 13.5867 21.0315 13.4817C21.2104 13.3689 21.4211 13.3105 21.6675 13.3105C21.922 13.3105 22.1128 13.3533 22.24 13.435L22.0492 14.3531L21.9697 14.3686C21.8941 14.3492 21.8266 14.3336 21.7629 14.322C21.6993 14.3025 21.6198 14.2908 21.5244 14.2908C21.2143 14.2908 20.9758 14.3998 20.8089 14.6176C20.6498 14.8277 20.5703 15.1622 20.5703 15.629V17.6363H19.4731Z" fill="white"/>
<path d="M23.2459 19.4569C23.0551 19.4569 22.8842 19.4414 22.7371 19.4102C22.586 19.3869 22.4667 19.3519 22.3713 19.3013L22.5463 18.43L22.6099 18.4144C22.6735 18.4455 22.753 18.4689 22.8484 18.4922C22.9517 18.5117 23.0591 18.5233 23.1664 18.5233C23.3334 18.5233 23.4765 18.4961 23.5957 18.4455C23.723 18.4027 23.8223 18.3288 23.8979 18.2277C23.9814 18.1226 24.0569 17.9787 24.1205 17.792L22.3713 13.3418H23.5321L24.6134 16.3293H24.7088L25.7742 13.3418H26.8873L25.1382 17.9009C24.9871 18.2744 24.8281 18.57 24.6611 18.7878C24.5021 19.0135 24.3034 19.1807 24.0728 19.2858C23.8382 19.3986 23.5639 19.4569 23.2459 19.4569Z" fill="white"/>
<path d="M34.4845 17.6364H33.276L32.8308 16.3294H30.6046L30.1752 17.6364H28.9985L31.0021 11.9414H32.4809L34.4845 17.6364ZM31.67 13.1395L30.9226 15.3802H32.5127L31.7654 13.1395H31.67Z" fill="white"/>
<path d="M36.8419 19.4571C36.1184 19.4571 35.5857 19.3521 35.2359 19.1459C34.894 18.9358 34.7271 18.648 34.7271 18.2745C34.7271 18.0567 34.7986 17.8738 34.9497 17.7299C35.0968 17.586 35.3075 17.4887 35.5857 17.4343V17.3565C35.4347 17.2631 35.3234 17.1659 35.2518 17.0608C35.1882 16.948 35.1564 16.8235 35.1564 16.6874C35.1564 16.3373 35.387 16.1039 35.8561 15.9872V15.9094C35.6096 15.7771 35.4307 15.6098 35.3154 15.4115C35.1961 15.2169 35.1405 14.9758 35.1405 14.6957C35.1405 14.4156 35.2041 14.1666 35.3313 13.9488C35.4665 13.731 35.6652 13.5676 35.9197 13.4509C36.182 13.3264 36.4961 13.2642 36.8578 13.2642C37.2156 13.2642 37.5098 13.3264 37.7324 13.4509C37.8676 13.2564 37.9471 13.0307 37.9709 12.7818L38.0504 12.7351L38.8455 12.9218C38.8137 13.1319 38.7501 13.3069 38.6547 13.4509C38.5593 13.587 38.4043 13.7076 38.1936 13.8088V13.9021C38.448 14.1122 38.5752 14.4078 38.5752 14.789C38.5752 15.0497 38.5036 15.287 38.3685 15.5048C38.2293 15.7149 38.0266 15.8783 37.7642 16.0027C37.5098 16.1194 37.2077 16.1739 36.8578 16.1739H36.6829C36.5756 16.1739 36.5001 16.1739 36.4603 16.1739C36.3649 16.1739 36.2854 16.2011 36.2218 16.2517C36.1661 16.3062 36.1423 16.3723 36.1423 16.454C36.1423 16.5473 36.1781 16.6213 36.2536 16.6718C36.3251 16.7146 36.4365 16.7418 36.5875 16.7496L37.5575 16.7807C38.5315 16.8119 39.0204 17.2242 39.0204 18.01C39.0204 18.2901 38.9449 18.539 38.7978 18.7569C38.6587 18.9747 38.4241 19.1459 38.0982 19.2704C37.7801 19.3948 37.3587 19.4571 36.8419 19.4571ZM36.8578 15.427C37.0685 15.427 37.2315 15.3648 37.3508 15.2403C37.4661 15.1158 37.5257 14.9446 37.5257 14.7268C37.5257 14.5012 37.4661 14.33 37.3508 14.2133C37.2315 14.0888 37.0685 14.0266 36.8578 14.0266C36.6432 14.0266 36.4802 14.0888 36.3649 14.2133C36.2456 14.33 36.19 14.5012 36.19 14.7268C36.19 14.9563 36.2456 15.1314 36.3649 15.2558C36.4802 15.3725 36.6432 15.427 36.8578 15.427ZM36.8419 18.6791C37.2236 18.6791 37.4979 18.6246 37.6688 18.5235C37.8358 18.4184 37.9232 18.2823 37.9232 18.1189C37.9232 17.9828 37.8755 17.8855 37.7801 17.8233C37.6927 17.761 37.5575 17.7221 37.3667 17.7144L36.508 17.6832C36.4762 17.6832 36.4444 17.6754 36.4126 17.6677C36.3887 17.6677 36.3689 17.6677 36.349 17.6677C36.1661 17.6677 36.023 17.7027 35.9197 17.7766C35.8242 17.8583 35.7765 17.9672 35.7765 18.1034C35.7765 18.2901 35.864 18.4301 36.0469 18.5235C36.2258 18.6246 36.4921 18.6791 36.8419 18.6791Z" fill="white"/>
<path d="M40.8453 17.7141C40.5591 17.7141 40.3087 17.6674 40.098 17.5741C39.8952 17.4729 39.7362 17.3212 39.6209 17.1228C39.5136 16.9283 39.4619 16.6871 39.4619 16.4071C39.4619 16.1581 39.5136 15.9519 39.6209 15.7847C39.7362 15.6096 39.9111 15.4657 40.1457 15.349C40.3762 15.2362 40.6863 15.1545 41.068 15.1C41.3224 15.0611 41.5172 15.0144 41.6563 14.96C41.7915 14.9094 41.8829 14.851 41.9266 14.7888C41.9783 14.7266 42.0061 14.6488 42.0061 14.5554C42.0061 14.4231 41.9584 14.3181 41.863 14.2442C41.7676 14.1742 41.6007 14.1353 41.3701 14.1353C41.1236 14.1353 40.893 14.1897 40.6704 14.2909C40.4558 14.3959 40.2649 14.536 40.098 14.711H40.0185L39.5573 14.0264C39.7799 13.7891 40.0503 13.6023 40.3683 13.4662C40.6943 13.3339 41.0521 13.2639 41.4337 13.2639C42.0061 13.2639 42.4196 13.3845 42.674 13.6218C42.9364 13.863 43.0715 14.2053 43.0715 14.6488V16.516C43.0715 16.7027 43.159 16.7961 43.3419 16.7961C43.4055 16.7961 43.4691 16.7883 43.5327 16.7649L43.5804 16.7805L43.6599 17.5274C43.6042 17.5702 43.5207 17.6052 43.4055 17.6363C43.2981 17.6558 43.1828 17.6674 43.0556 17.6674C42.7893 17.6674 42.5826 17.6208 42.4355 17.5274C42.2844 17.4263 42.1811 17.2707 42.1174 17.0606L42.0379 17.045C41.8233 17.4924 41.4257 17.7141 40.8453 17.7141ZM41.1952 16.905C41.4496 16.905 41.6484 16.8233 41.7994 16.656C41.9465 16.4926 42.022 16.2592 42.022 15.9558V15.5201L41.9584 15.5046C41.8829 15.559 41.7915 15.6057 41.6881 15.6446C41.5808 15.6757 41.4257 15.7069 41.227 15.738C40.9924 15.7808 40.8215 15.8469 40.7181 15.9403C40.6108 16.0336 40.5591 16.1698 40.5591 16.3448C40.5591 16.5315 40.6108 16.6716 40.7181 16.7649C40.8334 16.8583 40.9924 16.905 41.1952 16.905Z" fill="white"/>
<path d="M44.9282 12.8282C44.7374 12.8282 44.5783 12.7738 44.4511 12.6571C44.3239 12.5326 44.2603 12.377 44.2603 12.1903C44.2603 12.0152 44.3239 11.8713 44.4511 11.7546C44.5783 11.6301 44.7374 11.5679 44.9282 11.5679C45.0633 11.5679 45.1826 11.5951 45.278 11.6457C45.3814 11.7001 45.4609 11.7779 45.5165 11.8791C45.5801 11.9724 45.6119 12.0775 45.6119 12.1903C45.6119 12.3148 45.5801 12.4315 45.5165 12.5326C45.4609 12.626 45.3814 12.6999 45.278 12.7504C45.1826 12.8049 45.0633 12.8282 44.9282 12.8282ZM44.3875 17.6363V13.3417H45.4847V17.6363H44.3875Z" fill="white"/>
<path d="M46.7489 17.6363V13.3417H47.7984V13.9797L47.8938 13.9952C48.1562 13.509 48.5974 13.2639 49.2136 13.2639C49.7225 13.2639 50.0922 13.4001 50.3267 13.6685C50.5692 13.9408 50.6925 14.3337 50.6925 14.851V17.6363H49.5794V14.9755C49.5794 14.6954 49.5197 14.4932 49.4044 14.3687C49.2852 14.2364 49.1023 14.1664 48.8479 14.1664C48.5299 14.1664 48.2794 14.2714 48.1005 14.4776C47.9296 14.676 47.8461 14.9872 47.8461 15.4112V17.6363H46.7489Z" fill="white"/>
<path d="M53.0301 15.7536H52.0283L51.9488 11.9414H53.1096L53.0301 15.7536ZM52.5213 17.6831C52.3821 17.6831 52.2589 17.6559 52.1556 17.6053C52.0601 17.5431 51.9806 17.4653 51.917 17.3719C51.8614 17.2708 51.8375 17.1618 51.8375 17.0451C51.8375 16.9206 51.8614 16.8117 51.917 16.7184C51.9806 16.6172 52.0601 16.5394 52.1556 16.485C52.2589 16.4344 52.3821 16.4072 52.5213 16.4072C52.732 16.4072 52.9029 16.4694 53.0301 16.5939C53.1573 16.7106 53.2209 16.8584 53.2209 17.0451C53.2209 17.2241 53.1573 17.3719 53.0301 17.4964C52.9029 17.6209 52.732 17.6831 52.5213 17.6831Z" fill="white"/>
</svg>
