<svg width="268" height="276" viewBox="0 0 268 276" fill="none" xmlns="http://www.w3.org/2000/svg">
<path fill-rule="evenodd" clip-rule="evenodd" d="M9.96528 172.091H37.8069C38.6155 172.091 39.2876 171.415 39.2876 170.61V108.695C39.2876 107.889 38.6121 107.214 37.8069 107.214H9.96528C9.16001 107.214 8.48452 107.889 8.48452 108.695V170.61C8.48452 171.415 9.16001 172.091 9.96528 172.091ZM55.8022 272.416V212.654C55.8022 210.74 54.2183 209.16 52.3083 209.16H27.0689C25.1555 209.16 23.5749 210.744 23.5749 212.654V272.416C23.5749 274.33 25.1555 275.91 27.0689 275.91H52.3083C54.2183 275.91 55.8022 274.33 55.8022 272.416ZM65.1593 218.537V261.945C65.1593 262.291 65.4621 262.554 65.8048 262.507C91.5168 258.943 118.094 263.485 143.756 264.876C154.331 265.452 186.851 244.275 210.696 228.749C218.998 223.342 226.276 218.603 231.497 215.549C239.539 210.844 243.04 206.391 243.532 202.944C244.274 197.756 236.362 196.595 230.508 199.547C230.505 199.55 230.498 199.553 230.492 199.557L184.019 225.036C181.593 226.363 172.469 231.787 170.579 232.499C167.718 233.574 164.57 233.99 161.332 233.378L132.815 228L120.846 230.177C118.314 230.632 115.891 228.945 115.435 226.413C114.983 223.881 116.666 221.458 119.202 221.003L131.843 218.703C132.562 218.573 133.015 218.5 133.813 218.65L163.049 224.2C166.303 224.819 169.648 222.982 171.794 220.726C172.925 219.535 173.474 217.153 173.474 215.432C173.474 208.551 148.784 204.049 141.596 202.548C126.503 199.44 124.549 199.037 107.539 206.747C99.1834 210.534 90.412 214.564 85.6536 215.552C79.0751 216.913 72.3934 217.598 65.695 217.968C65.3955 217.984 65.1593 218.234 65.1593 218.537ZM18.2675 125.562C15.9183 125.562 14.0116 123.655 14.0116 121.306C14.0116 118.953 15.9183 117.05 18.2675 117.05H27.6212C29.9738 117.05 31.8772 118.953 31.8772 121.306C31.8772 123.655 29.9738 125.562 27.6212 125.562H18.2675ZM18.2675 143.907C15.9183 143.907 14.0116 142.003 14.0116 139.651C14.0116 137.301 15.9183 135.398 18.2675 135.398H27.6212C29.9738 135.398 31.8772 137.301 31.8772 139.651C31.8772 142.003 29.9738 143.907 27.6212 143.907H18.2675ZM18.2675 162.255C15.9183 162.255 14.0116 160.348 14.0116 157.999C14.0116 155.65 15.9183 153.743 18.2675 153.743H27.6212C29.9738 153.743 31.8772 155.65 31.8772 157.999C31.8772 160.348 29.9738 162.255 27.6212 162.255H18.2675ZM64.7866 76.5371L27.7677 76.5072C27.4549 76.5072 27.202 76.7601 27.202 77.0729V98.1362C27.202 98.449 27.4549 98.7019 27.7677 98.7019H37.8069C43.3106 98.7019 47.7995 103.191 47.7995 108.695V170.61C47.7995 176.114 43.3106 180.599 37.8069 180.599H9.96528C4.46152 180.599 -0.0273438 176.114 -0.0273438 170.61V108.695C-0.0273438 103.191 4.46152 98.7052 9.96528 98.7052H18.1211C18.4339 98.7052 18.6901 98.449 18.6901 98.1362V72.2646H18.7067C18.7067 69.922 20.6034 68.0253 22.946 68.0253L71.9109 68.0652C72.0773 68.0652 72.2203 68.002 72.3335 67.8789C83.3144 55.7799 99.1102 48.2763 116.587 48.2763C118.467 48.2763 119.991 49.8003 119.991 51.6804V108.029C119.991 109.909 118.467 111.433 116.587 111.433H60.2345C58.3545 111.433 56.8304 109.909 56.8304 108.029C56.8304 96.8318 59.9118 86.3534 65.2724 77.3956C65.4987 77.0163 65.2258 76.5371 64.7866 76.5371ZM238.145 158.292C235.796 158.292 233.889 156.388 233.889 154.036C233.889 151.686 235.796 149.78 238.145 149.78H247.499C249.848 149.78 251.755 151.686 251.755 154.036C251.755 156.388 249.848 158.292 247.499 158.292H238.145ZM238.145 139.947C235.796 139.947 233.889 138.04 233.889 135.691C233.889 133.338 235.796 131.435 238.145 131.435H247.499C249.848 131.435 251.755 133.338 251.755 135.691C251.755 138.04 249.848 139.947 247.499 139.947H238.145ZM238.145 121.599C235.796 121.599 233.889 119.695 233.889 117.343C233.889 114.994 235.796 113.087 238.145 113.087H247.499C249.848 113.087 251.755 114.994 251.755 117.343C251.755 119.695 249.848 121.599 247.499 121.599H238.145ZM229.843 94.7421C224.339 94.7421 219.85 99.231 219.85 104.735V130.869C219.85 131.182 219.597 131.435 219.285 131.435H195.226C194.904 131.435 194.647 131.172 194.657 130.849C195.163 114.215 188.781 98.3392 177.184 86.746C175.857 85.415 173.701 85.415 172.373 86.746L133.69 125.429C133.58 125.539 133.444 125.595 133.287 125.595H78.5826C76.7025 125.595 75.1785 127.119 75.1785 128.999C75.1785 161.999 101.932 188.752 134.935 188.752C163.804 188.752 188.232 168.174 193.599 140.406C193.649 140.137 193.879 139.947 194.155 139.947H219.285C219.597 139.947 219.85 140.2 219.85 140.513V166.647C219.85 172.151 224.339 176.64 229.843 176.64H257.684C263.188 176.64 267.677 172.151 267.677 166.647V104.735C267.677 99.231 263.188 94.7421 257.684 94.7421H229.843ZM257.684 103.254H229.843C229.038 103.254 228.362 103.929 228.362 104.735V166.647C228.362 167.456 229.038 168.128 229.843 168.128H257.684C258.49 168.128 259.165 167.452 259.165 166.647V104.735C259.165 103.926 258.49 103.254 257.684 103.254ZM203.798 63.5763C201.449 63.5763 199.542 61.673 199.542 59.3204C199.542 56.9712 201.449 55.0645 203.798 55.0645H213.152C215.501 55.0645 217.408 56.9712 217.408 59.3204C217.408 61.673 215.501 63.5763 213.152 63.5763H203.798ZM203.798 45.2316C201.449 45.2316 199.542 43.3249 199.542 40.9756C199.542 38.6264 201.449 36.7197 203.798 36.7197H213.152C215.501 36.7197 217.408 38.6231 217.408 40.9756C217.408 43.3249 215.501 45.2316 213.152 45.2316H203.798ZM203.798 26.8835C201.449 26.8835 199.542 24.9801 199.542 22.6276C199.542 20.2783 201.449 18.3716 203.798 18.3716H213.152C215.501 18.3716 217.408 20.2783 217.408 22.6276C217.408 24.9801 215.501 26.8835 213.152 26.8835H203.798ZM195.496 0.0268555H223.338C228.841 0.0268555 233.327 4.51572 233.327 10.0195V71.9318C233.327 77.4356 228.841 81.9244 223.338 81.9244H195.496C189.992 81.9244 185.503 77.4356 185.503 71.9318V45.6409C185.503 45.3281 185.25 45.0752 184.938 45.0752L165.006 44.9554C164.763 44.9521 164.553 45.0985 164.47 45.3281L161.069 54.6785C160.973 54.9447 161.086 55.2375 161.335 55.3706C166.516 58.1524 171.235 61.6697 175.344 65.7792C176.672 67.1069 176.672 69.2631 175.344 70.5908L135.497 110.438C133.351 112.584 129.687 111.037 129.687 108.032V51.6804C129.687 49.8003 131.211 48.2763 133.091 48.2763C139.903 48.2763 146.465 49.4276 152.584 51.5406C152.877 51.6404 153.2 51.4874 153.303 51.1979L157.648 39.2486C158.337 37.3553 159.978 36.4502 161.894 36.4568L184.931 36.5966C185.247 36.5966 185.503 36.3437 185.503 36.0276V10.0195C185.503 4.51572 189.992 0.0268555 195.496 0.0268555ZM223.338 8.53872H195.496C194.691 8.53872 194.015 9.21421 194.015 10.0195V71.9318C194.015 72.7404 194.691 73.4126 195.496 73.4126H223.338C224.143 73.4126 224.818 72.7371 224.818 71.9318V10.0195C224.818 9.21421 224.143 8.53872 223.338 8.53872Z" fill="#8C52FF"/>
</svg>
