<svg width="15" height="24" viewBox="0 0 15 24" fill="none" xmlns="http://www.w3.org/2000/svg">
<mask id="mask0_2225_3538" style="mask-type:luminance" maskUnits="userSpaceOnUse" x="0" y="17" width="15" height="7">
<path d="M0.777252 17.0877H14.6361V23.0156H0.777252V17.0877Z" fill="white"/>
</mask>
<g mask="url(#mask0_2225_3538)">
<path d="M11.0592 17.7064L10.3091 18.8394C11.6393 19.2029 12.4126 19.7597 12.4126 20.1696C12.4126 20.8502 10.3825 21.8903 7.30836 21.8903C4.2342 21.8903 2.20409 20.8502 2.20409 20.1696C2.20409 19.7365 2.97746 19.1797 4.30767 18.8394L3.5807 17.6793C2.01075 18.1897 0.893219 19.0095 0.893219 20.1735C0.893219 22.1572 4.211 23.2244 7.30449 23.2244C10.4289 23.2244 13.7158 22.161 13.7158 20.1735C13.7235 19.0366 12.606 18.1897 11.0592 17.7064Z" fill="#8C52FF"/>
</g>
<mask id="mask1_2225_3538" style="mask-type:luminance" maskUnits="userSpaceOnUse" x="0" y="0" width="15" height="22">
<path d="M0 0H14.8488V21.0474H0V0Z" fill="white"/>
</mask>
<g mask="url(#mask1_2225_3538)">
<path d="M14.64 7.37412C14.5433 3.59619 11.4962 0.452418 7.74535 0.259074C3.51112 0.0154612 0 3.37964 0 7.56746C0 8.89767 0.363486 10.1583 0.970585 11.2217L6.43834 19.7133C6.84823 20.3436 7.76855 20.3436 8.17844 19.7133L13.6462 11.2217C14.3036 10.0809 14.6632 8.77393 14.64 7.37412ZM7.30839 11.9718C4.86453 11.9718 2.88082 9.98812 2.88082 7.5404C2.88082 5.09653 4.86453 3.11283 7.30839 3.11283C9.75225 3.11283 11.736 5.09653 11.736 7.5404C11.736 9.98812 9.75225 11.9718 7.30839 11.9718Z" fill="#8C52FF"/>
</g>
<path d="M10.189 6.91397L8.97868 8.00056C8.93227 8.05083 8.90521 8.09724 8.93227 8.14751L9.26869 9.74452C9.31896 10.0075 9.02895 10.2279 8.80853 10.0809L7.40873 9.28437C7.35846 9.26116 7.28499 9.26116 7.23858 9.28437L5.83491 10.0809C5.5913 10.2279 5.30128 10.0075 5.37475 9.74452L5.69184 8.14751C5.69184 8.09724 5.69184 8.02763 5.64157 8.00056L4.43124 6.91397C4.23789 6.72063 4.33456 6.38035 4.60138 6.35714L6.2216 6.187C6.27187 6.187 6.31827 6.1406 6.34147 6.09033L7.01817 4.61705C7.14191 4.37344 7.47833 4.37344 7.60207 4.61705L8.27877 6.09033C8.30197 6.1406 8.34838 6.187 8.39865 6.187L10.0189 6.35714C10.2857 6.38035 10.4056 6.72063 10.189 6.91397Z" fill="#8C52FF"/>
</svg>
