<svg width="65" height="65" viewBox="0 0 65 65" fill="none" xmlns="http://www.w3.org/2000/svg">
<path d="M12.1826 27.7288C13.3493 28.8903 15.1357 27.1299 13.9587 25.9528L9.82845 21.8174L13.9587 17.6872C14.4482 17.1976 14.4482 16.4007 13.9587 15.9111C13.4691 15.4215 12.6722 15.4215 12.1826 15.9111L7.16699 20.932C6.6722 21.4215 6.6722 22.2184 7.16699 22.708L12.1826 27.7288Z" fill="black"/>
<path d="M26.505 27.7288L31.5258 22.708C32.0154 22.2184 32.0154 21.4215 31.5258 20.932L26.505 15.9111C26.0154 15.4215 25.2238 15.4215 24.7342 15.9111C24.2446 16.4007 24.2446 17.1976 24.7342 17.6872L28.8644 21.8174L24.7342 25.9528C23.5571 27.1299 25.3435 28.8851 26.505 27.7288Z" fill="black"/>
<path d="M18.0937 28.0937C18.6562 28.0937 19.1666 27.7135 19.3073 27.1458L21.8177 17.1041C21.9843 16.4322 21.5781 15.7499 20.9062 15.5833C20.2343 15.4166 19.5521 15.8229 19.3854 16.4947L16.875 26.5364C16.6771 27.3281 17.276 28.0937 18.0937 28.0937Z" fill="black"/>
<path d="M31.8958 35.6247C31.2031 35.6247 30.6406 36.1872 30.6406 36.8799C30.6406 37.5726 31.2031 38.1351 31.8958 38.1351H56.9948C57.6875 38.1351 58.25 37.5726 58.25 36.8799C58.25 36.1872 57.6875 35.6247 56.9948 35.6247H55.7396V25.583C55.7396 24.8903 55.1771 24.3278 54.4844 24.3278C53.7917 24.3278 53.2292 24.8903 53.2292 25.583V35.6247H50.7188V23.0726C50.7188 22.3799 50.1563 21.8174 49.4635 21.8174C48.7708 21.8174 48.2083 22.3799 48.2083 23.0726V35.6247H45.6979V30.6038C45.6979 29.9111 45.1354 29.3486 44.4427 29.3486C43.75 29.3486 43.1875 29.9111 43.1875 30.6038V35.6247H40.6771V28.0934C40.6771 27.4007 40.1146 26.8382 39.4219 26.8382C38.7292 26.8382 38.1667 27.4007 38.1667 28.0934V35.6247H35.6615V31.859C35.6615 31.1663 35.099 30.6038 34.4062 30.6038C33.7135 30.6038 33.151 31.1663 33.151 31.859V35.6247H31.8958Z" fill="black"/>
<path d="M34.4066 9.27116H56.9951C57.6878 9.27116 58.2503 8.70866 58.2503 8.01595C58.2503 7.32324 57.6878 6.76074 56.9951 6.76074H34.4066C33.7139 6.76074 33.1514 7.32324 33.1514 8.01595C33.1514 8.70866 33.7139 9.27116 34.4066 9.27116Z" fill="black"/>
<path d="M34.4066 14.2917H49.4639C50.1566 14.2917 50.7191 13.7292 50.7191 13.0365C50.7191 12.3437 50.1566 11.7812 49.4639 11.7812H34.4066C33.7139 11.7812 33.1514 12.3437 33.1514 13.0365C33.1514 13.7292 33.7139 14.2917 34.4066 14.2917Z" fill="black"/>
<path d="M58.2502 48.1722C58.2502 48.5212 58.1252 48.818 57.8804 49.0628C57.6356 49.3076 57.3387 49.4274 56.995 49.4274C56.646 49.4274 56.3491 49.3076 56.1043 49.0628C55.8595 48.818 55.7397 48.5212 55.7397 48.1722C55.7397 47.8285 55.8595 47.5316 56.1043 47.2868C56.3491 47.042 56.646 46.917 56.995 46.917C57.3387 46.917 57.6356 47.042 57.8804 47.2868C58.1252 47.5316 58.2502 47.8285 58.2502 48.1722Z" fill="black"/>
<path d="M51.9738 46.917H50.7186C50.0259 46.917 49.4634 47.4795 49.4634 48.1722C49.4634 48.8649 50.0259 49.4274 50.7186 49.4274H51.9738C52.6665 49.4274 53.229 48.8649 53.229 48.1722C53.229 47.4795 52.6665 46.917 51.9738 46.917Z" fill="black"/>
<path d="M45.6979 46.917H44.4427C43.75 46.917 43.1875 47.4795 43.1875 48.1722C43.1875 48.8649 43.75 49.4274 44.4427 49.4274H45.6979C46.3906 49.4274 46.9531 48.8649 46.9531 48.1722C46.9531 47.4795 46.3906 46.917 45.6979 46.917Z" fill="black"/>
<mask id="mask0_2482_10221" style="mask-type:luminance" maskUnits="userSpaceOnUse" x="0" y="0" width="65" height="65">
<path d="M0.520508 0.484375H64.5205V64.4844H0.520508V0.484375Z" fill="white"/>
</mask>
<g mask="url(#mask0_2482_10221)">
<path d="M57.6299 0.484375H7.41113C3.61426 0.484375 0.520508 3.57813 0.520508 7.38021V47.5573C0.520508 51.3542 3.61426 54.4479 7.41113 54.4479H26.2497V56.9583H24.9945C21.5309 56.9583 18.7184 59.7708 18.7184 63.2344C18.7184 63.9271 19.2809 64.4844 19.9736 64.4844H45.0726C45.7653 64.4844 46.3278 63.9271 46.3278 63.2344C46.3278 59.7708 43.5101 56.9583 40.0518 56.9583H38.7966V54.4479H57.6299C61.432 54.4479 64.5205 51.3542 64.5205 47.5573V7.38021C64.5205 3.57813 61.432 0.484375 57.6299 0.484375ZM7.41113 2.99479H57.6299C60.0466 2.99479 62.0101 4.96354 62.0101 7.38021V41.901H3.03092V7.38021C3.03092 4.96354 4.99967 2.99479 7.41113 2.99479ZM43.5986 61.9792H21.4424C21.958 60.5156 23.3538 59.4688 24.9945 59.4688H40.0518C41.6872 59.4688 43.083 60.5156 43.5986 61.9792ZM36.2861 56.9583H28.7549V54.4479H36.2861V56.9583ZM57.6299 51.9375H7.41113C4.99967 51.9375 3.03092 49.974 3.03092 47.5573V44.4062H62.0101V47.5573C62.0101 49.974 60.0466 51.9375 57.6299 51.9375Z" fill="black"/>
</g>
</svg>
