<svg width="16" height="16" viewBox="0 0 16 16" fill="none" xmlns="http://www.w3.org/2000/svg">
<mask id="mask0_2848_1252" style="mask-type:luminance" maskUnits="userSpaceOnUse" x="0" y="0" width="16" height="16">
<path d="M0 0H15.9948V15.9948H0V0Z" fill="white"/>
</mask>
<g mask="url(#mask0_2848_1252)">
<path d="M0.125295 15.0626L1.4378 9.35947C1.48988 9.11468 1.69821 8.92718 1.95863 8.89072L9.32321 8.1303C9.53155 8.10947 9.53155 7.80218 9.32321 7.76572L1.95863 7.05218C1.69821 7.03655 1.48988 6.84905 1.4378 6.60426L0.125295 0.921968C0.000295378 0.432385 0.521128 0.0365512 0.974254 0.26051L15.3753 7.46884C15.8076 7.69801 15.8076 8.3178 15.3753 8.54697L0.974254 15.7188C0.521128 15.9428 0.000295378 15.547 0.125295 15.0626Z" fill="white"/>
</g>
</svg>
