<svg width="40" height="40" viewBox="0 0 40 40" fill="none" xmlns="http://www.w3.org/2000/svg">
<circle cx="19.5" cy="20.5" r="19.5" fill="white" fill-opacity="0.8"/>
<mask id="mask0_2739_2835" style="mask-type:luminance" maskUnits="userSpaceOnUse" x="8" y="5" width="24" height="30">
<path d="M8.16003 5.43994H31.7756V34.4979H8.16003V5.43994Z" fill="white"/>
</mask>
<g mask="url(#mask0_2739_2835)">
<path d="M10.2829 17.8826V25.2043C10.2829 25.7377 10.1564 26.2731 9.9178 26.7511L8.28099 30.0251C8.17376 30.2395 8.18497 30.495 8.31148 30.6982C8.43693 30.9015 8.65944 31.0269 8.89878 31.0269H15.8795C16.2103 32.9858 17.9151 34.4852 19.9679 34.4852C21.0717 34.4852 22.1142 34.0556 22.9086 33.2696C23.5232 32.648 23.916 31.8686 24.0573 31.0269H31.0355C31.2763 31.0269 31.4988 30.9015 31.6242 30.6982C31.7507 30.495 31.762 30.2395 31.6547 30.0251L30.0179 26.7511C29.7793 26.2731 29.6528 25.7377 29.6528 25.2043V17.8826C29.6528 15.2979 28.6453 12.8667 26.814 11.0368C25.6629 9.88429 24.2507 9.04854 22.6917 8.58739C22.7095 8.45878 22.7344 8.33088 22.7344 8.19772C22.7344 6.67269 21.4939 5.43115 19.9679 5.43115C18.4418 5.43115 17.2013 6.67269 17.2013 8.19772C17.2013 8.33228 17.2262 8.45984 17.244 8.58984C13.1704 9.78618 10.2829 13.5809 10.2829 17.8826ZM21.9302 32.2923C21.4025 32.8141 20.7044 33.1021 19.9679 33.1021C18.6811 33.1021 17.5966 32.2187 17.2882 31.0269H22.6486C22.5266 31.5003 22.2817 31.9362 21.9302 32.2923ZM19.9679 6.81496C20.7304 6.81496 21.3517 7.43521 21.3517 8.19772C21.3517 8.23066 21.3506 8.26325 21.3485 8.29619C21.2648 8.28357 21.181 8.27902 21.0987 8.26886C21.0219 8.25975 20.9462 8.25204 20.8705 8.24503C20.5688 8.21699 20.2671 8.19772 19.9679 8.19772C19.6672 8.19772 19.3644 8.21699 19.0631 8.24503C18.9895 8.25204 18.9162 8.25975 18.8427 8.26886C18.7579 8.27797 18.672 8.28357 18.5872 8.29619C18.5851 8.26325 18.5841 8.23066 18.5841 8.19772C18.5841 7.43521 19.2053 6.81496 19.9679 6.81496ZM18.2326 9.7613C19.0967 9.58293 19.9724 9.53878 20.8366 9.62674C21.1256 9.65722 21.414 9.70137 21.7007 9.76025C23.2723 10.1002 24.7013 10.8798 25.8356 12.0138C27.4048 13.583 28.269 15.6673 28.269 17.8826V25.2043C28.269 25.9525 28.4463 26.7013 28.7795 27.3703L29.9173 29.6431H10.0184L11.1562 27.3703C11.4894 26.7013 11.6668 25.9525 11.6668 25.2043V17.8826C11.6668 13.9853 14.4302 10.569 18.2326 9.7613Z" fill="black"/>
</g>
</svg>
