<svg width="54" height="58" viewBox="0 0 54 58" fill="none" xmlns="http://www.w3.org/2000/svg">
<mask id="mask0_2848_1261" style="mask-type:luminance" maskUnits="userSpaceOnUse" x="0" y="37" width="52" height="3">
<path d="M0 37.5312H51.5469V39.9792H0V37.5312Z" fill="white"/>
</mask>
<g mask="url(#mask0_2848_1261)">
<path d="M30.224 37.8122C30.224 38.2861 29.8385 38.6715 29.3646 38.6715H22.1771C21.7031 38.6715 21.3177 38.2861 21.3177 37.8122C21.3177 37.6663 21.2031 37.5518 21.0573 37.5518H0V37.7028C0 38.9997 1.05729 40.3538 2.35938 40.3538H49.151C50.4531 40.3538 51.5052 38.9997 51.5052 37.7028V37.5518H30.4844C30.3385 37.5518 30.224 37.6663 30.224 37.8122Z" fill="#8C52FF"/>
</g>
<path d="M29.958 25.2139C28.8226 26.167 27.3538 26.7399 25.7549 26.7399C24.1559 26.7399 22.6872 26.167 21.5465 25.2139C18.333 26.7764 16.1143 30.0732 16.1143 33.891H35.3955C35.3955 30.0732 33.1768 26.7764 29.958 25.2139Z" fill="#8C52FF"/>
<path d="M31.0885 20.3906C31.0885 23.3385 28.6979 25.724 25.7552 25.724C22.8073 25.724 20.4219 23.3385 20.4219 20.3906C20.4219 17.4479 22.8073 15.0625 25.7552 15.0625C28.6979 15.0625 31.0885 17.4479 31.0885 20.3906Z" fill="#8C52FF"/>
<path d="M45.7603 19.7653V34.1038C45.7603 34.4528 45.479 34.7341 45.1353 34.7341H6.37484C6.02588 34.7341 5.74463 34.4528 5.74463 34.1038V9.44238C5.74463 9.09342 6.02588 8.81217 6.37484 8.81217H33.7498C33.7967 8.07259 33.9165 7.35384 34.1092 6.64551H5.44775C4.48421 6.64551 3.69775 7.43197 3.69775 8.39551V36.7445H47.8071V19.234C47.1457 19.4788 46.4582 19.6559 45.7603 19.7653Z" fill="#8C52FF"/>
<mask id="mask1_2848_1261" style="mask-type:luminance" maskUnits="userSpaceOnUse" x="34" y="0" width="20" height="19">
<path d="M34.6924 0H53.6143V18.9375H34.6924V0Z" fill="white"/>
</mask>
<g mask="url(#mask1_2848_1261)">
<path d="M47.8797 10.6146C47.2235 10.6146 46.6922 10.0833 46.6922 9.43229C46.6922 8.77604 47.2235 8.24479 47.8797 8.24479C48.5308 8.24479 49.062 8.77604 49.062 9.43229C49.062 10.0833 48.5308 10.6146 47.8797 10.6146ZM44.161 10.6146C43.5099 10.6146 42.9735 10.0833 42.9735 9.43229C42.9735 8.77604 43.5099 8.24479 44.161 8.24479C44.8172 8.24479 45.3485 8.77604 45.3485 9.43229C45.3485 10.0833 44.8172 10.6146 44.161 10.6146ZM40.4474 10.6146C39.7912 10.6146 39.2599 10.0833 39.2599 9.43229C39.2599 8.77604 39.7912 8.24479 40.4474 8.24479C41.0985 8.24479 41.6349 8.77604 41.6349 9.43229C41.6349 10.0833 41.0985 10.6146 40.4474 10.6146ZM44.1766 0C38.9578 0 34.7339 4.22917 34.7339 9.44271C34.7339 11.1406 35.1818 12.7292 35.9631 14.1042L35.0672 17.4427C35.0203 17.6302 35.187 17.8021 35.3745 17.75L38.4266 16.9323C40.0203 18.1562 42.0099 18.8854 44.1766 18.8854C49.3901 18.8854 53.6141 14.6562 53.6141 9.44271C53.6141 4.22917 49.3901 0 44.1766 0Z" fill="#8C52FF"/>
</g>
<mask id="mask2_2848_1261" style="mask-type:luminance" maskUnits="userSpaceOnUse" x="27" y="45" width="13" height="13">
<path d="M27.458 45.5049H39.2184V57.234H27.458V45.5049Z" fill="white"/>
</mask>
<g mask="url(#mask2_2848_1261)">
<path d="M33.3538 56.7757C30.3747 56.7757 27.9476 54.3486 27.9476 51.3695C27.9476 48.3851 30.3747 45.958 33.3538 45.958C36.3382 45.958 38.7653 48.3851 38.7653 51.3695C38.7653 54.3486 36.3382 56.7757 33.3538 56.7757ZM33.3538 45.5049C30.1195 45.5049 27.4893 48.1351 27.4893 51.3695C27.4893 54.5986 30.1195 57.234 33.3538 57.234C36.5882 57.234 39.2184 54.5986 39.2184 51.3695C39.2184 48.1351 36.5882 45.5049 33.3538 45.5049Z" fill="#8C52FF"/>
</g>
<path d="M34.6715 49.2139H30.8695C30.5413 49.2139 30.2705 49.4847 30.2705 49.8128V52.9222C30.2705 53.2555 30.5413 53.5212 30.8695 53.5212H34.6715C35.0049 53.5212 35.2705 53.2555 35.2705 52.9222V49.8128C35.2705 49.4847 35.0049 49.2139 34.6715 49.2139Z" fill="#8C52FF"/>
<path d="M35.9998 50.3179L35.5415 50.5835V52.1512L35.9998 52.4169C36.1978 52.5315 36.4373 52.3908 36.4373 52.1669V50.5679C36.4373 50.344 36.1978 50.2085 35.9998 50.3179Z" fill="#8C52FF"/>
<mask id="mask3_2848_1261" style="mask-type:luminance" maskUnits="userSpaceOnUse" x="14" y="45" width="13" height="13">
<path d="M14.4009 45.5049H26.1665V57.234H14.4009V45.5049Z" fill="white"/>
</mask>
<g mask="url(#mask3_2848_1261)">
<path d="M20.2655 56.7757C17.2811 56.7757 14.854 54.3486 14.854 51.3695C14.854 48.3851 17.2811 45.958 20.2655 45.958C23.2498 45.958 25.6769 48.3851 25.6769 51.3695C25.6769 54.3486 23.2498 56.7757 20.2655 56.7757ZM20.2655 45.5049C17.0311 45.5049 14.4009 48.1351 14.4009 51.3695C14.4009 54.5986 17.0311 57.234 20.2655 57.234C23.4998 57.234 26.13 54.5986 26.13 51.3695C26.13 48.1351 23.4998 45.5049 20.2655 45.5049Z" fill="#8C52FF"/>
</g>
<path d="M20.2656 52.9111C21.0677 52.9111 21.7188 52.2653 21.7188 51.4632V48.8747C21.7188 48.0726 21.0677 47.4268 20.2656 47.4268C19.4635 47.4268 18.8125 48.0726 18.8125 48.8747V51.4632C18.8125 52.2653 19.4635 52.9111 20.2656 52.9111Z" fill="#8C52FF"/>
<path d="M22.2863 50.0361C22.1248 50.0361 21.9998 50.1611 21.9998 50.3174V51.4632C21.9998 52.4163 21.2238 53.1976 20.2655 53.1976C19.3071 53.1976 18.5311 52.4163 18.5311 51.4632V50.3174C18.5311 50.1611 18.4061 50.0361 18.2498 50.0361C18.0936 50.0361 17.9634 50.1611 17.9634 50.3174V51.4632C17.9634 52.6351 18.8488 53.5934 19.9842 53.734V54.7445H19.5728C19.4165 54.7445 19.2915 54.8695 19.2915 55.0257C19.2915 55.182 19.4165 55.3122 19.5728 55.3122H20.9582C21.1144 55.3122 21.2394 55.182 21.2394 55.0257C21.2394 54.8695 21.1144 54.7445 20.9582 54.7445H20.5467V53.734C21.6821 53.5934 22.5675 52.6351 22.5675 51.4632V50.3174C22.5675 50.1611 22.4425 50.0361 22.2863 50.0361Z" fill="#8C52FF"/>
</svg>
