<svg width="27" height="23" viewBox="0 0 27 23" fill="none" xmlns="http://www.w3.org/2000/svg">
<mask id="mask0_2848_1127" style="mask-type:luminance" maskUnits="userSpaceOnUse" x="13" y="0" width="14" height="23">
<path d="M13.8594 0.0361328H26.276V22.0257H13.8594V0.0361328Z" fill="white"/>
</mask>
<g mask="url(#mask0_2848_1127)">
<path d="M19.9634 22.1037C18.3905 22.1037 16.2968 18.7495 16.2968 17.2131C16.2968 16.8797 16.4165 16.5881 16.6561 16.3537C16.8957 16.1141 17.1822 15.9943 17.5207 15.9943C17.854 15.9943 18.1457 16.1141 18.3853 16.3537C18.6197 16.5881 18.7395 16.8797 18.7395 17.2131C18.7395 17.7235 19.6665 19.161 20.203 19.6401C21.2447 19.4526 22.4322 18.0828 23.1249 16.7183C23.8072 14.9214 23.5468 10.2131 21.3905 3.94743C20.2499 3.25993 19.0155 2.82764 17.6926 2.65576L16.8176 4.83285C16.6926 5.14535 16.479 5.3693 16.1665 5.50472C15.854 5.63493 15.5468 5.64014 15.229 5.51514C14.9165 5.39014 14.6926 5.17139 14.5624 4.85889C14.427 4.5516 14.427 4.2391 14.552 3.9266L15.7707 0.869304C15.8749 0.614096 16.0415 0.416178 16.2759 0.275554C16.5103 0.134928 16.7655 0.0776364 17.0363 0.108887C19.2447 0.249511 21.2655 0.931803 23.1093 2.15055C23.3228 2.3016 23.4738 2.49951 23.5624 2.74951C25.7811 9.03076 26.4895 14.8849 25.3801 17.6714C25.3645 17.7026 25.3488 17.7287 25.3384 17.7651C24.2863 19.8641 22.3228 22.1037 19.9634 22.1037Z" fill="#8C52FF"/>
</g>
<mask id="mask1_2848_1127" style="mask-type:luminance" maskUnits="userSpaceOnUse" x="0" y="0" width="13" height="23">
<path d="M0.525879 0.0361328H12.5259V22.0257H0.525879V0.0361328Z" fill="white"/>
</mask>
<g mask="url(#mask1_2848_1127)">
<path d="M6.71855 22.1037C4.4373 22.1037 2.54668 19.8537 1.54147 17.7391C1.52584 17.7131 1.51543 17.6818 1.50501 17.6506C0.447719 14.8797 1.1248 9.03597 3.23418 2.76514C3.31751 2.52035 3.46334 2.32243 3.67168 2.17139C5.40084 0.94222 7.32272 0.25472 9.4373 0.108887C9.71334 0.0776364 9.96335 0.134928 10.2029 0.275554C10.4373 0.416178 10.604 0.614096 10.7081 0.869304L11.9321 3.9266C12.0571 4.2391 12.0519 4.5516 11.9165 4.85889C11.7863 5.17139 11.5623 5.39014 11.2498 5.51514C10.9373 5.64014 10.6248 5.63493 10.3123 5.50472C10.005 5.3693 9.78626 5.14535 9.66126 4.83285L8.79147 2.66097C7.57793 2.83805 6.45293 3.25993 5.42689 3.9266C3.36439 10.2078 3.11959 14.937 3.77584 16.7391C4.42168 18.0672 5.4998 19.4058 6.45293 19.6297C7.07793 18.9266 7.50501 18.1245 7.73939 17.2131C7.73939 16.8797 7.85918 16.5881 8.09876 16.3537C8.33314 16.1141 8.6248 15.9943 8.96334 15.9943C9.29668 15.9943 9.58835 16.1141 9.82272 16.3537C10.0623 16.5881 10.1821 16.8797 10.1821 17.2131C10.0727 18.2912 9.70814 19.2756 9.08834 20.1662C7.85397 22.1037 7.03105 22.1037 6.71855 22.1037Z" fill="#8C52FF"/>
</g>
</svg>
