<svg width="23" height="23" viewBox="0 0 23 23" fill="none" xmlns="http://www.w3.org/2000/svg">
<mask id="mask0_2848_1116" style="mask-type:luminance" maskUnits="userSpaceOnUse" x="0" y="0" width="23" height="23">
<path d="M0.239258 0.0361328H22.2288V22.0257H0.239258V0.0361328Z" fill="white"/>
</mask>
<g mask="url(#mask0_2848_1116)">
<path d="M21.0882 22.1038C21.7601 22.1038 22.307 21.557 22.307 20.8851V1.25488C22.307 0.583007 21.7601 0.0361328 21.0882 0.0361328H1.45801C0.786132 0.0361328 0.239258 0.583007 0.239258 1.25488V20.8851C0.239258 21.557 0.786132 22.1038 1.45801 22.1038H21.0882Z" fill="#8C52FF"/>
</g>
<mask id="mask1_2848_1116" style="mask-type:luminance" maskUnits="userSpaceOnUse" x="7" y="2" width="13" height="21">
<path d="M7.85938 2.19727H19.8594V22.0254H7.85938V2.19727Z" fill="white"/>
</mask>
<g mask="url(#mask1_2848_1116)">
<path d="M15.4686 22.1035V13.5566H18.3332L18.7655 10.2285H15.4686V8.10352C15.4686 7.13997 15.7342 6.48372 17.1144 6.48372L18.88 6.47852V3.50456C18.5728 3.46289 17.5311 3.36914 16.3123 3.36914C13.7707 3.36914 12.0259 4.92122 12.0259 7.77539V10.2285H9.15088V13.5566H12.0259V22.1035H15.4686Z" fill="white"/>
</g>
</svg>
