<svg width="1374" height="890" viewBox="0 0 1374 890" fill="none" xmlns="http://www.w3.org/2000/svg">
<g clip-path="url(#clip0_12_1280)">
<g clip-path="url(#clip1_12_1280)">
<mask id="mask0_12_1280" style="mask-type:luminance" maskUnits="userSpaceOnUse" x="0" y="0" width="1374" height="890">
<path d="M1373.39 0H0.608643V889.99H1373.39V0Z" fill="white"/>
</mask>
<g mask="url(#mask0_12_1280)">
<path d="M0.608643 889.672H1372.76M0.608643 864.262H1372.76M0.608643 838.852H1372.76M0.608643 813.442H1372.76M0.608643 788.032H1372.76M0.608643 762.622H1372.76M0.608643 737.212H1372.76M0.608643 711.801H1372.76M0.608643 686.391H1372.76M0.608643 660.981H1372.76M0.608643 635.571H1372.76M0.608643 610.162H1372.76M0.608643 584.752H1372.76M0.608643 559.342H1372.76M0.608643 533.932H1372.76M0.608643 508.522H1372.76M0.608643 483.111H1372.76M0.608643 457.701H1372.76M0.608643 432.291H1372.76M0.608643 406.881H1372.76M0.608643 381.471H1372.76M0.608643 356.061H1372.76M0.608643 330.651H1372.76M0.608643 305.241H1372.76M0.608643 279.83H1372.76M0.608643 254.42H1372.76M0.608643 229.009H1372.76M0.608643 203.599H1372.76M0.608643 178.189H1372.76M0.608643 152.778H1372.76M0.608643 127.368H1372.76M0.608643 101.958H1372.76M0.608643 76.548H1372.76M0.608643 51.1379H1372.76M0.608643 25.7278H1372.76M0.608643 0.317627H1372.76M0.926269 0.635254V889.99M26.3364 0.635254V889.99M51.7465 0.635254V889.99M77.1567 0.635254V889.99M102.567 0.635254V889.99M127.977 0.635254V889.99M153.387 0.635254V889.99M178.797 0.635254V889.99M204.207 0.635254V889.99M229.617 0.635254V889.99M255.028 0.635254V889.99M280.438 0.635254V889.99M305.848 0.635254V889.99M331.258 0.635254V889.99M356.668 0.635254V889.99M382.078 0.635254V889.99M407.49 0.635254V889.99M432.9 0.635254V889.99M458.31 0.635254V889.99M483.72 0.635254V889.99M509.13 0.635254V889.99M534.54 0.635254V889.99M559.951 0.635254V889.99M585.361 0.635254V889.99M610.771 0.635254V889.99M636.18 0.635254V889.99M661.59 0.635254V889.99M687 0.635254V889.99M712.41 0.635254V889.99M737.82 0.635254V889.99M763.23 0.635254V889.99M788.64 0.635254V889.99M814.051 0.635254V889.99M839.461 0.635254V889.99M864.871 0.635254V889.99M890.281 0.635254V889.99M915.691 0.635254V889.99M941.101 0.635254V889.99M966.511 0.635254V889.99M991.922 0.635254V889.99M1017.33 0.635254V889.99M1042.74 0.635254V889.99M1068.15 0.635254V889.99M1093.56 0.635254V889.99M1118.97 0.635254V889.99M1144.38 0.635254V889.99M1169.79 0.635254V889.99M1195.2 0.635254V889.99M1220.61 0.635254V889.99M1246.02 0.635254V889.99M1271.43 0.635254V889.99M1296.84 0.635254V889.99M1322.25 0.635254V889.99M1347.66 0.635254V889.99M1373.07 0.635254V889.99" stroke="#F3F4F7" stroke-width="0.635253"/>
<path d="M839.143 330.967H864.553V356.377H839.143V330.967ZM635.862 330.967H661.272V356.377H635.862V330.967ZM635.862 610.478H661.272V635.889H635.862V610.478ZM457.991 407.197H483.401V432.608H457.991V407.197ZM51.429 51.4555H76.8391V76.8657H51.429V51.4555ZM585.042 51.4555H610.452V76.8657H585.042V51.4555ZM966.194 153.096H991.604V178.506H966.194V153.096ZM635.862 153.096H661.272V178.506H635.862V153.096ZM712.092 229.326H737.503V254.737H712.092V229.326ZM940.784 254.737H966.194V280.147H940.784V254.737ZM508.811 127.686H534.222V153.096H508.811V127.686ZM153.069 356.377H178.48V381.787H153.069V356.377ZM915.374 432.608H940.784V458.018H915.374V432.608ZM1017.01 610.478H1042.42V635.889H1017.01V610.478ZM1093.24 381.787H1118.65V407.197H1093.24V381.787ZM1194.89 508.838H1220.3V534.248H1194.89V508.838ZM1144.06 127.686H1169.47V153.096H1144.06V127.686ZM51.429 229.326H76.8391V254.737H51.429V229.326ZM51.429 635.889H76.8391V661.299H51.429V635.889ZM305.53 102.276H330.94V127.686H305.53V102.276ZM203.89 203.916H229.3V229.326H203.89V203.916ZM356.351 356.377H381.761V381.787H356.351V356.377ZM356.351 762.939H381.761V788.349H356.351V762.939ZM356.351 585.068H381.761V610.478H356.351V585.068ZM864.553 102.276H889.963V127.686H864.553V102.276Z" fill="#F6F7F9"/>
</g>
</g>
</g>
<defs>
<clipPath id="clip0_12_1280">
<rect width="1372.78" height="889.99" fill="white" transform="translate(0.608643)"/>
</clipPath>
<clipPath id="clip1_12_1280">
<rect width="1372.78" height="889.99" fill="white" transform="translate(0.608643)"/>
</clipPath>
</defs>
</svg>
