<svg width="24" height="24" viewBox="0 0 24 24" fill="none" xmlns="http://www.w3.org/2000/svg">
<mask id="mask0_1196_4383" style="mask-type:luminance" maskUnits="userSpaceOnUse" x="0" y="0" width="24" height="24">
<path d="M0 0H23.0629V23.0629H0V0Z" fill="white"/>
</mask>
<g mask="url(#mask0_1196_4383)">
<mask id="mask1_1196_4383" style="mask-type:luminance" maskUnits="userSpaceOnUse" x="0" y="0" width="24" height="24">
<path d="M11.5315 0C5.16367 0 0 5.16367 0 11.5315C0 17.8993 5.16367 23.0629 11.5315 23.0629C17.8993 23.0629 23.0629 17.8993 23.0629 11.5315C23.0629 5.16367 17.8993 0 11.5315 0Z" fill="white"/>
</mask>
<g mask="url(#mask1_1196_4383)">
<path d="M0 0H23.0629V23.0629H0V0Z" fill="#F1EAFF"/>
</g>
</g>
<path d="M7.42785 12.9831C7.46479 13.0016 7.50911 13.0163 7.54974 13.0163C7.58298 13.0163 7.60884 13.0089 7.63839 12.9979C8.85728 12.5509 10.1907 12.514 11.4354 12.8944C11.4761 12.9129 11.5204 12.9166 11.561 12.9055H11.5979C12.839 12.5288 14.1724 12.562 15.395 13.0126C15.4208 13.0274 15.4541 13.0348 15.4799 13.0311C15.6055 13.0311 15.7052 12.9314 15.7052 12.8058V8.34021C15.7052 8.21832 15.6055 8.11859 15.4799 8.11859H14.9296V7.55716C14.9296 7.43897 14.8335 7.33924 14.719 7.33185C12.9757 7.23213 11.9082 7.88959 11.5315 8.18138C11.151 7.89328 10.0873 7.23213 8.33648 7.33185C8.22198 7.33924 8.12595 7.43897 8.12595 7.55716V8.12598H7.54974C7.42785 8.12598 7.32812 8.22571 7.32812 8.3476V12.7947C7.32812 12.8686 7.36506 12.9388 7.42785 12.9831ZM14.4827 7.7677V11.5426C13.5223 11.4983 12.5694 11.742 11.7494 12.2444V8.56552C12.0005 8.36976 12.9239 7.72707 14.4827 7.7677ZM8.57287 7.7677C10.1353 7.72707 11.0587 8.36976 11.3061 8.56552V12.2444C10.5194 11.7679 9.61447 11.5241 8.69476 11.5463H8.57287V7.7677Z" fill="#8C52FF"/>
<mask id="mask2_1196_4383" style="mask-type:luminance" maskUnits="userSpaceOnUse" x="4" y="5" width="15" height="13">
<path d="M4.8313 5.85486H18.3056V17.9108H4.8313V5.85486Z" fill="white"/>
</mask>
<g mask="url(#mask2_1196_4383)">
<path d="M17.2086 5.89893H5.84704C5.28561 5.89893 4.8313 6.35693 4.8313 6.91836V14.7968C4.8313 15.0702 4.93841 15.325 5.12679 15.5171C5.31885 15.7092 5.5811 15.82 5.84704 15.82H10.2314L9.07157 17.8108C9.03463 17.881 9.03463 17.9623 9.07157 18.0324C9.1085 18.0989 9.18238 18.1469 9.26364 18.1469H13.7883C13.8696 18.1469 13.9434 18.1026 13.9804 18.0324C14.021 17.9623 14.021 17.881 13.9804 17.8108L12.8243 15.82H17.2086C17.4745 15.82 17.7368 15.7092 17.9289 15.5171C18.1172 15.325 18.228 15.0702 18.228 14.7968V6.91836C18.228 6.35693 17.77 5.89893 17.2086 5.89893ZM5.84704 6.34585H17.2086C17.5226 6.34585 17.7811 6.60071 17.7811 6.91836V13.626H5.27453V6.92944C5.27084 6.77431 5.33363 6.63026 5.44075 6.51576C5.54786 6.40864 5.6956 6.34585 5.84704 6.34585ZM13.4005 17.7H9.65885L10.7411 15.82H12.3072L13.4005 17.7Z" fill="#8C52FF"/>
</g>
</svg>
