<svg width="24" height="24" viewBox="0 0 24 24" fill="none" xmlns="http://www.w3.org/2000/svg">
<mask id="mask0_3301_1178" style="mask-type:luminance" maskUnits="userSpaceOnUse" x="0" y="0" width="24" height="24">
<path d="M0 0H23.0629V23.0629H0V0Z" fill="white"/>
</mask>
<g mask="url(#mask0_3301_1178)">
<mask id="mask1_3301_1178" style="mask-type:luminance" maskUnits="userSpaceOnUse" x="0" y="0" width="24" height="24">
<path d="M11.5315 0C5.16367 0 0 5.16367 0 11.5315C0 17.8993 5.16367 23.0629 11.5315 23.0629C17.8993 23.0629 23.0629 17.8993 23.0629 11.5315C23.0629 5.16367 17.8993 0 11.5315 0Z" fill="white"/>
</mask>
<g mask="url(#mask1_3301_1178)">
<path d="M0 0H23.0629V23.0629H0V0Z" fill="#F1EAFF"/>
</g>
</g>
<mask id="mask2_3301_1178" style="mask-type:luminance" maskUnits="userSpaceOnUse" x="4" y="3" width="15" height="16">
<path d="M4.52344 3H18.9996V19H4.52344V3Z" fill="white"/>
</mask>
<g mask="url(#mask2_3301_1178)">
<path d="M7.77344 7.1588C8.03534 7.1588 8.28931 7.11118 8.53137 7.01197C8.77344 6.91277 8.98772 6.76991 9.17423 6.58737C9.35677 6.40086 9.5036 6.18658 9.6028 5.94848C9.70201 5.70642 9.7536 5.45245 9.7536 5.19055C9.7536 4.92864 9.70598 4.67864 9.60677 4.43658C9.50757 4.19451 9.36471 3.98023 9.1782 3.79372C8.99169 3.60721 8.78137 3.46436 8.53931 3.36515C8.29725 3.26594 8.04328 3.21436 7.78137 3.21436C7.51947 3.21436 7.26947 3.26594 7.02741 3.36515C6.78534 3.46436 6.57106 3.60721 6.38455 3.79372C6.20201 3.98023 6.05915 4.19451 5.95995 4.43658C5.86074 4.67864 5.80915 4.92864 5.80915 5.19055C5.80915 5.45245 5.86074 5.70245 5.95995 5.94451C6.05915 6.18261 6.20201 6.3969 6.38455 6.5834C6.57106 6.76594 6.78137 6.9088 7.02344 7.00801C7.26153 7.10721 7.5155 7.1588 7.77344 7.1588ZM7.77344 3.80959C7.95598 3.80959 8.13058 3.84531 8.29725 3.91277C8.46391 3.9842 8.61471 4.07944 8.74169 4.21039C8.86868 4.33737 8.96788 4.4842 9.03931 4.65086C9.11074 4.8215 9.14249 4.9961 9.14645 5.17467C9.14645 5.35721 9.11074 5.53182 9.04328 5.69848C8.97185 5.86912 8.87661 6.01594 8.74963 6.1469C8.61868 6.27388 8.47185 6.37309 8.30518 6.44451C8.13852 6.51594 7.96391 6.55166 7.78137 6.55166C7.59883 6.55166 7.42423 6.51991 7.25756 6.44848C7.0909 6.38102 6.9401 6.28578 6.81312 6.15483C6.68217 6.02785 6.58296 5.88102 6.51153 5.71436C6.4401 5.54769 6.40439 5.37309 6.40439 5.19055C6.40439 5.00801 6.43614 4.8334 6.50756 4.66674C6.57502 4.4961 6.67423 4.34928 6.80518 4.21832C6.93217 4.08737 7.07899 3.98817 7.24963 3.91674C7.41629 3.84531 7.5909 3.80959 7.77344 3.80959ZM11.0314 11.2461V10.6628C11.0314 10.2461 10.948 9.84531 10.7893 9.46039C10.6306 9.07944 10.4044 8.73816 10.1107 8.44451C9.81312 8.15086 9.47582 7.92467 9.0909 7.76594C8.70598 7.60721 8.30518 7.52785 7.89249 7.52785H7.66629C7.24963 7.52785 6.84884 7.60721 6.46391 7.76594C6.07899 7.92864 5.74169 8.15483 5.44804 8.44848C5.15042 8.74213 4.92423 9.0834 4.7655 9.46832C4.60677 9.85324 4.52741 10.254 4.52344 10.6707V11.2461C4.52344 11.3612 4.56709 11.4564 4.64645 11.5358C4.72582 11.6191 4.82106 11.6588 4.93614 11.6588H10.6147C10.7298 11.6588 10.825 11.6191 10.9044 11.5358C10.9838 11.4564 11.0234 11.3612 11.0234 11.2461H11.0314ZM10.4361 11.0636H5.12661V10.6707C5.12661 10.3334 5.1901 10.008 5.32106 9.69848C5.44804 9.38499 5.63058 9.11118 5.86868 8.86912C6.10677 8.63102 6.38455 8.44848 6.69407 8.31753C7.00756 8.18658 7.32899 8.12309 7.66629 8.11912H7.89249C8.22582 8.11912 8.55122 8.18658 8.86471 8.31356C9.17423 8.44451 9.44804 8.62705 9.68614 8.86515C9.92423 9.10324 10.1107 9.37705 10.2377 9.69055C10.3687 10.0001 10.4322 10.3255 10.4322 10.6628L10.4361 11.0636ZM13.7377 12.1032C13.7377 12.3612 13.7893 12.6112 13.8885 12.8532C13.9917 13.0913 14.1345 13.3056 14.3171 13.4882C14.5036 13.6707 14.7179 13.8136 14.956 13.9088C15.198 14.008 15.448 14.0596 15.7099 14.0556C15.9719 14.0556 16.2219 14.004 16.4599 13.9048C16.702 13.8017 16.9123 13.6588 17.0949 13.4763C17.2814 13.2898 17.4203 13.0794 17.5195 12.8374C17.6187 12.5953 17.6663 12.3453 17.6663 12.0834C17.6663 11.8255 17.6147 11.5715 17.5155 11.3334C17.4123 11.0913 17.2734 10.881 17.0869 10.6985C16.9004 10.512 16.6901 10.3731 16.448 10.2739C16.206 10.1747 15.956 10.1231 15.698 10.1271C15.4361 10.1271 15.1822 10.1747 14.9441 10.2778C14.702 10.3771 14.4877 10.5199 14.3052 10.7064C14.1187 10.8929 13.9758 11.1032 13.8766 11.3453C13.7774 11.5874 13.7298 11.8413 13.7298 12.1032H13.7377ZM17.075 12.1032C17.0711 12.2818 17.0353 12.4564 16.9639 12.6231C16.8965 12.7898 16.7933 12.9366 16.6663 13.0675C16.5353 13.1945 16.3885 13.2898 16.2179 13.3612C16.0512 13.4286 15.8766 13.4604 15.6941 13.4604C15.5155 13.4604 15.3409 13.4247 15.1703 13.3532C15.0036 13.2818 14.8568 13.1826 14.7298 13.0556C14.6028 12.9247 14.5036 12.7778 14.4361 12.6112C14.3647 12.4405 14.333 12.2659 14.333 12.0874C14.333 11.9048 14.3687 11.7302 14.4361 11.5636C14.5076 11.3929 14.6068 11.2461 14.7338 11.1191C14.8647 10.9921 15.0115 10.8929 15.1782 10.8215C15.3488 10.754 15.5234 10.7183 15.702 10.7183C15.8846 10.7183 16.0592 10.754 16.2298 10.8255C16.3965 10.8969 16.5433 10.9961 16.6742 11.1271C16.8012 11.254 16.9004 11.4048 16.9679 11.5755C17.0353 11.7421 17.0711 11.9207 17.0671 12.1032H17.075ZM15.8092 14.4366H15.5909C15.1742 14.4366 14.7734 14.5159 14.3885 14.6747C14.0036 14.8334 13.6623 15.0636 13.3687 15.3572C13.075 15.6509 12.8488 15.9921 12.6861 16.3771C12.5274 16.762 12.448 17.1628 12.448 17.5794V18.1588C12.448 18.2699 12.4877 18.3652 12.5671 18.4445C12.6465 18.5278 12.7457 18.5675 12.8568 18.5675H18.5353C18.6504 18.5675 18.7457 18.5278 18.825 18.4445C18.9044 18.3652 18.948 18.2699 18.948 18.1588V17.5715C18.948 17.1548 18.8647 16.754 18.706 16.3731C18.5472 15.9882 18.3211 15.6469 18.0274 15.3532C17.7338 15.0596 17.3925 14.8334 17.0115 14.6747C16.6266 14.5159 16.2258 14.4366 15.8092 14.4366ZM18.3528 17.9723H13.0433V17.5794C13.0433 17.2421 13.1068 16.9167 13.2377 16.6032C13.3647 16.2898 13.5512 16.0159 13.7893 15.7778C14.0274 15.5358 14.3012 15.3532 14.6147 15.2223C14.9282 15.0953 15.2536 15.0278 15.5909 15.0278H15.8092C16.1465 15.0278 16.4719 15.0913 16.7853 15.2223C17.0949 15.3532 17.3687 15.5358 17.6068 15.7739C17.8488 16.012 18.0314 16.2858 18.1584 16.5993C18.2893 16.9088 18.3528 17.2342 18.3528 17.5715V17.9723ZM10.948 5.03578C10.948 4.88896 11.0234 4.81356 11.1703 4.81356H14.1822C14.4044 4.81356 14.6147 4.85721 14.8211 4.94055C15.0234 5.02785 15.206 5.1469 15.3607 5.30563C15.5155 5.46039 15.6385 5.64293 15.7219 5.84531C15.8052 6.05166 15.8488 6.26594 15.8488 6.4842V8.19848L16.2377 7.78975C16.3369 7.67864 16.4441 7.67864 16.5512 7.78182C16.6584 7.88102 16.6623 7.98816 16.5592 8.09531L15.6028 9.11118L14.7536 8.07944C14.6742 7.96832 14.6901 7.86912 14.7972 7.78182C14.9004 7.69451 15.0036 7.69848 15.0988 7.79769L15.4084 8.17467V6.4842C15.4084 6.3215 15.3766 6.16674 15.3131 6.01594C15.2536 5.86515 15.1623 5.7342 15.0472 5.61912C14.9322 5.50404 14.8012 5.41674 14.6504 5.35324C14.4996 5.29372 14.3449 5.26197 14.1822 5.26197H11.1703C11.0195 5.25801 10.948 5.18261 10.948 5.03578ZM10.6187 15.9247L11.6465 16.7699L10.6306 17.7302C10.5869 17.7699 10.5393 17.7898 10.4798 17.7898C10.3766 17.7898 10.3092 17.7421 10.2734 17.6509C10.2338 17.5556 10.2536 17.4763 10.325 17.4048L10.7377 17.0199H9.02344C8.80122 17.0199 8.58693 16.9763 8.38455 16.8929C8.1782 16.8056 7.99566 16.6866 7.8409 16.5278C7.68217 16.3731 7.56312 16.1905 7.47582 15.9882C7.39249 15.7818 7.34883 15.5675 7.34883 15.3453V12.7778C7.34883 12.6271 7.42423 12.5556 7.57106 12.5556C7.72185 12.5556 7.79328 12.6271 7.79328 12.7778V15.3453C7.79725 15.508 7.82899 15.6667 7.88852 15.8175C7.95201 15.9644 8.04328 16.0993 8.15836 16.2144C8.27344 16.3255 8.40439 16.4167 8.55518 16.4763C8.70598 16.5398 8.86074 16.5715 9.02344 16.5715H10.706L10.3369 16.2659C10.2853 16.2263 10.2536 16.1786 10.2457 16.1112C10.2377 16.0477 10.2536 15.9921 10.2933 15.9405C10.3369 15.8929 10.3885 15.8651 10.452 15.8612C10.5195 15.8572 10.575 15.8771 10.6187 15.9247Z" fill="#8C52FF"/>
</g>
</svg>
