<svg width="23" height="23" viewBox="0 0 23 23" fill="none" xmlns="http://www.w3.org/2000/svg">
<mask id="mask0_2848_1099" style="mask-type:luminance" maskUnits="userSpaceOnUse" x="0" y="0" width="23" height="23">
<path d="M0.713379 0.0361328H22.703V22.0257H0.713379V0.0361328Z" fill="white"/>
</mask>
<g mask="url(#mask0_2848_1099)">
<path fill-rule="evenodd" clip-rule="evenodd" d="M22.7811 3.3903C22.7811 1.53613 21.2811 0.0361328 19.4269 0.0361328H4.06234C2.21338 0.0361328 0.713379 1.53613 0.713379 3.3903V18.7549C0.713379 20.6038 2.21338 22.1038 4.06234 22.1038H19.4269C21.2811 22.1038 22.7811 20.6038 22.7811 18.7549V3.3903ZM21.6353 3.3903V18.7549C21.6353 19.9736 20.6457 20.958 19.4269 20.958H4.06234C2.84359 20.958 1.854 19.9736 1.854 18.7549V3.3903C1.854 2.17155 2.84359 1.18197 4.06234 1.18197H19.4269C20.6457 1.18197 21.6353 2.17155 21.6353 3.3903ZM11.7446 5.27051C8.5415 5.27051 5.94255 7.86947 5.94255 11.0726C5.94255 14.2757 8.5415 16.8747 11.7446 16.8747C14.9478 16.8747 17.5467 14.2757 17.5467 11.0726C17.5467 7.86947 14.9478 5.27051 11.7446 5.27051ZM11.7446 6.41113C14.3175 6.41113 16.4061 8.49967 16.4061 11.0726C16.4061 13.6403 14.3175 15.7288 11.7446 15.7288C9.17692 15.7288 7.08838 13.6403 7.08838 11.0726C7.08838 8.49967 9.17692 6.41113 11.7446 6.41113ZM18.2863 3.22363C19.005 3.22363 19.5936 3.81218 19.5936 4.53092C19.5936 5.25488 19.005 5.83822 18.2863 5.83822C17.5623 5.83822 16.979 5.25488 16.979 4.53092C16.979 3.81218 17.5623 3.22363 18.2863 3.22363Z" fill="#8C52FF"/>
</g>
</svg>
