<svg width="23" height="23" viewBox="0 0 23 23" fill="none" xmlns="http://www.w3.org/2000/svg">
<mask id="mask0_2848_1105" style="mask-type:luminance" maskUnits="userSpaceOnUse" x="0" y="0" width="23" height="23">
<path d="M0.479004 0.0361328H22.4686V22.0257H0.479004V0.0361328Z" fill="white"/>
</mask>
<g mask="url(#mask0_2848_1105)">
<path d="M22.5467 18.7497C22.5467 20.6038 21.0415 22.1038 19.1925 22.1038H3.83317C1.979 22.1038 0.479004 20.6038 0.479004 18.7497V3.3903C0.479004 1.53613 1.979 0.0361328 3.83317 0.0361328H19.1925C21.0415 0.0361328 22.5467 1.53613 22.5467 3.3903V18.7497Z" fill="#8C52FF"/>
</g>
<path d="M9.20312 7.91081C9.20312 8.12956 9.16146 8.33789 9.07812 8.54102C8.99479 8.74414 8.875 8.92122 8.71875 9.07747C8.56771 9.22852 8.38542 9.34831 8.1875 9.43164C7.98437 9.51497 7.77604 9.55664 7.55729 9.55664C7.33854 9.55664 7.125 9.51497 6.92188 9.43164C6.72396 9.34831 6.54167 9.22852 6.39062 9.07747C6.23437 8.92122 6.11458 8.74414 6.03125 8.54102C5.94792 8.33789 5.90625 8.12956 5.90625 7.91081C5.90625 7.69206 5.94792 7.47852 6.03125 7.2806C6.11458 7.07747 6.23437 6.90039 6.39062 6.74414C6.54167 6.58789 6.72396 6.4681 6.92188 6.38477C7.125 6.30143 7.33854 6.25977 7.55729 6.25977C7.77604 6.25977 7.98437 6.30143 8.1875 6.38477C8.38542 6.4681 8.56771 6.58789 8.71875 6.74414C8.875 6.90039 8.99479 7.07747 9.07812 7.2806C9.16146 7.47852 9.20312 7.69206 9.20312 7.91081Z" fill="white"/>
<path d="M6.13525 10.7754H8.96338V19.8848H6.13525V10.7754Z" fill="white"/>
<path d="M10.7446 10.7754H13.4425V19.8848H10.7446V10.7754Z" fill="white"/>
<path d="M10.8643 15.625H13.557V19.8854H10.8643V15.625Z" fill="white"/>
<path d="M13.5571 15.6245C13.5571 15.6245 13.5155 14.4422 13.828 13.8276C13.828 13.8276 14.1405 13.0724 15.1196 13.0672C15.1196 13.0672 16.2707 12.864 16.5988 14.0047C16.5988 14.0047 16.7238 14.6401 16.7238 14.9057C16.7238 15.1713 16.729 19.8849 16.729 19.8849H19.5519V14.6661C19.5519 14.6661 19.7603 11.7182 17.9894 10.9109C17.9894 10.9109 15.0832 9.60362 13.4998 12.0047C13.4998 12.0047 13.1561 12.239 13.1092 11.5776C13.0623 10.9109 12.6561 12.5984 12.6457 12.6297C12.6353 12.6661 13.1092 15.9942 13.1092 15.9942L13.5571 15.6245Z" fill="white"/>
</svg>
