<svg width="23" height="32" viewBox="0 0 23 32" fill="none" xmlns="http://www.w3.org/2000/svg">
<path d="M17.6069 2.24256C17.1486 1.86756 16.6664 1.53423 16.1486 1.24851C15.6307 0.956845 15.095 0.71875 14.5355 0.528274C13.9759 0.337798 13.4045 0.200893 12.8152 0.111607C12.2319 0.0223212 11.6486 -0.0133931 11.0533 0.00446445C10.464 0.022322 9.88071 0.0937506 9.30333 0.21875C8.72595 0.343751 8.16047 0.51637 7.61285 0.74256C7.07118 0.968751 6.54738 1.23661 6.04737 1.55804C5.55333 1.87351 5.08904 2.23661 4.65452 2.64137C4.21999 3.04018 3.82714 3.48066 3.47594 3.95089C3.1188 4.42708 2.81523 4.92709 2.54737 5.45685C2.28547 5.98661 2.07118 6.53423 1.91047 7.10566C1.7438 7.67113 1.63071 8.24852 1.57118 8.8378C1.51166 9.42709 1.50571 10.0104 1.54737 10.5997C1.59499 11.189 1.69023 11.7723 1.84499 12.3438C1.9938 12.9152 2.19618 13.4688 2.44618 14.0045C2.69618 14.5402 2.98785 15.0461 3.33309 15.5283L3.86285 16.2783C5.29737 18.2902 6.77952 20.3676 8.08904 22.4985C8.62476 23.3676 9.13666 24.2485 9.63071 25.1414L10.6902 27.064C10.8271 27.3259 11.0474 27.4569 11.339 27.4569H11.3569C11.6426 27.4569 11.8629 27.3319 12.0057 27.0819L12.2319 26.7009C12.9581 25.3676 13.7676 23.9926 14.6902 22.5045C16.3271 19.9033 18.0771 17.3854 19.4224 15.4807C19.7736 14.9747 20.0771 14.4449 20.3271 13.8854C20.5771 13.3259 20.7736 12.7485 20.9164 12.1473C21.0593 11.5521 21.1486 10.9509 21.1783 10.3378C21.2081 9.72471 21.1843 9.11161 21.101 8.50447C21.0176 7.89733 20.8807 7.30209 20.6843 6.71875C20.4879 6.14137 20.2438 5.58185 19.9462 5.04613C19.6426 4.51042 19.2974 4.00446 18.9045 3.53423C18.5117 3.06399 18.0771 2.62947 17.6069 2.24256ZM11.3569 14.4866C10.7379 14.4866 10.1426 14.3735 9.57714 14.1354C9.00571 13.8973 8.50571 13.564 8.06523 13.1295C7.63071 12.689 7.29737 12.189 7.05928 11.6176C6.82118 11.0521 6.70809 10.4568 6.70809 9.8378C6.70809 9.2247 6.82118 8.62947 7.05928 8.06399C7.29737 7.49256 7.63071 6.99256 8.06523 6.55209C8.50571 6.11756 9.00571 5.78423 9.57714 5.54613C10.1426 5.30804 10.7379 5.19494 11.3569 5.19494C11.97 5.19494 12.5652 5.30804 13.1307 5.54613C13.7021 5.78423 14.2021 6.11756 14.6426 6.55209C15.0771 6.99256 15.4105 7.49256 15.6486 8.06399C15.8867 8.62947 15.9998 9.2247 15.9998 9.8378C15.9998 10.4568 15.8807 11.0521 15.6486 11.6176C15.4105 12.189 15.0771 12.689 14.6367 13.1235C14.2021 13.564 13.7021 13.8973 13.1307 14.1354C12.5652 14.3676 11.97 14.4866 11.3569 14.4866Z" fill="#8C52FF"/>
<mask id="mask0_2848_1195" style="mask-type:luminance" maskUnits="userSpaceOnUse" x="0" y="20" width="23" height="12">
<path d="M0 20.5459H22.8512V31.903H0V20.5459Z" fill="white"/>
</mask>
<g mask="url(#mask0_2848_1195)">
<path d="M16.9048 21.8555C16.5952 22.3376 16.2798 22.8198 15.9702 23.3079C15.0595 24.7721 14.2738 26.1233 13.5595 27.4269L13.3214 27.8495C13.1191 28.2007 12.8393 28.4745 12.4881 28.6769C12.1369 28.8793 11.756 28.9805 11.3571 28.9805H11.3452C10.9345 28.9745 10.5536 28.8674 10.1964 28.659C9.84524 28.4507 9.56548 28.165 9.3631 27.8019L8.30357 25.8852C7.82738 25.0102 7.32738 24.1471 6.80357 23.3079C6.50596 22.8198 6.17262 22.3436 5.85715 21.8614C2.27381 22.7305 0 24.4567 0 26.4924C0 29.5162 4.88095 31.784 11.3571 31.784C17.8274 31.784 22.7083 29.5162 22.7083 26.4924C22.7083 24.4686 20.4524 22.7483 16.9048 21.8555Z" fill="#8C52FF"/>
</g>
</svg>
