<svg width="126" height="42" viewBox="0 0 126 42" fill="none" xmlns="http://www.w3.org/2000/svg">
<path d="M0 4.49976H8.38636V12.8303H0V4.49976Z" fill="#8C52FF"/>
<path d="M0 15.6072H8.38636V23.9378H0V15.6072Z" fill="#8C52FF"/>
<path d="M0 26.7146H8.38636V35.0452H0V26.7146Z" fill="black"/>
<path d="M11.1818 15.4683H19.5681V23.7988H11.1818V15.4683Z" fill="black"/>
<path d="M10.9023 26.5759H19.2886V34.9065H10.9023V26.5759Z" fill="#8C52FF"/>
<path d="M22.3636 15.3296H30.75V23.6602H22.3636V15.3296Z" fill="#8C52FF"/>
<path d="M22.3636 26.7146H30.75V35.0452H22.3636V26.7146Z" fill="black"/>
<path d="M11.1818 4.49976H19.5682V12.8303H11.1818V4.49976Z" fill="#8C52FF"/>
<path d="M22.3636 4.49976H30.75V12.8303H22.3636V4.49976Z" fill="#8C52FF"/>
<path d="M46.7906 35L41.4469 15.3636H46.9568L49.9995 28.5568H50.1784L53.3489 15.3636H58.7566L61.9781 28.4801H62.1443L65.1358 15.3636H70.633L65.302 35H59.5364L56.1614 22.6506H55.9185L52.5435 35H46.7906ZM73.5382 35V15.3636H78.9842V35H73.5382ZM76.274 12.8324C75.4643 12.8324 74.7697 12.5639 74.1902 12.027C73.6191 11.4815 73.3336 10.8295 73.3336 10.071C73.3336 9.32102 73.6191 8.67756 74.1902 8.14062C74.7697 7.59517 75.4643 7.32244 76.274 7.32244C77.0836 7.32244 77.774 7.59517 78.345 8.14062C78.9245 8.67756 79.2143 9.32102 79.2143 10.071C79.2143 10.8295 78.9245 11.4815 78.345 12.027C77.774 12.5639 77.0836 12.8324 76.274 12.8324ZM83.1678 35V31.7145L96.2331 13.3821H83.1422V8.81818H103.188V12.1037L90.1095 30.4361H103.213V35H83.1678Z" fill="#8C52FF"/>
<path d="M116.307 35.3835C114.287 35.3835 112.549 34.9744 111.091 34.1562C109.643 33.3295 108.526 32.1619 107.742 30.6534C106.958 29.1364 106.566 27.3423 106.566 25.2713C106.566 23.2514 106.958 21.4787 107.742 19.9531C108.526 18.4276 109.63 17.2386 111.053 16.3864C112.485 15.5341 114.164 15.108 116.09 15.108C117.385 15.108 118.591 15.3168 119.708 15.7344C120.833 16.1435 121.813 16.7614 122.648 17.5881C123.492 18.4148 124.148 19.4545 124.617 20.7074C125.086 21.9517 125.32 23.4091 125.32 25.0795V26.5753H108.739V23.2003H120.194C120.194 22.4162 120.023 21.7216 119.682 21.1165C119.341 20.5114 118.868 20.0384 118.263 19.6974C117.667 19.348 116.972 19.1733 116.179 19.1733C115.353 19.1733 114.62 19.3651 113.981 19.7486C113.35 20.1236 112.856 20.6307 112.498 21.2699C112.14 21.9006 111.956 22.6037 111.948 23.3793V26.5881C111.948 27.5597 112.127 28.3991 112.485 29.1065C112.851 29.8139 113.367 30.3594 114.032 30.7429C114.697 31.1264 115.485 31.3182 116.397 31.3182C117.002 31.3182 117.556 31.233 118.059 31.0625C118.562 30.892 118.992 30.6364 119.35 30.2955C119.708 29.9545 119.981 29.5369 120.168 29.0426L125.205 29.375C124.949 30.5852 124.425 31.642 123.633 32.5455C122.849 33.4403 121.834 34.1392 120.59 34.642C119.354 35.1364 117.927 35.3835 116.307 35.3835Z" fill="black"/>
</svg>
