<svg width="152" height="52" viewBox="0 0 152 52" fill="none" xmlns="http://www.w3.org/2000/svg">
<path d="M0 5.57104H10.3636V15.8851H0V5.57104Z" fill="white"/>
<path d="M0 19.3232H10.3636V29.6373H0V19.3232Z" fill="white"/>
<path d="M0 33.0752H10.3636V43.3893H0V33.0752Z" fill="black"/>
<path d="M13.8184 19.1511H24.182V29.4652H13.8184V19.1511Z" fill="black"/>
<path d="M13.4727 32.9033H23.8363V43.2174H13.4727V32.9033Z" fill="white"/>
<path d="M27.6362 18.9792H37.9999V29.2933H27.6362V18.9792Z" fill="white"/>
<path d="M27.6362 33.0752H37.9999V43.3893H27.6362V33.0752Z" fill="black"/>
<path d="M13.8184 5.57104H24.182V15.8851H13.8184V5.57104Z" fill="white"/>
<path d="M27.6362 5.57104H37.9999V15.8851H27.6362V5.57104Z" fill="white"/>
<path d="M57.0688 39L51.1313 17.1818H57.2535L60.6342 31.8409H60.8331L64.3558 17.1818H70.3643L73.9438 31.7557H74.1285L77.4524 17.1818H83.5603L77.637 39H71.2308L67.4808 25.2784H67.2109L63.4609 39H57.0688ZM86.7883 39V17.1818H92.8394V39H86.7883ZM89.8281 14.3693C88.9285 14.3693 88.1567 14.071 87.5127 13.4744C86.8783 12.8684 86.561 12.1439 86.561 11.3011C86.561 10.4678 86.8783 9.75284 87.5127 9.15625C88.1567 8.55019 88.9285 8.24716 89.8281 8.24716C90.7277 8.24716 91.4947 8.55019 92.1292 9.15625C92.7732 9.75284 93.0951 10.4678 93.0951 11.3011C93.0951 12.1439 92.7732 12.8684 92.1292 13.4744C91.4947 14.071 90.7277 14.3693 89.8281 14.3693ZM97.4879 39V35.3494L112.005 14.9801H97.4595V9.90909H119.732V13.5597L105.201 33.929H119.761V39H97.4879Z" fill="white"/>
<path d="M134.31 39.4261C132.065 39.4261 130.133 38.9716 128.514 38.0625C126.904 37.1439 125.664 35.8466 124.793 34.1705C123.921 32.4848 123.486 30.4915 123.486 28.1903C123.486 25.946 123.921 23.9763 124.793 22.2812C125.664 20.5862 126.89 19.2652 128.472 18.3182C130.062 17.3712 131.928 16.8977 134.068 16.8977C135.508 16.8977 136.847 17.1297 138.088 17.5938C139.338 18.0483 140.427 18.7348 141.355 19.6534C142.293 20.572 143.022 21.7273 143.543 23.1193C144.063 24.5019 144.324 26.1212 144.324 27.9773V29.6392H125.901V25.8892H138.628C138.628 25.018 138.438 24.2462 138.06 23.5739C137.681 22.9015 137.155 22.3759 136.483 21.9972C135.82 21.6089 135.048 21.4148 134.168 21.4148C133.249 21.4148 132.435 21.6278 131.724 22.054C131.024 22.4706 130.474 23.0341 130.077 23.7443C129.679 24.4451 129.475 25.2263 129.466 26.0881V29.6534C129.466 30.733 129.665 31.6657 130.062 32.4517C130.47 33.2377 131.043 33.8438 131.781 34.2699C132.52 34.696 133.396 34.9091 134.409 34.9091C135.081 34.9091 135.697 34.8144 136.256 34.625C136.814 34.4356 137.293 34.1515 137.69 33.7727C138.088 33.3939 138.391 32.9299 138.599 32.3807L144.196 32.75C143.912 34.0947 143.33 35.2689 142.449 36.2727C141.578 37.267 140.451 38.0436 139.068 38.6023C137.695 39.1515 136.109 39.4261 134.31 39.4261Z" fill="black"/>
</svg>
