<svg width="29" height="20" viewBox="0 0 29 20" fill="none" xmlns="http://www.w3.org/2000/svg">
<mask id="mask0_2848_1184" style="mask-type:luminance" maskUnits="userSpaceOnUse" x="1" y="0" width="27" height="11">
<path d="M1.25684 0H27.9389V10.9728H1.25684V0Z" fill="white"/>
</mask>
<g mask="url(#mask0_2848_1184)">
<path d="M26.8789 0.231905C26.5026 0.0755659 26.103 -0.00550009 25.6919 0.000289911H3.09787C2.70413 0.000289911 2.32775 0.0755655 1.96875 0.226115L14.3949 10.6198L26.8789 0.231905Z" fill="#8C52FF"/>
</g>
<mask id="mask1_2848_1184" style="mask-type:luminance" maskUnits="userSpaceOnUse" x="0" y="0" width="29" height="20">
<path d="M0 0.59668H28.8882V20.0002H0V0.59668Z" fill="white"/>
</mask>
<g mask="url(#mask1_2848_1184)">
<path d="M28.402 1.63917L15.0494 12.7451C14.8583 12.9014 14.6383 12.9825 14.3951 12.9825C14.1461 12.9825 13.9261 12.9014 13.735 12.7451L0.405533 1.59863C0.150757 2.06186 0.0233696 2.55404 0.0175781 3.08097V17.4585C0.0175781 17.8638 0.0928541 18.2575 0.249193 18.6339C0.405534 19.0161 0.631358 19.3461 0.915086 19.6357C1.20461 19.9252 1.54045 20.1452 1.91682 20.3015C2.2932 20.4579 2.68694 20.5389 3.09806 20.5389H25.6921C26.0974 20.5389 26.4912 20.4579 26.8675 20.3015C27.2497 20.1452 27.5798 19.9252 27.8693 19.6357C28.1588 19.3461 28.3788 19.0161 28.5352 18.6339C28.6915 18.2575 28.7726 17.8638 28.7726 17.4585V3.08097C28.7668 2.57142 28.6452 2.09081 28.402 1.63917Z" fill="#8C52FF"/>
</g>
</svg>
