<svg width="31" height="31" viewBox="0 0 31 31" fill="none" xmlns="http://www.w3.org/2000/svg">
<g filter="url(#filter0_d_2848_1170)">
<path d="M15.9585 3.86947C15.9585 3.77051 15.9897 3.68717 16.0575 3.61947C16.1252 3.55176 16.2085 3.52051 16.3075 3.52051C16.7866 3.52051 17.2606 3.56738 17.7345 3.66113C18.2033 3.75488 18.6616 3.89551 19.1043 4.0778C19.5522 4.26009 19.9741 4.48926 20.37 4.75488C20.771 5.02051 21.1408 5.3278 21.4793 5.66634C21.8231 6.00488 22.1252 6.37467 22.3908 6.77572C22.6564 7.17155 22.8856 7.59342 23.0679 8.04134C23.2502 8.48405 23.3908 8.94238 23.4845 9.41113C23.5783 9.88509 23.6252 10.359 23.6252 10.8382C23.6252 10.9372 23.5939 11.0205 23.5262 11.0882C23.4585 11.1559 23.3752 11.1924 23.2762 11.1924C23.1825 11.1924 23.0991 11.1559 23.0314 11.0882C22.9637 11.0205 22.9272 10.9372 22.9272 10.8382C22.9272 10.4059 22.8856 9.97363 22.797 9.54655C22.7137 9.12467 22.5887 8.70801 22.422 8.30697C22.2554 7.90592 22.0522 7.52572 21.8075 7.16113C21.5679 6.80176 21.2918 6.46842 20.9845 6.16113C20.6772 5.85384 20.3439 5.5778 19.9845 5.33822C19.62 5.09342 19.2397 4.8903 18.8387 4.72363C18.4377 4.55697 18.021 4.43197 17.5991 4.34863C17.172 4.26009 16.7397 4.21842 16.3075 4.21842C16.2085 4.21842 16.1252 4.18197 16.0575 4.11426C15.9897 4.04655 15.9585 3.96322 15.9585 3.86947Z" fill="#8C52FF"/>
<path d="M15.9582 7.39583C15.9582 7.30208 15.9894 7.21875 16.0571 7.15104C16.1248 7.08333 16.2082 7.04688 16.3071 7.04688C16.8071 7.05208 17.2915 7.14583 17.7498 7.33854C18.2134 7.53646 18.6248 7.80729 18.979 8.16146C19.3332 8.52083 19.604 8.92708 19.7967 9.39062C19.9894 9.85417 20.0832 10.3385 20.0832 10.8385C20.0832 10.9375 20.0519 11.0208 19.9842 11.0885C19.9113 11.1563 19.8332 11.1927 19.7342 11.1927C19.5155 11.1771 19.3957 11.0625 19.3853 10.8385C19.3853 10.4323 19.3071 10.0365 19.1509 9.65625C18.9894 9.28125 18.7707 8.94271 18.479 8.65625C18.1873 8.36458 17.854 8.14063 17.479 7.98438C17.0988 7.82813 16.703 7.75 16.2967 7.75C16.0676 7.73958 15.953 7.625 15.9582 7.39583Z" fill="#8C52FF"/>
<mask id="mask0_2848_1170" style="mask-type:luminance" maskUnits="userSpaceOnUse" x="15" y="0" width="12" height="13">
<path d="M15.7812 0H26.9896V12.2083H15.7812V0Z" fill="white"/>
</mask>
<g mask="url(#mask0_2848_1170)">
<path d="M27.1564 10.8385C27.1564 10.9375 27.12 11.0208 27.0522 11.0885C26.9845 11.1563 26.9012 11.1927 26.8075 11.1927C26.7085 11.1927 26.6252 11.1563 26.5575 11.0885C26.4897 11.0208 26.4585 10.9375 26.4585 10.8385C26.4533 10.1719 26.3908 9.51563 26.2606 8.85938C26.1304 8.20833 25.9377 7.57292 25.6825 6.95833C25.4272 6.34375 25.1147 5.75521 24.745 5.20312C24.3752 4.64583 23.9533 4.13542 23.4793 3.66667C23.0106 3.19271 22.5002 2.77083 21.9429 2.40104C21.3908 2.03125 20.8075 1.71875 20.1877 1.46354C19.5731 1.20833 18.9377 1.01563 18.2866 0.885417C17.6304 0.755209 16.9741 0.6875 16.3075 0.6875C16.2085 0.6875 16.1252 0.651041 16.0575 0.583333C15.9897 0.515625 15.9585 0.432292 15.9585 0.338542C15.9585 0.239584 15.9897 0.156251 16.0575 0.0885417C16.1252 0.0208337 16.2085 -0.015625 16.3075 -0.015625C17.0158 -0.0104157 17.7241 0.0572913 18.422 0.197917C19.12 0.338541 19.797 0.541667 20.4585 0.817708C21.1147 1.08854 21.7397 1.42708 22.3335 1.82292C22.922 2.21875 23.4689 2.66667 23.9741 3.17188C24.4793 3.67188 24.9272 4.22396 25.3231 4.8125C25.7189 5.40625 26.0522 6.03125 26.3283 6.6875C26.5991 7.34896 26.8075 8.02604 26.9481 8.72396C27.0835 9.42188 27.1564 10.1302 27.1564 10.8385Z" fill="#8C52FF"/>
</g>
<mask id="mask1_2848_1170" style="mask-type:luminance" maskUnits="userSpaceOnUse" x="4" y="0" width="23" height="23">
<path d="M4 0.208008H26.4479V22.8747H4V0.208008Z" fill="white"/>
</mask>
<g mask="url(#mask1_2848_1170)">
<path d="M25.9582 18.3122V18.9945C25.953 19.5413 25.7603 20.0153 25.3696 20.4007L23.5363 22.2184C23.1561 22.5986 22.6926 22.7913 22.1509 22.7966H22.0676C20.9009 22.7445 19.7499 22.5882 18.6144 22.3226C17.4738 22.057 16.3696 21.6924 15.3019 21.2236C14.2342 20.7497 13.2186 20.1872 12.2551 19.5309C11.2915 18.8695 10.3957 18.1247 9.57277 17.3018C8.74465 16.4736 8.00506 15.583 7.3436 14.6195C6.68735 13.6507 6.11965 12.6351 5.6509 11.5674C5.18215 10.4997 4.81235 9.39551 4.55194 8.26009C4.28631 7.11947 4.13006 5.96842 4.07798 4.80176C4.04673 4.22363 4.23944 3.72363 4.6509 3.31217L6.4686 1.49967C6.85923 1.11426 7.32798 0.916341 7.88006 0.911133H8.54673C8.95819 0.916341 9.33319 1.03092 9.67694 1.2653C10.0155 1.49967 10.2603 1.81217 10.4061 2.19759L12.0155 6.46842C12.1457 6.8278 12.1717 7.18717 12.0988 7.56217C12.0259 7.93197 11.854 8.25488 11.5988 8.53092L10.9321 9.23405C10.7238 9.45801 10.604 9.71842 10.5832 10.0205C10.5624 10.3226 10.6353 10.5986 10.8071 10.8486C12.229 12.9111 13.9634 14.6559 16.0207 16.0882C16.2707 16.2497 16.5415 16.3174 16.8384 16.2913C17.1353 16.2653 17.3905 16.1507 17.604 15.9424L18.3176 15.2653C18.5936 15.0049 18.9217 14.8382 19.2915 14.7653C19.6613 14.6872 20.0259 14.7184 20.3801 14.8486L24.6561 16.458C25.0415 16.5986 25.3592 16.8434 25.5936 17.182C25.8332 17.5205 25.953 17.9007 25.9582 18.3122Z" fill="#8C52FF"/>
</g>
</g>
<defs>
<filter id="filter0_d_2848_1170" x="0.074707" y="0" width="30.915" height="30.7969" filterUnits="userSpaceOnUse" color-interpolation-filters="sRGB">
<feFlood flood-opacity="0" result="BackgroundImageFix"/>
<feColorMatrix in="SourceAlpha" type="matrix" values="0 0 0 0 0 0 0 0 0 0 0 0 0 0 0 0 0 0 127 0" result="hardAlpha"/>
<feOffset dy="4"/>
<feGaussianBlur stdDeviation="2"/>
<feComposite in2="hardAlpha" operator="out"/>
<feColorMatrix type="matrix" values="0 0 0 0 0 0 0 0 0 0 0 0 0 0 0 0 0 0 0.25 0"/>
<feBlend mode="normal" in2="BackgroundImageFix" result="effect1_dropShadow_2848_1170"/>
<feBlend mode="normal" in="SourceGraphic" in2="effect1_dropShadow_2848_1170" result="shape"/>
</filter>
</defs>
</svg>
