<svg width="59" height="58" viewBox="0 0 59 58" fill="none" xmlns="http://www.w3.org/2000/svg">
<mask id="mask0_3082_508" style="mask-type:luminance" maskUnits="userSpaceOnUse" x="14" y="0" width="45" height="44">
<path d="M14.8066 0H58.7858V43.9792H14.8066V0Z" fill="white"/>
</mask>
<g mask="url(#mask0_3082_508)">
<path d="M32.3691 14.6354C32.3691 14.4323 32.2962 14.2604 32.1556 14.1198C32.0098 13.974 31.8379 13.9062 31.64 13.9062H27.2493C27.0462 13.9062 26.8743 13.974 26.7285 14.1198C26.5879 14.2604 26.515 14.4323 26.515 14.6354V19.026C26.515 19.2292 26.5879 19.401 26.7285 19.5417C26.8743 19.6875 27.0462 19.7552 27.2493 19.7552H31.64C31.8379 19.7552 32.0098 19.6875 32.1556 19.5417C32.2962 19.401 32.3691 19.2292 32.3691 19.026V14.6354ZM30.9056 18.2917H27.9785V15.3698H30.9056V18.2917ZM34.5618 13.9062C34.3639 13.9062 34.1921 13.974 34.0462 14.1198C33.9056 14.2604 33.8327 14.4323 33.8327 14.6354V19.026C33.8327 19.2292 33.9056 19.401 34.0462 19.5417C34.1921 19.6875 34.3639 19.7552 34.5618 19.7552H38.9525C39.1556 19.7552 39.3275 19.6875 39.4733 19.5417C39.6139 19.401 39.6868 19.2292 39.6868 19.026V14.6354C39.6868 14.4323 39.6139 14.2604 39.4733 14.1198C39.3275 13.974 39.1556 13.9062 38.9525 13.9062H34.5618ZM38.2233 18.2917H35.2962V15.3698H38.2233V18.2917ZM25.0514 21.9531C25.0514 21.75 24.9837 21.5781 24.8379 21.4375C24.6973 21.2917 24.5254 21.2188 24.3223 21.2188H19.9316C19.7285 21.2188 19.5566 21.2917 19.416 21.4375C19.2702 21.5781 19.1973 21.75 19.1973 21.9531V26.3438C19.1973 26.5469 19.2702 26.7188 19.416 26.8594C19.5566 27.0052 19.7285 27.0729 19.9316 27.0729H24.3223C24.5254 27.0729 24.6973 27.0052 24.8379 26.8594C24.9837 26.7188 25.0514 26.5469 25.0514 26.3438V21.9531ZM23.5879 25.6094H20.6608V22.6823H23.5879V25.6094ZM32.3691 21.9531C32.3691 21.75 32.2962 21.5781 32.1556 21.4375C32.0098 21.2917 31.8379 21.2188 31.64 21.2188H27.2493C27.0462 21.2188 26.8743 21.2917 26.7285 21.4375C26.5879 21.5781 26.515 21.75 26.515 21.9531V26.3438C26.515 26.5469 26.5879 26.7188 26.7285 26.8594C26.8743 27.0052 27.0462 27.0729 27.2493 27.0729H31.64C31.8379 27.0729 32.0098 27.0052 32.1556 26.8594C32.2962 26.7188 32.3691 26.5469 32.3691 26.3438V21.9531ZM30.9056 25.6094H27.9785V22.6823H30.9056V25.6094ZM24.3223 28.5365H19.9316C19.7285 28.5365 19.5566 28.6094 19.416 28.75C19.2702 28.8958 19.1973 29.0677 19.1973 29.2708V33.6615C19.1973 33.8594 19.2702 34.0312 19.416 34.1771C19.5566 34.3177 19.7285 34.3906 19.9316 34.3906H24.3223C24.5254 34.3906 24.6973 34.3177 24.8379 34.1771C24.9837 34.0312 25.0514 33.8594 25.0514 33.6615V29.2708C25.0514 29.0677 24.9837 28.8958 24.8379 28.75C24.6973 28.6094 24.5254 28.5365 24.3223 28.5365ZM23.5879 32.9271H20.6608V30H23.5879V32.9271ZM31.64 28.5365H27.2493C27.0462 28.5365 26.8743 28.6094 26.7285 28.75C26.5879 28.8958 26.515 29.0677 26.515 29.2708V33.6615C26.515 33.8594 26.5879 34.0312 26.7285 34.1771C26.8743 34.3177 27.0462 34.3906 27.2493 34.3906H31.64C31.8379 34.3906 32.0098 34.3177 32.1556 34.1771C32.2962 34.0312 32.3691 33.8594 32.3691 33.6615V29.2708C32.3691 29.0677 32.2962 28.8958 32.1556 28.75C32.0098 28.6094 31.8379 28.5365 31.64 28.5365ZM30.9056 32.9271H27.9785V30H30.9056V32.9271ZM46.2702 19.026C45.4525 19.026 44.6452 19.1042 43.8431 19.2656C43.041 19.4219 42.265 19.6615 41.5098 19.974C40.7546 20.2865 40.041 20.6667 39.3587 21.1198C38.6816 21.5781 38.0514 22.0938 37.4733 22.6667C36.9004 23.2448 36.3848 23.875 35.9264 24.5521C35.4733 25.2344 35.0931 25.9479 34.7806 26.7031C34.4681 27.4583 34.2285 28.2344 34.0723 29.0365C33.9108 29.8385 33.8327 30.6458 33.8327 31.4635C33.8327 32.2812 33.9108 33.0885 34.0723 33.8906C34.2285 34.6927 34.4681 35.4688 34.7806 36.224C35.0931 36.9792 35.4733 37.6979 35.9264 38.375C36.3848 39.0521 36.9004 39.6823 37.4733 40.2604C38.0514 40.8385 38.6816 41.3542 39.3587 41.8073C40.041 42.2604 40.7546 42.6458 41.5098 42.9583C42.265 43.2708 43.041 43.5052 43.8431 43.6615C44.6452 43.8229 45.4525 43.901 46.2702 43.901C47.0879 43.901 47.8952 43.8229 48.6973 43.6615C49.4993 43.5052 50.2754 43.2708 51.0306 42.9583C51.7858 42.6458 52.5046 42.2604 53.1816 41.8073C53.8587 41.3542 54.4889 40.8385 55.0671 40.2604C55.6452 39.6823 56.1608 39.0521 56.6139 38.375C57.0671 37.6979 57.4525 36.9792 57.765 36.224C58.0775 35.4688 58.3118 34.6927 58.4681 33.8906C58.6296 33.0885 58.7077 32.2812 58.7077 31.4635C58.7077 30.6458 58.6296 29.8385 58.4681 29.0365C58.3066 28.2396 58.0723 27.4583 57.7598 26.7083C57.4473 25.9531 57.0619 25.2344 56.6087 24.5573C56.1556 23.8802 55.64 23.25 55.0619 22.6719C54.4837 22.0938 53.8587 21.5781 53.1764 21.125C52.4993 20.6719 51.7806 20.2917 51.0306 19.974C50.2754 19.6615 49.4993 19.4271 48.6973 19.2656C47.8952 19.1094 47.0879 19.026 46.2702 19.026ZM46.2702 42.4375C45.5514 42.4375 44.8379 42.3698 44.1296 42.2292C43.4212 42.0885 42.7389 41.8802 42.0723 41.6042C41.4056 41.3281 40.7754 40.9896 40.1712 40.5885C39.5723 40.1875 39.0202 39.7344 38.5098 39.224C37.9993 38.7135 37.5462 38.1615 37.1452 37.5625C36.7441 36.9635 36.4056 36.3281 36.1296 35.6667C35.8535 35 35.6452 34.3125 35.5046 33.6042C35.3639 32.901 35.2962 32.1823 35.2962 31.4635C35.2962 30.7448 35.3639 30.0312 35.5046 29.3229C35.6452 28.6146 35.8535 27.9323 36.1296 27.2656C36.4056 26.599 36.7441 25.9635 37.1452 25.3646C37.5462 24.7656 37.9993 24.2135 38.5098 23.7031C39.0202 23.1927 39.5723 22.7396 40.1712 22.3385C40.7754 21.9375 41.4056 21.599 42.0723 21.3229C42.7389 21.0469 43.4212 20.8385 44.1296 20.6979C44.8379 20.5573 45.5514 20.4896 46.2702 20.4896C46.9941 20.4896 47.7077 20.5573 48.4108 20.6979C49.1191 20.8385 49.8066 21.0469 50.4733 21.3229C51.1348 21.599 51.7702 21.9375 52.3691 22.3385C52.9681 22.7396 53.5202 23.1927 54.0306 23.7031C54.541 24.2135 54.9941 24.7656 55.3952 25.3646C55.7962 25.9635 56.1348 26.599 56.4108 27.2656C56.6869 27.9323 56.8952 28.6146 57.0358 29.3229C57.1764 30.0312 57.2441 30.7448 57.2441 31.4635C57.2441 32.1823 57.1764 32.8958 57.0358 33.6042C56.89 34.3125 56.6816 34.9948 56.4056 35.6615C56.1296 36.3281 55.791 36.9583 55.3952 37.5573C54.9941 38.1562 54.5358 38.7135 54.0306 39.2188C53.5202 39.7292 52.9629 40.1875 52.3639 40.5885C51.765 40.9844 51.1348 41.3229 50.4681 41.599C49.8014 41.875 49.1191 42.0833 48.4108 42.224C47.7025 42.3698 46.9941 42.4375 46.2702 42.4375ZM33.1035 37.3177H18.4681C18.1764 37.3177 17.8952 37.2604 17.6296 37.151C17.3587 37.0365 17.1243 36.8802 16.916 36.6719C16.7129 36.4688 16.5514 36.2292 16.4421 35.9635C16.3275 35.6927 16.2754 35.4115 16.2702 35.125V10.9792H49.9316V17.5625C49.9316 17.7656 49.9994 17.9375 50.1452 18.0781C50.2858 18.224 50.4577 18.2917 50.6608 18.2917C50.8639 18.2917 51.0358 18.224 51.1764 18.0781C51.3223 17.9375 51.3952 17.7656 51.3952 17.5625V7.31771C51.39 6.83333 51.3014 6.36979 51.1139 5.92188C50.9264 5.47396 50.6608 5.07812 50.3223 4.73438C49.9785 4.39062 49.5827 4.125 49.1348 3.94271C48.6868 3.75521 48.2181 3.66146 47.7337 3.66146H45.541V2.19792C45.541 1.90625 45.4837 1.625 45.3743 1.35938C45.2598 1.08854 45.1035 0.848959 44.8952 0.645833C44.6921 0.4375 44.4525 0.28125 44.1868 0.171875C43.916 0.057291 43.6348 0 43.3431 0C43.0514 0 42.7754 0.057291 42.5046 0.171875C42.2337 0.28125 41.9993 0.4375 41.791 0.645833C41.5879 0.848959 41.4264 1.08854 41.3171 1.35938C41.2077 1.625 41.1504 1.90625 41.1504 2.19792V3.66146H35.2962V2.19792C35.2962 1.90625 35.2389 1.625 35.1296 1.35938C35.015 1.08854 34.8587 0.848959 34.6556 0.645833C34.4473 0.4375 34.2077 0.28125 33.9421 0.171875C33.6712 0.057291 33.39 0 33.1035 0C32.8118 0 32.5306 0.057291 32.2598 0.171875C31.9941 0.28125 31.7546 0.4375 31.5514 0.645833C31.3431 0.848959 31.1868 1.08854 31.0723 1.35938C30.9629 1.625 30.9056 1.90625 30.9056 2.19792V3.66146H25.0514V2.19792C25.0514 1.90625 24.9993 1.625 24.8848 1.35938C24.7754 1.08854 24.6139 0.848959 24.4108 0.645833C24.2025 0.4375 23.9681 0.28125 23.6973 0.171875C23.4264 0.057291 23.1504 0 22.8587 0C22.5671 0 22.2858 0.057291 22.015 0.171875C21.7493 0.28125 21.5098 0.4375 21.3066 0.645833C21.0983 0.848959 20.9421 1.08854 20.8275 1.35938C20.7181 1.625 20.6608 1.90625 20.6608 2.19792V3.66146H18.4681C17.9837 3.66146 17.515 3.75521 17.0671 3.94271C16.6191 4.125 16.2233 4.39062 15.8796 4.73438C15.541 5.07812 15.2754 5.47396 15.0879 5.92188C14.9004 6.36979 14.8118 6.83333 14.8066 7.31771V35.125C14.8118 35.6094 14.9004 36.0729 15.0879 36.5208C15.2754 36.9688 15.541 37.3646 15.8796 37.7083C16.2233 38.0521 16.6191 38.3177 17.0671 38.5C17.515 38.6875 17.9837 38.7812 18.4681 38.7812H33.1035C33.3014 38.7812 33.4733 38.7083 33.6191 38.5677C33.7598 38.4219 33.8327 38.25 33.8327 38.0469C33.8327 37.849 33.7598 37.6771 33.6191 37.5312C33.4733 37.3906 33.3014 37.3177 33.1035 37.3177ZM42.6139 2.19792C42.6139 1.99479 42.6816 1.82292 42.8275 1.68229C42.9681 1.53646 43.14 1.46354 43.3431 1.46354C43.5462 1.46354 43.7181 1.53646 43.8639 1.68229C44.0046 1.82292 44.0775 1.99479 44.0775 2.19792V5.85417C44.0775 6.05729 44.0046 6.22917 43.8639 6.375C43.7181 6.51562 43.5462 6.58854 43.3431 6.58854C43.14 6.58854 42.9681 6.51562 42.8275 6.375C42.6816 6.22917 42.6139 6.05729 42.6139 5.85417V2.19792ZM32.3691 2.19792C32.3691 1.99479 32.4421 1.82292 32.5827 1.68229C32.7285 1.53646 32.9004 1.46354 33.1035 1.46354C33.3014 1.46354 33.4733 1.53646 33.6191 1.68229C33.7598 1.82292 33.8327 1.99479 33.8327 2.19792V5.85417C33.8327 6.05729 33.7598 6.22917 33.6191 6.375C33.4733 6.51562 33.3014 6.58854 33.1035 6.58854C32.9004 6.58854 32.7285 6.51562 32.5827 6.375C32.4421 6.22917 32.3691 6.05729 32.3691 5.85417V2.19792ZM22.1243 2.19792C22.1243 1.99479 22.1973 1.82292 22.3379 1.68229C22.4837 1.53646 22.6556 1.46354 22.8587 1.46354C23.0618 1.46354 23.2337 1.53646 23.3743 1.68229C23.5202 1.82292 23.5879 1.99479 23.5879 2.19792V5.85417C23.5879 6.05729 23.5202 6.22917 23.3743 6.375C23.2337 6.51562 23.0618 6.58854 22.8587 6.58854C22.6556 6.58854 22.4837 6.51562 22.3379 6.375C22.1973 6.22917 22.1243 6.05729 22.1243 5.85417V2.19792ZM18.4681 5.125H20.6608V5.85417C20.6608 6.14583 20.7181 6.42708 20.8275 6.69792C20.9421 6.96354 21.0983 7.20312 21.3066 7.40625C21.5098 7.61458 21.7493 7.77083 22.015 7.88542C22.2858 7.99479 22.5671 8.05208 22.8587 8.05208C23.1504 8.05208 23.4264 7.99479 23.6973 7.88542C23.9681 7.77083 24.2025 7.61458 24.4108 7.40625C24.6139 7.20312 24.7754 6.96354 24.8848 6.69792C24.9993 6.42708 25.0514 6.14583 25.0514 5.85417V5.125H30.9056V5.85417C30.9056 6.14583 30.9629 6.42708 31.0723 6.69792C31.1868 6.96354 31.3431 7.20312 31.5514 7.40625C31.7546 7.61458 31.9941 7.77083 32.2598 7.88542C32.5306 7.99479 32.8118 8.05208 33.1035 8.05208C33.39 8.05208 33.6712 7.99479 33.9421 7.88542C34.2077 7.77083 34.4473 7.61458 34.6556 7.40625C34.8587 7.20312 35.015 6.96354 35.1296 6.69792C35.2389 6.42708 35.2962 6.14583 35.2962 5.85417V5.125H41.1504V5.85417C41.1504 6.14583 41.2077 6.42708 41.3171 6.69792C41.4264 6.96354 41.5879 7.20312 41.791 7.40625C41.9993 7.61458 42.2337 7.77083 42.5046 7.88542C42.7754 7.99479 43.0514 8.05208 43.3431 8.05208C43.6348 8.05208 43.916 7.99479 44.1868 7.88542C44.4525 7.77083 44.6921 7.61458 44.8952 7.40625C45.1035 7.20312 45.2598 6.96354 45.3743 6.69792C45.4837 6.42708 45.541 6.14583 45.541 5.85417V5.125H47.7337C48.0254 5.125 48.3066 5.18229 48.5723 5.29167C48.8431 5.40104 49.0827 5.5625 49.2858 5.76562C49.4941 5.97396 49.6504 6.20833 49.7598 6.47917C49.8743 6.75 49.9316 7.02604 49.9316 7.31771V9.51562H16.2702V7.31771C16.2754 7.02604 16.3275 6.75 16.4421 6.47917C16.5514 6.20833 16.7129 5.97396 16.916 5.76562C17.1243 5.5625 17.3587 5.40104 17.6296 5.29167C17.8952 5.18229 18.1764 5.125 18.4681 5.125ZM45.541 16.8333V15.3698H42.6139V17.5052C42.6139 17.7031 42.541 17.875 42.4004 18.0208C42.2546 18.1615 42.0827 18.2344 41.8796 18.2344C41.6816 18.2344 41.5046 18.1615 41.3639 18.0208C41.2233 17.875 41.1504 17.7031 41.1504 17.5052V14.6354C41.1504 14.4323 41.2233 14.2604 41.3639 14.1198C41.5046 13.974 41.6764 13.9062 41.8796 13.9062H46.2702C46.4733 13.9062 46.6452 13.974 46.791 14.1198C46.9316 14.2604 47.0046 14.4323 47.0046 14.6354V16.8333C47.0046 17.0312 46.9316 17.2031 46.791 17.349C46.6452 17.4896 46.4733 17.5625 46.2702 17.5625C46.0671 17.5625 45.8952 17.4896 45.7546 17.349C45.6087 17.2031 45.541 17.0312 45.541 16.8333ZM46.2702 21.9531C45.6452 21.9531 45.0306 22.0156 44.416 22.1354C43.8014 22.2552 43.2077 22.4375 42.6296 22.6771C42.0566 22.9167 41.5046 23.2083 40.9889 23.5573C40.4681 23.901 39.9889 24.2969 39.5462 24.7396C39.1035 25.1823 38.7077 25.6615 38.3639 26.1823C38.015 26.6979 37.7233 27.2448 37.4837 27.8229C37.2441 28.401 37.0618 28.9948 36.9421 29.6094C36.8223 30.2188 36.7598 30.8385 36.7598 31.4635C36.7598 32.0885 36.8223 32.7083 36.9421 33.3177C37.0618 33.9323 37.2441 34.526 37.4837 35.1042C37.7233 35.6823 38.015 36.2292 38.3639 36.75C38.7077 37.2656 39.1035 37.75 39.5462 38.1875C39.9889 38.6302 40.4681 39.026 40.9889 39.375C41.5046 39.7188 42.0566 40.0104 42.6296 40.25C43.2077 40.4896 43.8014 40.6719 44.416 40.7917C45.0306 40.9167 45.6452 40.974 46.2702 40.974C46.8952 40.974 47.515 40.9167 48.1244 40.7917C48.7389 40.6719 49.3327 40.4896 49.9108 40.25C50.4889 40.0104 51.0358 39.7188 51.5566 39.375C52.0775 39.026 52.5566 38.6302 52.9994 38.1875C53.4369 37.75 53.8327 37.2656 54.1816 36.75C54.5254 36.2292 54.8223 35.6823 55.0566 35.1042C55.2962 34.526 55.4785 33.9323 55.5983 33.3177C55.7233 32.7083 55.7806 32.0885 55.7806 31.4635C55.7806 30.8385 55.7181 30.224 55.5983 29.6094C55.4785 28.9948 55.2962 28.401 55.0566 27.8281C54.8171 27.25 54.5254 26.7031 54.1764 26.1823C53.8275 25.6615 53.4369 25.1823 52.9941 24.7396C52.5514 24.3021 52.0723 23.9063 51.5514 23.5573C51.0358 23.2135 50.4837 22.9167 49.9108 22.6771C49.3327 22.4427 48.7389 22.2604 48.1244 22.1354C47.515 22.0156 46.8952 21.9531 46.2702 21.9531ZM47.0046 39.474V38.0469C47.0046 37.849 46.9316 37.6771 46.791 37.5312C46.6452 37.3906 46.4733 37.3177 46.2702 37.3177C46.0671 37.3177 45.8952 37.3906 45.7546 37.5312C45.6087 37.6771 45.541 37.849 45.541 38.0469V39.474C44.6035 39.3906 43.7077 39.1458 42.8587 38.7448C42.0098 38.349 41.2493 37.8125 40.5827 37.151C39.9212 36.4844 39.39 35.7292 38.9889 34.875C38.5879 34.026 38.3483 33.1302 38.2598 32.1979H39.6868C39.89 32.1979 40.0618 32.125 40.2025 31.9792C40.3483 31.8385 40.416 31.6667 40.416 31.4635C40.416 31.2604 40.3483 31.0885 40.2025 30.9479C40.0618 30.8021 39.89 30.7344 39.6868 30.7344H38.2598C38.3483 29.7969 38.5879 28.901 38.9889 28.0521C39.39 27.2031 39.9212 26.4427 40.5827 25.776C41.2493 25.1146 42.0098 24.5833 42.8587 24.1823C43.7077 23.7813 44.6035 23.5417 45.541 23.4531V24.8802C45.541 25.0833 45.6087 25.2552 45.7546 25.3958C45.8952 25.5417 46.0671 25.6094 46.2702 25.6094C46.4733 25.6094 46.6452 25.5417 46.791 25.3958C46.9316 25.2552 47.0046 25.0833 47.0046 24.8802V23.4531C47.9368 23.5417 48.8327 23.7813 49.6816 24.1823C50.5358 24.5833 51.291 25.1146 51.9577 25.776C52.6244 26.4427 53.1556 27.2031 53.5514 28.0521C53.9525 28.901 54.1973 29.7969 54.2806 30.7344H52.8587C52.6556 30.7344 52.4837 30.8021 52.3379 30.9479C52.1973 31.0885 52.1244 31.2604 52.1244 31.4635C52.1244 31.6667 52.1973 31.8385 52.3379 31.9792C52.4837 32.125 52.6556 32.1979 52.8587 32.1979H54.2806C54.1973 33.1302 53.9525 34.026 53.5514 34.875C53.1556 35.7292 52.6244 36.4844 51.9577 37.151C51.291 37.8125 50.5358 38.349 49.6816 38.7448C48.8327 39.1458 47.9368 39.3906 47.0046 39.474ZM48.9837 33.1406C49.1296 33.2865 49.2025 33.4583 49.2025 33.6615C49.2025 33.8646 49.1296 34.0365 48.9889 34.1823C48.8431 34.3229 48.6712 34.3958 48.4681 34.3958C48.265 34.3958 48.0931 34.3229 47.9473 34.1771L45.7546 31.9792C45.6087 31.8385 45.541 31.6667 45.541 31.4635V27.8073C45.541 27.6042 45.6087 27.4323 45.7546 27.2865C45.8952 27.1458 46.0671 27.0729 46.2702 27.0729C46.4733 27.0729 46.6452 27.1458 46.791 27.2865C46.9316 27.4323 47.0046 27.6042 47.0046 27.8073V31.1615L48.9837 33.1406Z" fill="#8C52FF"/>
</g>
<mask id="mask1_3082_508" style="mask-type:luminance" maskUnits="userSpaceOnUse" x="0" y="36" width="21" height="22">
<path d="M0 36.3955H20.849V57.0518H0V36.3955Z" fill="white"/>
</mask>
<g mask="url(#mask1_3082_508)">
<path d="M10.3177 37.2809C5.11458 37.2809 0.880208 41.5101 0.880208 46.7132C0.880208 51.9163 5.11458 56.1455 10.3177 56.1455C15.5156 56.1455 19.75 51.9163 19.75 46.7132C19.75 41.5101 15.5156 37.2809 10.3177 37.2809ZM10.3177 57.0257C8.92188 57.0257 7.57292 56.7549 6.30208 56.2184C5.07292 55.6976 3.96875 54.9528 3.02083 54.0049C2.07292 53.057 1.33333 51.958 0.8125 50.7288C0.276041 49.458 0 48.1038 0 46.7132C0 45.3226 0.276041 43.9684 0.8125 42.6976C1.33333 41.4684 2.07292 40.3643 3.02083 39.4163C3.96875 38.4736 5.07292 37.7288 6.30208 37.208C7.57292 36.6715 8.92188 36.3955 10.3177 36.3955C11.7083 36.3955 13.0573 36.6715 14.3333 37.208C15.5573 37.7288 16.6615 38.4736 17.6094 39.4163C18.5573 40.3643 19.3021 41.4684 19.8229 42.6976C20.3594 43.9684 20.6302 45.3226 20.6302 46.7132C20.6302 48.1038 20.3594 49.458 19.8229 50.7288C19.3021 51.958 18.5573 53.057 17.6094 54.0049C16.6615 54.9528 15.5573 55.6976 14.3333 56.2184C13.0573 56.7549 11.7083 57.0257 10.3177 57.0257Z" fill="#8C52FF"/>
<path d="M11.8542 50.6667H5.80729C5.35938 50.6667 5 50.3021 5 49.8542V43.8125C5 43.3646 5.35938 43 5.80729 43H11.8542C12.3021 43 12.6615 43.3646 12.6615 43.8125V49.8542C12.6615 50.3021 12.3021 50.6667 11.8542 50.6667Z" fill="#8C52FF"/>
<path d="M15.8076 49.6871L13.6045 48.5152C13.4639 48.4371 13.3701 48.2861 13.3701 48.1194V45.5413C13.3701 45.3798 13.4639 45.2288 13.6045 45.1507L15.8076 43.9788C16.1045 43.8173 16.4587 44.0309 16.4587 44.3694V49.2965C16.4587 49.6298 16.1045 49.8434 15.8076 49.6871Z" fill="#8C52FF"/>
</g>
</svg>
