<svg width="31" height="32" viewBox="0 0 31 32" fill="none" xmlns="http://www.w3.org/2000/svg">
<mask id="mask0_2848_1151" style="mask-type:luminance" maskUnits="userSpaceOnUse" x="11" y="4" width="20" height="28">
<path d="M11.5259 4.53125H30.1925V31.9844H11.5259V4.53125Z" fill="white"/>
</mask>
<g mask="url(#mask0_2848_1151)">
<path d="M29.8903 32.026C29.0414 30.6719 28.1872 29.3177 27.3383 27.9635L26.0622 25.9375L24.781 23.9115L22.2133 19.8646L19.8018 16.0729L22.906 11.5156L23.7237 10.3229C23.9945 9.92188 24.2653 9.52083 24.5414 9.125L26.1924 6.74479L26.8591 5.78125L18.0622 5.71875L17.8747 6.05208C17.6039 6.53646 17.3383 7.02604 17.0726 7.51042L16.8747 7.875L16.6768 8.24479L16.281 8.97917L15.4945 10.4479L15.0935 11.2083C14.9424 10.9792 14.7914 10.7448 14.6403 10.5156L14.1716 9.81771L13.2237 8.42188L12.7497 7.72917C12.4268 7.27083 12.0987 6.8125 11.7705 6.35938C11.7497 6.31771 11.7185 6.30729 11.6768 6.33333C11.6403 6.35417 11.6299 6.38542 11.6508 6.42708C11.8903 6.93229 12.1403 7.4375 12.3903 7.9375L12.7705 8.69271L13.156 9.44271L13.5414 10.1875L13.932 10.9323C14.1924 11.4271 14.458 11.9271 14.7237 12.4167L15.1039 13.1302L15.5622 12.4115C15.8643 11.9427 16.156 11.474 16.4476 11L17.3278 9.58333L17.7601 8.875L17.9789 8.52083L18.1924 8.16667C18.4112 7.80208 18.6299 7.44271 18.8487 7.08333C19.0205 7.08333 24.2758 7.0625 24.4841 7.05729L23.583 8.49479C23.3278 8.90104 23.0622 9.30729 22.807 9.71354L22.0258 10.9375L18.9008 15.8177L18.7341 16.0729L18.9008 16.3073L21.6091 20.2604L24.3226 24.2135L25.682 26.1875L27.0466 28.1615C27.9528 29.4792 28.8643 30.7917 29.7758 32.099C29.8018 32.1354 29.833 32.1458 29.8695 32.1198C29.906 32.0938 29.9112 32.0625 29.8903 32.026Z" fill="#8C52FF"/>
</g>
<mask id="mask1_2848_1151" style="mask-type:luminance" maskUnits="userSpaceOnUse" x="0" y="0" width="20" height="28">
<path d="M0.369629 0H19.5259V27.1979H0.369629V0Z" fill="white"/>
</mask>
<g mask="url(#mask1_2848_1151)">
<path d="M17.8906 24.1879L17.5104 23.4327L17.1302 22.6827L16.3489 21.1931C16.0885 20.6984 15.8281 20.1984 15.5625 19.7088L15.1771 18.9952L14.7187 19.714C14.4219 20.1827 14.1302 20.6567 13.8333 21.1254L12.9531 22.5421L12.5208 23.2556L12.3021 23.6098L12.0885 23.964C11.8698 24.3234 11.6562 24.6827 11.4375 25.0421C11.2656 25.0421 6.0104 25.0629 5.79686 25.0681L6.6979 23.6359C6.95831 23.2244 7.21873 22.8181 7.47915 22.4119L8.2604 21.1879L11.3854 16.3077L11.5469 16.0525L11.3854 15.8181L8.67186 11.8702L5.95831 7.92752L3.23956 3.99002C2.32811 2.67752 1.42186 1.36502 0.505189 0.0577281C0.484356 0.0264788 0.453105 0.0160618 0.416647 0.0421031C0.380189 0.0629378 0.369771 0.0941864 0.395814 0.135853C1.24477 1.48481 2.09373 2.83377 2.94269 4.18273L4.21873 6.20877L5.49998 8.2296L8.06769 12.2713L10.4791 16.0577L7.38019 20.6098L6.56248 21.8077C6.29165 22.2036 6.02082 22.6046 5.74477 23.0004L4.09373 25.3859L3.42706 26.3494L12.2239 26.4067L12.4062 26.0734C12.6823 25.589 12.9479 25.0994 13.2135 24.6098L13.6094 23.8806L14.0052 23.1463L14.7864 21.6775L15.1875 20.9171L15.6458 21.6098L16.1094 22.3077L17.0573 23.7036L17.5364 24.3963C17.8541 24.8546 18.1823 25.3129 18.5104 25.7713C18.5364 25.8025 18.5625 25.8077 18.5989 25.7869C18.6354 25.7661 18.6458 25.74 18.625 25.6984C18.3906 25.1931 18.1458 24.6879 17.8906 24.1879Z" fill="#8C52FF"/>
</g>
</svg>
