<svg width="21" height="23" viewBox="0 0 21 23" fill="none" xmlns="http://www.w3.org/2000/svg">
<path d="M11.0909 10.7209C11.0643 10.7209 11.0243 10.7209 10.9977 10.7209C10.9577 10.7209 10.9045 10.7209 10.8645 10.7209C7.84131 10.6277 5.57727 8.27043 5.57727 5.3671C5.57727 2.41054 7.98781 0 10.9444 0C13.901 0 16.3115 2.41054 16.3115 5.3671C16.2982 8.28375 14.0208 10.6277 11.1309 10.7209C11.1042 10.7209 11.1042 10.7209 11.0909 10.7209ZM10.9311 1.98436C9.06659 1.98436 7.56163 3.5026 7.56163 5.35379C7.56163 7.17836 8.98669 8.65664 10.7979 8.72323C10.8379 8.70992 10.971 8.70992 11.1042 8.72323C12.8888 8.63001 14.2872 7.16504 14.3005 5.35379C14.3005 3.5026 12.7956 1.98436 10.9311 1.98436Z" fill="black"/>
<path d="M10.9315 23C7.34897 23 3.92627 21.6682 1.27602 19.2444C1.0363 19.0313 0.929752 18.7117 0.956388 18.4053C1.12952 16.8205 2.11504 15.3422 3.75314 14.2502C7.72187 11.6132 14.1544 11.6132 18.1098 14.2502C19.7479 15.3555 20.7334 16.8205 20.9066 18.4053C20.9465 18.725 20.8266 19.0313 20.5869 19.2444C17.9367 21.6682 14.514 23 10.9315 23ZM3.04729 18.139C5.25806 19.9902 8.0415 21.0023 10.9315 21.0023C13.8214 21.0023 16.6049 19.9902 18.8156 18.139C18.5759 17.3266 17.9367 16.5408 16.9911 15.9016C13.7149 13.7175 8.16136 13.7175 4.85853 15.9016C3.91296 16.5408 3.28702 17.3266 3.04729 18.139Z" fill="black"/>
</svg>
