<svg width="26" height="26" viewBox="0 0 26 26" fill="none" xmlns="http://www.w3.org/2000/svg">
<ellipse cx="13.1144" cy="13" rx="12.8898" ry="13" fill="white"/>
<path d="M13.5466 12.0596C13.5294 12.0596 13.5036 12.0596 13.4864 12.0596C13.4606 12.0596 13.4262 12.0596 13.4004 12.0596C11.4483 12.0069 9.98633 10.6746 9.98633 9.03358C9.98633 7.36248 11.5429 6 13.452 6C15.3612 6 16.9177 7.36248 16.9177 9.03358C16.9091 10.6821 15.4386 12.0069 13.5724 12.0596C13.5552 12.0596 13.5552 12.0596 13.5466 12.0596ZM13.4434 7.1216C12.2395 7.1216 11.2677 7.97973 11.2677 9.02605C11.2677 10.0573 12.1879 10.8929 13.3574 10.9305C13.3832 10.923 13.4692 10.923 13.5552 10.9305C14.7076 10.8778 15.6106 10.0498 15.6192 9.02605C15.6192 7.97973 14.6474 7.1216 13.4434 7.1216Z" fill="#8C52FF"/>
<path d="M13.4438 19C11.1304 19 8.92032 18.2473 7.20897 16.8773C7.05418 16.7568 6.98538 16.5762 7.00258 16.4031C7.11438 15.5073 7.75075 14.6717 8.80852 14.0545C11.3712 12.564 15.5249 12.564 18.079 14.0545C19.1368 14.6793 19.7731 15.5073 19.8849 16.4031C19.9107 16.5837 19.8333 16.7568 19.6785 16.8773C17.9672 18.2473 15.7571 19 13.4438 19ZM8.35274 16.2525C9.78029 17.2988 11.5776 17.8709 13.4438 17.8709C15.3099 17.8709 17.1072 17.2988 18.5348 16.2525C18.38 15.7933 17.9672 15.3492 17.3566 14.9879C15.2411 13.7534 11.655 13.7534 9.5223 14.9879C8.91172 15.3492 8.50753 15.7933 8.35274 16.2525Z" fill="#8C52FF"/>
</svg>
