<svg width="22" height="23" viewBox="0 0 22 23" fill="none" xmlns="http://www.w3.org/2000/svg">
<mask id="mask0_2848_1089" style="mask-type:luminance" maskUnits="userSpaceOnUse" x="0" y="0" width="22" height="23">
<path d="M0 0.0361328H21.9896V22.0257H0V0.0361328Z" fill="white"/>
</mask>
<g mask="url(#mask0_2848_1089)">
<path d="M3.05195 3.53132C4.90611 1.56778 7.41132 0.328197 10.104 0.0886141C10.453 0.0573634 11.0155 0.0521561 11.7915 0.0781974C12.3436 0.0938228 12.9113 0.171947 13.4999 0.312572C15.453 0.765696 17.2551 1.72403 18.6926 3.11466C20.4217 4.78653 21.5051 6.81257 21.9374 9.18757C21.9947 9.48966 22.0207 9.78653 22.0207 10.073C22.0155 10.7917 22.0155 11.5209 22.0207 12.2605C22.0207 12.3751 22.0103 12.4844 21.9947 12.599C21.8957 13.2136 21.7603 13.7969 21.5884 14.349C20.5051 17.8594 17.6613 20.5522 14.1822 21.599C13.5832 21.7813 12.8905 21.9167 12.104 22.0105C11.6769 22.0626 11.2655 22.0782 10.8592 22.0626C9.06757 21.9949 7.3957 21.5469 5.84361 20.7188C5.79674 20.6876 5.74465 20.6824 5.68736 20.698C4.08841 21.1303 2.47382 21.5782 0.854031 22.0417C0.64049 22.1042 0.494655 22.0469 0.333197 21.9115C0.114447 21.7292 0.0415308 21.4897 0.124864 21.198C0.562364 19.6303 0.994655 18.0522 1.42695 16.474C1.44778 16.3959 1.44257 16.323 1.40091 16.2501C0.494655 14.5574 0.0206978 12.6355 0.0884058 10.7136C0.187364 8.03132 1.20299 5.48966 3.05195 3.53132ZM8.7707 0.911531C7.13528 1.2657 5.59361 2.05736 4.32799 3.16153C2.82278 4.47403 1.76549 6.08341 1.16132 7.98445C1.03111 8.40111 0.932157 8.80736 0.869656 9.19799C0.458199 11.6876 0.848824 14.0001 2.03632 16.1303C2.10924 16.2605 2.10403 16.3855 2.06757 16.5261C1.69778 17.7969 1.34882 19.1042 0.979031 20.4011C0.88528 20.7292 0.796739 21.0522 0.723822 21.3803C0.713405 21.4167 0.729032 21.4272 0.760281 21.4167C2.3957 20.9636 4.03111 20.5105 5.67174 20.0574C5.7707 20.0261 5.87486 20.0261 5.96341 20.0782C6.94257 20.6355 7.96341 21.0157 9.02591 21.224C10.5728 21.5313 12.3072 21.4949 13.8644 21.0574C18.354 19.7969 21.4738 15.7397 21.4582 11.0417C21.4582 10.0574 21.3384 9.15112 21.1144 8.3282C20.1249 4.7657 17.4322 2.01049 13.8644 1.03132C12.2082 0.572989 10.5103 0.536531 8.7707 0.911531Z" fill="#8C52FF"/>
</g>
<path d="M3.43754 18.6927C3.44796 18.7083 3.46359 18.7135 3.47921 18.7083C4.30734 18.4792 5.15629 18.2396 6.02088 18C6.10942 17.974 6.19275 17.9896 6.26567 18.0417C8.00525 19.2552 10.2344 19.7865 12.3334 19.4531C12.8021 19.3802 13.2448 19.276 13.6667 19.1458C16.1563 18.3698 18.1355 16.4427 19.0469 14.0156C20.125 11.1406 19.5365 7.88542 17.5625 5.54687C17.4167 5.36979 17.2657 5.19792 17.1094 5.03125C17.0573 4.97396 17.0573 4.91667 17.1146 4.86458L17.1303 4.84896C17.1928 4.78646 17.2553 4.78646 17.323 4.84896C17.5053 5.02604 17.6823 5.21875 17.849 5.42708C19.2657 7.16146 19.9428 9.14062 19.8907 11.3594C19.875 11.7917 19.8334 12.2135 19.75 12.625C19.4167 14.3698 18.6563 15.8594 17.4688 17.099C15.9948 18.6302 14.1771 19.526 12.0053 19.7917C11.6042 19.8385 11.1823 19.8542 10.7396 19.8333C9.07817 19.7604 7.56255 19.2604 6.19275 18.3438C6.14588 18.3177 6.06775 18.3021 6.01046 18.3177C5.13025 18.5625 4.20317 18.8177 3.23963 19.0833C3.18234 19.099 3.13025 19.0885 3.08338 19.0573C3.06775 19.0469 3.05734 19.0312 3.05734 19.0052C3.04692 18.9271 3.05734 18.849 3.07817 18.7604C3.32296 17.901 3.56775 17.0312 3.80213 16.1562C3.82817 16.0677 3.81255 15.9844 3.76046 15.9062C2.98963 14.7448 2.52088 13.474 2.349 12.1042C2.06254 9.79167 2.73442 7.38542 4.18754 5.58333C5.39588 4.08854 6.91671 3.07812 8.74484 2.55729C9.32817 2.39583 9.96359 2.29167 10.6615 2.24479C11.4896 2.1875 12.4375 2.30208 13.5053 2.58854C13.5573 2.60417 13.5834 2.63542 13.5886 2.6875C13.5938 2.71354 13.5938 2.73958 13.5834 2.76562C13.5521 2.85417 13.4948 2.88542 13.4063 2.85937C11.9792 2.48437 10.5834 2.44792 9.21359 2.75C6.14067 3.4375 3.73442 5.78646 2.89588 8.81771C2.60942 9.83854 2.53129 10.9115 2.65109 12.0417C2.80213 13.4115 3.29171 14.7083 4.13025 15.9219C4.15629 15.9635 4.16671 16.0052 4.15109 16.0521C3.9115 16.9167 3.67192 17.7813 3.42713 18.6406C3.42192 18.6615 3.42713 18.6771 3.43754 18.6927Z" fill="#8C52FF"/>
<path d="M14.4632 2.91615L15.4059 3.37449C15.4944 3.41615 15.5153 3.48386 15.4736 3.56719V3.57761C15.4267 3.66094 15.3642 3.68699 15.2757 3.64532L14.333 3.18178C14.2444 3.14011 14.2236 3.07761 14.2653 2.98907L14.2705 2.98386C14.3121 2.89532 14.3799 2.87449 14.4632 2.91615Z" fill="#8C52FF"/>
<path d="M16.0573 3.7805L16.6771 4.25446C16.7552 4.31175 16.7656 4.37946 16.7083 4.45237L16.6979 4.46279C16.6406 4.53571 16.5729 4.54612 16.5 4.48883L15.8802 4.01487C15.8073 3.95758 15.7969 3.89508 15.8541 3.81696L15.8594 3.81175C15.9166 3.73362 15.9844 3.72321 16.0573 3.7805Z" fill="#8C52FF"/>
<path d="M8.77082 10.0465C8.68228 10.1403 8.67186 10.234 8.72915 10.3382C9.56249 11.7965 10.7396 12.8173 12.2552 13.4007C12.3489 13.4371 12.4271 13.4163 12.4948 13.3382C12.8125 12.9632 13.0937 12.609 13.3385 12.2705C13.4687 12.0986 13.6354 12.0309 13.8333 12.0778C14.026 12.1246 14.2344 12.2028 14.4583 12.3121C14.9948 12.583 15.5521 12.859 16.1406 13.1455C16.3854 13.2601 16.4375 13.4528 16.4271 13.7236C16.4114 14.0569 16.3437 14.3955 16.2187 14.7236C16.0573 15.1715 15.5573 15.5205 15.1458 15.7548C14.2917 16.2444 13.276 16.083 12.3854 15.7861C11.9427 15.6403 11.526 15.4892 11.1354 15.3278C9.78644 14.7653 8.58332 13.7028 7.64582 12.5413C7.18749 11.9736 6.79165 11.4163 6.45311 10.8694C6.05207 10.2236 5.7604 9.46839 5.74999 8.71318C5.73436 7.71318 6.10415 6.88505 6.85415 6.23401C7.06769 6.05172 7.39061 5.99964 7.71874 6.01005C8.23957 6.02568 8.49478 6.10381 8.70311 6.61943C8.93228 7.17672 9.16145 7.73922 9.3854 8.29651C9.5104 8.60901 9.60415 8.78089 9.48957 9.05693C9.34374 9.4163 9.02603 9.76005 8.77082 10.0465ZM12.7552 13.4944C12.5885 13.6871 12.3646 13.8017 12.1146 13.6767C11.776 13.5153 11.4427 13.3798 11.125 13.1976C10.0781 12.5934 9.22395 11.7444 8.55728 10.6455C8.38019 10.3538 8.27603 10.1142 8.54165 9.83818C8.74999 9.61943 8.92707 9.40068 9.08332 9.17672C9.1927 9.02047 9.26561 8.81735 9.18749 8.61943C8.91144 7.93193 8.64061 7.26526 8.36978 6.62464C8.23957 6.31735 7.99999 6.32776 7.72395 6.32255C7.39061 6.31214 7.18749 6.33818 6.93749 6.57255C6.44269 7.0413 6.15624 7.60901 6.0729 8.27047C5.95832 9.19235 6.33332 10.1351 6.83853 10.9111C7.87499 12.5048 9.22395 14.0986 10.9687 14.9215C11.4687 15.1559 12.0469 15.3694 12.6979 15.5726C13.1667 15.708 13.5833 15.7757 13.9479 15.7705C14.5937 15.7548 15.1771 15.4892 15.7031 14.9684C16.0052 14.6663 16.125 14.0413 16.1302 13.6455C16.1302 13.5361 16.0833 13.458 15.9896 13.4111C15.3958 13.109 14.8281 12.8278 14.2864 12.5726C14.1458 12.5048 14.0052 12.4423 13.8646 12.3955C13.7396 12.3486 13.6406 12.3798 13.5677 12.4788C13.3177 12.8226 13.0469 13.1611 12.7552 13.4944Z" fill="#8C52FF"/>
</svg>
