<svg width="22" height="23" viewBox="0 0 22 23" fill="none" xmlns="http://www.w3.org/2000/svg">
<mask id="mask0_2848_1162" style="mask-type:luminance" maskUnits="userSpaceOnUse" x="0" y="0" width="22" height="23">
<path d="M0.00488281 0.0361328H21.9945V22.0257H0.00488281V0.0361328Z" fill="white"/>
</mask>
<g mask="url(#mask0_2848_1162)">
<path d="M22.0726 18.7549C22.0726 20.6038 20.5674 22.1038 18.7184 22.1038H3.35905C1.51009 22.1038 0.00488281 20.6038 0.00488281 18.7549V3.3903C0.00488281 1.54134 1.51009 0.0361328 3.35905 0.0361328H18.7184C20.5674 0.0361328 22.0726 1.54134 22.0726 3.3903V18.7549Z" fill="#8C52FF"/>
</g>
<path d="M18.8643 11.2448C18.8643 12.4688 18.8643 13.7604 18.5882 14.9427C18.3955 15.776 17.7184 16.3854 16.8955 16.4792C14.958 16.6927 12.9945 16.6979 11.0413 16.6927C9.08301 16.6927 7.12988 16.6927 5.18717 16.4792C4.36947 16.3854 3.68718 15.776 3.49447 14.9427C3.22363 13.7604 3.22363 12.4688 3.22363 11.2448C3.22363 10.026 3.22363 8.73438 3.49447 7.55208C3.68718 6.71875 4.36426 6.10938 5.18717 6.01562C7.12988 5.79688 9.08822 5.79688 11.0413 5.79688C12.9945 5.79688 14.958 5.79688 16.8955 6.01562C17.7132 6.10938 18.3955 6.71875 18.5882 7.55208C18.8643 8.73438 18.8643 10.026 18.8643 11.2448Z" fill="white"/>
<path d="M9.39551 8.33789V14.1816L13.9372 11.2598L9.39551 8.33789Z" fill="#8C52FF"/>
</svg>
