<svg xmlns="http://www.w3.org/2000/svg" xmlns:xlink="http://www.w3.org/1999/xlink" width="135" zoomAndPan="magnify" viewBox="0 0 101.25 33.749998" height="45" preserveAspectRatio="xMidYMid meet" version="1.0"><defs><g/><clipPath id="5b6165c490"><path d="M 0 4.042969 L 26.800781 4.042969 L 26.800781 30.847656 L 0 30.847656 Z M 0 4.042969 " clip-rule="nonzero"/></clipPath><clipPath id="6ea696ebbc"><path d="M 0 13 L 26.800781 13 L 26.800781 30.847656 L 0 30.847656 Z M 0 13 " clip-rule="nonzero"/></clipPath><clipPath id="cc96d3f7ff"><path d="M 0 4.042969 L 26.800781 4.042969 L 26.800781 30.847656 L 0 30.847656 Z M 0 4.042969 " clip-rule="nonzero"/></clipPath><clipPath id="29c1af9c51"><path d="M 0 13 L 26.800781 13 L 26.800781 30.847656 L 0 30.847656 Z M 0 13 " clip-rule="nonzero"/></clipPath></defs><g clip-path="url(#5b6165c490)"><path fill="#8c52ff" d="M 0 4.042969 L 0 11.707031 L 7.671875 11.707031 L 7.671875 4.042969 Z M 9.453125 4.042969 L 9.453125 11.707031 L 17.125 11.707031 L 17.125 4.042969 Z M 18.90625 4.042969 L 18.90625 11.707031 L 26.578125 11.707031 L 26.578125 4.042969 Z M 0 13.492188 L 0 21.152344 L 7.671875 21.152344 L 7.671875 13.492188 Z M 18.90625 13.492188 L 18.90625 21.152344 L 26.578125 21.152344 L 26.578125 13.492188 Z M 9.453125 22.9375 L 9.453125 30.601562 L 17.125 30.601562 L 17.125 22.9375 Z M 9.453125 22.9375 " fill-opacity="1" fill-rule="nonzero"/></g><g clip-path="url(#6ea696ebbc)"><path fill="#000000" d="M 9.453125 13.492188 L 9.453125 21.152344 L 17.125 21.152344 L 17.125 13.492188 Z M 0 22.9375 L 0 30.601562 L 7.671875 30.601562 L 7.671875 22.9375 Z M 18.90625 22.9375 L 18.90625 30.601562 L 26.578125 30.601562 L 26.578125 22.9375 Z M 18.90625 22.9375 " fill-opacity="1" fill-rule="nonzero"/></g><g clip-path="url(#cc96d3f7ff)"><path stroke-linecap="butt" transform="matrix(0.744485, 0, 0, 0.744485, 0.000003, 4.044643)" fill-opacity="1" fill="#000000" fill-rule="nonzero" stroke-linejoin="miter" d="M 0.241354 0.480468 L 0.241354 9.814728 M 10.063577 0.480468 L 10.063577 9.814728 M -0.00000402963 0.23911 L 10.304935 0.23911 M -0.00000402963 10.056086 L 10.304935 10.056086 M 12.938886 0.480468 L 12.938886 9.814728 M 22.761109 0.480468 L 22.761109 9.814728 M 12.697528 0.23911 L 23.002467 0.23911 M 12.697528 10.056086 L 23.002467 10.056086 M 25.636418 0.480468 L 25.636418 9.814728 M 35.463888 0.480468 L 35.463888 9.814728 M 25.39506 0.23911 L 35.7 0.23911 M 25.39506 10.056086 L 35.7 10.056086 M 0.241354 13.167506 L 0.241354 22.501766 M 10.063577 13.167506 L 10.063577 22.501766 M -0.00000402963 12.926148 L 10.304935 12.926148 M -0.00000402963 22.743124 L 10.304935 22.743124 M 25.636418 13.167506 L 25.636418 22.501766 M 35.463888 13.167506 L 35.463888 22.501766 M 25.39506 12.926148 L 35.7 12.926148 M 25.39506 22.743124 L 35.7 22.743124 M 12.938886 25.854544 L 12.938886 35.188805 M 22.761109 25.854544 L 22.761109 35.188805 M 12.697528 25.613186 L 23.002467 25.613186 M 12.697528 35.430163 L 23.002467 35.430163 " stroke="#8c52ff" stroke-width="0.478787" stroke-opacity="1" stroke-miterlimit="4"/></g><g clip-path="url(#29c1af9c51)"><path stroke-linecap="butt" transform="matrix(0.744485, 0, 0, 0.744485, 0.000003, 4.044643)" fill-opacity="1" fill="#000000" fill-rule="nonzero" stroke-linejoin="miter" d="M 12.938886 13.167506 L 12.938886 22.501766 M 22.761109 13.167506 L 22.761109 22.501766 M 12.697528 12.926148 L 23.002467 12.926148 M 12.697528 22.743124 L 23.002467 22.743124 M 0.241354 25.854544 L 0.241354 35.188805 M 10.063577 25.854544 L 10.063577 35.188805 M -0.00000402963 25.613186 L 10.304935 25.613186 M -0.00000402963 35.430163 L 10.304935 35.430163 M 25.636418 25.854544 L 25.636418 35.188805 M 35.463888 25.854544 L 35.463888 35.188805 M 25.39506 25.613186 L 35.7 25.613186 M 25.39506 35.430163 L 35.7 35.430163 " stroke="#000000" stroke-width="0.478787" stroke-opacity="1" stroke-miterlimit="4"/></g><g fill="#8c52ff" fill-opacity="1"><g transform="translate(35.534326, 27.917544)"><g><path d="M 8.359375 0 L 4.265625 0 L 0.5625 -15.578125 L 4.1875 -15.578125 L 6.484375 -5.046875 L 6.78125 -5.046875 L 9.75 -15.578125 L 13.140625 -15.578125 L 16.203125 -5.046875 L 16.5 -5.046875 L 18.703125 -15.578125 L 22.234375 -15.578125 L 18.578125 0 L 14.46875 0 L 11.515625 -10.609375 L 11.21875 -10.609375 Z M 8.359375 0 "/></g></g><g transform="translate(58.316225, 27.917544)"><g><path d="M 4.1875 -17.4375 C 3.488281 -17.4375 2.914062 -17.648438 2.46875 -18.078125 C 2.03125 -18.503906 1.8125 -19.0625 1.8125 -19.75 C 1.8125 -20.414062 2.03125 -20.960938 2.46875 -21.390625 C 2.914062 -21.816406 3.488281 -22.03125 4.1875 -22.03125 C 4.664062 -22.03125 5.085938 -21.929688 5.453125 -21.734375 C 5.816406 -21.535156 6.097656 -21.265625 6.296875 -20.921875 C 6.503906 -20.578125 6.609375 -20.1875 6.609375 -19.75 C 6.609375 -19.300781 6.503906 -18.898438 6.296875 -18.546875 C 6.097656 -18.203125 5.816406 -17.929688 5.453125 -17.734375 C 5.085938 -17.535156 4.664062 -17.4375 4.1875 -17.4375 Z M 2.25 0 L 2.25 -15.578125 L 6.15625 -15.578125 L 6.15625 0 Z M 2.25 0 "/></g></g><g transform="translate(66.705839, 27.917544)"><g><path d="M 16 0 L 0.84375 0 L 0.84375 -3.59375 L 11.203125 -16.9375 L 11.09375 -17.234375 L 1.25 -17.234375 L 1.25 -20.640625 L 15.90625 -20.640625 L 15.90625 -17.046875 L 5.546875 -3.71875 L 5.65625 -3.421875 L 16 -3.421875 Z M 16 0 "/></g></g></g><g fill="#000000" fill-opacity="1"><g transform="translate(83.570043, 27.917544)"><g><path d="M 15.390625 -6.90625 L 5.375 -6.90625 C 5.488281 -5.550781 5.875 -4.5625 6.53125 -3.9375 C 7.195312 -3.320312 8.097656 -3.015625 9.234375 -3.015625 C 10.128906 -3.015625 10.851562 -3.179688 11.40625 -3.515625 C 11.96875 -3.859375 12.414062 -4.367188 12.75 -5.046875 L 13.046875 -5.046875 L 15.640625 -3.375 C 15.140625 -2.28125 14.375 -1.394531 13.34375 -0.71875 C 12.320312 -0.0390625 10.953125 0.296875 9.234375 0.296875 C 7.628906 0.296875 6.238281 -0.0078125 5.0625 -0.625 C 3.882812 -1.238281 2.976562 -2.148438 2.34375 -3.359375 C 1.707031 -4.566406 1.390625 -6.039062 1.390625 -7.78125 C 1.390625 -9.550781 1.722656 -11.039062 2.390625 -12.25 C 3.066406 -13.46875 3.972656 -14.375 5.109375 -14.96875 C 6.253906 -15.570312 7.535156 -15.875 8.953125 -15.875 C 11.160156 -15.875 12.847656 -15.289062 14.015625 -14.125 C 15.191406 -12.957031 15.78125 -11.242188 15.78125 -8.984375 C 15.78125 -8.160156 15.75 -7.523438 15.6875 -7.078125 Z M 12.03125 -9.4375 C 11.988281 -10.625 11.710938 -11.488281 11.203125 -12.03125 C 10.691406 -12.570312 9.941406 -12.84375 8.953125 -12.84375 C 6.972656 -12.84375 5.8125 -11.707031 5.46875 -9.4375 Z M 12.03125 -9.4375 "/></g></g></g></svg>