<svg width="857" height="590" viewBox="0 0 857 590" fill="none" xmlns="http://www.w3.org/2000/svg">
<path d="M436.089 347.563C430.698 347.563 425.38 346.719 420.094 345L175 263.26C170.557 274.807 168.333 289.688 168.333 311.401C184.328 320.661 199.917 339.276 199.917 371.365C199.917 391.026 190.083 405.161 181.636 414.557C217.995 456.74 318.052 487.073 436.12 487.073C584.896 487.073 705.453 438.932 705.453 379.646C705.453 366.547 705.453 313.052 705.453 260.531L452.011 345C446.792 346.719 441.474 347.563 436.089 347.563Z" fill="#8C52FF"/>
<path d="M845.406 135.526L441.406 0.859376C437.906 -0.286459 434.234 -0.286459 430.766 0.859376L26.7656 135.526C19.901 137.818 15.2552 144.245 15.2552 151.484C15.2552 158.724 19.901 165.156 26.7656 167.443L119.385 198.318C98.0729 223.026 85.6823 257.87 81.1406 314.568C66.4948 321.469 56.1563 336.182 56.1563 353.484C56.1563 371.094 66.7292 386.073 81.8125 392.844C68.651 507.479 0 545.688 0 555.484C0 560.469 53.1615 589.151 65.7865 589.151C85.3125 589.151 132.177 556.026 132.177 484.484C132.177 442.333 128.375 410.484 124.37 387.891C135.172 380.047 142.682 367.896 142.682 353.484C142.682 337.76 133.896 324.635 121.339 317.057C128.443 223.5 157.359 207.844 227.318 178.823C234.323 176.063 247.552 170.708 255.198 167.547C268.932 161.891 281.354 156.839 293.271 152.057C331.755 136.771 364.276 124.484 389.089 115.359C416.255 105.667 428.443 102.13 428.88 101.995C439.286 98.4948 450.865 104.115 454.438 114.719C457.969 125.292 452.313 136.74 441.708 140.307C440.901 140.578 393.635 154.078 270.651 204.917C262.74 208.182 255.198 211.141 248.026 213.969C233.448 219.729 221.359 224.339 211.229 228.984L430.766 302.146C432.521 302.682 434.271 302.984 436.089 302.984C437.906 302.984 439.656 302.682 441.406 302.109L845.406 167.443C852.276 165.156 856.922 158.724 856.922 151.484C856.922 144.245 852.276 137.818 845.406 135.526Z" fill="#8C52FF"/>
</svg>
