<svg width="837" height="656" viewBox="0 0 837 656" fill="none" xmlns="http://www.w3.org/2000/svg">
<mask id="mask0_54_260" style="mask-type:luminance" maskUnits="userSpaceOnUse" x="547" y="154" width="290" height="242">
<path d="M547.74 154.594H836.88V395.927H547.74V154.594Z" fill="white"/>
</mask>
<g mask="url(#mask0_54_260)">
<path d="M819.896 173.099C806.906 157.302 786.219 148.167 768.594 162.073C764.115 165.604 759.641 169.141 755.156 172.677C732.901 190.234 710.651 207.792 688.401 225.354C662.724 245.62 637.042 265.88 611.354 286.146C602.589 293.068 593.828 299.984 585.057 306.906C581.531 309.677 576.177 312.568 573.823 316.578C568.063 326.432 565.167 339.177 561.146 349.797C557.021 360.682 552.901 371.578 548.776 382.464C546.563 388.302 552.391 396.438 558.802 395.62C581.208 392.75 603.625 389.885 626.037 387.016C627.386 386.844 628.583 386.464 629.651 385.932C630.922 385.552 632.188 384.917 633.391 383.969C671.573 353.844 709.755 323.708 747.943 293.578C769.958 276.208 791.958 258.849 813.969 241.479C818.203 238.146 822.427 234.802 826.662 231.464C847.089 215.344 832.667 188.604 819.896 173.099Z" fill="#8C52FF"/>
</g>
<mask id="mask1_54_260" style="mask-type:luminance" maskUnits="userSpaceOnUse" x="0" y="0" width="692" height="656">
<path d="M0 0H691.74V656H0V0Z" fill="white"/>
</mask>
<g mask="url(#mask1_54_260)">
<path d="M690.557 390.76C690.557 376.526 668.495 376.526 668.495 390.76C668.495 411.12 668.495 431.484 668.495 451.844C668.495 489.531 638.099 519.729 600.609 520.302C576.411 520.677 552.167 520.302 527.964 520.302C420.109 520.302 312.26 520.302 204.411 520.302C178.047 520.302 151.682 520.302 125.318 520.302C119.552 520.302 116.203 524.635 112.531 528.302C105.703 535.135 98.8698 541.969 92.0313 548.807C72.2917 568.547 52.5417 588.292 32.8021 608.031C29.224 611.609 25.6406 615.188 22.0625 618.776C22.0625 551.495 22.0625 484.224 22.0625 416.953C22.0625 326.672 22.0625 236.385 22.0625 146.104C22.0625 129.62 22.0625 113.135 22.0625 96.6562C22.0625 73.0521 29.3073 52.5521 47.8802 36.9427C71.1719 17.3594 107.214 22.4219 135.609 22.4219C241.521 22.4219 347.438 22.4219 453.354 22.4219C495.193 22.4219 537.026 22.4219 578.865 22.4219C586.068 22.4219 593.281 22.4219 600.49 22.4219C636.896 22.4219 666.802 51.6823 668.464 87.8542C670.078 122.953 668.495 158.448 668.495 193.589C668.495 207.823 690.557 207.823 690.557 193.589C690.557 172.88 690.557 152.167 690.557 131.453C690.557 108.599 693.099 83.5521 685.844 61.5469C673.917 25.3385 638.49 0.359361 600.542 0.359361C593.573 0.359361 586.599 0.359361 579.63 0.359361C480.526 0.359361 381.427 0.359361 282.323 0.359361C233.776 0.359361 185.224 0.359361 136.672 0.359361C106.151 0.359361 73.6875 -3.16668 45.8802 11.875C17.0469 27.4687 0 59.2552 0 91.5469C0 104.172 0 116.802 0 129.427C0 183.135 0 236.849 0 290.552C0 359.651 0 428.74 0 497.839C0 547.026 0 596.214 0 645.401C0 655.026 12.0208 660.01 18.8281 653.208C55.776 616.255 92.7188 579.318 129.667 542.365C205.927 542.365 282.193 542.365 358.453 542.365C439.104 542.365 519.75 542.365 600.396 542.365C643.844 542.365 681.995 510.286 689.25 467.443C691.448 454.432 690.557 440.802 690.557 427.661C690.557 415.359 690.557 403.057 690.557 390.76Z" fill="#8C52FF"/>
</g>
<path d="M565.703 126.62C485.182 126.62 404.656 126.62 324.125 126.62C257.089 126.62 190.052 126.62 123.016 126.62C94.5573 126.62 94.5573 170.75 123.016 170.75C203.536 170.75 284.063 170.75 364.589 170.75C431.63 170.75 498.667 170.75 565.703 170.75C594.167 170.75 594.167 126.62 565.703 126.62Z" fill="#8C52FF"/>
<path d="M501.87 373.609C416.234 373.609 330.599 373.609 244.958 373.609C204.307 373.609 163.667 373.609 123.016 373.609C94.5573 373.609 94.5573 417.74 123.016 417.74C208.651 417.74 294.292 417.74 379.927 417.74C420.578 417.74 461.229 417.74 501.87 417.74C530.333 417.74 530.333 373.609 501.87 373.609Z" fill="#8C52FF"/>
<path d="M501.87 253.396C416.234 253.396 330.599 253.396 244.958 253.396C204.307 253.396 163.667 253.396 123.016 253.396C94.5573 253.396 94.5573 297.521 123.016 297.521C208.651 297.521 294.292 297.521 379.927 297.521C420.578 297.521 461.229 297.521 501.87 297.521C530.333 297.521 530.333 253.396 501.87 253.396Z" fill="#8C52FF"/>
</svg>
