<svg width="667" height="666" viewBox="0 0 667 666" fill="none" xmlns="http://www.w3.org/2000/svg">
<path d="M326.26 387.516C326.901 388.099 327.599 388.594 328.364 389C329.13 389.406 329.932 389.714 330.771 389.922C331.609 390.125 332.463 390.229 333.328 390.219C334.192 390.214 335.047 390.099 335.88 389.88C418.838 368.193 426.099 281.089 426.724 267.396C512.521 177.927 502.646 75.9897 500.437 59.7917C500.401 59.4584 500.265 59.172 500.041 58.922C499.771 58.7188 499.468 58.6147 499.13 58.6042C497.302 58.5001 494.406 58.3855 490.593 58.3855C481.39 58.5261 472.218 59.1355 463.083 60.2188C453.942 61.3022 444.88 62.849 435.901 64.8542C426.922 66.8647 418.067 69.3282 409.338 72.2449C400.609 75.1615 392.052 78.5157 383.666 82.3074C375.281 86.099 367.109 90.3126 359.156 94.9376C351.203 99.5678 343.505 104.594 336.067 110.01C328.625 115.427 321.484 121.208 314.635 127.359C307.786 133.51 301.271 139.99 295.088 146.807C272.13 150.292 192.354 168.057 177.541 248.031C177.463 248.453 177.411 248.875 177.385 249.307C177.359 249.734 177.359 250.162 177.39 250.589C177.416 251.021 177.468 251.443 177.552 251.865C177.63 252.287 177.739 252.703 177.87 253.109C178 253.521 178.156 253.917 178.338 254.307C178.521 254.698 178.724 255.073 178.953 255.438C179.177 255.802 179.427 256.151 179.698 256.484C179.968 256.813 180.26 257.13 180.573 257.427C180.88 257.724 181.208 258 181.552 258.255C181.896 258.511 182.255 258.745 182.63 258.958C183 259.172 183.385 259.359 183.781 259.521C184.182 259.688 184.583 259.828 185 259.943C185.411 260.057 185.833 260.146 186.255 260.203C186.682 260.266 187.109 260.302 187.536 260.313C187.968 260.323 188.396 260.307 188.823 260.261C189.25 260.219 189.672 260.146 190.088 260.052L230.125 250.828C227.088 258.109 224.125 265.563 221.328 273.396L224.359 276.167L196.89 305.828C196.427 306.328 196.015 306.87 195.661 307.453C195.307 308.031 195.01 308.641 194.771 309.281C194.536 309.922 194.364 310.578 194.26 311.25C194.151 311.927 194.114 312.604 194.14 313.281C194.166 313.964 194.26 314.636 194.416 315.302C194.578 315.964 194.797 316.604 195.083 317.224C195.37 317.844 195.708 318.427 196.109 318.979C196.51 319.531 196.963 320.042 197.463 320.505C197.963 320.969 198.5 321.375 199.083 321.734C199.661 322.089 200.276 322.386 200.911 322.625C201.552 322.859 202.208 323.031 202.88 323.141C203.552 323.25 204.229 323.292 204.911 323.266C205.593 323.24 206.265 323.146 206.932 322.99C207.593 322.833 208.234 322.609 208.854 322.328C209.474 322.042 210.062 321.703 210.614 321.302C211.166 320.901 211.672 320.453 212.135 319.953L239.708 290.182L256.578 305.589L212.078 353.641C211.614 354.141 211.203 354.682 210.849 355.261C210.495 355.844 210.198 356.453 209.963 357.094C209.724 357.734 209.552 358.391 209.448 359.063C209.338 359.734 209.302 360.412 209.328 361.094C209.354 361.776 209.448 362.448 209.604 363.109C209.765 363.776 209.984 364.417 210.271 365.037C210.557 365.656 210.901 366.24 211.297 366.792C211.698 367.344 212.151 367.849 212.651 368.313C213.151 368.776 213.687 369.188 214.271 369.547C214.854 369.901 215.463 370.198 216.099 370.438C216.739 370.672 217.396 370.844 218.067 370.953C218.745 371.063 219.422 371.099 220.099 371.078C220.781 371.052 221.453 370.958 222.12 370.802C222.781 370.646 223.422 370.422 224.041 370.141C224.661 369.854 225.25 369.516 225.802 369.115C226.354 368.714 226.859 368.266 227.328 367.766L271.927 319.604L287.239 333.589L262.911 362.781C262.479 363.307 262.099 363.87 261.776 364.469C261.448 365.068 261.187 365.693 260.984 366.344C260.781 366.995 260.646 367.662 260.573 368.339C260.505 369.016 260.5 369.693 260.562 370.37C260.625 371.052 260.75 371.719 260.948 372.37C261.14 373.021 261.396 373.651 261.713 374.255C262.031 374.859 262.401 375.427 262.828 375.953C263.26 376.484 263.734 376.969 264.26 377.406C264.781 377.839 265.343 378.224 265.942 378.547C266.541 378.875 267.166 379.136 267.817 379.339C268.468 379.542 269.13 379.682 269.807 379.755C270.484 379.828 271.161 379.833 271.843 379.771C272.521 379.708 273.187 379.583 273.843 379.391C274.495 379.198 275.125 378.943 275.729 378.63C276.333 378.313 276.901 377.943 277.432 377.516C277.963 377.083 278.448 376.609 278.88 376.089L302.604 347.62L304.521 349.37C313.265 345.573 321.588 341.63 329.588 337.583L322.995 378.162C322.854 379.016 322.823 379.875 322.901 380.734C322.974 381.599 323.156 382.438 323.442 383.255C323.729 384.068 324.109 384.839 324.583 385.563C325.062 386.281 325.62 386.932 326.26 387.516ZM346.297 364.333L352.687 325C370.416 314.677 387.14 302.932 402.864 289.755C397.656 313.318 383.739 347.787 346.297 364.333ZM202.234 235.922C215.885 197.781 249.099 180.557 273.677 172.844C261.161 189.927 250.255 207.979 240.953 227.005L202.234 235.922ZM308.437 324.802L245.713 267.521C309.458 104.792 431.786 81.7761 481.078 79.4063C482.234 125.891 469.01 249.396 308.437 324.802Z" fill="#8C52FF"/>
<path d="M421.557 185.974C421.51 184.646 421.396 183.328 421.214 182.01C421.036 180.693 420.797 179.391 420.495 178.094C420.193 176.802 419.828 175.526 419.406 174.271C418.979 173.01 418.495 171.776 417.953 170.563C417.411 169.349 416.807 168.167 416.151 167.016C415.495 165.859 414.786 164.74 414.021 163.651C413.255 162.568 412.443 161.521 411.578 160.51C410.714 159.505 409.802 158.536 408.849 157.62C407.891 156.698 406.891 155.823 405.849 155C404.812 154.172 403.734 153.401 402.62 152.677C401.505 151.953 400.354 151.286 399.177 150.677C398 150.063 396.797 149.51 395.562 149.016C394.333 148.516 393.078 148.078 391.802 147.703C390.531 147.328 389.245 147.01 387.937 146.76C386.635 146.505 385.323 146.318 384 146.188C382.677 146.063 381.354 146 380.026 146C378.651 146 377.281 146.068 375.917 146.203C374.552 146.339 373.193 146.542 371.849 146.807C370.505 147.078 369.172 147.417 367.859 147.818C366.547 148.219 365.26 148.682 363.995 149.214C362.729 149.74 361.49 150.333 360.281 150.984C359.073 151.635 357.901 152.344 356.76 153.115C355.625 153.88 354.526 154.703 353.474 155.578C352.417 156.458 351.406 157.38 350.443 158.359C349.479 159.333 348.562 160.359 347.698 161.427C346.839 162.49 346.026 163.599 345.276 164.745C344.521 165.896 343.828 167.073 343.187 168.292C342.552 169.505 341.979 170.75 341.464 172.026C340.953 173.297 340.505 174.594 340.12 175.911C339.734 177.229 339.417 178.563 339.161 179.911C338.906 181.26 338.724 182.62 338.604 183.984C338.484 185.354 338.437 186.724 338.453 188.094C338.469 189.469 338.557 190.839 338.708 192.203C338.865 193.563 339.083 194.917 339.37 196.26C339.656 197.604 340.01 198.927 340.427 200.234C340.844 201.542 341.328 202.823 341.875 204.083C342.417 205.344 343.026 206.573 343.693 207.771C344.359 208.974 345.083 210.135 345.865 211.266C346.646 212.391 347.484 213.479 348.375 214.521C349.266 215.568 350.203 216.568 351.193 217.521C352.182 218.469 353.214 219.37 354.292 220.219C355.37 221.068 356.49 221.865 357.646 222.604C358.802 223.344 359.995 224.021 361.219 224.641C362.443 225.26 363.693 225.823 364.974 226.318C366.25 226.818 367.552 227.25 368.875 227.615C370.198 227.984 371.536 228.286 372.885 228.521C374.24 228.755 375.599 228.922 376.969 229.026C378.339 229.125 379.708 229.156 381.078 229.125C382.453 229.089 383.818 228.984 385.182 228.818C386.542 228.646 387.896 228.406 389.234 228.104C390.573 227.797 391.891 227.432 393.193 226.995C394.495 226.563 395.771 226.063 397.026 225.5C398.276 224.938 399.5 224.318 400.687 223.635C401.88 222.953 403.036 222.214 404.151 221.417C405.271 220.62 406.344 219.771 407.38 218.865C408.411 217.964 409.396 217.01 410.339 216.01C411.276 215.005 412.161 213.964 413 212.875C413.833 211.786 414.615 210.656 415.339 209.49C416.062 208.323 416.729 207.125 417.333 205.896C417.937 204.661 418.479 203.401 418.958 202.115C419.443 200.833 419.854 199.526 420.208 198.198C420.557 196.87 420.844 195.531 421.062 194.177C421.281 192.818 421.432 191.458 421.51 190.089C421.594 188.719 421.609 187.344 421.557 185.974ZM395.271 201.693C394.344 202.693 393.323 203.594 392.219 204.396C391.115 205.198 389.943 205.88 388.703 206.453C387.464 207.021 386.182 207.464 384.854 207.781C383.526 208.099 382.177 208.286 380.818 208.339C379.453 208.391 378.094 208.307 376.75 208.094C375.401 207.88 374.089 207.536 372.807 207.063C371.526 206.589 370.307 205.995 369.141 205.281C367.979 204.568 366.896 203.745 365.896 202.818C364.896 201.891 363.995 200.875 363.193 199.771C362.391 198.667 361.703 197.495 361.135 196.25C360.562 195.01 360.12 193.729 359.802 192.401C359.484 191.073 359.302 189.729 359.25 188.365C359.198 187 359.276 185.646 359.495 184.297C359.708 182.948 360.052 181.635 360.526 180.354C361 179.078 361.594 177.854 362.307 176.693C363.021 175.526 363.844 174.448 364.771 173.443C365.698 172.443 366.714 171.542 367.818 170.74C368.922 169.938 370.094 169.255 371.333 168.682C372.573 168.115 373.859 167.672 375.187 167.354C376.51 167.036 377.859 166.849 379.224 166.797C380.589 166.745 381.943 166.828 383.292 167.042C384.635 167.255 385.953 167.599 387.229 168.073C388.51 168.547 389.734 169.141 390.896 169.854C392.057 170.568 393.141 171.391 394.141 172.318C395.146 173.245 396.052 174.26 396.854 175.365C397.656 176.469 398.349 177.641 398.917 178.88C399.49 180.12 399.937 181.401 400.255 182.729C400.573 184.057 400.76 185.406 400.812 186.771C400.865 188.135 400.781 189.49 400.568 190.839C400.349 192.188 400.005 193.505 399.531 194.781C399.052 196.063 398.458 197.286 397.74 198.448C397.021 199.609 396.198 200.693 395.271 201.693Z" fill="#8C52FF"/>
<path d="M314.62 237.38C314.135 236.896 313.609 236.469 313.047 236.088C312.479 235.713 311.88 235.396 311.25 235.135C310.62 234.875 309.969 234.677 309.302 234.547C308.63 234.411 307.958 234.349 307.276 234.349C306.594 234.349 305.917 234.417 305.25 234.547C304.583 234.682 303.932 234.88 303.302 235.141C302.672 235.401 302.078 235.724 301.51 236.099C300.943 236.479 300.417 236.911 299.937 237.391C299.453 237.875 299.026 238.396 298.646 238.963C298.266 239.531 297.948 240.13 297.687 240.76C297.427 241.391 297.229 242.036 297.094 242.703C296.963 243.375 296.896 244.047 296.896 244.729C296.891 245.411 296.958 246.088 297.088 246.755C297.224 247.422 297.417 248.073 297.677 248.703C297.937 249.333 298.255 249.932 298.635 250.5C299.016 251.068 299.443 251.594 299.922 252.073L320.708 272.859C321.193 273.338 321.719 273.771 322.281 274.151C322.849 274.526 323.448 274.849 324.078 275.109C324.708 275.37 325.359 275.568 326.026 275.698C326.698 275.833 327.375 275.896 328.057 275.896C328.734 275.896 329.411 275.828 330.083 275.698C330.75 275.562 331.401 275.365 332.031 275.104C332.661 274.844 333.26 274.526 333.823 274.146C334.391 273.766 334.917 273.333 335.401 272.854C335.88 272.37 336.312 271.849 336.693 271.281C337.068 270.713 337.391 270.115 337.651 269.484C337.911 268.854 338.109 268.203 338.24 267.536C338.375 266.865 338.443 266.193 338.443 265.51C338.443 264.828 338.375 264.151 338.245 263.484C338.109 262.812 337.917 262.167 337.651 261.536C337.391 260.906 337.073 260.307 336.693 259.74C336.318 259.172 335.885 258.646 335.406 258.161L314.62 237.38Z" fill="#8C52FF"/>
<mask id="mask0_56_274" style="mask-type:luminance" maskUnits="userSpaceOnUse" x="0" y="0" width="667" height="666">
<path d="M0.171875 0.5H666.172V665.667H0.171875V0.5Z" fill="white"/>
</mask>
<g mask="url(#mask0_56_274)">
<path d="M665.62 8.95837C665.578 8.73962 665.505 8.53129 665.453 8.31254C665.354 7.91671 665.229 7.52608 665.089 7.14067C664.995 6.90629 664.885 6.67712 664.776 6.44796C664.615 6.10421 664.432 5.76567 664.229 5.44275C664.099 5.22921 663.969 5.02608 663.823 4.82296C663.589 4.51046 663.344 4.20837 663.078 3.92192C662.911 3.73963 662.76 3.56254 662.583 3.39587C662.292 3.12504 661.99 2.87504 661.672 2.64067C661.474 2.49483 661.292 2.33337 661.083 2.19796C661.036 2.16671 661 2.13025 660.948 2.099C660.62 1.90108 660.276 1.72921 659.927 1.57296C659.75 1.48441 659.583 1.38025 659.401 1.30212C658.818 1.05733 658.214 0.869832 657.594 0.739624C657.448 0.708373 657.297 0.703167 657.146 0.677124C656.651 0.593791 656.151 0.541708 655.646 0.526082C655.568 0.526082 655.5 0.505249 655.422 0.505249C655.281 0.505249 655.146 0.541708 655.005 0.546916C654.568 0.562541 654.135 0.604208 653.703 0.677124C653.469 0.718791 653.234 0.760457 653.005 0.817749C652.609 0.9115 652.224 1.03129 651.844 1.17712C651.62 1.25525 651.401 1.32817 651.188 1.42192C650.792 1.60942 650.406 1.81775 650.031 2.05212C649.87 2.15108 649.693 2.23442 649.536 2.33858C649.036 2.68233 648.573 3.06775 648.141 3.49483L648.068 3.55733L585.719 65.9011C585.234 66.3855 584.807 66.9115 584.427 67.4792C584.052 68.0469 583.729 68.6459 583.474 69.2761C583.214 69.9063 583.016 70.5521 582.88 71.224C582.75 71.8907 582.682 72.5678 582.682 73.25C582.688 73.9323 582.75 74.6042 582.885 75.2761C583.021 75.9428 583.214 76.5886 583.479 77.2188C583.74 77.849 584.057 78.448 584.438 79.0157C584.818 79.5834 585.245 80.1042 585.729 80.5886C586.208 81.073 586.734 81.5 587.302 81.8803C587.87 82.2605 588.469 82.5782 589.094 82.8386C589.724 83.099 590.375 83.2969 591.042 83.4323C591.714 83.5625 592.385 83.6303 593.068 83.6303C593.75 83.6355 594.427 83.5678 595.094 83.4323C595.766 83.3021 596.411 83.1042 597.042 82.8438C597.672 82.5834 598.271 82.2657 598.839 81.8907C599.406 81.5105 599.932 81.0782 600.411 80.599L628.74 52.2761C536.958 279.521 381.068 425.755 262.896 509.917C126.313 607.188 9.11459 644.953 7.94792 645.318C7.29688 645.521 6.67188 645.787 6.07292 646.115C5.47396 646.443 4.91146 646.828 4.38542 647.266C3.86459 647.708 3.38542 648.193 2.95834 648.724C2.53125 649.255 2.15625 649.828 1.84375 650.432C1.52604 651.042 1.27604 651.672 1.08334 652.328C0.890628 652.984 0.765628 653.651 0.708336 654.333C0.645836 655.016 0.656253 655.693 0.729169 656.375C0.807294 657.052 0.94792 657.719 1.15104 658.37C1.35938 659.021 1.625 659.646 1.95313 660.245C2.28646 660.844 2.66667 661.406 3.10938 661.927C3.54688 662.448 4.03646 662.927 4.56771 663.354C5.10417 663.781 5.67188 664.151 6.28125 664.464C6.88542 664.776 7.52084 665.031 8.17709 665.219C8.83334 665.412 9.5 665.531 10.1823 665.594C10.8646 665.651 11.5417 665.641 12.224 665.563C12.901 665.49 13.5677 665.344 14.2188 665.135C19.0885 663.594 135.156 626.266 274.323 527.297C393.766 442.349 550.906 295.266 645.026 67.224V99.4375C645.026 100.12 645.094 100.792 645.229 101.464C645.359 102.13 645.557 102.781 645.818 103.412C646.078 104.042 646.401 104.641 646.781 105.208C647.156 105.776 647.589 106.302 648.073 106.781C648.552 107.266 649.078 107.698 649.646 108.078C650.214 108.453 650.813 108.776 651.443 109.037C652.073 109.297 652.724 109.495 653.396 109.63C654.063 109.76 654.74 109.828 655.422 109.828C656.104 109.828 656.781 109.76 657.448 109.63C658.12 109.495 658.766 109.297 659.396 109.037C660.026 108.776 660.625 108.453 661.193 108.078C661.76 107.698 662.286 107.266 662.771 106.781C663.25 106.302 663.682 105.776 664.063 105.208C664.443 104.641 664.76 104.042 665.021 103.412C665.281 102.781 665.479 102.13 665.615 101.464C665.745 100.792 665.813 100.12 665.813 99.4375V10.875C665.807 10.2292 665.745 9.59379 665.62 8.95837Z" fill="#8C52FF"/>
</g>
<path d="M629.287 207.427C629.24 207.099 629.193 206.776 629.115 206.458C629.031 206.135 628.927 205.828 628.818 205.51C628.714 205.188 628.589 204.87 628.448 204.563C628.313 204.26 628.146 203.979 627.979 203.693C627.807 203.406 627.641 203.12 627.448 202.849C627.25 202.578 627.026 202.328 626.802 202.073C626.578 201.818 626.354 201.573 626.11 201.344C625.875 201.125 625.625 200.927 625.37 200.729C625.073 200.5 624.766 200.286 624.448 200.089C624.334 200.016 624.24 199.922 624.12 199.859C623.969 199.771 623.802 199.729 623.646 199.651C623.313 199.484 622.964 199.333 622.61 199.203C622.292 199.083 621.979 198.99 621.656 198.906C621.339 198.823 621.021 198.75 620.693 198.698C620.313 198.641 619.938 198.604 619.552 198.583C619.38 198.578 619.219 198.531 619.047 198.531C618.912 198.531 618.792 198.568 618.656 198.573C618.276 198.589 617.891 198.63 617.516 198.688C617.203 198.734 616.901 198.781 616.604 198.854C616.261 198.943 615.927 199.047 615.599 199.167C615.292 199.276 614.99 199.38 614.698 199.516C614.386 199.661 614.084 199.833 613.781 200.01C613.511 200.172 613.24 200.333 612.985 200.516C612.703 200.724 612.432 200.948 612.177 201.182C611.932 201.401 611.693 201.615 611.469 201.854C611.25 202.094 611.047 202.349 610.844 202.609C610.615 202.906 610.406 203.208 610.209 203.526C610.136 203.641 610.047 203.734 609.979 203.854C581.985 253.786 549.974 301 513.953 345.495C495.412 368.406 475.807 390.625 455.662 411.552C425.412 443.052 393.38 472.615 359.557 500.24C340.761 515.641 321.13 530.661 301.219 544.88C270.401 566.948 238.057 587.74 205.083 606.672C204.974 606.729 204.896 606.813 204.792 606.88C204.479 607.078 204.182 607.292 203.896 607.521C203.641 607.719 203.38 607.917 203.146 608.141C202.906 608.365 202.693 608.615 202.474 608.865C202.245 609.125 202.016 609.375 201.818 609.656C201.63 609.922 201.469 610.203 201.307 610.49C201.136 610.781 200.964 611.068 200.828 611.37C200.688 611.677 200.583 611.995 200.474 612.313C200.365 612.63 200.25 612.948 200.172 613.276C200.099 613.583 200.057 613.901 200.011 614.219C199.953 614.589 199.917 614.958 199.901 615.333C199.896 615.453 199.865 615.563 199.865 615.682V655.229C199.865 655.911 199.932 656.583 200.063 657.255C200.198 657.922 200.396 658.573 200.656 659.203C200.917 659.833 201.24 660.432 201.615 661C201.995 661.568 202.427 662.094 202.912 662.578C203.391 663.057 203.917 663.49 204.485 663.87C205.052 664.25 205.651 664.568 206.281 664.828C206.912 665.089 207.563 665.286 208.229 665.422C208.901 665.552 209.573 665.62 210.255 665.62H307.271C307.953 665.62 308.63 665.552 309.297 665.422C309.969 665.286 310.62 665.089 311.25 664.828C311.88 664.568 312.479 664.25 313.047 663.87C313.615 663.49 314.136 663.057 314.62 662.578C315.104 662.094 315.531 661.568 315.912 661C316.292 660.432 316.61 659.833 316.875 659.203C317.136 658.573 317.333 657.922 317.464 657.255C317.599 656.583 317.667 655.911 317.667 655.229V558.625C330.542 549.333 343.281 539.74 355.755 529.922V655.229C355.755 655.911 355.818 656.583 355.953 657.255C356.089 657.922 356.281 658.573 356.542 659.203C356.807 659.833 357.125 660.432 357.505 661C357.886 661.568 358.313 662.094 358.797 662.578C359.281 663.057 359.802 663.49 360.37 663.87C360.938 664.25 361.537 664.568 362.167 664.828C362.797 665.089 363.448 665.286 364.12 665.422C364.787 665.552 365.464 665.62 366.146 665.62H463.162C463.844 665.62 464.516 665.552 465.188 665.422C465.854 665.286 466.505 665.089 467.136 664.828C467.766 664.568 468.365 664.25 468.932 663.87C469.5 663.49 470.026 663.057 470.511 662.578C470.99 662.094 471.422 661.568 471.802 661C472.177 660.432 472.5 659.833 472.761 659.203C473.021 658.573 473.219 657.922 473.354 657.255C473.485 656.583 473.552 655.911 473.552 655.229V422.87C486.526 409.276 499.261 395.161 511.641 380.688V655.229C511.641 655.911 511.709 656.583 511.839 657.255C511.974 657.922 512.172 658.573 512.432 659.203C512.693 659.833 513.016 660.432 513.391 661C513.771 661.568 514.203 662.094 514.682 662.578C515.167 663.057 515.693 663.49 516.261 663.87C516.828 664.25 517.427 664.568 518.057 664.828C518.688 665.089 519.339 665.286 520.005 665.422C520.677 665.552 521.349 665.62 522.031 665.62H619.047C619.729 665.62 620.406 665.552 621.073 665.422C621.745 665.286 622.396 665.089 623.026 664.828C623.656 664.568 624.255 664.25 624.823 663.87C625.391 663.49 625.912 663.057 626.396 662.578C626.88 662.094 627.307 661.568 627.688 661C628.068 660.432 628.386 659.833 628.646 659.203C628.912 658.573 629.104 657.922 629.24 657.255C629.375 656.583 629.438 655.911 629.438 655.229V208.927C629.438 208.786 629.406 208.656 629.396 208.516C629.38 208.151 629.344 207.786 629.287 207.427ZM296.88 644.833H220.651V621.609C246.63 606.51 272.162 590.297 296.88 573.24V644.833ZM452.766 644.833H376.537V513.109C402.985 491.307 428.511 468.146 452.766 444.026V644.833ZM608.656 644.833H532.427V355.646C560.156 321.12 585.568 284.969 608.656 247.182V644.833Z" fill="#8C52FF"/>
</svg>
