<svg width="569" height="568" viewBox="0 0 569 568" fill="none" xmlns="http://www.w3.org/2000/svg">
<mask id="mask0_54_254" style="mask-type:luminance" maskUnits="userSpaceOnUse" x="0" y="0" width="569" height="568">
<path d="M0 0H569V568H0V0Z" fill="white"/>
</mask>
<g mask="url(#mask0_54_254)">
<path d="M378.13 113.708C380.427 109.198 385.948 107.401 390.453 109.698C428.365 128.995 460.354 158.281 482.963 194.391C506.208 231.521 518.495 274.411 518.495 318.427C518.495 337.849 516.099 357.188 511.37 375.906C510.323 380.057 506.594 382.828 502.495 382.828C501.75 382.828 500.995 382.734 500.245 382.547C495.338 381.307 492.365 376.323 493.604 371.417C497.958 354.167 500.167 336.339 500.167 318.427C500.167 236.807 454.943 163.083 382.141 126.026C377.63 123.734 375.833 118.219 378.13 113.708ZM66.3385 382.828C67.0832 382.828 67.8385 382.74 68.5885 382.547C73.4999 381.307 76.4687 376.323 75.2291 371.417C70.8749 354.167 68.6666 336.339 68.6666 318.427C68.6666 236.807 113.891 163.089 186.693 126.031C191.203 123.734 193 118.219 190.703 113.708C188.406 109.198 182.891 107.401 178.38 109.698C140.469 128.995 108.479 158.281 85.8749 194.391C62.6249 231.521 50.3385 274.411 50.3385 318.427C50.3385 337.849 52.7343 357.193 57.4635 375.906C58.5103 380.057 62.2447 382.828 66.3385 382.828ZM366.849 517.854C340.682 528.682 312.948 534.177 284.417 534.177C255.885 534.177 228.151 528.682 201.984 517.854C197.307 515.922 191.948 518.141 190.016 522.818C188.078 527.495 190.302 532.854 194.979 534.786C223.375 546.542 253.469 552.5 284.417 552.5C315.365 552.5 345.453 546.542 373.854 534.786C378.531 532.854 380.755 527.495 378.818 522.818C376.885 518.141 371.526 515.922 366.849 517.854ZM384.422 437.479V451.484C384.422 456.547 380.318 460.646 375.255 460.646H193.578C188.516 460.646 184.411 456.547 184.411 451.484V437.479C184.411 424.703 196.391 414.307 211.104 414.307H233.234V399.974H171.276C154.885 399.974 141.552 386.641 141.552 370.255V228.833C141.552 212.448 154.885 199.115 171.276 199.115H246.37C255.552 188.349 269.193 181.505 284.417 181.505C299.641 181.505 313.281 188.349 322.463 199.115H397.557C413.948 199.115 427.281 212.448 427.281 228.833V370.255C427.281 386.641 413.948 399.974 397.557 399.974H335.599V414.307H357.724C372.443 414.307 384.422 424.698 384.422 437.479ZM333.396 241.823C331.922 248.792 329.088 253.651 326.49 258.094C322.76 264.464 318.911 271.052 317.969 286.594V300.719C317.969 307.641 313.484 313.526 307.276 315.656V320.495C307.276 330.13 299.437 337.969 289.807 337.969H279.026C269.396 337.969 261.557 330.13 261.557 320.495V315.656C255.349 313.526 250.87 307.641 250.87 300.719V286.594C249.922 271.052 246.073 264.458 242.344 258.094C239.745 253.651 236.911 248.792 235.437 241.823H189.896V339.828H378.943V241.823H333.396ZM279.885 319.641H288.948V316.521H279.885V319.641ZM299.641 295.432H269.193V298.193H299.641V295.432ZM252.74 231.51C252.74 239.568 254.896 243.255 258.161 248.839C261.865 255.161 266.328 262.792 268.338 277.109H300.495C302.505 262.792 306.969 255.161 310.672 248.839C313.937 243.255 316.094 239.568 316.094 231.51C316.094 214.042 301.885 199.833 284.417 199.833C266.948 199.833 252.74 214.042 252.74 231.51ZM171.276 381.646H397.557C403.844 381.646 408.953 376.536 408.953 370.255V228.833C408.953 222.552 403.844 217.443 397.557 217.443H332.391C332.974 219.411 333.437 221.432 333.771 223.5H385.568C392.016 223.5 397.266 228.745 397.266 235.198V348.99C397.266 354.052 393.167 358.156 388.104 358.156H180.729C175.667 358.156 171.568 354.052 171.568 348.99V235.198C171.568 228.745 176.818 223.5 183.266 223.5H235.062C235.396 221.432 235.859 219.411 236.443 217.443H171.276C164.99 217.443 159.88 222.552 159.88 228.833V370.255C159.88 376.536 164.99 381.646 171.276 381.646ZM251.557 414.307H317.271V399.974H251.557V414.307ZM366.094 437.479C366.094 435.547 362.755 432.63 357.724 432.63H211.104C206.078 432.63 202.74 435.547 202.74 437.479V442.323H366.094V437.479ZM180.385 557.984C180.661 560.573 179.828 563.151 178.088 565.089C176.354 567.021 173.875 568.125 171.276 568.125H9.51554C6.91658 568.125 4.43741 567.021 2.70304 565.089C0.963452 563.151 0.130119 560.573 0.406161 557.984C4.10929 523.401 26.8489 495.203 57.5832 483.307C46.8905 474.078 40.1041 460.438 40.1041 445.24C40.1041 417.505 62.6666 394.943 90.3957 394.943C118.13 394.943 140.687 417.505 140.687 445.24C140.687 460.438 133.901 474.078 123.208 483.307C153.943 495.203 176.682 523.401 180.385 557.984ZM90.3957 477.203C108.021 477.203 122.364 462.865 122.364 445.24C122.364 427.615 108.021 413.271 90.3957 413.271C72.7707 413.271 58.4322 427.615 58.4322 445.24C58.4322 462.865 72.7707 477.203 90.3957 477.203ZM160.349 549.797C152.354 518.24 123.891 495.531 90.3957 495.531C56.901 495.531 28.4374 518.24 20.4426 549.797H160.349ZM566.13 565.089C564.396 567.021 561.917 568.125 559.318 568.125H397.557C394.958 568.125 392.479 567.021 390.745 565.089C389.005 563.156 388.172 560.573 388.448 557.984C392.151 523.401 414.891 495.203 445.63 483.307C434.932 474.078 428.146 460.438 428.146 445.24C428.146 417.505 450.708 394.948 478.437 394.948C506.172 394.948 528.729 417.505 528.729 445.24C528.729 460.438 521.943 474.078 511.245 483.307C541.984 495.208 564.724 523.401 568.427 557.99C568.703 560.573 567.87 563.151 566.13 565.089ZM446.469 445.24C446.469 462.865 460.812 477.203 478.437 477.203C496.062 477.203 510.401 462.865 510.401 445.24C510.401 427.615 496.062 413.271 478.437 413.271C460.812 413.271 446.469 427.609 446.469 445.24ZM548.391 549.797C540.396 518.24 511.932 495.531 478.437 495.531C444.943 495.531 416.474 518.24 408.484 549.797H548.391ZM196.724 170.141C194.984 168.208 194.151 165.625 194.427 163.042C198.13 128.458 220.87 100.26 251.609 88.3594C240.911 79.1302 234.125 65.4948 234.125 50.2917C234.125 22.5625 256.687 0 284.417 0C312.146 0 334.708 22.5625 334.708 50.2917C334.708 65.4948 327.922 79.1302 317.229 88.3594C347.963 100.26 370.703 128.458 374.406 163.042C374.682 165.625 373.849 168.208 372.109 170.141C370.375 172.073 367.896 173.177 365.297 173.177H203.536C200.937 173.177 198.458 172.073 196.724 170.141ZM252.448 50.2917C252.448 67.9219 266.792 82.2604 284.417 82.2604C302.042 82.2604 316.38 67.9167 316.38 50.2917C316.38 32.6667 302.042 18.3281 284.417 18.3281C266.792 18.3281 252.448 32.6667 252.448 50.2917ZM214.463 154.854H354.37C346.38 123.292 317.911 100.583 284.417 100.583C250.922 100.583 222.458 123.297 214.463 154.854Z" fill="#8C52FF"/>
</g>
</svg>
