<svg width="845" height="845" viewBox="0 0 845 845" fill="none" xmlns="http://www.w3.org/2000/svg">
<mask id="mask0_53_181" style="mask-type:luminance" maskUnits="userSpaceOnUse" x="0" y="0" width="845" height="845">
<path d="M0 0H845V845H0V0Z" fill="white"/>
</mask>
<g mask="url(#mask0_53_181)">
<path d="M423.089 0.385437C190.016 0.385437 0.395996 190.01 0.395996 423.083C0.395996 656.161 190.016 845.787 423.089 845.787C656.162 845.787 845.781 656.161 845.781 423.083C845.781 190.01 656.162 0.385437 423.089 0.385437ZM423.089 808.182C210.755 808.182 38.0054 635.427 38.0054 423.083C38.0054 210.745 210.755 37.9896 423.089 37.9896C635.422 37.9896 808.172 210.745 808.172 423.083C808.172 635.427 635.422 808.182 423.089 808.182Z" fill="#8C52FF"/>
</g>
<path d="M423.089 51.8335C218.381 51.8335 51.8232 218.375 51.8232 423.084C51.8232 627.792 218.37 794.339 423.089 794.339C627.808 794.339 794.355 627.792 794.355 423.084C794.355 218.375 627.797 51.8335 423.089 51.8335ZM423.089 756.74C239.11 756.74 89.4326 607.063 89.4326 423.094C89.4326 239.125 239.11 89.4377 423.089 89.4377C607.068 89.4377 756.745 239.12 756.745 423.084C756.745 607.052 607.068 756.735 423.089 756.735V756.74Z" fill="#8C52FF"/>
<path d="M639.813 206.359C633.833 200.364 624.547 199.13 617.203 203.323L358.177 351.161C355.255 352.833 352.839 355.26 351.167 358.177L203.328 617.198C199.125 624.557 200.365 633.823 206.365 639.807C209.984 643.437 214.797 645.317 219.667 645.317C222.854 645.317 226.073 644.51 228.984 642.849L488.011 495.01C490.932 493.338 493.349 490.911 495.021 487.995L642.859 228.974C647.063 221.609 645.823 212.349 639.823 206.359H639.813ZM371.625 398.198L447.974 474.552L270.099 576.073L371.615 398.198H371.625ZM474.563 447.963L398.214 371.609L576.089 270.088L474.573 447.963H474.563Z" fill="#8C52FF"/>
<path d="M423.088 216.828C433.468 216.828 441.89 208.401 441.89 198.021V132.614C441.89 122.234 433.468 113.807 423.088 113.807C412.708 113.807 404.286 122.234 404.286 132.614V198.021C404.286 208.401 412.708 216.828 423.088 216.828Z" fill="#8C52FF"/>
<path d="M423.088 629.344C412.708 629.344 404.286 637.771 404.286 648.151V713.557C404.286 723.938 412.708 732.365 423.088 732.365C433.468 732.365 441.89 723.938 441.89 713.557V648.151C441.89 637.771 433.468 629.344 423.088 629.344Z" fill="#8C52FF"/>
<path d="M713.573 404.281H648.151C637.771 404.281 629.349 412.708 629.349 423.083C629.349 433.464 637.771 441.891 648.151 441.891H713.573C723.953 441.891 732.375 433.464 732.375 423.083C732.375 412.708 723.953 404.281 713.573 404.281Z" fill="#8C52FF"/>
<path d="M216.828 423.083C216.828 412.708 208.406 404.281 198.026 404.281H132.604C122.229 404.281 113.802 412.708 113.802 423.083C113.802 433.464 122.229 441.891 132.604 441.891H198.026C208.406 441.891 216.828 433.464 216.828 423.083Z" fill="#8C52FF"/>
<path d="M595.531 568.938C588.198 561.594 576.276 561.594 568.942 568.938C561.599 576.281 561.599 588.182 568.942 595.526L615.198 641.786C618.864 645.458 623.677 647.292 628.494 647.292C633.307 647.292 638.119 645.458 641.786 641.786C649.13 634.443 649.13 622.536 641.786 615.198L595.531 568.938Z" fill="#8C52FF"/>
<path d="M250.646 277.234C254.313 280.911 259.13 282.745 263.943 282.745C268.755 282.745 273.568 280.911 277.234 277.234C284.578 269.89 284.578 257.989 277.234 250.646L230.979 204.385C223.646 197.047 211.724 197.047 204.391 204.385C197.047 211.729 197.047 223.635 204.391 230.974L250.646 277.234Z" fill="#8C52FF"/>
</svg>
