<svg width="763" height="815" viewBox="0 0 763 815" fill="none" xmlns="http://www.w3.org/2000/svg">
<mask id="mask0_53_164" style="mask-type:luminance" maskUnits="userSpaceOnUse" x="30" y="0" width="698" height="373">
<path d="M30.666 0H727.999V372.672H30.666V0Z" fill="white"/>
</mask>
<g mask="url(#mask0_53_164)">
<path d="M368.478 3.36458L31.1399 183.896L380.937 372.339L727.369 181.917L393.786 3.95833C391.874 2.83854 389.853 1.97396 387.723 1.36979C385.593 0.765623 383.421 0.4375 381.208 0.385416C378.994 0.333333 376.812 0.562499 374.656 1.0625C372.499 1.56771 370.437 2.33333 368.478 3.36458Z" fill="#8C52FF"/>
</g>
<mask id="mask1_53_164" style="mask-type:luminance" maskUnits="userSpaceOnUse" x="408" y="223" width="355" height="592">
<path d="M408 223.338H762.667V815H408V223.338Z" fill="white"/>
</mask>
<g mask="url(#mask1_53_164)">
<path d="M747.734 632.755C748.797 632.193 749.812 631.557 750.786 630.854C751.76 630.151 752.682 629.385 753.552 628.557C754.422 627.724 755.234 626.844 755.984 625.901C756.734 624.963 757.417 623.979 758.031 622.948C758.646 621.917 759.193 620.844 759.661 619.739C760.13 618.635 760.526 617.5 760.844 616.344C761.156 615.182 761.396 614.005 761.552 612.818C761.708 611.625 761.781 610.427 761.776 609.224V224.036L408.026 418.609V814.078L747.734 632.755Z" fill="#8C52FF"/>
</g>
<path d="M381.13 402.792L380.938 402.594V402.792H381.13Z" fill="#8C52FF"/>
<mask id="mask2_53_164" style="mask-type:luminance" maskUnits="userSpaceOnUse" x="0" y="227" width="355" height="588">
<path d="M0 227.338H354.667V815H0V227.338Z" fill="white"/>
</mask>
<g mask="url(#mask2_53_164)">
<path d="M0.291568 608.432C0.28636 610.859 0.59886 613.245 1.23428 615.588C1.86969 617.932 2.80719 620.146 4.04157 622.234C5.27594 624.323 6.76553 626.208 8.51553 627.896C10.2603 629.583 12.203 631.005 14.3332 632.161L354.437 814.078V418.609L0.291568 227.792V608.432Z" fill="#8C52FF"/>
</g>
</svg>
