<?xml version="1.0" standalone="no"?>
<!DOCTYPE svg PUBLIC "-//W3C//DTD SVG 20010904//EN"
 "http://www.w3.org/TR/2001/REC-SVG-20010904/DTD/svg10.dtd">
<svg version="1.0" xmlns="http://www.w3.org/2000/svg"
 width="225.000000pt" height="225.000000pt" viewBox="0 0 225.000000 225.000000"
 preserveAspectRatio="xMidYMid meet">

<g transform="translate(0.000000,225.000000) scale(0.100000,-0.100000)"
fill="#000000" stroke="none">
<path d="M981 2235 c-131 -37 -298 -156 -427 -303 l-74 -85 34 -23 c64 -44 95
-153 96 -341 l0 -82 54 -30 c29 -17 56 -31 58 -31 3 0 8 23 12 51 16 116 71
211 147 249 20 11 89 29 153 40 147 26 212 50 270 101 l46 40 44 -31 c94 -64
136 -160 144 -322 2 -60 8 -108 13 -108 4 0 22 17 39 38 180 218 89 612 -156
674 -36 9 -65 27 -106 65 -103 96 -228 131 -347 98z"/>
<path d="M1530 640 c-66 -43 -196 -87 -296 -101 -152 -20 -317 8 -466 78 l-77
36 -53 -17 c-29 -9 -104 -25 -166 -35 -227 -38 -383 -154 -443 -329 -25 -73
-37 -235 -19 -257 11 -13 137 -15 1114 -15 844 0 1105 3 1114 12 15 15 15 91
1 178 -16 100 -61 183 -143 265 -91 91 -179 136 -331 169 -60 14 -123 29 -138
35 -39 15 -46 14 -97 -19z"/>
</g>
</svg>
