<svg width="1105" height="673" viewBox="0 0 1105 673" fill="none" xmlns="http://www.w3.org/2000/svg">
<path d="M681.427 388.703C630.807 390.24 583.302 402.927 547.193 432.432C511.083 402.927 463.578 390.24 412.958 388.703V290.995L544.958 326.375C546.422 326.755 547.963 326.755 549.396 326.375L681.427 290.995V388.703ZM836.281 292.641C836.281 287.818 832.963 283.797 828.521 282.641V251.286C835.338 248 834.885 237.547 826.984 235.453L549.396 161.031C547.963 160.646 546.422 160.646 544.958 161.031L267.401 235.453C258.943 237.688 258.943 249.714 267.401 251.984L374.682 280.719V429.214C384.682 427.641 395.026 426.839 405.552 426.839C464.87 426.839 516.989 447.776 546.984 486.682L547.193 486.786L547.401 486.682C577.396 447.776 629.515 426.839 688.838 426.839C699.359 426.839 709.703 427.641 719.703 429.214V280.719L823.385 252.932V282.641C818.911 283.797 815.625 287.818 815.625 292.641C815.625 296.276 817.474 299.422 820.307 301.276C817.094 313.302 808.25 348.708 808.25 378.214C808.25 378.214 811.917 384.12 825.901 384.891C839.953 384.12 843.656 378.214 843.656 378.214C843.656 348.708 834.812 313.302 831.495 301.276C834.359 299.422 836.281 296.276 836.281 292.641Z" fill="#8C52FF"/>
<mask id="mask0_82_670" style="mask-type:luminance" maskUnits="userSpaceOnUse" x="0" y="0" width="1105" height="673">
<path d="M0 0H1104.74V673H0V0Z" fill="white"/>
</mask>
<g mask="url(#mask0_82_670)">
<path d="M924.026 577.432H647.552C646.714 600.714 627.104 619.625 603.297 619.625H502.901C478.995 619.625 459.698 600.714 458.682 577.432H180.641V70.1094H924.026V577.432ZM995.229 578.339C995.755 574.354 996.031 570.266 996.031 566.068V81.8542C996.031 36.6875 961.917 0.020874 919.547 0.020874H184.87C142.745 0.020874 108.667 36.6875 108.667 81.8542V566.068C108.667 570.266 108.875 574.354 109.261 578.339H0.651123V591.099C0.651123 636.646 34.7657 672.932 76.8543 672.932H1027.74C1069.83 672.932 1103.94 636.646 1103.94 591.099V578.339H995.229Z" fill="#8C52FF"/>
</g>
</svg>
