<svg width="669" height="567" viewBox="0 0 669 567" fill="none" xmlns="http://www.w3.org/2000/svg">
<path d="M146.375 356.544C148.427 356.544 150.479 356.445 152.521 356.242C154.568 356.039 156.599 355.742 158.609 355.341C160.625 354.94 162.62 354.44 164.583 353.841C166.552 353.247 168.484 352.555 170.38 351.768C172.276 350.982 174.135 350.107 175.943 349.138C177.755 348.169 179.516 347.112 181.224 345.971C182.932 344.831 184.583 343.607 186.172 342.305C187.76 341.002 189.281 339.622 190.734 338.169C192.182 336.716 193.563 335.195 194.865 333.612C196.172 332.023 197.391 330.372 198.531 328.664C199.677 326.956 200.729 325.195 201.698 323.383C202.667 321.57 203.542 319.716 204.328 317.82C205.115 315.919 205.807 313.987 206.406 312.023C207 310.055 207.5 308.065 207.901 306.049C208.302 304.034 208.604 302.008 208.802 299.961C209.005 297.919 209.104 295.867 209.104 293.815C209.104 291.758 209.005 289.711 208.802 287.664C208.604 285.617 208.302 283.591 207.901 281.575C207.5 279.56 207 277.57 206.406 275.601C205.807 273.638 205.115 271.706 204.328 269.805C203.542 267.909 202.667 266.055 201.698 264.242C200.729 262.43 199.677 260.669 198.531 258.961C197.391 257.252 196.172 255.607 194.865 254.018C193.563 252.43 192.182 250.909 190.734 249.456C189.281 248.002 187.76 246.622 186.172 245.32C184.583 244.018 182.932 242.794 181.224 241.653C179.516 240.513 177.755 239.456 175.943 238.487C174.135 237.518 172.276 236.643 170.38 235.857C168.484 235.07 166.552 234.377 164.583 233.784C162.62 233.185 160.625 232.685 158.615 232.284C156.599 231.883 154.568 231.586 152.521 231.383C150.479 231.18 148.427 231.081 146.375 231.081C144.318 231.081 142.271 231.18 140.224 231.383C138.182 231.586 136.151 231.883 134.135 232.284C132.12 232.685 130.13 233.185 128.161 233.784C126.198 234.377 124.266 235.07 122.365 235.857C120.469 236.643 118.615 237.518 116.802 238.487C114.99 239.456 113.229 240.513 111.521 241.653C109.813 242.794 108.167 244.018 106.578 245.32C104.99 246.622 103.469 248.002 102.016 249.456C100.563 250.909 99.1823 252.43 97.8802 254.018C96.5781 255.607 95.3542 257.252 94.2135 258.961C93.0729 260.669 92.0156 262.43 91.0469 264.242C90.0781 266.055 89.2031 267.909 88.4167 269.805C87.6302 271.706 86.9375 273.638 86.3438 275.601C85.7448 277.57 85.25 279.56 84.849 281.575C84.4479 283.591 84.1458 285.617 83.9427 287.664C83.7448 289.711 83.6406 291.758 83.6406 293.815C83.6406 295.867 83.7448 297.919 83.9427 299.961C84.1458 302.008 84.4479 304.034 84.849 306.049C85.25 308.065 85.7448 310.055 86.3438 312.023C86.9375 313.987 87.6302 315.919 88.4167 317.82C89.2031 319.716 90.0781 321.57 91.0469 323.383C92.0156 325.195 93.0729 326.956 94.2135 328.664C95.3542 330.372 96.5781 332.023 97.8802 333.612C99.1823 335.195 100.563 336.716 102.016 338.169C103.469 339.622 104.99 341.002 106.578 342.305C108.167 343.607 109.813 344.831 111.521 345.971C113.229 347.112 114.99 348.169 116.802 349.138C118.615 350.107 120.469 350.982 122.365 351.768C124.266 352.555 126.198 353.247 128.161 353.841C130.13 354.44 132.12 354.94 134.135 355.341C136.151 355.742 138.182 356.039 140.224 356.242C142.271 356.445 144.318 356.544 146.375 356.544ZM146.375 251.992C147.745 251.992 149.109 252.06 150.474 252.195C151.833 252.325 153.188 252.528 154.531 252.794C155.875 253.06 157.203 253.393 158.516 253.794C159.823 254.19 161.115 254.648 162.38 255.174C163.646 255.7 164.88 256.284 166.089 256.93C167.297 257.575 168.469 258.278 169.609 259.039C170.745 259.799 171.844 260.617 172.906 261.487C173.964 262.351 174.979 263.273 175.948 264.242C176.917 265.211 177.833 266.221 178.703 267.284C179.573 268.341 180.385 269.44 181.146 270.575C181.906 271.716 182.609 272.888 183.255 274.096C183.901 275.305 184.49 276.544 185.01 277.81C185.536 279.075 185.995 280.362 186.396 281.674C186.792 282.982 187.125 284.31 187.391 285.653C187.656 286.997 187.859 288.351 187.995 289.716C188.13 291.075 188.193 292.445 188.193 293.815C188.193 295.185 188.13 296.549 187.995 297.914C187.859 299.273 187.656 300.627 187.391 301.971C187.125 303.315 186.792 304.643 186.396 305.95C185.995 307.263 185.536 308.549 185.01 309.815C184.49 311.081 183.901 312.32 183.255 313.528C182.609 314.737 181.906 315.909 181.146 317.049C180.385 318.185 179.573 319.284 178.703 320.346C177.833 321.403 176.917 322.414 175.948 323.383C174.979 324.351 173.964 325.273 172.906 326.143C171.844 327.008 170.745 327.825 169.609 328.586C168.469 329.346 167.297 330.049 166.089 330.695C164.88 331.341 163.646 331.924 162.38 332.45C161.115 332.976 159.823 333.435 158.516 333.831C157.203 334.232 155.875 334.565 154.531 334.831C153.188 335.096 151.833 335.299 150.474 335.435C149.109 335.565 147.745 335.633 146.375 335.633C145.005 335.633 143.635 335.565 142.276 335.435C140.911 335.299 139.557 335.096 138.214 334.831C136.87 334.565 135.542 334.232 134.234 333.831C132.922 333.435 131.635 332.976 130.37 332.45C129.104 331.924 127.865 331.341 126.661 330.695C125.453 330.049 124.276 329.346 123.141 328.586C122 327.825 120.901 327.008 119.844 326.143C118.781 325.273 117.771 324.351 116.802 323.383C115.833 322.414 114.917 321.403 114.047 320.346C113.177 319.284 112.359 318.185 111.599 317.049C110.839 315.909 110.135 314.737 109.49 313.528C108.844 312.32 108.26 311.081 107.734 309.815C107.214 308.549 106.75 307.263 106.354 305.95C105.953 304.643 105.625 303.315 105.354 301.971C105.089 300.627 104.885 299.273 104.755 297.914C104.62 296.549 104.552 295.185 104.552 293.815C104.552 292.445 104.62 291.075 104.755 289.711C104.885 288.351 105.089 286.997 105.354 285.653C105.625 284.31 105.953 282.982 106.354 281.674C106.75 280.362 107.214 279.075 107.734 277.81C108.26 276.544 108.844 275.305 109.49 274.096C110.135 272.888 110.839 271.716 111.599 270.575C112.359 269.44 113.177 268.341 114.047 267.284C114.917 266.221 115.833 265.211 116.802 264.242C117.771 263.273 118.781 262.351 119.844 261.487C120.901 260.617 122 259.799 123.141 259.039C124.276 258.278 125.453 257.575 126.661 256.93C127.865 256.284 129.104 255.7 130.37 255.174C131.635 254.648 132.922 254.19 134.234 253.794C135.542 253.393 136.87 253.06 138.214 252.794C139.557 252.528 140.911 252.325 142.276 252.195C143.635 252.06 145.005 251.992 146.375 251.992Z" fill="#8C52FF"/>
<path d="M522.766 356.544C524.818 356.544 526.87 356.445 528.912 356.242C530.959 356.039 532.99 355.742 535.005 355.341C537.021 354.94 539.011 354.44 540.974 353.841C542.943 353.247 544.875 352.555 546.771 351.768C548.672 350.982 550.526 350.107 552.339 349.138C554.151 348.169 555.912 347.112 557.615 345.971C559.323 344.831 560.974 343.607 562.563 342.305C564.151 341.002 565.672 339.622 567.125 338.169C568.578 336.716 569.953 335.195 571.255 333.612C572.563 332.023 573.781 330.372 574.927 328.664C576.068 326.956 577.12 325.195 578.089 323.383C579.058 321.57 579.938 319.716 580.724 317.82C581.511 315.919 582.198 313.987 582.797 312.023C583.391 310.055 583.891 308.065 584.292 306.049C584.693 304.034 584.995 302.008 585.193 299.961C585.396 297.919 585.495 295.867 585.495 293.815C585.495 291.758 585.396 289.711 585.193 287.664C584.995 285.617 584.693 283.591 584.292 281.575C583.891 279.56 583.391 277.57 582.797 275.601C582.198 273.638 581.511 271.706 580.724 269.805C579.938 267.909 579.058 266.055 578.089 264.242C577.12 262.43 576.068 260.669 574.927 258.961C573.781 257.252 572.563 255.607 571.255 254.018C569.953 252.43 568.578 250.909 567.125 249.456C565.672 248.002 564.151 246.622 562.563 245.32C560.974 244.018 559.323 242.794 557.615 241.653C555.912 240.513 554.151 239.456 552.339 238.487C550.526 237.518 548.672 236.643 546.771 235.857C544.875 235.07 542.943 234.377 540.974 233.784C539.011 233.185 537.021 232.685 535.005 232.284C532.99 231.883 530.959 231.586 528.912 231.383C526.87 231.18 524.818 231.081 522.766 231.081C520.709 231.081 518.662 231.18 516.615 231.383C514.573 231.586 512.542 231.883 510.526 232.284C508.511 232.685 506.521 233.185 504.558 233.784C502.589 234.377 500.656 235.07 498.761 235.857C496.86 236.643 495.005 237.518 493.193 238.487C491.38 239.456 489.62 240.513 487.912 241.653C486.203 242.794 484.558 244.018 482.969 245.32C481.38 246.622 479.86 248.002 478.406 249.456C476.953 250.909 475.578 252.43 474.271 254.018C472.969 255.607 471.745 257.252 470.604 258.961C469.464 260.669 468.412 262.43 467.443 264.242C466.474 266.055 465.594 267.909 464.808 269.805C464.021 271.706 463.334 273.638 462.735 275.601C462.141 277.57 461.641 279.56 461.24 281.575C460.839 283.591 460.537 285.617 460.334 287.664C460.136 289.711 460.031 291.758 460.031 293.815C460.031 295.867 460.136 297.919 460.334 299.961C460.537 302.008 460.839 304.034 461.24 306.049C461.641 308.065 462.141 310.055 462.735 312.023C463.334 313.987 464.021 315.919 464.808 317.82C465.594 319.716 466.474 321.57 467.443 323.383C468.412 325.195 469.464 326.956 470.604 328.664C471.745 330.372 472.969 332.023 474.271 333.612C475.578 335.195 476.953 336.716 478.406 338.169C479.86 339.622 481.38 341.002 482.969 342.305C484.558 343.607 486.203 344.831 487.912 345.971C489.62 347.112 491.38 348.169 493.193 349.138C495.005 350.107 496.86 350.982 498.761 351.768C500.656 352.555 502.589 353.247 504.558 353.841C506.521 354.44 508.511 354.94 510.526 355.341C512.542 355.742 514.573 356.039 516.615 356.242C518.662 356.445 520.709 356.544 522.766 356.544ZM522.766 251.992C524.136 251.992 525.5 252.06 526.865 252.195C528.229 252.325 529.584 252.528 530.922 252.794C532.266 253.06 533.594 253.393 534.906 253.794C536.214 254.19 537.505 254.648 538.771 255.174C540.037 255.7 541.271 256.284 542.479 256.93C543.688 257.575 544.86 258.278 546 259.039C547.141 259.799 548.24 260.617 549.297 261.487C550.354 262.351 551.37 263.273 552.339 264.242C553.308 265.211 554.224 266.221 555.094 267.284C555.964 268.341 556.776 269.44 557.537 270.575C558.297 271.716 559 272.888 559.646 274.096C560.292 275.305 560.88 276.544 561.401 277.81C561.927 279.075 562.386 280.362 562.787 281.674C563.183 282.982 563.516 284.31 563.781 285.653C564.052 286.997 564.25 288.351 564.386 289.716C564.521 291.075 564.589 292.445 564.589 293.815C564.589 295.185 564.521 296.549 564.386 297.914C564.25 299.273 564.052 300.627 563.781 301.971C563.516 303.315 563.183 304.643 562.787 305.95C562.386 307.263 561.927 308.549 561.401 309.815C560.88 311.081 560.292 312.32 559.646 313.528C559 314.737 558.297 315.909 557.537 317.049C556.776 318.185 555.964 319.284 555.094 320.346C554.224 321.403 553.308 322.414 552.339 323.383C551.37 324.351 550.354 325.273 549.297 326.143C548.24 327.008 547.141 327.825 546 328.586C544.86 329.346 543.688 330.049 542.479 330.695C541.271 331.341 540.037 331.924 538.771 332.45C537.505 332.976 536.214 333.435 534.906 333.831C533.594 334.232 532.266 334.565 530.922 334.831C529.584 335.096 528.229 335.299 526.865 335.435C525.5 335.565 524.136 335.633 522.766 335.633C521.396 335.633 520.031 335.565 518.667 335.435C517.302 335.299 515.948 335.096 514.604 334.831C513.261 334.565 511.938 334.232 510.625 333.831C509.313 333.435 508.026 332.976 506.761 332.45C505.495 331.924 504.261 331.341 503.052 330.695C501.844 330.049 500.672 329.346 499.531 328.586C498.391 327.825 497.292 327.008 496.235 326.143C495.177 325.273 494.162 324.351 493.193 323.383C492.224 322.414 491.308 321.403 490.438 320.346C489.568 319.284 488.755 318.185 487.99 317.049C487.229 315.909 486.526 314.737 485.88 313.528C485.235 312.32 484.651 311.081 484.125 309.815C483.604 308.549 483.141 307.263 482.745 305.95C482.349 304.643 482.016 303.315 481.75 301.971C481.479 300.627 481.281 299.273 481.146 297.914C481.011 296.549 480.943 295.185 480.943 293.815C480.943 292.445 481.011 291.075 481.146 289.711C481.281 288.351 481.479 286.997 481.75 285.653C482.016 284.31 482.349 282.982 482.745 281.674C483.141 280.362 483.604 279.075 484.125 277.81C484.651 276.544 485.235 275.305 485.88 274.096C486.526 272.888 487.229 271.716 487.99 270.575C488.755 269.44 489.568 268.341 490.438 267.284C491.308 266.221 492.224 265.211 493.193 264.242C494.162 263.273 495.177 262.351 496.235 261.487C497.292 260.617 498.391 259.799 499.531 259.039C500.672 258.278 501.844 257.575 503.052 256.93C504.261 256.284 505.495 255.7 506.761 255.174C508.026 254.648 509.313 254.19 510.625 253.794C511.938 253.393 513.261 253.06 514.604 252.794C515.948 252.528 517.302 252.325 518.667 252.195C520.031 252.06 521.396 251.992 522.766 251.992Z" fill="#8C52FF"/>
<mask id="mask0_54_242" style="mask-type:luminance" maskUnits="userSpaceOnUse" x="0" y="366" width="669" height="201">
<path d="M0 366.278H669V566.278H0V366.278Z" fill="white"/>
</mask>
<g mask="url(#mask0_54_242)">
<path d="M658.682 544.742H630.453C632.781 541.747 634.568 538.461 635.823 534.882C637.073 531.304 637.724 527.622 637.776 523.83V429.731C637.776 395.122 604.943 366.997 564.589 366.997H480.943C444.771 366.997 414.656 389.69 408.906 419.278H365.938C364.328 419.268 362.797 419.612 361.349 420.31C359.896 421.007 358.672 421.987 357.677 423.247C356.688 424.523 356.026 425.95 355.693 427.528C355.365 429.106 355.396 430.679 355.792 432.242L383.917 544.742H285.219L313.656 432.242C314.057 430.679 314.089 429.106 313.76 427.528C313.427 425.95 312.766 424.523 311.776 423.247C310.745 421.945 309.474 420.94 307.964 420.237C306.453 419.539 304.865 419.216 303.203 419.278H260.234C254.479 389.69 224.37 366.997 188.193 366.997H104.552C64.1927 366.997 31.3646 395.122 31.3646 429.731V523.83C31.4115 527.622 32.0625 531.304 33.3177 534.882C34.5677 538.461 36.3594 541.747 38.6823 544.742H10.4531C9.76563 544.742 9.08854 544.81 8.41667 544.94C7.73958 545.075 7.08854 545.273 6.45313 545.534C5.81771 545.799 5.21875 546.122 4.64583 546.502C4.07292 546.882 3.54687 547.315 3.0625 547.804C2.57812 548.289 2.14062 548.815 1.76042 549.388C1.38021 549.955 1.05729 550.56 0.796875 551.195C0.53125 551.83 0.333333 552.481 0.197917 553.153C0.0677087 553.83 0 554.507 0 555.195C0 555.882 0.0677087 556.56 0.197917 557.237C0.333333 557.909 0.53125 558.565 0.796875 559.195C1.05729 559.83 1.38021 560.435 1.76042 561.002C2.14062 561.575 2.57812 562.101 3.0625 562.591C3.54687 563.075 4.07292 563.507 4.64583 563.888C5.21875 564.268 5.81771 564.591 6.45313 564.856C7.08854 565.117 7.73958 565.315 8.41667 565.45C9.08854 565.586 9.76563 565.653 10.4531 565.653H658.682C659.37 565.653 660.052 565.586 660.724 565.45C661.396 565.315 662.052 565.117 662.688 564.856C663.318 564.591 663.922 564.268 664.495 563.888C665.063 563.507 665.594 563.075 666.078 562.591C666.563 562.101 666.995 561.575 667.375 561.002C667.76 560.435 668.083 559.83 668.344 559.195C668.604 558.565 668.807 557.909 668.938 557.237C669.073 556.56 669.141 555.882 669.141 555.195C669.141 554.507 669.073 553.83 668.938 553.153C668.807 552.481 668.604 551.83 668.344 551.195C668.083 550.56 667.76 549.955 667.375 549.388C666.995 548.815 666.563 548.289 666.078 547.804C665.594 547.315 665.063 546.882 664.495 546.502C663.922 546.122 663.318 545.799 662.688 545.534C662.052 545.273 661.396 545.075 660.724 544.94C660.052 544.81 659.37 544.742 658.682 544.742ZM177.74 544.742H83.6406C66.599 544.742 52.276 535.122 52.276 523.83V429.731C52.276 406.627 75.6979 387.909 104.552 387.909H188.193C190.833 387.757 193.464 387.804 196.094 388.06C198.724 388.31 201.318 388.763 203.88 389.414C206.438 390.065 208.932 390.909 211.365 391.945C213.792 392.981 216.13 394.195 218.375 395.591C220.615 396.987 222.74 398.544 224.74 400.268C226.745 401.992 228.599 403.856 230.318 405.867C232.031 407.877 233.583 410.007 234.969 412.252C236.354 414.502 237.563 416.841 238.589 419.278H156.828C156.234 419.257 155.646 419.294 155.057 419.377C154.474 419.461 153.896 419.591 153.333 419.773C152.766 419.95 152.219 420.179 151.693 420.455C151.172 420.726 150.672 421.044 150.198 421.403C149.724 421.763 149.286 422.159 148.88 422.591C148.479 423.023 148.115 423.487 147.786 423.987C147.464 424.481 147.182 425.002 146.943 425.544C146.703 426.086 146.516 426.648 146.375 427.221L127.766 502.919H104.552V471.554C104.552 470.867 104.484 470.185 104.349 469.513C104.219 468.841 104.021 468.185 103.755 467.549C103.495 466.919 103.172 466.315 102.792 465.742C102.411 465.174 101.974 464.643 101.49 464.159C101.005 463.674 100.474 463.242 99.9063 462.862C99.3333 462.476 98.7344 462.159 98.099 461.893C97.4635 461.632 96.8125 461.435 96.1354 461.299C95.4635 461.164 94.7813 461.096 94.099 461.096C93.4115 461.096 92.7292 461.164 92.0573 461.299C91.3854 461.435 90.7292 461.632 90.0938 461.893C89.4635 462.159 88.8594 462.476 88.2865 462.862C87.7188 463.242 87.1875 463.674 86.7031 464.159C86.2188 464.643 85.7865 465.174 85.4063 465.742C85.0208 466.315 84.6979 466.919 84.4375 467.549C84.1771 468.185 83.974 468.841 83.8438 469.513C83.7083 470.185 83.6406 470.867 83.6406 471.554V513.372C83.6406 514.06 83.7083 514.742 83.8438 515.414C83.974 516.086 84.1771 516.742 84.4375 517.377C84.6979 518.007 85.0208 518.612 85.4063 519.185C85.7865 519.752 86.2188 520.284 86.7031 520.768C87.1875 521.252 87.7188 521.685 88.2865 522.065C88.8594 522.45 89.4635 522.773 90.0938 523.034C90.7292 523.294 91.3854 523.497 92.0573 523.627C92.7292 523.763 93.4115 523.83 94.099 523.83H207.328C206.792 525.351 206.141 526.82 205.375 528.242C204.609 529.659 203.745 531.013 202.771 532.299C201.797 533.586 200.729 534.789 199.573 535.909C198.411 537.034 197.177 538.06 195.859 538.987C194.542 539.919 193.161 540.742 191.719 541.461C190.271 542.179 188.781 542.784 187.245 543.268C185.708 543.757 184.141 544.127 182.547 544.372C180.953 544.617 179.354 544.742 177.74 544.742ZM263.682 544.742H219.563C222.979 540.231 225.589 535.289 227.375 529.919C229.167 524.549 230.047 519.034 230.016 513.372C230.016 512.69 229.948 512.007 229.818 511.336C229.682 510.659 229.484 510.007 229.219 509.372C228.958 508.737 228.635 508.138 228.255 507.565C227.875 506.997 227.438 506.466 226.953 505.981C226.469 505.497 225.943 505.065 225.37 504.679C224.797 504.299 224.198 503.976 223.563 503.716C222.927 503.45 222.276 503.252 221.599 503.122C220.927 502.987 220.245 502.919 219.563 502.919H149.302L164.984 440.185H289.823L263.682 544.742ZM405.458 544.742L379.318 440.185H504.156L519.839 502.919H449.578C448.891 502.919 448.214 502.987 447.536 503.122C446.865 503.252 446.214 503.45 445.578 503.716C444.943 503.976 444.339 504.299 443.771 504.679C443.198 505.065 442.672 505.497 442.188 505.981C441.698 506.466 441.266 506.997 440.885 507.565C440.505 508.138 440.182 508.737 439.917 509.372C439.656 510.007 439.458 510.659 439.323 511.336C439.188 512.007 439.125 512.69 439.125 513.372C439.094 519.034 439.974 524.549 441.76 529.919C443.552 535.289 446.156 540.231 449.578 544.742H405.458ZM616.865 523.83C616.865 535.122 602.542 544.742 585.495 544.742H491.401C489.786 544.742 488.182 544.617 486.589 544.372C484.995 544.127 483.432 543.757 481.896 543.268C480.354 542.784 478.865 542.179 477.422 541.461C475.979 540.742 474.599 539.919 473.281 538.987C471.964 538.06 470.724 537.034 469.568 535.909C468.406 534.789 467.344 533.586 466.37 532.299C465.396 531.013 464.526 529.659 463.766 528.242C463 526.82 462.349 525.351 461.813 523.83H575.042C575.729 523.83 576.406 523.763 577.083 523.627C577.755 523.497 578.406 523.294 579.042 523.034C579.677 522.773 580.281 522.45 580.849 522.065C581.422 521.685 581.948 521.252 582.432 520.768C582.922 520.284 583.354 519.752 583.734 519.185C584.115 518.612 584.438 518.007 584.703 517.377C584.964 516.742 585.161 516.086 585.297 515.414C585.432 514.742 585.495 514.06 585.495 513.372V471.554C585.495 470.867 585.432 470.185 585.297 469.513C585.161 468.841 584.964 468.185 584.703 467.549C584.438 466.919 584.115 466.315 583.734 465.742C583.354 465.174 582.922 464.643 582.432 464.159C581.948 463.674 581.422 463.242 580.849 462.862C580.281 462.476 579.677 462.159 579.042 461.893C578.406 461.632 577.755 461.435 577.083 461.299C576.406 461.164 575.729 461.096 575.042 461.096C574.354 461.096 573.677 461.164 573 461.299C572.328 461.435 571.677 461.632 571.042 461.893C570.406 462.159 569.802 462.476 569.234 462.862C568.661 463.242 568.135 463.674 567.651 464.159C567.161 464.643 566.729 465.174 566.349 465.742C565.969 466.315 565.646 466.919 565.38 467.549C565.12 468.185 564.922 468.841 564.786 469.513C564.651 470.185 564.589 470.867 564.589 471.554V502.919H541.375L522.766 427.221C522.625 426.648 522.432 426.086 522.198 425.544C521.958 425.002 521.677 424.481 521.354 423.987C521.026 423.492 520.661 423.023 520.255 422.591C519.849 422.159 519.411 421.763 518.943 421.403C518.469 421.044 517.969 420.726 517.443 420.455C516.917 420.179 516.37 419.95 515.807 419.773C515.245 419.591 514.667 419.461 514.078 419.377C513.495 419.294 512.901 419.257 512.307 419.278H430.547C431.578 416.841 432.781 414.502 434.172 412.252C435.557 410.007 437.109 407.877 438.823 405.867C440.536 403.856 442.396 401.992 444.396 400.268C446.401 398.544 448.521 396.987 450.766 395.591C453.01 394.195 455.344 392.981 457.776 391.945C460.203 390.909 462.698 390.065 465.26 389.414C467.818 388.763 470.417 388.31 473.042 388.06C475.672 387.804 478.307 387.757 480.943 387.909H564.589C593.443 387.909 616.865 406.627 616.865 429.731V523.83Z" fill="#8C52FF"/>
</g>
<path d="M475.823 116.07C475.823 114.533 475.781 112.992 475.708 111.455C475.63 109.919 475.521 108.382 475.37 106.851C475.219 105.315 475.026 103.789 474.802 102.263C474.578 100.742 474.312 99.2262 474.01 97.7158C473.713 96.2053 473.375 94.7001 473 93.2053C472.625 91.7158 472.213 90.2314 471.771 88.7574C471.323 87.2835 470.838 85.8199 470.318 84.372C469.802 82.9189 469.245 81.4866 468.656 80.0647C468.068 78.6376 467.443 77.2314 466.786 75.8408C466.13 74.4501 465.437 73.0751 464.708 71.7158C463.984 70.3564 463.224 69.0178 462.432 67.6949C461.64 66.3772 460.818 65.0751 459.963 63.7939C459.109 62.5126 458.219 61.2522 457.302 60.0178C456.385 58.7835 455.437 57.5647 454.463 56.3772C453.484 55.1845 452.479 54.023 451.443 52.8772C450.411 51.7366 449.349 50.622 448.26 49.5335C447.172 48.4449 446.057 47.3824 444.917 46.3512C443.776 45.3147 442.609 44.3095 441.417 43.3355C440.229 42.3564 439.015 41.4085 437.776 40.4918C436.542 39.5751 435.281 38.6897 434 37.8303C432.719 36.9762 431.422 36.1533 430.099 35.3616C428.776 34.5699 427.437 33.8095 426.078 33.0855C424.724 32.3564 423.349 31.6689 421.953 31.0074C420.562 30.3512 419.156 29.7262 417.734 29.1376C416.307 28.5491 414.875 27.9918 413.422 27.4762C411.974 26.9553 410.51 26.471 409.036 26.0283C407.562 25.5803 406.078 25.1689 404.588 24.7939C403.094 24.4189 401.588 24.0803 400.078 23.7835C398.568 23.4814 397.052 23.221 395.531 22.9918C394.005 22.7678 392.479 22.5803 390.948 22.4293C389.411 22.2783 387.88 22.1637 386.338 22.0855C384.802 22.0126 383.26 21.9762 381.724 21.9762C371.588 21.971 361.724 23.6116 352.135 26.8876C350.943 25.721 349.719 24.5803 348.463 23.4762C347.208 22.372 345.927 21.3043 344.614 20.2678C343.307 19.2314 341.969 18.2314 340.604 17.2678C339.239 16.3043 337.849 15.372 336.437 14.4814C335.021 13.5908 333.588 12.7418 332.125 11.9241C330.667 11.1116 329.187 10.3355 327.687 9.60117C326.187 8.86679 324.667 8.17409 323.13 7.51784C321.594 6.86159 320.042 6.25221 318.469 5.67929C316.901 5.10638 315.318 4.57513 313.719 4.09075C312.12 3.60117 310.51 3.15846 308.885 2.75742C307.265 2.35638 305.635 1.997 303.995 1.6845C302.354 1.36679 300.703 1.09596 299.047 0.872003C297.396 0.642837 295.734 0.460545 294.068 0.325128C292.401 0.184504 290.734 0.0907534 289.068 0.0386694C287.396 -0.00820527 285.724 -0.0134139 284.057 0.0282527C282.385 0.0647114 280.719 0.148045 279.052 0.278253C277.385 0.408461 275.724 0.580335 274.068 0.793878C272.411 1.01263 270.76 1.27305 269.114 1.57513C267.474 1.88242 265.838 2.23138 264.219 2.622C262.594 3.01263 260.979 3.45013 259.38 3.92409C257.776 4.40325 256.187 4.92409 254.614 5.48659C253.042 6.04909 251.484 6.65325 249.943 7.29909C248.401 7.93971 246.88 8.62721 245.375 9.35117C243.87 10.0803 242.385 10.846 240.922 11.6533C239.458 12.4553 238.015 13.2991 236.599 14.1845C235.177 15.0647 233.786 15.9814 232.417 16.9397C231.042 17.898 229.703 18.8876 228.385 19.9189C227.068 20.9449 225.776 22.0074 224.515 23.1012C223.255 24.2001 222.026 25.3303 220.823 26.4918C219.625 27.6533 218.458 28.846 217.318 30.0699C216.182 31.2939 215.078 32.5491 214.01 33.8355C212.937 35.1168 211.901 36.4293 210.901 37.7678C209.901 39.1064 208.937 40.4658 208.01 41.8564C207.083 43.247 206.193 44.6585 205.344 46.096C204.489 47.5335 203.677 48.9918 202.901 50.4762C202.125 51.9553 201.39 53.4553 200.698 54.9762C200 56.4918 199.349 58.0335 198.734 59.5855C198.125 61.1376 197.552 62.7105 197.021 64.2939C196.495 65.8772 196.005 67.4762 195.562 69.0855C195.12 70.7001 194.719 72.3199 194.359 73.9501C194 75.5855 193.687 77.2262 193.417 78.872C193.146 80.523 192.922 82.1793 192.739 83.8355C192.557 85.497 192.422 87.1637 192.328 88.8303C192.234 90.5022 192.182 92.1689 192.177 93.8408C192.172 95.5126 192.213 97.1793 192.297 98.8512C192.385 100.518 192.51 102.185 192.682 103.846C192.859 105.507 193.073 107.164 193.338 108.815C193.599 110.466 193.901 112.106 194.25 113.742C194.599 115.372 194.989 116.997 195.427 118.612C195.864 120.226 196.338 121.825 196.859 123.414C197.38 125.002 197.943 126.57 198.547 128.132C199.151 129.69 199.797 131.226 200.484 132.752C201.172 134.273 201.896 135.778 202.661 137.263C203.432 138.747 204.234 140.211 205.078 141.653C205.922 143.096 206.807 144.513 207.724 145.908C208.646 147.304 209.604 148.674 210.594 150.018C211.588 151.362 212.614 152.674 213.682 153.966C214.745 155.252 215.838 156.513 216.969 157.747C218.099 158.976 219.26 160.174 220.458 161.346C221.651 162.513 222.875 163.648 224.13 164.752C225.385 165.856 226.667 166.924 227.979 167.961C229.292 168.997 230.63 169.997 231.995 170.961C233.359 171.924 234.745 172.851 236.161 173.742C237.573 174.627 239.01 175.481 240.474 176.294L235.87 208.705C235.703 209.7 235.677 210.7 235.797 211.705C235.911 212.705 236.172 213.669 236.573 214.601C236.969 215.528 237.495 216.377 238.14 217.153C238.786 217.929 239.526 218.601 240.364 219.164C242.135 220.351 244.088 220.945 246.224 220.94C248.083 220.95 249.828 220.497 251.448 219.58L307.281 187.586C310.828 186.825 314.312 185.846 317.734 184.658C323.979 190.612 330.906 195.612 338.526 199.664C346.14 203.711 354.161 206.653 362.588 208.497L418.213 240.174C419.833 241.096 421.578 241.549 423.437 241.533C425.573 241.539 427.526 240.95 429.297 239.757C430.135 239.195 430.875 238.528 431.521 237.752C432.167 236.976 432.693 236.122 433.088 235.195C433.489 234.268 433.75 233.304 433.864 232.299C433.984 231.299 433.958 230.299 433.792 229.304L429.187 196.893C432.708 194.836 436.078 192.565 439.297 190.07C442.521 187.58 445.568 184.888 448.443 182.002C451.312 179.112 453.989 176.049 456.463 172.815C458.937 169.58 461.193 166.195 463.229 162.669C465.265 159.138 467.062 155.497 468.625 151.731C470.187 147.971 471.5 144.122 472.562 140.19C473.625 136.257 474.432 132.273 474.974 128.237C475.521 124.2 475.802 120.143 475.823 116.07ZM301.219 167.096C300.088 167.336 299.005 167.721 297.974 168.242L259.187 190.513L261.38 172.007C261.489 170.94 261.432 169.882 261.213 168.836C260.995 167.783 260.625 166.794 260.099 165.856C259.578 164.924 258.927 164.091 258.146 163.351C257.364 162.617 256.489 162.018 255.526 161.554C254.234 160.929 252.958 160.273 251.703 159.575C250.448 158.877 249.213 158.143 248 157.372C246.792 156.601 245.599 155.799 244.437 154.961C243.271 154.117 242.135 153.247 241.021 152.341C239.906 151.435 238.823 150.492 237.76 149.523C236.703 148.554 235.677 147.549 234.677 146.518C233.677 145.487 232.708 144.429 231.771 143.341C230.838 142.252 229.932 141.138 229.062 139.997C228.187 138.856 227.354 137.69 226.552 136.497C225.75 135.31 224.979 134.096 224.25 132.862C223.521 131.622 222.823 130.367 222.167 129.091C221.51 127.815 220.89 126.518 220.312 125.205C219.729 123.893 219.187 122.565 218.682 121.221C218.182 119.872 217.719 118.513 217.297 117.143C216.875 115.773 216.489 114.388 216.151 112.992C215.807 111.596 215.51 110.195 215.25 108.783C214.989 107.372 214.776 105.95 214.599 104.528C214.422 103.101 214.292 101.674 214.198 100.237C214.109 98.8043 214.057 97.372 214.052 95.9345C214.047 94.497 214.078 93.0647 214.156 91.6324C214.234 90.1949 214.354 88.7678 214.515 87.3408C214.677 85.9137 214.885 84.4918 215.13 83.0803C215.375 81.6637 215.661 80.2574 215.989 78.8616C216.318 77.4605 216.687 76.0751 217.099 74.7001C217.505 73.3199 217.958 71.9605 218.448 70.6116C218.937 69.2574 219.469 67.9241 220.036 66.6064C220.604 65.2887 221.208 63.9866 221.854 62.7053C222.5 61.4241 223.182 60.1585 223.901 58.9189C224.625 57.6741 225.38 56.4553 226.167 55.2574C226.958 54.0595 227.786 52.8824 228.646 51.7366C229.505 50.5855 230.401 49.4605 231.328 48.3668C232.255 47.2678 233.213 46.2001 234.203 45.1585C235.193 44.1168 236.208 43.1064 237.26 42.1272C238.307 41.148 239.385 40.2001 240.489 39.2835C241.594 38.3616 242.724 37.4814 243.88 36.6272C245.036 35.7783 246.219 34.9605 247.422 34.1793C248.63 33.4033 249.854 32.6533 251.104 31.9449C252.354 31.2366 253.62 30.5647 254.911 29.9345C256.198 29.2991 257.505 28.7001 258.828 28.1428C260.151 27.5855 261.489 27.0699 262.844 26.5908C264.198 26.1116 265.562 25.6741 266.943 25.273C268.323 24.8772 269.713 24.5178 271.114 24.2053C272.515 23.8876 273.922 23.6116 275.338 23.3772C276.755 23.1428 278.177 22.9553 279.604 22.8043C281.036 22.6533 282.463 22.5491 283.901 22.4814C285.333 22.4137 286.771 22.3928 288.203 22.4137C289.64 22.4293 291.073 22.4918 292.505 22.596C293.937 22.7001 295.364 22.846 296.792 23.0283C298.213 23.2158 299.63 23.4449 301.042 23.7158C302.453 23.9866 303.854 24.2991 305.245 24.6533C306.635 25.0074 308.015 25.4033 309.385 25.8355C310.75 26.2678 312.109 26.747 313.448 27.2574C314.786 27.773 316.114 28.3251 317.422 28.9189C318.729 29.5126 320.021 30.1428 321.292 30.8095C322.562 31.4762 323.812 32.1793 325.042 32.9241C326.271 33.6637 327.474 34.4397 328.661 35.2522C329.844 36.0699 331.005 36.9137 332.135 37.7939C333.271 38.6741 334.38 39.5908 335.458 40.5335C336.536 41.4814 337.588 42.4605 338.614 43.4658C339.635 44.4762 340.625 45.5126 341.588 46.5751C342.552 47.6428 343.479 48.7366 344.375 49.8564C345.276 50.9814 346.135 52.1272 346.969 53.2991C347.797 54.471 348.594 55.6637 349.349 56.8824C350.109 58.1012 350.833 59.3408 351.521 60.6012C352.208 61.8668 352.854 63.1428 353.469 64.4449C354.078 65.7418 354.651 67.0595 355.182 68.3928C355.719 69.7262 356.213 71.0751 356.667 72.4345C357.12 73.7991 357.531 75.1689 357.906 76.5595C358.281 77.9449 358.614 79.3408 358.906 80.747C359.193 82.1533 359.443 83.5647 359.651 84.9866C359.859 86.4085 360.026 87.8355 360.151 89.2626C360.276 90.6949 360.359 92.1272 360.396 93.5647C360.437 94.997 360.432 96.4345 360.39 97.8668C360.344 99.3043 360.26 100.737 360.13 102.164C360 103.596 359.828 105.023 359.614 106.44C359.406 107.862 359.151 109.273 358.854 110.679C358.557 112.086 358.219 113.476 357.844 114.862C357.463 116.247 357.047 117.622 356.588 118.981C356.13 120.341 355.63 121.69 355.094 123.018C354.552 124.351 353.974 125.664 353.359 126.961C352.745 128.263 352.094 129.539 351.401 130.799C350.713 132.054 349.984 133.294 349.219 134.507C348.458 135.726 347.656 136.919 346.823 138.086C345.989 139.257 345.125 140.398 344.224 141.518C343.323 142.638 342.39 143.726 341.422 144.789C340.458 145.851 339.463 146.888 338.437 147.893C337.411 148.893 336.354 149.867 335.271 150.81C334.187 151.752 333.078 152.664 331.943 153.539C330.807 154.419 329.646 155.257 328.458 156.07C327.271 156.877 326.062 157.648 324.828 158.388C323.599 159.127 322.344 159.825 321.073 160.492C319.797 161.153 318.505 161.778 317.198 162.367C315.885 162.955 314.562 163.502 313.219 164.013C311.875 164.523 310.521 164.992 309.151 165.424C307.781 165.851 306.396 166.242 305.005 166.591C303.609 166.94 302.208 167.247 300.797 167.513L301.219 167.096ZM413.401 182.044C412.437 182.513 411.562 183.112 410.786 183.846C410.005 184.58 409.354 185.414 408.828 186.351C408.307 187.283 407.932 188.278 407.713 189.325C407.495 190.377 407.443 191.435 407.547 192.502L410.161 211.007L371.37 189.257C370.344 188.737 369.26 188.351 368.13 188.112C362.677 187.044 357.417 185.372 352.349 183.096C347.281 180.815 342.542 177.992 338.125 174.622C339.427 173.794 340.708 172.935 341.963 172.039C343.224 171.148 344.458 170.226 345.672 169.273C346.89 168.32 348.078 167.336 349.245 166.325C350.406 165.315 351.547 164.273 352.661 163.211C353.776 162.143 354.864 161.049 355.927 159.924C356.984 158.804 358.015 157.658 359.021 156.487C360.026 155.315 361 154.117 361.948 152.898C362.89 151.679 363.807 150.44 364.687 149.174C365.573 147.908 366.427 146.622 367.245 145.315C368.068 144.007 368.854 142.685 369.609 141.336C370.364 139.992 371.088 138.627 371.776 137.247C372.469 135.867 373.12 134.471 373.739 133.06C374.359 131.643 374.943 130.216 375.495 128.773C376.047 127.336 376.557 125.877 377.036 124.414C377.515 122.945 377.958 121.466 378.359 119.976C378.765 118.487 379.135 116.992 379.469 115.481C379.797 113.976 380.094 112.461 380.349 110.94C380.609 109.419 380.828 107.893 381.01 106.362C381.193 104.83 381.333 103.294 381.443 101.752C381.547 100.216 381.614 98.6741 381.646 97.1272C381.677 95.5855 381.672 94.0439 381.625 92.5022C381.578 90.9605 381.5 89.4189 381.375 87.8824C381.255 86.3408 381.099 84.8095 380.901 83.2783C380.703 81.747 380.469 80.221 380.198 78.7053C379.927 77.1845 379.62 75.6741 379.271 74.1689C378.927 72.6637 378.542 71.1689 378.125 69.6845C377.703 68.2001 377.25 66.7262 376.755 65.2626C376.265 63.7991 375.739 62.3512 375.177 60.9137C374.614 59.4814 374.015 58.0595 373.38 56.648C372.75 55.2418 372.078 53.8512 371.38 52.4762C370.677 51.1012 369.943 49.747 369.172 48.4085C368.406 47.0699 367.604 45.7522 366.771 44.4553C371.698 43.4033 376.682 42.8772 381.724 42.8824C383.776 42.8928 385.823 42.9866 387.864 43.1689C389.911 43.3512 391.943 43.6168 393.963 43.971C395.984 44.3199 397.984 44.7574 399.974 45.2783C401.958 45.7991 403.917 46.4033 405.849 47.0855C407.781 47.773 409.682 48.5387 411.552 49.3824C413.422 50.2262 415.255 51.148 417.047 52.148C418.838 53.148 420.583 54.221 422.286 55.3668C423.989 56.5126 425.64 57.7262 427.239 59.0126C428.838 60.2991 430.38 61.648 431.864 63.0595C433.354 64.4762 434.776 65.9501 436.14 67.4866C437.5 69.0178 438.797 70.6064 440.026 72.2522C441.25 73.8928 442.411 75.5855 443.495 77.3251C444.583 79.0647 445.594 80.8512 446.531 82.6741C447.463 84.5022 448.323 86.3616 449.104 88.2626C449.88 90.1585 450.583 92.0855 451.198 94.0439C451.818 95.997 452.349 97.9762 452.802 99.9814C453.255 101.981 453.62 103.997 453.901 106.028C454.182 108.06 454.38 110.101 454.489 112.153C454.599 114.2 454.62 116.247 454.557 118.299C454.495 120.351 454.349 122.393 454.114 124.435C453.88 126.471 453.557 128.497 453.156 130.507C452.75 132.518 452.26 134.507 451.687 136.481C451.12 138.45 450.463 140.393 449.729 142.31C448.995 144.221 448.177 146.106 447.286 147.95C446.39 149.799 445.422 151.601 444.375 153.367C443.328 155.132 442.213 156.851 441.021 158.523C439.833 160.195 438.573 161.815 437.25 163.377C435.922 164.945 434.531 166.45 433.078 167.898C431.625 169.346 430.114 170.731 428.547 172.054C426.979 173.377 425.354 174.627 423.682 175.815C422.005 176.997 420.281 178.112 418.515 179.153C416.745 180.195 414.937 181.158 413.088 182.044H413.401Z" fill="#8C52FF"/>
<path d="M271.943 95.1641C271.943 96.1901 271.844 97.2109 271.641 98.2214C271.438 99.2318 271.141 100.211 270.75 101.164C270.354 102.117 269.87 103.018 269.297 103.872C268.729 104.732 268.078 105.523 267.349 106.253C266.62 106.982 265.828 107.628 264.974 108.201C264.115 108.773 263.214 109.258 262.261 109.648C261.308 110.044 260.328 110.341 259.318 110.544C258.308 110.742 257.287 110.846 256.261 110.846C255.229 110.846 254.209 110.742 253.198 110.544C252.188 110.341 251.209 110.044 250.255 109.648C249.308 109.258 248.401 108.773 247.547 108.201C246.688 107.628 245.896 106.982 245.172 106.253C244.443 105.523 243.792 104.732 243.219 103.872C242.646 103.018 242.162 102.117 241.771 101.164C241.375 100.211 241.078 99.2318 240.875 98.2214C240.677 97.2109 240.578 96.1901 240.578 95.1641C240.578 94.1328 240.677 93.112 240.875 92.1016C241.078 91.0911 241.375 90.112 241.771 89.1589C242.162 88.2109 242.646 87.3047 243.219 86.4505C243.792 85.5911 244.443 84.7995 245.172 84.0703C245.896 83.3464 246.688 82.6953 247.547 82.1224C248.401 81.5495 249.308 81.0651 250.255 80.6745C251.209 80.2786 252.188 79.9818 253.198 79.7786C254.209 79.5807 255.229 79.4766 256.261 79.4766C257.287 79.4766 258.308 79.5807 259.318 79.7786C260.328 79.9818 261.308 80.2786 262.261 80.6745C263.214 81.0651 264.115 81.5495 264.974 82.1224C265.828 82.6953 266.62 83.3464 267.349 84.0703C268.078 84.7995 268.729 85.5911 269.297 86.4505C269.87 87.3047 270.354 88.2109 270.75 89.1589C271.141 90.112 271.438 91.0911 271.641 92.1016C271.844 93.112 271.943 94.1328 271.943 95.1641Z" fill="#8C52FF"/>
<path d="M303.307 95.1641C303.307 96.1901 303.208 97.2109 303.005 98.2214C302.807 99.2318 302.51 100.211 302.115 101.164C301.719 102.117 301.24 103.018 300.667 103.872C300.094 104.732 299.443 105.523 298.713 106.253C297.984 106.982 297.193 107.628 296.338 108.201C295.479 108.773 294.578 109.258 293.625 109.648C292.677 110.044 291.693 110.341 290.682 110.544C289.677 110.742 288.656 110.846 287.625 110.846C286.594 110.846 285.573 110.742 284.568 110.544C283.557 110.341 282.573 110.044 281.625 109.648C280.672 109.258 279.766 108.773 278.911 108.201C278.057 107.628 277.266 106.982 276.536 106.253C275.807 105.523 275.156 104.732 274.583 103.872C274.01 103.018 273.531 102.117 273.135 101.164C272.74 100.211 272.443 99.2318 272.245 98.2214C272.042 97.2109 271.943 96.1901 271.943 95.1641C271.943 94.1328 272.042 93.112 272.245 92.1016C272.443 91.0911 272.74 90.112 273.135 89.1589C273.531 88.2109 274.01 87.3047 274.583 86.4505C275.156 85.5911 275.807 84.7995 276.536 84.0703C277.266 83.3464 278.057 82.6953 278.911 82.1224C279.766 81.5495 280.672 81.0651 281.625 80.6745C282.573 80.2786 283.557 79.9818 284.568 79.7786C285.573 79.5807 286.594 79.4766 287.625 79.4766C288.656 79.4766 289.677 79.5807 290.682 79.7786C291.693 79.9818 292.677 80.2786 293.625 80.6745C294.578 81.0651 295.479 81.5495 296.338 82.1224C297.193 82.6953 297.984 83.3464 298.713 84.0703C299.443 84.7995 300.094 85.5911 300.667 86.4505C301.24 87.3047 301.719 88.2109 302.115 89.1589C302.51 90.112 302.807 91.0911 303.005 92.1016C303.208 93.112 303.307 94.1328 303.307 95.1641Z" fill="#8C52FF"/>
<path d="M334.672 95.1641C334.672 96.1901 334.573 97.2109 334.375 98.2214C334.172 99.2318 333.875 100.211 333.479 101.164C333.089 102.117 332.604 103.018 332.031 103.872C331.458 104.732 330.807 105.523 330.078 106.253C329.354 106.982 328.563 107.628 327.703 108.201C326.849 108.773 325.943 109.258 324.995 109.648C324.042 110.044 323.063 110.341 322.052 110.544C321.042 110.742 320.021 110.846 318.99 110.846C317.964 110.846 316.943 110.742 315.932 110.544C314.922 110.341 313.943 110.044 312.99 109.648C312.037 109.258 311.135 108.773 310.276 108.201C309.422 107.628 308.63 106.982 307.901 106.253C307.172 105.523 306.521 104.732 305.953 103.872C305.38 103.018 304.896 102.117 304.5 101.164C304.109 100.211 303.813 99.2318 303.609 98.2214C303.406 97.2109 303.307 96.1901 303.307 95.1641C303.307 94.1328 303.406 93.112 303.609 92.1016C303.813 91.0911 304.109 90.112 304.5 89.1589C304.896 88.2109 305.38 87.3047 305.953 86.4505C306.521 85.5911 307.172 84.7995 307.901 84.0703C308.63 83.3464 309.422 82.6953 310.276 82.1224C311.135 81.5495 312.037 81.0651 312.99 80.6745C313.943 80.2786 314.922 79.9818 315.932 79.7786C316.943 79.5807 317.964 79.4766 318.99 79.4766C320.021 79.4766 321.042 79.5807 322.052 79.7786C323.063 79.9818 324.042 80.2786 324.995 80.6745C325.943 81.0651 326.849 81.5495 327.703 82.1224C328.563 82.6953 329.354 83.3464 330.078 84.0703C330.807 84.7995 331.458 85.5911 332.031 86.4505C332.604 87.3047 333.089 88.2109 333.479 89.1589C333.875 90.112 334.172 91.0911 334.375 92.1016C334.573 93.112 334.672 94.1328 334.672 95.1641Z" fill="#8C52FF"/>
</svg>
