<svg width="7" height="50" viewBox="0 0 7 50" fill="none" xmlns="http://www.w3.org/2000/svg">
<mask id="mask0_2482_11847" style="mask-type:luminance" maskUnits="userSpaceOnUse" x="0" y="0" width="7" height="50">
<path d="M0 0.739563H6.50521V49.6823H0V0.739563Z" fill="white"/>
</mask>
<g mask="url(#mask0_2482_11847)">
<mask id="mask1_2482_11847" style="mask-type:luminance" maskUnits="userSpaceOnUse" x="-184" y="0" width="191" height="50">
<path d="M-175.719 0.739563H-1.55203C0.567749 0.739563 2.599 1.58331 4.099 3.08331C5.599 4.58331 6.44275 6.61456 6.44275 8.73956V41.6875C6.44275 43.8073 5.599 45.8385 4.099 47.3385C2.599 48.8385 0.567749 49.6823 -1.55203 49.6823H-175.719C-177.839 49.6823 -179.875 48.8385 -181.375 47.3385C-182.87 45.8385 -183.714 43.8073 -183.714 41.6875V8.73956C-183.714 6.61456 -182.87 4.58331 -181.375 3.08331C-179.875 1.58331 -177.839 0.739563 -175.719 0.739563Z" fill="white"/>
</mask>
<g mask="url(#mask1_2482_11847)">
<path d="M-183.714 0.739563H6.50525V49.6823H-183.714V0.739563Z" fill="#8C52FF"/>
</g>
</g>
</svg>
