<svg width="804" height="803" viewBox="0 0 804 803" fill="none" xmlns="http://www.w3.org/2000/svg">
<path d="M689.422 564.292H583.495V576.203C583.495 580.589 582.87 584.979 582.24 589.365H689.422C694.438 589.365 698.823 592.5 700.704 596.885L777.172 758.599C779.058 762.99 779.058 768 776.547 771.761C775.292 773.641 772.162 777.406 765.891 777.406H38.8077C32.5421 777.406 29.4067 773.016 28.1514 771.761C25.6462 768 25.6462 762.99 27.5264 758.599L116.532 597.51C116.532 597.51 116.532 596.885 117.157 596.885C119.037 592.5 123.427 589.365 128.438 589.365H248.157L231.86 574.948C228.099 571.813 224.969 568.052 222.459 564.292H127.813C113.396 564.292 100.235 572.443 93.964 585.604L5.58895 746.693C5.58895 746.693 5.58895 747.318 4.95874 747.318C-0.681889 759.224 -0.0516784 773.641 7.46915 784.927C14.365 796.208 26.2712 802.474 38.8077 802.474H765.891C779.053 802.474 790.964 796.208 797.86 784.927C804.756 773.641 806.006 759.854 800.365 747.318L723.896 585.604C717 573.068 703.839 564.292 689.422 564.292Z" fill="#8C52FF"/>
<path d="M292.032 412.609C284.511 428.276 243.771 522.922 241.891 526.688C241.891 526.688 241.891 527.313 241.266 527.938C240.011 532.328 239.381 536.089 240.011 540.474C240.636 546.115 243.146 551.755 248.157 556.146L355.969 653.297C362.235 659.568 367.876 662.698 372.891 663.953L358.475 750.453C357.85 754.214 359.1 757.974 360.98 760.479C363.49 762.99 366.626 764.87 370.386 764.87H508.277C512.042 764.87 515.172 762.99 517.683 760.479C520.188 757.974 520.813 754.214 520.188 750.453L501.386 637.63C500.131 631.359 495.115 626.974 488.85 626.974H421.782C421.782 626.344 421.782 626.344 422.407 625.719C423.662 621.958 423.037 617.573 421.782 614.438H520.188C541.501 614.438 558.422 597.51 558.422 576.203V425.146C558.422 403.833 542.751 383.776 521.443 374.375C517.683 381.896 512.667 389.417 507.027 395.682C522.693 400.073 533.98 413.859 533.98 425.771V576.828C533.98 583.724 528.334 589.99 520.813 589.99H407.99V564.292H483.834C497.626 564.292 508.277 553.01 508.277 538.594V475.917C508.277 469.021 502.636 463.38 495.745 463.38C488.85 463.38 483.209 469.021 483.209 475.917V538.594V539.219H407.365C393.574 539.219 382.917 550.505 382.917 563.667V576.203L359.1 554.266V450.214V449.589C359.1 448.964 359.1 448.964 359.1 448.333C359.1 447.708 359.1 447.708 359.1 447.083C359.1 446.453 359.1 446.453 358.475 445.828C358.475 445.203 357.85 445.203 357.85 444.573C357.85 443.948 357.219 443.948 357.219 443.323C357.219 442.693 356.594 442.693 356.594 442.068C356.594 441.443 355.969 441.443 355.969 440.813L355.339 440.188L354.714 439.563C354.089 439.563 354.089 438.932 353.459 438.932C353.459 438.932 352.834 438.932 352.834 438.307C352.209 438.307 352.209 437.682 351.579 437.682C350.954 437.682 350.954 437.682 350.329 437.052C349.699 437.052 349.699 437.052 349.074 437.052C348.449 437.052 347.818 437.052 347.818 437.052H347.193C346.563 437.052 345.938 437.052 345.313 437.052C344.683 437.052 344.683 437.052 344.058 437.052C343.433 437.052 343.433 437.052 342.803 437.682C342.178 437.682 342.178 437.682 341.553 438.307C340.922 438.307 340.922 438.932 340.297 438.932L339.672 439.563C339.042 439.563 339.042 440.188 338.417 440.188L337.792 440.813C337.792 441.443 337.162 441.443 337.162 442.068C337.162 442.693 336.537 442.693 336.537 443.323C336.537 443.323 336.537 443.948 335.912 443.948L302.063 514.151C298.928 522.297 299.558 531.073 304.568 538.594C305.199 539.219 305.824 539.849 306.449 540.474L395.454 621.333C394.829 621.958 394.204 621.958 393.574 622.583L377.277 638.255C376.652 637.63 375.396 637 374.146 635.12L373.516 634.495L265.084 537.969C265.084 537.339 265.084 536.714 265.084 536.714C268.844 528.568 307.704 438.307 314.6 423.891C322.12 408.219 335.282 399.443 347.193 395.682C341.553 389.417 336.537 381.896 332.152 374.375C315.225 381.266 300.808 395.057 292.032 412.609ZM334.032 506V531.073L325.881 523.552L334.032 506ZM493.865 739.797H386.053L400.469 652.047H479.449L493.865 739.797Z" fill="#8C52FF"/>
<path d="M426.797 406.339C471.922 406.339 508.276 369.984 508.276 324.854C508.276 279.729 471.922 243.375 426.797 243.375C381.667 243.375 345.312 279.729 345.312 324.854C345.312 369.984 381.667 406.339 426.797 406.339Z" fill="#8C52FF"/>
<path d="M424.917 722.87C426.797 727.885 431.808 731.021 436.824 731.021C438.079 731.021 439.959 731.021 441.214 730.396C447.48 727.885 450.615 720.365 448.105 714.099L429.928 667.089C427.422 660.818 419.902 657.688 413.631 660.193C407.365 662.698 404.23 670.224 406.74 676.49L424.917 722.87Z" fill="#8C52FF"/>
<mask id="mask0_54_205" style="mask-type:luminance" maskUnits="userSpaceOnUse" x="0" y="0" width="278" height="276">
<path d="M0 0H277.333V275.995H0V0Z" fill="white"/>
</mask>
<g mask="url(#mask0_54_205)">
<path d="M139.094 0.177124C63.255 0.177124 1.19775 62.2292 1.19775 138.073C1.19775 213.912 63.255 275.969 139.094 275.969C214.937 275.969 276.989 213.912 276.989 138.073C276.989 62.2292 214.937 0.177124 139.094 0.177124ZM251.917 138.073C251.917 141.833 251.917 145.594 251.292 149.354H239.38C232.489 149.354 226.849 143.714 226.849 136.818C226.849 129.922 232.489 124.281 239.38 124.281H251.292C251.292 128.667 251.917 133.682 251.917 138.073ZM107.13 104.849C112.14 99.8386 119.667 99.8386 124.677 104.849L126.557 106.729V75.3907C126.557 68.4948 132.198 62.8542 139.094 62.8542C145.989 62.8542 151.63 68.4948 151.63 75.3907V138.073C151.63 144.964 145.989 150.609 139.094 150.609C134.083 150.609 129.693 147.474 127.812 143.714L107.13 123.026C102.114 118.016 102.114 109.865 107.13 104.849ZM126.557 249.641V237.104C126.557 230.208 132.198 224.568 139.094 224.568C145.989 224.568 151.63 230.208 151.63 237.104V249.641C151.63 249.641 151.63 249.641 151.63 250.266C147.245 250.896 143.484 250.896 139.094 250.896C134.708 250.896 130.948 250.896 126.557 249.641ZM139.094 49.0678C132.198 49.0678 126.557 43.4271 126.557 36.5313V25.875C130.948 25.25 134.708 25.25 139.094 25.25C143.484 25.25 147.245 25.25 151.63 25.875V36.5313C151.63 43.4271 145.989 49.0678 139.094 49.0678ZM38.8071 124.281C45.703 124.281 51.3436 129.922 51.3436 136.818C51.3436 143.714 45.703 149.354 38.8071 149.354H26.9009C26.2707 145.594 26.2707 141.833 26.2707 138.073C26.2707 133.682 26.9009 128.667 26.9009 124.281H38.8071Z" fill="#8C52FF"/>
</g>
</svg>
