<svg width="843" height="666" viewBox="0 0 843 666" fill="none" xmlns="http://www.w3.org/2000/svg">
<path d="M119.469 360.472C161.266 356.466 193.771 344.06 213.724 334.331C226.099 328.295 235.208 322.571 240.672 318.831C243.276 317.045 246.276 316.17 249.255 316.17C253.162 316.17 257.037 317.67 259.974 320.586C263.787 324.373 267.563 327.899 271.203 331.076C287.401 345.201 294.412 346.727 296.677 346.727C296.708 346.727 296.745 346.727 296.781 346.727C298.182 346.315 299.625 346.112 301.063 346.112C301.391 346.112 301.719 346.123 302.042 346.144C307.797 326.055 293.401 258.914 260.505 254.841C260.505 254.841 223.417 217.435 175.438 241.149C116.74 270.154 109.557 338.925 115.01 359.607C116.516 359.675 118.021 359.951 119.469 360.472Z" fill="#8C52FF"/>
<mask id="mask0_54_225" style="mask-type:luminance" maskUnits="userSpaceOnUse" x="68" y="492" width="280" height="174">
<path d="M68.9844 492.065H347.651V665.461H68.9844V492.065Z" fill="white"/>
</mask>
<g mask="url(#mask0_54_225)">
<path d="M230.583 556.758C230.583 563.545 225.078 569.05 218.286 569.05H198.271C191.479 569.05 185.974 563.545 185.974 556.758V539.446C185.974 534.498 189.979 530.493 194.922 530.493H221.63C226.573 530.493 230.583 534.498 230.583 539.446V556.758ZM228.984 624.607L213.74 645.065C210.917 648.857 205.641 648.857 202.818 645.065L187.573 624.607C186.344 622.961 185.786 620.831 186.031 618.727L189.427 589.237C189.755 586.425 192.135 584.31 194.963 584.31H221.588C224.422 584.31 226.802 586.425 227.125 589.237L230.526 618.727C230.771 620.831 230.213 622.961 228.984 624.607ZM346.713 651.253C346.109 633.982 343.802 616.81 339.818 599.993C336.213 584.758 333.094 570.341 319.75 560.977L253.734 519.19C247.375 514.732 243.588 507.446 243.588 499.675V494.618C233.557 500.894 222.042 504.274 210.24 504.274C196.937 504.274 183.995 499.982 173.13 492.081V499.675C173.13 507.446 169.338 514.732 162.979 519.19L96.9635 560.977C83.6197 570.341 80.4999 584.763 76.8958 600.003C72.9166 616.81 70.6041 633.982 69.9999 651.248V651.253C69.7239 659.128 76.0364 665.664 83.9218 665.664H332.797C340.677 665.664 346.99 659.128 346.713 651.253Z" fill="#8C52FF"/>
</g>
<path d="M301.063 361.321C299.875 361.68 298.839 361.831 298.089 361.883C297.625 361.92 297.151 361.935 296.672 361.935C290.995 361.935 281.141 359.925 261.208 342.534C256.615 338.529 252.448 334.545 249.26 331.378C243.146 335.565 233.427 341.638 220.391 347.998C199.188 358.341 164.589 371.539 120.172 375.68C119.802 375.716 119.427 375.727 119.057 375.727C117.74 375.727 116.073 375.519 114.333 374.784C113.599 379.899 113.865 385.857 115.323 391.977C119.016 407.446 128.896 418.06 137.401 415.685C137.474 415.664 137.547 415.638 137.62 415.612C145.589 437.935 159.255 459.498 177.839 476.347C196.552 493.315 223.964 493.305 242.662 476.31C261.229 459.43 274.818 437.826 282.708 415.466C282.927 415.545 283.151 415.623 283.38 415.685C291.88 418.06 301.766 407.446 305.458 391.977C308.391 379.685 306.521 368.039 301.365 362.581C301.276 362.159 301.172 361.737 301.063 361.321Z" fill="#8C52FF"/>
<path d="M31.0104 534.185V213.607C31.0104 206.097 35.9583 199.748 42.7708 197.628C44.3385 197.144 46.0104 196.878 47.7448 196.878H504.896C501.073 186.316 499.505 177.138 499.417 169.248H36.6042C16.3854 169.248 0 185.633 0 205.857V541.935C0 562.159 16.3854 578.539 36.6042 578.539H56.7188C59.5833 569.18 63.7552 559.508 71.1823 550.909H47.7448C38.5 550.909 31.0104 543.42 31.0104 534.185ZM643.339 326.128V534.185C643.339 540.539 639.786 546.066 634.578 548.894C632.208 550.18 629.495 550.909 626.604 550.909H345.536C352.958 559.508 357.13 569.18 360.005 578.539H637.74C657.964 578.539 674.349 562.159 674.349 541.935V331.784C664.771 331.649 654.313 329.706 643.339 326.128Z" fill="#8C52FF"/>
<path d="M433.506 286.696C433.506 309.17 415.287 327.388 392.813 327.388C370.339 327.388 352.12 309.17 352.12 286.696C352.12 264.222 370.339 246.003 392.813 246.003C415.287 246.003 433.506 264.222 433.506 286.696Z" fill="#8C52FF"/>
<path d="M601.906 306.237C600.959 306.492 599.964 306.628 598.932 306.628H471.552C465.214 306.628 460.083 301.492 460.083 295.159V277.404C460.083 271.065 465.214 265.93 471.552 265.93H551.792C556.25 270.451 560.948 274.883 565.828 279.19C577.63 289.602 589.797 298.69 601.906 306.237Z" fill="#8C52FF"/>
<path d="M569.708 372.076V499.456C569.708 505.789 564.573 510.925 558.24 510.925H540.479C534.146 510.925 529.016 505.789 529.016 499.456V372.076C529.016 365.743 534.146 360.607 540.479 360.607H558.24C564.573 360.607 569.708 365.743 569.708 372.076Z" fill="#8C52FF"/>
<path d="M503.682 421.904V499.456C503.682 505.789 498.547 510.925 492.219 510.925H474.458C468.125 510.925 462.99 505.789 462.99 499.456V421.904C462.99 415.571 468.125 410.435 474.458 410.435H492.219C498.547 410.435 503.682 415.571 503.682 421.904Z" fill="#8C52FF"/>
<path d="M437.661 461.451V498.94C437.661 505.56 432.297 510.925 425.677 510.925H408.948C402.333 510.925 396.969 505.56 396.969 498.94V461.451C396.969 454.836 402.333 449.472 408.948 449.472H425.677C432.297 449.472 437.661 454.836 437.661 461.451Z" fill="#8C52FF"/>
<path d="M621.807 42.3415C621.099 41.2425 614.479 31.581 599.834 30.4665C580.787 29.029 558.011 42.9092 532.115 71.7269L532.099 71.7165L490.724 97.5081C485.094 101.013 484.438 108.956 489.412 113.341L508.953 130.586C513.953 134.998 521.797 133.305 524.537 127.227L544.584 82.7894C573.266 50.8935 590.37 46.6852 598.084 47.0654C604.844 47.3883 607.776 51.3623 607.901 51.529C607.823 51.4248 607.792 51.3623 607.792 51.3623L621.807 42.3415Z" fill="#8C52FF"/>
<path d="M747.177 242.034L658.636 210.232C650.959 207.477 643.974 203.341 637.86 197.951C631.75 192.56 626.776 186.144 623.084 178.873L580.214 94.4561L530.74 150.539C530.641 150.649 530.552 150.774 530.464 150.883C530.307 151.05 530.151 151.206 530.005 151.373C512.745 170.94 536.162 219.795 582.307 260.503C628.459 301.211 679.854 318.352 697.11 298.789C697.266 298.618 697.401 298.44 697.547 298.263C697.651 298.159 697.755 298.06 697.849 297.956L747.177 242.034Z" fill="#8C52FF"/>
<path d="M738.875 62.0601L572.406 0.403864C567.135 -1.55447 562.208 3.98199 564.75 8.9872L645.302 167.591C649.833 176.529 657.62 183.393 667.057 186.784L834.469 246.914C839.76 248.81 844.63 243.232 842.036 238.248L760.083 80.7737C755.583 72.1174 748.021 65.4507 738.875 62.0601Z" fill="#8C52FF"/>
</svg>
