<svg xmlns="http://www.w3.org/2000/svg" xmlns:xlink="http://www.w3.org/1999/xlink" width="500" zoomAndPan="magnify" viewBox="0 0 375 374.999991" height="500" preserveAspectRatio="xMidYMid meet" version="1.0"><defs><clipPath id="a3556c34a9"><path d="M 15 0 L 360 0 C 363.976562 0 367.792969 1.582031 370.605469 4.394531 C 373.417969 7.207031 375 11.023438 375 15 L 375 360 C 375 363.976562 373.417969 367.792969 370.605469 370.605469 C 367.792969 373.417969 363.976562 375 360 375 L 15 375 C 11.023438 375 7.207031 373.417969 4.394531 370.605469 C 1.582031 367.792969 0 363.976562 0 360 L 0 15 C 0 11.023438 1.582031 7.207031 4.394531 4.394531 C 7.207031 1.582031 11.023438 0 15 0 Z M 15 0 " clip-rule="nonzero"/></clipPath><clipPath id="946fb688c9"><path d="M 37.5 37.5 L 338 37.5 L 338 337.5 L 37.5 337.5 Z M 37.5 37.5 " clip-rule="nonzero"/></clipPath><clipPath id="5c6c67aad5"><path d="M 37.5 144 L 338 144 L 338 337.5 L 37.5 337.5 Z M 37.5 144 " clip-rule="nonzero"/></clipPath><clipPath id="08339c2760"><path d="M 37.5 39 L 338 39 L 338 336 L 37.5 336 Z M 37.5 39 " clip-rule="nonzero"/></clipPath><clipPath id="4db1d0c36d"><path d="M 37.5 37.5 L 338.25 37.5 L 338.25 337.5 L 37.5 337.5 Z M 37.5 37.5 " clip-rule="nonzero"/></clipPath><clipPath id="58002e64ee"><path d="M 37.5 146 L 338 146 L 338 336 L 37.5 336 Z M 37.5 146 " clip-rule="nonzero"/></clipPath><clipPath id="8fb0a26012"><path d="M 37.5 144 L 338.25 144 L 338.25 337.5 L 37.5 337.5 Z M 37.5 144 " clip-rule="nonzero"/></clipPath></defs><g clip-path="url(#a3556c34a9)"><rect x="-37.5" width="450" fill="#ffffff" y="-37.499999" height="449.999989" fill-opacity="1"/></g><g clip-path="url(#946fb688c9)"><path fill="#8c52ff" d="M 37.5 37.5 L 37.5 124 L 124.089844 124 L 124.089844 37.5 Z M 144.207031 37.5 L 144.207031 124 L 230.792969 124 L 230.792969 37.5 Z M 250.910156 37.5 L 250.910156 124 L 337.5 124 L 337.5 37.5 Z M 37.5 144.117188 L 37.5 230.621094 L 124.089844 230.621094 L 124.089844 144.117188 Z M 250.910156 144.117188 L 250.910156 230.621094 L 337.5 230.621094 L 337.5 144.117188 Z M 144.207031 250.734375 L 144.207031 337.238281 L 230.792969 337.238281 L 230.792969 250.734375 Z M 144.207031 250.734375 " fill-opacity="1" fill-rule="nonzero"/></g><g clip-path="url(#5c6c67aad5)"><path fill="#000000" d="M 144.207031 144.117188 L 144.207031 230.621094 L 230.792969 230.621094 L 230.792969 144.117188 Z M 37.5 250.734375 L 37.5 337.238281 L 124.089844 337.238281 L 124.089844 250.734375 Z M 250.910156 250.734375 L 250.910156 337.238281 L 337.5 337.238281 L 337.5 250.734375 Z M 250.910156 250.734375 " fill-opacity="1" fill-rule="nonzero"/></g><g clip-path="url(#08339c2760)"><path fill="#000000" d="M 39.511719 41.523438 L 39.511719 119.976562 M 122.078125 41.523438 L 122.078125 119.976562 M 37.5 39.511719 L 124.089844 39.511719 M 37.5 121.988281 L 124.089844 121.988281 M 146.21875 41.523438 L 146.21875 119.976562 M 228.78125 41.523438 L 228.78125 119.976562 M 144.207031 39.511719 L 230.792969 39.511719 M 144.207031 121.988281 L 230.792969 121.988281 M 252.921875 41.523438 L 252.921875 119.976562 M 335.488281 41.523438 L 335.488281 119.976562 M 250.910156 39.511719 L 337.5 39.511719 M 250.910156 121.988281 L 337.5 121.988281 M 39.511719 148.140625 L 39.511719 226.597656 M 122.078125 148.140625 L 122.078125 226.597656 M 37.5 146.128906 L 124.089844 146.128906 M 37.5 228.609375 L 124.089844 228.609375 M 252.921875 148.140625 L 252.921875 226.597656 M 335.488281 148.140625 L 335.488281 226.597656 M 250.910156 146.128906 L 337.5 146.128906 M 250.910156 228.609375 L 337.5 228.609375 M 146.21875 254.757812 L 146.21875 333.214844 M 228.78125 254.757812 L 228.78125 333.214844 M 144.207031 252.746094 L 230.792969 252.746094 M 144.207031 335.226562 L 230.792969 335.226562 " fill-opacity="1" fill-rule="nonzero"/></g><g clip-path="url(#4db1d0c36d)"><path stroke-linecap="butt" transform="matrix(0.75, 0, 0, 0.75, 37.500002, 37.499998)" fill="none" stroke-linejoin="miter" d="M 2.682289 5.364587 L 2.682289 109.968761 M 112.770838 5.364587 L 112.770838 109.968761 M -0.00000271667 2.682295 L 115.45313 2.682295 M -0.00000271667 112.651052 L 115.45313 112.651052 M 144.95834 5.364587 L 144.95834 109.968761 M 255.041681 5.364587 L 255.041681 109.968761 M 142.276048 2.682295 L 257.723973 2.682295 M 142.276048 112.651052 L 257.723973 112.651052 M 287.229183 5.364587 L 287.229183 109.968761 M 397.317732 5.364587 L 397.317732 109.968761 M 284.546891 2.682295 L 400.000024 2.682295 M 284.546891 112.651052 L 400.000024 112.651052 M 2.682289 147.520846 L 2.682289 252.130228 M 112.770838 147.520846 L 112.770838 252.130228 M -0.00000271667 144.838554 L 115.45313 144.838554 M -0.00000271667 254.81252 L 115.45313 254.81252 M 287.229183 147.520846 L 287.229183 252.130228 M 397.317732 147.520846 L 397.317732 252.130228 M 284.546891 144.838554 L 400.000024 144.838554 M 284.546891 254.81252 L 400.000024 254.81252 M 144.95834 289.677106 L 144.95834 394.286488 M 255.041681 289.677106 L 255.041681 394.286488 M 142.276048 286.994814 L 257.723973 286.994814 M 142.276048 396.968779 L 257.723973 396.968779 " stroke="#8c52ff" stroke-width="5.364431" stroke-opacity="1" stroke-miterlimit="4"/></g><g clip-path="url(#58002e64ee)"><path fill="#000000" d="M 146.21875 148.140625 L 146.21875 226.597656 M 228.78125 148.140625 L 228.78125 226.597656 M 144.207031 146.128906 L 230.792969 146.128906 M 144.207031 228.609375 L 230.792969 228.609375 M 39.511719 254.757812 L 39.511719 333.214844 M 122.078125 254.757812 L 122.078125 333.214844 M 37.5 252.746094 L 124.089844 252.746094 M 37.5 335.226562 L 124.089844 335.226562 M 252.921875 254.757812 L 252.921875 333.214844 M 335.488281 254.757812 L 335.488281 333.214844 M 250.910156 252.746094 L 337.5 252.746094 M 250.910156 335.226562 L 337.5 335.226562 " fill-opacity="1" fill-rule="nonzero"/></g><g clip-path="url(#8fb0a26012)"><path stroke-linecap="butt" transform="matrix(0.75, 0, 0, 0.75, 37.500002, 37.499998)" fill="none" stroke-linejoin="miter" d="M 144.95834 147.520846 L 144.95834 252.130228 M 255.041681 147.520846 L 255.041681 252.130228 M 142.276048 144.838554 L 257.723973 144.838554 M 142.276048 254.81252 L 257.723973 254.81252 M 2.682289 289.677106 L 2.682289 394.286488 M 112.770838 289.677106 L 112.770838 394.286488 M -0.00000271667 286.994814 L 115.45313 286.994814 M -0.00000271667 396.968779 L 115.45313 396.968779 M 287.229183 289.677106 L 287.229183 394.286488 M 397.317732 289.677106 L 397.317732 394.286488 M 284.546891 286.994814 L 400.000024 286.994814 M 284.546891 396.968779 L 400.000024 396.968779 " stroke="#000000" stroke-width="5.364431" stroke-opacity="1" stroke-miterlimit="4"/></g></svg>