<svg xmlns="http://www.w3.org/2000/svg" xmlns:xlink="http://www.w3.org/1999/xlink" width="500" zoomAndPan="magnify" viewBox="0 0 375 374.999991" height="500" preserveAspectRatio="xMidYMid meet" version="1.0"><defs><clipPath id="98cfb3bdfa"><path d="M 83 247 L 291 247 L 291 312.269531 L 83 312.269531 Z M 83 247 " clip-rule="nonzero"/></clipPath><clipPath id="b7662ca14d"><path d="M 35.085938 137 L 102 137 L 102 224 L 35.085938 224 Z M 35.085938 137 " clip-rule="nonzero"/></clipPath><clipPath id="6cb03426eb"><path d="M 273 156 L 339.585938 156 L 339.585938 243 L 273 243 Z M 273 156 " clip-rule="nonzero"/></clipPath></defs><path fill="#ffffff" d="M 181.542969 63.710938 C 140.359375 64.902344 102.511719 86.324219 80.375 121.082031 C 78.945312 123.222656 79.660156 126.316406 81.800781 127.746094 C 82.515625 128.222656 83.46875 128.460938 84.417969 128.460938 C 86.085938 128.460938 87.515625 127.746094 88.464844 126.316406 C 108.699219 94.179688 143.695312 74.421875 181.78125 73.234375 C 219.867188 72.28125 255.8125 90.132812 277.953125 121.082031 C 279.378906 123.222656 282.476562 123.699219 284.617188 122.269531 C 286.757812 120.84375 287.234375 117.746094 285.808594 115.605469 C 261.527344 82.039062 222.488281 62.519531 181.542969 63.710938 Z M 181.542969 63.710938 " fill-opacity="1" fill-rule="nonzero"/><path fill="#ffffff" d="M 294.617188 145.597656 C 295.089844 145.597656 295.566406 145.597656 295.804688 145.359375 C 295.804688 145.359375 296.042969 145.359375 296.042969 145.359375 C 296.519531 145.121094 296.757812 145.121094 297.234375 144.886719 C 297.234375 144.886719 297.472656 144.886719 297.472656 144.648438 C 297.710938 144.410156 298.1875 144.171875 298.425781 143.695312 C 298.425781 143.695312 298.425781 143.695312 298.425781 143.457031 C 298.660156 142.980469 298.898438 142.742188 299.136719 142.265625 C 299.136719 142.265625 299.136719 142.027344 299.136719 142.027344 C 299.136719 141.789062 299.136719 141.550781 299.375 141.550781 L 305.566406 105.132812 C 306.042969 102.511719 304.375 100.132812 301.757812 99.65625 C 299.136719 99.179688 296.757812 100.847656 296.28125 103.464844 L 291.042969 134.171875 L 258.671875 122.746094 C 256.289062 121.792969 253.433594 123.222656 252.480469 125.601562 C 251.527344 127.984375 252.957031 130.839844 255.335938 131.792969 L 292.949219 145.121094 C 293.664062 145.597656 294.140625 145.597656 294.617188 145.597656 Z M 294.617188 145.597656 " fill-opacity="1" fill-rule="nonzero"/><g clip-path="url(#98cfb3bdfa)"><path fill="#ffffff" d="M 185.351562 312.46875 C 186.542969 312.46875 187.730469 312.46875 188.683594 312.46875 C 229.867188 311.28125 267.714844 289.855469 289.855469 255.101562 C 291.28125 252.957031 290.570312 249.863281 288.425781 248.433594 C 286.285156 247.007812 283.1875 247.722656 281.761719 249.863281 C 261.289062 282 226.535156 301.757812 188.445312 302.949219 C 150.359375 303.898438 114.414062 286.046875 92.277344 255.101562 C 90.847656 252.957031 87.753906 252.480469 85.609375 253.910156 C 83.46875 255.339844 82.992188 258.433594 84.417969 260.574219 C 107.988281 293.425781 145.359375 312.46875 185.351562 312.46875 Z M 185.351562 312.46875 " fill-opacity="1" fill-rule="nonzero"/></g><path fill="#ffffff" d="M 113.222656 253.433594 C 115.128906 253.433594 117.03125 252.242188 117.746094 250.339844 C 118.699219 247.960938 117.269531 245.101562 114.890625 244.148438 L 77.277344 230.820312 C 77.039062 230.820312 77.039062 230.820312 76.800781 230.820312 C 76.800781 230.820312 76.5625 230.820312 76.5625 230.820312 C 76.328125 230.820312 76.089844 230.820312 75.851562 230.820312 C 75.613281 230.820312 75.613281 230.820312 75.375 230.820312 C 75.136719 230.820312 75.136719 230.820312 74.898438 230.820312 C 74.660156 230.820312 74.660156 230.820312 74.421875 230.820312 C 74.421875 230.820312 74.183594 230.820312 74.183594 230.820312 C 73.945312 230.820312 73.707031 230.820312 73.707031 231.058594 C 73.707031 231.058594 73.46875 231.058594 73.46875 231.296875 C 73.230469 231.296875 73.230469 231.535156 72.992188 231.535156 C 72.992188 231.535156 72.753906 231.773438 72.753906 231.773438 C 72.515625 231.773438 72.515625 232.011719 72.28125 232.011719 C 72.28125 232.011719 72.042969 232.246094 72.042969 232.246094 C 72.042969 232.484375 71.804688 232.484375 71.804688 232.722656 C 71.804688 232.722656 71.566406 232.960938 71.566406 233.199219 C 71.566406 233.4375 71.328125 233.4375 71.328125 233.675781 C 71.328125 233.914062 71.328125 233.914062 71.328125 234.152344 C 71.328125 234.390625 71.328125 234.390625 71.328125 234.628906 L 65.136719 271.050781 C 64.660156 273.667969 66.328125 276.046875 68.945312 276.523438 C 69.183594 276.523438 69.421875 276.523438 69.660156 276.523438 C 72.042969 276.523438 73.945312 274.859375 74.421875 272.476562 L 79.660156 241.769531 L 112.035156 253.195312 C 112.035156 253.433594 112.746094 253.433594 113.222656 253.433594 Z M 113.222656 253.433594 " fill-opacity="1" fill-rule="nonzero"/><g clip-path="url(#b7662ca14d)"><path fill="#ffffff" d="M 44.667969 223.203125 L 92.277344 223.203125 C 97.511719 223.203125 101.796875 218.917969 101.796875 213.679688 L 101.796875 147.027344 C 101.796875 141.789062 97.511719 137.503906 92.277344 137.503906 L 44.667969 137.503906 C 39.429688 137.503906 35.144531 141.789062 35.144531 147.027344 L 35.144531 213.679688 C 35.144531 218.917969 39.429688 223.203125 44.667969 223.203125 Z M 44.667969 147.027344 L 92.277344 147.027344 L 92.277344 213.679688 L 44.667969 213.679688 Z M 44.667969 147.027344 " fill-opacity="1" fill-rule="nonzero"/></g><g clip-path="url(#6cb03426eb)"><path fill="#ffffff" d="M 330.324219 156.550781 L 282.714844 156.550781 C 277.476562 156.550781 273.191406 160.832031 273.191406 166.070312 L 273.191406 232.722656 C 273.191406 237.960938 277.476562 242.246094 282.714844 242.246094 L 330.324219 242.246094 C 335.558594 242.246094 339.84375 237.960938 339.84375 232.722656 L 339.84375 166.070312 C 339.84375 160.832031 335.558594 156.550781 330.324219 156.550781 Z M 282.714844 232.722656 L 282.714844 166.070312 L 330.324219 166.070312 L 330.324219 232.722656 Z M 282.714844 232.722656 " fill-opacity="1" fill-rule="nonzero"/></g></svg>