<svg xmlns="http://www.w3.org/2000/svg" xmlns:xlink="http://www.w3.org/1999/xlink" width="500" zoomAndPan="magnify" viewBox="0 0 375 374.999991" height="500" preserveAspectRatio="xMidYMid meet" version="1.0"><defs><clipPath id="664ee58bb8"><path d="M 32.855469 86.59375 L 341.855469 86.59375 L 341.855469 288.34375 L 32.855469 288.34375 Z M 32.855469 86.59375 " clip-rule="nonzero"/></clipPath></defs><g clip-path="url(#664ee58bb8)"><path fill="#ffffff" d="M 300.578125 86.59375 L 74.410156 86.59375 C 51.570312 86.59375 32.96875 105.179688 32.96875 128.039062 L 32.96875 246.957031 C 32.96875 269.796875 51.550781 288.402344 74.410156 288.402344 L 300.578125 288.402344 C 323.417969 288.402344 342.023438 269.820312 342.023438 246.957031 L 342.023438 128.039062 C 342.023438 105.199219 323.441406 86.59375 300.578125 86.59375 Z M 330.027344 246.957031 C 330.027344 263.191406 316.8125 276.40625 300.578125 276.40625 L 74.410156 276.40625 C 58.179688 276.40625 44.964844 263.191406 44.964844 246.957031 L 44.964844 128.039062 C 44.964844 111.804688 58.179688 98.589844 74.410156 98.589844 L 300.578125 98.589844 C 316.8125 98.589844 330.027344 111.804688 330.027344 128.039062 Z M 330.027344 246.957031 " fill-opacity="1" fill-rule="nonzero"/></g><path fill="#ffffff" d="M 135.210938 190.234375 C 130.648438 192.605469 125.460938 193.964844 119.96875 193.964844 C 114.476562 193.964844 109.289062 192.625 104.730469 190.234375 C 88.109375 196.414062 76.253906 212.425781 76.253906 231.210938 L 76.253906 237.699219 C 76.253906 242.785156 80.390625 246.917969 85.476562 246.917969 L 154.460938 246.917969 C 159.550781 246.917969 163.683594 242.785156 163.683594 237.699219 L 163.683594 231.210938 C 163.683594 212.425781 151.828125 196.414062 135.210938 190.234375 Z M 135.210938 190.234375 " fill-opacity="1" fill-rule="nonzero"/><path fill="#ffffff" d="M 146.597656 160.867188 C 146.597656 161.742188 146.554688 162.609375 146.46875 163.480469 C 146.386719 164.347656 146.257812 165.207031 146.085938 166.0625 C 145.917969 166.917969 145.707031 167.765625 145.453125 168.597656 C 145.199219 169.433594 144.90625 170.253906 144.570312 171.058594 C 144.238281 171.867188 143.867188 172.652344 143.453125 173.421875 C 143.042969 174.191406 142.59375 174.9375 142.109375 175.664062 C 141.625 176.390625 141.109375 177.089844 140.554688 177.761719 C 140 178.4375 139.414062 179.082031 138.800781 179.699219 C 138.183594 180.316406 137.539062 180.902344 136.863281 181.453125 C 136.1875 182.007812 135.488281 182.527344 134.765625 183.011719 C 134.039062 183.496094 133.292969 183.941406 132.523438 184.355469 C 131.753906 184.765625 130.964844 185.136719 130.160156 185.472656 C 129.355469 185.804688 128.535156 186.097656 127.699219 186.351562 C 126.863281 186.605469 126.019531 186.816406 125.164062 186.988281 C 124.308594 187.15625 123.449219 187.285156 122.578125 187.371094 C 121.710938 187.457031 120.839844 187.5 119.96875 187.5 C 119.097656 187.5 118.226562 187.457031 117.359375 187.371094 C 116.492188 187.285156 115.628906 187.15625 114.773438 186.988281 C 113.917969 186.816406 113.074219 186.605469 112.238281 186.351562 C 111.40625 186.097656 110.585938 185.804688 109.777344 185.472656 C 108.972656 185.136719 108.183594 184.765625 107.417969 184.355469 C 106.648438 183.941406 105.898438 183.496094 105.175781 183.011719 C 104.449219 182.527344 103.75 182.007812 103.074219 181.453125 C 102.402344 180.902344 101.757812 180.316406 101.140625 179.699219 C 100.523438 179.082031 99.9375 178.4375 99.382812 177.761719 C 98.832031 177.089844 98.3125 176.390625 97.828125 175.664062 C 97.34375 174.9375 96.894531 174.191406 96.484375 173.421875 C 96.074219 172.652344 95.699219 171.867188 95.367188 171.058594 C 95.03125 170.253906 94.738281 169.433594 94.488281 168.597656 C 94.234375 167.765625 94.023438 166.917969 93.851562 166.0625 C 93.679688 165.207031 93.554688 164.347656 93.46875 163.480469 C 93.382812 162.609375 93.339844 161.742188 93.339844 160.867188 C 93.339844 159.996094 93.382812 159.125 93.46875 158.257812 C 93.554688 157.390625 93.679688 156.53125 93.851562 155.675781 C 94.023438 154.820312 94.234375 153.972656 94.488281 153.140625 C 94.738281 152.304688 95.03125 151.484375 95.367188 150.679688 C 95.699219 149.871094 96.074219 149.085938 96.484375 148.316406 C 96.894531 147.546875 97.34375 146.800781 97.828125 146.074219 C 98.3125 145.347656 98.832031 144.648438 99.382812 143.976562 C 99.9375 143.300781 100.523438 142.65625 101.140625 142.039062 C 101.757812 141.421875 102.402344 140.835938 103.074219 140.285156 C 103.75 139.730469 104.449219 139.210938 105.175781 138.726562 C 105.898438 138.242188 106.648438 137.796875 107.417969 137.382812 C 108.183594 136.972656 108.972656 136.601562 109.777344 136.265625 C 110.585938 135.933594 111.40625 135.640625 112.238281 135.386719 C 113.074219 135.132812 113.917969 134.921875 114.773438 134.75 C 115.628906 134.582031 116.492188 134.453125 117.359375 134.367188 C 118.226562 134.28125 119.097656 134.238281 119.96875 134.238281 C 120.839844 134.238281 121.710938 134.28125 122.578125 134.367188 C 123.449219 134.453125 124.308594 134.582031 125.164062 134.75 C 126.019531 134.921875 126.863281 135.132812 127.699219 135.386719 C 128.535156 135.640625 129.355469 135.933594 130.160156 136.265625 C 130.964844 136.601562 131.753906 136.972656 132.523438 137.382812 C 133.292969 137.796875 134.039062 138.242188 134.765625 138.726562 C 135.488281 139.210938 136.1875 139.730469 136.863281 140.285156 C 137.539062 140.835938 138.183594 141.421875 138.800781 142.039062 C 139.414062 142.65625 140 143.300781 140.554688 143.976562 C 141.109375 144.648438 141.625 145.347656 142.109375 146.074219 C 142.59375 146.800781 143.042969 147.546875 143.453125 148.316406 C 143.867188 149.085938 144.238281 149.871094 144.570312 150.679688 C 144.90625 151.484375 145.199219 152.304688 145.453125 153.140625 C 145.707031 153.972656 145.917969 154.820312 146.085938 155.675781 C 146.257812 156.53125 146.386719 157.390625 146.46875 158.257812 C 146.554688 159.125 146.597656 159.996094 146.597656 160.867188 Z M 146.597656 160.867188 " fill-opacity="1" fill-rule="nonzero"/><path fill="#ffffff" d="M 293.546875 147.980469 L 200.667969 147.980469 C 197.445312 147.980469 194.832031 150.59375 194.832031 153.816406 C 194.832031 157.039062 197.445312 159.652344 200.667969 159.652344 L 293.546875 159.652344 C 296.769531 159.652344 299.382812 157.039062 299.382812 153.816406 C 299.382812 150.59375 296.769531 147.980469 293.546875 147.980469 Z M 293.546875 147.980469 " fill-opacity="1" fill-rule="nonzero"/><path fill="#ffffff" d="M 293.546875 180.648438 L 200.667969 180.648438 C 197.445312 180.648438 194.832031 183.261719 194.832031 186.484375 C 194.832031 189.707031 197.445312 192.320312 200.667969 192.320312 L 293.546875 192.320312 C 296.769531 192.320312 299.382812 189.707031 299.382812 186.484375 C 299.382812 183.261719 296.769531 180.648438 293.546875 180.648438 Z M 293.546875 180.648438 " fill-opacity="1" fill-rule="nonzero"/><path fill="#ffffff" d="M 293.546875 213.335938 L 200.667969 213.335938 C 197.445312 213.335938 194.832031 215.953125 194.832031 219.175781 C 194.832031 222.398438 197.445312 225.011719 200.667969 225.011719 L 293.546875 225.011719 C 296.769531 225.011719 299.382812 222.398438 299.382812 219.175781 C 299.382812 215.953125 296.769531 213.335938 293.546875 213.335938 Z M 293.546875 213.335938 " fill-opacity="1" fill-rule="nonzero"/></svg>