<svg xmlns="http://www.w3.org/2000/svg" xmlns:xlink="http://www.w3.org/1999/xlink" width="500" zoomAndPan="magnify" viewBox="0 0 375 374.999991" height="500" preserveAspectRatio="xMidYMid meet" version="1.0"><defs><clipPath id="db333b7298"><path d="M 58.21875 98 L 208 98 L 208 316.96875 L 58.21875 316.96875 Z M 58.21875 98 " clip-rule="nonzero"/></clipPath><clipPath id="0dc0197ed2"><path d="M 215 115 L 316.96875 115 L 316.96875 316.96875 L 215 316.96875 Z M 215 115 " clip-rule="nonzero"/></clipPath><clipPath id="6590df2713"><path d="M 233 58.21875 L 299 58.21875 L 299 123 L 233 123 Z M 233 58.21875 " clip-rule="nonzero"/></clipPath></defs><g clip-path="url(#db333b7298)"><path fill="#ffffff" d="M 191.535156 98.617188 L 74.378906 98.617188 C 65.492188 98.617188 58.21875 105.890625 58.21875 114.777344 L 58.21875 300.609375 C 58.21875 309.496094 65.492188 316.769531 74.378906 316.769531 L 191.535156 316.769531 C 200.421875 316.769531 207.695312 309.496094 207.695312 300.609375 L 207.695312 114.777344 C 207.695312 105.890625 200.421875 98.617188 191.535156 98.617188 Z M 199.613281 300.609375 C 199.613281 305.054688 195.976562 308.691406 191.535156 308.691406 L 74.378906 308.691406 C 69.933594 308.691406 66.296875 305.054688 66.296875 300.609375 L 66.296875 114.777344 C 66.296875 110.332031 69.933594 106.695312 74.378906 106.695312 L 191.535156 106.695312 C 195.976562 106.695312 199.613281 110.332031 199.613281 114.777344 Z M 199.613281 300.609375 " fill-opacity="1" fill-rule="nonzero"/></g><path fill="#ffffff" d="M 183.453125 122.855469 L 122.855469 122.855469 C 120.632812 122.855469 118.816406 124.675781 118.816406 126.894531 C 118.816406 129.117188 120.632812 130.9375 122.855469 130.9375 L 183.453125 130.9375 C 185.675781 130.9375 187.496094 129.117188 187.496094 126.894531 C 187.496094 124.675781 185.675781 122.855469 183.453125 122.855469 Z M 183.453125 122.855469 " fill-opacity="1" fill-rule="nonzero"/><path fill="#ffffff" d="M 183.453125 139.015625 L 122.855469 139.015625 C 120.632812 139.015625 118.816406 140.832031 118.816406 143.054688 C 118.816406 145.277344 120.632812 147.09375 122.855469 147.09375 L 183.453125 147.09375 C 185.675781 147.09375 187.496094 145.277344 187.496094 143.054688 C 187.496094 140.832031 185.675781 139.015625 183.453125 139.015625 Z M 183.453125 139.015625 " fill-opacity="1" fill-rule="nonzero"/><path fill="#ffffff" d="M 183.453125 155.175781 L 122.855469 155.175781 C 120.632812 155.175781 118.816406 156.992188 118.816406 159.214844 C 118.816406 161.4375 120.632812 163.253906 122.855469 163.253906 L 183.453125 163.253906 C 185.675781 163.253906 187.496094 161.4375 187.496094 159.214844 C 187.496094 156.992188 185.675781 155.175781 183.453125 155.175781 Z M 183.453125 155.175781 " fill-opacity="1" fill-rule="nonzero"/><path fill="#ffffff" d="M 80.035156 148.308594 C 80.035156 148.308594 88.113281 154.367188 88.113281 154.367188 C 89.933594 155.578125 92.355469 155.378906 93.769531 153.558594 L 105.890625 137.398438 C 107.304688 135.582031 106.898438 133.15625 105.082031 131.746094 C 103.261719 130.332031 100.839844 130.734375 99.425781 132.550781 L 89.730469 145.480469 L 84.882812 141.84375 C 83.0625 140.429688 80.640625 140.832031 79.226562 142.652344 C 77.8125 144.46875 78.214844 146.894531 80.035156 148.308594 Z M 80.035156 148.308594 " fill-opacity="1" fill-rule="nonzero"/><path fill="#ffffff" d="M 183.453125 187.496094 L 122.855469 187.496094 C 120.632812 187.496094 118.816406 189.3125 118.816406 191.535156 C 118.816406 193.757812 120.632812 195.574219 122.855469 195.574219 L 183.453125 195.574219 C 185.675781 195.574219 187.496094 193.757812 187.496094 191.535156 C 187.496094 189.3125 185.675781 187.496094 183.453125 187.496094 Z M 183.453125 187.496094 " fill-opacity="1" fill-rule="nonzero"/><path fill="#ffffff" d="M 183.453125 203.652344 L 122.855469 203.652344 C 120.632812 203.652344 118.816406 205.472656 118.816406 207.695312 C 118.816406 209.914062 120.632812 211.734375 122.855469 211.734375 L 183.453125 211.734375 C 185.675781 211.734375 187.496094 209.914062 187.496094 207.695312 C 187.496094 205.472656 185.675781 203.652344 183.453125 203.652344 Z M 183.453125 203.652344 " fill-opacity="1" fill-rule="nonzero"/><path fill="#ffffff" d="M 183.453125 219.8125 L 122.855469 219.8125 C 120.632812 219.8125 118.816406 221.632812 118.816406 223.851562 C 118.816406 226.074219 120.632812 227.894531 122.855469 227.894531 L 183.453125 227.894531 C 185.675781 227.894531 187.496094 226.074219 187.496094 223.851562 C 187.496094 221.632812 185.675781 219.8125 183.453125 219.8125 Z M 183.453125 219.8125 " fill-opacity="1" fill-rule="nonzero"/><path fill="#ffffff" d="M 80.035156 212.945312 C 80.035156 212.945312 88.113281 219.003906 88.113281 219.003906 C 89.730469 220.21875 92.558594 220.015625 93.769531 218.195312 L 105.890625 202.039062 C 107.304688 200.21875 106.898438 197.796875 105.082031 196.382812 C 103.261719 194.96875 100.839844 195.371094 99.425781 197.191406 L 89.730469 210.117188 L 84.882812 206.480469 C 83.0625 205.066406 80.640625 205.472656 79.226562 207.289062 C 77.8125 209.109375 78.214844 211.53125 80.035156 212.945312 Z M 80.035156 212.945312 " fill-opacity="1" fill-rule="nonzero"/><path fill="#ffffff" d="M 183.453125 252.132812 L 122.855469 252.132812 C 120.632812 252.132812 118.816406 253.949219 118.816406 256.171875 C 118.816406 258.394531 120.632812 260.210938 122.855469 260.210938 L 183.453125 260.210938 C 185.675781 260.210938 187.496094 258.394531 187.496094 256.171875 C 187.496094 253.949219 185.675781 252.132812 183.453125 252.132812 Z M 183.453125 252.132812 " fill-opacity="1" fill-rule="nonzero"/><path fill="#ffffff" d="M 169.316406 268.292969 L 122.855469 268.292969 C 120.632812 268.292969 118.816406 270.109375 118.816406 272.332031 C 118.816406 274.554688 120.632812 276.371094 122.855469 276.371094 L 169.316406 276.371094 C 171.535156 276.371094 173.355469 274.554688 173.355469 272.332031 C 173.355469 270.109375 171.535156 268.292969 169.316406 268.292969 Z M 169.316406 268.292969 " fill-opacity="1" fill-rule="nonzero"/><path fill="#ffffff" d="M 163.253906 284.449219 L 122.855469 284.449219 C 120.632812 284.449219 118.816406 286.269531 118.816406 288.492188 C 118.816406 290.710938 120.632812 292.53125 122.855469 292.53125 L 163.253906 292.53125 C 165.476562 292.53125 167.296875 290.710938 167.296875 288.492188 C 167.296875 286.269531 165.476562 284.449219 163.253906 284.449219 Z M 163.253906 284.449219 " fill-opacity="1" fill-rule="nonzero"/><path fill="#ffffff" d="M 92.558594 258.191406 C 84.679688 258.191406 78.417969 264.453125 78.417969 272.332031 C 78.417969 280.207031 84.679688 286.46875 92.558594 286.46875 C 100.433594 286.46875 106.695312 280.207031 106.695312 272.332031 C 106.695312 264.453125 100.433594 258.191406 92.558594 258.191406 Z M 92.558594 278.390625 C 89.125 278.390625 86.496094 275.765625 86.496094 272.332031 C 86.496094 268.898438 89.125 266.269531 92.558594 266.269531 C 95.992188 266.269531 98.617188 268.898438 98.617188 272.332031 C 98.617188 275.765625 95.992188 278.390625 92.558594 278.390625 Z M 92.558594 278.390625 " fill-opacity="1" fill-rule="nonzero"/><g clip-path="url(#0dc0197ed2)"><path fill="#ffffff" d="M 297.984375 115.382812 C 295.761719 118.210938 293.136719 120.632812 290.308594 122.855469 L 292.53125 122.855469 C 301.417969 122.855469 308.691406 130.128906 308.691406 139.015625 L 308.691406 196.582031 C 308.691406 200.824219 305.257812 204.257812 301.015625 204.257812 C 298.792969 204.257812 296.972656 206.078125 296.972656 208.300781 L 296.972656 219.8125 L 235.570312 219.8125 L 235.570312 208.300781 C 235.570312 206.078125 233.75 204.257812 231.527344 204.257812 C 227.285156 204.257812 223.851562 200.824219 223.851562 196.582031 L 223.851562 139.015625 C 223.851562 130.128906 231.125 122.855469 240.011719 122.855469 L 242.234375 122.855469 C 239.40625 120.632812 236.78125 118.210938 234.558594 115.382812 C 223.851562 118.007812 215.773438 127.503906 215.773438 139.015625 L 215.773438 196.582031 C 215.773438 203.855469 220.824219 210.117188 227.488281 211.734375 L 227.488281 219.8125 C 227.488281 223.652344 230.316406 226.882812 233.953125 227.691406 L 233.953125 300.609375 C 233.953125 309.496094 241.222656 316.769531 250.113281 316.769531 L 282.429688 316.769531 C 291.320312 316.769531 298.589844 309.496094 298.589844 300.609375 L 298.589844 227.691406 C 302.226562 226.882812 305.054688 223.652344 305.054688 219.8125 L 305.054688 211.734375 C 311.71875 209.914062 316.769531 203.855469 316.769531 196.582031 L 316.769531 139.015625 C 316.769531 127.503906 308.691406 118.007812 297.984375 115.382812 Z M 290.511719 300.609375 C 290.511719 305.054688 286.875 308.691406 282.429688 308.691406 L 270.3125 308.691406 L 270.3125 260.210938 C 270.3125 257.988281 268.492188 256.171875 266.269531 256.171875 C 264.050781 256.171875 262.230469 257.988281 262.230469 260.210938 L 262.230469 308.691406 L 250.113281 308.691406 C 245.667969 308.691406 242.03125 305.054688 242.03125 300.609375 L 242.03125 227.894531 L 290.511719 227.894531 Z M 290.511719 300.609375 " fill-opacity="1" fill-rule="nonzero"/></g><g clip-path="url(#6590df2713)"><path fill="#ffffff" d="M 266.269531 122.855469 C 284.046875 122.855469 298.589844 108.3125 298.589844 90.539062 C 298.589844 72.761719 284.046875 58.21875 266.269531 58.21875 C 248.496094 58.21875 233.953125 72.761719 233.953125 90.539062 C 233.953125 108.3125 248.496094 122.855469 266.269531 122.855469 Z M 266.269531 66.296875 C 279.601562 66.296875 290.511719 77.207031 290.511719 90.539062 C 290.511719 103.871094 279.601562 114.777344 266.269531 114.777344 C 252.941406 114.777344 242.03125 103.871094 242.03125 90.539062 C 242.03125 77.207031 252.941406 66.296875 266.269531 66.296875 Z M 266.269531 66.296875 " fill-opacity="1" fill-rule="nonzero"/></g></svg>