<svg xmlns="http://www.w3.org/2000/svg" xmlns:xlink="http://www.w3.org/1999/xlink" width="500" zoomAndPan="magnify" viewBox="0 0 375 374.999991" height="500" preserveAspectRatio="xMidYMid meet" version="1.0"><defs><clipPath id="db04400de6"><path d="M 54 50 L 330.785156 50 L 330.785156 326.652344 L 54 326.652344 Z M 54 50 " clip-rule="nonzero"/></clipPath></defs><path fill="#ffffff" d="M 162.605469 240.675781 C 117.148438 240.675781 80.300781 203.828125 80.300781 158.371094 C 80.300781 112.921875 117.148438 76.070312 162.605469 76.070312 C 208.039062 76.121094 244.855469 112.9375 244.90625 158.371094 C 244.90625 203.828125 208.058594 240.675781 162.605469 240.675781 Z M 162.605469 67.40625 C 112.367188 67.40625 71.636719 108.132812 71.636719 158.371094 C 71.695312 208.589844 112.386719 249.28125 162.605469 249.339844 C 212.84375 249.339844 253.570312 208.613281 253.570312 158.371094 C 253.570312 108.132812 212.84375 67.40625 162.605469 67.40625 " fill-opacity="1" fill-rule="nonzero"/><path fill="#ffffff" d="M 192.925781 175.699219 L 158.273438 175.699219 C 155.878906 175.699219 153.9375 173.761719 153.9375 171.371094 C 153.9375 168.976562 155.878906 167.039062 158.273438 167.039062 L 192.925781 167.039062 C 195.316406 167.039062 197.257812 168.976562 197.257812 171.371094 C 197.257812 173.761719 195.316406 175.699219 192.925781 175.699219 Z M 192.925781 193.027344 L 132.28125 193.027344 C 129.890625 193.027344 127.949219 191.085938 127.949219 188.695312 C 127.949219 186.300781 129.890625 184.363281 132.28125 184.363281 L 192.925781 184.363281 C 195.316406 184.363281 197.257812 186.300781 197.257812 188.695312 C 197.257812 191.085938 195.316406 193.027344 192.925781 193.027344 Z M 158.273438 210.355469 L 132.28125 210.355469 C 129.890625 210.355469 127.949219 208.414062 127.949219 206.023438 C 127.949219 203.632812 129.890625 201.691406 132.28125 201.691406 L 158.273438 201.691406 C 160.664062 201.691406 162.605469 203.632812 162.605469 206.023438 C 162.605469 208.414062 160.664062 210.355469 158.273438 210.355469 Z M 132.28125 167.039062 L 140.945312 167.039062 C 143.335938 167.039062 145.277344 168.976562 145.277344 171.371094 C 145.277344 173.761719 143.335938 175.699219 140.945312 175.699219 L 132.28125 175.699219 C 129.890625 175.699219 127.949219 173.761719 127.949219 171.371094 C 127.949219 168.976562 129.890625 167.039062 132.28125 167.039062 Z M 136.964844 152.375 L 144.191406 135.046875 L 144.191406 135.023438 L 158.613281 100.398438 C 159.285156 98.785156 160.867188 97.734375 162.613281 97.734375 C 164.359375 97.734375 165.9375 98.785156 166.609375 100.398438 L 181.035156 135.023438 L 181.035156 135.046875 L 188.257812 152.375 C 189.183594 154.585938 188.140625 157.117188 185.933594 158.042969 C 183.722656 158.960938 181.183594 157.917969 180.265625 155.710938 L 174.15625 141.046875 L 151.050781 141.046875 L 144.945312 155.710938 C 144.503906 156.769531 143.652344 157.613281 142.59375 158.050781 C 141.527344 158.484375 140.335938 158.484375 139.277344 158.042969 C 137.078125 157.113281 136.042969 154.578125 136.964844 152.375 Z M 162.605469 84.734375 C 121.933594 84.734375 88.964844 117.703125 88.964844 158.371094 C 88.964844 199.042969 121.933594 232.015625 162.605469 232.015625 C 203.253906 231.96875 236.195312 199.023438 236.242188 158.371094 C 236.242188 117.703125 203.273438 84.734375 162.605469 84.734375 " fill-opacity="1" fill-rule="nonzero"/><path fill="#ffffff" d="M 162.605469 113.324219 L 154.664062 132.382812 L 170.542969 132.382812 Z M 162.605469 113.324219 " fill-opacity="1" fill-rule="nonzero"/><path fill="#ffffff" d="M 262.414062 239.8125 C 260.722656 238.117188 257.980469 238.117188 256.289062 239.8125 L 244.035156 252.074219 L 244.042969 252.058594 C 243.222656 252.871094 242.769531 253.972656 242.769531 255.121094 C 242.769531 256.273438 243.230469 257.371094 244.042969 258.183594 L 252.148438 266.296875 L 270.523438 247.925781 L 262.414062 239.8125 " fill-opacity="1" fill-rule="nonzero"/><g clip-path="url(#db04400de6)"><path fill="#ffffff" d="M 317.804688 307.464844 L 311.675781 313.59375 C 304.902344 320.34375 293.945312 320.34375 287.175781 313.59375 L 264.257812 290.679688 L 264.21875 290.652344 L 264.195312 290.613281 L 249.097656 275.519531 L 249.058594 275.488281 L 249.035156 275.453125 L 237.894531 264.3125 C 234.027344 260.417969 233.023438 254.511719 235.390625 249.5625 L 223.195312 237.367188 C 181.488281 269.390625 122.089844 263.550781 87.417969 224.019531 C 52.742188 184.492188 54.691406 124.839844 91.871094 87.660156 C 129.050781 50.476562 188.703125 48.527344 228.230469 83.203125 C 267.761719 117.878906 273.597656 177.273438 241.578125 218.980469 L 253.8125 231.21875 C 258.765625 228.953125 264.59375 229.929688 268.542969 233.683594 L 279.679688 244.820312 L 279.71875 244.847656 L 279.746094 244.890625 L 294.84375 259.980469 L 294.882812 260.007812 L 294.90625 260.050781 L 317.804688 282.964844 C 324.570312 289.730469 324.570312 300.695312 317.804688 307.464844 Z M 323.328125 277.445312 L 273.917969 228.027344 C 269.972656 224.277344 264.796875 222.207031 259.347656 222.207031 C 258.25 222.207031 257.164062 222.289062 256.089844 222.457031 L 251.785156 218.152344 C 281.609375 173.703125 274.128906 113.082031 233.382812 77.335938 C 213.746094 60.109375 188.550781 50.625 162.445312 50.625 C 133.699219 50.625 106.671875 61.816406 86.351562 82.136719 C 46.390625 122.101562 44.28125 186.683594 81.550781 229.171875 C 101.976562 252.460938 131.472656 265.816406 162.480469 265.816406 C 184.046875 265.816406 204.613281 259.53125 222.367188 247.582031 L 226.589844 251.804688 C 225.542969 258.269531 227.59375 265.019531 232.375 269.832031 L 281.667969 319.125 C 286.414062 323.855469 292.722656 326.464844 299.425781 326.464844 C 306.128906 326.464844 312.4375 323.855469 317.195312 319.113281 L 323.324219 312.984375 C 328.074219 308.238281 330.683594 301.929688 330.683594 295.214844 C 330.683594 288.5 328.074219 282.195312 323.328125 277.445312 " fill-opacity="1" fill-rule="nonzero"/></g><path fill="#ffffff" d="M 291.792969 269.207031 L 273.417969 287.582031 L 293.300781 307.46875 C 296.683594 310.851562 302.164062 310.851562 305.546875 307.46875 L 311.695312 301.324219 C 315.0625 297.9375 315.054688 292.464844 311.679688 289.089844 L 291.792969 269.207031 " fill-opacity="1" fill-rule="nonzero"/><path fill="#ffffff" d="M 236.015625 225.652344 C 234.054688 227.785156 232.011719 229.832031 229.878906 231.785156 L 240.964844 242.871094 L 247.097656 236.734375 L 236.015625 225.652344 " fill-opacity="1" fill-rule="nonzero"/><path fill="#ffffff" d="M 276.648438 254.046875 L 258.273438 272.417969 L 267.3125 281.457031 L 285.683594 263.078125 L 276.648438 254.046875 " fill-opacity="1" fill-rule="nonzero"/></svg>