<svg xmlns="http://www.w3.org/2000/svg" xmlns:xlink="http://www.w3.org/1999/xlink" width="500" zoomAndPan="magnify" viewBox="0 0 375 374.999991" height="500" preserveAspectRatio="xMidYMid meet" version="1.0"><defs><clipPath id="b143592649"><path d="M 48.265625 42.839844 L 325 42.839844 L 325 332.339844 L 48.265625 332.339844 Z M 48.265625 42.839844 " clip-rule="nonzero"/></clipPath></defs><g clip-path="url(#b143592649)"><path fill="#ffffff" d="M 233.195312 107.769531 C 232.621094 106.667969 232.019531 105.578125 231.398438 104.492188 L 259.921875 71.25 C 260.734375 72.085938 261.625 72.847656 262.578125 73.527344 Z M 115.316406 118.75 L 79.503906 137.324219 C 80.132812 138.300781 80.675781 139.339844 81.121094 140.425781 L 116.933594 121.851562 C 116.308594 120.875 115.765625 119.835938 115.316406 118.75 Z M 186.261719 130.703125 L 152.015625 116.96875 C 151.675781 118.097656 151.238281 119.183594 150.707031 120.214844 L 184.953125 133.949219 C 185.292969 132.820312 185.734375 131.738281 186.261719 130.703125 Z M 77.914062 224.59375 C 77.382812 224.085938 76.851562 223.570312 76.332031 223.050781 C 68.277344 214.996094 61.796875 205.792969 57.03125 195.8125 L 48.261719 195.8125 L 48.261719 270.402344 L 77.914062 270.402344 Z M 148.175781 223.152344 L 148.175781 167.21875 L 118.527344 167.21875 L 118.527344 217.609375 C 127.082031 221.265625 136.371094 223.191406 145.953125 223.191406 C 146.695312 223.191406 147.4375 223.175781 148.175781 223.152344 Z M 118.527344 248.03125 L 118.527344 270.402344 L 148.175781 270.402344 L 148.175781 251.859375 C 147.4375 251.878906 146.699219 251.886719 145.957031 251.886719 C 136.542969 251.886719 127.328125 250.570312 118.527344 248.03125 Z M 211.925781 176.203125 L 188.796875 176.203125 L 188.796875 208.5 C 191.058594 206.734375 193.222656 204.816406 195.285156 202.757812 C 202.894531 195.148438 208.523438 186.089844 211.925781 176.203125 Z M 188.796875 242.128906 L 188.796875 270.402344 L 218.445312 270.402344 L 218.445312 257.050781 L 198.269531 236.878906 C 195.203125 238.808594 192.042969 240.558594 188.796875 242.128906 Z M 259.058594 235.394531 L 288.707031 265.042969 L 288.707031 113.699219 L 259.058594 113.699219 Z M 257.078125 295.6875 L 48.261719 295.6875 L 48.261719 308.457031 L 269.847656 308.457031 Z M 76.242188 154.636719 C 77.304688 152.589844 77.914062 150.269531 77.914062 147.808594 C 77.914062 146.050781 77.601562 144.363281 77.039062 142.796875 C 76.4375 146.71875 76.171875 150.679688 76.242188 154.636719 Z M 133.351562 126.191406 C 141.527344 126.191406 148.175781 119.542969 148.175781 111.367188 C 148.175781 103.195312 141.523438 96.542969 133.351562 96.542969 C 125.175781 96.542969 118.527344 103.195312 118.527344 111.367188 C 118.527344 119.542969 125.175781 126.191406 133.351562 126.191406 Z M 203.621094 154.378906 C 208.5 154.378906 212.832031 152.007812 215.535156 148.359375 C 214.988281 140.683594 213.199219 133.257812 210.265625 126.308594 C 208.265625 125.296875 206.007812 124.726562 203.621094 124.726562 C 195.445312 124.726562 188.796875 131.378906 188.796875 139.550781 C 188.796875 147.726562 195.445312 154.378906 203.621094 154.378906 Z M 273.882812 42.84375 C 265.707031 42.84375 259.058594 49.492188 259.058594 57.667969 C 259.058594 65.839844 265.707031 72.492188 273.882812 72.492188 C 282.058594 72.492188 288.707031 65.839844 288.707031 57.667969 C 288.707031 49.492188 282.054688 42.84375 273.882812 42.84375 Z M 226.761719 209.699219 C 223.492188 214.394531 219.761719 218.867188 215.578125 223.050781 C 211.417969 227.207031 206.953125 230.945312 202.234375 234.246094 L 216.898438 248.910156 L 241.433594 224.371094 Z M 220.199219 252.207031 L 294.171875 326.179688 C 297.964844 329.976562 303.09375 332.152344 308.238281 332.152344 C 312.769531 332.152344 316.9375 330.480469 319.972656 327.445312 C 326.738281 320.683594 326.167969 309.109375 318.710938 301.644531 L 244.734375 227.671875 Z M 79.632812 219.753906 C 61.914062 202.035156 52.160156 178.484375 52.160156 153.429688 C 52.160156 128.375 61.917969 104.824219 79.632812 87.105469 C 97.347656 69.390625 120.902344 59.632812 145.957031 59.632812 C 171.007812 59.632812 194.5625 69.390625 212.277344 87.105469 C 248.847656 123.679688 248.847656 183.183594 212.277344 219.753906 C 194.5625 237.464844 171.007812 247.222656 145.957031 247.222656 C 120.902344 247.222656 97.347656 237.464844 79.632812 219.753906 Z M 93.324219 206.058594 C 107.382812 220.117188 126.074219 227.855469 145.953125 227.855469 C 165.835938 227.855469 184.527344 220.113281 198.585938 206.054688 C 212.644531 192 220.382812 173.308594 220.382812 153.429688 C 220.382812 133.550781 212.644531 114.859375 198.585938 100.800781 C 184.527344 86.742188 165.835938 79 145.953125 79 C 126.074219 79 107.382812 86.742188 93.324219 100.800781 C 64.308594 129.820312 64.308594 177.039062 93.324219 206.058594 Z M 93.324219 206.058594 " fill-opacity="1" fill-rule="nonzero"/></g></svg>