<svg xmlns="http://www.w3.org/2000/svg" xmlns:xlink="http://www.w3.org/1999/xlink" width="500" zoomAndPan="magnify" viewBox="0 0 375 374.999991" height="500" preserveAspectRatio="xMidYMid meet" version="1.0"><defs><clipPath id="ba135fb21f"><path d="M 69.152344 34.792969 L 306 34.792969 L 306 340.042969 L 69.152344 340.042969 Z M 69.152344 34.792969 " clip-rule="nonzero"/></clipPath></defs><path fill="#ffffff" d="M 162.789062 118.035156 L 269.332031 118.035156 C 272.503906 118.035156 275.085938 115.453125 275.085938 112.289062 L 275.085938 105.808594 C 275.085938 102.644531 272.503906 100.0625 269.332031 100.0625 L 162.789062 100.0625 C 159.613281 100.0625 157.042969 102.644531 157.042969 105.808594 L 157.042969 112.289062 C 157.042969 115.453125 159.613281 118.035156 162.789062 118.035156 " fill-opacity="1" fill-rule="nonzero"/><path fill="#ffffff" d="M 113.1875 122.371094 C 105.832031 122.371094 99.867188 116.40625 99.867188 109.050781 C 99.867188 101.695312 105.832031 95.730469 113.1875 95.730469 C 120.554688 95.730469 126.519531 101.695312 126.519531 109.050781 C 126.519531 116.40625 120.554688 122.371094 113.1875 122.371094 " fill-opacity="1" fill-rule="nonzero"/><path fill="#ffffff" d="M 162.789062 196.414062 L 269.332031 196.414062 C 272.503906 196.414062 275.085938 193.84375 275.085938 190.667969 L 275.085938 184.195312 C 275.085938 181.019531 272.503906 178.449219 269.332031 178.449219 L 162.789062 178.449219 C 159.613281 178.449219 157.042969 181.019531 157.042969 184.195312 L 157.042969 190.667969 C 157.042969 193.84375 159.613281 196.414062 162.789062 196.414062 " fill-opacity="1" fill-rule="nonzero"/><path fill="#ffffff" d="M 113.1875 200.757812 C 105.832031 200.757812 99.867188 194.792969 99.867188 187.425781 C 99.867188 180.070312 105.832031 174.105469 113.1875 174.105469 C 120.554688 174.105469 126.519531 180.070312 126.519531 187.425781 C 126.519531 194.792969 120.554688 200.757812 113.1875 200.757812 " fill-opacity="1" fill-rule="nonzero"/><path fill="#ffffff" d="M 162.789062 274.800781 L 269.332031 274.800781 C 272.503906 274.800781 275.085938 272.21875 275.085938 269.046875 L 275.085938 262.574219 C 275.085938 259.410156 272.503906 256.828125 269.332031 256.828125 L 162.789062 256.828125 C 159.613281 256.828125 157.042969 259.410156 157.042969 262.574219 L 157.042969 269.046875 C 157.042969 272.21875 159.613281 274.800781 162.789062 274.800781 " fill-opacity="1" fill-rule="nonzero"/><path fill="#ffffff" d="M 113.1875 279.132812 C 105.832031 279.132812 99.867188 273.167969 99.867188 265.8125 C 99.867188 258.457031 105.832031 252.492188 113.1875 252.492188 C 120.554688 252.492188 126.519531 258.457031 126.519531 265.8125 C 126.519531 273.167969 120.554688 279.132812 113.1875 279.132812 " fill-opacity="1" fill-rule="nonzero"/><g clip-path="url(#ba135fb21f)"><path fill="#ffffff" d="M 90.078125 51.28125 C 87.230469 51.28125 84.910156 53.832031 84.910156 56.964844 L 84.910156 317.898438 C 84.910156 321.03125 87.230469 323.582031 90.078125 323.582031 L 284.867188 323.582031 C 287.714844 323.582031 290.035156 321.03125 290.035156 317.898438 L 290.035156 56.964844 C 290.035156 53.832031 287.714844 51.28125 284.867188 51.28125 Z M 284.867188 340.078125 L 90.078125 340.078125 C 78.953125 340.078125 69.902344 330.125 69.902344 317.898438 L 69.902344 56.964844 C 69.902344 44.738281 78.953125 34.785156 90.078125 34.785156 L 284.867188 34.785156 C 296 34.785156 305.042969 44.738281 305.042969 56.964844 L 305.042969 317.898438 C 305.042969 330.125 296 340.078125 284.867188 340.078125 " fill-opacity="1" fill-rule="nonzero"/></g></svg>