<svg xmlns="http://www.w3.org/2000/svg" xmlns:xlink="http://www.w3.org/1999/xlink" width="500" zoomAndPan="magnify" viewBox="0 0 375 374.999991" height="500" preserveAspectRatio="xMidYMid meet" version="1.0"><defs><clipPath id="35e0c989da"><path d="M 51.558594 64 L 300 64 L 300 312.355469 L 51.558594 312.355469 Z M 51.558594 64 " clip-rule="nonzero"/></clipPath><clipPath id="53149b5e51"><path d="M 97 62.605469 L 323.808594 62.605469 L 323.808594 257 L 97 257 Z M 97 62.605469 " clip-rule="nonzero"/></clipPath></defs><g clip-path="url(#35e0c989da)"><path fill="#ffffff" d="M 291.023438 143.328125 L 270.726562 163.625 C 271.144531 165.238281 271.527344 166.863281 271.863281 168.496094 C 272.203125 170.128906 272.5 171.769531 272.753906 173.417969 C 273.007812 175.066406 273.222656 176.722656 273.390625 178.382812 C 273.5625 180.039062 273.691406 181.703125 273.777344 183.367188 C 273.863281 185.035156 273.90625 186.703125 273.910156 188.371094 C 273.910156 190.039062 273.867188 191.703125 273.785156 193.371094 C 273.703125 195.035156 273.574219 196.699219 273.40625 198.359375 C 273.238281 200.019531 273.03125 201.671875 272.777344 203.320312 C 272.523438 204.96875 272.230469 206.613281 271.894531 208.246094 C 271.558594 209.878906 271.183594 211.503906 270.765625 213.117188 C 270.347656 214.734375 269.886719 216.335938 269.386719 217.925781 C 268.886719 219.519531 268.347656 221.097656 267.765625 222.660156 C 267.1875 224.222656 266.566406 225.773438 265.910156 227.304688 C 265.25 228.835938 264.554688 230.351562 263.816406 231.847656 C 263.082031 233.347656 262.308594 234.824219 261.496094 236.28125 C 260.6875 237.738281 259.839844 239.175781 258.953125 240.589844 C 258.070312 242.003906 257.148438 243.394531 256.195312 244.761719 C 255.242188 246.128906 254.25 247.472656 253.230469 248.789062 C 252.207031 250.105469 251.148438 251.398438 250.0625 252.660156 C 248.972656 253.925781 247.851562 255.160156 246.699219 256.367188 C 245.546875 257.574219 244.367188 258.75 243.15625 259.898438 C 241.945312 261.042969 240.703125 262.160156 239.4375 263.242188 C 238.167969 264.324219 236.871094 265.375 235.550781 266.394531 C 234.230469 267.410156 232.882812 268.394531 231.511719 269.34375 C 230.140625 270.292969 228.746094 271.207031 227.328125 272.085938 C 225.910156 272.964844 224.46875 273.804688 223.007812 274.609375 C 221.546875 275.414062 220.066406 276.183594 218.566406 276.910156 C 217.066406 277.640625 215.550781 278.332031 214.015625 278.984375 C 212.480469 279.636719 210.929688 280.25 209.363281 280.824219 C 207.796875 281.398438 206.214844 281.929688 204.621094 282.425781 C 203.027344 282.917969 201.425781 283.371094 199.808594 283.78125 C 198.191406 284.195312 196.566406 284.5625 194.929688 284.894531 C 193.292969 285.222656 191.652344 285.507812 190.003906 285.753906 C 188.351562 286 186.699219 286.203125 185.039062 286.363281 C 183.378906 286.523438 181.714844 286.644531 180.046875 286.71875 C 178.382812 286.796875 176.714844 286.832031 175.046875 286.824219 C 173.378906 286.816406 171.710938 286.765625 170.046875 286.671875 C 168.378906 286.578125 166.71875 286.441406 165.058594 286.265625 C 163.402344 286.085938 161.75 285.867188 160.101562 285.605469 C 158.453125 285.34375 156.8125 285.042969 155.183594 284.695312 C 153.550781 284.351562 151.929688 283.964844 150.316406 283.539062 C 148.703125 283.109375 147.101562 282.640625 145.515625 282.132812 C 143.925781 281.625 142.351562 281.074219 140.789062 280.484375 C 139.230469 279.894531 137.6875 279.269531 136.15625 278.601562 C 134.628906 277.933594 133.117188 277.226562 131.625 276.480469 C 130.132812 275.738281 128.660156 274.957031 127.207031 274.136719 C 125.753906 273.316406 124.324219 272.460938 122.914062 271.570312 C 121.503906 270.675781 120.117188 269.75 118.757812 268.785156 C 117.394531 267.824219 116.058594 266.828125 114.746094 265.796875 C 113.433594 264.765625 112.148438 263.703125 110.890625 262.605469 C 109.636719 261.511719 108.40625 260.382812 107.207031 259.226562 C 106.007812 258.066406 104.835938 256.878906 103.695312 255.660156 C 102.558594 254.441406 101.449219 253.195312 100.371094 251.921875 C 99.296875 250.648438 98.253906 249.347656 97.242188 248.019531 C 96.234375 246.691406 95.257812 245.339844 94.316406 243.960938 C 93.375 242.585938 92.46875 241.183594 91.597656 239.761719 C 90.730469 238.339844 89.894531 236.894531 89.097656 235.429688 C 88.300781 233.964844 87.542969 232.480469 86.824219 230.972656 C 86.101562 229.46875 85.417969 227.949219 84.777344 226.410156 C 84.132812 224.871094 83.527344 223.316406 82.964844 221.746094 C 82.398438 220.179688 81.875 218.59375 81.390625 217 C 80.90625 215.402344 80.460938 213.796875 80.058594 212.175781 C 79.65625 210.558594 79.296875 208.929688 78.976562 207.292969 C 78.65625 205.65625 78.378906 204.011719 78.144531 202.359375 C 76.816406 192.910156 76.839844 183.46875 78.207031 174.027344 C 78.507812 171.976562 78.875 169.9375 79.304688 167.914062 C 79.738281 165.886719 80.230469 163.875 80.789062 161.882812 C 81.347656 159.886719 81.964844 157.910156 82.648438 155.957031 C 83.332031 154 84.074219 152.066406 84.878906 150.160156 C 85.683594 148.25 86.546875 146.371094 87.46875 144.515625 C 88.394531 142.660156 89.375 140.839844 90.414062 139.046875 C 91.449219 137.253906 92.546875 135.496094 93.695312 133.773438 C 94.84375 132.050781 96.046875 130.367188 97.304688 128.71875 C 98.558594 127.070312 99.867188 125.464844 101.222656 123.902344 C 102.582031 122.335938 103.984375 120.816406 105.441406 119.34375 C 106.894531 117.867188 108.390625 116.4375 109.9375 115.058594 C 111.480469 113.675781 113.066406 112.34375 114.695312 111.066406 C 116.320312 109.785156 117.988281 108.554688 119.695312 107.382812 C 121.398438 106.207031 123.140625 105.085938 124.917969 104.019531 C 126.691406 102.953125 128.5 101.945312 130.339844 100.996094 C 132.179688 100.042969 134.046875 99.152344 135.945312 98.320312 C 137.839844 97.488281 139.761719 96.714844 141.707031 96.003906 C 143.652344 95.289062 145.617188 94.640625 147.605469 94.054688 C 149.589844 93.464844 151.59375 92.941406 153.613281 92.480469 C 155.632812 92.019531 157.664062 91.625 159.707031 91.292969 C 161.753906 90.957031 163.804688 90.691406 165.867188 90.488281 C 167.929688 90.285156 169.992188 90.148438 172.0625 90.074219 C 174.132812 90.003906 176.203125 89.996094 178.273438 90.054688 C 180.34375 90.113281 182.410156 90.238281 184.472656 90.425781 C 186.535156 90.617188 188.589844 90.871094 190.636719 91.1875 C 192.683594 91.507812 194.71875 91.890625 196.742188 92.339844 C 198.761719 92.785156 200.769531 93.296875 202.757812 93.871094 C 204.75 94.445312 206.71875 95.082031 208.667969 95.78125 C 210.617188 96.480469 212.542969 97.238281 214.445312 98.058594 C 216.347656 98.882812 218.222656 99.761719 220.070312 100.699219 C 221.914062 101.636719 223.730469 102.632812 225.511719 103.6875 C 227.296875 104.742188 229.042969 105.851562 230.757812 107.015625 L 249.125 88.648438 C 241.246094 82.824219 232.796875 78.007812 223.773438 74.195312 C 208.480469 67.730469 192.246094 64.449219 175.519531 64.449219 C 158.789062 64.449219 142.554688 67.726562 127.265625 74.195312 C 123.59375 75.75 120.007812 77.476562 116.5 79.378906 C 112.996094 81.28125 109.589844 83.347656 106.285156 85.574219 C 102.980469 87.804688 99.789062 90.1875 96.710938 92.722656 C 93.632812 95.257812 90.6875 97.933594 87.867188 100.753906 C 85.046875 103.574219 82.371094 106.523438 79.832031 109.597656 C 77.296875 112.675781 74.914062 115.867188 72.6875 119.171875 C 70.457031 122.480469 68.394531 125.882812 66.492188 129.390625 C 64.589844 132.894531 62.863281 136.480469 61.304688 140.152344 C 54.839844 155.445312 51.558594 171.679688 51.558594 188.410156 C 51.558594 205.136719 54.839844 221.371094 61.304688 236.664062 C 62.863281 240.332031 64.589844 243.921875 66.492188 247.425781 C 68.394531 250.929688 70.457031 254.335938 72.6875 257.644531 C 74.914062 260.949219 77.296875 264.140625 79.832031 267.21875 C 82.371094 270.292969 85.046875 273.242188 87.867188 276.0625 C 90.6875 278.878906 93.632812 281.558594 96.710938 284.09375 C 99.789062 286.628906 102.980469 289.011719 106.285156 291.242188 C 109.589844 293.46875 112.996094 295.535156 116.5 297.4375 C 120.007812 299.335938 123.59375 301.066406 127.265625 302.621094 C 142.554688 309.089844 158.789062 312.367188 175.519531 312.367188 C 192.246094 312.367188 208.480469 309.089844 223.773438 302.621094 C 227.445312 301.066406 231.03125 299.335938 234.535156 297.4375 C 238.039062 295.535156 241.445312 293.46875 244.753906 291.242188 C 248.058594 289.011719 251.25 286.628906 254.328125 284.09375 C 257.402344 281.558594 260.351562 278.878906 263.171875 276.0625 C 265.992188 273.242188 268.667969 270.292969 271.203125 267.21875 C 273.738281 264.140625 276.121094 260.949219 278.351562 257.644531 C 280.578125 254.335938 282.644531 250.929688 284.546875 247.425781 C 286.445312 243.921875 288.175781 240.332031 289.730469 236.664062 C 296.199219 221.371094 299.476562 205.136719 299.476562 188.410156 C 299.476562 172.832031 296.632812 157.683594 291.023438 143.328125 Z M 291.023438 143.328125 " fill-opacity="1" fill-rule="nonzero"/></g><g clip-path="url(#53149b5e51)"><path fill="#ffffff" d="M 153.53125 256.675781 L 97.191406 200.335938 L 121.335938 176.1875 L 153.53125 208.386719 L 299.289062 62.628906 L 323.433594 86.773438 Z M 153.53125 256.675781 " fill-opacity="1" fill-rule="nonzero"/></g></svg>