<svg xmlns="http://www.w3.org/2000/svg" xmlns:xlink="http://www.w3.org/1999/xlink" width="500" zoomAndPan="magnify" viewBox="0 0 375 374.999991" height="500" preserveAspectRatio="xMidYMid meet" version="1.0"><defs><clipPath id="7bcde01e04"><path d="M 49.503906 49.503906 L 325.503906 49.503906 L 325.503906 325.503906 L 49.503906 325.503906 Z M 49.503906 49.503906 " clip-rule="nonzero"/></clipPath></defs><path fill="#ffffff" d="M 219.957031 137.882812 C 224.4375 137.882812 228.074219 134.246094 228.074219 129.765625 L 228.074219 100.902344 C 228.074219 96.421875 224.4375 92.785156 219.957031 92.785156 C 219.957031 92.785156 155.167969 92.785156 155.019531 92.785156 C 149.09375 92.785156 145.101562 99.222656 147.757812 104.535156 L 167.585938 144.195312 C 167.585938 144.195312 147.800781 183.773438 147.757812 183.859375 C 145.199219 189.019531 149.09375 195.605469 155.019531 195.605469 L 219.957031 195.605469 C 224.4375 195.605469 228.074219 191.96875 228.074219 187.488281 L 228.074219 158.628906 C 228.074219 154.148438 224.4375 150.511719 219.957031 150.511719 C 215.476562 150.511719 211.839844 154.148438 211.839844 158.628906 L 211.839844 179.371094 L 168.15625 179.371094 L 183.925781 147.828125 C 185.070312 145.539062 185.070312 142.855469 183.925781 140.566406 L 168.15625 109.019531 L 211.839844 109.019531 L 211.839844 129.765625 C 211.839844 134.246094 215.476562 137.882812 219.957031 137.882812 Z M 219.957031 137.882812 " fill-opacity="1" fill-rule="nonzero"/><g clip-path="url(#7bcde01e04)"><path fill="#ffffff" d="M 295.71875 265.957031 C 282.136719 265.957031 270.78125 275.148438 267.222656 287.601562 L 217.253906 287.601562 L 217.253906 274.074219 C 217.253906 269.59375 213.617188 265.957031 209.136719 265.957031 L 195.605469 265.957031 L 195.605469 238.488281 C 244.035156 234.347656 282.191406 193.675781 282.191406 144.195312 C 282.191406 91.976562 239.710938 49.496094 187.488281 49.496094 C 168.359375 49.496094 149.96875 55.191406 134.292969 65.96875 C 130.59375 68.507812 129.664062 73.5625 132.199219 77.253906 C 134.738281 80.953125 139.789062 81.894531 143.488281 79.347656 C 156.445312 70.4375 171.65625 65.730469 187.488281 65.730469 C 230.761719 65.730469 265.957031 100.929688 265.957031 144.195312 C 265.957031 187.460938 230.761719 222.664062 187.488281 222.664062 C 144.21875 222.664062 109.023438 187.460938 109.023438 144.195312 C 109.023438 128.367188 113.726562 113.152344 122.636719 100.195312 C 125.171875 96.503906 124.242188 91.449219 120.542969 88.90625 C 116.84375 86.367188 111.800781 87.3125 109.253906 91 C 98.484375 106.675781 92.785156 125.070312 92.785156 144.195312 C 92.785156 193.675781 130.941406 234.347656 179.371094 238.488281 L 179.371094 265.957031 L 165.84375 265.957031 C 161.359375 265.957031 157.726562 269.59375 157.726562 274.074219 L 157.726562 287.601562 L 107.753906 287.601562 C 104.195312 275.148438 92.839844 265.957031 79.257812 265.957031 C 62.84375 265.957031 49.496094 279.304688 49.496094 295.71875 C 49.496094 312.132812 62.84375 325.484375 79.257812 325.484375 C 92.839844 325.484375 104.195312 316.289062 107.753906 303.835938 L 157.726562 303.835938 L 157.726562 317.367188 C 157.726562 321.847656 161.359375 325.484375 165.84375 325.484375 L 209.136719 325.484375 C 213.617188 325.484375 217.253906 321.847656 217.253906 317.367188 L 217.253906 303.835938 L 267.222656 303.835938 C 270.78125 316.289062 282.136719 325.484375 295.71875 325.484375 C 312.132812 325.484375 325.484375 312.132812 325.484375 295.71875 C 325.484375 279.304688 312.132812 265.957031 295.71875 265.957031 Z M 79.257812 309.25 C 71.796875 309.25 65.730469 303.179688 65.730469 295.71875 C 65.730469 288.257812 71.796875 282.191406 79.257812 282.191406 C 86.71875 282.191406 92.785156 288.257812 92.785156 295.71875 C 92.785156 303.179688 86.71875 309.25 79.257812 309.25 Z M 201.019531 309.25 L 173.960938 309.25 L 173.960938 282.191406 L 201.019531 282.191406 Z M 295.71875 309.25 C 288.257812 309.25 282.191406 303.179688 282.191406 295.71875 C 282.191406 288.257812 288.257812 282.191406 295.71875 282.191406 C 303.179688 282.191406 309.25 288.257812 309.25 295.71875 C 309.25 303.179688 303.179688 309.25 295.71875 309.25 Z M 295.71875 309.25 " fill-opacity="1" fill-rule="nonzero"/></g></svg>