<svg xmlns="http://www.w3.org/2000/svg" xmlns:xlink="http://www.w3.org/1999/xlink" width="500" zoomAndPan="magnify" viewBox="0 0 375 374.999991" height="500" preserveAspectRatio="xMidYMid meet" version="1.0"><defs><clipPath id="dd7d4faf58"><path d="M 188 86.230469 L 289 86.230469 L 289 288.730469 L 188 288.730469 Z M 188 86.230469 " clip-rule="nonzero"/></clipPath><clipPath id="9a012927fc"><path d="M 239 86.230469 L 339.25 86.230469 L 339.25 288.730469 L 239 288.730469 Z M 239 86.230469 " clip-rule="nonzero"/></clipPath><clipPath id="85a7780a45"><path d="M 35.5 86.230469 L 239 86.230469 L 239 288.730469 L 35.5 288.730469 Z M 35.5 86.230469 " clip-rule="nonzero"/></clipPath></defs><path fill="#ffffff" d="M 117.886719 229.699219 L 105.21875 221.257812 L 124.445312 184.140625 L 128.304688 127.394531 L 145.445312 127.394531 L 149.8125 191.648438 Z M 117.886719 229.699219 " fill-opacity="1" fill-rule="nonzero"/><g clip-path="url(#dd7d4faf58)"><path fill="#ffffff" d="M 188.964844 86.304688 C 207.105469 95.683594 222.371094 109.785156 233.21875 127.003906 C 251.535156 140.875 263.449219 162.789062 263.449219 187.496094 C 263.449219 212.207031 251.535156 234.117188 233.21875 248.003906 C 222.382812 265.207031 207.117188 279.308594 188.964844 288.699219 C 244.128906 287.890625 288.765625 242.839844 288.765625 187.496094 C 288.765625 132.152344 244.128906 87.101562 188.964844 86.304688 Z M 188.964844 86.304688 " fill-opacity="1" fill-rule="nonzero"/></g><g clip-path="url(#9a012927fc)"><path fill="#ffffff" d="M 239.597656 86.304688 C 257.738281 95.683594 273.003906 109.785156 283.851562 127.003906 C 302.167969 140.875 314.082031 162.789062 314.082031 187.496094 C 314.082031 212.207031 302.167969 234.117188 283.851562 248.003906 C 273.015625 265.207031 257.75 279.308594 239.597656 288.699219 C 294.765625 287.890625 339.398438 242.839844 339.398438 187.496094 C 339.398438 132.152344 294.765625 87.101562 239.597656 86.304688 Z M 239.597656 86.304688 " fill-opacity="1" fill-rule="nonzero"/></g><g clip-path="url(#85a7780a45)"><path fill="#ffffff" d="M 136.863281 86.230469 C 81.027344 86.230469 35.59375 131.660156 35.59375 187.496094 C 35.59375 243.332031 81.027344 288.765625 136.863281 288.765625 C 192.699219 288.765625 238.128906 243.332031 238.128906 187.496094 C 238.128906 131.660156 192.699219 86.230469 136.863281 86.230469 Z M 136.863281 263.449219 C 94.976562 263.449219 60.914062 229.382812 60.914062 187.496094 C 60.914062 145.609375 94.976562 111.546875 136.863281 111.546875 C 178.75 111.546875 212.8125 145.609375 212.8125 187.496094 C 212.8125 229.382812 178.75 263.449219 136.863281 263.449219 Z M 136.863281 263.449219 " fill-opacity="1" fill-rule="nonzero"/></g></svg>