<svg xmlns="http://www.w3.org/2000/svg" xmlns:xlink="http://www.w3.org/1999/xlink" width="500" zoomAndPan="magnify" viewBox="0 0 375 374.999991" height="500" preserveAspectRatio="xMidYMid meet" version="1.0"><defs><clipPath id="a30d4853f2"><path d="M 40.128906 119.523438 L 334.878906 119.523438 L 334.878906 255.273438 L 40.128906 255.273438 Z M 40.128906 119.523438 " clip-rule="nonzero"/></clipPath></defs><path fill="#ffffff" d="M 136.289062 169.15625 L 129.277344 192.824219 L 143.496094 192.824219 L 136.597656 169.15625 Z M 136.289062 169.15625 " fill-opacity="1" fill-rule="nonzero"/><g clip-path="url(#a30d4853f2)"><path fill="#ffffff" d="M 312.117188 119.523438 L 62.878906 119.523438 C 50.371094 119.523438 40.21875 129.664062 40.21875 142.183594 L 40.21875 232.816406 C 40.21875 245.324219 50.371094 255.472656 62.878906 255.472656 L 312.117188 255.472656 C 324.625 255.472656 334.777344 245.324219 334.777344 232.816406 L 334.777344 142.183594 C 334.777344 129.664062 324.625 119.523438 312.117188 119.523438 Z M 150.304688 214.78125 L 146.351562 202.429688 L 126.605469 202.429688 L 122.695312 214.78125 L 109.144531 214.78125 L 129.359375 159.257812 L 144.1875 159.257812 L 163.933594 214.78125 Z M 194.511719 214.78125 L 174.84375 214.78125 L 174.84375 159.257812 L 194.511719 159.257812 C 214.234375 159.257812 224.089844 168.273438 224.089844 186.332031 C 224.089844 194.964844 219.59375 214.78125 194.511719 214.78125 Z M 260.433594 192.734375 C 260.433594 200.164062 258.632812 215.742188 240.304688 215.742188 C 237.390625 215.742188 234.683594 215.234375 232.214844 214.226562 L 232.214844 202.488281 C 234.355469 204.132812 236.757812 204.933594 239.417969 204.933594 C 245.117188 204.933594 247.972656 200.699219 247.972656 192.234375 L 247.972656 159.246094 L 260.445312 159.246094 L 260.445312 192.734375 Z M 260.433594 192.734375 " fill-opacity="1" fill-rule="nonzero"/></g><path fill="#ffffff" d="M 193.457031 169.441406 L 187.339844 169.441406 L 187.339844 204.628906 L 193.535156 204.628906 C 208.320312 204.628906 210.925781 192.078125 210.925781 186.46875 C 210.925781 181.179688 209.101562 169.441406 193.457031 169.441406 Z M 193.457031 169.441406 " fill-opacity="1" fill-rule="nonzero"/></svg>