<svg xmlns="http://www.w3.org/2000/svg" xmlns:xlink="http://www.w3.org/1999/xlink" width="500" zoomAndPan="magnify" viewBox="0 0 375 374.999991" height="500" preserveAspectRatio="xMidYMid meet" version="1.0"><defs><clipPath id="5a3521afc0"><path d="M 196 46.140625 L 328.890625 46.140625 L 328.890625 179 L 196 179 Z M 196 46.140625 " clip-rule="nonzero"/></clipPath><clipPath id="451db57f40"><path d="M 46.140625 196 L 328.890625 196 L 328.890625 328.890625 L 46.140625 328.890625 Z M 46.140625 196 " clip-rule="nonzero"/></clipPath><clipPath id="74d71ded64"><path d="M 46.140625 46.140625 L 179 46.140625 L 179 179 L 46.140625 179 Z M 46.140625 46.140625 " clip-rule="nonzero"/></clipPath></defs><g clip-path="url(#5a3521afc0)"><path fill="#ffffff" d="M 328.855469 166.882812 L 328.855469 57.921875 C 328.855469 51.417969 323.578125 46.140625 317.074219 46.140625 L 208.113281 46.140625 C 201.609375 46.140625 196.332031 51.417969 196.332031 57.921875 L 196.332031 166.882812 C 196.332031 173.386719 201.609375 178.664062 208.113281 178.664062 L 317.074219 178.664062 C 323.578125 178.664062 328.855469 173.386719 328.855469 166.882812 Z M 328.855469 166.882812 " fill-opacity="1" fill-rule="nonzero"/></g><g clip-path="url(#451db57f40)"><path fill="#ffffff" d="M 196.332031 196.332031 L 57.921875 196.332031 C 51.417969 196.332031 46.140625 201.609375 46.140625 208.113281 L 46.140625 317.074219 C 46.140625 323.578125 51.417969 328.855469 57.921875 328.855469 L 317.074219 328.855469 C 323.578125 328.855469 328.855469 323.578125 328.855469 317.074219 L 328.855469 208.113281 C 328.855469 201.609375 323.578125 196.332031 317.074219 196.332031 Z M 196.332031 196.332031 " fill-opacity="1" fill-rule="nonzero"/></g><g clip-path="url(#74d71ded64)"><path fill="#ffffff" d="M 178.664062 166.882812 L 178.664062 57.921875 C 178.664062 51.417969 173.386719 46.140625 166.882812 46.140625 L 57.921875 46.140625 C 51.417969 46.140625 46.140625 51.417969 46.140625 57.921875 L 46.140625 166.882812 C 46.140625 173.386719 51.417969 178.664062 57.921875 178.664062 L 166.882812 178.664062 C 173.386719 178.664062 178.664062 173.386719 178.664062 166.882812 Z M 178.664062 166.882812 " fill-opacity="1" fill-rule="nonzero"/></g></svg>