<svg xmlns="http://www.w3.org/2000/svg" xmlns:xlink="http://www.w3.org/1999/xlink" width="500" zoomAndPan="magnify" viewBox="0 0 375 374.999991" height="500" preserveAspectRatio="xMidYMid meet" version="1.0"><defs><clipPath id="9852531985"><path d="M 52.457031 124 L 246 124 L 246 317.765625 L 52.457031 317.765625 Z M 52.457031 124 " clip-rule="nonzero"/></clipPath><clipPath id="6912ec2226"><path d="M 191 57.515625 L 322.457031 57.515625 L 322.457031 215 L 191 215 Z M 191 57.515625 " clip-rule="nonzero"/></clipPath></defs><g clip-path="url(#9852531985)"><path fill="#ffffff" d="M 241.695312 217.351562 L 152.609375 217.351562 L 152.609375 195.988281 C 154.929688 196.78125 157.382812 197.1875 159.890625 197.1875 C 165.910156 197.1875 171.570312 194.84375 175.828125 190.585938 C 180.082031 186.332031 182.429688 180.671875 182.429688 174.652344 C 182.429688 168.636719 180.101562 162.988281 175.878906 158.742188 C 171.65625 154.496094 166.015625 152.144531 160.003906 152.113281 C 157.453125 152.097656 154.96875 152.507812 152.609375 153.3125 L 152.609375 128.269531 C 152.609375 126.238281 150.960938 124.589844 148.929688 124.589844 L 116.433594 124.589844 C 114.972656 124.589844 113.652344 125.453125 113.066406 126.789062 C 112.476562 128.125 112.738281 129.683594 113.722656 130.757812 C 116.292969 133.554688 117.710938 137.183594 117.722656 140.980469 C 117.734375 145.015625 116.160156 148.828125 113.289062 151.714844 C 110.417969 154.601562 106.613281 156.191406 102.574219 156.199219 C 102.566406 156.199219 102.558594 156.199219 102.546875 156.199219 C 98.5 156.199219 94.691406 154.625 91.824219 151.765625 C 88.953125 148.898438 87.371094 145.082031 87.371094 141.023438 C 87.371094 137.210938 88.789062 133.566406 91.371094 130.757812 C 92.359375 129.683594 92.617188 128.125 92.027344 126.789062 C 91.441406 125.449219 90.121094 124.585938 88.660156 124.585938 L 68.746094 124.585938 C 59.78125 124.585938 52.484375 131.882812 52.484375 140.851562 L 52.484375 251.5 C 52.484375 252.84375 53.21875 254.082031 54.394531 254.726562 C 55.574219 255.375 57.011719 255.328125 58.144531 254.605469 C 60.625 253.023438 63.5 252.203125 66.460938 252.238281 C 70.496094 252.285156 74.269531 253.878906 77.089844 256.730469 C 79.910156 259.585938 81.460938 263.378906 81.460938 267.414062 C 81.460938 275.78125 74.652344 282.589844 66.285156 282.589844 C 63.390625 282.589844 60.574219 281.769531 58.144531 280.222656 C 57.011719 279.5 55.574219 279.453125 54.394531 280.097656 C 53.21875 280.746094 52.484375 281.984375 52.484375 283.328125 L 52.484375 301.214844 C 52.484375 310.179688 59.78125 317.476562 68.746094 317.476562 L 229.113281 317.476562 C 238.078125 317.476562 245.375 310.179688 245.375 301.214844 L 245.375 282.371094 C 245.375 280.96875 244.578125 279.6875 243.320312 279.070312 C 242.0625 278.449219 240.558594 278.597656 239.449219 279.453125 C 236.78125 281.507812 233.582031 282.59375 230.207031 282.59375 C 221.839844 282.59375 215.03125 275.785156 215.03125 267.417969 C 215.03125 263.363281 216.597656 259.554688 219.4375 256.699219 C 222.28125 253.84375 226.078125 252.261719 230.132812 252.238281 C 230.15625 252.238281 230.183594 252.238281 230.210938 252.238281 C 233.585938 252.238281 236.78125 253.324219 239.449219 255.378906 C 240.5625 256.234375 242.0625 256.382812 243.320312 255.761719 C 244.578125 255.144531 245.375 253.863281 245.375 252.460938 L 245.375 221.035156 C 245.375 219 243.726562 217.351562 241.695312 217.351562 Z M 59.847656 140.851562 C 59.847656 135.945312 63.839844 131.949219 68.746094 131.949219 L 81.914062 131.949219 C 80.667969 134.78125 80.011719 137.867188 80.011719 141.027344 C 80.011719 147.054688 82.359375 152.71875 86.625 156.976562 C 90.882812 161.226562 96.535156 163.5625 102.546875 163.5625 C 102.5625 163.5625 102.574219 163.5625 102.589844 163.5625 C 108.59375 163.550781 114.246094 161.1875 118.507812 156.910156 C 122.765625 152.628906 125.101562 146.964844 125.085938 140.960938 C 125.074219 137.824219 124.417969 134.765625 123.179688 131.949219 L 145.25 131.949219 L 145.25 159.308594 C 145.25 160.6875 146.019531 161.949219 147.246094 162.582031 C 148.472656 163.210938 149.949219 163.101562 151.070312 162.300781 C 153.652344 160.453125 156.703125 159.476562 159.890625 159.476562 C 159.914062 159.476562 159.941406 159.476562 159.96875 159.476562 C 164.019531 159.496094 167.816406 161.082031 170.660156 163.9375 C 173.5 166.792969 175.066406 170.597656 175.066406 174.652344 C 175.066406 183.019531 168.257812 189.828125 159.890625 189.828125 C 156.703125 189.828125 153.652344 188.851562 151.070312 187.003906 C 149.949219 186.203125 148.472656 186.09375 147.246094 186.726562 C 146.019531 187.355469 145.25 188.621094 145.25 190 L 145.25 217.355469 L 59.847656 217.355469 Z M 59.847656 301.214844 L 59.847656 289.019531 C 61.921875 289.636719 64.089844 289.953125 66.285156 289.953125 C 72.304688 289.953125 77.964844 287.609375 82.222656 283.351562 C 86.480469 279.097656 88.824219 273.4375 88.824219 267.417969 C 88.824219 261.429688 86.515625 255.796875 82.324219 251.558594 C 78.132812 247.320312 72.53125 244.945312 66.542969 244.878906 C 64.257812 244.855469 62.003906 245.171875 59.847656 245.8125 L 59.847656 224.714844 L 145.25 224.714844 L 145.25 245.4375 C 143.683594 245.082031 142.082031 244.894531 140.476562 244.878906 C 140.402344 244.878906 140.332031 244.878906 140.261719 244.878906 C 134.304688 244.878906 128.6875 247.191406 124.425781 251.410156 C 120.113281 255.675781 117.734375 261.347656 117.726562 267.382812 C 117.714844 273.410156 120.054688 279.074219 124.3125 283.339844 C 128.574219 287.605469 134.238281 289.953125 140.261719 289.953125 C 141.941406 289.953125 143.617188 289.761719 145.25 289.394531 L 145.25 310.117188 L 68.746094 310.117188 C 63.839844 310.117188 59.847656 306.125 59.847656 301.214844 Z M 238.011719 246.261719 C 235.542969 245.347656 232.917969 244.878906 230.210938 244.878906 C 230.171875 244.878906 230.136719 244.878906 230.097656 244.878906 C 224.082031 244.90625 218.445312 247.261719 214.222656 251.507812 C 210 255.75 207.671875 261.402344 207.671875 267.414062 C 207.671875 273.433594 210.015625 279.09375 214.273438 283.351562 C 218.53125 287.609375 224.1875 289.953125 230.210938 289.953125 C 232.914062 289.953125 235.542969 289.484375 238.015625 288.570312 L 238.015625 301.214844 C 238.015625 306.125 234.019531 310.117188 229.113281 310.117188 L 152.609375 310.117188 L 152.609375 284.164062 C 152.609375 282.878906 151.941406 281.6875 150.84375 281.019531 C 149.742188 280.351562 148.378906 280.304688 147.234375 280.898438 C 145.070312 282.023438 142.722656 282.59375 140.261719 282.59375 C 136.203125 282.59375 132.390625 281.011719 129.523438 278.140625 C 126.65625 275.269531 125.078125 271.449219 125.085938 267.394531 C 125.089844 263.335938 126.695312 259.519531 129.601562 256.644531 C 132.511719 253.765625 136.347656 252.203125 140.40625 252.238281 C 142.8125 252.261719 145.113281 252.832031 147.234375 253.933594 C 148.378906 254.523438 149.746094 254.480469 150.84375 253.8125 C 151.941406 253.144531 152.609375 251.953125 152.609375 250.667969 L 152.609375 224.714844 L 238.015625 224.714844 L 238.015625 246.261719 Z M 238.011719 246.261719 " fill-opacity="1" fill-rule="nonzero"/></g><path fill="#ffffff" d="M 288.648438 96.472656 C 289.605469 94.796875 290.15625 92.855469 290.15625 90.789062 C 290.15625 84.449219 285 79.292969 278.660156 79.292969 C 272.324219 79.292969 267.167969 84.453125 267.167969 90.789062 C 267.167969 92.855469 267.714844 94.792969 268.671875 96.46875 C 263.582031 99.796875 260.429688 105.492188 260.429688 111.726562 L 260.429688 115.945312 C 260.429688 117.542969 261.726562 118.835938 263.320312 118.835938 L 294 118.835938 C 295.597656 118.835938 296.890625 117.542969 296.890625 115.945312 L 296.890625 111.726562 C 296.890625 108.03125 295.792969 104.472656 293.710938 101.433594 C 292.351562 99.449219 290.632812 97.769531 288.648438 96.472656 Z M 278.660156 85.078125 C 281.808594 85.078125 284.371094 87.640625 284.371094 90.789062 C 284.371094 93.9375 281.808594 96.5 278.660156 96.5 C 275.511719 96.5 272.949219 93.9375 272.949219 90.789062 C 272.949219 87.640625 275.511719 85.078125 278.660156 85.078125 Z M 291.109375 113.054688 L 266.214844 113.054688 L 266.214844 111.726562 C 266.214844 107.066406 268.789062 102.851562 272.859375 100.710938 C 274.5625 101.710938 276.546875 102.285156 278.660156 102.285156 C 280.773438 102.285156 282.757812 101.710938 284.460938 100.710938 C 288.535156 102.851562 291.109375 107.050781 291.109375 111.726562 Z M 291.109375 113.054688 " fill-opacity="1" fill-rule="nonzero"/><g clip-path="url(#6912ec2226)"><path fill="#ffffff" d="M 320.554688 107.277344 L 314.1875 103.816406 L 314.1875 99.511719 L 320.554688 96.054688 C 321.890625 95.328125 322.519531 93.753906 322.046875 92.308594 L 319.261719 83.734375 C 318.792969 82.285156 317.359375 81.382812 315.851562 81.578125 L 308.667969 82.523438 L 306.136719 79.042969 L 309.253906 72.503906 C 309.910156 71.128906 309.492188 69.484375 308.261719 68.59375 L 300.96875 63.292969 C 299.738281 62.398438 298.042969 62.511719 296.941406 63.558594 L 291.683594 68.542969 L 287.589844 67.214844 L 286.269531 60.089844 C 285.992188 58.59375 284.6875 57.511719 283.167969 57.511719 L 274.152344 57.511719 C 272.632812 57.511719 271.328125 58.59375 271.050781 60.089844 L 269.730469 67.214844 L 265.632812 68.542969 L 260.378906 63.558594 C 259.277344 62.511719 257.582031 62.398438 256.351562 63.292969 L 249.058594 68.59375 C 247.828125 69.484375 247.410156 71.128906 248.066406 72.503906 L 251.183594 79.042969 L 248.652344 82.523438 L 241.46875 81.578125 C 239.960938 81.382812 238.527344 82.285156 238.058594 83.734375 L 236.933594 87.191406 L 194.929688 87.191406 C 193.011719 87.191406 191.457031 88.746094 191.457031 90.660156 L 191.457031 122.089844 C 191.457031 123.410156 192.210938 124.617188 193.394531 125.203125 C 194.582031 125.785156 195.996094 125.644531 197.042969 124.839844 C 199.75 122.757812 202.992188 121.65625 206.414062 121.65625 C 214.898438 121.65625 221.800781 128.5625 221.800781 137.042969 C 221.800781 145.527344 214.898438 152.429688 206.414062 152.429688 C 202.992188 152.429688 199.75 151.332031 197.042969 149.25 C 195.996094 148.441406 194.582031 148.300781 193.394531 148.886719 C 192.210938 149.46875 191.457031 150.679688 191.457031 152 L 191.457031 183.425781 C 191.457031 185.34375 193.011719 186.898438 194.929688 186.898438 L 220.871094 186.898438 C 220.324219 188.816406 220.046875 190.8125 220.046875 192.832031 C 220.046875 204.765625 229.757812 214.476562 241.691406 214.476562 C 253.628906 214.476562 263.339844 204.765625 263.339844 192.832031 C 263.339844 190.8125 263.058594 188.816406 262.511719 186.898438 L 287.691406 186.898438 C 289.609375 186.898438 291.164062 185.34375 291.164062 183.425781 L 291.164062 158.757812 C 292.859375 159.164062 294.609375 159.371094 296.359375 159.371094 C 308.671875 159.371094 318.6875 149.355469 318.6875 137.046875 C 318.6875 133.1875 317.6875 129.382812 315.792969 126.046875 C 314.800781 124.292969 313.570312 122.6875 312.152344 121.265625 L 315.847656 121.75 C 317.355469 121.949219 318.792969 121.042969 319.261719 119.597656 L 322.046875 111.023438 C 322.519531 109.578125 321.890625 108 320.554688 107.277344 Z M 296.363281 152.429688 C 293.867188 152.429688 291.488281 151.851562 289.292969 150.714844 C 288.214844 150.15625 286.925781 150.199219 285.890625 150.828125 C 284.855469 151.457031 284.222656 152.582031 284.222656 153.792969 L 284.222656 179.957031 L 257.253906 179.957031 C 256 179.957031 254.84375 180.632812 254.230469 181.722656 C 253.613281 182.8125 253.636719 184.152344 254.285156 185.222656 C 255.667969 187.511719 256.398438 190.140625 256.398438 192.828125 C 256.398438 200.9375 249.800781 207.535156 241.691406 207.535156 C 233.582031 207.535156 226.984375 200.9375 226.984375 192.828125 C 226.984375 190.140625 227.71875 187.511719 229.101562 185.222656 C 229.75 184.152344 229.773438 182.816406 229.15625 181.722656 C 228.542969 180.632812 227.386719 179.957031 226.132812 179.957031 L 198.398438 179.957031 L 198.398438 157.894531 C 200.925781 158.871094 203.628906 159.371094 206.414062 159.371094 C 218.726562 159.371094 228.742188 149.355469 228.742188 137.042969 C 228.742188 124.734375 218.726562 114.71875 206.414062 114.71875 C 203.628906 114.71875 200.925781 115.21875 198.398438 116.195312 L 198.398438 94.132812 L 235.234375 94.132812 C 235.457031 94.929688 235.992188 95.636719 236.765625 96.054688 L 243.132812 99.511719 L 243.132812 103.820312 L 236.765625 107.277344 C 235.429688 108.003906 234.800781 109.578125 235.273438 111.023438 L 238.058594 119.597656 C 238.527344 121.046875 239.960938 121.949219 241.46875 121.75 L 248.652344 120.804688 L 251.183594 124.289062 L 248.066406 130.828125 C 247.410156 132.203125 247.828125 133.847656 249.058594 134.738281 L 256.351562 140.039062 C 257.582031 140.933594 259.277344 140.820312 260.378906 139.773438 L 265.632812 134.789062 L 269.730469 136.117188 L 271.050781 143.242188 C 271.328125 144.734375 272.632812 145.820312 274.152344 145.820312 L 283.167969 145.820312 C 284.6875 145.820312 285.992188 144.738281 286.269531 143.242188 L 287.589844 136.117188 L 291.683594 134.789062 L 296.941406 139.773438 C 298.042969 140.820312 299.738281 140.933594 300.96875 140.039062 L 308.261719 134.738281 C 309.492188 133.847656 309.910156 132.203125 309.253906 130.828125 L 306.84375 125.777344 C 309.957031 128.660156 311.75 132.699219 311.75 137.046875 C 311.75 145.527344 304.847656 152.429688 296.363281 152.429688 Z M 314.074219 115.152344 L 307.628906 114.304688 C 306.484375 114.15625 305.34375 114.644531 304.664062 115.578125 L 299.929688 122.097656 C 299.25 123.035156 299.136719 124.269531 299.632812 125.3125 L 302.429688 131.175781 L 299.382812 133.390625 L 294.667969 128.917969 C 293.828125 128.125 292.621094 127.851562 291.519531 128.207031 L 283.855469 130.699219 C 282.757812 131.054688 281.941406 131.988281 281.730469 133.125 L 280.542969 139.511719 L 276.773438 139.511719 L 275.589844 133.125 C 275.378906 131.988281 274.5625 131.054688 273.464844 130.699219 L 265.796875 128.207031 C 264.699219 127.851562 263.492188 128.125 262.652344 128.917969 L 257.9375 133.390625 L 254.890625 131.175781 L 257.6875 125.3125 C 258.183594 124.269531 258.070312 123.035156 257.390625 122.097656 L 252.65625 115.578125 C 251.972656 114.644531 250.839844 114.15625 249.691406 114.304688 L 243.246094 115.152344 L 242.082031 111.570312 L 247.792969 108.46875 C 248.808594 107.917969 249.441406 106.851562 249.441406 105.695312 L 249.441406 97.636719 C 249.441406 96.480469 248.808594 95.414062 247.792969 94.863281 L 242.082031 91.761719 L 243.246094 88.179688 L 249.691406 89.027344 C 250.835938 89.179688 251.972656 88.6875 252.65625 87.753906 L 257.390625 81.234375 C 258.070312 80.296875 258.183594 79.066406 257.6875 78.019531 L 254.890625 72.15625 L 257.9375 69.941406 L 262.652344 74.414062 C 263.492188 75.207031 264.699219 75.480469 265.796875 75.125 L 273.464844 72.632812 C 274.5625 72.277344 275.378906 71.34375 275.589844 70.207031 L 276.773438 63.820312 L 280.542969 63.820312 L 281.730469 70.207031 C 281.941406 71.34375 282.757812 72.277344 283.855469 72.632812 L 291.519531 75.125 C 292.621094 75.480469 293.828125 75.207031 294.667969 74.414062 L 299.382812 69.941406 L 302.429688 72.15625 L 299.632812 78.019531 C 299.136719 79.066406 299.25 80.296875 299.929688 81.234375 L 304.664062 87.753906 C 305.34375 88.6875 306.484375 89.179688 307.628906 89.027344 L 314.074219 88.179688 L 315.238281 91.761719 L 309.527344 94.863281 C 308.511719 95.414062 307.878906 96.480469 307.878906 97.636719 L 307.878906 105.695312 C 307.878906 106.851562 308.511719 107.917969 309.527344 108.46875 L 315.238281 111.570312 Z M 314.074219 115.152344 " fill-opacity="1" fill-rule="nonzero"/></g></svg>