<svg width="34" height="22" viewBox="0 0 34 22" fill="none" xmlns="http://www.w3.org/2000/svg">
<mask id="mask0_105_44" style="mask-type:luminance" maskUnits="userSpaceOnUse" x="0" y="0" width="34" height="22">
<path d="M0 0H34V22H0V0Z" fill="white"/>
</mask>
<g mask="url(#mask0_105_44)">
<path d="M33.8802 5.46354C33.875 5.26563 33.8021 5.07813 33.6615 4.9375L29.1511 0.390627C28.8542 0.09896 28.3802 0.0937516 28.0834 0.385418L17.2552 11.125L6.51564 0.302085C6.21877 2.3025e-06 5.7396 1.62698e-06 5.44793 0.291668L0.901059 4.80209C0.604184 5.09896 0.598976 5.57813 0.89585 5.86979L16.6771 21.7813C16.974 22.0781 17.4479 22.0781 17.7448 21.7865L33.6563 6.00521C33.8021 5.86459 33.8802 5.66667 33.8802 5.46354Z" fill="white"/>
</g>
</svg>
