<svg width="94" height="70" viewBox="0 0 94 70" fill="none" xmlns="http://www.w3.org/2000/svg">
<mask id="mask0_2566_2771" style="mask-type:luminance" maskUnits="userSpaceOnUse" x="0" y="0" width="94" height="70">
<path d="M0.734375 0.494812H93.9115V70H0.734375V0.494812Z" fill="white"/>
</mask>
<g mask="url(#mask0_2566_2771)">
<mask id="mask1_2566_2771" style="mask-type:luminance" maskUnits="userSpaceOnUse" x="0" y="0" width="94" height="93">
<path d="M11.7344 0.494812H82.7448C85.6615 0.494812 88.4583 1.65106 90.5208 3.71356C92.5833 5.77606 93.7448 8.57294 93.7448 11.4948V81.9479C93.7448 84.8646 92.5833 87.6615 90.5208 89.724C88.4583 91.7865 85.6615 92.9479 82.7448 92.9479H11.7344C8.81771 92.9479 6.02083 91.7865 3.95312 89.724C1.89062 87.6615 0.734375 84.8646 0.734375 81.9479V11.4948C0.734375 8.57294 1.89062 5.77606 3.95312 3.71356C6.02083 1.65106 8.81771 0.494812 11.7344 0.494812Z" fill="white"/>
</mask>
<g mask="url(#mask1_2566_2771)">
<path d="M0.734375 0.494812H93.9115V92.9479H0.734375V0.494812Z" fill="#0166C8"/>
</g>
</g>
<mask id="mask2_2566_2771" style="mask-type:luminance" maskUnits="userSpaceOnUse" x="18" y="17" width="46" height="53">
<path d="M18.9268 17.625H63.9997V70H18.9268V17.625Z" fill="white"/>
</mask>
<g mask="url(#mask2_2566_2771)">
<path fill-rule="evenodd" clip-rule="evenodd" d="M60.2965 71.698H22.2757C20.4371 71.698 18.9371 70.4063 18.9371 68.8177V20.5052C18.9371 18.9219 20.4371 17.6302 22.2757 17.6302H60.2965C62.1403 17.6302 63.6403 18.9219 63.6403 20.5052V49.3646C63.6403 49.6459 63.4111 49.875 63.1246 49.875C62.8434 49.875 62.609 49.6459 62.609 49.3646L62.6142 20.5052C62.6142 19.4844 61.5726 18.6563 60.2965 18.6563H22.2757C20.9996 18.6563 19.9632 19.4844 19.9632 20.5052V68.8177C19.9632 69.8386 20.9996 70.6719 22.2757 70.6719H60.2965C61.5726 70.6719 62.6142 69.8386 62.6142 68.8177V63.8907C62.6142 63.6094 62.8434 63.3802 63.1246 63.3802C63.4111 63.3802 63.6403 63.6094 63.6403 63.8907V68.8177C63.6403 70.4063 62.1403 71.698 60.2965 71.698Z" fill="white"/>
</g>
<path fill-rule="evenodd" clip-rule="evenodd" d="M31.0264 24.5934C29.3128 24.7184 27.7139 25.4424 26.4847 26.6715C25.1357 28.0205 24.3962 29.8174 24.3962 31.7236C24.3962 33.6299 25.1357 35.4268 26.4847 36.7757C27.8337 38.1247 29.6305 38.8695 31.542 38.8695C33.4482 38.8695 35.2451 38.1247 36.5941 36.7757C37.818 35.5465 38.5472 33.9528 38.667 32.234H31.542C31.2555 32.234 31.0264 32.0049 31.0264 31.7236V24.5934ZM31.542 39.8955C29.3545 39.8955 27.3076 39.0465 25.7607 37.4997C24.2191 35.958 23.3701 33.9059 23.3701 31.7236C23.3701 29.5413 24.2191 27.4893 25.7607 25.9424C27.3024 24.4007 29.3545 23.5518 31.542 23.5518C31.8232 23.5518 32.0524 23.7809 32.0524 24.0622V31.208H39.1982C39.4847 31.208 39.7139 31.4372 39.7139 31.7236C39.7139 33.9059 38.8597 35.958 37.318 37.4997C35.7764 39.0465 33.7243 39.8955 31.542 39.8955Z" fill="white"/>
<path fill-rule="evenodd" clip-rule="evenodd" d="M33.6667 29.5938H40.2812C40.1615 27.8802 39.4323 26.2865 38.2031 25.0573C36.9792 23.8281 35.3802 23.1042 33.6667 22.9844V29.5938ZM40.8125 30.625H33.151C32.8698 30.625 32.6406 30.3906 32.6406 30.1094V22.4531C32.6406 22.1667 32.8698 21.9375 33.151 21.9375C35.3385 21.9375 37.3906 22.7865 38.9323 24.3333C40.474 25.875 41.3281 27.9271 41.3281 30.1094C41.3281 30.3906 41.0938 30.625 40.8125 30.625Z" fill="white"/>
<path fill-rule="evenodd" clip-rule="evenodd" d="M44.901 40.8799H47.2031V29.4528H44.901V40.8799ZM47.7188 41.9059H44.3906C44.1042 41.9059 43.875 41.6768 43.875 41.3955V28.9372C43.875 28.6559 44.1042 28.4268 44.3906 28.4268H47.7188C48 28.4268 48.2292 28.6559 48.2292 28.9372V41.3955C48.2292 41.6768 48 41.9059 47.7188 41.9059Z" fill="white"/>
<path fill-rule="evenodd" clip-rule="evenodd" d="M50.3903 40.8799H52.6924V25.7497H50.3903V40.8799ZM53.208 41.9059H49.8747C49.5934 41.9059 49.3643 41.6768 49.3643 41.3955V25.2393C49.3643 24.9528 49.5934 24.7236 49.8747 24.7236H53.208C53.4893 24.7236 53.7184 24.9528 53.7184 25.2393V41.3955C53.7184 41.6768 53.4893 41.9059 53.208 41.9059Z" fill="white"/>
<path fill-rule="evenodd" clip-rule="evenodd" d="M55.8747 40.8799H58.182V20.9528H55.8747V40.8799ZM58.6924 41.9059H55.3643C55.0778 41.9059 54.8486 41.6768 54.8486 41.3955V20.4372C54.8486 20.1559 55.0778 19.9268 55.3643 19.9268H58.6924C58.9788 19.9268 59.208 20.1559 59.208 20.4372V41.3955C59.208 41.6768 58.9788 41.9059 58.6924 41.9059Z" fill="white"/>
<path fill-rule="evenodd" clip-rule="evenodd" d="M46.3857 48.8229H24.3076C24.0264 48.8229 23.792 48.5937 23.792 48.3073C23.792 48.026 24.0264 47.7969 24.3076 47.7969H46.3857C46.667 47.7969 46.8962 48.026 46.8962 48.3073C46.8962 48.5937 46.667 48.8229 46.3857 48.8229Z" fill="white"/>
<path fill-rule="evenodd" clip-rule="evenodd" d="M46.3857 54.1247H24.3076C24.0264 54.1247 23.792 53.8955 23.792 53.609C23.792 53.3278 24.0264 53.0986 24.3076 53.0986H46.3857C46.667 53.0986 46.8962 53.3278 46.8962 53.609C46.8962 53.8955 46.667 54.1247 46.3857 54.1247Z" fill="white"/>
<path fill-rule="evenodd" clip-rule="evenodd" d="M46.3857 59.4274H24.3076C24.0264 59.4274 23.792 59.1982 23.792 58.917C23.792 58.6305 24.0264 58.4014 24.3076 58.4014H46.3857C46.667 58.4014 46.8962 58.6305 46.8962 58.917C46.8962 59.1982 46.667 59.4274 46.3857 59.4274Z" fill="white"/>
<path fill-rule="evenodd" clip-rule="evenodd" d="M46.3857 64.7292H24.3076C24.0264 64.7292 23.792 64.5 23.792 64.2188C23.792 63.9323 24.0264 63.7031 24.3076 63.7031H46.3857C46.667 63.7031 46.8962 63.9323 46.8962 64.2188C46.8962 64.5 46.667 64.7292 46.3857 64.7292Z" fill="white"/>
<path fill-rule="evenodd" clip-rule="evenodd" d="M57.9899 48.1872C55.818 48.1872 53.7712 49.0361 52.2347 50.5726C49.0628 53.7445 49.0628 58.9059 52.2347 62.0778C55.4066 65.2497 60.568 65.2497 63.7451 62.0778C66.917 58.9059 66.9118 53.7445 63.7451 50.5726C62.2035 49.0361 60.1618 48.1872 57.9899 48.1872ZM57.9899 65.4841C55.6462 65.4841 53.2972 64.5882 51.5107 62.8018C47.9378 59.2288 47.9378 53.4163 51.5107 49.8434C53.2399 48.1143 55.542 47.1611 57.9899 47.1611C60.4378 47.1611 62.7399 48.1143 64.4691 49.8434C68.042 53.4163 68.042 59.2288 64.4691 62.8018C62.6826 64.5882 60.3389 65.4841 57.9899 65.4841Z" fill="white"/>
<path fill-rule="evenodd" clip-rule="evenodd" d="M67.4688 63.8851C67.3385 63.8851 67.2031 63.833 67.1042 63.7341L64.8385 61.4684C64.6354 61.2653 64.6354 60.9424 64.8385 60.7393C65.0365 60.5413 65.3646 60.5413 65.5625 60.7393L67.8281 63.0049C68.0313 63.208 68.0313 63.5309 67.8281 63.7341C67.7292 63.833 67.599 63.8851 67.4688 63.8851ZM65.0365 66.3174C64.901 66.3174 64.7708 66.2653 64.6719 66.1663L62.4063 63.8955C62.2031 63.6976 62.2031 63.3747 62.4063 63.1716C62.6042 62.9736 62.9323 62.9736 63.1302 63.1716L65.3958 65.4372C65.599 65.6403 65.599 65.9632 65.3958 66.1663C65.2969 66.2653 65.1667 66.3174 65.0365 66.3174Z" fill="white"/>
<mask id="mask3_2566_2771" style="mask-type:luminance" maskUnits="userSpaceOnUse" x="62" y="62" width="16" height="8">
<path d="M62.6665 62H77.9269V70H62.6665V62Z" fill="white"/>
</mask>
<g mask="url(#mask3_2566_2771)">
<path fill-rule="evenodd" clip-rule="evenodd" d="M65.2238 66.3385L73.0884 74.2031C73.4582 74.5729 73.9478 74.776 74.479 74.776C75.005 74.776 75.4946 74.5729 75.8644 74.2031C76.63 73.4375 76.63 72.1875 75.8644 71.4219L68.005 63.5625L65.2238 66.3385ZM74.479 75.8021C73.6769 75.8021 72.9269 75.4896 72.3644 74.9271L64.1353 66.7031C63.9373 66.5 63.9373 66.1771 64.1353 65.974L67.6405 62.4687C67.8332 62.276 68.1769 62.276 68.3696 62.4687L76.5936 70.6979C77.1561 71.2604 77.4686 72.0104 77.4686 72.8125C77.4686 73.6146 77.1561 74.3646 76.5936 74.9271C76.0311 75.4896 75.2759 75.8021 74.479 75.8021Z" fill="white"/>
</g>
</svg>
