<svg xmlns="http://www.w3.org/2000/svg" xmlns:xlink="http://www.w3.org/1999/xlink" width="500" zoomAndPan="magnify" viewBox="0 0 375 374.999991" height="500" preserveAspectRatio="xMidYMid meet" version="1.0"><defs><clipPath id="ec35b295b6"><path d="M 81 70 L 300.617188 70 L 300.617188 290 L 81 290 Z M 81 70 " clip-rule="nonzero"/></clipPath></defs><g clip-path="url(#ec35b295b6)"><path fill="#d2c7ff" d="M 289.976562 113.082031 C 300.617188 125.621094 300.597656 142.601562 300.582031 153.457031 C 300.535156 196.246094 297.910156 254.386719 251.449219 278.214844 C 240.578125 283.789062 161.796875 305.203125 117.933594 270.113281 C 79.796875 239.605469 74.367188 183.285156 89.894531 142.136719 C 102.324219 109.203125 131.441406 72.753906 164.121094 70.925781 C 184.675781 69.773438 184.792969 83.433594 225.253906 94.199219 C 260.269531 103.515625 276.964844 97.75 289.976562 113.082031 " fill-opacity="1" fill-rule="nonzero"/></g><path fill="#8c52ff" d="M 182.21875 276.472656 L 94.792969 276.472656 C 91.074219 276.472656 88.058594 273.261719 88.058594 269.300781 L 96.582031 80.613281 C 96.582031 76.652344 99.597656 73.441406 103.316406 73.441406 L 190.742188 73.441406 C 194.460938 73.441406 197.476562 76.652344 197.476562 80.613281 L 188.953125 269.300781 C 188.953125 273.261719 185.9375 276.472656 182.21875 276.472656 " fill-opacity="1" fill-rule="nonzero"/><path fill="#ebe0ff" d="M 177.042969 276.023438 L 89.621094 276.023438 C 85.898438 276.023438 82.882812 272.828125 82.882812 268.882812 L 91.40625 81.023438 C 91.40625 77.078125 94.421875 73.882812 98.140625 73.882812 L 185.5625 73.882812 C 189.285156 73.882812 192.300781 77.078125 192.300781 81.023438 L 183.777344 268.882812 C 183.777344 272.828125 180.761719 276.023438 177.042969 276.023438 " fill-opacity="1" fill-rule="nonzero"/><path fill="#ffffff" d="M 173.082031 271.851562 L 93.398438 271.851562 C 90.007812 271.851562 87.257812 268.9375 87.257812 265.34375 L 95.484375 85.027344 C 95.484375 81.433594 98.230469 78.519531 101.621094 78.519531 L 181.304688 78.519531 C 184.695312 78.519531 187.445312 81.433594 187.445312 85.027344 L 179.21875 265.34375 C 179.21875 268.9375 176.46875 271.851562 173.082031 271.851562 " fill-opacity="1" fill-rule="nonzero"/><path fill="#ebe0ff" d="M 122.910156 78.210938 L 125.019531 81.503906 C 126.300781 83.503906 128.445312 84.707031 130.742188 84.707031 L 152.03125 84.707031 C 154.277344 84.707031 156.386719 83.558594 157.675781 81.625 L 159.960938 78.210938 L 122.910156 78.210938 " fill-opacity="1" fill-rule="nonzero"/><path fill="#000000" d="M 88.6875 141.382812 C 88.898438 141.382812 89.074219 141.21875 89.082031 141.003906 L 89.976562 121.292969 C 89.988281 121.074219 89.816406 120.890625 89.597656 120.882812 C 89.375 120.871094 89.195312 121.039062 89.1875 121.257812 L 88.292969 140.96875 C 88.28125 141.1875 88.449219 141.375 88.667969 141.382812 C 88.675781 141.382812 88.679688 141.382812 88.6875 141.382812 " fill-opacity="1" fill-rule="nonzero"/><path fill="#000000" d="M 89.621094 276.417969 L 177.042969 276.417969 C 180.972656 276.417969 184.171875 273.039062 184.171875 268.882812 L 187.847656 187.867188 C 187.859375 187.648438 187.6875 187.460938 187.472656 187.453125 C 187.246094 187.445312 187.066406 187.613281 187.058594 187.828125 L 183.382812 268.867188 C 183.378906 272.601562 180.535156 275.625 177.042969 275.625 L 89.621094 275.625 C 86.125 275.625 83.28125 272.601562 83.28125 268.882812 L 84.554688 240.792969 C 84.566406 240.574219 84.394531 240.390625 84.175781 240.378906 C 83.949219 240.367188 83.773438 240.539062 83.765625 240.757812 L 82.488281 268.867188 C 82.488281 273.039062 85.6875 276.417969 89.621094 276.417969 " fill-opacity="1" fill-rule="nonzero"/><path fill="#000000" d="M 190.429688 122.625 C 190.640625 122.625 190.816406 122.457031 190.824219 122.246094 L 192.695312 81.039062 C 192.695312 76.867188 189.496094 73.488281 185.5625 73.488281 L 98.140625 73.488281 C 94.210938 73.488281 91.011719 76.867188 91.011719 81.023438 L 90.839844 84.742188 C 90.832031 84.960938 91 85.144531 91.21875 85.15625 C 91.449219 85.164062 91.625 84.996094 91.632812 84.777344 L 91.800781 81.039062 C 91.804688 77.304688 94.644531 74.28125 98.140625 74.28125 L 185.5625 74.28125 C 189.058594 74.28125 191.902344 77.304688 191.902344 81.023438 L 190.035156 122.210938 C 190.023438 122.429688 190.191406 122.613281 190.410156 122.625 C 190.417969 122.625 190.421875 122.625 190.429688 122.625 " fill-opacity="1" fill-rule="nonzero"/><path fill="#ffffff" d="M 127.765625 173.949219 L 144 173.949219 C 151.113281 173.949219 156.882812 179.714844 156.882812 186.832031 C 156.882812 191.53125 156.421875 196.21875 155.511719 200.832031 L 153.179688 212.652344 C 151.546875 220.910156 144.304688 226.867188 135.882812 226.867188 C 127.464844 226.867188 120.21875 220.910156 118.585938 212.652344 L 116.253906 200.832031 C 115.34375 196.21875 114.882812 191.53125 114.882812 186.832031 C 114.882812 179.714844 120.652344 173.949219 127.765625 173.949219 " fill-opacity="1" fill-rule="nonzero"/><path fill="#000000" d="M 144 174.34375 C 150.882812 174.34375 156.484375 179.945312 156.484375 186.832031 C 156.484375 191.496094 156.027344 196.179688 155.125 200.753906 L 152.789062 212.574219 C 151.199219 220.625 144.089844 226.46875 135.882812 226.46875 C 127.675781 226.46875 120.566406 220.625 118.976562 212.574219 L 116.640625 200.753906 C 115.738281 196.179688 115.28125 191.496094 115.28125 186.832031 C 115.28125 179.945312 120.882812 174.34375 127.765625 174.34375 Z M 135.882812 227.261719 C 144.46875 227.261719 151.902344 221.148438 153.566406 212.726562 L 155.898438 200.910156 C 156.8125 196.28125 157.277344 191.546875 157.277344 186.832031 C 157.277344 179.507812 151.320312 173.550781 144 173.550781 L 127.765625 173.550781 C 120.445312 173.550781 114.488281 179.507812 114.488281 186.832031 C 114.488281 191.542969 114.953125 196.28125 115.863281 200.910156 L 118.199219 212.726562 C 119.863281 221.148438 127.300781 227.261719 135.882812 227.261719 " fill-opacity="1" fill-rule="nonzero"/><path fill="#ebe0ff" d="M 132.792969 199.425781 L 138.972656 199.425781 C 142.144531 199.425781 144.71875 196.851562 144.71875 193.675781 L 144.71875 173.949219 L 127.046875 173.949219 L 127.046875 193.675781 C 127.046875 196.851562 129.621094 199.425781 132.792969 199.425781 " fill-opacity="1" fill-rule="nonzero"/><path fill="#000000" d="M 127.046875 174.34375 L 144.71875 174.34375 C 144.9375 174.34375 145.113281 174.167969 145.113281 173.949219 C 145.113281 173.730469 144.9375 173.550781 144.71875 173.550781 L 127.046875 173.550781 C 126.828125 173.550781 126.652344 173.730469 126.652344 173.949219 C 126.652344 174.167969 126.828125 174.34375 127.046875 174.34375 " fill-opacity="1" fill-rule="nonzero"/><path fill="#ffffff" d="M 103.128906 154.035156 L 105.644531 154.035156 L 105.644531 140.640625 L 103.128906 140.640625 C 100.722656 140.640625 98.773438 142.59375 98.773438 145 L 98.773438 149.679688 C 98.773438 152.085938 100.722656 154.035156 103.128906 154.035156 " fill-opacity="1" fill-rule="nonzero"/><path fill="#000000" d="M 105.25 153.640625 L 103.128906 153.640625 C 100.945312 153.640625 99.167969 151.863281 99.167969 149.679688 L 99.167969 145 C 99.167969 142.816406 100.945312 141.039062 103.128906 141.039062 L 105.25 141.039062 Z M 103.128906 154.429688 L 105.644531 154.429688 C 105.863281 154.429688 106.042969 154.253906 106.042969 154.035156 L 106.042969 140.640625 C 106.042969 140.421875 105.863281 140.246094 105.644531 140.246094 L 103.128906 140.246094 C 100.507812 140.246094 98.378906 142.378906 98.378906 145 L 98.378906 149.679688 C 98.378906 152.300781 100.507812 154.429688 103.128906 154.429688 " fill-opacity="1" fill-rule="nonzero"/><path fill="#ffffff" d="M 168.636719 154.035156 L 166.121094 154.035156 L 166.121094 140.640625 L 168.636719 140.640625 C 171.042969 140.640625 172.992188 142.59375 172.992188 145 L 172.992188 149.679688 C 172.992188 152.085938 171.042969 154.035156 168.636719 154.035156 " fill-opacity="1" fill-rule="nonzero"/><path fill="#000000" d="M 168.636719 141.039062 C 170.820312 141.039062 172.597656 142.816406 172.597656 145 L 172.597656 149.679688 C 172.597656 151.863281 170.820312 153.640625 168.636719 153.640625 L 166.515625 153.640625 L 166.515625 141.039062 Z M 166.121094 154.429688 L 168.636719 154.429688 C 171.257812 154.429688 173.386719 152.300781 173.386719 149.679688 L 173.386719 145 C 173.386719 142.378906 171.257812 140.246094 168.636719 140.246094 L 166.121094 140.246094 C 165.902344 140.246094 165.722656 140.421875 165.722656 140.640625 L 165.722656 154.035156 C 165.722656 154.253906 165.902344 154.429688 166.121094 154.429688 " fill-opacity="1" fill-rule="nonzero"/><path fill="#ffffff" d="M 168.285156 146.785156 C 168.285156 132.394531 153.777344 117.507812 135.882812 117.507812 C 117.988281 117.507812 103.480469 132.394531 103.480469 146.785156 C 103.480469 161.175781 117.988281 169.625 135.882812 169.625 C 153.777344 169.625 168.285156 161.175781 168.285156 146.785156 " fill-opacity="1" fill-rule="nonzero"/><path fill="#000000" d="M 135.882812 117.902344 C 154.203125 117.902344 167.890625 133.152344 167.890625 146.785156 C 167.890625 153.507812 164.667969 159.207031 158.574219 163.273438 C 152.816406 167.113281 144.757812 169.230469 135.882812 169.230469 C 127.007812 169.230469 118.949219 167.113281 113.191406 163.273438 C 107.097656 159.207031 103.878906 153.507812 103.878906 146.785156 C 103.878906 133.152344 117.566406 117.902344 135.882812 117.902344 Z M 135.882812 170.019531 C 144.914062 170.019531 153.128906 167.859375 159.015625 163.929688 C 165.339844 159.714844 168.679688 153.785156 168.679688 146.785156 C 168.679688 139.621094 165.175781 132.214844 159.066406 126.460938 C 152.660156 120.429688 144.429688 117.109375 135.882812 117.109375 C 127.335938 117.109375 119.101562 120.429688 112.699219 126.460938 C 106.589844 132.214844 103.085938 139.621094 103.085938 146.785156 C 103.085938 153.785156 106.429688 159.714844 112.75 163.929688 C 118.640625 167.859375 126.851562 170.019531 135.882812 170.019531 " fill-opacity="1" fill-rule="nonzero"/><path fill="#000000" d="M 114.097656 142.464844 L 145.300781 142.464844 C 148.542969 142.464844 151.171875 145.296875 151.171875 148.789062 L 151.171875 152.917969 C 151.171875 155.582031 149.746094 158.40625 147.296875 158.863281 C 138.648438 160.488281 120.75 160.488281 112.101562 158.863281 C 109.652344 158.40625 108.230469 155.582031 108.230469 152.917969 L 108.230469 148.789062 C 108.230469 145.296875 110.855469 142.464844 114.097656 142.464844 " fill-opacity="1" fill-rule="nonzero"/><path fill="#8c52ff" d="M 137.03125 150.769531 C 137.03125 151.941406 137.914062 152.890625 138.996094 152.890625 C 140.082031 152.890625 140.964844 151.941406 140.964844 150.769531 C 140.964844 149.597656 140.082031 148.652344 138.996094 148.652344 C 137.914062 148.652344 137.03125 149.597656 137.03125 150.769531 " fill-opacity="1" fill-rule="nonzero"/><path fill="#8c52ff" d="M 116.109375 150.769531 C 116.109375 151.941406 116.992188 152.890625 118.078125 152.890625 C 119.164062 152.890625 120.042969 151.941406 120.042969 150.769531 C 120.042969 149.597656 119.164062 148.652344 118.078125 148.652344 C 116.992188 148.652344 116.109375 149.597656 116.109375 150.769531 " fill-opacity="1" fill-rule="nonzero"/><path fill="#ebe0ff" d="M 174.3125 284.058594 C 172.921875 282.921875 171.464844 281.863281 169.96875 280.855469 C 166.933594 278.804688 163.738281 276.972656 160.507812 275.195312 C 158.808594 274.261719 157.042969 273.414062 155.300781 272.546875 C 153.546875 271.671875 151.789062 270.804688 150.03125 269.9375 C 148.425781 269.148438 146.816406 268.355469 145.214844 267.5625 C 141.570312 255.238281 137.613281 241.269531 138.398438 241.269531 L 198.160156 239.582031 C 199.566406 239.582031 200.511719 240.726562 200.261719 242.132812 L 193.019531 283.425781 C 192.773438 284.832031 191.429688 285.980469 190.023438 285.980469 L 176.722656 285.980469 C 175.9375 285.316406 175.105469 284.707031 174.3125 284.058594 " fill-opacity="1" fill-rule="nonzero"/><path fill="#ebe0ff" d="M 136.691406 239.726562 L 196.917969 239.726562 C 198.25 239.726562 199.136719 240.804688 198.90625 242.132812 L 191.664062 283.425781 C 191.429688 284.757812 190.164062 285.835938 188.832031 285.835938 L 128.605469 285.835938 C 127.277344 285.835938 126.386719 284.757812 126.621094 283.425781 L 133.863281 242.132812 C 134.097656 240.804688 135.363281 239.726562 136.691406 239.726562 " fill-opacity="1" fill-rule="nonzero"/><path fill="#000000" d="M 194.359375 268.464844 C 194.542969 268.464844 194.710938 268.328125 194.746094 268.136719 L 199.292969 242.203125 C 199.429688 241.433594 199.25 240.710938 198.792969 240.164062 C 198.339844 239.628906 197.675781 239.332031 196.917969 239.332031 L 190.714844 239.332031 C 190.496094 239.332031 190.320312 239.507812 190.320312 239.726562 C 190.320312 239.945312 190.496094 240.125 190.714844 240.125 L 196.917969 240.125 C 197.4375 240.125 197.886719 240.320312 198.183594 240.675781 C 198.492188 241.039062 198.609375 241.53125 198.515625 242.066406 L 193.964844 268 C 193.929688 268.214844 194.074219 268.421875 194.289062 268.460938 C 194.3125 268.460938 194.335938 268.464844 194.359375 268.464844 " fill-opacity="1" fill-rule="nonzero"/><path fill="#000000" d="M 127.078125 281.210938 C 127.269531 281.210938 127.4375 281.074219 127.46875 280.882812 L 134.253906 242.203125 C 134.453125 241.054688 135.546875 240.125 136.691406 240.125 L 162.546875 240.125 C 162.769531 240.125 162.945312 239.945312 162.945312 239.726562 C 162.945312 239.507812 162.769531 239.332031 162.546875 239.332031 L 136.691406 239.332031 C 135.179688 239.332031 133.738281 240.558594 133.472656 242.066406 L 126.6875 280.746094 C 126.652344 280.960938 126.796875 281.164062 127.011719 281.203125 C 127.035156 281.207031 127.054688 281.210938 127.078125 281.210938 " fill-opacity="1" fill-rule="nonzero"/><path fill="#ebe0ff" d="M 119.101562 285.859375 L 189.144531 285.859375 C 190.078125 285.859375 190.835938 286.628906 190.835938 287.621094 C 190.835938 288.613281 190.078125 289.382812 189.144531 289.382812 L 119.101562 289.382812 C 118.164062 289.382812 117.40625 288.613281 117.40625 287.621094 C 117.40625 286.628906 118.164062 285.859375 119.101562 285.859375 " fill-opacity="1" fill-rule="nonzero"/><path fill="#000000" d="M 119.101562 289.78125 L 173.753906 289.78125 L 176.871094 289.722656 C 177.089844 289.71875 177.265625 289.539062 177.261719 289.320312 C 177.257812 289.101562 177.070312 288.925781 176.859375 288.929688 L 173.746094 288.988281 L 119.101562 288.988281 C 118.375 288.988281 117.804688 288.386719 117.804688 287.621094 C 117.804688 286.855469 118.375 286.253906 119.101562 286.253906 L 173.753906 286.253906 L 176.277344 286.324219 C 176.28125 286.324219 176.285156 286.324219 176.289062 286.324219 C 176.5 286.324219 176.675781 286.15625 176.683594 285.941406 C 176.6875 285.722656 176.515625 285.539062 176.296875 285.535156 L 173.765625 285.464844 L 119.101562 285.464844 C 117.929688 285.464844 117.011719 286.410156 117.011719 287.621094 C 117.011719 288.832031 117.929688 289.78125 119.101562 289.78125 " fill-opacity="1" fill-rule="nonzero"/><path fill="#ffffff" d="M 138.175781 241.320312 L 195.097656 241.320312 C 196.355469 241.320312 197.195312 242.324219 196.972656 243.558594 L 190.128906 282.003906 C 189.90625 283.238281 188.710938 284.242188 187.457031 284.242188 L 130.535156 284.242188 C 129.277344 284.242188 128.4375 283.238281 128.660156 282.003906 L 135.503906 243.558594 C 135.722656 242.324219 136.921875 241.320312 138.175781 241.320312 " fill-opacity="1" fill-rule="nonzero"/><path fill="#8c52ff" d="M 196.675781 245.230469 L 196.972656 243.5625 C 197.195312 242.324219 196.355469 241.324219 195.097656 241.324219 L 138.175781 241.324219 C 136.921875 241.324219 135.722656 242.324219 135.503906 243.5625 L 135.207031 245.230469 L 196.675781 245.230469 " fill-opacity="1" fill-rule="nonzero"/><path fill="#d2c7ff" d="M 189.339844 243.222656 C 189.339844 243.789062 188.878906 244.246094 188.3125 244.246094 C 187.742188 244.246094 187.285156 243.789062 187.285156 243.222656 C 187.285156 242.652344 187.742188 242.195312 188.3125 242.195312 C 188.878906 242.195312 189.339844 242.652344 189.339844 243.222656 " fill-opacity="1" fill-rule="nonzero"/><path fill="#d2c7ff" d="M 192.175781 243.28125 C 192.175781 243.847656 191.71875 244.308594 191.152344 244.308594 C 190.582031 244.308594 190.125 243.847656 190.125 243.28125 C 190.125 242.714844 190.582031 242.253906 191.152344 242.253906 C 191.71875 242.253906 192.175781 242.714844 192.175781 243.28125 " fill-opacity="1" fill-rule="nonzero"/><path fill="#d2c7ff" d="M 194.957031 243.28125 C 194.957031 243.847656 194.496094 244.308594 193.929688 244.308594 C 193.363281 244.308594 192.902344 243.847656 192.902344 243.28125 C 192.902344 242.714844 193.363281 242.253906 193.929688 242.253906 C 194.496094 242.253906 194.957031 242.714844 194.957031 243.28125 " fill-opacity="1" fill-rule="nonzero"/><path fill="#ebe0ff" d="M 167.808594 282.421875 L 131.78125 282.421875 C 131.542969 282.421875 131.363281 282.207031 131.40625 281.972656 L 137.925781 247.378906 C 137.933594 247.328125 137.976562 247.292969 138.027344 247.292969 L 174.898438 247.292969 L 168.457031 281.886719 C 168.398438 282.195312 168.128906 282.421875 167.808594 282.421875 " fill-opacity="1" fill-rule="nonzero"/><path fill="#d2c7ff" d="M 188.3125 282.421875 L 169.855469 282.421875 L 176.46875 247.183594 L 194.695312 247.183594 L 188.3125 282.421875 " fill-opacity="1" fill-rule="nonzero"/><path fill="#ebe0ff" d="M 190.417969 260.097656 C 190.792969 260.097656 191.027344 260.421875 190.945312 260.820312 L 189.929688 265.785156 C 189.847656 266.183594 189.480469 266.503906 189.105469 266.5 L 176.277344 266.40625 C 175.90625 266.402344 175.671875 266.078125 175.75 265.679688 L 176.769531 260.71875 C 176.851562 260.320312 177.21875 260 177.59375 260.003906 L 190.417969 260.097656 " fill-opacity="1" fill-rule="nonzero"/><path fill="#ffffff" d="M 190.695312 250.148438 C 191.070312 250.148438 191.308594 250.472656 191.226562 250.871094 L 190.242188 255.839844 C 190.164062 256.238281 189.796875 256.558594 189.421875 256.558594 L 176.597656 256.550781 C 176.222656 256.550781 175.984375 256.226562 176.066406 255.828125 L 177.050781 250.859375 C 177.128906 250.460938 177.496094 250.136719 177.871094 250.136719 L 190.695312 250.148438 " fill-opacity="1" fill-rule="nonzero"/><path fill="#ffffff" d="M 187.175781 269.976562 C 187.550781 269.976562 187.789062 270.300781 187.710938 270.699219 L 186.710938 275.664062 C 186.632812 276.0625 186.265625 276.386719 185.890625 276.382812 L 173.066406 276.34375 C 172.691406 276.34375 172.453125 276.023438 172.535156 275.625 L 173.53125 270.65625 C 173.609375 270.257812 173.976562 269.9375 174.351562 269.9375 L 187.175781 269.976562 " fill-opacity="1" fill-rule="nonzero"/><path fill="#ffffff" d="M 168.578125 255.746094 C 169.382812 255.746094 169.898438 256.441406 169.726562 257.300781 L 167.605469 268.007812 C 167.433594 268.867188 166.644531 269.5625 165.839844 269.5625 L 138.203125 269.539062 C 137.398438 269.539062 136.882812 268.84375 137.054688 267.980469 L 139.175781 257.277344 C 139.34375 256.417969 140.136719 255.71875 140.941406 255.722656 L 168.578125 255.746094 " fill-opacity="1" fill-rule="nonzero"/><path fill="#ffffff" d="M 209.933594 252.242188 L 210.421875 265.226562 L 216.195312 266.667969 L 216.09375 252.445312 L 209.933594 252.242188 " fill-opacity="1" fill-rule="nonzero"/><path fill="#000000" d="M 215.699219 252.832031 L 215.796875 266.160156 L 210.808594 264.914062 L 210.347656 252.652344 Z M 216.195312 267.066406 C 216.28125 267.066406 216.371094 267.035156 216.441406 266.980469 C 216.535156 266.902344 216.59375 266.789062 216.589844 266.664062 L 216.488281 252.445312 C 216.488281 252.230469 216.320312 252.058594 216.105469 252.050781 L 209.949219 251.84375 C 209.835938 251.84375 209.730469 251.886719 209.652344 251.960938 C 209.578125 252.039062 209.535156 252.148438 209.539062 252.257812 L 210.027344 265.242188 C 210.035156 265.417969 210.15625 265.570312 210.328125 265.613281 L 216.101562 267.054688 C 216.132812 267.0625 216.164062 267.066406 216.195312 267.066406 " fill-opacity="1" fill-rule="nonzero"/><path fill="#8c52ff" d="M 209.414062 262.085938 C 208.597656 263.015625 207.117188 264.765625 205.984375 266.453125 C 205.269531 267.515625 205.484375 268.945312 206.457031 269.777344 C 209.203125 272.125 215.734375 277 221.875 280.269531 C 222.292969 280.492188 223.183594 280.664062 224.027344 279.800781 C 226.863281 276.902344 221.609375 272.296875 216.84375 265.730469 C 216.65625 265.472656 216.339844 265.34375 216.027344 265.40625 L 214.910156 265.621094 C 213.789062 265.835938 212.652344 265.359375 212.019531 264.410156 L 210.519531 262.160156 C 210.265625 261.777344 209.714844 261.742188 209.414062 262.085938 " fill-opacity="1" fill-rule="nonzero"/><path fill="#000000" d="M 216.179688 265.785156 C 216.3125 265.785156 216.441406 265.851562 216.523438 265.964844 C 217.644531 267.507812 218.769531 268.914062 219.851562 270.273438 C 223.230469 274.5 225.671875 277.554688 223.746094 279.523438 C 222.953125 280.332031 222.203125 279.996094 222.058594 279.921875 C 215.976562 276.683594 209.550781 271.898438 206.714844 269.472656 C 205.886719 268.769531 205.714844 267.566406 206.3125 266.675781 C 207.445312 264.992188 208.925781 263.242188 209.710938 262.347656 C 209.773438 262.277344 209.863281 262.238281 209.960938 262.246094 C 210.054688 262.25 210.136719 262.300781 210.191406 262.378906 L 211.691406 264.628906 C 212.414062 265.710938 213.707031 266.253906 214.984375 266.007812 L 216.101562 265.792969 C 216.128906 265.789062 216.152344 265.785156 216.179688 265.785156 Z M 222.621094 280.84375 C 223.15625 280.84375 223.761719 280.640625 224.3125 280.078125 C 226.726562 277.609375 223.964844 274.152344 220.472656 269.777344 C 219.390625 268.425781 218.273438 267.03125 217.164062 265.5 C 216.886719 265.117188 216.414062 264.929688 215.953125 265.015625 L 214.835938 265.230469 C 213.871094 265.417969 212.894531 265.007812 212.347656 264.191406 L 210.847656 261.941406 C 210.660156 261.652344 210.355469 261.476562 210.011719 261.453125 C 209.667969 261.433594 209.339844 261.566406 209.113281 261.824219 C 208.320312 262.734375 206.8125 264.511719 205.65625 266.234375 C 204.832031 267.457031 205.066406 269.109375 206.199219 270.074219 C 209.0625 272.523438 215.550781 277.351562 221.6875 280.621094 C 221.941406 280.753906 222.265625 280.84375 222.621094 280.84375 " fill-opacity="1" fill-rule="nonzero"/><path fill="#ffffff" d="M 206.15625 266.199219 C 206.15625 266.199219 206.039062 266.371094 205.984375 266.453125 C 205.269531 267.515625 205.484375 268.945312 206.457031 269.777344 C 209.203125 272.125 215.734375 277 221.875 280.269531 C 222.292969 280.492188 223.183594 280.664062 224.027344 279.800781 C 224.289062 279.535156 224.609375 278.964844 224.609375 278.964844 L 224.183594 278.714844 C 218.136719 275.167969 212.359375 271.1875 206.894531 266.796875 L 206.15625 266.199219 " fill-opacity="1" fill-rule="nonzero"/><path fill="#000000" d="M 224.0625 279.101562 C 223.960938 279.257812 223.84375 279.425781 223.746094 279.523438 C 222.953125 280.332031 222.203125 279.996094 222.058594 279.921875 C 215.976562 276.683594 209.550781 271.898438 206.714844 269.472656 C 205.921875 268.796875 205.730469 267.660156 206.246094 266.78125 L 206.648438 267.105469 C 212.109375 271.492188 217.941406 275.511719 223.984375 279.058594 Z M 222.621094 280.84375 C 223.15625 280.84375 223.761719 280.640625 224.3125 280.078125 C 224.597656 279.785156 224.917969 279.222656 224.953125 279.160156 C 225.058594 278.96875 224.996094 278.730469 224.808594 278.621094 L 224.386719 278.375 C 218.375 274.851562 212.574219 270.851562 207.144531 266.488281 L 206.40625 265.890625 C 206.316406 265.824219 206.207031 265.792969 206.097656 265.808594 C 205.988281 265.824219 205.890625 265.886719 205.828125 265.976562 C 205.828125 265.976562 205.710938 266.152344 205.65625 266.234375 C 204.832031 267.457031 205.066406 269.109375 206.199219 270.074219 C 209.0625 272.523438 215.550781 277.351562 221.6875 280.621094 C 221.941406 280.753906 222.265625 280.84375 222.621094 280.84375 " fill-opacity="1" fill-rule="nonzero"/><path fill="#000000" d="M 215.945312 270.671875 C 215.972656 270.671875 216 270.671875 216.027344 270.664062 L 219.710938 269.894531 C 219.925781 269.847656 220.066406 269.640625 220.019531 269.425781 C 219.976562 269.210938 219.765625 269.074219 219.550781 269.121094 L 215.867188 269.890625 C 215.652344 269.933594 215.515625 270.144531 215.558594 270.355469 C 215.597656 270.542969 215.765625 270.671875 215.945312 270.671875 " fill-opacity="1" fill-rule="nonzero"/><path fill="#000000" d="M 217.984375 272.335938 C 218.011719 272.335938 218.042969 272.332031 218.070312 272.324219 L 221.058594 271.640625 C 221.273438 271.59375 221.40625 271.378906 221.359375 271.167969 C 221.308594 270.953125 221.097656 270.820312 220.882812 270.871094 L 217.894531 271.554688 C 217.679688 271.601562 217.546875 271.8125 217.597656 272.027344 C 217.636719 272.210938 217.800781 272.335938 217.984375 272.335938 " fill-opacity="1" fill-rule="nonzero"/><path fill="#ffffff" d="M 209.394531 259.867188 L 211.363281 273.953125 L 205.449219 273.28125 L 203.261719 260.472656 L 209.394531 259.867188 " fill-opacity="1" fill-rule="nonzero"/><path fill="#000000" d="M 209.054688 260.296875 L 210.898438 273.5 L 205.792969 272.921875 L 203.722656 260.824219 Z M 211.363281 274.347656 C 211.46875 274.347656 211.570312 274.304688 211.644531 274.230469 C 211.730469 274.140625 211.769531 274.019531 211.753906 273.898438 L 209.789062 259.8125 C 209.757812 259.601562 209.570312 259.449219 209.355469 259.472656 L 203.222656 260.078125 C 203.113281 260.089844 203.015625 260.144531 202.949219 260.230469 C 202.882812 260.320312 202.855469 260.429688 202.875 260.539062 L 205.0625 273.347656 C 205.089844 273.523438 205.230469 273.65625 205.40625 273.675781 L 211.316406 274.347656 C 211.332031 274.347656 211.347656 274.347656 211.363281 274.347656 " fill-opacity="1" fill-rule="nonzero"/><path fill="#8c52ff" d="M 204.054688 271.964844 C 203.882812 273.191406 203.601562 275.460938 203.578125 277.496094 C 203.5625 278.777344 204.523438 279.855469 205.792969 280.015625 C 209.378906 280.476562 217.511719 280.980469 224.441406 280.351562 C 224.914062 280.308594 225.753906 279.964844 225.988281 278.777344 C 226.769531 274.800781 219.710938 272.859375 212.125 269.976562 C 211.828125 269.863281 211.492188 269.929688 211.265625 270.152344 L 210.445312 270.941406 C 209.628906 271.734375 208.558594 272.925781 207.507812 272.480469 L 205.019531 271.421875 C 204.597656 271.238281 204.117188 271.511719 204.054688 271.964844 " fill-opacity="1" fill-rule="nonzero"/><path fill="#000000" d="M 211.832031 270.316406 C 211.886719 270.316406 211.9375 270.328125 211.988281 270.347656 C 212.992188 270.726562 213.988281 271.09375 214.953125 271.449219 C 220.996094 273.667969 226.210938 275.582031 225.597656 278.703125 C 225.378906 279.8125 224.566406 279.941406 224.402344 279.957031 C 217.542969 280.582031 209.542969 280.101562 205.84375 279.625 C 204.765625 279.484375 203.964844 278.574219 203.972656 277.5 C 203.996094 275.476562 204.28125 273.199219 204.445312 272.023438 C 204.460938 271.925781 204.515625 271.847656 204.597656 271.800781 C 204.679688 271.753906 204.777344 271.746094 204.867188 271.785156 L 207.351562 272.84375 C 208.558594 273.359375 209.6875 272.246094 210.511719 271.433594 L 211.539062 270.433594 C 211.621094 270.359375 211.726562 270.316406 211.832031 270.316406 Z M 217.222656 281.046875 C 219.628906 281.046875 222.117188 280.960938 224.476562 280.746094 C 225.191406 280.679688 226.121094 280.144531 226.375 278.855469 C 227.121094 275.074219 221.871094 273.144531 215.226562 270.703125 C 214.265625 270.351562 213.269531 269.984375 212.269531 269.605469 C 211.828125 269.4375 211.328125 269.539062 210.988281 269.867188 L 209.957031 270.871094 C 209.253906 271.5625 208.378906 272.421875 207.664062 272.117188 L 205.175781 271.054688 C 204.859375 270.921875 204.507812 270.941406 204.210938 271.109375 C 203.910156 271.277344 203.710938 271.570312 203.664062 271.910156 C 203.492188 273.105469 203.207031 275.421875 203.183594 277.492188 C 203.167969 278.964844 204.265625 280.21875 205.742188 280.410156 C 208.207031 280.726562 212.558594 281.046875 217.222656 281.046875 " fill-opacity="1" fill-rule="nonzero"/><path fill="#ffffff" d="M 203.585938 277.191406 C 203.585938 277.191406 203.582031 277.398438 203.578125 277.496094 C 203.5625 278.777344 204.523438 279.855469 205.792969 280.015625 C 209.378906 280.476562 217.511719 280.980469 224.441406 280.351562 C 224.914062 280.308594 225.753906 279.964844 225.988281 278.777344 C 226.058594 278.417969 226.011719 277.761719 226.011719 277.761719 L 225.523438 277.785156 C 218.519531 278.128906 211.503906 277.964844 204.527344 277.285156 L 203.585938 277.191406 " fill-opacity="1" fill-rule="nonzero"/><path fill="#000000" d="M 225.632812 278.175781 C 225.632812 278.363281 225.625 278.566406 225.597656 278.703125 C 225.378906 279.8125 224.566406 279.941406 224.402344 279.957031 C 217.542969 280.582031 209.542969 280.101562 205.84375 279.625 C 204.808594 279.492188 204.027344 278.644531 203.976562 277.628906 L 204.492188 277.675781 C 211.460938 278.355469 218.546875 278.527344 225.542969 278.179688 Z M 217.222656 281.046875 C 219.628906 281.046875 222.117188 280.960938 224.476562 280.746094 C 225.191406 280.679688 226.121094 280.144531 226.375 278.855469 C 226.453125 278.453125 226.414062 277.808594 226.410156 277.734375 C 226.394531 277.519531 226.207031 277.355469 225.996094 277.367188 L 225.503906 277.390625 C 218.546875 277.734375 211.5 277.566406 204.566406 276.890625 L 203.625 276.796875 C 203.511719 276.789062 203.402344 276.820312 203.320312 276.894531 C 203.238281 276.96875 203.191406 277.074219 203.1875 277.183594 L 203.183594 277.492188 C 203.167969 278.964844 204.265625 280.21875 205.742188 280.410156 C 208.207031 280.726562 212.558594 281.046875 217.222656 281.046875 " fill-opacity="1" fill-rule="nonzero"/><path fill="#000000" d="M 214.007812 275.632812 C 214.113281 275.632812 214.214844 275.59375 214.292969 275.511719 L 217.421875 272.285156 C 217.574219 272.128906 217.570312 271.878906 217.414062 271.726562 C 217.257812 271.574219 217.003906 271.578125 216.851562 271.734375 L 213.722656 274.960938 C 213.570312 275.121094 213.574219 275.371094 213.730469 275.519531 C 213.808594 275.597656 213.90625 275.632812 214.007812 275.632812 " fill-opacity="1" fill-rule="nonzero"/><path fill="#000000" d="M 216.621094 275.910156 C 216.726562 275.910156 216.828125 275.871094 216.90625 275.789062 L 219.574219 273.03125 C 219.726562 272.871094 219.722656 272.621094 219.566406 272.46875 C 219.40625 272.316406 219.15625 272.324219 219.003906 272.480469 L 216.335938 275.238281 C 216.183594 275.394531 216.191406 275.648438 216.347656 275.796875 C 216.425781 275.875 216.523438 275.910156 216.621094 275.910156 " fill-opacity="1" fill-rule="nonzero"/><path fill="#000000" d="M 215.71875 173.519531 C 215.71875 173.519531 228.722656 201.335938 233.441406 214.628906 C 234.335938 217.15625 231.675781 221.796875 231.675781 221.796875 L 217.574219 262.054688 L 210.988281 262.125 C 210.988281 262.125 209.1875 235.257812 216.457031 220.753906 C 217.140625 219.390625 217.160156 217.789062 216.527344 216.40625 L 205.75 192.960938 L 202.960938 178.269531 L 215.71875 173.519531 " fill-opacity="1" fill-rule="nonzero"/><path fill="#000000" d="M 191.757812 179.183594 C 191.757812 179.183594 196.597656 210.675781 197.222656 218.664062 C 197.851562 226.65625 195.875 233.429688 196.328125 239.945312 C 196.828125 247.105469 203.230469 267.363281 203.230469 267.363281 L 211.382812 267.03125 L 211.769531 188.808594 L 213.6875 175.203125 L 191.757812 179.183594 " fill-opacity="1" fill-rule="nonzero"/><path fill="#d2c7ff" d="M 195.128906 195.523438 C 195.234375 195.523438 195.339844 195.480469 195.417969 195.398438 C 199.269531 191.285156 199.871094 185.5625 199.894531 185.320312 C 199.917969 185.101562 199.757812 184.90625 199.542969 184.886719 C 199.324219 184.863281 199.128906 185.023438 199.109375 185.242188 C 199.101562 185.296875 198.503906 190.945312 194.839844 194.855469 C 194.691406 195.015625 194.699219 195.265625 194.859375 195.414062 C 194.933594 195.488281 195.03125 195.523438 195.128906 195.523438 " fill-opacity="1" fill-rule="nonzero"/><path fill="#d2c7ff" d="M 212.0625 208.035156 C 212.066406 208.035156 212.074219 208.035156 212.078125 208.035156 C 212.296875 208.023438 212.464844 207.839844 212.457031 207.621094 C 212.355469 205.257812 212.402344 200.28125 212.4375 197.527344 C 212.460938 195.902344 212.886719 194.289062 213.671875 192.871094 C 214.539062 191.300781 215.15625 190.113281 215.507812 189.34375 L 216.015625 188.226562 C 216.109375 188.027344 216.019531 187.792969 215.820312 187.699219 C 215.621094 187.609375 215.386719 187.695312 215.296875 187.898438 L 214.789062 189.015625 C 214.449219 189.757812 213.820312 190.957031 212.976562 192.488281 C 212.128906 194.019531 211.671875 195.761719 211.648438 197.515625 C 211.601562 200.890625 211.566406 205.390625 211.667969 207.65625 C 211.675781 207.867188 211.851562 208.035156 212.0625 208.035156 " fill-opacity="1" fill-rule="nonzero"/><path fill="#d2c7ff" d="M 211.382812 261.621094 C 211.601562 261.621094 211.777344 261.441406 211.777344 261.226562 C 211.777344 247.105469 212.464844 230.667969 212.472656 230.503906 C 212.484375 230.285156 212.3125 230.101562 212.09375 230.089844 C 211.875 230.082031 211.691406 230.25 211.683594 230.46875 C 211.675781 230.632812 210.984375 247.089844 210.984375 261.226562 C 210.984375 261.441406 211.164062 261.621094 211.382812 261.621094 " fill-opacity="1" fill-rule="nonzero"/><path fill="#ffffff" d="M 227.484375 156.480469 L 230.773438 156.894531 C 230.773438 156.894531 231.628906 154.664062 233.726562 152.144531 C 234.480469 151.242188 237.464844 143.796875 236.507812 144.261719 C 230.714844 147.082031 231.308594 142.738281 229.015625 143.492188 C 228.191406 143.761719 227.730469 145.132812 227.527344 147.121094 C 227.25 149.84375 227.484375 156.480469 227.484375 156.480469 " fill-opacity="1" fill-rule="nonzero"/><path fill="#000000" d="M 236.265625 144.8125 C 235.984375 146.34375 234.011719 151.183594 233.421875 151.890625 C 231.722656 153.933594 230.828125 155.773438 230.523438 156.464844 L 227.871094 156.128906 C 227.828125 154.746094 227.683594 149.476562 227.917969 147.160156 C 228.1875 144.554688 228.796875 143.980469 229.136719 143.867188 C 229.742188 143.667969 230.03125 143.910156 230.582031 144.425781 C 231.484375 145.273438 232.707031 146.417969 236.265625 144.8125 Z M 227.484375 156.480469 Z M 230.773438 157.292969 C 230.933594 157.292969 231.082031 157.191406 231.140625 157.039062 C 231.148438 157.015625 232.003906 154.832031 234.03125 152.398438 C 234.441406 151.90625 235.316406 149.933594 235.972656 148.234375 C 237.386719 144.574219 237.109375 144.21875 236.960938 144.03125 C 236.8125 143.839844 236.566406 143.792969 236.332031 143.90625 C 232.945312 145.554688 231.976562 144.648438 231.125 143.847656 C 230.582031 143.339844 229.96875 142.761719 228.890625 143.113281 C 227.949219 143.421875 227.375 144.71875 227.132812 147.082031 C 226.855469 149.796875 227.082031 156.222656 227.089844 156.492188 C 227.097656 156.6875 227.242188 156.847656 227.4375 156.871094 L 230.722656 157.289062 C 230.738281 157.289062 230.757812 157.292969 230.773438 157.292969 " fill-opacity="1" fill-rule="nonzero"/><path fill="#ffffff" d="M 225.851562 153.152344 C 225.75 153.332031 225.75 153.550781 225.851562 153.730469 C 225.949219 153.910156 226.136719 154.023438 226.339844 154.035156 L 232.25 154.28125 C 232.523438 154.292969 232.78125 154.152344 232.914062 153.914062 L 239.179688 142.792969 C 239.28125 142.613281 239.28125 142.394531 239.183594 142.214844 C 239.082031 142.035156 238.894531 141.921875 238.691406 141.910156 L 232.78125 141.660156 C 232.507812 141.652344 232.253906 141.792969 232.121094 142.03125 L 225.851562 153.152344 " fill-opacity="1" fill-rule="nonzero"/><path fill="#000000" d="M 232.75 142.058594 C 232.753906 142.058594 232.761719 142.058594 232.765625 142.058594 L 238.675781 142.304688 C 238.742188 142.308594 238.804688 142.347656 238.835938 142.40625 C 238.871094 142.464844 238.867188 142.539062 238.835938 142.597656 L 232.566406 153.71875 C 232.507812 153.828125 232.394531 153.894531 232.269531 153.886719 L 226.359375 153.636719 C 226.292969 153.636719 226.230469 153.597656 226.195312 153.539062 C 226.164062 153.480469 226.164062 153.40625 226.195312 153.347656 L 232.464844 142.226562 C 232.523438 142.121094 232.632812 142.058594 232.75 142.058594 Z M 232.285156 154.679688 C 232.6875 154.679688 233.058594 154.464844 233.257812 154.109375 L 239.527344 142.984375 C 239.691406 142.6875 239.695312 142.320312 239.527344 142.023438 C 239.363281 141.722656 239.046875 141.53125 238.707031 141.515625 L 232.796875 141.265625 C 232.378906 141.25 231.980469 141.464844 231.773438 141.835938 L 225.507812 152.957031 C 225.339844 153.257812 225.339844 153.625 225.503906 153.921875 C 225.667969 154.222656 225.984375 154.414062 226.324219 154.429688 L 232.234375 154.679688 C 232.25 154.679688 232.265625 154.679688 232.285156 154.679688 " fill-opacity="1" fill-rule="nonzero"/><path fill="#ffffff" d="M 239.566406 145.109375 C 239.265625 144.460938 238.570312 144.070312 237.871094 144.210938 C 237.140625 144.359375 236.203125 144.894531 235.613281 146.546875 C 234.578125 149.441406 232.050781 153.015625 234.054688 153.015625 C 235.335938 153.015625 239.191406 150.6875 239.863281 148.136719 C 240.074219 147.339844 240.015625 146.066406 239.566406 145.109375 " fill-opacity="1" fill-rule="nonzero"/><path fill="#000000" d="M 239.566406 145.109375 Z M 238.160156 144.578125 C 238.59375 144.578125 239.007812 144.847656 239.210938 145.277344 C 239.628906 146.175781 239.664062 147.34375 239.480469 148.035156 C 238.859375 150.390625 235.203125 152.617188 234.054688 152.617188 C 233.957031 152.617188 233.789062 152.605469 233.742188 152.527344 C 233.492188 152.136719 234.265625 150.507812 234.832031 149.320312 C 235.246094 148.445312 235.675781 147.542969 235.984375 146.679688 C 236.410156 145.492188 237.085938 144.773438 237.945312 144.601562 C 238.019531 144.585938 238.089844 144.578125 238.160156 144.578125 Z M 234.054688 153.410156 C 235.5625 153.410156 239.542969 150.910156 240.246094 148.238281 C 240.457031 147.433594 240.449219 146.058594 239.925781 144.941406 C 239.539062 144.109375 238.660156 143.648438 237.792969 143.824219 C 236.992188 143.984375 235.898438 144.566406 235.238281 146.410156 C 234.941406 147.238281 234.523438 148.125 234.117188 148.980469 C 233.261719 150.773438 232.589844 152.191406 233.070312 152.953125 C 233.203125 153.160156 233.480469 153.410156 234.054688 153.410156 " fill-opacity="1" fill-rule="nonzero"/><path fill="#ebe0ff" d="M 178.511719 155.582031 C 180.894531 149.355469 186.769531 145.148438 193.425781 144.796875 C 198.851562 144.511719 208.234375 145.824219 212.316406 152.121094 C 214.800781 155.957031 216.554688 159.175781 219.632812 159.730469 C 223.992188 160.515625 226.558594 155.785156 226.558594 155.785156 L 231.832031 156.351562 C 231.832031 156.351562 229.824219 170.574219 220.730469 172.84375 C 219.523438 173.144531 218.214844 173.097656 216.878906 172.828125 C 217.265625 174.289062 217.621094 175.628906 217.621094 175.628906 C 217.621094 175.628906 204.46875 180.480469 198.765625 181.554688 C 193.253906 182.589844 190.484375 181.808594 190.484375 181.808594 L 189.257812 171.507812 C 189.257812 171.507812 187.871094 176.902344 188.488281 180.53125 C 190.171875 190.453125 197.421875 190.9375 197.421875 190.9375 C 196.828125 192.40625 195.976562 193.753906 194.898438 194.917969 L 194.785156 195.039062 C 194.785156 195.039062 178.660156 197.542969 176.378906 178.28125 C 175.160156 168.007812 176.59375 160.601562 178.511719 155.582031 " fill-opacity="1" fill-rule="nonzero"/><path fill="#000000" d="M 194.589844 194.664062 C 193.664062 194.773438 188.058594 195.242188 183.378906 191.683594 C 179.722656 188.902344 177.5 184.378906 176.773438 178.234375 C 175.753906 169.621094 176.464844 162.046875 178.882812 155.722656 C 181.199219 149.671875 186.914062 145.539062 193.445312 145.195312 C 199.648438 144.867188 208.226562 146.542969 211.980469 152.335938 C 212.230469 152.722656 212.472656 153.101562 212.710938 153.472656 C 214.894531 156.890625 216.621094 159.59375 219.566406 160.121094 C 219.929688 160.1875 220.28125 160.214844 220.621094 160.214844 C 224.070312 160.21875 226.222656 157.101562 226.773438 156.207031 L 231.371094 156.699219 C 230.957031 159.011719 228.519531 170.492188 220.636719 172.460938 C 219.570312 172.726562 218.332031 172.71875 216.957031 172.441406 C 216.824219 172.414062 216.6875 172.457031 216.59375 172.554688 C 216.496094 172.65625 216.460938 172.796875 216.496094 172.929688 C 216.761719 173.9375 217.015625 174.890625 217.144531 175.382812 C 215.050781 176.144531 203.789062 180.207031 198.691406 181.164062 C 194.277344 181.992188 191.632812 181.636719 190.84375 181.484375 L 189.652344 171.460938 C 189.628906 171.273438 189.476562 171.125 189.285156 171.113281 C 189.089844 171.097656 188.921875 171.222656 188.875 171.410156 C 188.816406 171.632812 187.472656 176.929688 188.097656 180.597656 C 189.546875 189.113281 195.097656 190.898438 196.859375 191.25 C 196.296875 192.5 195.542969 193.640625 194.609375 194.648438 Z M 192.945312 195.546875 C 194.050781 195.546875 194.761719 195.445312 194.847656 195.429688 C 194.933594 195.417969 195.015625 195.375 195.078125 195.308594 L 195.191406 195.183594 C 196.300781 193.984375 197.175781 192.605469 197.789062 191.085938 C 197.835938 190.96875 197.824219 190.835938 197.757812 190.730469 C 197.691406 190.621094 197.574219 190.554688 197.449219 190.542969 C 197.167969 190.523438 190.488281 189.9375 188.878906 180.464844 C 188.535156 178.449219 188.835938 175.84375 189.15625 173.980469 L 190.089844 181.855469 C 190.109375 182.015625 190.21875 182.148438 190.375 182.191406 C 190.492188 182.222656 193.296875 182.984375 198.839844 181.941406 C 204.507812 180.875 217.625 176.050781 217.757812 176 C 217.949219 175.929688 218.054688 175.726562 218 175.527344 C 218 175.527344 217.738281 174.535156 217.421875 173.324219 C 218.667969 173.511719 219.8125 173.480469 220.828125 173.226562 C 230.074219 170.921875 232.140625 157 232.222656 156.40625 C 232.238281 156.300781 232.210938 156.191406 232.144531 156.109375 C 232.078125 156.023438 231.980469 155.96875 231.875 155.957031 L 226.601562 155.390625 C 226.441406 155.375 226.289062 155.457031 226.210938 155.59375 C 226.1875 155.640625 223.726562 160.0625 219.703125 159.339844 C 217.105469 158.875 215.460938 156.300781 213.378906 153.042969 C 213.140625 152.671875 212.898438 152.292969 212.644531 151.90625 C 208.707031 145.828125 199.820312 144.066406 193.402344 144.402344 C 186.558594 144.761719 180.570312 149.097656 178.144531 155.441406 C 175.675781 161.886719 174.953125 169.589844 175.984375 178.328125 C 176.738281 184.699219 179.070312 189.40625 182.90625 192.320312 C 186.546875 195.085938 190.617188 195.546875 192.945312 195.546875 " fill-opacity="1" fill-rule="nonzero"/><path fill="#000000" d="M 216.472656 170.851562 C 216.496094 170.851562 216.523438 170.847656 216.550781 170.84375 C 216.765625 170.800781 216.902344 170.589844 216.859375 170.375 C 215.210938 162.390625 211.105469 155.035156 211.066406 154.960938 C 210.960938 154.769531 210.71875 154.703125 210.527344 154.808594 C 210.335938 154.917969 210.269531 155.160156 210.375 155.347656 C 210.414062 155.421875 214.460938 162.675781 216.082031 170.535156 C 216.121094 170.722656 216.285156 170.851562 216.472656 170.851562 " fill-opacity="1" fill-rule="nonzero"/><path fill="#000000" d="M 189.257812 171.902344 C 189.414062 171.902344 189.5625 171.8125 189.625 171.660156 L 193.824219 161.476562 C 193.90625 161.277344 193.8125 161.042969 193.609375 160.960938 C 193.40625 160.878906 193.175781 160.972656 193.09375 161.175781 L 188.894531 171.355469 C 188.808594 171.558594 188.90625 171.789062 189.109375 171.875 C 189.15625 171.894531 189.210938 171.902344 189.257812 171.902344 " fill-opacity="1" fill-rule="nonzero"/><path fill="#ffffff" d="M 194.699219 133.152344 L 192.101562 145.140625 C 191.992188 145.644531 192.222656 146.160156 192.675781 146.40625 L 193.183594 146.691406 C 194.707031 147.535156 196.472656 147.847656 198.195312 147.570312 C 198.738281 147.484375 199.148438 147.03125 199.179688 146.480469 L 199.679688 137.390625 L 194.699219 133.152344 " fill-opacity="1" fill-rule="nonzero"/><path fill="#000000" d="M 199.273438 137.5625 L 198.78125 146.460938 C 198.761719 146.820312 198.492188 147.121094 198.132812 147.179688 C 196.507812 147.441406 194.816406 147.144531 193.375 146.34375 L 192.867188 146.0625 C 192.566406 145.894531 192.414062 145.558594 192.488281 145.222656 L 194.945312 133.882812 Z M 196.976562 148.0625 C 197.40625 148.0625 197.832031 148.03125 198.257812 147.964844 C 198.980469 147.847656 199.535156 147.234375 199.574219 146.503906 L 200.074219 137.410156 C 200.082031 137.285156 200.03125 137.167969 199.9375 137.085938 L 194.957031 132.851562 C 194.847656 132.761719 194.703125 132.734375 194.570312 132.777344 C 194.441406 132.824219 194.339844 132.933594 194.3125 133.070312 L 191.714844 145.054688 C 191.566406 145.734375 191.875 146.417969 192.484375 146.753906 L 192.988281 147.035156 C 194.207031 147.714844 195.589844 148.0625 196.976562 148.0625 " fill-opacity="1" fill-rule="nonzero"/><path fill="#ffffff" d="M 203.65625 127.398438 C 207.511719 130.023438 206.09375 132.609375 206.09375 132.609375 C 205.851562 133.355469 205.289062 135.101562 205.382812 135.453125 C 205.496094 135.882812 205.992188 136.679688 205.964844 136.917969 C 205.941406 137.160156 205.457031 137.542969 204.679688 137.527344 C 204.679688 137.527344 203.484375 141.15625 202.375 141.523438 C 201.261719 141.886719 197.84375 139.808594 197.84375 139.808594 L 197.28125 139.402344 C 195.476562 138.09375 194.664062 136.105469 194.597656 133.875 C 194.597656 133.875 194.820312 121.382812 203.65625 127.398438 " fill-opacity="1" fill-rule="nonzero"/><path fill="#000000" d="M 203.65625 127.398438 L 203.652344 127.398438 Z M 205.570312 136.914062 Z M 204.679688 137.132812 C 204.507812 137.132812 204.355469 137.242188 204.300781 137.40625 C 203.832031 138.832031 202.882812 140.9375 202.25 141.144531 C 201.601562 141.359375 199.417969 140.300781 198.0625 139.476562 L 197.511719 139.082031 C 195.933594 137.9375 195.0625 136.132812 194.992188 133.863281 C 194.992188 133.820312 195.136719 127.96875 197.992188 126.492188 C 199.359375 125.785156 201.191406 126.199219 203.429688 127.726562 C 206.949219 130.121094 205.761719 132.394531 205.746094 132.417969 C 205.734375 132.441406 205.726562 132.464844 205.71875 132.488281 C 205.097656 134.40625 204.910156 135.210938 205 135.550781 C 205.0625 135.78125 205.195312 136.066406 205.328125 136.339844 C 205.40625 136.503906 205.519531 136.742188 205.558594 136.867188 C 205.46875 136.960938 205.175781 137.140625 204.6875 137.132812 C 204.683594 137.132812 204.683594 137.132812 204.679688 137.132812 Z M 202.078125 141.957031 C 202.234375 141.957031 202.375 141.9375 202.496094 141.898438 C 203.613281 141.53125 204.625 138.898438 204.964844 137.914062 C 205.78125 137.835938 206.316406 137.386719 206.359375 136.960938 C 206.382812 136.726562 206.261719 136.457031 206.042969 136 C 205.933594 135.769531 205.808594 135.507812 205.765625 135.351562 C 205.753906 135.210938 205.859375 134.628906 206.464844 132.753906 C 206.640625 132.378906 207.703125 129.679688 203.878906 127.070312 C 201.378906 125.371094 199.273438 124.9375 197.625 125.789062 C 194.355469 127.484375 194.207031 133.605469 194.199219 133.867188 C 194.277344 136.410156 195.261719 138.429688 197.050781 139.722656 L 197.609375 140.128906 C 197.617188 140.136719 197.625 140.140625 197.636719 140.148438 C 198.171875 140.472656 200.6875 141.957031 202.078125 141.957031 " fill-opacity="1" fill-rule="nonzero"/><path fill="#000000" d="M 202.753906 125.054688 C 203.800781 125.601562 204.71875 126.574219 205.28125 126.777344 C 206.183594 127.109375 207.152344 126.074219 208.222656 126.800781 C 209.15625 127.441406 209.519531 128.46875 209.417969 129.503906 C 209.402344 129.675781 209.367188 129.855469 209.304688 130.039062 C 208.460938 132.503906 206.761719 132.652344 206.09375 132.609375 C 206.09375 132.609375 202.496094 131.351562 201.730469 131.351562 C 201.019531 131.347656 199.71875 132.144531 199.035156 133.5625 C 198.945312 133.746094 198.746094 133.847656 198.542969 133.8125 C 198.308594 133.773438 198.140625 133.5625 198.15625 133.324219 C 198.210938 132.574219 198.230469 131.054688 197.515625 130.832031 C 196.683594 130.574219 195.1875 131.988281 196.035156 133.320312 C 196.292969 133.726562 196.035156 134.289062 195.554688 134.359375 C 195.15625 134.417969 194.699219 134.3125 194.308594 133.789062 C 194.308594 133.789062 193.082031 129.398438 194.925781 126.40625 C 196.773438 123.414062 201.359375 124.320312 202.753906 125.054688 " fill-opacity="1" fill-rule="nonzero"/><path fill="#000000" d="M 206.042969 137.558594 C 206.109375 137.558594 206.179688 137.542969 206.242188 137.503906 C 206.703125 137.238281 207.113281 136.617188 207.351562 135.839844 C 207.726562 134.601562 207.496094 133.550781 206.804688 133.34375 C 206.125 133.136719 205.359375 133.863281 204.976562 135.066406 C 204.914062 135.277344 205.027344 135.496094 205.238281 135.5625 C 205.445312 135.628906 205.667969 135.511719 205.734375 135.304688 C 206.003906 134.445312 206.472656 134.070312 206.574219 134.101562 C 206.683594 134.132812 206.863281 134.722656 206.589844 135.613281 C 206.394531 136.261719 206.074219 136.6875 205.84375 136.820312 C 205.65625 136.929688 205.589844 137.171875 205.699219 137.363281 C 205.773438 137.488281 205.90625 137.558594 206.042969 137.558594 " fill-opacity="1" fill-rule="nonzero"/><path fill="#000000" d="M 204.03125 133.042969 C 204.0625 133.042969 204.09375 133.046875 204.125 133.058594 C 204.457031 133.15625 204.648438 133.859375 204.410156 134.648438 C 204.289062 135.042969 204.082031 135.394531 203.832031 135.613281 C 203.636719 135.785156 203.4375 135.859375 203.289062 135.8125 C 202.957031 135.714844 202.761719 135.011719 203 134.222656 C 203.121094 133.828125 203.332031 133.476562 203.578125 133.257812 C 203.734375 133.117188 203.894531 133.042969 204.03125 133.042969 Z M 203.378906 136.617188 C 203.710938 136.617188 204.050781 136.476562 204.355469 136.207031 C 204.714844 135.890625 205.003906 135.417969 205.167969 134.878906 C 205.53125 133.679688 205.171875 132.546875 204.351562 132.296875 C 203.933594 132.171875 203.460938 132.304688 203.054688 132.664062 C 202.695312 132.980469 202.40625 133.453125 202.242188 133.992188 C 201.878906 135.191406 202.238281 136.324219 203.058594 136.570312 C 203.164062 136.601562 203.269531 136.617188 203.378906 136.617188 " fill-opacity="1" fill-rule="nonzero"/><path fill="#000000" d="M 202.945312 133.75 C 203.109375 133.75 203.265625 133.648438 203.320312 133.484375 C 203.394531 133.277344 203.285156 133.050781 203.078125 132.980469 L 199.117188 131.613281 C 198.910156 131.542969 198.683594 131.652344 198.613281 131.859375 C 198.542969 132.066406 198.652344 132.289062 198.859375 132.359375 L 202.816406 133.730469 C 202.859375 133.746094 202.902344 133.75 202.945312 133.75 " fill-opacity="1" fill-rule="nonzero"/><path fill="#ffffff" d="M 290.472656 155.492188 L 242.304688 155.492188 C 240.59375 155.492188 239.1875 156.835938 239.109375 158.542969 L 238.488281 172.199219 C 238.402344 174.023438 239.859375 175.546875 241.683594 175.546875 L 281.367188 175.546875 L 287.074219 183.054688 L 287.417969 175.546875 L 289.847656 175.546875 C 291.558594 175.546875 292.964844 174.199219 293.042969 172.492188 L 293.667969 158.835938 C 293.75 157.011719 292.296875 155.492188 290.472656 155.492188 " fill-opacity="1" fill-rule="nonzero"/><path fill="#000000" d="M 287.417969 184.257812 L 287.792969 176.035156 L 289.714844 176.035156 C 291.714844 176.035156 293.355469 174.46875 293.445312 172.472656 L 294.054688 159.09375 C 294.101562 158.066406 293.738281 157.089844 293.027344 156.34375 C 292.316406 155.601562 291.355469 155.191406 290.324219 155.191406 L 257.410156 155.191406 C 257.191406 155.191406 257.015625 155.367188 257.015625 155.585938 C 257.015625 155.804688 257.191406 155.980469 257.410156 155.980469 L 290.324219 155.980469 C 291.136719 155.980469 291.890625 156.304688 292.453125 156.890625 C 293.011719 157.480469 293.300781 158.246094 293.265625 159.058594 L 292.652344 172.433594 C 292.582031 174.011719 291.292969 175.246094 289.714844 175.246094 L 287.039062 175.246094 L 286.726562 182.035156 L 281.566406 175.246094 L 241.828125 175.246094 C 241.015625 175.246094 240.261719 174.921875 239.699219 174.335938 C 239.140625 173.746094 238.851562 172.976562 238.890625 172.167969 L 239.5 158.789062 C 239.570312 157.214844 240.863281 155.980469 242.441406 155.980469 L 253.710938 155.980469 C 253.929688 155.980469 254.109375 155.804688 254.109375 155.585938 C 254.109375 155.367188 253.929688 155.191406 253.710938 155.191406 L 242.441406 155.191406 C 240.4375 155.191406 238.800781 156.757812 238.707031 158.753906 L 238.097656 172.132812 C 238.050781 173.160156 238.417969 174.136719 239.128906 174.882812 C 239.839844 175.625 240.800781 176.035156 241.828125 176.035156 L 281.171875 176.035156 L 287.417969 184.257812 " fill-opacity="1" fill-rule="nonzero"/><path fill="#ebe0ff" d="M 285.546875 162.25 L 277.984375 162.25 C 277.386719 162.25 276.902344 161.71875 276.902344 161.121094 C 276.902344 160.527344 277.386719 159.996094 277.984375 159.996094 L 285.546875 159.996094 C 286.140625 159.996094 286.625 160.527344 286.625 161.121094 C 286.625 161.71875 286.140625 162.25 285.546875 162.25 " fill-opacity="1" fill-rule="nonzero"/><path fill="#d2c7ff" d="M 273.488281 162.25 L 268.925781 162.25 C 268.332031 162.25 267.847656 161.71875 267.847656 161.121094 C 267.847656 160.527344 268.332031 159.996094 268.925781 159.996094 L 273.488281 159.996094 C 274.085938 159.996094 274.570312 160.527344 274.570312 161.121094 C 274.570312 161.71875 274.085938 162.25 273.488281 162.25 " fill-opacity="1" fill-rule="nonzero"/><path fill="#d2c7ff" d="M 282.386719 166.921875 L 268.59375 166.921875 C 268 166.921875 267.515625 166.394531 267.515625 165.796875 C 267.515625 165.199219 268 164.671875 268.59375 164.671875 L 282.386719 164.671875 C 282.984375 164.671875 283.46875 165.199219 283.46875 165.796875 C 283.46875 166.394531 282.984375 166.921875 282.386719 166.921875 " fill-opacity="1" fill-rule="nonzero"/><path fill="#8c52ff" d="M 278.273438 171.421875 L 268.4375 171.421875 C 267.839844 171.421875 267.355469 170.894531 267.355469 170.296875 C 267.355469 169.703125 267.839844 169.171875 268.4375 169.171875 L 278.273438 169.171875 C 278.871094 169.171875 279.355469 169.703125 279.355469 170.296875 C 279.355469 170.894531 278.871094 171.421875 278.273438 171.421875 " fill-opacity="1" fill-rule="nonzero"/><path fill="#ebe0ff" d="M 284.851562 171.597656 L 282.632812 171.597656 C 282.035156 171.597656 281.550781 171.066406 281.550781 170.472656 C 281.550781 169.875 282.035156 169.347656 282.632812 169.347656 L 284.851562 169.347656 C 285.449219 169.347656 285.933594 169.875 285.933594 170.472656 C 285.933594 171.066406 285.449219 171.597656 284.851562 171.597656 " fill-opacity="1" fill-rule="nonzero"/><path fill="#d2c7ff" d="M 247.246094 166.109375 C 247.445312 169.78125 250.585938 172.6875 254.261719 172.59375 C 257.941406 172.5 260.765625 169.445312 260.566406 165.769531 C 260.371094 162.09375 257.230469 159.191406 253.554688 159.28125 C 249.875 159.378906 247.050781 162.433594 247.246094 166.109375 " fill-opacity="1" fill-rule="nonzero"/><path fill="#ebe0ff" d="M 251.355469 164.613281 C 251.429688 165.992188 252.605469 167.082031 253.984375 167.046875 C 255.367188 167.011719 256.425781 165.867188 256.351562 164.488281 C 256.277344 163.109375 255.097656 162.019531 253.71875 162.054688 C 252.339844 162.089844 251.28125 163.238281 251.355469 164.613281 " fill-opacity="1" fill-rule="nonzero"/><path fill="#ebe0ff" d="M 259.449219 169.796875 C 256.589844 173.832031 251.070312 173.175781 248.703125 169.902344 C 252.027344 166.964844 256.203125 167.285156 259.449219 169.796875 " fill-opacity="1" fill-rule="nonzero"/><path fill="#ffffff" d="M 293.96875 113.796875 L 257.058594 113.796875 C 255.273438 113.796875 253.804688 115.203125 253.722656 116.984375 L 253.113281 130.359375 C 253.023438 132.261719 254.542969 133.851562 256.445312 133.851562 L 258.480469 133.851562 L 264.042969 141.167969 L 264.375 133.851562 L 293.359375 133.851562 C 295.144531 133.851562 296.613281 132.449219 296.695312 130.664062 L 297.304688 117.289062 C 297.390625 115.386719 295.875 113.796875 293.96875 113.796875 " fill-opacity="1" fill-rule="nonzero"/><path fill="#000000" d="M 293.96875 114.191406 C 294.78125 114.191406 295.539062 114.515625 296.097656 115.105469 C 296.660156 115.691406 296.945312 116.460938 296.910156 117.269531 L 296.300781 130.648438 C 296.226562 132.222656 294.9375 133.457031 293.359375 133.457031 L 264.375 133.457031 C 264.164062 133.457031 263.988281 133.625 263.980469 133.832031 L 263.695312 140.0625 L 258.796875 133.613281 C 258.722656 133.515625 258.605469 133.457031 258.480469 133.457031 L 256.445312 133.457031 C 255.636719 133.457031 254.878906 133.132812 254.320312 132.546875 C 253.757812 131.957031 253.46875 131.191406 253.507812 130.378906 L 254.117188 117.003906 C 254.191406 115.429688 255.480469 114.191406 257.058594 114.191406 Z M 264.042969 141.566406 C 264.082031 141.566406 264.121094 141.558594 264.160156 141.546875 C 264.320312 141.5 264.429688 141.355469 264.4375 141.1875 L 264.753906 134.25 L 293.359375 134.25 C 295.359375 134.25 297 132.683594 297.089844 130.683594 L 297.703125 117.308594 C 297.75 116.277344 297.382812 115.300781 296.671875 114.558594 C 295.960938 113.8125 295 113.402344 293.96875 113.402344 L 257.058594 113.402344 C 255.058594 113.402344 253.417969 114.96875 253.328125 116.964844 L 252.714844 130.34375 C 252.667969 131.371094 253.035156 132.347656 253.746094 133.09375 C 254.457031 133.839844 255.417969 134.25 256.445312 134.25 L 258.285156 134.25 L 263.726562 141.410156 C 263.800781 141.507812 263.921875 141.566406 264.042969 141.566406 " fill-opacity="1" fill-rule="nonzero"/><path fill="#d2c7ff" d="M 281.449219 120.078125 L 276.636719 120.078125 C 276.003906 120.078125 275.496094 119.519531 275.496094 118.890625 C 275.496094 118.261719 276.003906 117.703125 276.636719 117.703125 L 281.449219 117.703125 C 282.082031 117.703125 282.589844 118.261719 282.589844 118.890625 C 282.589844 119.519531 282.082031 120.078125 281.449219 120.078125 " fill-opacity="1" fill-rule="nonzero"/><path fill="#d2c7ff" d="M 290.984375 125.011719 L 276.425781 125.011719 C 275.796875 125.011719 275.285156 124.453125 275.285156 123.824219 C 275.285156 123.195312 275.796875 122.636719 276.425781 122.636719 L 290.984375 122.636719 C 291.613281 122.636719 292.125 123.195312 292.125 123.824219 C 292.125 124.453125 291.613281 125.011719 290.984375 125.011719 " fill-opacity="1" fill-rule="nonzero"/><path fill="#ebe0ff" d="M 286.640625 129.945312 L 276.257812 129.945312 C 275.628906 129.945312 275.117188 129.386719 275.117188 128.757812 C 275.117188 128.128906 275.628906 127.570312 276.257812 127.570312 L 286.640625 127.570312 C 287.269531 127.570312 287.78125 128.128906 287.78125 128.757812 C 287.78125 129.386719 287.269531 129.945312 286.640625 129.945312 " fill-opacity="1" fill-rule="nonzero"/><path fill="#ffffff" d="M 256.664062 126.457031 L 257.222656 126.457031 L 257.222656 123.484375 L 256.664062 123.484375 C 256.132812 123.484375 255.699219 123.917969 255.699219 124.453125 L 255.699219 125.488281 C 255.699219 126.023438 256.132812 126.457031 256.664062 126.457031 " fill-opacity="1" fill-rule="nonzero"/><path fill="#000000" d="M 256.828125 126.058594 L 256.664062 126.058594 C 256.351562 126.058594 256.09375 125.804688 256.09375 125.488281 L 256.09375 124.453125 C 256.09375 124.136719 256.351562 123.882812 256.664062 123.882812 L 256.828125 123.882812 Z M 256.664062 126.851562 L 257.222656 126.851562 C 257.441406 126.851562 257.617188 126.675781 257.617188 126.457031 L 257.617188 123.484375 C 257.617188 123.265625 257.441406 123.089844 257.222656 123.089844 L 256.664062 123.089844 C 255.914062 123.089844 255.304688 123.699219 255.304688 124.453125 L 255.304688 125.488281 C 255.304688 126.242188 255.914062 126.851562 256.664062 126.851562 " fill-opacity="1" fill-rule="nonzero"/><path fill="#ffffff" d="M 271.191406 126.457031 L 270.632812 126.457031 L 270.632812 123.484375 L 271.191406 123.484375 C 271.722656 123.484375 272.15625 123.917969 272.15625 124.453125 L 272.15625 125.488281 C 272.15625 126.023438 271.722656 126.457031 271.191406 126.457031 " fill-opacity="1" fill-rule="nonzero"/><path fill="#000000" d="M 271.191406 123.882812 C 271.503906 123.882812 271.757812 124.136719 271.757812 124.453125 L 271.757812 125.488281 C 271.757812 125.804688 271.503906 126.058594 271.191406 126.058594 L 271.027344 126.058594 L 271.027344 123.882812 Z M 270.632812 126.851562 L 271.191406 126.851562 C 271.941406 126.851562 272.550781 126.242188 272.550781 125.488281 L 272.550781 124.453125 C 272.550781 123.699219 271.941406 123.089844 271.191406 123.089844 L 270.632812 123.089844 C 270.414062 123.089844 270.234375 123.265625 270.234375 123.484375 L 270.234375 126.457031 C 270.234375 126.675781 270.414062 126.851562 270.632812 126.851562 " fill-opacity="1" fill-rule="nonzero"/><path fill="#ffffff" d="M 271.113281 124.847656 C 271.113281 121.65625 267.894531 118.355469 263.925781 118.355469 C 259.960938 118.355469 256.742188 121.65625 256.742188 124.847656 C 256.742188 128.039062 259.960938 129.910156 263.925781 129.910156 C 267.894531 129.910156 271.113281 128.039062 271.113281 124.847656 " fill-opacity="1" fill-rule="nonzero"/><path fill="#000000" d="M 263.925781 118.75 C 267.8125 118.75 270.714844 121.972656 270.714844 124.847656 C 270.714844 127.597656 267.925781 129.515625 263.925781 129.515625 C 259.929688 129.515625 257.136719 127.597656 257.136719 124.847656 C 257.136719 121.972656 260.042969 118.75 263.925781 118.75 Z M 263.925781 130.308594 C 268.390625 130.308594 271.507812 128.0625 271.507812 124.847656 C 271.507812 121.597656 268.265625 117.960938 263.925781 117.960938 C 259.589844 117.960938 256.347656 121.597656 256.347656 124.847656 C 256.347656 128.0625 259.464844 130.308594 263.925781 130.308594 " fill-opacity="1" fill-rule="nonzero"/><path fill="#000000" d="M 259.097656 123.890625 L 266.015625 123.890625 C 266.734375 123.890625 267.316406 124.519531 267.316406 125.292969 L 267.316406 126.207031 C 267.316406 126.796875 267 127.421875 266.457031 127.527344 C 264.539062 127.886719 260.570312 127.886719 258.65625 127.527344 C 258.109375 127.421875 257.796875 126.796875 257.796875 126.207031 L 257.796875 125.292969 C 257.796875 124.519531 258.378906 123.890625 259.097656 123.890625 " fill-opacity="1" fill-rule="nonzero"/><path fill="#8c52ff" d="M 264.183594 125.730469 C 264.183594 125.992188 264.375 126.199219 264.617188 126.199219 C 264.859375 126.199219 265.054688 125.992188 265.054688 125.730469 C 265.054688 125.472656 264.859375 125.261719 264.617188 125.261719 C 264.375 125.261719 264.183594 125.472656 264.183594 125.730469 " fill-opacity="1" fill-rule="nonzero"/><path fill="#8c52ff" d="M 259.542969 125.730469 C 259.542969 125.992188 259.738281 126.199219 259.980469 126.199219 C 260.21875 126.199219 260.414062 125.992188 260.414062 125.730469 C 260.414062 125.472656 260.21875 125.261719 259.980469 125.261719 C 259.738281 125.261719 259.542969 125.472656 259.542969 125.730469 " fill-opacity="1" fill-rule="nonzero"/><path fill="#ffffff" d="M 281.183594 78.332031 L 224.214844 78.332031 C 222.429688 78.332031 220.960938 79.734375 220.878906 81.515625 L 220.269531 94.894531 C 220.183594 96.796875 221.699219 98.386719 223.605469 98.386719 L 272.226562 98.386719 L 277.929688 105.890625 L 278.273438 98.386719 L 280.570312 98.386719 C 282.355469 98.386719 283.824219 96.980469 283.90625 95.199219 L 284.515625 81.820312 C 284.605469 79.921875 283.085938 78.332031 281.183594 78.332031 " fill-opacity="1" fill-rule="nonzero"/><path fill="#000000" d="M 281.183594 78.726562 C 281.992188 78.726562 282.75 79.050781 283.308594 79.636719 C 283.871094 80.222656 284.160156 80.992188 284.121094 81.804688 L 283.511719 95.179688 C 283.4375 96.753906 282.148438 97.988281 280.570312 97.988281 L 278.273438 97.988281 C 278.0625 97.988281 277.886719 98.15625 277.878906 98.367188 L 277.585938 104.78125 L 272.539062 98.144531 C 272.464844 98.046875 272.347656 97.988281 272.226562 97.988281 L 223.605469 97.988281 C 222.792969 97.988281 222.035156 97.664062 221.476562 97.078125 C 220.914062 96.492188 220.625 95.722656 220.664062 94.910156 L 221.273438 81.535156 C 221.347656 79.960938 222.636719 78.726562 224.214844 78.726562 Z M 277.929688 106.289062 C 277.96875 106.289062 278.007812 106.28125 278.046875 106.269531 C 278.207031 106.21875 278.316406 106.074219 278.324219 105.910156 L 278.652344 98.78125 L 280.570312 98.78125 C 282.570312 98.78125 284.210938 97.214844 284.300781 95.214844 L 284.914062 81.839844 C 284.960938 80.808594 284.59375 79.832031 283.882812 79.089844 C 283.171875 78.34375 282.210938 77.933594 281.183594 77.933594 L 224.214844 77.933594 C 222.214844 77.933594 220.574219 79.5 220.484375 81.5 L 219.871094 94.875 C 219.828125 95.90625 220.191406 96.882812 220.902344 97.625 C 221.613281 98.371094 222.574219 98.78125 223.605469 98.78125 L 272.027344 98.78125 L 277.613281 106.132812 C 277.691406 106.230469 277.808594 106.289062 277.929688 106.289062 " fill-opacity="1" fill-rule="nonzero"/><path fill="#ebe0ff" d="M 251.214844 94.203125 L 246.335938 94.203125 C 245.734375 94.203125 245.242188 93.667969 245.242188 93.0625 C 245.242188 92.460938 245.734375 91.921875 246.335938 91.921875 L 251.214844 91.921875 C 251.820312 91.921875 252.308594 92.460938 252.308594 93.0625 C 252.308594 93.667969 251.820312 94.203125 251.214844 94.203125 " fill-opacity="1" fill-rule="nonzero"/><path fill="#d2c7ff" d="M 265.769531 94.203125 L 255.628906 94.203125 C 255.027344 94.203125 254.535156 93.667969 254.535156 93.0625 C 254.535156 92.460938 255.027344 91.921875 255.628906 91.921875 L 265.769531 91.921875 C 266.375 91.921875 266.863281 92.460938 266.863281 93.0625 C 266.863281 93.667969 266.375 94.203125 265.769531 94.203125 " fill-opacity="1" fill-rule="nonzero"/><path fill="#d2c7ff" d="M 275.589844 84.734375 L 267.929688 84.734375 C 267.324219 84.734375 266.835938 84.199219 266.835938 83.59375 C 266.835938 82.992188 267.324219 82.457031 267.929688 82.457031 L 275.589844 82.457031 C 276.191406 82.457031 276.683594 82.992188 276.683594 83.59375 C 276.683594 84.199219 276.191406 84.734375 275.589844 84.734375 " fill-opacity="1" fill-rule="nonzero"/><path fill="#d2c7ff" d="M 263.378906 84.734375 L 247.011719 84.734375 C 246.40625 84.734375 245.917969 84.199219 245.917969 83.59375 C 245.917969 82.992188 246.40625 82.457031 247.011719 82.457031 L 263.378906 82.457031 C 263.984375 82.457031 264.472656 82.992188 264.472656 83.59375 C 264.472656 84.199219 263.984375 84.734375 263.378906 84.734375 " fill-opacity="1" fill-rule="nonzero"/><path fill="#d2c7ff" d="M 260.46875 89.46875 L 251.234375 89.46875 C 250.628906 89.46875 250.140625 88.933594 250.140625 88.328125 C 250.140625 87.726562 250.628906 87.1875 251.234375 87.1875 L 260.46875 87.1875 C 261.070312 87.1875 261.5625 87.726562 261.5625 88.328125 C 261.5625 88.933594 261.070312 89.46875 260.46875 89.46875 " fill-opacity="1" fill-rule="nonzero"/><path fill="#8c52ff" d="M 275.195312 89.46875 L 265.085938 89.46875 C 264.480469 89.46875 263.992188 88.933594 263.992188 88.328125 C 263.992188 87.726562 264.480469 87.1875 265.085938 87.1875 L 275.195312 87.1875 C 275.800781 87.1875 276.289062 87.726562 276.289062 88.328125 C 276.289062 88.933594 275.800781 89.46875 275.195312 89.46875 " fill-opacity="1" fill-rule="nonzero"/><path fill="#d2c7ff" d="M 225.9375 88.191406 C 226.132812 91.867188 229.273438 94.769531 232.949219 94.675781 C 236.628906 94.582031 239.453125 91.527344 239.257812 87.851562 C 239.0625 84.175781 235.921875 81.273438 232.242188 81.367188 C 228.5625 81.457031 225.742188 84.515625 225.9375 88.191406 " fill-opacity="1" fill-rule="nonzero"/><path fill="#ebe0ff" d="M 230.042969 86.699219 C 230.117188 88.074219 231.296875 89.164062 232.675781 89.128906 C 234.054688 89.09375 235.113281 87.949219 235.039062 86.570312 C 234.964844 85.191406 233.789062 84.101562 232.410156 84.136719 C 231.03125 84.171875 229.972656 85.316406 230.042969 86.699219 " fill-opacity="1" fill-rule="nonzero"/><path fill="#ebe0ff" d="M 238.136719 91.878906 C 235.277344 95.910156 229.757812 95.257812 227.390625 91.984375 C 230.714844 89.050781 234.890625 89.367188 238.136719 91.878906 " fill-opacity="1" fill-rule="nonzero"/><path fill="#ffffff" d="M 294.164062 190.988281 L 257.253906 190.988281 C 255.46875 190.988281 254 192.390625 253.917969 194.175781 L 253.304688 207.550781 C 253.21875 209.453125 254.738281 211.042969 256.640625 211.042969 L 258.675781 211.042969 L 264.234375 218.359375 L 264.570312 211.042969 L 293.554688 211.042969 C 295.339844 211.042969 296.808594 209.640625 296.890625 207.855469 L 297.5 194.480469 C 297.585938 192.578125 296.070312 190.988281 294.164062 190.988281 " fill-opacity="1" fill-rule="nonzero"/><path fill="#000000" d="M 294.164062 191.382812 C 294.976562 191.382812 295.730469 191.707031 296.292969 192.292969 C 296.851562 192.878906 297.140625 193.652344 297.105469 194.460938 L 296.492188 207.835938 C 296.421875 209.414062 295.128906 210.648438 293.554688 210.648438 L 264.570312 210.648438 C 264.359375 210.648438 264.183594 210.8125 264.175781 211.023438 L 263.890625 217.25 L 258.992188 210.804688 C 258.917969 210.707031 258.800781 210.648438 258.675781 210.648438 L 256.640625 210.648438 C 255.832031 210.648438 255.074219 210.324219 254.515625 209.738281 C 253.953125 209.148438 253.664062 208.382812 253.703125 207.570312 L 254.3125 194.195312 C 254.382812 192.617188 255.675781 191.382812 257.253906 191.382812 Z M 264.234375 218.757812 C 264.277344 218.757812 264.316406 218.75 264.355469 218.738281 C 264.511719 218.6875 264.625 218.546875 264.632812 218.378906 L 264.949219 211.4375 L 293.554688 211.4375 C 295.554688 211.4375 297.195312 209.875 297.285156 207.875 L 297.894531 194.496094 C 297.941406 193.46875 297.578125 192.492188 296.867188 191.746094 C 296.152344 191.003906 295.195312 190.59375 294.164062 190.59375 L 257.253906 190.59375 C 255.25 190.59375 253.613281 192.160156 253.519531 194.15625 L 252.910156 207.535156 C 252.863281 208.5625 253.230469 209.539062 253.941406 210.285156 C 254.652344 211.03125 255.613281 211.4375 256.640625 211.4375 L 258.480469 211.4375 L 263.921875 218.601562 C 263.996094 218.699219 264.113281 218.757812 264.234375 218.757812 " fill-opacity="1" fill-rule="nonzero"/><path fill="#d2c7ff" d="M 281.644531 197.269531 L 276.832031 197.269531 C 276.199219 197.269531 275.691406 196.710938 275.691406 196.082031 C 275.691406 195.453125 276.199219 194.894531 276.832031 194.894531 L 281.644531 194.894531 C 282.273438 194.894531 282.785156 195.453125 282.785156 196.082031 C 282.785156 196.710938 282.273438 197.269531 281.644531 197.269531 " fill-opacity="1" fill-rule="nonzero"/><path fill="#d2c7ff" d="M 291.179688 202.203125 L 276.621094 202.203125 C 275.992188 202.203125 275.480469 201.644531 275.480469 201.015625 C 275.480469 200.386719 275.992188 199.828125 276.621094 199.828125 L 291.179688 199.828125 C 291.808594 199.828125 292.320312 200.386719 292.320312 201.015625 C 292.320312 201.644531 291.808594 202.203125 291.179688 202.203125 " fill-opacity="1" fill-rule="nonzero"/><path fill="#ebe0ff" d="M 286.835938 207.136719 L 276.453125 207.136719 C 275.820312 207.136719 275.3125 206.578125 275.3125 205.949219 C 275.3125 205.320312 275.820312 204.761719 276.453125 204.761719 L 286.835938 204.761719 C 287.464844 204.761719 287.976562 205.320312 287.976562 205.949219 C 287.976562 206.578125 287.464844 207.136719 286.835938 207.136719 " fill-opacity="1" fill-rule="nonzero"/><path fill="#ffffff" d="M 257.472656 203.277344 L 258.027344 203.277344 L 258.027344 200.308594 L 257.472656 200.308594 C 256.9375 200.308594 256.503906 200.742188 256.503906 201.273438 L 256.503906 202.3125 C 256.503906 202.84375 256.9375 203.277344 257.472656 203.277344 " fill-opacity="1" fill-rule="nonzero"/><path fill="#000000" d="M 257.632812 202.882812 L 257.472656 202.882812 C 257.15625 202.882812 256.902344 202.625 256.902344 202.3125 L 256.902344 201.273438 C 256.902344 200.960938 257.15625 200.703125 257.472656 200.703125 L 257.632812 200.703125 Z M 257.472656 203.675781 L 258.03125 203.675781 C 258.25 203.675781 258.425781 203.496094 258.425781 203.277344 L 258.425781 200.308594 C 258.425781 200.089844 258.25 199.910156 258.03125 199.910156 L 257.472656 199.910156 C 256.71875 199.910156 256.109375 200.523438 256.109375 201.273438 L 256.109375 202.3125 C 256.109375 203.0625 256.71875 203.675781 257.472656 203.675781 " fill-opacity="1" fill-rule="nonzero"/><path fill="#ffffff" d="M 271.996094 203.277344 L 271.4375 203.277344 L 271.4375 200.308594 L 271.996094 200.308594 C 272.53125 200.308594 272.960938 200.742188 272.960938 201.273438 L 272.960938 202.3125 C 272.960938 202.84375 272.53125 203.277344 271.996094 203.277344 " fill-opacity="1" fill-rule="nonzero"/><path fill="#000000" d="M 271.996094 200.703125 C 272.3125 200.703125 272.566406 200.960938 272.566406 201.273438 L 272.566406 202.3125 C 272.566406 202.625 272.3125 202.882812 271.996094 202.882812 L 271.835938 202.882812 L 271.835938 200.703125 Z M 271.4375 203.675781 L 271.996094 203.675781 C 272.746094 203.675781 273.359375 203.0625 273.359375 202.3125 L 273.359375 201.273438 C 273.359375 200.523438 272.746094 199.910156 271.996094 199.910156 L 271.4375 199.910156 C 271.21875 199.910156 271.042969 200.089844 271.042969 200.308594 L 271.042969 203.277344 C 271.042969 203.496094 271.21875 203.675781 271.4375 203.675781 " fill-opacity="1" fill-rule="nonzero"/><path fill="#ffffff" d="M 271.917969 201.671875 C 271.917969 198.480469 268.703125 195.179688 264.734375 195.179688 C 260.765625 195.179688 257.550781 198.480469 257.550781 201.671875 C 257.550781 204.859375 260.765625 206.734375 264.734375 206.734375 C 268.703125 206.734375 271.917969 204.859375 271.917969 201.671875 " fill-opacity="1" fill-rule="nonzero"/><path fill="#000000" d="M 264.734375 195.574219 C 268.621094 195.574219 271.523438 198.792969 271.523438 201.671875 C 271.523438 204.417969 268.730469 206.339844 264.734375 206.339844 C 260.738281 206.339844 257.945312 204.417969 257.945312 201.671875 C 257.945312 198.792969 260.847656 195.574219 264.734375 195.574219 Z M 264.734375 207.128906 C 269.199219 207.128906 272.316406 204.886719 272.316406 201.671875 C 272.316406 198.417969 269.074219 194.78125 264.734375 194.78125 C 260.394531 194.78125 257.152344 198.417969 257.152344 201.671875 C 257.152344 204.886719 260.269531 207.128906 264.734375 207.128906 " fill-opacity="1" fill-rule="nonzero"/><path fill="#000000" d="M 259.902344 200.710938 L 266.824219 200.710938 C 267.542969 200.710938 268.125 201.339844 268.125 202.117188 L 268.125 203.03125 C 268.125 203.621094 267.808594 204.246094 267.265625 204.347656 C 265.347656 204.710938 261.378906 204.710938 259.460938 204.347656 C 258.917969 204.246094 258.601562 203.621094 258.601562 203.03125 L 258.601562 202.117188 C 258.601562 201.339844 259.183594 200.710938 259.902344 200.710938 " fill-opacity="1" fill-rule="nonzero"/><path fill="#8c52ff" d="M 264.988281 202.554688 C 264.988281 202.8125 265.183594 203.023438 265.425781 203.023438 C 265.664062 203.023438 265.859375 202.8125 265.859375 202.554688 C 265.859375 202.296875 265.664062 202.085938 265.425781 202.085938 C 265.183594 202.085938 264.988281 202.296875 264.988281 202.554688 " fill-opacity="1" fill-rule="nonzero"/><path fill="#8c52ff" d="M 260.351562 202.554688 C 260.351562 202.8125 260.546875 203.023438 260.785156 203.023438 C 261.027344 203.023438 261.222656 202.8125 261.222656 202.554688 C 261.222656 202.296875 261.027344 202.085938 260.785156 202.085938 C 260.546875 202.085938 260.351562 202.296875 260.351562 202.554688 " fill-opacity="1" fill-rule="nonzero"/><path fill="#ffffff" d="M 284.445312 229.101562 L 236.277344 229.101562 C 234.566406 229.101562 233.160156 230.445312 233.082031 232.15625 L 232.457031 245.8125 C 232.375 247.632812 233.832031 249.15625 235.652344 249.15625 L 275.339844 249.15625 L 281.046875 256.664062 L 281.386719 249.15625 L 283.820312 249.15625 C 285.53125 249.15625 286.9375 247.8125 287.015625 246.101562 L 287.640625 232.445312 C 287.722656 230.625 286.269531 229.101562 284.445312 229.101562 " fill-opacity="1" fill-rule="nonzero"/><path fill="#000000" d="M 281.390625 257.867188 L 281.765625 249.648438 L 283.6875 249.648438 C 285.6875 249.648438 287.324219 248.082031 287.417969 246.082031 L 288.027344 232.707031 C 288.074219 231.675781 287.707031 230.699219 286.996094 229.953125 C 286.285156 229.210938 285.328125 228.800781 284.296875 228.800781 L 251.382812 228.800781 C 251.164062 228.800781 250.988281 228.976562 250.988281 229.195312 C 250.988281 229.414062 251.164062 229.59375 251.382812 229.59375 L 284.296875 229.59375 C 285.109375 229.59375 285.863281 229.914062 286.425781 230.503906 C 286.984375 231.089844 287.273438 231.859375 287.238281 232.667969 L 286.625 246.046875 C 286.554688 247.621094 285.261719 248.855469 283.6875 248.855469 L 281.011719 248.855469 L 280.699219 255.648438 L 275.535156 248.855469 L 235.800781 248.855469 C 234.988281 248.855469 234.234375 248.53125 233.671875 247.945312 C 233.113281 247.359375 232.824219 246.589844 232.859375 245.777344 L 233.472656 232.402344 C 233.542969 230.824219 234.835938 229.59375 236.410156 229.59375 L 247.683594 229.59375 C 247.902344 229.59375 248.082031 229.414062 248.082031 229.195312 C 248.082031 228.976562 247.902344 228.800781 247.683594 228.800781 L 236.410156 228.800781 C 234.410156 228.800781 232.773438 230.367188 232.679688 232.367188 L 232.070312 245.742188 C 232.023438 246.769531 232.386719 247.746094 233.101562 248.492188 C 233.8125 249.238281 234.769531 249.648438 235.800781 249.648438 L 275.144531 249.648438 L 281.390625 257.867188 " fill-opacity="1" fill-rule="nonzero"/><path fill="#ebe0ff" d="M 279.515625 235.859375 L 271.957031 235.859375 C 271.359375 235.859375 270.875 235.328125 270.875 234.734375 C 270.875 234.136719 271.359375 233.605469 271.957031 233.605469 L 279.515625 233.605469 C 280.113281 233.605469 280.597656 234.136719 280.597656 234.734375 C 280.597656 235.328125 280.113281 235.859375 279.515625 235.859375 " fill-opacity="1" fill-rule="nonzero"/><path fill="#d2c7ff" d="M 267.460938 235.859375 L 262.898438 235.859375 C 262.300781 235.859375 261.820312 235.328125 261.820312 234.734375 C 261.820312 234.136719 262.300781 233.605469 262.898438 233.605469 L 267.460938 233.605469 C 268.058594 233.605469 268.542969 234.136719 268.542969 234.734375 C 268.542969 235.328125 268.058594 235.859375 267.460938 235.859375 " fill-opacity="1" fill-rule="nonzero"/><path fill="#d2c7ff" d="M 276.359375 240.53125 L 262.566406 240.53125 C 261.96875 240.53125 261.488281 240.003906 261.488281 239.40625 C 261.488281 238.8125 261.96875 238.28125 262.566406 238.28125 L 276.359375 238.28125 C 276.957031 238.28125 277.441406 238.8125 277.441406 239.40625 C 277.441406 240.003906 276.957031 240.53125 276.359375 240.53125 " fill-opacity="1" fill-rule="nonzero"/><path fill="#8c52ff" d="M 272.246094 245.035156 L 262.40625 245.035156 C 261.8125 245.035156 261.328125 244.503906 261.328125 243.910156 C 261.328125 243.3125 261.8125 242.78125 262.40625 242.78125 L 272.246094 242.78125 C 272.84375 242.78125 273.324219 243.3125 273.324219 243.910156 C 273.324219 244.503906 272.84375 245.035156 272.246094 245.035156 " fill-opacity="1" fill-rule="nonzero"/><path fill="#ebe0ff" d="M 278.824219 245.207031 L 276.605469 245.207031 C 276.007812 245.207031 275.523438 244.679688 275.523438 244.082031 C 275.523438 243.484375 276.007812 242.957031 276.605469 242.957031 L 278.824219 242.957031 C 279.421875 242.957031 279.90625 243.484375 279.90625 244.082031 C 279.90625 244.679688 279.421875 245.207031 278.824219 245.207031 " fill-opacity="1" fill-rule="nonzero"/><path fill="#d2c7ff" d="M 241.21875 239.71875 C 241.414062 243.394531 244.554688 246.296875 248.234375 246.203125 C 251.914062 246.109375 254.734375 243.054688 254.539062 239.378906 C 254.34375 235.703125 251.203125 232.800781 247.527344 232.894531 C 243.847656 232.988281 241.023438 236.042969 241.21875 239.71875 " fill-opacity="1" fill-rule="nonzero"/><path fill="#ebe0ff" d="M 245.328125 238.226562 C 245.402344 239.605469 246.578125 240.691406 247.957031 240.65625 C 249.335938 240.621094 250.394531 239.476562 250.324219 238.097656 C 250.25 236.71875 249.070312 235.632812 247.691406 235.667969 C 246.3125 235.699219 245.253906 236.847656 245.328125 238.226562 " fill-opacity="1" fill-rule="nonzero"/><path fill="#ebe0ff" d="M 253.421875 243.40625 C 250.5625 247.441406 245.042969 246.785156 242.671875 243.511719 C 246 240.578125 250.175781 240.898438 253.421875 243.40625 " fill-opacity="1" fill-rule="nonzero"/></svg>