<svg width="186" height="136" viewBox="0 0 186 136" fill="none" xmlns="http://www.w3.org/2000/svg">
<mask id="mask0_33_472" style="mask-type:luminance" maskUnits="userSpaceOnUse" x="0" y="0" width="186" height="136">
<path d="M0 0H185.057V135.74H0V0Z" fill="white"/>
</mask>
<g mask="url(#mask0_33_472)">
<mask id="mask1_33_472" style="mask-type:luminance" maskUnits="userSpaceOnUse" x="0" y="0" width="186" height="136">
<path d="M8 0H177.057C179.177 0 181.208 0.84372 182.708 2.34367C184.208 3.84361 185.052 5.87479 185.052 7.99972V127.745C185.052 129.865 184.208 131.896 182.708 133.396C181.208 134.896 179.177 135.74 177.057 135.74H8C5.88021 135.74 3.84375 134.896 2.34375 133.396C0.84375 131.896 0 129.865 0 127.745V7.99972C0 5.87479 0.84375 3.84361 2.34375 2.34367C3.84375 0.84372 5.88021 0 8 0Z" fill="white"/>
</mask>
<g mask="url(#mask1_33_472)">
<path d="M0 0H185.057V135.74H0V0Z" fill="#FFA500"/>
</g>
</g>
<path d="M105.937 94.2206C105.937 94.2206 111.344 99.5694 110.432 103.913L97.1562 107.199L91.9114 101.08C91.9114 101.101 104.115 93.8561 105.937 94.2206Z" fill="#FCD8C3"/>
<path d="M145.698 92.4394C145.698 92.4394 149.005 98.585 148.021 102.72L138.557 103.84L135.411 96.9653C135.432 96.9653 144.443 91.7779 145.698 92.4394Z" fill="#FCD8C3"/>
<path d="M126.74 81.5388C126.74 81.5388 140.542 97.9913 139.927 123.308C139.927 123.308 126.536 126.667 102.38 122.147C102.38 122.147 104.229 92.7623 113.969 82.6846C113.969 82.6846 119.828 84.5543 126.74 81.5388Z" fill="#727FD3"/>
<path d="M126.833 81.7679C126.833 81.7679 138.854 76.5806 146.266 92.8977C146.266 92.8977 139.901 95.0435 135.703 98.4496C135.703 98.4705 125.078 87.2521 126.833 81.7679Z" fill="#7989D8"/>
<path d="M119.328 82.1794C119.328 82.1794 106.807 78.3201 101.219 95.3404C101.219 95.3404 107.786 96.8039 112.328 99.7517C112.302 99.7308 121.656 87.4344 119.328 82.1794Z" fill="#727FD3"/>
<path d="M145.604 107.017C145.604 107.017 133.24 110.605 113.443 104.345L116.615 99.1111C116.615 99.1111 136.594 102.7 147.5 97.5799C147.474 97.6059 150.213 102.949 145.604 107.017Z" fill="#FCD8C3"/>
<path d="M114.354 104.507C114.354 104.507 106.213 105.465 108.016 103.205C108.016 103.205 113.146 102.496 115.703 102.835L114.354 104.507Z" fill="#FCD8C3"/>
<path d="M114.813 102.976C114.813 102.976 105.302 102.538 107.88 100.278C107.88 100.278 113.901 100.439 116.703 101.33L114.813 102.976Z" fill="#FCD8C3"/>
<path d="M115.13 101.121C115.13 101.121 103.089 99.3402 108.198 98.4288C108.198 98.4288 114.219 98.585 117.026 99.4756L115.13 101.121Z" fill="#FCD8C3"/>
<path d="M114.974 100.028C114.974 100.028 105.802 97.6944 108.88 96.007C108.88 96.007 114.698 97.3507 117.229 98.7933L114.974 100.028Z" fill="#FCD8C3"/>
<path d="M118.187 99.5017C118.187 99.5017 115.677 96.2101 114.583 94.9966C114.583 94.9966 113.057 95.1112 114.786 98.9288C114.786 98.9288 114.604 100.049 118.187 99.5017Z" fill="#FCD8C3"/>
<path d="M128.932 82.0908C128.932 82.0908 140.083 80.3773 144.51 91.8457L136.505 95.4341C136.505 95.4341 133.927 93.5383 132.807 90.6114L134.75 87.5281C134.75 87.5281 131.552 88.2573 131.073 89.9499L125.854 88.5541L128.703 85.0595L128.932 82.0908Z" fill="#727FD3"/>
<path d="M118.552 80.1482L118.917 85.4241C119.01 86.5699 121.724 87.299 125.005 87.0698C128.292 86.8407 130.891 85.7209 130.802 84.6012L130.437 79.3253L118.552 80.1482Z" fill="#FAC09F"/>
<path d="M70.4218 42.0089H83.8125C86.0052 42.0089 87.7604 43.7901 87.7604 45.9619V57.2948C87.7604 59.4927 85.9791 61.2478 83.8125 61.2478H82.0573C81.4635 61.2478 80.9843 61.727 80.9843 62.3259V65.18C80.9843 65.8206 80.2343 66.1383 79.776 65.68L75.5573 61.5447C75.3489 61.3624 75.0989 61.2478 74.802 61.2478H70.4218C68.2343 61.2478 66.4791 59.4666 66.4791 57.2948V45.9879C66.4791 43.7901 68.2552 42.0089 70.4218 42.0089Z" fill="#FCEC45"/>
<path d="M69.9688 52.795V52.1336L75.125 49.5295V50.394L70.9271 52.4513V52.4773L75.125 54.5293V55.3991L69.9688 52.795Z" fill="#231F20"/>
<path d="M76.6718 55.8366H75.8541L78.6145 47.8577H79.4323L76.6718 55.8366Z" fill="#231F20"/>
<path d="M85.25 52.0867V52.8158L80.0938 55.3991V54.5293L84.3854 52.4773V52.4513L80.0938 50.394V49.5295L85.25 52.0867Z" fill="#231F20"/>
<mask id="mask2_33_472" style="mask-type:luminance" maskUnits="userSpaceOnUse" x="58" y="107" width="112" height="11">
<path d="M58.151 107.788H169.099V117.121H58.151V107.788Z" fill="white"/>
</mask>
<g mask="url(#mask2_33_472)">
<path d="M161.344 109.027L168.781 116.11H58.4948L62.2135 109.715L161.344 109.027Z" fill="#AF9877"/>
</g>
<mask id="mask3_33_472" style="mask-type:luminance" maskUnits="userSpaceOnUse" x="60" y="115" width="105" height="21">
<path d="M60.3385 115.788H164.339V135.698H60.3385V115.788Z" fill="white"/>
</mask>
<g mask="url(#mask3_33_472)">
<path d="M163.083 135.599H60.5051V117.027H163.083V135.599Z" fill="#776C68"/>
</g>
<mask id="mask4_33_472" style="mask-type:luminance" maskUnits="userSpaceOnUse" x="58" y="115" width="112" height="4">
<path d="M58.151 115.788H169.099V118.454H58.151V115.788Z" fill="white"/>
</mask>
<g mask="url(#mask4_33_472)">
<path d="M59.0677 117.985H168.187C168.687 117.985 169.099 117.574 169.099 117.074V117.027C169.099 116.522 168.687 116.11 168.187 116.11H59.0677C58.5625 116.11 58.151 116.522 58.151 117.027V117.074C58.151 117.574 58.5625 117.985 59.0677 117.985Z" fill="#807976"/>
</g>
<path d="M138.604 74.8932C138.604 74.8932 140.063 75.164 142.047 72.9505C144.031 70.7318 139.787 68.6746 139.787 68.6746L138.604 74.8932Z" fill="#FCD8C3"/>
<path d="M111.594 70.159C111.594 70.8048 111.479 71.4298 111.255 72.0235C111.026 72.6224 110.703 73.1484 110.281 73.6016C109.859 74.0599 109.37 74.4088 108.823 74.6588C108.271 74.9036 107.698 75.0286 107.104 75.0286C106.505 75.0286 105.932 74.9036 105.38 74.6588C104.833 74.4088 104.344 74.0599 103.927 73.6016C103.505 73.1484 103.177 72.6224 102.953 72.0235C102.724 71.4298 102.609 70.8048 102.609 70.159C102.609 69.5132 102.724 68.8934 102.953 68.2997C103.177 67.7007 103.505 67.1747 103.927 66.7216C104.344 66.2633 104.833 65.9091 105.38 65.6643C105.932 65.4196 106.505 65.2946 107.104 65.2946C107.698 65.2946 108.271 65.4196 108.823 65.6643C109.37 65.9091 109.859 66.2633 110.281 66.7216C110.703 67.1747 111.026 67.7007 111.255 68.2997C111.479 68.8934 111.594 69.5132 111.594 70.159Z" fill="#EEC6B5"/>
<path d="M147.589 67.2111C147.589 70.2319 144.943 73.2682 142.432 73.2682C139.901 73.2682 137.87 70.8256 137.87 67.8101C137.87 64.7894 139.927 62.3467 142.432 62.3467C144.964 62.3259 147.589 64.1956 147.589 67.2111Z" fill="#EEC6B5"/>
<path d="M139.766 74.4557C141.25 72.6745 140.703 69.4507 140.812 65.9352C140.859 64.5863 141.547 63.3728 142.432 62.3259C142.276 51.6961 135.115 43.863 123.25 43.863C111.276 43.863 106.146 51.1024 106.146 61.8884C106.146 67.7164 106.828 76.5338 108.036 77.565C113.833 82.4294 116.885 82.4294 122.385 82.4294C129.5 82.4294 135.818 79.3462 139.786 74.5703C139.745 74.5234 139.766 74.5026 139.766 74.4557Z" fill="#FCD8C3"/>
<path d="M139.766 74.5702C139.766 74.5233 139.766 74.5025 139.766 74.4556C139.766 74.5025 139.745 74.5233 139.766 74.5702Z" stroke="#FCD8C3" stroke-width="0.228302" stroke-miterlimit="10"/>
<path d="M114.719 57.8209C114.719 57.8209 114.677 57.8 114.604 57.774C114.536 57.7532 114.422 57.7063 114.266 57.6646C114.125 57.5917 113.943 57.524 113.76 57.4355C113.578 57.3417 113.375 57.2532 113.146 57.1386C112.917 57.024 112.693 56.9094 112.438 56.8157C112.328 56.748 112.188 56.7011 112.052 56.6542C111.984 56.6334 111.917 56.6126 111.849 56.5865C111.776 56.5657 111.708 56.5449 111.641 56.5188C111.37 56.4303 111.115 56.3834 110.844 56.3574C110.776 56.3574 110.708 56.3574 110.635 56.3365C110.568 56.3365 110.5 56.3365 110.432 56.3365C110.365 56.3365 110.297 56.3574 110.229 56.3574H110.115C110.115 56.3574 110.156 56.3574 110.135 56.3574H110.115L110.047 56.3834H109.953C109.932 56.3834 109.906 56.3834 109.885 56.4042L109.792 56.4303L109.703 56.4511C109.589 56.498 109.474 56.5657 109.359 56.6334C109.13 56.7688 108.906 56.9303 108.698 57.1126C108.286 57.4771 107.948 57.9146 107.693 58.3C107.557 58.5083 107.469 58.6906 107.375 58.8729C107.286 59.0552 107.24 59.2166 107.172 59.3521C107.125 59.4927 107.104 59.6021 107.078 59.675C107.057 59.7635 107.057 59.7895 107.057 59.7895C107.057 59.7895 107.031 59.7427 107.01 59.675C106.99 59.6021 106.943 59.4666 106.922 59.3312C106.896 59.1698 106.875 58.9875 106.875 58.7583C106.875 58.5292 106.922 58.2792 106.99 58.0031C107.057 57.7323 107.146 57.4563 107.307 57.1594C107.443 56.8626 107.625 56.5865 107.854 56.3157C108.083 56.0397 108.354 55.7636 108.677 55.5605C108.995 55.3314 109.385 55.1491 109.818 55.0553H109.974L110.297 55.0137C110.318 55.0137 110.344 55.0137 110.365 55.0137H110.432C110.526 55.0137 110.635 55.0137 110.729 55.0137C110.818 55.0137 110.932 55.0345 111.026 55.0553C111.411 55.1283 111.776 55.2376 112.099 55.3991C112.188 55.4459 112.255 55.4668 112.328 55.5137C112.396 55.5605 112.484 55.6074 112.552 55.6491C112.693 55.7428 112.828 55.8366 112.943 55.9251C113.193 56.1074 113.396 56.3157 113.578 56.498C113.672 56.5865 113.76 56.6803 113.833 56.7688C113.901 56.8626 113.99 56.9303 114.057 57.024C114.198 57.1803 114.313 57.3209 114.401 57.4355C114.495 57.55 114.563 57.6386 114.63 57.7063C114.677 57.8 114.719 57.8209 114.719 57.8209Z" fill="#443F4F"/>
<path d="M124.573 56.1073C124.573 56.1073 124.573 56.0604 124.552 55.9927C124.552 55.9719 124.531 55.925 124.531 55.8782C124.531 55.8573 124.531 55.8365 124.531 55.8105C124.531 55.7896 124.531 55.7428 124.531 55.7219C124.531 55.649 124.531 55.5813 124.531 55.4928C124.531 55.4251 124.552 55.3313 124.573 55.2376C124.599 55.149 124.62 55.0553 124.641 54.9667C124.667 54.873 124.734 54.7584 124.781 54.6699C124.896 54.4615 125.005 54.2324 125.193 54.0501C125.375 53.847 125.578 53.6647 125.807 53.4824C126.036 53.3001 126.307 53.1595 126.583 53.0449C126.854 52.9304 127.177 52.8418 127.469 52.7949C127.766 52.7481 128.089 52.7272 128.385 52.7481C128.682 52.7741 128.979 52.8158 129.271 52.9095C129.547 53.0033 129.823 53.1126 130.047 53.2533C130.161 53.321 130.276 53.3887 130.37 53.4824C130.411 53.5241 130.458 53.571 130.505 53.597C130.552 53.6387 130.594 53.6855 130.641 53.7116C130.708 53.8001 130.802 53.8678 130.849 53.9616C130.917 54.0501 130.964 54.1178 131.005 54.2116C131.052 54.3053 131.099 54.373 131.12 54.4407C131.146 54.5084 131.167 54.5761 131.188 54.6438C131.188 54.6699 131.214 54.7167 131.214 54.7376C131.214 54.7584 131.234 54.7845 131.234 54.8053C131.234 54.8522 131.255 54.899 131.255 54.9199C131.255 54.9876 131.281 55.0344 131.281 55.0344C131.281 55.0344 131.255 55.0136 131.188 54.9667C131.146 54.9199 131.073 54.8522 130.964 54.7845C130.917 54.7584 130.87 54.7167 130.802 54.6699C130.734 54.623 130.687 54.6022 130.62 54.5553C130.552 54.5084 130.484 54.4876 130.411 54.4407C130.344 54.3938 130.255 54.373 130.188 54.3261C130.094 54.3053 130.005 54.2584 129.911 54.2324C129.823 54.2116 129.729 54.1647 129.641 54.1647C129.453 54.1178 129.229 54.097 129.021 54.0761C128.818 54.0501 128.589 54.0501 128.359 54.0501C128.13 54.0501 127.906 54.097 127.677 54.1178C127.448 54.1647 127.219 54.2116 127.016 54.2793C126.969 54.3053 126.901 54.3261 126.854 54.3261L126.766 54.347L126.698 54.373C126.651 54.3938 126.583 54.4199 126.536 54.4407C126.49 54.4615 126.443 54.4876 126.375 54.5084C126.172 54.6022 125.99 54.6907 125.828 54.8053C125.646 54.9199 125.51 55.0344 125.375 55.149C125.302 55.2167 125.234 55.2636 125.193 55.3313C125.12 55.399 125.078 55.4459 125.031 55.5136C124.984 55.5813 124.938 55.6282 124.896 55.675C124.849 55.7219 124.823 55.7896 124.781 55.8365C124.734 55.8782 124.714 55.925 124.688 55.9719C124.667 56.0188 124.641 56.0396 124.62 56.0865C124.599 56.0604 124.573 56.1073 124.573 56.1073Z" fill="#443F4F"/>
<path d="M104.755 70.5704C104.755 70.5704 104.797 70.5704 104.865 70.5704C104.891 70.5704 104.937 70.5704 104.979 70.5964C105.005 70.5964 105.026 70.6172 105.047 70.6172C105.073 70.6172 105.094 70.6433 105.141 70.6433C105.187 70.6641 105.255 70.685 105.323 70.711C105.391 70.7318 105.437 70.7787 105.505 70.8256C105.573 70.8672 105.62 70.9141 105.687 70.961C105.755 71.0079 105.802 71.0756 105.849 71.1224C105.896 71.1641 105.963 71.237 106.005 71.2787C106.052 71.3256 106.099 71.3933 106.146 71.4401C106.234 71.5547 106.302 71.6693 106.349 71.763C106.417 71.8516 106.463 71.9453 106.484 71.987C106.51 72.0599 106.531 72.0807 106.531 72.0807C106.531 72.0807 106.484 72.0599 106.443 72.0339C106.37 72.013 106.302 71.9662 106.187 71.8985C106.005 71.763 105.781 71.5547 105.573 71.3516C105.526 71.3047 105.484 71.237 105.437 71.1901C105.391 71.1433 105.344 71.0964 105.302 71.0287C105.255 70.9818 105.208 70.9402 105.161 70.8933C105.12 70.8464 105.073 70.7995 105.047 70.7787C105.005 70.7318 104.979 70.711 104.937 70.685C104.911 70.6641 104.865 70.6172 104.844 70.5964C104.776 70.5964 104.755 70.5704 104.755 70.5704Z" fill="#F48A8B"/>
<path d="M143.458 67.258C143.458 67.258 143.417 67.3049 143.323 67.3726C143.276 67.3986 143.234 67.4403 143.188 67.4872C143.167 67.508 143.141 67.534 143.094 67.5549C143.073 67.5809 143.026 67.6018 143.005 67.6486C142.938 67.6955 142.87 67.7632 142.797 67.8309C142.729 67.8986 142.661 67.9663 142.573 68.034C142.526 68.0809 142.505 68.1069 142.458 68.1486C142.411 68.1955 142.391 68.2163 142.344 68.2632C142.297 68.3101 142.276 68.3309 142.229 68.3778C142.182 68.4246 142.161 68.4715 142.115 68.4923C142.047 68.5861 141.979 68.6538 141.911 68.7423C141.844 68.8361 141.771 68.9298 141.729 68.9975C141.682 69.0861 141.615 69.1538 141.568 69.2475C141.547 69.2944 141.521 69.3361 141.5 69.3621C141.474 69.409 141.453 69.4298 141.432 69.4767C141.385 69.5444 141.365 69.6121 141.318 69.6798C141.292 69.7058 141.292 69.7475 141.271 69.7736C141.25 69.7944 141.25 69.8204 141.224 69.8413C141.182 69.935 141.156 69.9767 141.156 69.9767C141.156 69.9767 141.156 69.909 141.156 69.8204C141.156 69.7944 141.156 69.7736 141.156 69.7267C141.156 69.7058 141.156 69.659 141.182 69.6381C141.182 69.5913 141.203 69.5652 141.203 69.5236C141.203 69.4767 141.224 69.4298 141.224 69.3829C141.25 69.3361 141.25 69.2944 141.271 69.2475C141.292 69.2007 141.292 69.1538 141.318 69.1121C141.339 69.0184 141.406 68.9038 141.453 68.8153C141.474 68.7684 141.5 68.7215 141.547 68.6538C141.568 68.6069 141.615 68.5601 141.635 68.4923C141.703 68.4038 141.771 68.2892 141.865 68.1955C141.953 68.1069 142.026 68.0132 142.115 67.9455C142.208 67.8517 142.297 67.784 142.391 67.7163C142.432 67.6695 142.479 67.6486 142.526 67.6226C142.573 67.6018 142.615 67.5549 142.661 67.534C142.755 67.4872 142.844 67.4403 142.911 67.3986C142.958 67.3726 143.005 67.3518 143.026 67.3518C143.073 67.3257 143.094 67.3257 143.141 67.3049C143.208 67.2841 143.276 67.258 143.323 67.2372C143.417 67.258 143.458 67.258 143.458 67.258Z" fill="#F48A8B"/>
<mask id="mask5_33_472" style="mask-type:luminance" maskUnits="userSpaceOnUse" x="96" y="32" width="53" height="39">
<path d="M96.3386 32.754H148.339V70.4558H96.3386V32.754Z" fill="white"/>
</mask>
<g mask="url(#mask5_33_472)">
<path d="M147.682 48.8629C147.589 47.4046 146.88 46.1442 145.833 45.1651C144.761 44.1807 143.667 44.3422 144.261 42.8579C144.875 41.3683 145.354 39.7694 145.078 38.1966C144.828 36.6185 143.62 35.0873 142.026 34.9259C141.953 34.9259 141.865 34.9259 141.818 34.9727C141.771 35.0196 141.771 35.0873 141.797 35.155C141.886 36.0248 142.026 36.9154 141.979 37.7851C141.953 38.1497 141.25 40.2069 141.365 40.3632C140.656 39.3111 139.833 38.3528 138.922 37.5091C136.073 34.8581 132.24 33.2332 128.042 33.2332C127.516 33.2332 126.99 33.2592 126.49 33.3061C125.396 33.0509 124.276 32.9363 123.115 32.9363C117.391 32.9363 112.141 36.181 109.427 41.186C109.953 40.2277 105.599 41.7121 105.302 41.9204C103.636 42.9672 102.292 44.3839 100.854 45.7119C99.7136 46.7848 98.0261 47.7014 97.4793 49.2535C96.6095 51.6961 97.797 55.5814 98.297 58.0292C99.2084 62.5082 101.057 65.0185 104.615 67.7841C105.552 68.5184 106.052 69.3153 106.714 69.1799C106.714 68.7892 106.578 66.732 106.557 66.3466C106.349 64.3571 106.328 62.3676 106.328 60.3572C106.328 58.5084 106.807 56.7688 107.625 55.2637C108.427 57.3209 109.589 59.4458 111.188 60.1541C111.188 60.1541 110.865 59.0552 110.568 57.5501C110.594 57.5709 110.615 57.6178 110.636 57.6386C110.526 57.2532 110.453 56.8417 110.453 56.4303C110.432 56.3366 110.432 56.222 110.453 56.1334C109.974 53.9825 109.75 51.1753 111.344 49.6441C114.151 46.9931 118.87 48.4514 123.136 47.29C127.427 46.1025 129.912 45.6651 129.912 45.6651C129.912 45.6651 128.886 58.6698 138.901 60.7479L138.943 62.9613L139.037 67.5341L140.063 67.8309C140.063 67.8309 140.609 64.7008 141.729 63.0082C142.573 62.8936 143.323 62.6436 144.011 62.253C144.214 61.7739 144.417 61.3208 144.625 60.8364C144.693 60.701 144.807 60.6124 144.922 60.5656C145.698 58.3469 147.865 51.8575 147.682 48.8629Z" fill="#5E606D"/>
</g>
<path d="M110.5 50.6232C110.5 50.6232 110.526 50.5347 110.594 50.394C110.615 50.3263 110.661 50.2378 110.682 50.1232C110.708 50.0086 110.776 49.894 110.844 49.7326C110.865 49.6649 110.911 49.5972 110.932 49.5034C110.979 49.4357 111.005 49.3472 111.047 49.2534C111.094 49.1597 111.115 49.092 111.161 49.0035C111.208 48.9097 111.255 48.8212 111.297 48.7274C111.505 48.3368 111.734 47.9306 112.052 47.4931C112.349 47.0608 112.714 46.6025 113.146 46.1702C113.578 45.7327 114.057 45.3005 114.604 44.9359C114.745 44.8421 114.88 44.7536 115.042 44.6599C115.177 44.5713 115.339 44.4776 115.474 44.4099C115.771 44.2484 116.089 44.087 116.406 43.9515C116.729 43.8161 117.068 43.7016 117.411 43.587C117.573 43.5401 117.755 43.4932 117.911 43.4516L118.167 43.3787L118.417 43.337C119.125 43.1964 119.828 43.1078 120.516 43.0818C120.698 43.0818 120.854 43.0818 121.036 43.0818C121.224 43.0818 121.38 43.0818 121.563 43.0818C121.906 43.0818 122.25 43.1287 122.568 43.1547C123.229 43.2224 123.844 43.3109 124.438 43.4516C125.031 43.5661 125.578 43.7224 126.078 43.863C126.583 44.0193 127.036 44.1807 127.427 44.3161C127.813 44.4776 128.156 44.613 128.427 44.7536C128.703 44.8682 128.932 44.9828 129.068 45.0505C129.203 45.1182 129.297 45.165 129.297 45.165C129.297 45.165 129.203 45.139 129.068 45.0713C128.906 45.0244 128.682 44.9359 128.406 44.8421C128.109 44.7536 127.766 44.639 127.359 44.5244C126.948 44.4099 126.49 44.2953 125.99 44.1807C125.74 44.113 125.464 44.0661 125.193 44.0193C124.917 43.9776 124.641 43.9047 124.344 43.863C123.755 43.7693 123.135 43.7016 122.5 43.6547C121.859 43.6078 121.198 43.6078 120.536 43.6339C119.875 43.6755 119.193 43.7484 118.531 43.8838C117.87 44.0193 117.208 44.2015 116.589 44.4567C115.974 44.7067 115.38 45.0036 114.859 45.3473C114.333 45.6911 113.833 46.0765 113.422 46.4671C113.214 46.6702 113.01 46.8785 112.828 47.0608C112.734 47.1494 112.646 47.2639 112.552 47.3577C112.464 47.4462 112.396 47.5608 112.302 47.6545C111.984 48.066 111.708 48.4306 111.479 48.7951C111.438 48.8889 111.37 48.9774 111.323 49.0503C111.276 49.1389 111.229 49.2066 111.188 49.3003C111.141 49.368 111.094 49.4566 111.047 49.5295C111.005 49.5972 110.979 49.6649 110.932 49.7326C110.865 49.868 110.797 49.9826 110.75 50.0972C110.708 50.2117 110.661 50.3055 110.615 50.3732C110.547 50.5555 110.5 50.6232 110.5 50.6232Z" fill="#2F365B"/>
<path d="M126.651 40.2069C126.651 40.2069 126.536 40.16 126.307 40.0923C126.078 40.0194 125.74 39.9308 125.302 39.8163C124.87 39.7017 124.344 39.5663 123.755 39.4256C123.135 39.2902 122.453 39.1288 121.698 38.9934C120.948 38.858 120.125 38.7434 119.26 38.6496C118.391 38.5611 117.479 38.5142 116.521 38.5142C115.589 38.5142 114.604 38.6028 113.651 38.7903C112.693 38.9934 111.734 39.3111 110.911 39.8371C110.5 40.0923 110.115 40.3892 109.771 40.7537C109.427 41.0975 109.13 41.4829 108.906 41.8943L108.813 42.0558L108.792 42.1026V42.1235L108.745 42.2172C108.698 42.3318 108.63 42.4464 108.583 42.5557C108.469 42.7849 108.354 42.9932 108.245 43.2224C108.13 43.4515 108.036 43.6547 107.922 43.8838C107.833 44.113 107.719 44.3161 107.625 44.5244C107.536 44.7275 107.443 44.9567 107.354 45.1859C107.307 45.3004 107.26 45.3942 107.219 45.5036C107.193 45.5504 107.172 45.6181 107.146 45.665C107.125 45.7119 107.104 45.7796 107.078 45.8265C106.922 46.2587 106.76 46.6702 106.646 47.0816C106.625 47.1962 106.578 47.29 106.557 47.4045C106.531 47.4462 106.531 47.4931 106.51 47.5608C106.484 47.6077 106.484 47.6754 106.464 47.7222C106.417 47.9306 106.37 48.1337 106.328 48.316C106.302 48.4097 106.281 48.5243 106.26 48.6128C106.234 48.7066 106.214 48.8212 106.214 48.9097C106.188 49.0034 106.167 49.092 106.167 49.2066C106.167 49.3003 106.146 49.3888 106.146 49.4826C106.146 49.5711 106.12 49.6649 106.12 49.7586C106.12 49.8003 106.12 49.8472 106.099 49.894C106.099 49.9409 106.099 49.9826 106.099 50.0294C106.099 50.2117 106.078 50.394 106.078 50.5555C106.078 50.7378 106.078 50.8992 106.078 51.0607C106.078 51.1023 106.078 51.1492 106.078 51.1752C106.078 51.2169 106.078 51.2638 106.078 51.2846C106.078 51.3575 106.099 51.4461 106.099 51.5138C106.099 51.5815 106.12 51.6752 106.12 51.7429C106.12 51.8106 106.146 51.8835 106.146 51.9721C106.167 52.1075 106.167 52.2481 106.188 52.3835C106.234 52.6596 106.26 52.8887 106.302 53.1127C106.37 53.5502 106.443 53.8939 106.484 54.1439C106.531 54.373 106.557 54.5085 106.557 54.5085C106.557 54.5085 106.531 54.3939 106.464 54.1439C106.417 53.9147 106.302 53.571 106.214 53.1387C106.146 52.9304 106.099 52.6804 106.031 52.4044C106.005 52.2689 105.984 52.1335 105.938 51.9929C105.917 51.9252 105.917 51.8575 105.896 51.769C105.896 51.6961 105.87 51.6075 105.87 51.5398C105.87 51.4721 105.849 51.3784 105.849 51.3106C105.849 51.2638 105.849 51.2169 105.823 51.1961C105.823 51.1492 105.823 51.1023 105.823 51.0815C105.802 50.92 105.802 50.7378 105.781 50.5555C105.781 50.3732 105.781 50.1909 105.781 50.0086C105.781 49.9617 105.781 49.9149 105.781 49.868C105.781 49.8263 105.781 49.7795 105.781 49.7326C105.781 49.644 105.802 49.5503 105.802 49.4357C105.802 49.3472 105.823 49.2326 105.823 49.1388C105.823 49.0503 105.849 48.9357 105.87 48.842C105.896 48.7482 105.896 48.6389 105.917 48.5451C105.938 48.4514 105.938 48.3368 105.964 48.2274C106.005 48.0191 106.052 47.816 106.099 47.6077C106.099 47.5608 106.12 47.4931 106.12 47.4462C106.146 47.4045 106.146 47.3316 106.167 47.29C106.188 47.1754 106.214 47.0816 106.26 46.9671C106.37 46.5348 106.51 46.1025 106.667 45.665C106.693 45.6181 106.714 45.5504 106.714 45.5036C106.74 45.4619 106.76 45.3942 106.781 45.3473C106.828 45.2327 106.875 45.1182 106.922 45.0244C107.01 44.7953 107.104 44.5713 107.193 44.363C107.286 44.1338 107.401 43.9047 107.49 43.7015C107.583 43.4724 107.693 43.2432 107.786 43.0141C107.901 42.7849 108.016 42.5818 108.104 42.3526C108.151 42.2381 108.219 42.1235 108.266 42.0089L108.313 41.9204L108.333 41.8943L108.354 41.8735L108.38 41.8266L108.469 41.6443C108.724 41.186 109.042 40.7537 109.427 40.3631C109.792 39.9777 110.229 39.6548 110.682 39.3579C111.594 38.8111 112.62 38.4673 113.625 38.2642C114.125 38.1705 114.63 38.1028 115.13 38.0559C115.635 38.009 116.135 38.009 116.615 38.009C117.594 38.009 118.531 38.1028 119.396 38.2382C120.266 38.3528 121.083 38.5142 121.839 38.6965C122.589 38.858 123.276 39.0611 123.87 39.2225C124.458 39.4048 124.984 39.5663 125.396 39.7225C125.828 39.8631 126.146 39.9985 126.375 40.0923C126.536 40.16 126.651 40.2069 126.651 40.2069Z" fill="#443F4F"/>
<path d="M106.078 43.2224C106.005 43.1963 105.896 43.1547 105.802 43.1286C105.688 43.0818 105.573 43.0401 105.438 42.9932C105.302 42.9463 105.162 42.8786 105.005 42.8318C104.844 42.7849 104.682 42.7432 104.5 42.6964C104.135 42.8995 103.797 43.0818 103.432 43.3109L103.521 43.2901H103.568L103.635 43.264C103.724 43.2432 103.797 43.2432 103.885 43.2224C104.047 43.1963 104.229 43.1963 104.385 43.2224C104.729 43.2432 105.047 43.3109 105.344 43.337C105.417 43.337 105.484 43.3578 105.552 43.3578C105.62 43.3578 105.688 43.3578 105.734 43.3786C105.849 43.3786 105.964 43.3786 106.052 43.3786C106.146 43.3786 106.214 43.3578 106.26 43.3578C106.302 43.3578 106.328 43.3578 106.328 43.3578C106.328 43.3578 106.302 43.3578 106.26 43.337C106.234 43.2901 106.167 43.264 106.078 43.2224Z" fill="#443F4F"/>
<mask id="mask6_33_472" style="mask-type:luminance" maskUnits="userSpaceOnUse" x="117" y="32" width="21" height="11">
<path d="M117.672 32.754H137.672V42.4568H117.672V32.754Z" fill="white"/>
</mask>
<g mask="url(#mask6_33_472)">
<path d="M136.391 41.3475C136.391 41.3475 136.344 41.2798 136.229 41.1652C136.182 41.1183 136.115 41.0298 136.047 40.9569C135.979 40.8683 135.885 40.7746 135.797 40.66C135.75 40.6183 135.703 40.5454 135.661 40.4777C135.615 40.41 135.568 40.3423 135.5 40.2746C135.385 40.134 135.271 39.9777 135.156 39.8163C134.932 39.4986 134.656 39.1288 134.359 38.7642C134.292 38.6757 134.198 38.582 134.109 38.4934C134.062 38.4465 134.016 38.3997 133.995 38.3528C133.948 38.3059 133.901 38.2643 133.859 38.2174C133.766 38.1236 133.677 38.0351 133.583 37.9413C133.495 37.8528 133.38 37.7591 133.266 37.6705C133.219 37.6237 133.151 37.5768 133.104 37.5299C133.057 37.483 132.99 37.4414 132.948 37.3945C132.833 37.3007 132.719 37.2122 132.604 37.1185C132.49 37.0299 132.375 36.9362 132.26 36.8476C132.146 36.7539 132.01 36.6654 131.896 36.5716C131.396 36.2279 130.87 35.8841 130.323 35.5873C130.187 35.5196 130.047 35.4519 129.891 35.3581C129.75 35.2904 129.594 35.2227 129.453 35.1342C129.318 35.0612 129.161 34.9727 129.021 34.905L128.588 34.6758C128.021 34.3529 127.448 34.0561 126.88 33.8321C126.583 33.7175 126.307 33.6238 126.01 33.5561C125.943 33.53 125.875 33.5092 125.781 33.5092C125.713 33.4884 125.646 33.4884 125.557 33.4623C125.484 33.4415 125.417 33.4415 125.328 33.4415L125.213 33.4207H125.193H125.099C125.031 33.4207 124.937 33.3946 124.87 33.3946H124.755C124.713 33.3946 124.687 33.3946 124.641 33.3946C124.573 33.3946 124.505 33.3946 124.437 33.3946H124.208C124.073 33.3946 123.937 33.3946 123.797 33.4207C123.661 33.4415 123.526 33.4415 123.391 33.4623C123.25 33.4884 123.115 33.5092 123 33.53C122.865 33.5561 122.75 33.603 122.615 33.6238C122.359 33.6915 122.109 33.7592 121.885 33.8321C121.427 33.9884 120.995 34.1498 120.63 34.2852C120.266 34.4258 119.922 34.5613 119.672 34.6498C119.396 34.7435 119.193 34.8113 119.031 34.8581C118.896 34.905 118.802 34.9258 118.802 34.9258C118.802 34.9258 118.87 34.879 119.01 34.8373C119.146 34.7644 119.349 34.6758 119.604 34.5404C119.854 34.3998 120.172 34.2384 120.536 34.0821C120.901 33.8998 121.312 33.6915 121.771 33.5092C122.224 33.3269 122.75 33.1446 123.297 33.0092C123.432 32.9624 123.594 32.9624 123.729 32.9155C123.87 32.8947 124.026 32.8686 124.187 32.8686L124.302 32.8478H124.417C124.484 32.8478 124.573 32.8478 124.641 32.8478C124.734 32.8478 124.802 32.8478 124.87 32.8478C124.937 32.8478 125.031 32.8478 125.099 32.8478H125.234L125.349 32.8686C125.443 32.8686 125.51 32.8947 125.599 32.8947C125.693 32.9155 125.76 32.9155 125.854 32.9363C125.943 32.9624 126.01 32.9624 126.104 32.9832C126.422 33.0509 126.74 33.1446 127.062 33.2592C127.677 33.4884 128.271 33.8061 128.865 34.129L129.297 34.3529C129.432 34.4258 129.568 34.5144 129.729 34.5821L130.187 34.8113C130.323 34.879 130.484 34.9727 130.62 35.0404C131.187 35.3581 131.734 35.7279 132.24 36.0925C132.354 36.181 132.49 36.2747 132.604 36.3685C132.719 36.457 132.833 36.5716 132.948 36.6654C133.057 36.7539 133.172 36.8685 133.286 36.9622C133.333 37.0039 133.401 37.0508 133.448 37.1185C133.495 37.1653 133.536 37.2122 133.609 37.2799C133.698 37.3737 133.812 37.483 133.901 37.5768C133.995 37.6914 134.088 37.7851 134.177 37.8945C134.224 37.9413 134.271 37.9882 134.312 38.0559C134.359 38.1028 134.406 38.1705 134.427 38.2174C134.495 38.332 134.588 38.4205 134.656 38.5142C134.953 38.9257 135.182 39.3111 135.385 39.6548C135.5 39.8163 135.594 39.9777 135.682 40.134C135.729 40.2069 135.776 40.2746 135.818 40.3423C135.865 40.41 135.911 40.4777 135.932 40.5246C136 40.6392 136.073 40.7537 136.141 40.8423C136.208 40.936 136.255 41.0037 136.297 41.0714C136.344 41.2798 136.391 41.3475 136.391 41.3475Z" fill="#443F4F"/>
</g>
<path d="M135.5 48.8889C135.5 48.8889 135.5 48.9357 135.5 49.0243C135.5 49.118 135.5 49.2534 135.521 49.4357C135.521 49.5972 135.568 49.8003 135.615 50.0555C135.661 50.2794 135.75 50.5346 135.865 50.8055C135.885 50.8732 135.911 50.9461 135.958 51.0138C135.979 51.0815 136.026 51.1492 136.073 51.2169C136.141 51.3575 136.229 51.4929 136.297 51.6283C136.479 51.9044 136.661 52.2012 136.917 52.4773C137.026 52.6127 137.167 52.7481 137.281 52.8887C137.349 52.9564 137.417 53.0241 137.484 53.0918L137.578 53.1856L137.687 53.2741C137.76 53.3418 137.828 53.4095 137.896 53.4824C137.963 53.5501 138.031 53.597 138.125 53.6647C138.193 53.7324 138.26 53.7793 138.349 53.847C138.422 53.9147 138.51 53.9616 138.578 54.0293C138.74 54.1439 138.901 54.2585 139.057 54.373C139.219 54.4876 139.38 54.5762 139.536 54.6907C139.604 54.7376 139.698 54.7845 139.786 54.8522C139.88 54.8991 139.948 54.9407 140.042 54.9876C140.198 55.0813 140.359 55.1699 140.521 55.2636C140.838 55.4459 141.156 55.5813 141.474 55.7219C141.635 55.7897 141.771 55.8574 141.932 55.9042C142.068 55.9459 142.229 56.0188 142.365 56.0605C142.432 56.0865 142.505 56.1074 142.573 56.1334C142.641 56.1542 142.708 56.1751 142.776 56.1751C142.911 56.2219 143.026 56.248 143.141 56.2688C143.208 56.2896 143.255 56.2896 143.302 56.3157C143.349 56.3157 143.417 56.3365 143.458 56.3365C143.505 56.3365 143.552 56.3573 143.599 56.3573C143.641 56.3573 143.687 56.3834 143.734 56.3834C143.828 56.4042 143.896 56.4042 143.963 56.4042C144.031 56.4042 144.078 56.4042 144.12 56.4303C144.213 56.4303 144.26 56.4511 144.26 56.4511C144.26 56.4511 144.213 56.4511 144.12 56.4719C144.078 56.4719 144.01 56.498 143.937 56.498C143.87 56.498 143.802 56.498 143.713 56.5188C143.667 56.5188 143.62 56.5188 143.573 56.5188C143.531 56.5188 143.484 56.5188 143.417 56.5188C143.302 56.5188 143.187 56.5188 143.073 56.498C142.958 56.498 142.823 56.4719 142.687 56.4511C142.615 56.4511 142.547 56.4303 142.479 56.4303C142.411 56.4042 142.344 56.4042 142.25 56.3834C141.953 56.3365 141.635 56.248 141.292 56.1334C140.953 56.0188 140.609 55.9042 140.266 55.7428C139.927 55.5813 139.562 55.399 139.219 55.1959C138.875 54.9876 138.531 54.7584 138.213 54.5084C137.896 54.2585 137.578 53.9824 137.302 53.7116L137.187 53.597L137.099 53.4824C137.026 53.4095 136.958 53.3418 136.891 53.2533C136.755 53.0918 136.641 52.9564 136.526 52.795C136.297 52.4981 136.094 52.1544 135.932 51.8575C135.865 51.696 135.776 51.5398 135.729 51.3784C135.703 51.3106 135.661 51.2169 135.635 51.1492C135.615 51.0815 135.594 50.9877 135.568 50.92C135.521 50.7846 135.5 50.6232 135.479 50.4878C135.453 50.42 135.453 50.3523 135.453 50.2794C135.453 50.2117 135.432 50.144 135.432 50.0971C135.411 49.8472 135.432 49.644 135.453 49.4565C135.479 49.2743 135.5 49.1388 135.521 49.0503C135.479 48.9357 135.5 48.8889 135.5 48.8889Z" fill="#443F4F"/>
<path d="M145.375 53.321C145.443 53.321 145.516 53.321 145.583 53.3002C145.719 53.2741 145.833 53.2533 145.948 53.2272C145.969 53.2272 145.969 53.2272 145.995 53.2272C146.016 53.1387 146.016 53.045 146.036 52.9564C145.995 52.9564 145.948 52.9564 145.901 52.9564C145.786 52.9564 145.672 52.9564 145.557 52.9564C145.333 52.9304 145.057 52.9304 144.807 52.8627C144.672 52.8418 144.531 52.795 144.396 52.7741C144.328 52.7481 144.26 52.7273 144.193 52.7012C144.12 52.6804 144.052 52.6596 143.984 52.6335C143.714 52.5189 143.438 52.3835 143.167 52.2481C142.891 52.0867 142.641 51.9044 142.365 51.7221C142.115 51.5398 141.865 51.3315 141.635 51.1023C141.406 50.8732 141.182 50.67 140.995 50.4409C140.885 50.3263 140.792 50.2117 140.703 50.0971C140.609 49.9826 140.521 49.868 140.427 49.7586C140.38 49.7117 140.333 49.644 140.313 49.5972C140.266 49.5503 140.245 49.4826 140.198 49.4357C140.13 49.3211 140.062 49.2326 139.995 49.118C139.859 48.9097 139.745 48.7274 139.651 48.5451C139.563 48.3628 139.469 48.2274 139.401 48.0868C139.333 47.9514 139.286 47.8576 139.266 47.7899C139.24 47.7222 139.219 47.6754 139.219 47.6754C139.219 47.6754 139.219 47.7222 139.24 47.7899C139.266 47.8576 139.266 47.9722 139.307 48.1337C139.333 48.2691 139.401 48.4514 139.469 48.6389C139.536 48.8211 139.63 49.0503 139.745 49.2743C139.786 49.3888 139.859 49.5034 139.927 49.618C139.948 49.6857 139.995 49.7326 140.016 49.8003C140.063 49.868 140.083 49.9149 140.13 49.9826C140.198 50.1232 140.292 50.2378 140.38 50.3523C140.427 50.42 140.474 50.4669 140.521 50.5346C140.563 50.6023 140.609 50.67 140.656 50.7169C140.703 50.7846 140.745 50.8315 140.813 50.8992C140.859 50.9669 140.927 51.0138 140.974 51.0815C141.089 51.2169 141.203 51.3315 141.318 51.4461C141.568 51.6752 141.818 51.9044 142.094 52.1075C142.365 52.3158 142.661 52.4981 142.958 52.6596C143.026 52.7012 143.12 52.7273 143.188 52.7741C143.255 52.8158 143.349 52.8418 143.417 52.8887C143.484 52.9095 143.573 52.9564 143.641 52.9773C143.714 53.0033 143.802 53.0241 143.87 53.045C143.937 53.071 144.031 53.0918 144.099 53.1127C144.167 53.1387 144.26 53.1595 144.328 53.1595C144.49 53.1856 144.625 53.2272 144.781 53.2272C144.922 53.2533 145.078 53.2533 145.219 53.2533C145.24 53.3418 145.307 53.3418 145.375 53.321Z" fill="#443F4F"/>
<path d="M145.604 48.9566C145.766 49.1597 145.901 49.368 146.036 49.5503C146.177 49.7586 146.313 49.9617 146.448 50.144C146.448 50.1649 146.474 50.1649 146.474 50.1909C146.495 50.0972 146.516 50.0086 146.516 49.894C146.542 49.7586 146.563 49.5972 146.583 49.4565C146.583 49.4357 146.609 49.4149 146.609 49.368C146.583 49.3211 146.542 49.2534 146.516 49.2066C146.38 48.9774 146.219 48.7743 146.083 48.566C145.922 48.3628 145.766 48.1545 145.583 47.9722C145.49 47.8837 145.401 47.7899 145.307 47.7014C145.219 47.6077 145.125 47.5191 145.036 47.4462C144.854 47.29 144.646 47.1285 144.464 47.0139C144.281 46.8785 144.078 46.7848 143.896 46.7171C143.714 46.6494 143.505 46.6025 143.349 46.5817C143.188 46.5556 143.026 46.6025 142.911 46.6233C142.797 46.6494 142.729 46.7171 142.661 46.7379C142.615 46.7848 142.594 46.7848 142.594 46.7848C142.594 46.7848 142.615 46.7848 142.688 46.7639C142.755 46.7379 142.823 46.7379 142.938 46.7379C143.052 46.7379 143.167 46.7639 143.302 46.8108C143.438 46.8525 143.599 46.9202 143.734 47.0139C144.031 47.1962 144.349 47.4931 144.672 47.8368C144.828 47.9983 144.99 48.1806 145.151 48.3628C145.286 48.566 145.443 48.7482 145.604 48.9566Z" fill="#443F4F"/>
<path d="M104.661 47.7014C104.661 47.7014 104.615 47.7222 104.526 47.7691C104.432 47.816 104.297 47.8837 104.135 47.9722C104.047 48.0191 103.953 48.066 103.865 48.1337C103.771 48.2014 103.656 48.2691 103.542 48.3368C103.432 48.4097 103.318 48.4982 103.203 48.5659C103.088 48.6597 102.953 48.7482 102.838 48.842C102.724 48.9357 102.583 49.0503 102.448 49.1597C102.312 49.2743 102.177 49.3888 102.062 49.5295C101.786 49.7794 101.536 50.0763 101.286 50.3732C101.036 50.67 100.786 51.0138 100.557 51.3575C100.328 51.696 100.125 52.0658 99.9166 52.4512C99.7135 52.8158 99.552 53.2064 99.3905 53.597C99.2343 53.9824 99.0937 54.373 98.9843 54.7584C98.8697 55.149 98.7551 55.5136 98.6874 55.8782C98.5937 56.248 98.5468 56.5865 98.4791 56.9094C98.4583 57.0656 98.4322 57.2271 98.4114 57.3625C98.3905 57.5031 98.3905 57.6646 98.3645 57.774C98.3645 57.9146 98.3437 58.0292 98.3437 58.1437C98.3437 58.2583 98.3228 58.3729 98.3228 58.4614C98.2968 58.6437 98.2968 58.8052 98.2968 58.8937C98.2968 58.9875 98.2968 59.0552 98.2968 59.0552C98.2968 59.0552 98.2968 59.0083 98.276 58.8937C98.2499 58.8052 98.2291 58.6437 98.2083 58.4614C98.2083 58.3729 98.1822 58.2583 98.1822 58.1437C98.1822 58.0292 98.1614 57.8885 98.1614 57.774C98.1614 57.6385 98.1614 57.5031 98.1614 57.3417C98.1614 57.1802 98.1614 57.024 98.1614 56.8625C98.1614 56.7011 98.1822 56.5188 98.1822 56.3365C98.2083 56.1542 98.2291 55.9719 98.2499 55.7897C98.2968 55.399 98.3905 55.0136 98.4791 54.6022C98.526 54.3939 98.5937 54.1907 98.6405 53.9824C98.7083 53.7793 98.776 53.571 98.8437 53.3679C99.0051 52.9564 99.1874 52.545 99.3905 52.1544C99.5989 51.769 99.828 51.3783 100.078 51.0138C100.213 50.8315 100.328 50.6492 100.463 50.4878C100.531 50.394 100.599 50.3263 100.672 50.2378C100.74 50.1648 100.807 50.0763 100.875 50.0086C101.172 49.7117 101.448 49.4149 101.74 49.1857C101.88 49.0711 102.036 48.9566 102.177 48.842C102.312 48.7274 102.474 48.6389 102.609 48.5451C102.745 48.4514 102.88 48.3837 103.021 48.2951C103.156 48.2274 103.271 48.1545 103.406 48.0868C103.521 48.0399 103.635 47.9722 103.75 47.9306C103.865 47.8837 103.953 47.8576 104.047 47.816C104.094 47.7899 104.135 47.7899 104.182 47.7691C104.229 47.7431 104.25 47.7431 104.297 47.7222C104.365 47.7014 104.432 47.6754 104.479 47.6754C104.615 47.7222 104.661 47.7014 104.661 47.7014Z" fill="#443F4F"/>
<path d="M129.162 45.7796C127.609 46.4879 126.057 47.1962 124.417 47.7014C122.953 48.1545 121.448 48.4514 119.854 48.4306C117.573 48.4306 115.589 48.5451 113.604 48.9774C112.76 49.1597 111.891 49.4149 111.026 49.7326C112.234 46.0296 116.432 43.7484 120.01 43.1964C123.276 42.6964 127.083 44.3161 129.891 46.0765" fill="#443F4F"/>
<path d="M144.396 61.5031C144.417 61.477 144.443 61.4302 144.443 61.4093C142.614 61.4562 140.38 61.2062 139.036 60.1281L138.739 60.425C138.307 61.3624 138.828 62.8468 139.036 63.8311C139.266 65.0186 139.239 66.4352 139.672 67.5081C141.109 66.8466 140.495 64.3363 141.656 63.2165C142.114 62.7582 143.302 62.1385 144.302 61.727C144.349 61.6176 144.375 61.5447 144.396 61.5031Z" fill="#443F4F"/>
<path d="M144.854 60.7947C144.875 60.7218 144.896 60.6332 144.922 60.5655C144.396 60.5187 140.927 60.0603 139.036 57.7531C138.375 56.9563 140.812 60.9978 138.901 61.8884C137.828 62.3936 142.594 62.1644 143.62 61.753C144.281 61.477 144.672 61.0447 144.854 60.7947Z" fill="#443F4F"/>
<path d="M103.818 51.5815C103.818 51.5815 103.771 51.6284 103.682 51.7429C103.635 51.7898 103.589 51.8575 103.542 51.9252C103.5 51.9929 103.432 52.0867 103.359 52.2013C103.25 52.4044 103.109 52.6596 102.974 52.9773C102.839 53.3002 102.724 53.6387 102.63 54.0501C102.516 54.4408 102.448 54.8991 102.38 55.3522C102.313 55.8105 102.266 56.3157 102.245 56.8417C102.219 57.0917 102.219 57.3625 102.219 57.6177C102.219 57.8886 102.219 58.1438 102.245 58.4146C102.266 58.9666 102.313 59.5135 102.359 60.0395C102.427 60.5864 102.495 61.1332 102.583 61.6593C102.677 62.1853 102.792 62.7113 102.927 63.2165C103.063 63.7165 103.203 64.1956 103.359 64.6331C103.521 65.0654 103.703 65.4768 103.885 65.8414C104.068 66.206 104.25 66.5289 104.458 66.7997C104.641 67.0757 104.823 67.3049 105.005 67.4872C105.094 67.5809 105.162 67.6486 105.234 67.7163C105.302 67.784 105.37 67.8309 105.417 67.8778C105.526 67.9663 105.573 67.9924 105.573 67.9924C105.573 67.9924 105.505 67.9663 105.391 67.8986C105.276 67.8309 105.12 67.7372 104.912 67.5809C104.729 67.4195 104.5 67.2111 104.276 66.9611C104.047 66.7112 103.818 66.3935 103.589 66.0237C103.359 65.6591 103.156 65.2477 102.953 64.8154C102.745 64.3779 102.583 63.8779 102.427 63.3727C102.359 63.1227 102.266 62.8727 102.198 62.5967C102.13 62.3259 102.063 62.0707 102.016 61.7999C101.901 61.2478 101.813 60.701 101.766 60.1281C101.698 59.5604 101.672 59.0083 101.651 58.4406C101.651 57.8886 101.651 57.3417 101.698 56.8157C101.74 56.2896 101.813 55.7897 101.901 55.3105C101.948 55.0814 102.016 54.8314 102.063 54.623C102.13 54.3939 102.198 54.1908 102.266 53.9824C102.401 53.571 102.563 53.2273 102.745 52.9304C102.906 52.6335 103.089 52.3835 103.245 52.1804C103.318 52.0867 103.406 51.9929 103.453 51.9252C103.521 51.8575 103.568 51.7898 103.635 51.769C103.771 51.6284 103.818 51.5815 103.818 51.5815Z" fill="#443F4F"/>
<path d="M138.01 60.7947C138.307 60.9092 138.531 61.0915 138.74 61.3415C138.787 61.1124 138.854 60.9092 138.943 60.7217L138.01 60.7947Z" fill="#674696" fill-opacity="0.4"/>
<path d="M141.109 73.1328C141.203 73.2891 141.339 73.4297 141.5 73.5182C141.521 73.4974 141.547 73.4766 141.568 73.4505C141.615 73.3828 141.339 73.2474 141.109 73.1328Z" fill="#674696" fill-opacity="0.4"/>
<path d="M128.109 71.987C128.338 74.5025 125.76 76.8097 122.338 77.1326C118.917 77.4503 115.953 74.664 115.724 73.1536C115.312 70.2735 118.552 71.237 121.953 70.7318C125.349 70.2527 127.859 69.4767 128.109 71.987Z" fill="#4C1211"/>
<path d="M121.927 70.6173C120.193 70.8673 118.484 70.7527 117.276 70.961C117.938 71.9193 119.807 72.4922 121.906 72.2839C124.005 72.0808 125.74 71.1902 126.219 70.1381C125.146 70.0704 123.641 70.3881 121.927 70.6173Z" fill="white"/>
<path d="M123.229 74.4348C121.109 74.5494 119.307 75.3045 118.484 76.2837C119.604 76.9034 120.927 77.2889 122.359 77.1743C124.302 76.992 125.964 76.1951 127.036 75.0754C126.057 74.6171 124.714 74.3671 123.229 74.4348Z" fill="#E17974"/>
<path d="M115.109 71.4402C115.224 72.7891 113.463 74.0234 111.187 74.2526C108.906 74.4557 106.943 73.5443 106.828 72.2162C106.713 70.8673 108.469 69.6381 110.75 69.409C113.031 69.2007 114.974 70.1173 115.109 71.4402Z" fill="#E8C1AC"/>
<path d="M137.896 69.7736C138.031 71.3256 136 72.7891 133.333 73.0182C130.687 73.2682 128.406 72.1954 128.271 70.6433C128.13 69.0861 130.161 67.6226 132.833 67.3986C135.5 67.1434 137.76 68.2163 137.896 69.7736Z" fill="#E8C1AC"/>
<path d="M130.073 67.8518C130.005 67.8518 129.932 67.8518 129.865 67.8518C128.839 67.8101 127.88 67.3518 127.177 66.5758C126.469 65.7945 126.125 64.8154 126.172 63.7634C126.26 61.6853 127.974 60.0604 130.047 60.0604C130.115 60.0604 130.188 60.0604 130.255 60.0604C132.396 60.1749 134.042 62.003 133.948 64.154C133.833 66.232 132.146 67.8518 130.073 67.8518Z" fill="white"/>
<path d="M130.047 60.1281C130.115 60.1281 130.188 60.1281 130.229 60.1281C132.354 60.2426 133.974 62.029 133.88 64.154C133.792 66.206 132.078 67.8101 130.047 67.8101C129.979 67.8101 129.912 67.8101 129.865 67.8101C127.745 67.6955 126.125 65.9091 126.219 63.7842C126.328 61.727 128.021 60.1281 130.047 60.1281ZM130.047 60.0135C127.948 60.0135 126.219 61.6593 126.125 63.7634C126.078 64.8154 126.443 65.8206 127.151 66.5966C127.859 67.3726 128.818 67.8309 129.865 67.8986C129.932 67.8986 130.005 67.8986 130.073 67.8986C132.172 67.8986 133.901 66.2529 133.995 64.154C134.042 63.1019 133.677 62.0967 132.969 61.3207C132.261 60.5395 131.302 60.0864 130.255 60.0135C130.188 60.0135 130.115 60.0135 130.047 60.0135Z" fill="#6D6E70"/>
<path d="M132.328 62.2321C131.807 62.279 131.599 62.4144 131.531 62.7373C131.464 63.0082 131.599 63.305 131.849 63.4665C132.172 63.6488 132.396 63.581 132.786 63.2373C132.786 63.2581 132.807 63.2842 132.807 63.305C132.901 63.6696 132.969 64.0133 132.901 64.3779C132.672 65.456 132.057 66.5497 130.62 66.8726C128.818 67.258 127.333 66.1383 127.036 64.4925C126.99 64.2894 127.036 64.081 127.036 63.8779C127.016 63.2842 127.198 62.7373 127.542 62.253C128.156 61.4301 128.953 61.0186 130.005 61.0447C130.917 61.0655 131.625 61.4301 132.214 62.0967C132.26 62.1384 132.307 62.1853 132.328 62.2321Z" fill="#404041"/>
<path d="M111.802 68.9976C111.734 68.9976 111.667 68.9976 111.594 68.9976C110.568 68.9507 109.609 68.4924 108.906 67.7164C108.198 66.9403 107.854 65.956 107.901 64.904C107.989 62.8259 109.703 61.2062 111.776 61.2062C111.849 61.2062 111.917 61.2062 111.984 61.2062C114.125 61.3208 115.771 63.1488 115.677 65.2946C115.562 67.3726 113.875 68.9976 111.802 68.9976Z" fill="white"/>
<path d="M111.776 61.2739C111.849 61.2739 111.917 61.2739 111.958 61.2739C114.083 61.3885 115.703 63.1696 115.609 65.2946C115.521 67.3518 113.807 68.9507 111.776 68.9507C111.708 68.9507 111.641 68.9507 111.594 68.9507C109.474 68.8361 107.854 67.0549 107.948 64.93C108.062 62.8728 109.75 61.2739 111.776 61.2739ZM111.776 61.1593C109.682 61.1593 107.948 62.8051 107.854 64.904C107.807 65.956 108.172 66.9612 108.88 67.7372C109.588 68.5184 110.547 68.9715 111.594 69.0392C111.667 69.0392 111.734 69.0392 111.802 69.0392C113.901 69.0392 115.635 67.3987 115.724 65.2946C115.771 64.2425 115.406 63.2374 114.698 62.4613C113.99 61.6853 113.031 61.227 111.984 61.1593C111.917 61.1593 111.849 61.1593 111.776 61.1593Z" fill="#6D6E70"/>
<path d="M114.313 63.3727C113.786 63.4196 113.578 63.555 113.51 63.8779C113.443 64.1539 113.578 64.4508 113.833 64.6071C114.151 64.7893 114.38 64.7216 114.766 64.3779C114.766 64.4039 114.786 64.4248 114.786 64.4508C114.88 64.8154 114.948 65.1591 114.88 65.5237C114.651 66.5966 114.036 67.6955 112.599 68.0132C110.797 68.4038 109.313 67.284 109.021 65.6383C108.974 65.4299 109.021 65.2268 109.021 65.0185C108.995 64.4248 109.177 63.8779 109.521 63.3988C110.135 62.5759 110.932 62.1644 111.984 62.1853C112.896 62.2113 113.604 62.5759 114.198 63.2373C114.24 63.2581 114.266 63.3311 114.313 63.3727Z" fill="#404041"/>
<path d="M97.9792 113.647C97.9323 113.647 97.9114 113.647 97.8646 113.621L80.7135 109.007C80.4844 108.939 80.3489 108.731 80.3698 108.501C80.3906 108.277 80.5989 108.116 80.8281 108.116H108.766C108.974 108.116 109.177 108.277 109.224 108.481C109.271 108.689 109.156 108.913 108.948 108.986L98.1614 113.6C98.1146 113.621 98.0469 113.647 97.9792 113.647Z" fill="#C4C6CA"/>
<path d="M108.766 108.548L97.9791 113.163L80.8281 108.548H108.766ZM108.766 107.637H80.8489C80.3906 107.637 80.0052 107.975 79.9375 108.434C79.8698 108.892 80.1666 109.324 80.5989 109.439L97.75 114.058C97.8177 114.079 97.9114 114.079 97.9791 114.079C98.0937 114.079 98.2291 114.058 98.3437 114.012L109.109 109.397C109.453 109.257 109.682 108.939 109.682 108.548C109.682 108.048 109.292 107.637 108.766 107.637Z" fill="#4F4F59"/>
<path d="M67.776 110.241L96.9531 113.756C98.8906 113.986 100.234 112.454 99.8958 110.355L94.8073 77.2472C94.5365 75.4192 92.8437 73.9557 91.0885 73.9973L64.4687 74.5234C63.0573 74.5494 62.0312 75.8983 62.1667 77.518L64.6979 106.585C64.8594 108.387 66.2292 110.059 67.776 110.241Z" fill="#5E606D"/>
<path d="M67.7084 109.876L95.9948 113.256C97.8646 113.486 99.1667 112.022 98.8438 110.012L93.9167 78.341C93.6459 76.6067 92.0261 75.2109 90.3125 75.2317L64.4948 75.7369C63.125 75.7578 62.1198 77.039 62.2604 78.591L64.724 106.356C64.8802 108.116 66.2292 109.694 67.7084 109.876Z" fill="#C5C7CB"/>
<path d="M82.7969 93.6112C83.0053 94.2102 83.099 94.8247 83.0834 95.4549C83.0678 96.0799 82.9375 96.6736 82.7032 97.2361C82.4636 97.7934 82.1303 98.2777 81.7032 98.684C81.2813 99.085 80.7969 99.3819 80.25 99.5746C79.7032 99.7621 79.1407 99.8298 78.5521 99.7725C77.9688 99.7204 77.4115 99.5485 76.8803 99.2569C76.3438 98.9652 75.8803 98.5798 75.4792 98.0954C75.0782 97.6111 74.7709 97.0694 74.5625 96.4705C74.3542 95.8664 74.2605 95.2518 74.2761 94.6216C74.2969 93.9966 74.4219 93.4029 74.6615 92.8456C74.9011 92.2832 75.2344 91.804 75.6563 91.3978C76.0834 90.9915 76.5678 90.6947 77.1146 90.5072C77.6615 90.3145 78.224 90.2468 78.8073 90.3041C79.3907 90.3561 79.948 90.5332 80.4844 90.8249C81.0157 91.1165 81.4844 91.5019 81.8855 91.9863C82.2865 92.4654 82.5886 93.0071 82.7969 93.6112Z" fill="white"/>
</svg>
