<svg width="94" height="93" viewBox="0 0 94 93" fill="none" xmlns="http://www.w3.org/2000/svg">
<mask id="mask0_2542_2767" style="mask-type:luminance" maskUnits="userSpaceOnUse" x="0" y="0" width="94" height="93">
<path d="M0.802002 0.229248H93.9791V92.6824H0.802002V0.229248Z" fill="white"/>
</mask>
<g mask="url(#mask0_2542_2767)">
<mask id="mask1_2542_2767" style="mask-type:luminance" maskUnits="userSpaceOnUse" x="0" y="0" width="94" height="93">
<path d="M8.802 0.229248H85.8124C90.2343 0.229248 93.8124 3.81258 93.8124 8.22925V84.6824C93.8124 89.1042 90.2343 92.6824 85.8124 92.6824H8.802C4.38534 92.6824 0.802002 89.1042 0.802002 84.6824V8.22925C0.802002 3.81258 4.38534 0.229248 8.802 0.229248Z" fill="white"/>
</mask>
<g mask="url(#mask1_2542_2767)">
<path d="M0.802002 0.229248H93.9791V92.6824H0.802002V0.229248Z" fill="#FFA500"/>
</g>
</g>
<path d="M36.8955 47.8753V60.8753C36.8955 63.2712 38.8382 65.2087 41.2288 65.2087H58.5622C60.958 65.2087 62.8955 63.2712 62.8955 60.8753V47.8753C62.8955 45.4847 60.958 43.542 58.5622 43.542H41.2288C38.8382 43.542 36.8955 45.4847 36.8955 47.8753ZM60.7288 47.8753V60.8753C60.7288 62.068 59.7549 63.042 58.5622 63.042H41.2288C40.0413 63.042 39.0622 62.068 39.0622 60.8753V47.8753C39.0622 46.6826 40.0413 45.7087 41.2288 45.7087H58.5622C59.7549 45.7087 60.7288 46.6826 60.7288 47.8753Z" fill="#737373"/>
<path d="M57.8021 57.0833H56.1771V51.6667H57.8021V49.5H52.3906V51.6667H54.0156V57.0833H52.3906V59.25H57.8021V57.0833Z" fill="#737373"/>
<path d="M44.6875 57.0833H47.526L48 59.25H50.224L48.2396 50.3438C48.1302 49.849 47.6875 49.5 47.1771 49.5H45.0104C44.5 49.5 44.0677 49.8594 43.9479 50.3438L41.9688 59.25H44.1875L44.6667 57.0833H44.6875ZM45.8906 51.6667H46.3229L47.0469 54.9167H45.1719L45.901 51.6667H45.8906Z" fill="#737373"/>
<mask id="mask2_2542_2767" style="mask-type:luminance" maskUnits="userSpaceOnUse" x="11" y="27" width="5" height="4">
<path d="M11.9844 27.667H15.6667V30.3337H11.9844V27.667Z" fill="white"/>
</mask>
<g mask="url(#mask2_2542_2767)">
<path d="M11.9844 27.8389H15.2344V30.0055H11.9844V27.8389Z" fill="#737373"/>
</g>
<path d="M37.9795 27.8389H41.2295V30.0055H37.9795V27.8389Z" fill="#737373"/>
<mask id="mask3_2542_2767" style="mask-type:luminance" maskUnits="userSpaceOnUse" x="25" y="14" width="4" height="5">
<path d="M25 14.2969H29V18.3333H25V14.2969Z" fill="white"/>
</mask>
<g mask="url(#mask3_2542_2767)">
<path d="M25.5261 14.2969H27.6928V17.5469H25.5261V14.2969Z" fill="#737373"/>
</g>
<path d="M15.4951 19.3389L17.0264 17.8076L19.3285 20.1045L17.792 21.6357L15.4951 19.3389Z" fill="#737373"/>
<path d="M34.9736 37.7236L36.5049 36.1924L38.8018 38.4893L37.2705 40.0205L34.9736 37.7236Z" fill="#737373"/>
<path d="M33.8857 20.0986L36.1826 17.8018L37.7139 19.333L35.417 21.6299L33.8857 20.0986Z" fill="#737373"/>
<path d="M15.5049 38.5049L17.8018 36.208L19.333 37.7393L17.0361 40.0361L15.5049 38.5049Z" fill="#737373"/>
<path d="M22.2758 37.0416V40.8332C22.2758 43.2291 24.2133 45.1666 26.6091 45.1666C28.9997 45.1666 30.9425 43.2291 30.9425 40.8332V37.0416C33.9216 35.453 35.8122 32.3436 35.8122 28.9218C35.8122 26.3072 34.6977 23.8072 32.7497 22.0624C30.8018 20.3176 28.1768 19.4843 25.5675 19.7759C21.406 20.2447 18.005 23.5884 17.4737 27.7395C16.9893 31.6041 18.906 35.2551 22.2758 37.0416ZM26.6091 42.9999C25.807 42.9999 25.1143 42.5572 24.7445 41.9166H28.4685C28.0935 42.5572 27.4112 42.9999 26.6091 42.9999ZM28.7758 39.7499H24.4425V38.6666H28.7758V39.7499ZM19.6195 27.9999C20.0206 24.8228 22.6195 22.2707 25.7966 21.9218C26.0675 21.8905 26.3383 21.8801 26.6091 21.8801C28.3383 21.8801 29.9893 22.5051 31.2966 23.677C32.7914 25.0103 33.6508 26.927 33.6508 28.9218C33.6508 31.7134 31.9893 34.2499 29.4216 35.3749C29.0362 35.5468 28.7758 35.9374 28.7758 36.3697V36.5103H24.4425V36.3697C24.4425 35.9374 24.182 35.5468 23.7914 35.3749C20.9008 34.1093 19.2289 31.1509 19.6195 28.0103V27.9999Z" fill="#737373"/>
<mask id="mask4_2542_2767" style="mask-type:luminance" maskUnits="userSpaceOnUse" x="18" y="47" width="50" height="35">
<path d="M18.333 47.667H67.6663V81.7607H18.333V47.667Z" fill="white"/>
</mask>
<g mask="url(#mask4_2542_2767)">
<path d="M18.6663 47.7556C18.5465 48.8702 18.484 50.0004 18.484 51.1254C18.484 67.8494 32.0882 81.4535 48.8121 81.4535C55.3798 81.4535 61.6038 79.3962 66.8486 75.5004L65.5621 73.766C60.6976 77.3806 54.9111 79.2921 48.8226 79.2921C33.2913 79.2921 20.6611 66.6567 20.6611 51.1254C20.6611 50.0837 20.7132 49.0369 20.833 47.9952L18.6767 47.7556H18.6663Z" fill="#737373"/>
</g>
<mask id="mask5_2542_2767" style="mask-type:luminance" maskUnits="userSpaceOnUse" x="43" y="19" width="37" height="52">
<path d="M43.667 19.667H79.4535V70.3337H43.667V19.667Z" fill="white"/>
</mask>
<g mask="url(#mask5_2542_2767)">
<path d="M48.8128 20.7973C47.3076 20.7973 45.8024 20.9014 44.318 21.1202L44.6305 23.266C46.0107 23.0577 47.4065 22.9639 48.8024 22.9639C64.3388 22.9639 76.969 35.5942 76.969 51.1254C76.969 57.2139 75.0628 63.0108 71.443 67.8598L73.1774 69.1515C77.0732 63.9171 79.1357 57.6775 79.1357 51.115C79.1357 34.391 65.5263 20.7869 48.8024 20.7869L48.8128 20.7973Z" fill="#737373"/>
</g>
<path d="M67.9741 71.7497L69.4377 73.3434C69.9897 72.833 70.521 72.3018 71.0314 71.7497L69.4377 70.2861C68.9741 70.7965 68.4845 71.2861 67.9741 71.7497Z" fill="#737373"/>
<path d="M63.6667 33.792H59.9583C59.3646 33.792 58.875 34.2816 58.875 34.8753V35.6566C58.4219 35.8076 57.9896 35.9847 57.5573 36.1982L57.0052 35.6462C56.5781 35.2243 55.8958 35.2243 55.474 35.6462L52.8437 38.2764C52.4219 38.7035 52.4219 39.3857 52.8437 39.8076L53.3958 40.3597C53.0937 40.9535 52.8646 41.5524 52.7031 42.167L54.7917 42.7295C54.9323 42.2191 55.1198 41.7347 55.3802 41.2451C55.7552 40.542 55.651 39.667 55.1406 39.0472L56.2552 37.9326C56.875 38.443 57.75 38.5472 58.4531 38.1826C58.9531 37.9222 59.4635 37.7243 60.0469 37.5732C60.651 37.391 61.0625 36.8493 61.0625 36.2191V35.9482H62.6042V36.1982C62.6042 36.8701 63.0781 37.4535 63.6875 37.5837C64.2188 37.7243 64.7396 37.9222 65.2135 38.1826C65.9167 38.5628 66.8073 38.4535 67.4115 37.943L68.526 39.0576C68.0208 39.6774 67.9115 40.5524 68.2812 41.2451C68.4844 41.6462 68.6562 42.0576 68.7865 42.4691C69.0365 43.2503 69.7083 43.7816 70.5104 43.8597V45.4066C69.7188 45.4691 69.0365 46.0003 68.776 46.8024C68.6667 47.1618 68.5156 47.542 68.2917 48.0055C67.9115 48.7087 68.0208 49.5889 68.526 50.2035L67.4115 51.3232C66.7969 50.8128 65.9167 50.7035 65.224 51.0732C64.8229 51.2764 64.4115 51.4482 64 51.5785L64.651 53.6514C65.125 53.5003 65.6042 53.3024 66.0885 53.0628L66.6458 53.6149C66.8594 53.8337 67.1302 53.9326 67.4115 53.9326C67.6927 53.9326 67.9635 53.8232 68.1823 53.6149L70.8125 50.9847C71.2344 50.5628 71.2344 49.8805 70.8125 49.4587L70.2604 48.9066C70.5104 48.4066 70.6823 47.9743 70.8021 47.5837H71.5938C72.1875 47.5837 72.6771 47.0941 72.6771 46.5003V42.7972C72.6771 42.1982 72.1875 41.7139 71.5938 41.7139H70.8125C70.6719 41.2816 70.4896 40.8337 70.2708 40.391L70.8229 39.8389C71.2448 39.417 71.2448 38.7347 70.8229 38.3128L68.1927 35.6774C67.7708 35.2555 67.0885 35.2555 66.6667 35.6774L66.1146 36.2295C65.6927 36.016 65.2552 35.8441 64.7917 35.6878V34.9118C64.7917 34.3128 64.3021 33.8285 63.7083 33.8285L63.6667 33.792Z" fill="#737373"/>
<path d="M65.3958 48.6872C66.5677 47.6611 67.2292 46.1768 67.2292 44.6247C67.2292 41.6351 64.8021 39.208 61.8125 39.208C60.2656 39.208 58.7813 39.8799 57.75 41.0413L59.375 42.4684C59.9948 41.7653 60.8802 41.3643 61.8125 41.3643C63.599 41.3643 65.0625 42.8278 65.0625 44.6143C65.0625 45.5465 64.6615 46.4372 63.9583 47.0518L65.3854 48.6768L65.3958 48.6872Z" fill="#737373"/>
<path d="M30.4007 61.5993C29.8018 61.5993 29.3174 62.0889 29.3174 62.6826V65.5628C29.3174 66.1618 29.8018 66.6462 30.4007 66.6462H30.833C30.9163 66.9066 31.0257 67.1566 31.1351 67.3962L30.833 67.6982C30.4111 68.1201 30.4111 68.8024 30.833 69.2243L32.8695 71.2607C33.2913 71.6826 33.9736 71.6826 34.3955 71.2607L34.6976 70.9587C34.9372 71.0785 35.1976 71.1878 35.4476 71.2712V71.7087C35.4476 72.3024 35.932 72.792 36.5309 72.792H39.4111C40.0049 72.792 40.4945 72.3024 40.4945 71.7087V71.2712C40.7549 71.1878 41.0049 71.0785 41.2393 70.9691L41.5465 71.2712C41.9684 71.6982 42.6507 71.6982 43.0726 71.2712L45.109 69.2347C45.5309 68.8128 45.5309 68.1305 45.109 67.7087L44.7965 67.3962C44.8903 67.1878 44.9788 66.9743 45.057 66.7555L43.0049 66.042C42.9424 66.2347 42.8538 66.4326 42.7497 66.6357C42.4424 67.2139 42.4997 67.9066 42.833 68.4378L42.2705 69.0003C41.7393 68.6514 41.0361 68.6201 40.4528 68.9222C40.1924 69.0628 39.8851 69.193 39.5726 69.2816C38.9476 69.4743 38.4893 69.9951 38.359 70.6149H37.5674C37.4372 69.9951 36.984 69.4743 36.333 69.2712C36.0413 69.1826 35.7393 69.0628 35.458 68.9014C34.8851 68.5993 34.1924 68.641 33.6611 68.9899L33.0934 68.4222C33.432 67.8962 33.4736 67.1878 33.1715 66.6045C33.0309 66.3441 32.9007 66.042 32.8122 65.7295C32.6195 65.0993 32.0986 64.6462 31.484 64.516V63.7555C32.0674 63.7347 32.5882 63.3337 32.7497 62.7503C32.859 62.3285 33.0101 61.9587 33.1924 61.5993C33.4945 61.0264 33.4424 60.3337 33.109 59.8024L33.6715 59.2399C34.2028 59.5837 34.8955 59.6305 35.4684 59.3232C35.7393 59.1826 35.958 59.0889 36.1507 59.0212L35.4684 56.9639C35.2288 57.042 34.9788 57.1462 34.708 57.2764L34.3955 56.9639C33.9736 56.542 33.2913 56.542 32.8695 56.9639L30.833 59.0003C30.4111 59.4222 30.4111 60.1045 30.833 60.5264L31.1455 60.8441C31.0257 61.0785 30.932 61.3285 30.8434 61.5889H30.4111L30.4007 61.5993Z" fill="#737373"/>
<path d="M34.9476 61.8486C34.4476 62.5101 34.1924 63.3018 34.1924 64.1247C34.1924 66.2132 35.8903 67.9163 37.9788 67.9163C38.807 67.9163 39.5934 67.6559 40.2549 67.1559L38.958 65.4215C38.6768 65.6403 38.3382 65.7497 37.9788 65.7497C37.083 65.7497 36.3538 65.0205 36.3538 64.1247C36.3538 63.7653 36.4632 63.432 36.682 63.1507L34.9476 61.8486Z" fill="#737373"/>
</svg>
