<svg width="47" height="48" viewBox="0 0 47 48" fill="none" xmlns="http://www.w3.org/2000/svg">
<mask id="mask0_107_55" style="mask-type:luminance" maskUnits="userSpaceOnUse" x="0" y="0" width="47" height="48">
<path d="M0 0H47V47.5938H0V0Z" fill="white"/>
</mask>
<g mask="url(#mask0_107_55)">
<path d="M0.364513 44.8542L4.31764 27.724C4.47389 26.9948 5.09889 26.4219 5.88014 26.3178L28.0103 24.0261C28.6353 23.974 28.6353 23.0365 28.0103 22.9323L5.88014 20.8021C5.09889 20.75 4.47389 20.1771 4.31764 19.448L0.364513 2.36984C-6.92053e-05 0.911506 1.55722 -0.286411 2.91139 0.390673L46.1822 22.0521C47.4843 22.724 47.4843 24.599 46.1822 25.2761L2.91139 46.8334C1.55722 47.5105 -6.92053e-05 46.3125 0.364513 44.8542Z" fill="#8C52FF"/>
</g>
</svg>
