<svg width="47" height="47" viewBox="0 0 47 47" fill="none" xmlns="http://www.w3.org/2000/svg">
<mask id="mask0_106_50" style="mask-type:luminance" maskUnits="userSpaceOnUse" x="0" y="0" width="47" height="47">
<path d="M0 0H47V47H0V0Z" fill="white"/>
</mask>
<g mask="url(#mask0_106_50)">
<path d="M23.5573 0C10.6042 0 0 10.599 0 23.5521C0 36.5104 10.6042 47.1094 23.5573 47.1094C36.5104 47.1094 47.1094 36.5104 47.1094 23.5521C47.1094 10.599 36.5104 0 23.5573 0ZM32.9792 25.9063H25.9115V32.974C25.9115 34.3906 24.9688 35.3281 23.5573 35.3281C22.1458 35.3281 21.2031 34.3906 21.2031 32.974V25.9063H14.1354C12.724 25.9063 11.7813 24.9688 11.7813 23.5521C11.7813 22.1406 12.724 21.1979 14.1354 21.1979H21.2031V14.1302C21.2031 12.7188 22.1458 11.776 23.5573 11.776C24.9688 11.776 25.9115 12.7188 25.9115 14.1302V21.1979H32.9792C34.3906 21.1979 35.3333 22.1406 35.3333 23.5521C35.3333 24.9688 34.3906 25.9063 32.9792 25.9063Z" fill="#A6A6A6"/>
</g>
</svg>
