<svg width="48" height="48" viewBox="0 0 48 48" fill="none" xmlns="http://www.w3.org/2000/svg">
<path d="M9.21875 20.9896C10.0729 21.8437 11.3854 20.5521 10.5208 19.6875L7.48438 16.651L10.5208 13.6146C10.8802 13.2552 10.8802 12.6719 10.5208 12.3125C10.1615 11.9531 9.57813 11.9531 9.21875 12.3125L5.53125 16C5.17187 16.3594 5.17187 16.9427 5.53125 17.3021L9.21875 20.9896Z" fill="black"/>
<path d="M19.7344 20.9896L23.4219 17.3021C23.7813 16.9427 23.7813 16.3594 23.4219 16L19.7344 12.3125C19.375 11.9531 18.7917 11.9531 18.4323 12.3125C18.073 12.6719 18.073 13.2552 18.4323 13.6146L21.4688 16.651L18.4323 19.6875C17.5677 20.5521 18.8855 21.8437 19.7344 20.9896Z" fill="black"/>
<path d="M13.5573 21.2604C13.9687 21.2604 14.3437 20.9792 14.4479 20.5625L16.2917 13.1875C16.4167 12.6979 16.1146 12.1927 15.6198 12.0729C15.125 11.9479 14.625 12.25 14.5052 12.7396L12.6615 20.1146C12.5156 20.6979 12.9531 21.2604 13.5573 21.2604Z" fill="black"/>
<path d="M23.6927 26.7916C23.1823 26.7916 22.7708 27.2031 22.7708 27.7083C22.7708 28.2187 23.1823 28.6302 23.6927 28.6302H42.125C42.6302 28.6302 43.0469 28.2187 43.0469 27.7083C43.0469 27.2031 42.6302 26.7916 42.125 26.7916H41.2031V19.4166C41.2031 18.9062 40.7864 18.4948 40.2812 18.4948C39.7708 18.4948 39.3594 18.9062 39.3594 19.4166V26.7916H37.5156V17.5729C37.5156 17.0625 37.1041 16.651 36.5937 16.651C36.0833 16.651 35.6719 17.0625 35.6719 17.5729V26.7916H33.8281V23.1041C33.8281 22.5937 33.4166 22.1823 32.9062 22.1823C32.401 22.1823 31.9844 22.5937 31.9844 23.1041V26.7916H30.1406V21.2604C30.1406 20.75 29.7291 20.3385 29.2187 20.3385C28.7135 20.3385 28.3021 20.75 28.3021 21.2604V26.7916H26.4583V24.026C26.4583 23.5156 26.0416 23.1041 25.5364 23.1041C25.026 23.1041 24.6146 23.5156 24.6146 24.026V26.7916H23.6927Z" fill="black"/>
<path d="M25.5364 7.4375H42.125C42.6302 7.4375 43.0469 7.02604 43.0469 6.51563C43.0469 6.00521 42.6302 5.59375 42.125 5.59375H25.5364C25.026 5.59375 24.6146 6.00521 24.6146 6.51563C24.6146 7.02604 25.026 7.4375 25.5364 7.4375Z" fill="black"/>
<path d="M25.5364 11.125H36.5937C37.1041 11.125 37.5156 10.7083 37.5156 10.2031C37.5156 9.69271 37.1041 9.28125 36.5937 9.28125H25.5364C25.026 9.28125 24.6146 9.69271 24.6146 10.2031C24.6146 10.7083 25.026 11.125 25.5364 11.125Z" fill="black"/>
<path d="M43.0469 36.0052C43.0469 36.2605 42.9531 36.474 42.776 36.6563C42.5937 36.8386 42.3802 36.9271 42.125 36.9271C41.8698 36.9271 41.651 36.8386 41.474 36.6563C41.2917 36.474 41.2031 36.2605 41.2031 36.0052C41.2031 35.75 41.2917 35.5313 41.474 35.3542C41.651 35.1719 41.8698 35.0834 42.125 35.0834C42.3802 35.0834 42.5937 35.1719 42.776 35.3542C42.9531 35.5313 43.0469 35.75 43.0469 36.0052Z" fill="black"/>
<path d="M38.4375 35.0834H37.5156C37.0052 35.0834 36.5938 35.4948 36.5938 36.0052C36.5938 36.5157 37.0052 36.9271 37.5156 36.9271H38.4375C38.9479 36.9271 39.3594 36.5157 39.3594 36.0052C39.3594 35.4948 38.9479 35.0834 38.4375 35.0834Z" fill="black"/>
<path d="M33.8281 45.0834H32.9063C32.401 45.0834 31.9844 45.4948 31.9844 46.0052C31.9844 46.5157 32.401 46.9271 32.9063 46.9271H33.8281C34.3385 46.9271 34.75 46.5157 34.75 46.0052C34.75 45.4948 34.3385 45.0834 33.8281 45.0834Z" fill="black"/>
<mask id="mask0_105_49" style="mask-type:luminance" maskUnits="userSpaceOnUse" x="0" y="0" width="48" height="48">
<path d="M0.651062 0.984375H47.6511V47.9844H0.651062V0.984375Z" fill="white"/>
</mask>
<g mask="url(#mask0_105_49)">
<path d="M42.5938 0.984375H5.71356C2.9219 0.984375 0.651062 3.25521 0.651062 6.04688V35.5521C0.651062 38.3438 2.9219 40.6146 5.71356 40.6146H19.5469V42.4583H18.625C16.0834 42.4583 14.0156 44.5208 14.0156 47.0625C14.0156 47.5729 14.4271 47.9844 14.9375 47.9844H33.3698C33.875 47.9844 34.2917 47.5729 34.2917 47.0625C34.2917 44.5208 32.224 42.4583 29.6823 42.4583H28.7604V40.6146H42.5938C45.3802 40.6146 47.6511 38.3438 47.6511 35.5521V6.04688C47.6511 3.25521 45.3802 0.984375 42.5938 0.984375ZM5.71356 2.82813H42.5938C44.3646 2.82813 45.8073 4.27083 45.8073 6.04688V31.3958H2.49481V6.04688C2.49481 4.27083 3.93752 2.82813 5.71356 2.82813ZM32.2865 46.1406H16.0156C16.3959 45.0677 17.4219 44.2969 18.625 44.2969H29.6823C30.8854 44.2969 31.9063 45.0677 32.2865 46.1406ZM26.9167 42.4583H21.3854V40.6146H26.9167V42.4583ZM42.5938 38.7708H5.71356C3.93752 38.7708 2.49481 37.3281 2.49481 35.5521V33.2396H45.8073V35.5521C45.8073 37.3281 44.3646 38.7708 42.5938 38.7708Z" fill="black"/>
</g>
</svg>
