<svg width="70" height="70" viewBox="0 0 94 94" fill="none" xmlns="http://www.w3.org/2000/svg">
<mask id="mask0_2542_2769" style="mask-type:luminance" maskUnits="userSpaceOnUse" x="0" y="0" width="94" height="94">
<path d="M0.734375 0.859375H93.9115V93.3177H0.734375V0.859375Z" fill="white"/>
</mask>
<g mask="url(#mask0_2542_2769)">
<mask id="mask1_2542_2769" style="mask-type:luminance" maskUnits="userSpaceOnUse" x="0" y="0" width="94" height="94">
<path d="M11.7344 0.859375H82.7448C85.6615 0.859375 88.4583 2.02083 90.5208 4.08333C92.5833 6.14583 93.7448 8.94271 93.7448 11.8594V82.3177C93.7448 85.2344 92.5833 88.0313 90.5208 90.0938C88.4583 92.1563 85.6615 93.3177 82.7448 93.3177H11.7344C8.81771 93.3177 6.02083 92.1563 3.95312 90.0938C1.89062 88.0313 0.734375 85.2344 0.734375 82.3177V11.8594C0.734375 8.94271 1.89062 6.14583 3.95312 4.08333C6.02083 2.02083 8.81771 0.859375 11.7344 0.859375Z" fill="white"/>
</mask>
<g mask="url(#mask1_2542_2769)">
<path d="M0.734375 0.859375H93.9115V93.3177H0.734375V0.859375Z" fill="#FF3131"/>
</g>
</g>
<path d="M25.1826 47.7288C26.3493 48.8903 28.1357 47.1299 26.9587 45.9528L22.8285 41.8174L26.9587 37.6872C27.4482 37.1976 27.4482 36.4007 26.9587 35.9111C26.4691 35.4215 25.6722 35.4215 25.1826 35.9111L20.167 40.932C19.6722 41.4215 19.6722 42.2184 20.167 42.708L25.1826 47.7288Z" fill="black"/>
<path d="M39.505 47.7288L44.5258 42.708C45.0154 42.2184 45.0154 41.4215 44.5258 40.932L39.505 35.9111C39.0154 35.4215 38.2238 35.4215 37.7342 35.9111C37.2446 36.4007 37.2446 37.1976 37.7342 37.6872L41.8644 41.8174L37.7342 45.9528C36.5571 47.1299 38.3435 48.8851 39.505 47.7288Z" fill="black"/>
<path d="M31.0937 48.0937C31.6562 48.0937 32.1666 47.7135 32.3073 47.1458L34.8177 37.1041C34.9843 36.4322 34.5781 35.7499 33.9062 35.5833C33.2343 35.4166 32.5521 35.8229 32.3854 36.4947L29.875 46.5364C29.6771 47.3281 30.276 48.0937 31.0937 48.0937Z" fill="black"/>
<path d="M44.8958 55.6247C44.2031 55.6247 43.6406 56.1872 43.6406 56.8799C43.6406 57.5726 44.2031 58.1351 44.8958 58.1351H69.9948C70.6875 58.1351 71.25 57.5726 71.25 56.8799C71.25 56.1872 70.6875 55.6247 69.9948 55.6247H68.7396V45.583C68.7396 44.8903 68.1771 44.3278 67.4844 44.3278C66.7917 44.3278 66.2292 44.8903 66.2292 45.583V55.6247H63.7188V43.0726C63.7188 42.3799 63.1563 41.8174 62.4635 41.8174C61.7708 41.8174 61.2083 42.3799 61.2083 43.0726V55.6247H58.6979V50.6038C58.6979 49.9111 58.1354 49.3486 57.4427 49.3486C56.75 49.3486 56.1875 49.9111 56.1875 50.6038V55.6247H53.6771V48.0934C53.6771 47.4007 53.1146 46.8382 52.4219 46.8382C51.7292 46.8382 51.1667 47.4007 51.1667 48.0934V55.6247H48.6615V51.859C48.6615 51.1663 48.099 50.6038 47.4062 50.6038C46.7135 50.6038 46.151 51.1663 46.151 51.859V55.6247H44.8958Z" fill="black"/>
<path d="M47.4066 29.2712H69.9951C70.6878 29.2712 71.2503 28.7087 71.2503 28.016C71.2503 27.3232 70.6878 26.7607 69.9951 26.7607H47.4066C46.7139 26.7607 46.1514 27.3232 46.1514 28.016C46.1514 28.7087 46.7139 29.2712 47.4066 29.2712Z" fill="black"/>
<path d="M47.4066 34.2917H62.4639C63.1566 34.2917 63.7191 33.7292 63.7191 33.0365C63.7191 32.3437 63.1566 31.7812 62.4639 31.7812H47.4066C46.7139 31.7812 46.1514 32.3437 46.1514 33.0365C46.1514 33.7292 46.7139 34.2917 47.4066 34.2917Z" fill="black"/>
<path d="M71.2502 68.1722C71.2502 68.5212 71.1252 68.818 70.8804 69.0628C70.6356 69.3076 70.3387 69.4274 69.995 69.4274C69.646 69.4274 69.3491 69.3076 69.1043 69.0628C68.8595 68.818 68.7397 68.5212 68.7397 68.1722C68.7397 67.8285 68.8595 67.5316 69.1043 67.2868C69.3491 67.042 69.646 66.917 69.995 66.917C70.3387 66.917 70.6356 67.042 70.8804 67.2868C71.1252 67.5316 71.2502 67.8285 71.2502 68.1722Z" fill="black"/>
<path d="M64.9738 66.917H63.7186C63.0259 66.917 62.4634 67.4795 62.4634 68.1722C62.4634 68.8649 63.0259 69.4274 63.7186 69.4274H64.9738C65.6665 69.4274 66.229 68.8649 66.229 68.1722C66.229 67.4795 65.6665 66.917 64.9738 66.917Z" fill="black"/>
<path d="M58.6979 66.917H57.4427C56.75 66.917 56.1875 67.4795 56.1875 68.1722C56.1875 68.8649 56.75 69.4274 57.4427 69.4274H58.6979C59.3906 69.4274 59.9531 68.8649 59.9531 68.1722C59.9531 67.4795 59.3906 66.917 58.6979 66.917Z" fill="black"/>
<mask id="mask2_2542_2769" style="mask-type:luminance" maskUnits="userSpaceOnUse" x="13" y="20" width="65" height="65">
<path d="M13.5205 20.4844H77.5205V84.4844H13.5205V20.4844Z" fill="white"/>
</mask>
<g mask="url(#mask2_2542_2769)">
<path d="M70.6299 20.4844H20.4111C16.6143 20.4844 13.5205 23.5781 13.5205 27.3802V67.5573C13.5205 71.3542 16.6143 74.4479 20.4111 74.4479H39.2497V76.9583H37.9945C34.5309 76.9583 31.7184 79.7708 31.7184 83.2344C31.7184 83.9271 32.2809 84.4844 32.9736 84.4844H58.0726C58.7653 84.4844 59.3278 83.9271 59.3278 83.2344C59.3278 79.7708 56.5101 76.9583 53.0518 76.9583H51.7966V74.4479H70.6299C74.432 74.4479 77.5205 71.3542 77.5205 67.5573V27.3802C77.5205 23.5781 74.432 20.4844 70.6299 20.4844ZM20.4111 22.9948H70.6299C73.0466 22.9948 75.0101 24.9635 75.0101 27.3802V61.901H16.0309V27.3802C16.0309 24.9635 17.9997 22.9948 20.4111 22.9948ZM56.5986 81.9792H34.4424C34.958 80.5156 36.3538 79.4688 37.9945 79.4688H53.0518C54.6872 79.4688 56.083 80.5156 56.5986 81.9792ZM49.2861 76.9583H41.7549V74.4479H49.2861V76.9583ZM70.6299 71.9375H20.4111C17.9997 71.9375 16.0309 69.974 16.0309 67.5573V64.4062H75.0101V67.5573C75.0101 69.974 73.0466 71.9375 70.6299 71.9375Z" fill="black"/>
</g>
</svg>
